<svg width="960" height="459" viewBox="0 0 960 459" fill="none" xmlns="http://www.w3.org/2000/svg">
<path d="M0 118.341C4.20843 128.951 5.66424 140.676 4.82468 152.673C4.24858 160.905 2.59186 169.27 0 177.499V174.014C2.02376 166.89 3.33083 159.695 3.82711 152.603C4.59245 141.667 3.42998 130.987 0 121.2V118.341Z" fill="white"/>
<path fill-rule="evenodd" clip-rule="evenodd" d="M0 214.049C12.1405 208.592 23.8646 200.765 35.6254 191.814C43.4936 185.825 51.3658 179.343 59.3859 172.739C61.2517 171.202 63.1255 169.66 65.0092 168.115C74.9849 159.933 85.23 151.703 95.9894 144.143C117.509 129.023 141.11 116.567 168.795 112.523C174.963 111.621 180.987 111.259 186.852 111.38C186.898 111.064 186.945 110.749 186.993 110.435C192.054 77.4473 207.971 41.5333 233.728 20.0505C246.615 9.30249 261.969 2.164 279.651 0.827026C297.331 -0.509857 317.299 3.95694 339.41 16.3512C361.623 28.8026 377.285 56.3226 390.639 91.6944C400.468 117.731 409.076 148.109 418.115 180.009L418.118 180.022C421.365 191.478 424.666 203.13 428.1 214.848C441.104 259.221 456.01 304.564 476.987 343.908C497.963 383.25 524.991 416.558 562.221 436.901C621.784 469.449 690.916 460.436 753.211 435.866C815.499 411.298 928.397 320.499 960.322 291.06L961 291.796C929.005 321.299 816.004 412.174 753.578 436.796C691.159 461.415 621.681 470.532 561.741 437.779C524.281 417.31 497.134 383.821 476.105 344.379C455.076 304.939 440.147 259.512 427.141 215.129C423.698 203.383 420.391 191.711 417.141 180.243C408.107 148.357 399.517 118.041 389.703 92.0476C376.353 56.6862 360.794 29.4842 338.921 17.2235C316.946 4.90558 297.173 0.504944 279.726 1.82416C262.28 3.14328 247.118 10.1844 234.369 20.8185C208.853 42.0997 193.018 77.7594 187.982 110.586C187.956 110.752 187.931 110.917 187.907 111.083C187.89 111.191 187.875 111.298 187.859 111.406C234.223 112.81 270.569 144.479 289.82 179.489C300.731 199.331 306.186 220.302 304.845 237.529C303.503 254.774 295.333 268.329 278.964 273.101C262.682 277.847 248.126 274.13 235.644 264.874C223.18 255.631 212.785 240.869 204.746 223.502C188.982 189.448 182.195 145.21 186.711 112.379C180.936 112.265 175.008 112.626 168.94 113.512C141.47 117.525 118.018 129.888 96.5643 144.961C85.8373 152.498 75.6162 160.709 65.6433 168.888C63.763 170.43 61.8913 171.971 60.0266 173.507L60.0239 173.509C52.0041 180.113 44.1147 186.609 36.231 192.609C24.3217 201.674 12.3972 209.631 0 215.144V214.049ZM205.654 223.081C189.945 189.147 183.199 145.04 187.717 112.404C233.684 113.751 269.787 145.132 288.944 179.971C299.79 199.695 305.169 220.472 303.848 237.451C302.529 254.411 294.542 267.518 278.684 272.14C262.739 276.788 248.503 273.165 236.24 264.071C223.958 254.963 213.654 240.364 205.654 223.081Z" fill="white"/>
</svg>
