<svg width="960" height="255" viewBox="0 0 960 255" fill="none" xmlns="http://www.w3.org/2000/svg">
<path d="M960 173.148C952.17 176.631 944.152 179.139 935.83 180.336C935.534 180.379 935.238 180.42 934.941 180.459C921.411 196.227 904.213 208.292 885.258 213.04C863.886 218.395 840.332 214.434 817.379 196.089C774.307 161.662 759.787 127.996 746.595 97.4098C745.767 95.488 744.943 93.5784 744.118 91.6815C737.141 75.6419 730.067 60.5384 718.817 46.6543C707.573 32.7776 692.139 20.0982 668.42 8.95262C649.525 0.0734882 627.639 -0.683088 604.581 4.02555C581.523 8.73418 557.328 18.9017 533.851 31.8253C486.896 57.6731 442.892 94.5029 416.724 120.544L416.019 119.835C442.233 93.7472 486.312 56.8535 533.369 30.9493C556.898 17.997 581.191 7.78145 604.381 3.04575C627.571 -1.68997 649.694 -0.952177 668.846 8.04756C692.686 19.2506 708.245 32.0191 719.594 46.0247C730.937 60.0228 738.055 75.236 745.035 91.2826C745.859 93.1779 746.682 95.0853 747.51 97.004C760.692 127.568 775.128 161.039 818.004 195.308C840.725 213.467 863.961 217.345 885.015 212.07C903.394 207.466 920.15 195.877 933.462 180.64C912.583 182.999 889.825 177.019 863.408 157.679C836.007 137.618 823.063 117.283 820.196 98.9461C817.326 80.5952 824.563 64.3462 837.302 52.5195C862.748 28.8961 910.252 22.8166 943.527 52.6787C951.097 59.472 956.5 67.5227 960 76.3451V79.204C956.61 69.5326 951.006 60.734 942.859 53.4229C910.009 23.9418 863.09 29.9433 837.982 53.2524C825.445 64.8919 818.373 80.8221 821.184 98.7916C823.996 116.775 836.722 136.902 863.999 156.872C890.722 176.437 913.562 182.173 934.432 179.517C936.04 177.631 937.595 175.692 939.096 173.705C948.572 161.158 955.817 146.743 960 132.018V135.503C955.676 149.233 948.748 162.583 939.893 174.308C938.607 176.012 937.279 177.682 935.912 179.314C944.195 178.097 952.184 175.566 960 172.053V173.148Z" fill="#6F47FF"/>
<path fill-rule="evenodd" clip-rule="evenodd" d="M73.9766 52.4405C63.0544 61.5779 54.0617 77.2267 50.2436 101.535C46.7987 123.468 48.8169 143.387 54.9867 161.048C72.8427 151.093 90.839 138.934 105.905 126.566C121.897 113.437 134.537 100.113 140.236 88.9697C145.889 77.914 144.071 67.1636 137.922 58.721C131.759 50.2604 121.237 44.1131 109.509 42.3745C97.7924 40.6375 84.8965 43.305 73.9766 52.4405ZM55.3255 162.004C73.2794 152.006 91.3834 139.781 106.54 127.339C122.556 114.19 135.33 100.759 141.126 89.425C146.966 78.0034 145.081 66.8511 138.73 58.1323C132.393 49.4316 121.619 43.1588 109.656 41.3853C97.6826 39.6103 84.4933 42.3386 73.335 51.6735C62.179 61.0065 53.1003 76.9026 49.2557 101.38C45.7728 123.555 47.8337 143.693 54.0995 161.541C53.3145 161.975 52.5299 162.405 51.7459 162.831C32.8311 173.102 14.3189 180.736 -0.140533 183.388C-7.37405 184.715 -13.5424 184.785 -18.2262 183.356C-22.8795 181.936 -26.0672 179.041 -27.4193 174.37L-28.3799 174.648C-26.9223 179.683 -23.453 182.807 -18.518 184.312C-13.6133 185.809 -7.26187 185.711 0.0398712 184.372C14.651 181.692 33.2711 174.001 52.2231 163.71C52.9614 163.309 53.7003 162.904 54.4395 162.495C62.0808 183.655 75.653 201.559 92.8946 215.777C124.855 242.134 169.423 255.831 212.219 254.191C269.521 251.994 308.176 229.921 338.749 202.716C354.028 189.121 367.289 174.243 379.842 159.939C380.722 158.936 381.598 157.936 382.471 156.94C394.065 143.714 405.119 131.103 416.715 120.555L416.042 119.816C404.402 130.403 393.312 143.056 381.729 156.27C380.852 157.27 379.973 158.273 379.09 159.279C366.537 173.584 353.312 188.419 338.084 201.969C307.644 229.056 269.202 251.005 212.18 253.191C169.604 254.824 125.283 241.191 93.5309 215.006C76.3782 200.86 62.8925 183.054 55.3255 162.004Z" fill="#6F47FF"/>
</svg>
