<svg width="39" height="18" viewBox="0 0 39 18" fill="none" xmlns="http://www.w3.org/2000/svg">
<rect width="39" height="18" rx="4" fill="#6F47FF"/>
<path d="M5.734 10.226C5.734 11.082 5.844 11.914 6.064 12.722C6.284 13.526 6.602 14.294 7.018 15.026C7.042 15.07 7.058 15.108 7.066 15.14C7.074 15.172 7.078 15.204 7.078 15.236C7.078 15.292 7.064 15.338 7.036 15.374C7.008 15.41 6.972 15.442 6.928 15.47L6.454 15.758C6.154 15.298 5.898 14.842 5.686 14.39C5.478 13.938 5.308 13.484 5.176 13.028C5.048 12.572 4.954 12.114 4.894 11.654C4.834 11.19 4.804 10.714 4.804 10.226C4.804 9.742 4.834 9.268 4.894 8.804C4.954 8.34 5.048 7.882 5.176 7.43C5.308 6.974 5.478 6.52 5.686 6.068C5.898 5.616 6.154 5.158 6.454 4.694L6.928 4.988C6.972 5.016 7.008 5.048 7.036 5.084C7.064 5.12 7.078 5.166 7.078 5.222C7.078 5.282 7.058 5.35 7.018 5.426C6.598 6.154 6.278 6.922 6.058 7.73C5.842 8.538 5.734 9.37 5.734 10.226ZM8.50966 14V5.162H9.58366V8.798C9.83566 8.506 10.1237 8.272 10.4477 8.096C10.7757 7.916 11.1497 7.826 11.5697 7.826C11.9217 7.826 12.2397 7.892 12.5237 8.024C12.8077 8.156 13.0497 8.354 13.2497 8.618C13.4497 8.878 13.6037 9.202 13.7117 9.59C13.8197 9.974 13.8737 10.418 13.8737 10.922C13.8737 11.37 13.8137 11.788 13.6937 12.176C13.5737 12.56 13.3997 12.894 13.1717 13.178C12.9477 13.458 12.6717 13.68 12.3437 13.844C12.0197 14.004 11.6537 14.084 11.2457 14.084C10.8537 14.084 10.5197 14.008 10.2437 13.856C9.97166 13.704 9.73366 13.492 9.52966 13.22L9.47566 13.772C9.44366 13.924 9.35166 14 9.19966 14H8.50966ZM11.2217 8.678C10.8737 8.678 10.5677 8.758 10.3037 8.918C10.0437 9.078 9.80366 9.304 9.58366 9.596V12.536C9.77566 12.8 9.98766 12.986 10.2197 13.094C10.4557 13.202 10.7177 13.256 11.0057 13.256C11.5737 13.256 12.0097 13.054 12.3137 12.65C12.6177 12.246 12.7697 11.67 12.7697 10.922C12.7697 10.526 12.7337 10.186 12.6617 9.902C12.5937 9.618 12.4937 9.386 12.3617 9.206C12.2297 9.022 12.0677 8.888 11.8757 8.804C11.6837 8.72 11.4657 8.678 11.2217 8.678ZM17.5828 7.826C17.9468 7.826 18.2828 7.888 18.5908 8.012C18.8988 8.132 19.1648 8.308 19.3888 8.54C19.6128 8.768 19.7868 9.052 19.9108 9.392C20.0388 9.728 20.1028 10.112 20.1028 10.544C20.1028 10.712 20.0848 10.824 20.0488 10.88C20.0128 10.936 19.9448 10.964 19.8448 10.964H15.8008C15.8088 11.348 15.8608 11.682 15.9568 11.966C16.0528 12.25 16.1848 12.488 16.3528 12.68C16.5208 12.868 16.7208 13.01 16.9528 13.106C17.1848 13.198 17.4448 13.244 17.7328 13.244C18.0008 13.244 18.2308 13.214 18.4228 13.154C18.6188 13.09 18.7868 13.022 18.9268 12.95C19.0668 12.878 19.1828 12.812 19.2748 12.752C19.3708 12.688 19.4528 12.656 19.5208 12.656C19.6088 12.656 19.6768 12.69 19.7248 12.758L20.0248 13.148C19.8928 13.308 19.7348 13.448 19.5508 13.568C19.3668 13.684 19.1688 13.78 18.9568 13.856C18.7488 13.932 18.5328 13.988 18.3088 14.024C18.0848 14.064 17.8628 14.084 17.6428 14.084C17.2228 14.084 16.8348 14.014 16.4788 13.874C16.1268 13.73 15.8208 13.522 15.5608 13.25C15.3048 12.974 15.1048 12.634 14.9608 12.23C14.8168 11.826 14.7448 11.362 14.7448 10.838C14.7448 10.414 14.8088 10.018 14.9368 9.65C15.0688 9.282 15.2568 8.964 15.5008 8.696C15.7448 8.424 16.0428 8.212 16.3948 8.06C16.7468 7.904 17.1428 7.826 17.5828 7.826ZM17.6068 8.612C17.0908 8.612 16.6848 8.762 16.3888 9.062C16.0928 9.358 15.9088 9.77 15.8368 10.298H19.1428C19.1428 10.05 19.1088 9.824 19.0408 9.62C18.9728 9.412 18.8728 9.234 18.7408 9.086C18.6088 8.934 18.4468 8.818 18.2548 8.738C18.0668 8.654 17.8508 8.612 17.6068 8.612ZM23.3118 14.096C22.8318 14.096 22.4618 13.962 22.2018 13.694C21.9458 13.426 21.8178 13.04 21.8178 12.536V8.816H21.0858C21.0218 8.816 20.9678 8.798 20.9238 8.762C20.8798 8.722 20.8578 8.662 20.8578 8.582V8.156L21.8538 8.03L22.0998 6.152C22.1078 6.092 22.1338 6.044 22.1777 6.008C22.2218 5.968 22.2778 5.948 22.3458 5.948H22.8858V8.042H24.6258V8.816H22.8858V12.464C22.8858 12.72 22.9478 12.91 23.0718 13.034C23.1958 13.158 23.3558 13.22 23.5518 13.22C23.6638 13.22 23.7598 13.206 23.8398 13.178C23.9238 13.146 23.9958 13.112 24.0558 13.076C24.1158 13.04 24.1658 13.008 24.2058 12.98C24.2498 12.948 24.2878 12.932 24.3198 12.932C24.3758 12.932 24.4258 12.966 24.4698 13.034L24.7818 13.544C24.5978 13.716 24.3758 13.852 24.1158 13.952C23.8558 14.048 23.5878 14.096 23.3118 14.096ZM30.4103 14H29.9363C29.8323 14 29.7483 13.984 29.6843 13.952C29.6203 13.92 29.5783 13.852 29.5583 13.748L29.4383 13.184C29.2783 13.328 29.1223 13.458 28.9703 13.574C28.8183 13.686 28.6583 13.782 28.4903 13.862C28.3223 13.938 28.1423 13.996 27.9503 14.036C27.7623 14.076 27.5523 14.096 27.3203 14.096C27.0843 14.096 26.8623 14.064 26.6543 14C26.4503 13.932 26.2723 13.832 26.1203 13.7C25.9683 13.568 25.8463 13.402 25.7543 13.202C25.6663 12.998 25.6223 12.758 25.6223 12.482C25.6223 12.242 25.6883 12.012 25.8203 11.792C25.9523 11.568 26.1643 11.37 26.4563 11.198C26.7523 11.026 27.1383 10.886 27.6143 10.778C28.0903 10.666 28.6723 10.602 29.3603 10.586V10.112C29.3603 9.64 29.2583 9.284 29.0543 9.044C28.8543 8.8 28.5563 8.678 28.1603 8.678C27.9003 8.678 27.6803 8.712 27.5003 8.78C27.3243 8.844 27.1703 8.918 27.0383 9.002C26.9103 9.082 26.7983 9.156 26.7023 9.224C26.6103 9.288 26.5183 9.32 26.4263 9.32C26.3543 9.32 26.2903 9.302 26.2343 9.266C26.1823 9.226 26.1403 9.178 26.1083 9.122L25.9163 8.78C26.2523 8.456 26.6143 8.214 27.0023 8.054C27.3903 7.894 27.8203 7.814 28.2923 7.814C28.6323 7.814 28.9343 7.87 29.1983 7.982C29.4623 8.094 29.6843 8.25 29.8643 8.45C30.0443 8.65 30.1803 8.892 30.2723 9.176C30.3643 9.46 30.4103 9.772 30.4103 10.112V14ZM27.6383 13.346C27.8263 13.346 27.9983 13.328 28.1543 13.292C28.3103 13.252 28.4563 13.198 28.5923 13.13C28.7323 13.058 28.8643 12.972 28.9883 12.872C29.1163 12.772 29.2403 12.658 29.3603 12.53V11.264C28.8683 11.28 28.4503 11.32 28.1063 11.384C27.7623 11.444 27.4823 11.524 27.2663 11.624C27.0503 11.724 26.8923 11.842 26.7923 11.978C26.6963 12.114 26.6483 12.266 26.6483 12.434C26.6483 12.594 26.6743 12.732 26.7263 12.848C26.7783 12.964 26.8483 13.06 26.9363 13.136C27.0243 13.208 27.1283 13.262 27.2483 13.298C27.3683 13.33 27.4983 13.346 27.6383 13.346ZM32.9403 10.226C32.9403 9.37 32.8303 8.538 32.6103 7.73C32.3943 6.922 32.0763 6.154 31.6563 5.426C31.6163 5.35 31.5963 5.282 31.5963 5.222C31.5963 5.166 31.6103 5.12 31.6383 5.084C31.6663 5.048 31.7023 5.016 31.7463 4.988L32.2203 4.694C32.5203 5.158 32.7743 5.616 32.9823 6.068C33.1943 6.52 33.3643 6.974 33.4923 7.43C33.6243 7.882 33.7203 8.34 33.7803 8.804C33.8403 9.268 33.8703 9.742 33.8703 10.226C33.8703 10.714 33.8403 11.19 33.7803 11.654C33.7203 12.114 33.6243 12.572 33.4923 13.028C33.3643 13.484 33.1943 13.938 32.9823 14.39C32.7743 14.842 32.5203 15.298 32.2203 15.758L31.7463 15.47C31.7023 15.442 31.6663 15.41 31.6383 15.374C31.6103 15.338 31.5963 15.292 31.5963 15.236C31.5963 15.204 31.6003 15.172 31.6083 15.14C31.6163 15.108 31.6323 15.07 31.6563 15.026C32.0723 14.294 32.3903 13.526 32.6103 12.722C32.8303 11.914 32.9403 11.082 32.9403 10.226Z" fill="white"/>
</svg>
