<svg width="44" height="44" viewBox="0 0 44 44" fill="none" xmlns="http://www.w3.org/2000/svg">
<path d="M0 22C0 9.84974 9.84974 0 22 0C34.1503 0 44 9.84974 44 22C44 34.1503 34.1503 44 22 44C9.84974 44 0 34.1503 0 22Z" fill="#6F47FF"/>
<path fill-rule="evenodd" clip-rule="evenodd" d="M20.3329 27.8333C20.1446 27.8333 19.9554 27.7699 19.7996 27.6399C19.4462 27.3458 19.3987 26.8199 19.6929 26.4666L23.4229 21.9908L19.8271 17.5224C19.5387 17.1641 19.5954 16.6391 19.9537 16.3508C20.3129 16.0624 20.8371 16.1191 21.1262 16.4774L25.1496 21.4774C25.3979 21.7866 25.3946 22.2283 25.1404 22.5333L20.9737 27.5333C20.8087 27.7308 20.5721 27.8333 20.3329 27.8333Z" fill="white"/>
<mask id="mask0_149_6224" style="mask-type:alpha" maskUnits="userSpaceOnUse" x="19" y="16" width="7" height="12">
<path fill-rule="evenodd" clip-rule="evenodd" d="M20.3329 27.8333C20.1446 27.8333 19.9554 27.7699 19.7996 27.6399C19.4462 27.3458 19.3987 26.8199 19.6929 26.4666L23.4229 21.9908L19.8271 17.5224C19.5387 17.1641 19.5954 16.6391 19.9537 16.3508C20.3129 16.0624 20.8371 16.1191 21.1262 16.4774L25.1496 21.4774C25.3979 21.7866 25.3946 22.2283 25.1404 22.5333L20.9737 27.5333C20.8087 27.7308 20.5721 27.8333 20.3329 27.8333Z" fill="white"/>
</mask>
<g mask="url(#mask0_149_6224)">
<rect x="12" y="12" width="20" height="20" fill="white"/>
</g>
</svg>
