<svg width="181" height="44" viewBox="0 0 181 44" fill="none" xmlns="http://www.w3.org/2000/svg">
<path d="M0 22C0 9.84974 9.84974 0 22 0H159C171.15 0 181 9.84974 181 22C181 34.1503 171.15 44 159 44H22C9.84974 44 0 34.1503 0 22Z" fill="#6F47FF"/>
<path d="M31.406 16.878V18.376H26.919V21.372H30.706V22.877H26.919V27H25.022V16.878H31.406ZM34.6263 19.818V27H32.8973V19.818H34.6263ZM34.8853 17.725C34.8853 17.8743 34.855 18.0143 34.7943 18.145C34.7337 18.2757 34.652 18.39 34.5493 18.488C34.4513 18.586 34.3347 18.6653 34.1993 18.726C34.064 18.782 33.9193 18.81 33.7653 18.81C33.616 18.81 33.4737 18.782 33.3383 18.726C33.2077 18.6653 33.0933 18.586 32.9953 18.488C32.8973 18.39 32.818 18.2757 32.7573 18.145C32.7013 18.0143 32.6733 17.8743 32.6733 17.725C32.6733 17.571 32.7013 17.4263 32.7573 17.291C32.818 17.1557 32.8973 17.039 32.9953 16.941C33.0933 16.843 33.2077 16.766 33.3383 16.71C33.4737 16.6493 33.616 16.619 33.7653 16.619C33.9193 16.619 34.064 16.6493 34.1993 16.71C34.3347 16.766 34.4513 16.843 34.5493 16.941C34.652 17.039 34.7337 17.1557 34.7943 17.291C34.855 17.4263 34.8853 17.571 34.8853 17.725ZM36.5861 27V19.818H37.6431C37.8671 19.818 38.0141 19.923 38.0841 20.133L38.2031 20.7C38.3478 20.5507 38.4994 20.4153 38.6581 20.294C38.8214 20.1727 38.9918 20.0677 39.1691 19.979C39.3511 19.8903 39.5448 19.8227 39.7501 19.776C39.9554 19.7293 40.1794 19.706 40.4221 19.706C40.8141 19.706 41.1618 19.7737 41.4651 19.909C41.7684 20.0397 42.0204 20.2263 42.2211 20.469C42.4264 20.707 42.5804 20.994 42.6831 21.33C42.7904 21.6613 42.8441 22.0277 42.8441 22.429V27H41.1151V22.429C41.1151 21.9903 41.0124 21.652 40.8071 21.414C40.6064 21.1713 40.3031 21.05 39.8971 21.05C39.5984 21.05 39.3184 21.1177 39.0571 21.253C38.7958 21.3883 38.5484 21.5727 38.3151 21.806V27H36.5861ZM49.5971 27C49.3731 27 49.2261 26.895 49.1561 26.685L49.0161 25.992C48.8668 26.16 48.7105 26.3117 48.5471 26.447C48.3838 26.5823 48.2065 26.699 48.0151 26.797C47.8285 26.895 47.6255 26.9697 47.4061 27.021C47.1915 27.077 46.9581 27.105 46.7061 27.105C46.3141 27.105 45.9548 27.0233 45.6281 26.86C45.3015 26.6967 45.0191 26.461 44.7811 26.153C44.5478 25.8403 44.3658 25.4553 44.2351 24.998C44.1091 24.5407 44.0461 24.018 44.0461 23.43C44.0461 22.898 44.1185 22.4033 44.2631 21.946C44.4078 21.4887 44.6155 21.092 44.8861 20.756C45.1568 20.42 45.4811 20.1587 45.8591 19.972C46.2371 19.7807 46.6618 19.685 47.1331 19.685C47.5345 19.685 47.8775 19.7503 48.1621 19.881C48.4468 20.007 48.7011 20.1773 48.9251 20.392V16.598H50.6541V27H49.5971ZM47.2941 25.733C47.6535 25.733 47.9591 25.6583 48.2111 25.509C48.4631 25.3597 48.7011 25.1473 48.9251 24.872V21.652C48.7291 21.414 48.5145 21.246 48.2811 21.148C48.0525 21.05 47.8051 21.001 47.5391 21.001C47.2778 21.001 47.0398 21.05 46.8251 21.148C46.6151 21.246 46.4355 21.3953 46.2861 21.596C46.1415 21.792 46.0295 22.044 45.9501 22.352C45.8708 22.6553 45.8311 23.0147 45.8311 23.43C45.8311 23.85 45.8638 24.207 45.9291 24.501C45.9991 24.7903 46.0971 25.0283 46.2231 25.215C46.3491 25.397 46.5031 25.53 46.6851 25.614C46.8671 25.6933 47.0701 25.733 47.2941 25.733ZM60.8625 27H60.0855C59.9222 27 59.7939 26.9767 59.7005 26.93C59.6072 26.8787 59.5372 26.7783 59.4905 26.629L59.3365 26.118C59.1545 26.2813 58.9749 26.426 58.7975 26.552C58.6249 26.6733 58.4452 26.776 58.2585 26.86C58.0719 26.944 57.8735 27.007 57.6635 27.049C57.4535 27.091 57.2202 27.112 56.9635 27.112C56.6602 27.112 56.3802 27.0723 56.1235 26.993C55.8669 26.909 55.6452 26.7853 55.4585 26.622C55.2765 26.4587 55.1342 26.2557 55.0315 26.013C54.9289 25.7703 54.8775 25.488 54.8775 25.166C54.8775 24.8953 54.9475 24.6293 55.0875 24.368C55.2322 24.102 55.4702 23.864 55.8015 23.654C56.1329 23.4393 56.5739 23.262 57.1245 23.122C57.6752 22.982 58.3589 22.9027 59.1755 22.884V22.464C59.1755 21.9833 59.0729 21.6287 58.8675 21.4C58.6669 21.1667 58.3729 21.05 57.9855 21.05C57.7055 21.05 57.4722 21.0827 57.2855 21.148C57.0989 21.2133 56.9355 21.288 56.7955 21.372C56.6602 21.4513 56.5342 21.5237 56.4175 21.589C56.3009 21.6543 56.1725 21.687 56.0325 21.687C55.9159 21.687 55.8155 21.6567 55.7315 21.596C55.6475 21.5353 55.5799 21.4607 55.5285 21.372L55.2135 20.819C56.0395 20.063 57.0359 19.685 58.2025 19.685C58.6225 19.685 58.9959 19.755 59.3225 19.895C59.6539 20.0303 59.9339 20.2217 60.1625 20.469C60.3912 20.7117 60.5639 21.0033 60.6805 21.344C60.8019 21.6847 60.8625 22.058 60.8625 22.464V27ZM57.5025 25.922C57.6799 25.922 57.8432 25.9057 57.9925 25.873C58.1419 25.8403 58.2819 25.7913 58.4125 25.726C58.5479 25.6607 58.6762 25.5813 58.7975 25.488C58.9235 25.39 59.0495 25.2757 59.1755 25.145V23.934C58.6715 23.9573 58.2492 24.0017 57.9085 24.067C57.5725 24.1277 57.3019 24.207 57.0965 24.305C56.8912 24.403 56.7442 24.5173 56.6555 24.648C56.5715 24.7787 56.5295 24.921 56.5295 25.075C56.5295 25.3783 56.6182 25.5953 56.7955 25.726C56.9775 25.8567 57.2132 25.922 57.5025 25.922ZM62.5627 27V19.818H63.6197C63.8437 19.818 63.9907 19.923 64.0607 20.133L64.1797 20.7C64.3243 20.5507 64.476 20.4153 64.6347 20.294C64.798 20.1727 64.9683 20.0677 65.1457 19.979C65.3277 19.8903 65.5213 19.8227 65.7267 19.776C65.932 19.7293 66.156 19.706 66.3987 19.706C66.7907 19.706 67.1383 19.7737 67.4417 19.909C67.745 20.0397 67.997 20.2263 68.1977 20.469C68.403 20.707 68.557 20.994 68.6597 21.33C68.767 21.6613 68.8207 22.0277 68.8207 22.429V27H67.0917V22.429C67.0917 21.9903 66.989 21.652 66.7837 21.414C66.583 21.1713 66.2797 21.05 65.8737 21.05C65.575 21.05 65.295 21.1177 65.0337 21.253C64.7723 21.3883 64.525 21.5727 64.2917 21.806V27H62.5627ZM72.8216 28.974C72.7703 29.0953 72.7026 29.1863 72.6186 29.247C72.5393 29.3123 72.4156 29.345 72.2476 29.345H70.9596L72.3036 26.468L69.3986 19.818H70.9106C71.0506 19.818 71.1579 19.8507 71.2326 19.916C71.3073 19.9813 71.3633 20.056 71.4006 20.14L72.9336 23.864C72.9849 23.9853 73.0293 24.1113 73.0666 24.242C73.1039 24.3727 73.1366 24.5033 73.1646 24.634C73.2019 24.4987 73.2416 24.368 73.2836 24.242C73.3303 24.116 73.3793 23.9877 73.4306 23.857L74.8726 20.14C74.9099 20.0467 74.9706 19.9697 75.0546 19.909C75.1433 19.8483 75.2413 19.818 75.3486 19.818H76.7346L72.8216 28.974ZM84.0435 27H82.4755L79.6195 19.818H81.0545C81.1805 19.818 81.2855 19.8483 81.3695 19.909C81.4582 19.9697 81.5188 20.0467 81.5515 20.14L82.9375 23.976C83.0168 24.2 83.0822 24.4193 83.1335 24.634C83.1895 24.8487 83.2385 25.0633 83.2805 25.278C83.3225 25.0633 83.3692 24.8487 83.4205 24.634C83.4765 24.4193 83.5465 24.2 83.6305 23.976L85.0515 20.14C85.0842 20.0467 85.1425 19.9697 85.2265 19.909C85.3105 19.8483 85.4108 19.818 85.5275 19.818H86.8925L84.0435 27ZM90.6459 19.706C91.0986 19.706 91.5139 19.7783 91.8919 19.923C92.2746 20.0677 92.6036 20.28 92.8789 20.56C93.1542 20.8353 93.3689 21.176 93.5229 21.582C93.6769 21.9833 93.7539 22.443 93.7539 22.961C93.7539 23.0917 93.7469 23.2013 93.7329 23.29C93.7236 23.374 93.7026 23.4417 93.6699 23.493C93.6419 23.5397 93.6022 23.5747 93.5509 23.598C93.4996 23.6167 93.4342 23.626 93.3549 23.626H88.9169C88.9682 24.3633 89.1666 24.9047 89.5119 25.25C89.8572 25.5953 90.3146 25.768 90.8839 25.768C91.1639 25.768 91.4042 25.7353 91.6049 25.67C91.8102 25.6047 91.9876 25.5323 92.1369 25.453C92.2909 25.3737 92.4239 25.3013 92.5359 25.236C92.6526 25.1707 92.7646 25.138 92.8719 25.138C92.9419 25.138 93.0026 25.152 93.0539 25.18C93.1052 25.208 93.1496 25.2477 93.1869 25.299L93.6909 25.929C93.4996 26.153 93.2849 26.342 93.0469 26.496C92.8089 26.6453 92.5592 26.7667 92.2979 26.86C92.0412 26.9487 91.7776 27.0117 91.5069 27.049C91.2409 27.0863 90.9819 27.105 90.7299 27.105C90.2306 27.105 89.7662 27.0233 89.3369 26.86C88.9076 26.692 88.5342 26.447 88.2169 26.125C87.8996 25.7983 87.6499 25.397 87.4679 24.921C87.2859 24.4403 87.1949 23.885 87.1949 23.255C87.1949 22.765 87.2742 22.3053 87.4329 21.876C87.5916 21.442 87.8179 21.0663 88.1119 20.749C88.4106 20.427 88.7722 20.1727 89.1969 19.986C89.6262 19.7993 90.1092 19.706 90.6459 19.706ZM90.6809 20.945C90.1769 20.945 89.7826 21.0873 89.4979 21.372C89.2132 21.6567 89.0312 22.0603 88.9519 22.583H92.1999C92.1999 22.359 92.1696 22.149 92.1089 21.953C92.0482 21.7523 91.9549 21.5773 91.8289 21.428C91.7029 21.2787 91.5442 21.162 91.3529 21.078C91.1616 20.9893 90.9376 20.945 90.6809 20.945ZM97.5154 27.112C96.8948 27.112 96.4164 26.937 96.0804 26.587C95.7444 26.2323 95.5764 25.7447 95.5764 25.124V21.113H94.8484C94.7551 21.113 94.6734 21.0827 94.6034 21.022C94.5381 20.9613 94.5054 20.8703 94.5054 20.749V20.063L95.6604 19.874L96.0244 17.914C96.0431 17.8207 96.0851 17.7483 96.1504 17.697C96.2204 17.6457 96.3068 17.62 96.4094 17.62H97.3054V19.881H99.1954V21.113H97.3054V25.005C97.3054 25.229 97.3614 25.404 97.4734 25.53C97.5854 25.656 97.7348 25.719 97.9214 25.719C98.0288 25.719 98.1174 25.7073 98.1874 25.684C98.2621 25.656 98.3251 25.628 98.3764 25.6C98.4324 25.572 98.4814 25.5463 98.5234 25.523C98.5654 25.495 98.6074 25.481 98.6494 25.481C98.7008 25.481 98.7428 25.495 98.7754 25.523C98.8081 25.5463 98.8431 25.5837 98.8804 25.635L99.3984 26.475C99.1464 26.685 98.8571 26.8437 98.5304 26.951C98.2038 27.0583 97.8654 27.112 97.5154 27.112ZM103.538 19.706C103.991 19.706 104.406 19.7783 104.784 19.923C105.167 20.0677 105.496 20.28 105.771 20.56C106.047 20.8353 106.261 21.176 106.415 21.582C106.569 21.9833 106.646 22.443 106.646 22.961C106.646 23.0917 106.639 23.2013 106.625 23.29C106.616 23.374 106.595 23.4417 106.562 23.493C106.534 23.5397 106.495 23.5747 106.443 23.598C106.392 23.6167 106.327 23.626 106.247 23.626H101.809C101.861 24.3633 102.059 24.9047 102.404 25.25C102.75 25.5953 103.207 25.768 103.776 25.768C104.056 25.768 104.297 25.7353 104.497 25.67C104.703 25.6047 104.88 25.5323 105.029 25.453C105.183 25.3737 105.316 25.3013 105.428 25.236C105.545 25.1707 105.657 25.138 105.764 25.138C105.834 25.138 105.895 25.152 105.946 25.18C105.998 25.208 106.042 25.2477 106.079 25.299L106.583 25.929C106.392 26.153 106.177 26.342 105.939 26.496C105.701 26.6453 105.452 26.7667 105.19 26.86C104.934 26.9487 104.67 27.0117 104.399 27.049C104.133 27.0863 103.874 27.105 103.622 27.105C103.123 27.105 102.659 27.0233 102.229 26.86C101.8 26.692 101.427 26.447 101.109 26.125C100.792 25.7983 100.542 25.397 100.36 24.921C100.178 24.4403 100.087 23.885 100.087 23.255C100.087 22.765 100.167 22.3053 100.325 21.876C100.484 21.442 100.71 21.0663 101.004 20.749C101.303 20.427 101.665 20.1727 102.089 19.986C102.519 19.7993 103.002 19.706 103.538 19.706ZM103.573 20.945C103.069 20.945 102.675 21.0873 102.39 21.372C102.106 21.6567 101.924 22.0603 101.844 22.583H105.092C105.092 22.359 105.062 22.149 105.001 21.953C104.941 21.7523 104.847 21.5773 104.721 21.428C104.595 21.2787 104.437 21.162 104.245 21.078C104.054 20.9893 103.83 20.945 103.573 20.945ZM108.049 27V19.818H109.064C109.241 19.818 109.365 19.8507 109.435 19.916C109.505 19.9813 109.552 20.0933 109.575 20.252L109.68 21.12C109.937 20.6767 110.238 20.3267 110.583 20.07C110.928 19.8133 111.316 19.685 111.745 19.685C112.1 19.685 112.394 19.7667 112.627 19.93L112.403 21.225C112.389 21.309 112.359 21.3697 112.312 21.407C112.265 21.4397 112.202 21.456 112.123 21.456C112.053 21.456 111.957 21.4397 111.836 21.407C111.715 21.3743 111.554 21.358 111.353 21.358C110.994 21.358 110.686 21.4583 110.429 21.659C110.172 21.855 109.955 22.1443 109.778 22.527V27H108.049ZM115.605 19.818V27H113.876V19.818H115.605ZM115.864 17.725C115.864 17.8743 115.834 18.0143 115.773 18.145C115.712 18.2757 115.631 18.39 115.528 18.488C115.43 18.586 115.313 18.6653 115.178 18.726C115.043 18.782 114.898 18.81 114.744 18.81C114.595 18.81 114.452 18.782 114.317 18.726C114.186 18.6653 114.072 18.586 113.974 18.488C113.876 18.39 113.797 18.2757 113.736 18.145C113.68 18.0143 113.652 17.8743 113.652 17.725C113.652 17.571 113.68 17.4263 113.736 17.291C113.797 17.1557 113.876 17.039 113.974 16.941C114.072 16.843 114.186 16.766 114.317 16.71C114.452 16.6493 114.595 16.619 114.744 16.619C114.898 16.619 115.043 16.6493 115.178 16.71C115.313 16.766 115.43 16.843 115.528 16.941C115.631 17.039 115.712 17.1557 115.773 17.291C115.834 17.4263 115.864 17.571 115.864 17.725ZM117.565 27V19.818H118.622C118.846 19.818 118.993 19.923 119.063 20.133L119.182 20.7C119.326 20.5507 119.478 20.4153 119.637 20.294C119.8 20.1727 119.97 20.0677 120.148 19.979C120.33 19.8903 120.523 19.8227 120.729 19.776C120.934 19.7293 121.158 19.706 121.401 19.706C121.793 19.706 122.14 19.7737 122.444 19.909C122.747 20.0397 122.999 20.2263 123.2 20.469C123.405 20.707 123.559 20.994 123.662 21.33C123.769 21.6613 123.823 22.0277 123.823 22.429V27H122.094V22.429C122.094 21.9903 121.991 21.652 121.786 21.414C121.585 21.1713 121.282 21.05 120.876 21.05C120.577 21.05 120.297 21.1177 120.036 21.253C119.774 21.3883 119.527 21.5727 119.294 21.806V27H117.565ZM131.15 27H130.373C130.209 27 130.081 26.9767 129.988 26.93C129.894 26.8787 129.824 26.7783 129.778 26.629L129.624 26.118C129.442 26.2813 129.262 26.426 129.085 26.552C128.912 26.6733 128.732 26.776 128.546 26.86C128.359 26.944 128.161 27.007 127.951 27.049C127.741 27.091 127.507 27.112 127.251 27.112C126.947 27.112 126.667 27.0723 126.411 26.993C126.154 26.909 125.932 26.7853 125.746 26.622C125.564 26.4587 125.421 26.2557 125.319 26.013C125.216 25.7703 125.165 25.488 125.165 25.166C125.165 24.8953 125.235 24.6293 125.375 24.368C125.519 24.102 125.757 23.864 126.089 23.654C126.42 23.4393 126.861 23.262 127.412 23.122C127.962 22.982 128.646 22.9027 129.463 22.884V22.464C129.463 21.9833 129.36 21.6287 129.155 21.4C128.954 21.1667 128.66 21.05 128.273 21.05C127.993 21.05 127.759 21.0827 127.573 21.148C127.386 21.2133 127.223 21.288 127.083 21.372C126.947 21.4513 126.821 21.5237 126.705 21.589C126.588 21.6543 126.46 21.687 126.32 21.687C126.203 21.687 126.103 21.6567 126.019 21.596C125.935 21.5353 125.867 21.4607 125.816 21.372L125.501 20.819C126.327 20.063 127.323 19.685 128.49 19.685C128.91 19.685 129.283 19.755 129.61 19.895C129.941 20.0303 130.221 20.2217 130.45 20.469C130.678 20.7117 130.851 21.0033 130.968 21.344C131.089 21.6847 131.15 22.058 131.15 22.464V27ZM127.79 25.922C127.967 25.922 128.13 25.9057 128.28 25.873C128.429 25.8403 128.569 25.7913 128.7 25.726C128.835 25.6607 128.963 25.5813 129.085 25.488C129.211 25.39 129.337 25.2757 129.463 25.145V23.934C128.959 23.9573 128.536 24.0017 128.196 24.067C127.86 24.1277 127.589 24.207 127.384 24.305C127.178 24.403 127.031 24.5173 126.943 24.648C126.859 24.7787 126.817 24.921 126.817 25.075C126.817 25.3783 126.905 25.5953 127.083 25.726C127.265 25.8567 127.5 25.922 127.79 25.922ZM132.85 27V19.818H133.865C134.042 19.818 134.166 19.8507 134.236 19.916C134.306 19.9813 134.352 20.0933 134.376 20.252L134.481 21.12C134.737 20.6767 135.038 20.3267 135.384 20.07C135.729 19.8133 136.116 19.685 136.546 19.685C136.9 19.685 137.194 19.7667 137.428 19.93L137.204 21.225C137.19 21.309 137.159 21.3697 137.113 21.407C137.066 21.4397 137.003 21.456 136.924 21.456C136.854 21.456 136.758 21.4397 136.637 21.407C136.515 21.3743 136.354 21.358 136.154 21.358C135.794 21.358 135.486 21.4583 135.23 21.659C134.973 21.855 134.756 22.1443 134.579 22.527V27H132.85ZM140.406 19.818V27H138.677V19.818H140.406ZM140.665 17.725C140.665 17.8743 140.634 18.0143 140.574 18.145C140.513 18.2757 140.431 18.39 140.329 18.488C140.231 18.586 140.114 18.6653 139.979 18.726C139.843 18.782 139.699 18.81 139.545 18.81C139.395 18.81 139.253 18.782 139.118 18.726C138.987 18.6653 138.873 18.586 138.775 18.488C138.677 18.39 138.597 18.2757 138.537 18.145C138.481 18.0143 138.453 17.8743 138.453 17.725C138.453 17.571 138.481 17.4263 138.537 17.291C138.597 17.1557 138.677 17.039 138.775 16.941C138.873 16.843 138.987 16.766 139.118 16.71C139.253 16.6493 139.395 16.619 139.545 16.619C139.699 16.619 139.843 16.6493 139.979 16.71C140.114 16.766 140.231 16.843 140.329 16.941C140.431 17.039 140.513 17.1557 140.574 17.291C140.634 17.4263 140.665 17.571 140.665 17.725ZM147.993 27H147.216C147.053 27 146.925 26.9767 146.831 26.93C146.738 26.8787 146.668 26.7783 146.621 26.629L146.467 26.118C146.285 26.2813 146.106 26.426 145.928 26.552C145.756 26.6733 145.576 26.776 145.389 26.86C145.203 26.944 145.004 27.007 144.794 27.049C144.584 27.091 144.351 27.112 144.094 27.112C143.791 27.112 143.511 27.0723 143.254 26.993C142.998 26.909 142.776 26.7853 142.589 26.622C142.407 26.4587 142.265 26.2557 142.162 26.013C142.06 25.7703 142.008 25.488 142.008 25.166C142.008 24.8953 142.078 24.6293 142.218 24.368C142.363 24.102 142.601 23.864 142.932 23.654C143.264 23.4393 143.705 23.262 144.255 23.122C144.806 22.982 145.49 22.9027 146.306 22.884V22.464C146.306 21.9833 146.204 21.6287 145.998 21.4C145.798 21.1667 145.504 21.05 145.116 21.05C144.836 21.05 144.603 21.0827 144.416 21.148C144.23 21.2133 144.066 21.288 143.926 21.372C143.791 21.4513 143.665 21.5237 143.548 21.589C143.432 21.6543 143.303 21.687 143.163 21.687C143.047 21.687 142.946 21.6567 142.862 21.596C142.778 21.5353 142.711 21.4607 142.659 21.372L142.344 20.819C143.17 20.063 144.167 19.685 145.333 19.685C145.753 19.685 146.127 19.755 146.453 19.895C146.785 20.0303 147.065 20.2217 147.293 20.469C147.522 20.7117 147.695 21.0033 147.811 21.344C147.933 21.6847 147.993 22.058 147.993 22.464V27ZM144.633 25.922C144.811 25.922 144.974 25.9057 145.123 25.873C145.273 25.8403 145.413 25.7913 145.543 25.726C145.679 25.6607 145.807 25.5813 145.928 25.488C146.054 25.39 146.18 25.2757 146.306 25.145V23.934C145.802 23.9573 145.38 24.0017 145.039 24.067C144.703 24.1277 144.433 24.207 144.227 24.305C144.022 24.403 143.875 24.5173 143.786 24.648C143.702 24.7787 143.66 24.921 143.66 25.075C143.66 25.3783 143.749 25.5953 143.926 25.726C144.108 25.8567 144.344 25.922 144.633 25.922ZM149.694 27V19.818H150.751C150.975 19.818 151.122 19.923 151.192 20.133L151.311 20.7C151.455 20.5507 151.607 20.4153 151.766 20.294C151.929 20.1727 152.099 20.0677 152.277 19.979C152.459 19.8903 152.652 19.8227 152.858 19.776C153.063 19.7293 153.287 19.706 153.53 19.706C153.922 19.706 154.269 19.7737 154.573 19.909C154.876 20.0397 155.128 20.2263 155.329 20.469C155.534 20.707 155.688 20.994 155.791 21.33C155.898 21.6613 155.952 22.0277 155.952 22.429V27H154.223V22.429C154.223 21.9903 154.12 21.652 153.915 21.414C153.714 21.1713 153.411 21.05 153.005 21.05C152.706 21.05 152.426 21.1177 152.165 21.253C151.903 21.3883 151.656 21.5727 151.423 21.806V27H149.694Z" fill="white"/>
</svg>
