<svg width="44" height="44" viewBox="0 0 44 44" fill="none" xmlns="http://www.w3.org/2000/svg">
<path d="M0 22C0 9.84974 9.84974 0 22 0C34.1503 0 44 9.84974 44 22C44 34.1503 34.1503 44 22 44C9.84974 44 0 34.1503 0 22Z" fill="#6F47FF"/>
<path fill-rule="evenodd" clip-rule="evenodd" d="M23.5237 27.8333C23.2804 27.8333 23.0387 27.7275 22.8737 27.5225L18.8504 22.5225C18.6021 22.2133 18.6054 21.7717 18.8596 21.4667L23.0262 16.4667C23.3204 16.1133 23.8462 16.0658 24.2004 16.36C24.5537 16.6542 24.6012 17.18 24.3062 17.5333L20.5771 22.0092L24.1729 26.4775C24.4612 26.8358 24.4046 27.3608 24.0454 27.6492C23.8921 27.7733 23.7071 27.8333 23.5237 27.8333Z" fill="white"/>
<mask id="mask0_130_5089" style="mask-type:alpha" maskUnits="userSpaceOnUse" x="18" y="16" width="7" height="12">
<path fill-rule="evenodd" clip-rule="evenodd" d="M23.5237 27.8333C23.2804 27.8333 23.0387 27.7275 22.8737 27.5225L18.8504 22.5225C18.6021 22.2133 18.6054 21.7717 18.8596 21.4667L23.0262 16.4667C23.3204 16.1133 23.8462 16.0658 24.2004 16.36C24.5537 16.6542 24.6012 17.18 24.3062 17.5333L20.5771 22.0092L24.1729 26.4775C24.4612 26.8358 24.4046 27.3608 24.0454 27.6492C23.8921 27.7733 23.7071 27.8333 23.5237 27.8333Z" fill="white"/>
</mask>
<g mask="url(#mask0_130_5089)">
<rect x="12" y="12" width="20" height="20" fill="white"/>
</g>
</svg>
