<svg width="214" height="350" viewBox="0 0 214 350" fill="none" xmlns="http://www.w3.org/2000/svg">
<path d="M163.318 350H112.206C112.438 349.585 112.706 349.266 113.011 349.094C114.957 348 119.55 344.478 118.041 344.266C117.981 344.257 117.918 344.253 117.854 344.253C117.29 344.253 116.535 344.553 115.414 344.853C114.292 345.152 112.805 345.451 110.778 345.451C109.196 345.451 107.284 345.269 104.963 344.762C103.361 344.412 102.222 344.266 101.438 344.266C98.0091 344.266 101.429 347.076 102.907 347.913C104.182 348.635 104.534 349.53 104.63 350H47.8936C49.4151 331.767 50.9367 313.539 52.4583 295.306C52.7176 292.206 52.976 289.105 53.2352 286.005C53.7001 286.219 54.2038 286.377 54.6909 286.522C61.4431 288.54 68.2347 290.495 75.0782 292.197C75.0436 292.258 68.359 303.789 54.3552 307.259C54.3552 307.259 50.7466 309.491 53.6993 311.066C54.2219 311.345 55.095 311.52 56.22 311.52C61.453 311.521 72.1395 307.735 78.388 292.999C86.7991 294.981 95.2926 296.539 103.896 297.324C104.221 297.354 104.546 297.382 104.871 297.409C103.41 309.574 103.808 314.269 108.833 317.674C109.551 318.161 110.302 318.351 110.992 318.351C113.151 318.351 114.71 316.488 112.78 316.028C110.233 315.422 108.054 312.693 107.534 309.877C107.173 307.923 107.545 301.42 107.807 297.624C109.917 297.755 112.032 297.836 114.148 297.86L113.655 311.494C113.771 312.159 113.747 312.942 114.764 313.017C114.788 313.019 114.811 313.02 114.834 313.02C115.799 313.02 116.164 311.494 116.164 311.494L116.871 297.863C122.276 297.805 127.673 297.378 132.982 296.509C139.321 309.271 149.115 312.64 154.053 312.64C155.178 312.64 156.051 312.466 156.574 312.187C159.525 310.612 155.918 308.38 155.918 308.38C145.967 305.915 139.713 299.379 136.913 295.781C142.557 294.61 148.075 292.91 153.371 290.594C154.069 290.288 154.772 289.966 155.444 289.599C159.692 309.477 162.323 329.696 163.318 350Z" fill="#3D4267"/>
<path d="M112.206 350H104.63C104.534 349.53 104.182 348.635 102.907 347.913C101.429 347.076 98.009 344.266 101.438 344.266C102.222 344.266 103.361 344.412 104.963 344.762C107.284 345.269 109.196 345.451 110.778 345.451C112.805 345.451 114.292 345.152 115.414 344.853C116.535 344.553 117.29 344.253 117.854 344.253C117.918 344.253 117.981 344.257 118.041 344.266C119.55 344.478 114.957 348 113.011 349.094C112.706 349.266 112.438 349.585 112.206 350Z" fill="#363B5F"/>
<path d="M110.992 318.351C110.302 318.351 109.551 318.161 108.833 317.674C103.808 314.269 103.41 309.573 104.871 297.409C105.848 297.491 106.826 297.563 107.807 297.624C107.545 301.42 107.173 307.923 107.534 309.877C108.054 312.693 110.233 315.421 112.78 316.028C114.71 316.488 113.151 318.351 110.992 318.351Z" fill="#363B5F"/>
<path d="M114.834 313.02C114.811 313.02 114.788 313.019 114.764 313.017C113.747 312.942 113.77 312.159 113.655 311.494L114.148 297.86C114.634 297.867 115.118 297.869 115.604 297.869C116.026 297.869 116.449 297.867 116.871 297.863L116.164 311.494C116.164 311.494 115.799 313.02 114.834 313.02Z" fill="#363B5F"/>
<path d="M56.2199 311.52C55.095 311.52 54.2219 311.345 53.6993 311.066C50.7466 309.491 54.3552 307.259 54.3552 307.259C68.3589 303.789 75.0436 292.258 75.0782 292.197C76.1801 292.472 77.2828 292.739 78.388 292.999C72.1395 307.735 61.4529 311.521 56.2199 311.52Z" fill="#363B5F"/>
<path d="M154.053 312.641C149.115 312.641 139.321 309.271 132.982 296.509C134.298 296.294 135.609 296.052 136.913 295.781C139.712 299.379 145.967 305.915 155.918 308.38C155.918 308.38 159.525 310.612 156.573 312.187C156.051 312.466 155.178 312.641 154.053 312.641Z" fill="#363B5F"/>
<path d="M103.877 118.764C98.7621 118.764 93.3283 117.176 89.4301 114.103C90.4126 105.728 88.7734 99.5272 86.6354 90.5778C86.1499 88.5434 84.4341 84.118 82.9602 80.4156C86.4799 84.6408 90.7303 87.2549 95.653 90.2279C100.949 93.4256 109.671 96.7749 116.79 96.7749C117 96.7749 117.209 96.7716 117.415 96.7658C116.863 99.4498 116.867 102.26 117.283 104.966C117.298 105.061 117.312 105.156 117.327 105.251C117.759 108.046 118.215 110.843 118.893 113.587C118.859 113.582 118.824 113.577 118.79 113.572C118.778 113.57 118.766 113.57 118.754 113.57C118.456 113.57 118.47 114.128 118.79 114.173C118.877 114.185 118.963 114.197 119.05 114.209C119.06 114.247 119.069 114.285 119.079 114.323C119.186 114.73 119.298 115.136 119.417 115.54C117.956 116.088 116.556 116.554 115.218 116.95C112.444 117.598 109.365 118.243 106.967 118.563C105.961 118.697 104.926 118.764 103.877 118.764Z" fill="#FCD8D0"/>
<path d="M82.9602 80.4156C86.4799 84.6408 90.7303 87.2549 95.653 90.2278C100.949 93.4256 109.671 96.7748 116.79 96.7748C117 96.7748 117.209 96.7715 117.415 96.7658C116.863 99.4498 116.867 102.26 117.283 104.966L117.327 105.251C117.327 105.251 108.171 103.971 102.178 101.106C90.9966 95.7601 87.1738 91.0003 82.9602 80.4156Z" fill="#DBBFB9"/>
<path d="M168.086 246.615C165.768 246.615 163.473 246.272 161.312 245.594C161.296 245.589 161.282 245.585 161.266 245.58C161.268 242.513 161.256 239.444 161.23 236.378C163.917 232.56 164.149 229.291 163.867 227.213H188.891L189.074 218.695C189.411 218.713 189.746 218.723 190.072 218.723C190.63 218.723 191.16 218.694 191.634 218.621C191.635 219.563 191.608 220.507 191.549 221.455C191.139 227.991 189.024 234.789 184.541 239.642C184.211 239.999 183.871 240.342 183.521 240.671C179.277 244.664 173.619 246.615 168.086 246.615ZM176.438 171.626C176.432 171.552 176.425 171.478 176.419 171.403C175.606 162.488 173.772 153.693 172.815 144.792C172.704 143.759 172.604 142.722 172.512 141.686C173.997 143.905 175.319 146.155 176.507 148.435C177.352 150.055 178.127 151.69 178.841 153.336C178.821 153.447 178.8 153.559 178.78 153.67C177.451 161.034 177.112 167.325 177.089 171.62L176.438 171.626Z" fill="#FF8671"/>
<path d="M115.604 297.869C115.119 297.869 114.634 297.867 114.148 297.86C112.032 297.836 109.917 297.755 107.807 297.624C106.826 297.563 105.848 297.491 104.871 297.409C104.546 297.382 104.221 297.354 103.896 297.324C95.2926 296.539 86.7991 294.981 78.388 292.999C77.2828 292.739 76.1801 292.472 75.0782 292.198C68.2347 290.495 61.4431 288.54 54.691 286.522C54.2038 286.377 53.7002 286.219 53.2352 286.005C52.683 285.75 52.186 285.416 51.8346 284.924C51.3153 284.199 51.2149 283.265 51.1318 282.377C50.9384 280.329 50.745 278.276 50.5525 276.226C50.3599 274.172 50.1682 272.12 49.9772 270.066C49.3765 263.588 48.7881 257.106 48.2351 250.623C48.2952 250.623 48.3528 250.623 48.4129 250.623C50.7681 259.714 62.3426 263.307 77.57 263.307C94.9848 263.307 117.177 258.602 135.799 252.034C150.658 246.792 157.866 241.155 161.23 236.378C161.256 239.444 161.268 242.513 161.266 245.58C161.263 249.22 161.24 252.86 161.197 256.499C161.11 263.799 160.941 271.098 160.691 278.393C160.583 281.545 160.364 284.954 158.33 287.363C157.537 288.302 156.529 289.008 155.445 289.599C154.772 289.966 154.069 290.288 153.371 290.595C148.075 292.911 142.557 294.61 136.913 295.781C135.609 296.052 134.298 296.294 132.982 296.509C127.673 297.378 122.276 297.805 116.871 297.863C116.449 297.867 116.026 297.869 115.604 297.869ZM69.0338 214.948C61.9632 213.558 57.4239 211.437 59.473 200.994C62.8849 183.607 63.1803 176.384 63.1803 176.384C64.3752 173.143 65.5437 169.897 66.7041 166.663L53.5051 128.471C58.3522 125.034 64.2542 122.271 70.2616 119.986C74.7038 118.295 79.2027 116.865 83.3758 115.617C85.4068 115.01 87.362 114.444 89.1947 113.914C89.2721 113.977 89.351 114.041 89.43 114.103C93.3283 117.176 98.7621 118.764 103.877 118.764C104.926 118.764 105.961 118.697 106.967 118.563C109.365 118.243 112.444 117.598 115.218 116.95C113.556 117.441 111.988 117.823 110.52 118.115C110.495 118.286 110.472 118.458 110.448 118.628C110.224 120.159 110.002 121.69 109.778 123.221C108.054 122.827 106.318 122.508 104.574 122.265C104.561 122.263 104.549 122.262 104.537 122.262C104.239 122.262 104.253 122.82 104.574 122.865C106.289 123.104 107.996 123.425 109.691 123.813C109.585 124.543 109.479 125.272 109.372 126.002L109.305 126.14C109.273 126.266 109.272 126.407 109.292 126.548C109.123 127.713 108.952 128.878 108.783 130.042C108.58 130.089 108.375 130.121 108.173 130.171C106.294 130.635 104.448 131.255 102.648 132.019C102.366 132.139 102.446 132.618 102.696 132.618C102.724 132.618 102.755 132.611 102.788 132.597C104.708 131.784 106.684 131.16 108.689 130.686C108.39 132.736 108.092 134.786 107.793 136.835C107.737 136.993 107.707 137.159 107.721 137.326C107.683 137.581 107.646 137.836 107.609 138.091C106.904 138.384 106.194 138.663 105.491 138.966C105.21 139.087 105.29 139.565 105.538 139.565C105.567 139.565 105.598 139.558 105.631 139.544C106.255 139.274 106.885 139.025 107.511 138.765C107.048 141.939 106.549 145.171 105.1 148.03C103.46 151.265 100.73 153.782 98.3942 156.557C96.1567 159.215 94.2886 162.115 92.7415 165.186C92.6214 165.334 92.5325 165.503 92.5012 165.689C91.4314 167.875 90.5229 170.145 89.7592 172.475L86.7498 172.504L85.0439 181.074L72.5329 181.197L68.9778 199.055L67.1081 208.448L74.7169 208.267L74.9778 214.356C72.8876 214.553 70.8977 214.753 69.0338 214.948Z" fill="#FF8671"/>
<path d="M77.57 263.307C62.3425 263.307 50.7681 259.714 48.4128 250.623C79.8042 250.565 115.277 242.728 115.277 242.728L114.755 238.277C117.577 237.494 120.528 236.918 123.104 236.918C124.162 236.918 125.157 237.015 126.054 237.235C127.575 237.609 129.374 237.767 131.339 237.767C139.33 237.766 150.072 235.153 156.139 233.756C163.698 232.017 163.849 227.295 163.849 227.295H163.377L163.442 227.213H163.867C164.149 229.291 163.917 232.56 161.23 236.378C157.866 241.155 150.658 246.792 135.799 252.034C117.177 258.602 94.9848 263.307 77.57 263.307ZM75.0494 216.029C72.9188 215.628 70.8887 215.313 69.0338 214.948C70.8977 214.753 72.8875 214.553 74.9778 214.356L75.0494 216.029Z" fill="#DE7563"/>
<path d="M113.572 228.201L113.456 227.213H116.274C115.318 227.62 114.391 227.945 113.572 228.201ZM163.377 227.295H156.441C156.441 227.295 155.035 227.295 152.96 227.213H163.442L163.377 227.295ZM89.8144 220.134C88.287 219.735 86.7827 219.352 85.3014 218.985C81.8229 217.465 78.3173 216.645 75.0494 216.03L74.9778 214.356L74.717 208.267L67.1082 208.448L68.9779 199.055L72.5329 181.197L85.0439 181.074L83.1947 190.364L81.3242 199.756L88.9339 199.574L89.1437 204.469L89.8144 220.134ZM88.5718 191.123C86.8757 190.895 85.1508 190.652 83.4013 190.394C85.1508 190.652 86.8757 190.895 88.5718 191.123ZM83.3873 190.392C83.3215 190.382 83.2606 190.373 83.1947 190.364C83.2606 190.373 83.3215 190.382 83.3873 190.392ZM89.7592 172.475C90.5229 170.145 91.4314 167.875 92.5012 165.689C92.5325 165.503 92.6214 165.334 92.7415 165.186C94.2886 162.115 96.1567 159.215 98.3942 156.557C100.73 153.782 103.46 151.265 105.1 148.03C106.549 145.171 107.048 141.939 107.511 138.765C106.885 139.025 106.255 139.274 105.631 139.544C105.598 139.558 105.567 139.565 105.538 139.565C105.29 139.565 105.21 139.087 105.491 138.966C106.194 138.663 106.904 138.384 107.609 138.091C107.646 137.836 107.683 137.581 107.721 137.326C107.707 137.159 107.737 136.993 107.793 136.835C108.092 134.786 108.39 132.736 108.689 130.686C106.684 131.16 104.708 131.784 102.788 132.597C102.755 132.611 102.724 132.618 102.696 132.618C102.446 132.618 102.366 132.14 102.648 132.019C104.449 131.255 106.294 130.635 108.173 130.171C108.375 130.121 108.58 130.089 108.783 130.042C108.952 128.878 109.123 127.713 109.292 126.548C109.272 126.407 109.273 126.266 109.305 126.14L109.372 126.002C109.479 125.272 109.585 124.543 109.691 123.813C107.996 123.425 106.289 123.105 104.574 122.865C104.253 122.82 104.239 122.262 104.537 122.262C104.549 122.262 104.561 122.263 104.574 122.265C106.318 122.508 108.054 122.827 109.778 123.221C110.002 121.69 110.224 120.159 110.448 118.628C110.472 118.458 110.495 118.286 110.52 118.115C111.988 117.823 113.556 117.441 115.218 116.95C116.556 116.554 117.956 116.088 119.417 115.54C120.153 115.264 120.905 114.966 121.672 114.647C122.42 114.789 123.165 114.945 123.909 115.115C123.805 115.825 123.702 116.534 123.599 117.243C123.568 117.305 123.542 117.373 123.522 117.448C123.489 117.576 123.486 117.72 123.508 117.862C123.34 119.019 123.171 120.176 123.002 121.333C122.798 121.38 122.594 121.428 122.389 121.478C120.511 121.943 118.665 122.564 116.865 123.328C116.582 123.447 116.662 123.926 116.913 123.926C116.941 123.926 116.973 123.92 117.006 123.906C118.927 123.091 120.903 122.445 122.909 121.972C122.612 124.01 122.315 126.05 122.017 128.089C121.946 128.267 121.916 128.463 121.935 128.653C121.9 128.893 121.865 129.134 121.83 129.375C121.121 129.67 120.414 129.968 119.709 130.273C119.427 130.395 119.506 130.872 119.755 130.872C119.784 130.872 119.815 130.866 119.849 130.852C120.474 130.582 121.102 130.315 121.731 130.053C121.267 133.235 120.77 136.474 119.317 139.339C117.677 142.573 114.946 145.089 112.612 147.864C110.386 150.509 108.524 153.39 106.982 156.443C106.847 156.594 106.753 156.781 106.716 156.978C105.14 160.196 103.912 163.596 102.984 167.101C102.653 167.402 102.494 167.939 102.669 168.339C102.345 169.666 102.064 171.007 101.821 172.357L89.7592 172.475ZM123.996 114.524C123.546 114.422 123.097 114.325 122.646 114.232C123.136 114.02 123.633 113.798 124.135 113.567C124.089 113.886 124.042 114.204 123.996 114.524Z" fill="#E97865"/>
<path d="M85.3014 218.985C70.4928 215.311 57.972 213.162 47.5249 212.003C53.794 200.743 58.6772 188.595 63.1803 176.384C63.1803 176.384 62.8849 183.607 59.473 200.994C57.4239 211.437 61.9632 213.558 69.0338 214.948C70.8887 215.313 72.9188 215.628 75.0494 216.029C78.3172 216.645 81.8229 217.465 85.3014 218.985Z" fill="#E97865"/>
<path d="M132.273 52.1472C131.938 50.2701 131.529 48.4061 131.055 46.5643C130.78 45.4998 130.143 43.3715 130.143 43.3715L129.07 40.2759C129.07 40.2759 126.591 34.5291 124.916 31.9563C126.986 30.3648 128.845 28.5329 130.38 26.4722C130.511 26.6665 130.64 26.8632 130.764 27.06C134.202 32.4881 135.935 38.98 135.661 45.401C135.572 47.4906 135.215 49.7077 133.823 51.2679C133.476 51.6557 133.052 52.0031 132.543 52.1118C132.453 52.1316 132.362 52.1431 132.273 52.1472Z" fill="#10202C"/>
<path d="M116.656 96.87C109.537 96.87 100.815 93.5208 95.5194 90.323C90.5967 87.35 86.3462 84.736 82.8266 80.5107C82.3517 79.9402 81.8893 79.34 81.4408 78.706C81.1988 78.3643 80.9643 78.0177 80.7363 77.6686C81.1165 77.513 81.4819 77.322 81.8218 77.0882C82.9237 76.3316 83.7367 75.0834 83.7433 73.7472C83.7474 73.049 83.5178 72.3764 83.3146 71.7095C82.8644 70.2317 83.1261 69.0008 81.2778 66.4535C81.7922 65.1419 82.1485 63.7637 82.3476 62.3723C82.8743 58.6921 82.3608 54.9196 81.3157 51.3522C81.2778 51.2205 81.2383 51.0888 81.1988 50.957C81.3404 48.5851 82.3732 43.8461 88.3674 43.8461C88.7352 43.8461 89.1211 43.8633 89.5277 43.9012C91.3085 44.0651 93.4868 44.1902 95.8831 44.1902C105.246 44.1902 117.958 42.2735 123.501 33.2064C124.031 32.8466 124.549 32.4728 125.054 32.0834C126.73 34.6563 128.099 37.4819 129.208 40.403C128.704 40.2169 128.283 40.0926 128.064 40.0687C127.325 39.988 126.585 39.9485 125.849 39.9485C122.945 39.9485 120.095 40.5734 117.552 41.8191C116.735 42.2201 116.417 43.1257 116.801 44.0322C117.072 44.6727 117.797 45.1058 118.464 45.1058C118.668 45.1058 118.868 45.0654 119.046 44.9781C119.769 44.6241 120.514 44.3178 121.284 44.0675C121.489 44.0017 121.695 43.9449 121.9 43.8806C121.907 43.879 121.913 43.8765 121.919 43.8749C122.007 43.8535 122.094 43.8304 122.182 43.8098C122.554 43.7209 122.93 43.6444 123.308 43.5801C124.113 43.4435 124.93 43.362 125.755 43.3373C125.852 43.3348 125.949 43.3323 126.046 43.3307C126.06 43.3307 126.136 43.3307 126.192 43.3298C126.248 43.3315 126.332 43.3323 126.348 43.3331C126.445 43.3356 126.542 43.3389 126.641 43.343C127.055 43.3611 127.469 43.3949 127.884 43.4402C128.195 43.4739 128.844 43.5101 129.577 43.5101C129.807 43.5101 130.044 43.5069 130.282 43.4986C130.283 43.5025 130.284 43.5063 130.285 43.5101C130.617 44.5676 130.919 45.6307 131.193 46.6914C131.668 48.5332 132.077 50.3972 132.412 52.2743C133.04 55.785 133.412 59.3425 133.486 62.8984C133.287 59.4413 131.003 56.7161 128.216 56.7161C125.298 56.7161 122.932 59.7039 122.932 63.3907C122.932 67.0767 125.298 70.0645 128.216 70.0645C131.073 70.0645 133.4 67.2018 133.498 63.6229C133.547 68.8304 132.951 74.0263 131.575 79.051C130.268 83.8229 129.632 88.6179 127.267 92.0536C126.793 91.8083 126.309 91.5827 125.816 91.3793C125.513 91.255 125.189 91.1372 124.869 91.1372C124.765 91.1372 124.662 91.1496 124.56 91.1784C123.636 91.4378 123.543 92.7024 123.686 93.6517C123.761 94.1572 123.85 94.6594 123.945 95.1616C123.9 95.188 123.855 95.2135 123.81 95.239C123.349 95.4992 122.853 95.7338 122.318 95.9413C120.817 96.5226 119.109 96.8082 117.282 96.8609C117.075 96.8667 116.866 96.87 116.656 96.87ZM124.782 72.2628L107.62 76.9878C110.934 79.6981 113.912 80.8129 116.426 80.8129C121.124 80.8129 124.197 76.9178 124.782 72.2628ZM95.6815 63.3907C91.9965 63.3907 89.0101 66.3785 89.0101 70.0645C89.0101 73.7513 91.9965 76.74 95.6815 76.74C99.3658 76.74 102.353 73.7513 102.353 70.0645C102.353 66.3785 99.3658 63.3907 95.6815 63.3907ZM110.959 51.0534L117.405 69.6364C118.973 68.2203 120.541 66.8042 122.11 65.3889C122.212 65.2967 122.322 65.1864 122.318 65.0489C122.315 64.9188 122.209 64.8167 122.109 64.7336C121.216 63.9868 120.161 63.4648 119.172 62.8515C114.984 60.2564 112.711 55.9019 110.959 51.0534ZM101.832 54.6463C100.59 54.6463 99.3419 54.9658 98.2491 55.5865C96.7094 56.4617 95.4906 57.7815 94.4365 59.1844C94.1007 59.6323 94.5327 60.0703 94.9829 60.0703C95.1713 60.0703 95.3631 59.9937 95.503 59.8077C96.9991 57.8161 99.1666 55.8426 101.765 55.8426C102.018 55.8426 102.276 55.8607 102.537 55.9002C103.324 56.0196 104.05 56.2987 104.725 56.7013C104.925 56.8207 105.118 56.9499 105.304 57.0891C105.296 57.0833 105.291 57.08 105.291 57.08C105.288 57.08 105.433 57.1953 105.474 57.2324C105.603 57.3526 105.746 57.4028 105.884 57.4028C106.371 57.4028 106.8 56.7812 106.347 56.3588C105.101 55.2037 103.471 54.6463 101.832 54.6463ZM102.609 45.6253C102.59 45.6253 102.57 45.6261 102.551 45.6261C98.5231 45.7372 94.5385 47.0537 91.097 49.3302C90.2708 49.876 87.1107 53.6353 87.6744 54.4635C87.7691 54.6027 87.9509 54.6628 88.1929 54.6628C89.4544 54.6628 92.3503 53.0376 93.0901 52.5485C93.4802 52.2908 93.8769 52.0438 94.2809 51.8125C94.3764 51.7581 94.4718 51.7038 94.5681 51.6511C94.5837 51.6429 94.6677 51.5976 94.7237 51.5671C94.7796 51.5391 94.8545 51.5004 94.8693 51.493C94.9672 51.4445 95.0652 51.3967 95.1639 51.3498C96.0008 50.9488 96.8624 50.6063 97.7405 50.3256C98.1536 50.1938 98.5708 50.0753 98.9905 49.9699C99.0926 49.9444 99.1954 49.9213 99.2983 49.8966C99.3024 49.8958 99.3065 49.895 99.3115 49.8941C99.5501 49.8521 99.788 49.8003 100.027 49.7599C100.931 49.6084 101.842 49.5245 102.755 49.4998C103.719 49.4734 104.588 48.4171 104.493 47.4127C104.391 46.344 103.615 45.6253 102.609 45.6253ZM125.172 48.348C124.103 48.348 123.044 48.6979 122.131 49.3211C120.791 50.2374 119.777 51.5449 118.921 52.9075C118.626 53.3768 119.053 53.8197 119.482 53.8197C119.67 53.8197 119.858 53.7349 119.988 53.5307C121.042 51.852 122.6 49.8357 124.711 49.5912C124.858 49.5747 125.002 49.5664 125.144 49.5664C126.094 49.5664 126.936 49.9369 127.723 50.5371C127.696 50.5166 127.684 50.5083 127.684 50.5083C127.681 50.5083 127.825 50.6236 127.859 50.6524L128.027 50.8047L128.177 50.9554C128.302 51.0945 128.445 51.1522 128.585 51.1522C129.041 51.1522 129.455 50.533 129.049 50.0827C128.493 49.4635 127.724 49.0008 126.959 48.6929C126.377 48.4583 125.773 48.348 125.172 48.348Z" fill="#FCD8D0"/>
<path d="M95.6815 63.3907C91.9965 63.3907 89.0101 66.3785 89.0101 70.0645C89.0101 73.7513 91.9965 76.74 95.6815 76.74C99.3658 76.74 102.353 73.7513 102.353 70.0645C102.353 66.3785 99.3658 63.3907 95.6815 63.3907Z" fill="#FCD8D0"/>
<path d="M128.216 56.7161C131.003 56.7161 133.287 59.4413 133.486 62.8984L133.498 63.6229C133.4 67.2018 131.073 70.0645 128.216 70.0645C125.298 70.0645 122.932 67.0767 122.932 63.3907C122.932 59.7039 125.298 56.7161 128.216 56.7161Z" fill="#FCD8D0"/>
<path d="M101.832 54.6463C100.59 54.6463 99.3419 54.9658 98.2491 55.5865C96.7094 56.4617 95.4906 57.7815 94.4365 59.1844C94.1007 59.6323 94.5327 60.0703 94.9829 60.0703C95.1713 60.0703 95.3631 59.9937 95.503 59.8077C96.9991 57.8161 99.1666 55.8426 101.765 55.8426C102.018 55.8426 102.276 55.8607 102.537 55.9002C103.324 56.0196 104.05 56.2987 104.725 56.7013C104.925 56.8207 105.118 56.9499 105.304 57.0891L105.291 57.08C105.288 57.08 105.433 57.1953 105.474 57.2324C105.603 57.3526 105.746 57.4028 105.884 57.4028C106.371 57.4028 106.8 56.7812 106.347 56.3588C105.101 55.2037 103.471 54.6463 101.832 54.6463Z" fill="#FCD8D0"/>
<path d="M125.172 48.348C124.103 48.348 123.044 48.6979 122.131 49.3211C120.791 50.2374 119.777 51.5449 118.921 52.9075C118.626 53.3768 119.053 53.8197 119.482 53.8197C119.67 53.8197 119.858 53.7349 119.988 53.5307C121.042 51.852 122.6 49.8357 124.711 49.5912C124.858 49.5747 125.002 49.5664 125.144 49.5664C126.094 49.5664 126.936 49.9369 127.723 50.5371C127.696 50.5166 127.684 50.5083 127.684 50.5083C127.681 50.5083 127.825 50.6236 127.859 50.6524L128.027 50.8047L128.177 50.9554C128.302 51.0945 128.445 51.1522 128.585 51.1522C129.041 51.1522 129.455 50.533 129.049 50.0827C128.493 49.4635 127.724 49.0008 126.959 48.6929C126.377 48.4583 125.773 48.348 125.172 48.348Z" fill="#FCD8D0"/>
<path d="M110.959 51.0534L117.405 69.6364C118.973 68.2203 120.541 66.8042 122.11 65.3889C122.212 65.2967 122.322 65.1864 122.318 65.0489C122.315 64.9188 122.209 64.8167 122.109 64.7336C121.216 63.9868 120.161 63.4648 119.172 62.8515C114.984 60.2564 112.711 55.9019 110.959 51.0534Z" fill="#FCD8D0"/>
<path d="M102.609 45.6253C102.59 45.6253 102.57 45.6261 102.551 45.6261C98.5231 45.7372 94.5385 47.0537 91.097 49.3302C90.2708 49.876 87.1107 53.6353 87.6744 54.4635C87.7691 54.6027 87.9509 54.6628 88.1929 54.6628C89.4544 54.6628 92.3503 53.0376 93.0901 52.5485C93.4802 52.2908 93.8769 52.0438 94.2809 51.8125C94.3764 51.7581 94.4718 51.7038 94.5681 51.6511C94.5837 51.6429 94.6677 51.5976 94.7237 51.5671C94.7796 51.5391 94.8545 51.5004 94.8693 51.493C94.9672 51.4445 95.0652 51.3967 95.1639 51.3498C96.0008 50.9488 96.8624 50.6063 97.7405 50.3256C98.1536 50.1938 98.5708 50.0753 98.9905 49.9699C99.0926 49.9444 99.1954 49.9213 99.2983 49.8966C99.3024 49.8958 99.3065 49.895 99.3115 49.8941C99.5501 49.8521 99.788 49.8003 100.027 49.7599C100.931 49.6084 101.842 49.5245 102.755 49.4998C103.719 49.4734 104.588 48.4171 104.493 47.4127C104.391 46.344 103.615 45.6253 102.609 45.6253Z" fill="#FCD8D0"/>
<path d="M128.064 40.0687C128.283 40.0926 128.704 40.2169 129.208 40.403L130.282 43.4986C130.044 43.5069 129.807 43.5101 129.577 43.5101C128.844 43.5101 128.195 43.4739 127.884 43.4402C127.469 43.3949 127.055 43.3611 126.641 43.343C126.542 43.3389 126.445 43.3356 126.348 43.3331C126.332 43.3323 126.248 43.3315 126.192 43.3298C126.136 43.3307 126.06 43.3307 126.046 43.3307C125.949 43.3323 125.852 43.3348 125.755 43.3373C124.93 43.362 124.113 43.4435 123.308 43.5801C122.93 43.6444 122.554 43.7209 122.182 43.8098C122.094 43.8304 122.007 43.8535 121.919 43.8749C121.913 43.8765 121.907 43.879 121.9 43.8806C121.695 43.9449 121.489 44.0017 121.284 44.0675C120.514 44.3178 119.769 44.6241 119.046 44.9781C118.868 45.0654 118.668 45.1058 118.464 45.1058C117.797 45.1058 117.072 44.6727 116.801 44.0322C116.417 43.1257 116.735 42.2201 117.552 41.8191C120.095 40.5734 122.945 39.9485 125.849 39.9485C126.585 39.9485 127.325 39.988 128.064 40.0687Z" fill="#FCD8D0"/>
<path d="M124.782 72.2628L107.62 76.9878C110.934 79.6981 113.912 80.8129 116.426 80.8129C121.124 80.8129 124.197 76.9178 124.782 72.2628Z" fill="#FCD8D0"/>
<path d="M81.3325 50.8619C80.9786 49.6747 80.619 48.4636 80.7622 47.2402C80.9992 45.2074 82.622 43.5501 84.4818 42.6979C86.3417 41.845 88.4261 41.6556 90.4645 41.486C98.8938 40.7846 107.461 40.1877 115.409 37.2921C118.284 36.2448 121.086 34.8452 123.635 33.1113C118.092 42.1784 105.379 44.0951 96.0168 44.0951C93.6205 44.0951 91.4422 43.97 89.6613 43.8061C89.2548 43.7682 88.8689 43.751 88.501 43.751C82.5068 43.751 81.474 48.49 81.3325 50.8619Z" fill="#DBBFB9"/>
<path d="M64.7809 53.3861C62.5763 46.3303 62.3746 38.6373 64.4789 31.5584C64.6648 30.9335 64.8681 30.3127 65.0903 29.6977C66.1354 26.8054 67.6224 23.946 70.0698 22.0837C71.5363 20.9673 73.4126 20.2963 75.237 20.2963C76.4566 20.2963 77.6531 20.596 78.6884 21.262C83.607 12.2204 90.9944 3.92468 100.806 0.828201C102.33 0.346561 103.942 -5.72205e-05 105.531 -5.72205e-05C106.47 -5.72205e-05 107.401 0.120983 108.301 0.407497C110.724 1.17812 112.815 3.41835 112.732 5.96157C112.694 7.12821 112.22 8.27837 112.389 9.43348C115.188 7.66994 118.041 5.88663 121.23 5.01062C122.435 4.67965 123.703 4.49524 124.961 4.49524C127.033 4.49524 129.077 4.99746 130.765 6.17645C132.197 7.17677 133.272 8.61017 133.969 10.2189C133 12.6724 131.476 14.9085 129.483 16.6366C128.671 17.3406 127.806 17.9548 126.899 18.4932C122.266 21.2423 116.527 22.0269 111.103 22.8543C110.827 22.8963 110.55 22.9391 110.276 22.9819C115.304 20.6182 120.863 19.2218 125.437 15.978C127.142 14.7702 128.65 13.3368 129.858 11.6276C130.116 11.2604 129.771 10.9064 129.414 10.9064C129.263 10.9064 129.109 10.9706 129.001 11.1254C124.459 17.5563 116.076 19.1099 109.39 22.3224C108.636 22.6839 107.897 23.0717 107.178 23.4907C101.442 24.4869 95.7592 25.8166 90.4019 28.0676C88.8992 28.699 87.4205 29.4087 85.9869 30.1983C92.6749 23.5821 102.613 20.2304 110.668 15.7006C113.803 13.9387 116.802 11.9224 119.434 9.46066C119.798 9.1198 119.453 8.62006 119.062 8.62006C118.95 8.62006 118.835 8.66119 118.731 8.75835C109.063 17.8049 95.0128 20.088 85.494 29.347C84.6678 30.1514 83.8843 31.0027 83.1593 31.8993C79.4652 34.3264 76.1908 37.348 73.7253 41.0035C73.4331 41.4365 73.1534 41.877 72.881 42.3232C73.592 38.6562 75.0494 35.1884 77.1446 32.0878C81.2123 26.0669 87.1555 21.6646 92.4905 16.8515C95.5115 14.1256 98.3909 11.225 100.716 7.87083C100.972 7.50199 100.627 7.14794 100.272 7.14794C100.121 7.14794 99.9668 7.21302 99.8582 7.36945C95.5699 13.555 89.4103 18.047 83.9197 23.0791C81.2419 25.5334 78.6884 28.1499 76.5981 31.1336C74.2437 34.4943 72.6003 38.317 71.8663 42.3611C71.7305 43.1095 71.6235 43.8628 71.5462 44.6195C70.6105 46.2784 69.688 47.9448 68.582 49.4927C67.5295 50.9656 66.2506 52.338 64.7809 53.3861Z" fill="#10202C"/>
<path d="M81.4113 66.3583C81.2451 66.1286 81.0616 65.889 80.8591 65.6379C79.024 63.6051 75.0476 61.6686 73.2009 61.4282C72.8389 61.3813 72.4702 61.3558 72.1007 61.3558C70.9412 61.3558 69.7768 61.6012 68.7909 62.1635C67.0874 59.4301 65.7436 56.4686 64.7808 53.3861C66.2505 52.3381 67.5293 50.9656 68.5819 49.4927C69.6879 47.9448 70.6104 46.2785 71.546 44.6195C71.3806 46.2431 71.3535 47.8798 71.4753 49.5075C71.6407 51.7205 71.9098 54.216 73.2799 56.0446C73.3919 56.1945 73.5466 56.2562 73.698 56.2562C74.0601 56.2562 74.4082 55.9046 74.1374 55.544C72.9096 53.9048 72.6504 51.7082 72.485 49.7232C72.3073 47.5743 72.3788 45.3967 72.7154 43.266C72.7648 42.9506 72.8199 42.6361 72.8808 42.3232C73.1532 41.877 73.433 41.4366 73.7252 41.0035C76.1907 37.348 79.4651 34.3264 83.1592 31.8993C81.8178 33.5574 80.674 35.3712 79.8148 37.3315C79.6404 37.7292 79.9885 38.0922 80.3069 38.0922C80.4526 38.0922 80.5917 38.0165 80.6723 37.8329C81.9832 34.8418 83.8134 32.3472 85.9868 30.1983C87.4203 29.4087 88.8991 28.6991 90.4018 28.0676C95.759 25.8166 101.442 24.487 107.178 23.4907C105.978 24.1881 104.832 24.9727 103.762 25.8677C103.376 26.1904 103.731 26.6935 104.137 26.6935C104.248 26.6935 104.361 26.6564 104.465 26.57C106.242 25.0822 108.214 23.951 110.275 22.982C110.55 22.9391 110.827 22.8963 111.103 22.8543C116.526 22.0269 122.266 21.2423 126.899 18.4932C127.806 17.9548 128.671 17.3406 129.483 16.6367C131.476 14.9085 133 12.6724 133.968 10.2189C134.347 11.0933 134.619 12.0179 134.765 12.9573C135.178 15.6223 134.698 18.3706 133.745 20.894C132.981 22.9186 131.929 24.7908 130.652 26.5041C129.117 28.5648 127.258 30.3967 125.188 31.9882C124.682 32.3776 124.164 32.7514 123.635 33.1112C121.086 34.8451 118.283 36.2447 115.409 37.292C107.461 40.1876 98.8936 40.7845 90.4643 41.4859C88.4259 41.6556 86.3415 41.8449 84.4816 42.6978C82.6218 43.55 80.999 45.2073 80.762 47.2401C80.6188 48.4635 80.9784 49.6746 81.3323 50.8618C81.3718 50.9936 81.4113 51.1253 81.4492 51.257C82.4943 54.8244 83.0078 58.5969 82.4811 62.2771C82.282 63.6685 81.9256 65.0467 81.4113 66.3583Z" fill="#10202C"/>
<path d="M73.6981 56.2563C73.5466 56.2563 73.3919 56.1946 73.28 56.0448C71.9098 54.2162 71.6407 51.7207 71.4753 49.5076C71.3535 47.8799 71.3807 46.2432 71.5461 44.6196C71.6235 43.863 71.7304 43.1097 71.8662 42.3613C72.6003 38.3172 74.2437 34.4945 76.5981 31.1337C78.6883 28.15 81.2418 25.5335 83.9197 23.0792C89.4102 18.0471 95.5699 13.5552 99.8581 7.36961C99.9668 7.21318 100.121 7.1481 100.272 7.1481C100.627 7.1481 100.972 7.50215 100.716 7.87099C98.3908 11.2252 95.5114 14.1257 92.4905 16.8517C87.1554 21.6648 81.2122 26.0671 77.1445 32.088C75.0493 35.1886 73.5919 38.6564 72.8809 42.3234C72.82 42.6363 72.7649 42.9508 72.7155 43.2661C72.3789 45.3968 72.3073 47.5745 72.4851 49.7233C72.6505 51.7084 72.9097 53.905 74.1375 55.5442C74.4083 55.9048 74.0602 56.2563 73.6981 56.2563Z" fill="black"/>
<path d="M80.3071 38.0923C79.9886 38.0923 79.6405 37.7292 79.815 37.3316C80.6741 35.3713 81.818 33.5575 83.1593 31.8993C83.8843 31.0027 84.6678 30.1514 85.494 29.3471C95.0128 20.0881 109.063 17.805 118.731 8.75842C118.835 8.66126 118.95 8.62012 119.062 8.62012C119.453 8.62012 119.798 9.11987 119.434 9.46073C116.802 11.9224 113.803 13.9387 110.668 15.7006C102.613 20.2305 92.6749 23.5822 85.9869 30.1984C83.8136 32.3472 81.9834 34.8418 80.6725 37.8329C80.5918 38.0165 80.4527 38.0923 80.3071 38.0923Z" fill="black"/>
<path d="M104.137 26.6936C103.731 26.6936 103.376 26.1905 103.762 25.8678C104.832 24.9729 105.978 24.1882 107.178 23.4909C107.897 23.0718 108.636 22.684 109.39 22.3226C116.076 19.11 124.459 17.5564 129.001 11.1255C129.109 10.9707 129.263 10.9066 129.414 10.9066C129.771 10.9066 130.116 11.2606 129.858 11.6278C128.65 13.337 127.142 14.7703 125.437 15.9781C120.863 19.222 115.304 20.6184 110.276 22.9821C108.214 23.9511 106.242 25.0824 104.465 26.5701C104.361 26.6566 104.248 26.6936 104.137 26.6936Z" fill="black"/>
<path d="M117.539 69.5413C119.106 68.1252 120.675 66.7091 122.243 65.2938C122.345 65.2016 122.456 65.0913 122.452 64.9538C122.448 64.8237 122.342 64.7216 122.243 64.6384C121.35 63.8917 120.295 63.3697 119.306 62.7564C115.118 60.1613 112.845 55.8067 111.093 50.9582" stroke="black"/>
<path d="M116.559 80.7178C114.045 80.7178 111.067 79.603 107.753 76.8927L124.915 72.1677C124.33 76.8227 121.257 80.7178 116.559 80.7178Z" fill="white"/>
<path d="M88.3266 54.5676C88.0846 54.5676 87.9028 54.5075 87.8081 54.3684C87.2444 53.5401 90.4045 49.7809 91.2307 49.235C94.6722 46.9586 98.6568 45.6421 102.685 45.5309C102.704 45.5309 102.724 45.5301 102.743 45.5301C103.748 45.5301 104.525 46.2489 104.626 47.3175C104.722 48.322 103.853 49.3782 102.888 49.4046C101.976 49.4293 101.065 49.5133 100.16 49.6648C99.9216 49.7051 99.6838 49.757 99.4451 49.799C99.4402 49.7998 99.4361 49.8006 99.432 49.8014C99.3291 49.8261 99.2262 49.8492 99.1242 49.8747C98.7045 49.9801 98.2873 50.0987 97.8742 50.2304C96.9961 50.5111 96.1345 50.8536 95.2976 51.2546C95.1988 51.3015 95.1009 51.3493 95.003 51.3979C94.9882 51.4053 94.9133 51.444 94.8573 51.472C94.8014 51.5024 94.7174 51.5477 94.7018 51.5559C94.6055 51.6086 94.51 51.663 94.4146 51.7173C94.0105 51.9487 93.6139 52.1956 93.2238 52.4533C92.484 52.9424 89.5881 54.5676 88.3266 54.5676Z" fill="#10202C"/>
<path d="M118.598 45.0106C117.93 45.0106 117.205 44.5776 116.935 43.937C116.55 43.0305 116.868 42.1249 117.686 41.724C120.229 40.4783 123.079 39.8534 125.983 39.8534C126.718 39.8534 127.458 39.8929 128.197 39.9736C128.417 39.9975 128.837 40.1218 129.342 40.3078C130.852 40.8652 133.121 41.9817 133.057 42.6469C133.006 43.1705 131.706 43.3574 130.415 43.4035C130.177 43.4117 129.94 43.415 129.711 43.415C128.977 43.415 128.328 43.3788 128.017 43.3451C127.602 43.2998 127.188 43.266 126.774 43.2479C126.676 43.2438 126.579 43.2405 126.481 43.238C126.466 43.2372 126.382 43.2364 126.325 43.2347C126.269 43.2355 126.193 43.2356 126.179 43.2356C126.082 43.2372 125.985 43.2397 125.888 43.2421C125.064 43.2668 124.246 43.3483 123.442 43.485C123.063 43.5492 122.688 43.6258 122.316 43.7147C122.228 43.7353 122.141 43.7583 122.052 43.7798C122.047 43.7814 122.04 43.7839 122.034 43.7855C121.829 43.8497 121.622 43.9065 121.418 43.9724C120.648 44.2227 119.902 44.529 119.18 44.883C119.001 44.9703 118.802 45.0106 118.598 45.0106Z" fill="#10202C"/>
<path d="M95.1164 59.9751C94.6663 59.9751 94.2343 59.5371 94.57 59.0892C95.6242 57.6863 96.8429 56.3665 98.3826 55.4913C99.4755 54.8706 100.724 54.5511 101.966 54.5511C103.605 54.5511 105.234 55.1085 106.48 56.2636C106.934 56.686 106.505 57.3076 106.018 57.3076C105.879 57.3076 105.736 57.2574 105.607 57.1372C105.567 57.1001 105.422 56.9848 105.424 56.9848C105.425 56.9848 105.429 56.9881 105.438 56.9939C105.252 56.8547 105.058 56.7255 104.858 56.6061C104.183 56.2035 103.458 55.9244 102.671 55.805C102.409 55.7655 102.152 55.7474 101.898 55.7474C99.3002 55.7474 97.1326 57.7209 95.6365 59.7125C95.4966 59.8985 95.3049 59.9751 95.1164 59.9751Z" fill="#10202C"/>
<path d="M119.616 53.7246C119.186 53.7246 118.76 53.2817 119.055 52.8124C119.91 51.4498 120.924 50.1424 122.265 49.226C123.178 48.6028 124.237 48.2529 125.306 48.2529C125.906 48.2529 126.51 48.3632 127.093 48.5978C127.858 48.9057 128.626 49.3684 129.182 49.9876C129.589 50.4379 129.175 51.0571 128.718 51.0571C128.578 51.0571 128.435 50.9994 128.31 50.8603L128.16 50.7096L127.992 50.5573C127.959 50.5285 127.815 50.4132 127.817 50.4132C127.818 50.4132 127.83 50.4215 127.857 50.442C127.069 49.8418 126.228 49.4714 125.278 49.4714C125.136 49.4714 124.991 49.4796 124.845 49.4961C122.733 49.7406 121.175 51.7569 120.121 53.4356C119.992 53.6398 119.804 53.7246 119.616 53.7246Z" fill="#10202C"/>
<path d="M133.631 63.5278C133.629 63.2866 133.625 63.0437 133.62 62.8033C133.629 62.9655 133.634 63.1294 133.634 63.2957C133.634 63.3731 133.633 63.4504 133.631 63.5278Z" fill="#CDE3EE"/>
<path d="M77.64 78.1425C75.1704 78.1425 72.737 77.2763 70.7422 75.8158C68.8684 74.4433 67.3822 72.5472 66.616 70.3506C65.7182 67.7761 65.9083 64.5644 67.9525 62.7613C67.9911 62.7267 68.0307 62.6929 68.0702 62.66C68.2973 62.4731 68.5384 62.3077 68.791 62.1636C69.7769 61.6013 70.9413 61.3559 72.1009 61.3559C72.4703 61.3559 72.839 61.3814 73.2011 61.4283C75.0478 61.6687 79.0241 63.6052 80.8593 65.638C81.0617 65.8891 81.2452 66.1287 81.4115 66.3584C83.2598 68.9057 82.9981 70.1365 83.4482 71.6144C83.6515 72.2813 83.8811 72.9539 83.877 73.6521C83.8704 74.9883 83.0573 76.2365 81.9554 76.9931C81.6156 77.2269 81.2502 77.4179 80.87 77.5735C80.0191 77.9193 79.0883 78.0832 78.1667 78.1293C77.9914 78.1383 77.8153 78.1425 77.64 78.1425ZM76.8763 66.5806C76.2665 66.5806 75.6534 66.7486 75.2008 67.1479C74.3754 67.8766 74.2981 69.1733 74.661 70.2123C75.2996 72.0442 77.1791 73.359 79.113 73.359C79.1838 73.359 79.2546 73.3574 79.3253 73.3532C79.8635 73.3269 80.4108 73.2001 80.8552 72.8946C81.2995 72.5892 81.6279 72.0853 81.6312 71.5461C81.632 71.2645 81.5398 70.9928 81.4576 70.7236C81.2592 70.0723 81.4032 69.5405 80.4124 68.3096C79.671 67.4888 78.0654 66.7074 77.3199 66.6095C77.1742 66.5905 77.0253 66.5806 76.8763 66.5806Z" fill="#FCD8D0"/>
<path d="M79.1131 73.3589C77.1792 73.3589 75.2996 72.0441 74.661 70.2122C74.2981 69.1732 74.3755 67.8765 75.2009 67.1478C75.6535 66.7485 76.2666 66.5806 76.8764 66.5806C77.0253 66.5806 77.1743 66.5904 77.3199 66.6094C78.0655 66.7073 79.671 67.4887 80.4125 68.3095C81.4033 69.5404 81.2593 70.0722 81.4576 70.7235C81.5399 70.9927 81.6321 71.2644 81.6312 71.546C81.628 72.0852 81.2996 72.5891 80.8552 72.8945C80.4108 73.2 79.8636 73.3268 79.3254 73.3531C79.2546 73.3573 79.1839 73.3589 79.1131 73.3589Z" fill="#DBBFB9"/>
<path d="M101.821 172.357C102.064 171.007 102.345 169.666 102.668 168.339C102.742 168.51 102.877 168.656 103.086 168.748C106.465 170.247 109.962 171.415 113.543 172.242L101.821 172.357ZM121.889 172.16C121.763 171.755 121.378 171.507 120.941 171.464C115.38 170.921 109.891 169.519 104.752 167.322C104.674 167.27 104.588 167.226 104.498 167.19C104.282 167.104 104.067 167.018 103.851 166.932C103.745 166.89 103.641 166.871 103.542 166.871C103.329 166.871 103.137 166.96 102.984 167.101C103.912 163.596 105.14 160.196 106.716 156.978C106.65 157.333 106.772 157.717 107.181 157.96C111.739 160.677 116.713 162.675 121.879 163.884C121.967 163.905 122.051 163.915 122.131 163.915C123.188 163.915 123.565 162.24 122.407 161.968C117.67 160.858 113.128 159.087 108.909 156.669C108.852 156.619 108.786 156.573 108.711 156.533C108.536 156.436 108.36 156.34 108.183 156.245C108.014 156.152 107.849 156.112 107.692 156.112C107.411 156.112 107.161 156.245 106.982 156.443C108.524 153.39 110.386 150.509 112.612 147.864C114.946 145.089 117.677 142.573 119.317 139.339C120.77 136.473 121.267 133.235 121.731 130.053C122.139 129.883 122.548 129.715 122.957 129.548C126.211 130.473 129.465 131.397 132.718 132.322C132.811 132.348 132.899 132.36 132.982 132.36C133.952 132.36 134.289 130.71 133.216 130.406C130.805 129.721 128.395 129.036 125.984 128.351C128.104 127.536 130.237 126.769 132.384 126.048C132.854 126.135 133.326 126.222 133.796 126.309C133.866 126.322 133.937 126.329 134.007 126.329C134.431 126.329 134.825 126.089 134.948 125.615C134.982 125.486 134.986 125.345 134.965 125.206C135.754 124.955 136.545 124.712 137.338 124.475C139.021 123.97 140.713 123.496 142.41 123.048C142.579 123.003 142.625 122.83 142.585 122.684C142.645 122.582 142.655 122.438 142.596 122.333C142.622 122.219 142.593 122.094 142.473 122.023C136.729 118.571 130.562 116.048 124.199 114.571C124.13 114.555 124.063 114.54 123.995 114.524C124.041 114.204 124.088 113.886 124.135 113.567C124.311 112.357 124.488 111.147 124.664 109.936C124.919 108.191 125.173 106.436 125.264 104.677C125.306 103.835 125.311 102.992 125.261 102.148C125.116 99.757 124.525 97.4229 124.079 95.0666C123.983 94.5643 123.895 94.0621 123.819 93.5566C123.676 92.6073 123.769 91.3427 124.693 91.0833C124.795 91.0545 124.899 91.0422 125.003 91.0422C125.323 91.0422 125.647 91.1599 125.949 91.2842C126.443 91.4876 126.927 91.7132 127.401 91.9585C130.869 93.7534 133.776 96.6325 135.579 100.101C136.472 99.794 137.379 99.5314 138.296 99.3124C138.17 99.4688 138.092 99.6639 138.08 99.8722C137.941 102.109 138.026 104.35 138.332 106.572C138.401 107.066 138.741 107.493 139.326 107.493C139.809 107.493 140.386 107.069 140.319 106.572C140.012 104.35 139.927 102.109 140.066 99.8722C140.088 99.5198 139.838 99.2045 139.507 99.0506C141.406 98.6809 143.342 98.4948 145.276 98.4948C147.182 98.4948 149.088 98.6751 150.959 99.0349C150.599 99.142 150.305 99.4219 150.295 99.8722C150.238 102.238 150.067 104.601 149.785 106.953C149.725 107.448 150.284 107.873 150.778 107.873C151.364 107.873 151.711 107.449 151.771 106.953C152.054 104.601 152.223 102.238 152.28 99.8722C152.286 99.6145 152.197 99.412 152.053 99.2663C152.767 99.4326 153.476 99.6244 154.176 99.8442C154.51 99.9488 154.867 100.058 155.211 100.058C155.379 100.058 155.545 100.032 155.704 99.9653C156.157 99.7743 156.419 99.3083 156.664 98.8818C158.615 95.4807 161.539 92.6493 164.986 90.7886C165.153 90.6989 165.327 90.6585 165.497 90.6585C166.075 90.6585 166.604 91.1303 166.598 91.7716L166.536 98.149C166.519 99.9653 166.501 101.786 166.714 103.59C167.09 106.797 168.182 109.868 169.013 112.987C169.109 113.35 169.202 113.713 169.292 114.077C166.27 114.805 163.294 115.769 160.389 116.957C160.205 116.976 160.022 116.995 159.839 117.014C159.478 117.051 159.15 117.232 158.995 117.545C156.436 118.663 153.935 119.955 151.511 121.412C151.392 121.483 151.362 121.609 151.388 121.722C151.328 121.827 151.339 121.972 151.399 122.074C151.359 122.22 151.405 122.393 151.574 122.438C153.271 122.885 154.962 123.36 156.647 123.864C157.315 124.064 157.982 124.269 158.648 124.478C158.809 124.754 159.083 124.965 159.387 124.965C159.404 124.965 159.419 124.964 159.435 124.964C159.634 124.949 159.834 124.935 160.033 124.92C163.051 125.899 166.045 126.97 169.011 128.132C166.025 128.496 163.038 128.86 160.052 129.224C158.892 129.366 159.115 131.191 160.209 131.192C160.25 131.192 160.291 131.189 160.335 131.184C163.818 130.759 167.301 130.335 170.783 129.91C171.25 129.853 171.493 129.523 171.545 129.149C171.546 129.15 171.548 129.151 171.549 129.151C171.905 133.323 172.144 137.514 172.512 141.686C172.604 142.722 172.704 143.759 172.815 144.792C173.772 153.693 175.606 162.488 176.418 171.403C176.425 171.478 176.432 171.552 176.438 171.627L165.92 171.729C165.867 171.231 165.774 170.755 165.618 170.32C165.317 169.482 164.703 168.863 164.049 168.863C163.847 168.863 163.64 168.922 163.438 169.052C162.888 169.406 162.496 170.188 162.206 170.969C162.109 171.231 162.02 171.499 161.937 171.768L150.304 171.883C150.086 169.415 149.825 166.933 150.003 164.475C151.772 164.178 156.169 163.523 156.77 162.984C157.431 162.628 157.282 161.901 156.656 161.52C156.032 161.141 155.111 161.038 154.248 161.038C154.245 161.038 154.241 161.038 154.239 161.038C152.06 161.04 149.967 161.575 147.799 161.709C147.356 161.736 146.912 161.747 146.468 161.747C145.729 161.747 144.988 161.717 144.247 161.688C143.507 161.66 142.767 161.63 142.027 161.63C141.641 161.63 141.255 161.638 140.87 161.658C140.321 161.686 139.759 161.743 139.289 161.925C138.818 162.106 138.457 162.438 138.504 162.787C138.542 163.07 138.834 163.312 139.147 163.515C140.489 164.385 142.406 164.828 144.314 164.922C144.613 164.937 144.912 164.945 145.21 164.945C145.653 164.945 146.097 164.929 146.539 164.901C146.72 167.224 146.791 169.573 146.754 171.917L134.98 172.032C134.802 170.863 134.596 169.652 134.043 168.732C133.651 168.078 133.03 167.629 132.432 167.629C132.174 167.629 131.921 167.713 131.692 167.899C131.203 168.3 130.939 169.063 130.777 169.812C130.617 170.55 130.529 171.309 130.488 172.076L121.889 172.16ZM113.064 147.925C112.223 147.925 111.667 149.227 112.571 149.8C116.559 152.334 120.83 154.389 125.291 155.942C125.409 155.984 125.52 156.003 125.625 156.003C126.585 156.003 126.903 154.404 125.818 154.027C121.518 152.528 117.417 150.527 113.574 148.085C113.399 147.974 113.226 147.925 113.064 147.925ZM143.041 124.531C142.635 124.531 142.516 124.764 142.975 125.44C144.498 126.316 145.865 126.645 147.032 126.645C148.784 126.646 150.086 125.905 150.798 125.165C151.51 124.426 151.631 123.686 151.02 123.686C150.916 123.686 150.79 123.707 150.643 123.754C149.923 124.615 148.995 125.575 147.827 125.734C147.848 124.485 147.812 123.236 147.711 121.991C147.88 121.419 149.152 119.261 147.922 119.248C144.89 119.336 144.176 120.502 146.753 122.536C146.823 123.587 146.851 124.64 146.835 125.694C146.275 125.689 143.945 124.531 143.041 124.531ZM137.101 111.485C135.188 111.485 133.332 112.533 133.629 114.456C133.701 114.499 133.789 114.521 133.879 114.521C134.055 114.521 134.236 114.439 134.309 114.278C134.799 113.053 135.967 112.432 137.135 112.432C138.253 112.432 139.372 113.002 139.89 114.156C139.979 114.335 140.123 114.409 140.271 114.409C140.598 114.409 140.944 114.048 140.748 113.654C140.245 112.177 138.654 111.485 137.101 111.485ZM155.541 111.062C155.367 111.062 155.209 111.078 155.075 111.108C153.875 111.211 151.278 113.089 152.428 114.236C152.474 114.248 152.517 114.254 152.56 114.254C152.78 114.254 152.96 114.099 153.039 113.888C153.445 112.715 154.59 112.072 155.731 112.072C156.567 112.072 157.4 112.418 157.935 113.156C158.047 113.302 158.206 113.401 158.377 113.401C158.456 113.401 158.535 113.38 158.614 113.334C159.333 112.023 156.933 111.062 155.541 111.062ZM145.346 98.4956C144.783 98.4956 144.383 98.918 144.353 99.4169C144.21 101.802 144.067 104.187 143.923 106.572C143.894 107.07 144.402 107.493 144.917 107.493C145.48 107.493 145.88 107.071 145.91 106.572C146.053 104.187 146.196 101.802 146.34 99.4169C146.369 98.9196 145.861 98.4956 145.346 98.4956ZM127.965 95.0353C127.779 95.0353 127.701 95.3415 127.722 95.5548C128.062 98.9608 127.296 105.541 128.972 105.786C130.185 105.606 131.501 104.83 132.608 103.739C132.898 103.454 133.174 103.14 133.313 102.758C133.592 101.987 133.253 101.133 132.82 100.436C132.21 99.4515 131.411 98.6002 130.618 97.7563C129.803 96.8902 128.988 96.0241 128.173 95.1571L128.019 95.0435C128 95.0377 127.982 95.0353 127.965 95.0353ZM163.428 94.892C163.053 94.892 162.659 95.1999 162.383 95.5029C160.459 97.6114 156.594 102.832 159.16 103.333C160.033 103.502 160.923 103.587 161.812 103.587C162.304 103.587 162.795 103.561 163.284 103.51C163.6 103.476 163.948 103.413 164.146 103.163C164.321 102.941 164.325 102.634 164.322 102.351C164.298 100.245 164.244 98.14 164.158 96.0364C164.143 95.6445 164.09 95.1892 163.757 94.9842C163.651 94.92 163.54 94.892 163.428 94.892ZM121.829 129.375C121.865 129.134 121.9 128.893 121.935 128.653C121.957 128.866 122.041 129.069 122.198 129.223C122.076 129.273 121.952 129.324 121.829 129.375ZM171.492 128.491C171.473 128.482 171.454 128.475 171.435 128.467C171.287 128.169 171.011 127.943 170.627 127.943C170.585 127.943 170.544 127.946 170.5 127.951C170.413 127.961 170.326 127.972 170.239 127.983C169.948 127.866 169.656 127.75 169.363 127.635C166.791 126.623 164.197 125.681 161.586 124.807C164.361 124.605 167.134 124.404 169.909 124.203C170.414 124.167 170.85 123.811 170.849 123.24C170.848 122.762 170.442 122.221 169.956 122.221C169.939 122.221 169.924 122.222 169.908 122.223C166.417 122.476 162.925 122.73 159.434 122.983C158.971 123.017 158.564 123.319 158.502 123.811C156.428 123.164 154.342 122.56 152.248 122C153.885 121.493 155.548 121.102 157.229 120.835C159.076 120.54 160.938 120.394 162.801 120.394C165.442 120.394 168.083 120.688 170.674 121.269C171.022 123.662 171.278 126.073 171.492 128.491ZM122.017 128.089C122.315 126.05 122.612 124.01 122.909 121.972C125.629 121.329 128.405 121.005 131.184 121.005C133.046 121.005 134.909 121.151 136.756 121.446C138.436 121.713 140.099 122.104 141.736 122.611C139.387 123.24 137.05 123.922 134.726 124.66C134.614 124.524 134.467 124.425 134.294 124.393C130.852 123.757 127.41 123.121 123.967 122.485C123.897 122.472 123.827 122.466 123.757 122.466C123.332 122.466 122.938 122.704 122.815 123.179C122.692 123.658 122.969 124.308 123.47 124.401C126.043 124.876 128.617 125.352 131.19 125.827C129.128 126.535 127.077 127.287 125.039 128.082C124.39 127.898 123.74 127.713 123.091 127.529C122.999 127.503 122.911 127.49 122.828 127.49C122.44 127.49 122.153 127.754 122.017 128.089ZM140.802 121.719C137.64 120.847 134.39 120.411 131.139 120.411C128.411 120.411 125.682 120.719 123.002 121.333C123.171 120.176 123.34 119.019 123.508 117.862C123.567 118.241 123.811 118.615 124.176 118.67C127.148 119.123 130.118 119.576 133.089 120.028C133.155 120.038 133.222 120.043 133.287 120.043C133.717 120.043 134.114 119.823 134.241 119.334C134.32 119.029 134.232 118.634 134.019 118.375C135.135 118.843 136.238 119.345 137.33 119.88C138.503 120.456 139.66 121.069 140.802 121.719ZM153.181 121.108C154.324 120.458 155.481 119.845 156.654 119.27C157.407 118.901 158.167 118.547 158.931 118.209C159.033 118.607 159.376 118.997 159.776 118.997C159.798 118.997 159.819 118.996 159.841 118.994C162.829 118.682 165.818 118.37 168.807 118.058C169.31 118.006 169.748 117.677 169.747 117.096C169.746 116.634 169.349 116.075 168.87 116.075C168.848 116.075 168.827 116.076 168.805 116.078C166.737 116.294 164.669 116.51 162.602 116.725C164.845 115.901 167.126 115.21 169.432 114.655C169.9 116.632 170.273 118.626 170.579 120.632C168.029 120.078 165.437 119.801 162.845 119.801C159.594 119.801 156.344 120.237 153.181 121.108ZM133.264 118.063C130.401 117.626 127.537 117.191 124.675 116.754C124.608 116.744 124.543 116.739 124.477 116.739C124.112 116.739 123.772 116.897 123.599 117.243C123.702 116.534 123.805 115.825 123.909 115.115C127.083 115.842 130.213 116.828 133.264 118.063Z" fill="#F9BF6D"/>
<path d="M133.879 114.521C133.789 114.521 133.701 114.499 133.63 114.456C133.332 112.533 135.188 111.485 137.101 111.485C138.654 111.485 140.245 112.177 140.748 113.654C140.944 114.048 140.598 114.409 140.271 114.409C140.123 114.409 139.979 114.334 139.89 114.156C139.372 113.001 138.254 112.432 137.135 112.432C135.967 112.432 134.799 113.053 134.309 114.278C134.236 114.439 134.055 114.521 133.879 114.521Z" fill="#10202C"/>
<path d="M152.56 114.254C152.517 114.254 152.474 114.248 152.428 114.236C151.278 113.089 153.875 111.211 155.075 111.108C155.209 111.077 155.367 111.062 155.541 111.062C156.933 111.062 159.333 112.023 158.614 113.334C158.535 113.38 158.455 113.401 158.377 113.401C158.206 113.401 158.047 113.302 157.935 113.156C157.4 112.418 156.567 112.072 155.731 112.072C154.59 112.072 153.445 112.715 153.039 113.888C152.96 114.099 152.78 114.254 152.56 114.254Z" fill="#10202C"/>
<path d="M147.032 126.645C145.865 126.645 144.498 126.316 142.975 125.44C142.516 124.764 142.635 124.531 143.041 124.531C143.945 124.531 146.275 125.689 146.835 125.694C146.851 124.64 146.823 123.587 146.753 122.536C144.176 120.502 144.89 119.336 147.922 119.248C149.152 119.261 147.88 121.419 147.711 121.991C147.812 123.236 147.848 124.485 147.827 125.734C148.995 125.575 149.923 124.615 150.643 123.754C150.79 123.707 150.916 123.686 151.02 123.686C151.631 123.686 151.51 124.426 150.798 125.165C150.086 125.905 148.784 126.645 147.032 126.645Z" fill="#10202C"/>
<path d="M161.812 103.587C160.923 103.587 160.033 103.502 159.16 103.333C156.594 102.832 160.459 97.6113 162.383 95.5028C162.659 95.1998 163.053 94.8919 163.428 94.8919C163.54 94.8919 163.652 94.9199 163.757 94.9841C164.09 95.1891 164.143 95.6444 164.158 96.0363C164.244 98.1399 164.298 100.245 164.322 102.351C164.325 102.634 164.321 102.941 164.146 103.163C163.948 103.413 163.601 103.476 163.284 103.51C162.795 103.561 162.304 103.587 161.812 103.587Z" fill="#DCA24F"/>
<path d="M128.972 105.786C127.296 105.541 128.061 98.9607 127.722 95.5547C127.701 95.3415 127.779 95.0352 127.965 95.0352C127.982 95.0352 128 95.0377 128.019 95.0434L128.173 95.157C128.988 96.024 129.803 96.8901 130.617 97.7562C131.411 98.6001 132.21 99.4514 132.82 100.436C133.253 101.133 133.592 101.987 133.313 102.758C133.174 103.14 132.898 103.454 132.608 103.739C131.501 104.83 130.185 105.606 128.972 105.786Z" fill="#DCA24F"/>
<path d="M139.326 107.493C138.741 107.493 138.401 107.066 138.333 106.572C138.026 104.35 137.941 102.109 138.08 99.8722C138.092 99.6639 138.17 99.4688 138.296 99.3123C138.473 99.095 138.746 98.9517 139.073 98.9517C139.222 98.9517 139.372 98.9879 139.507 99.0505C139.838 99.2045 140.088 99.5198 140.066 99.8722C139.927 102.109 140.012 104.35 140.319 106.572C140.387 107.069 139.809 107.493 139.326 107.493Z" fill="#DCA24F"/>
<path d="M144.917 107.493C144.402 107.493 143.894 107.07 143.923 106.572C144.067 104.187 144.21 101.802 144.353 99.4169C144.383 98.918 144.783 98.4956 145.346 98.4956C145.861 98.4956 146.369 98.9196 146.339 99.4169C146.196 101.802 146.053 104.187 145.91 106.572C145.879 107.071 145.479 107.493 144.917 107.493Z" fill="#DCA24F"/>
<path d="M150.778 107.873C150.284 107.873 149.725 107.447 149.785 106.953C150.067 104.6 150.238 102.238 150.295 99.8721C150.305 99.4217 150.599 99.1418 150.959 99.0348C151.071 99.0002 151.19 98.9837 151.308 98.9837C151.589 98.9837 151.866 99.0776 152.053 99.2661C152.197 99.4118 152.286 99.6144 152.28 99.8721C152.224 102.238 152.054 104.6 151.771 106.953C151.711 107.449 151.364 107.873 150.778 107.873Z" fill="#DCA24F"/>
<path d="M133.287 120.043C133.222 120.043 133.156 120.038 133.089 120.028C130.118 119.576 127.148 119.123 124.177 118.67C123.811 118.615 123.568 118.241 123.508 117.862C123.486 117.72 123.489 117.576 123.522 117.448C123.542 117.373 123.568 117.305 123.599 117.243C123.772 116.897 124.112 116.739 124.477 116.739C124.543 116.739 124.609 116.743 124.675 116.754C127.537 117.191 130.401 117.626 133.264 118.062C133.517 118.165 133.769 118.269 134.02 118.374C134.232 118.634 134.32 119.029 134.241 119.334C134.114 119.823 133.717 120.043 133.287 120.043Z" fill="#DCA24F"/>
<path d="M134.007 126.328C133.937 126.328 133.867 126.322 133.797 126.309C133.326 126.221 132.854 126.135 132.384 126.048C133.242 125.76 134.103 125.479 134.965 125.205C134.986 125.345 134.982 125.486 134.948 125.615C134.825 126.089 134.431 126.328 134.007 126.328ZM131.191 125.827C128.617 125.352 126.043 124.876 123.47 124.401C122.969 124.308 122.692 123.658 122.816 123.179C122.938 122.704 123.332 122.465 123.757 122.465C123.827 122.465 123.898 122.472 123.968 122.485C127.41 123.121 130.852 123.757 134.294 124.393C134.467 124.425 134.614 124.524 134.727 124.66C133.544 125.034 132.366 125.424 131.191 125.827Z" fill="#DCA24F"/>
<path d="M132.982 132.36C132.899 132.36 132.811 132.348 132.718 132.321C129.465 131.397 126.211 130.473 122.957 129.548C123.962 129.138 124.971 128.739 125.984 128.351C128.395 129.036 130.805 129.721 133.216 130.406C134.289 130.71 133.952 132.36 132.982 132.36ZM122.198 129.222C122.041 129.069 121.957 128.866 121.935 128.653C121.916 128.463 121.945 128.267 122.017 128.089C122.153 127.754 122.44 127.49 122.828 127.49C122.911 127.49 122.999 127.503 123.091 127.529C123.74 127.713 124.39 127.898 125.039 128.082C124.899 128.136 124.76 128.191 124.62 128.246C123.811 128.565 123.004 128.89 122.198 129.222Z" fill="#DCA24F"/>
<path d="M159.776 118.997C159.376 118.997 159.033 118.607 158.931 118.209C160.142 117.675 161.366 117.18 162.602 116.725C164.669 116.51 166.737 116.294 168.805 116.078C168.827 116.076 168.848 116.075 168.87 116.075C169.349 116.075 169.746 116.634 169.747 117.096C169.748 117.677 169.31 118.006 168.807 118.057C165.818 118.369 162.829 118.681 159.84 118.994C159.819 118.996 159.798 118.997 159.776 118.997ZM158.995 117.545C159.15 117.232 159.478 117.051 159.839 117.013C160.022 116.995 160.205 116.976 160.389 116.957C159.922 117.147 159.458 117.343 158.995 117.545Z" fill="#DCA24F"/>
<path d="M159.387 124.965C159.083 124.965 158.809 124.754 158.648 124.478C159.11 124.623 159.572 124.77 160.033 124.92C159.834 124.935 159.634 124.949 159.435 124.963C159.419 124.964 159.404 124.965 159.387 124.965ZM161.586 124.807C160.561 124.465 159.533 124.132 158.502 123.811C158.564 123.319 158.971 123.017 159.434 122.983C162.925 122.73 166.417 122.476 169.908 122.223C169.924 122.222 169.94 122.221 169.956 122.221C170.442 122.221 170.848 122.762 170.849 123.24C170.85 123.811 170.414 124.166 169.909 124.203C167.134 124.404 164.361 124.605 161.586 124.807Z" fill="#DCA24F"/>
<path d="M160.209 131.192C159.115 131.191 158.893 129.366 160.052 129.224C163.039 128.86 166.025 128.496 169.011 128.132C169.858 128.464 170.703 128.803 171.545 129.149C171.493 129.523 171.25 129.853 170.783 129.91C167.301 130.335 163.818 130.759 160.335 131.184C160.292 131.189 160.25 131.192 160.209 131.192ZM171.435 128.467C171.037 128.304 170.638 128.142 170.239 127.983C170.326 127.972 170.414 127.961 170.5 127.951C170.544 127.946 170.586 127.943 170.627 127.943C171.011 127.943 171.288 128.169 171.435 128.467Z" fill="#DCA24F"/>
<path d="M145.21 164.944C144.912 164.944 144.613 164.937 144.314 164.922C142.406 164.828 140.489 164.385 139.147 163.515C138.834 163.312 138.542 163.07 138.504 162.787C138.457 162.437 138.818 162.106 139.289 161.925C139.759 161.743 140.321 161.686 140.87 161.658C141.255 161.638 141.641 161.63 142.027 161.63C142.767 161.63 143.507 161.659 144.247 161.688C144.988 161.717 145.729 161.747 146.468 161.747C146.912 161.747 147.356 161.736 147.799 161.709C149.967 161.575 152.06 161.039 154.239 161.038C154.241 161.038 154.245 161.038 154.248 161.038C155.111 161.038 156.032 161.141 156.656 161.52C157.282 161.901 157.431 162.628 156.77 162.984C156.169 163.523 151.772 164.178 150.003 164.475C150.011 164.36 150.021 164.245 150.03 164.13L146.365 162.991C146.432 163.625 146.489 164.262 146.539 164.901C146.097 164.929 145.653 164.944 145.21 164.944Z" fill="#DCA24F"/>
<path d="M146.754 171.917C146.792 169.573 146.72 167.224 146.539 164.901C146.49 164.262 146.432 163.625 146.365 162.991L150.031 164.13C150.021 164.245 150.012 164.36 150.003 164.475C149.825 166.933 150.087 169.415 150.304 171.883L146.754 171.917Z" fill="#DCA24F"/>
<path d="M130.489 172.076C130.529 171.309 130.617 170.55 130.777 169.812C130.939 169.063 131.204 168.3 131.692 167.899C131.921 167.712 132.174 167.628 132.432 167.628C133.03 167.628 133.651 168.078 134.044 168.732C134.596 169.652 134.802 170.862 134.98 172.032L130.489 172.076Z" fill="#DCA24F"/>
<path d="M161.938 171.768C162.02 171.499 162.109 171.231 162.207 170.969C162.496 170.188 162.888 169.406 163.439 169.052C163.64 168.922 163.847 168.863 164.049 168.863C164.703 168.863 165.317 169.482 165.618 170.32C165.774 170.755 165.867 171.231 165.92 171.729L161.938 171.768Z" fill="#DCA24F"/>
<path d="M125.625 156.002C125.52 156.002 125.409 155.984 125.291 155.942C120.83 154.389 116.559 152.334 112.571 149.8C111.667 149.227 112.223 147.925 113.064 147.925C113.226 147.925 113.399 147.973 113.574 148.085C117.417 150.527 121.518 152.528 125.818 154.026C126.903 154.404 126.585 156.002 125.625 156.002Z" fill="#DCA24F"/>
<path d="M122.131 163.914C122.051 163.914 121.967 163.905 121.879 163.884C116.713 162.675 111.739 160.677 107.181 157.96C106.772 157.717 106.65 157.333 106.716 156.978C106.753 156.781 106.847 156.594 106.982 156.443C107.161 156.244 107.411 156.112 107.692 156.112C107.849 156.112 108.014 156.152 108.183 156.244C108.36 156.34 108.536 156.436 108.711 156.533C108.786 156.573 108.852 156.619 108.909 156.668C113.128 159.087 117.67 160.858 122.407 161.968C123.565 162.24 123.188 163.914 122.131 163.914Z" fill="#DCA24F"/>
<path d="M113.543 172.242C109.962 171.415 106.465 170.247 103.086 168.748C102.877 168.656 102.742 168.51 102.668 168.339C102.494 167.939 102.653 167.402 102.984 167.101C103.137 166.96 103.329 166.871 103.542 166.871C103.641 166.871 103.745 166.89 103.851 166.932C104.067 167.018 104.282 167.104 104.498 167.19C104.588 167.226 104.674 167.27 104.752 167.322C109.891 169.519 115.38 170.921 120.941 171.464C121.378 171.507 121.763 171.755 121.889 172.16L113.543 172.242Z" fill="#DCA24F"/>
<path d="M142.596 122.333C142.566 122.28 142.518 122.238 142.45 122.215C141.904 122.037 141.354 121.871 140.802 121.719C139.66 121.069 138.503 120.456 137.33 119.88C136.238 119.345 135.135 118.843 134.02 118.375C133.769 118.269 133.517 118.165 133.264 118.062C130.213 116.827 127.083 115.842 123.909 115.115C123.165 114.945 122.42 114.789 121.671 114.647C120.812 114.484 119.948 114.339 119.083 114.214C119.073 114.213 119.061 114.211 119.05 114.209C118.963 114.197 118.877 114.185 118.79 114.173C118.469 114.128 118.455 113.57 118.754 113.57C118.766 113.57 118.778 113.57 118.79 113.572C118.824 113.577 118.859 113.582 118.892 113.587C118.962 113.597 119.03 113.607 119.099 113.617C120.286 113.788 121.468 113.993 122.646 114.232C123.097 114.325 123.546 114.422 123.995 114.524C124.063 114.54 124.13 114.555 124.199 114.571C130.562 116.048 136.729 118.57 142.473 122.023C142.593 122.094 142.622 122.219 142.596 122.333Z" fill="#10202C"/>
<path d="M116.912 123.926C116.662 123.926 116.582 123.447 116.865 123.327C118.665 122.563 120.511 121.943 122.389 121.478C122.594 121.428 122.798 121.38 123.002 121.333C125.682 120.718 128.411 120.411 131.139 120.411C134.39 120.411 137.64 120.847 140.802 121.719C141.354 121.871 141.904 122.037 142.45 122.215C142.518 122.237 142.566 122.28 142.596 122.333C142.655 122.437 142.645 122.582 142.585 122.684C142.552 122.563 142.463 122.461 142.336 122.461C142.315 122.461 142.293 122.463 142.27 122.47C142.092 122.517 141.914 122.563 141.736 122.611C140.099 122.104 138.436 121.713 136.756 121.445C134.909 121.151 133.046 121.005 131.184 121.005C128.405 121.005 125.629 121.329 122.909 121.971C120.903 122.445 118.927 123.09 117.005 123.905C116.973 123.919 116.941 123.926 116.912 123.926Z" fill="#10202C"/>
<path d="M119.755 130.872C119.506 130.872 119.427 130.395 119.709 130.273C120.414 129.968 121.121 129.67 121.829 129.375C121.952 129.324 122.075 129.273 122.198 129.223C123.004 128.89 123.811 128.565 124.62 128.246C124.76 128.191 124.899 128.137 125.039 128.082C127.077 127.287 129.128 126.535 131.19 125.827C132.365 125.424 133.544 125.034 134.726 124.66C137.05 123.922 139.387 123.239 141.736 122.611C141.914 122.564 142.092 122.517 142.27 122.47C142.293 122.463 142.315 122.461 142.336 122.461C142.463 122.461 142.552 122.564 142.585 122.684C142.625 122.83 142.579 123.003 142.41 123.048C140.713 123.496 139.021 123.97 137.337 124.474C136.545 124.712 135.754 124.955 134.965 125.206C134.103 125.479 133.242 125.76 132.383 126.048C130.237 126.769 128.104 127.536 125.984 128.351C124.971 128.739 123.962 129.139 122.957 129.548C122.548 129.715 122.139 129.883 121.731 130.053C121.102 130.315 120.474 130.582 119.849 130.852C119.815 130.866 119.784 130.872 119.755 130.872Z" fill="#10202C"/>
<path d="M151.388 121.722C151.362 121.608 151.392 121.483 151.511 121.412C153.935 119.954 156.436 118.663 158.995 117.545C159.458 117.343 159.922 117.147 160.389 116.957C163.294 115.769 166.27 114.805 169.292 114.077C169.457 114.037 169.621 113.999 169.786 113.96C171.576 113.544 173.38 113.215 175.193 112.962C175.206 112.96 175.219 112.96 175.23 112.96C175.529 112.96 175.514 113.517 175.193 113.561C173.261 113.831 171.338 114.197 169.432 114.655C167.126 115.21 164.845 115.901 162.602 116.725C161.366 117.18 160.142 117.675 158.931 118.209C158.167 118.547 157.407 118.901 156.654 119.269C155.482 119.845 154.324 120.458 153.181 121.108C152.629 121.26 152.08 121.426 151.533 121.604C151.466 121.627 151.418 121.669 151.388 121.722Z" fill="#10202C"/>
<path d="M177.072 123.315C177.043 123.315 177.012 123.309 176.979 123.295C174.929 122.425 172.818 121.748 170.674 121.268C168.083 120.688 165.442 120.394 162.801 120.394C160.938 120.394 159.076 120.54 157.229 120.835C155.548 121.102 153.885 121.493 152.248 122C152.07 121.953 151.893 121.906 151.714 121.859C151.691 121.853 151.669 121.85 151.648 121.85C151.522 121.85 151.431 121.953 151.399 122.074C151.339 121.972 151.328 121.827 151.388 121.722C151.418 121.669 151.466 121.627 151.533 121.604C152.079 121.426 152.629 121.26 153.181 121.108C156.344 120.237 159.594 119.8 162.845 119.8C165.437 119.8 168.029 120.078 170.579 120.632C170.918 120.705 171.257 120.784 171.594 120.867C173.473 121.333 175.319 121.953 177.12 122.716C177.402 122.836 177.322 123.315 177.072 123.315Z" fill="#10202C"/>
<path d="M174.229 130.261C174.201 130.261 174.169 130.255 174.136 130.241C173.276 129.87 172.414 129.506 171.549 129.151C171.548 129.151 171.546 129.15 171.545 129.149C170.703 128.803 169.858 128.464 169.011 128.132C166.045 126.97 163.051 125.899 160.033 124.92C159.572 124.77 159.11 124.623 158.648 124.478C157.982 124.269 157.315 124.064 156.647 123.863C154.962 123.36 153.271 122.885 151.574 122.438C151.406 122.393 151.359 122.22 151.399 122.074C151.431 121.953 151.522 121.85 151.648 121.85C151.669 121.85 151.691 121.853 151.714 121.859C151.893 121.906 152.071 121.953 152.248 122C154.342 122.56 156.428 123.164 158.502 123.811C159.533 124.132 160.561 124.465 161.586 124.807C164.197 125.681 166.791 126.623 169.363 127.635C169.656 127.75 169.948 127.866 170.239 127.983C170.638 128.142 171.036 128.304 171.435 128.467C171.454 128.475 171.473 128.482 171.492 128.491C172.423 128.873 173.351 129.264 174.276 129.662C174.557 129.784 174.478 130.261 174.229 130.261Z" fill="#10202C"/>
<path d="M207.358 140.551C207.162 140.494 206.967 140.437 206.774 140.378C197.002 137.407 191.352 132.03 188.523 128.477C188.157 128.018 187.839 127.59 187.565 127.2C192.604 118.23 198.312 115.734 202.919 115.734C207.184 115.734 210.504 117.875 211.469 118.997C213.404 121.245 217.653 126.117 207.358 140.551Z" fill="#F9BF6D"/>
<path d="M206.344 141.941C206.287 141.928 206.229 141.914 206.171 141.901C195.788 139.432 189.695 133.617 186.758 129.952C186.624 129.785 186.497 129.622 186.375 129.464C186.768 128.669 187.163 127.914 187.565 127.2C187.839 127.59 188.157 128.018 188.523 128.477C191.352 132.03 197.002 137.407 206.774 140.378C206.967 140.437 207.162 140.494 207.358 140.551C207.035 141.005 206.696 141.468 206.344 141.941Z" fill="#DCA24F"/>
<path d="M200.316 149.453C191.131 146.762 185.626 141.461 182.878 138.032C183.531 136.161 184.247 134.269 185.051 132.36C185.225 131.945 185.402 131.543 185.578 131.149C185.841 130.566 186.107 130.005 186.375 129.464C186.497 129.622 186.624 129.785 186.759 129.952C189.695 133.617 195.788 139.432 206.171 141.901C206.229 141.914 206.287 141.928 206.344 141.941C206.19 142.147 206.035 142.355 205.875 142.564C204.882 143.873 203.779 145.252 202.547 146.713C201.77 147.634 201.033 148.547 200.316 149.453Z" fill="#F9BF6D"/>
<path d="M198.482 151.835C190.023 149.302 184.721 144.557 181.837 141.169C182.159 140.133 182.511 139.085 182.878 138.032C185.626 141.461 191.131 146.762 200.316 149.453C199.683 150.253 199.069 151.048 198.482 151.835Z" fill="#DCA24F"/>
<path d="M193.432 159.246C186.791 156.924 182.272 153.264 179.453 150.261C180.078 147.348 180.859 144.301 181.837 141.169C184.721 144.557 190.023 149.301 198.482 151.835C196.571 154.394 194.9 156.874 193.432 159.246Z" fill="#F9BF6D"/>
<path d="M177.089 171.62C177.112 167.325 177.451 161.034 178.78 153.67C181.647 156.483 185.931 159.662 191.941 161.739C191.542 162.428 191.161 163.108 190.797 163.774C189.254 166.601 188.02 169.208 187.039 171.523L177.089 171.62Z" fill="#F9BF6D"/>
<path d="M191.941 161.739C185.931 159.662 181.647 156.483 178.78 153.67C178.8 153.559 178.821 153.447 178.841 153.336C179.026 152.329 179.23 151.304 179.453 150.261C182.272 153.264 186.791 156.925 193.432 159.246C192.908 160.093 192.413 160.923 191.941 161.739Z" fill="#DCA24F"/>
<path fill-rule="evenodd" clip-rule="evenodd" d="M94.4269 191.861H94.4277C93.008 191.693 91.5693 191.515 90.1106 191.325C91.569 191.515 93.0072 191.693 94.4269 191.861Z" fill="#D29054"/>
<path fill-rule="evenodd" clip-rule="evenodd" d="M188.891 227.213H152.96C147.448 226.998 137.226 226.208 136.182 223.32L129.486 217.196C126.13 219.427 124.209 221.341 121.533 223.924C120.045 225.362 118.106 226.435 116.274 227.213H113.456L113.435 227.028C105.011 224.326 97.1467 222.048 89.8144 220.134L89.1873 205.49L182.849 204.063C183.056 204.269 183.325 204.42 183.662 204.486C183.662 204.486 185.656 204.932 188.046 205.228C185.566 205.287 183.077 205.42 182.402 205.84C181.405 206.462 181.147 209.427 183.02 209.79C183.02 209.79 184.37 210.093 186.18 210.365C184.765 210.44 183.582 210.574 183.171 210.83C182.3 211.372 182.076 213.961 183.71 214.278C183.71 214.278 183.973 214.338 184.417 214.424C183.797 214.497 183.324 214.598 183.099 214.738C182.296 215.237 182.088 217.625 183.596 217.919C183.596 217.919 186.422 218.552 189.073 218.695L188.891 227.213Z" fill="#D29054"/>
<path d="M89.1873 205.49L89.1437 204.469L88.9338 199.574L189.701 197.172L189.541 199.905C186.804 199.955 183.797 200.066 183.046 200.535C182.227 201.044 181.907 203.127 182.849 204.063L89.1873 205.49ZM127.306 193.953H127.309H127.306ZM127.303 193.953C117.71 193.953 106.814 193.322 94.4269 191.861H94.4277C106.809 193.322 117.712 193.953 127.303 193.953Z" fill="#C27B47"/>
<path d="M81.3242 199.756L83.1947 190.364C83.2606 190.373 83.3215 190.382 83.3873 190.391C83.3922 190.392 83.3964 190.393 83.4013 190.394C85.1508 190.652 86.8757 190.895 88.5718 191.123C90.5599 191.389 92.5103 191.635 94.4269 191.861C106.814 193.322 117.71 193.953 127.303 193.953H127.306H127.309C170.623 193.953 187.238 181.097 193.168 173.833C193.172 173.829 193.176 173.824 193.18 173.819C193.182 173.817 193.183 173.815 193.186 173.812C193.19 173.807 193.195 173.801 193.199 173.795L202.547 196.866L192.44 197.107L189.701 197.172L88.9339 199.574L81.3242 199.756Z" fill="#DF9767"/>
<path d="M127.306 193.953H127.303C117.713 193.953 106.81 193.322 94.4278 191.861C92.5112 191.635 90.56 191.389 88.5718 191.123C86.8758 190.895 85.1509 190.652 83.4014 190.394C83.3964 190.393 83.3923 190.392 83.3874 190.391C83.3216 190.382 83.2607 190.373 83.1948 190.363L85.044 181.074L86.7499 172.504L89.7593 172.474L101.821 172.357L113.543 172.242L121.889 172.16L130.489 172.076L134.98 172.032L146.754 171.917L150.304 171.882L161.938 171.768L165.92 171.729L176.438 171.626L177.089 171.62L187.039 171.523L192.258 171.472L193.199 173.795C193.195 173.801 193.19 173.807 193.186 173.812C193.183 173.815 193.182 173.816 193.18 173.819C193.176 173.824 193.172 173.829 193.168 173.833C187.238 181.097 170.623 193.953 127.309 193.953H127.306Z" fill="#E8A171"/>
<path d="M114.755 238.277L113.572 228.2C114.391 227.945 115.318 227.62 116.274 227.213C118.106 226.435 120.045 225.362 121.533 223.924C124.209 221.341 126.13 219.427 129.486 217.196C131.041 216.162 132.904 215.06 135.292 213.791C139.027 211.806 141.302 210.841 142.399 210.841C143.517 210.841 143.412 211.844 142.381 213.791C141.71 215.06 140.654 216.094 139.59 217.054C137.421 219.011 135.219 220.652 136.182 223.32C137.226 226.208 147.448 226.998 152.96 227.213C155.035 227.295 156.441 227.295 156.441 227.295H163.377H163.849C163.849 227.295 163.698 232.016 156.139 233.756C150.072 235.152 139.33 237.766 131.339 237.767C129.374 237.767 127.575 237.608 126.054 237.235C125.157 237.015 124.162 236.918 123.104 236.918C120.528 236.918 117.577 237.494 114.755 238.277Z" fill="#FCD8D0"/>
<path d="M48.0598 250.623C47.3225 250.623 46.5876 250.618 45.856 250.61C44.3501 250.592 42.8523 250.554 41.376 250.496C26.4111 249.905 13.1479 247.164 6.23041 240.437C6.23041 240.437 5.07502 239.312 3.80277 237.259C0.574425 232.772 -0.629524 226.625 0.31026 221.006C2.17501 209.858 8.83251 195.489 18.576 177.027C22.5696 169.459 26.2827 161.737 30.3373 154.587C36.524 143.676 43.5049 134.098 53.4928 128.435L53.5052 128.471L66.7041 166.663C65.5438 169.897 64.3752 173.143 63.1803 176.384C58.6772 188.595 53.794 200.743 47.5249 212.003C57.972 213.162 70.4928 215.311 85.3014 218.985C86.7827 219.352 88.287 219.735 89.8144 220.134C97.1467 222.048 105.011 224.326 113.435 227.028L113.456 227.213L113.572 228.2L114.755 238.277L115.277 242.728C115.277 242.728 79.8043 250.565 48.4129 250.623C48.3528 250.623 48.2952 250.623 48.2351 250.623C48.1783 250.623 48.1166 250.623 48.0598 250.623Z" fill="#FF8671"/>
<path d="M193.514 205.377C192.961 205.235 192.321 205.169 191.617 205.169C191.548 205.169 191.478 205.169 191.408 205.171C190.424 205.188 189.236 205.2 188.046 205.228C185.656 204.932 183.662 204.486 183.662 204.486C183.324 204.42 183.056 204.269 182.849 204.063C181.906 203.127 182.227 201.044 183.045 200.535C183.797 200.066 186.804 199.955 189.541 199.905C190.436 199.889 191.302 199.879 192.051 199.865C192.122 199.864 192.192 199.864 192.263 199.864C192.738 199.864 193.185 199.894 193.595 199.958C195.7 200.283 196.852 201.483 196.045 203.981C195.953 204.267 195.771 204.503 195.516 204.697C195.053 205.049 194.351 205.262 193.514 205.377Z" fill="#FCD8D0"/>
<path d="M193.143 214.887C192.569 214.406 191.645 214.197 190.522 214.197C190.465 214.197 190.409 214.197 190.352 214.198C188.589 214.23 186.016 214.236 184.417 214.424C183.973 214.337 183.711 214.278 183.711 214.278C182.076 213.96 182.3 211.372 183.171 210.83C183.582 210.574 184.765 210.44 186.18 210.365C187.661 210.587 189.45 210.79 191.062 210.79C191.909 210.79 192.708 210.734 193.387 210.595C194.555 211.08 195.081 212.1 194.52 213.839C194.353 214.354 193.849 214.686 193.143 214.887Z" fill="#FCD8D0"/>
<path d="M190.072 218.723C189.746 218.723 189.411 218.714 189.074 218.695C186.422 218.552 183.596 217.919 183.596 217.919C182.088 217.625 182.296 215.237 183.099 214.738C183.324 214.598 183.797 214.497 184.417 214.424C186.016 214.236 188.589 214.23 190.352 214.198C190.409 214.197 190.465 214.197 190.522 214.197C191.645 214.197 192.569 214.406 193.143 214.888C193.767 215.412 193.974 216.26 193.569 217.513C193.368 218.137 192.628 218.471 191.634 218.621C191.16 218.694 190.63 218.723 190.072 218.723Z" fill="#FCD8D0"/>
<path d="M191.061 210.79C189.449 210.79 187.66 210.587 186.18 210.365C184.369 210.092 183.02 209.79 183.02 209.79C181.147 209.426 181.404 206.462 182.402 205.84C183.077 205.42 185.566 205.287 188.046 205.227C189.236 205.199 190.424 205.188 191.408 205.171C191.478 205.169 191.548 205.169 191.617 205.169C192.321 205.169 192.961 205.235 193.514 205.376C194.444 205.614 195.128 206.067 195.452 206.782C195.735 207.406 195.745 208.23 195.403 209.287C195.18 209.979 194.424 210.383 193.387 210.595C192.708 210.734 191.909 210.79 191.061 210.79Z" fill="#FCD8D0"/>
</svg>
