<svg width="183" height="350" viewBox="0 0 183 350" fill="none" xmlns="http://www.w3.org/2000/svg">
<path d="M158.141 350C139.312 350 112.795 349.963 89.4949 349.917H183C183.01 349.978 172.958 350 158.141 350Z" fill="#F5F2DC"/>
<path d="M65.2358 79.1487C74.7538 92.0169 75.1799 110.872 66.2529 124.155C80.3675 126.133 94.9383 124.802 108.456 120.299C101.433 115.047 97.3144 106.56 96.0444 97.9005C94.7751 89.241 96.1176 80.3865 98.3981 71.936" fill="#FCD8D0"/>
<path d="M72.5961 100.119C72.5961 100.119 90.0319 99.1365 95.9726 87.1009V81.6566L68.6211 88.3589C68.6211 88.3589 72.3468 91.4747 72.5961 100.119Z" fill="#DBBFB9"/>
<path d="M62.8635 16.4777C52.098 20.566 44.808 31.2059 43.0885 42.3883C41.3699 53.5707 46.0015 63.9103 51.6219 73.8317C56.5398 82.5128 61.6858 86.5091 71.1489 90.1038C78.2707 92.8092 86.0242 93.6065 91.8344 88.8378C103.433 79.3213 112.125 61.0423 111.495 46.2038C111.241 40.2073 109.812 34.1726 106.689 28.9925C102.207 21.5574 94.6716 16.4586 87.375 11.6029L62.8635 16.4777Z" fill="#FCD8D0"/>
<path d="M53.9759 54.1787C57.1419 50.9473 61.8368 49.347 66.3228 49.8896C67.4223 50.0231 67.6636 48.3224 66.5608 48.1897C61.4257 47.5683 56.2281 49.4358 52.6226 53.1159C52.2981 53.4478 52.4287 54.0559 52.7666 54.3214C53.1645 54.635 53.6505 54.5114 53.9759 54.1787Z" fill="#10202C"/>
<path d="M82.7727 45.0514C86.4622 42.4273 91.366 41.679 95.6855 43.0039C96.7442 43.3283 97.2827 41.6964 96.2215 41.3712C91.277 39.8555 85.8305 40.7797 81.6292 43.7663C81.2505 44.036 81.2713 44.6582 81.5567 44.9792C81.893 45.3567 82.3932 45.321 82.7727 45.0514Z" fill="#10202C"/>
<path d="M69.3096 56.4976C66.6779 60.5353 61.2756 61.7648 57.1275 59.3125C56.6007 59.0005 56.1213 59.8194 56.6481 60.1305C61.2531 62.8533 67.2206 61.4405 70.1303 56.9754C70.4648 56.4627 69.6417 55.9874 69.3096 56.4976Z" fill="#10202C"/>
<path d="M95.5625 50.166C92.9309 54.2038 87.5285 55.4341 83.3805 52.9818C82.8536 52.6698 82.3742 53.4878 82.9011 53.7989C87.5069 56.5226 93.4735 55.1089 96.3832 50.6447C96.7177 50.1312 95.8946 49.6558 95.5625 50.166Z" fill="#10202C"/>
<path d="M80.0336 68.3918C78.4448 68.4242 76.8584 68.3404 75.2946 68.0484C75.0332 67.9994 74.2434 67.972 74.2193 67.6319C74.2109 67.5099 74.419 67.2511 74.4806 67.1267C74.5614 66.9649 74.6404 66.8014 74.7161 66.6372C75.0033 66.0108 75.253 65.3679 75.4436 64.7058C75.8464 63.3005 75.9771 61.8229 76.1202 60.3727C76.2783 58.7765 76.3133 57.1795 75.9837 55.6008C75.8722 55.0682 75.0532 55.2938 75.1648 55.8256C75.5401 57.6251 75.3811 59.461 75.1739 61.2712C74.9883 62.8906 74.7461 64.4619 74.0903 65.9685C73.933 66.3302 73.759 66.6845 73.5759 67.0346C73.4211 67.3307 73.2347 67.6045 73.3004 67.9555C73.4353 68.6723 74.2983 68.7137 74.8776 68.8274C76.5771 69.1617 78.3033 69.2737 80.0336 69.238C80.5796 69.2273 80.5812 68.3802 80.0336 68.3918Z" fill="#10202C"/>
<path d="M75.7065 76.4997C77.2862 78.349 79.9503 78.5663 82.2924 77.6247C84.6344 76.6823 86.7001 74.7468 88.5286 72.6478" fill="#E77E7D"/>
<path d="M71.9006 92.6225C71.7616 91.6411 71.4245 89.5256 70.7096 88.837C66.9993 85.263 62.9611 84.406 59.2724 80.8096C55.5846 77.2124 52.1248 72.9656 53.25 67.9464C53.6021 66.3751 54.3278 64.8934 54.5401 63.298C54.8322 61.107 54.1481 59.018 53.2509 56.9589C49.6105 59.8062 47.3525 64.4122 47.5239 69.0382C47.6596 72.715 49.1777 76.4566 48.0924 79.9734C47.2584 82.6738 44.9272 84.7677 42.2539 85.7077C39.5815 86.6468 36.6161 86.5224 33.8837 85.7732C31.3011 85.0647 28.9433 83.7448 26.9183 82.02C25.9995 88.2189 29.8555 94.6949 35.0322 98.5444C45.112 106.038 60.3186 105.677 70.028 97.7131C71.204 96.7491 72.1128 94.1258 71.9006 92.6225Z" fill="#10202C"/>
<path d="M113.823 62.6367C113.601 65.2757 112.556 67.816 112.526 70.465C112.468 75.4551 116.384 80.0761 121.239 81.2973C126.093 82.5193 131.484 80.5332 134.758 76.7568C136.499 74.7483 137.638 72.2976 138.217 69.7058C136.062 66.3459 133.071 63.409 132.178 59.5455C131.121 54.9801 133.263 50.35 133.845 45.7009C135.051 36.064 128.575 26.0289 119.277 23.1269C115.879 22.0667 112.134 21.8327 109.157 19.8856C105.678 17.61 103.989 13.505 101.654 10.0729C98.0683 4.80397 92.3688 0.771202 86.016 0.103355C81.1438 -0.408516 76.2534 1.04002 71.8265 3.13065C63.9331 6.85647 52.5184 15.5143 51.9033 24.1996C59.3206 20.8612 75.1181 22.6292 77.4793 30.3919C78.081 32.3689 78.2591 34.491 79.1938 36.3361C81.2395 40.3764 86.1442 41.8863 90.5095 43.134C90.8499 43.2311 91.1936 43.334 91.539 43.4401C95.7387 43.986 99.8543 44.9202 103.604 46.8383C109.536 49.8738 114.379 56.0122 113.823 62.6367Z" fill="#10202C"/>
<path d="M139.309 71.6132C138.987 70.9569 138.615 70.3248 138.218 69.7059C137.638 72.2976 136.499 74.7483 134.758 76.7568C131.484 80.5332 126.093 82.5193 121.239 81.2973C116.384 80.0761 112.468 75.4551 112.526 70.465C112.556 67.816 113.601 65.2757 113.823 62.6367C114.379 56.0122 109.536 49.8739 103.604 46.8383C99.8544 44.9202 95.7388 43.9861 91.5391 43.4402C95.6164 44.6896 99.8793 46.5894 101.316 50.5093C102.044 52.493 101.893 54.6923 101.482 56.7647C100.504 61.6951 98.1415 66.224 96.2897 70.8997C94.4362 75.5754 93.0696 80.7017 94.1999 85.6005C95.3492 90.5841 99.0654 94.7736 103.625 97.1181C108.184 99.4627 113.501 100.083 118.602 99.5323C125.371 98.8023 132.092 95.8994 136.428 90.6654C140.764 85.4313 142.298 77.7117 139.309 71.6132Z" fill="#10202C"/>
<path d="M72.5749 35.2026C76.9509 31.5304 74.4129 26.6663 73.9987 25.8362L48.7322 38.79C49.5445 43.45 49.8658 46.2712 51.1728 49.0895C51.908 45.2502 55.1236 41.5027 59.219 39.2053C63.3145 36.9078 67.5436 39.4247 72.5749 35.2026Z" fill="#DBBFB9"/>
<path d="M73.4652 21.5283L69.7583 20.9783L63.4787 9.8033C58.6015 7.49364 52.3003 8.64766 48.5659 12.5352C46.62 14.5603 45.3733 17.1745 43.4058 19.178C41.1952 21.4288 38.2331 22.757 35.6348 24.5481C29.8462 28.5369 25.8163 35.2004 25.6649 42.2124C25.5384 48.0263 27.9778 53.642 31.2803 58.4364C32.383 60.0375 33.6115 61.6263 34.0809 63.512C34.8083 66.4405 33.5599 69.4977 31.9694 72.0645C30.3781 74.6314 28.3989 77.014 27.4235 79.8704C27.1813 80.5797 27.0248 81.299 26.9183 82.0199C28.9432 83.7447 31.3011 85.0646 33.8836 85.7731C36.616 86.5223 39.5814 86.6467 42.2539 85.7076C44.9272 84.7676 47.2584 82.6737 48.0923 79.9733C49.1776 76.4565 47.6595 72.7149 47.5239 69.0381C47.3524 64.4121 49.6104 59.8061 53.2508 56.9588C52.6233 55.5178 51.8909 54.0908 51.3124 52.6548C51.3124 52.6548 48.7656 38.6176 62.9369 35.8011C77.1073 32.9837 73.4652 21.5283 73.4652 21.5283Z" fill="#10202C"/>
<path d="M73.6715 58.9084C73.639 63.57 70.6928 67.8691 66.265 69.4594C61.8048 71.0614 56.7429 69.6735 53.7184 66.0439C50.6897 62.411 50.336 57.0873 52.7971 53.0654C55.2356 49.079 60.0546 46.9685 64.6504 47.9059C69.8663 48.9695 73.6349 53.622 73.6715 58.9084C73.6765 59.5181 74.627 59.519 74.622 58.9084C74.5862 53.8062 71.3478 49.1753 66.518 47.4439C61.7174 45.7232 56.1545 47.2705 52.9469 51.2228C49.7359 55.1809 49.3073 60.8687 51.9756 65.23C54.6322 69.5706 59.8265 71.8247 64.8244 70.8408C70.4855 69.7266 74.582 64.6194 74.622 58.9084C74.627 58.2986 73.6765 58.2978 73.6715 58.9084Z" fill="black"/>
<path d="M102.39 50.4056C102.358 55.0664 99.4117 59.3655 94.9839 60.9559C90.5246 62.5579 85.4618 61.1699 82.4373 57.5404C79.4095 53.9083 79.0549 48.5838 81.516 44.5626C83.9546 40.5755 88.7735 38.4649 93.3702 39.4024C98.5844 40.4668 102.354 45.1185 102.39 50.4056C102.395 51.0146 103.346 51.0162 103.342 50.4056C103.306 45.3035 100.067 40.6717 95.2361 38.9403C90.4364 37.2197 84.8734 38.7669 81.6666 42.7192C78.4549 46.6773 78.0271 52.3652 80.6954 56.7265C83.3512 61.0671 88.5446 63.3212 93.5433 62.3372C99.2044 61.223 103.302 56.1167 103.342 50.4056C103.346 49.795 102.395 49.795 102.39 50.4056Z" fill="black"/>
<path d="M73.3363 54.207C73.819 53.6387 74.4249 53.1766 75.0641 52.8057C76.4041 52.0276 77.9122 51.8301 79.3736 52.3959C79.9438 52.6174 80.1909 51.7015 79.6267 51.4825C77.1723 50.5309 74.3242 51.5821 72.6638 53.5366C72.271 53.9996 72.9401 54.6732 73.3363 54.207Z" fill="black"/>
<path d="M34.8158 258C34.8158 258 27.4664 280.793 20.1111 322.199C18.5434 331.02 17.1785 340.495 16 349.945L160 350C154.1 315.31 145.468 276.8 134.186 258H34.8158Z" fill="#3D4267"/>
<path d="M136.331 261.868C136.331 261.868 138.941 267.4 139.955 269.982C140.971 272.565 135.719 286.785 118.942 284.213C110.964 282.989 104.975 285.793 98.1757 288.598C90.6752 291.691 82.1867 294.784 68.9477 292.473C43.7062 288.066 52.1706 305.405 41.37 312.65C30.5695 319.895 21.2871 316.546 21.2871 316.546L34.1675 262.167L136.331 261.868Z" fill="#363B5F"/>
<path d="M4.22457 214.201C4.22457 214.201 0.88629 154.874 40.1475 131.928C61.3007 119.564 58.2854 145.547 46.1257 171.53C35.7172 193.771 18.6089 216.012 4.22457 214.201Z" fill="#FF8671"/>
<path d="M68.1619 117.115C68.1619 117.115 90.1832 124.403 103.294 113.51C103.294 113.51 133.583 117.685 144.881 122.225C144.881 122.225 140.724 166.715 142.603 185.493C144.481 204.27 145.569 254.827 136.331 261.868C130.795 266.088 124.803 265.463 118.082 264.84C113.588 264.422 108.768 264.005 103.542 265.036C90.5003 267.609 73.2804 269.181 62.7986 265.254C59.7192 264.1 55.9065 264.148 51.9524 264.195C42.4502 264.309 32.1299 264.424 29.1953 247.865C23.7089 216.913 29.5748 126.438 29.5748 126.438C29.5748 126.438 53.9274 118.342 68.1619 117.115Z" fill="#FF8671"/>
<path d="M66.1988 119.671C64.4502 118.677 64.1572 116.278 65.6312 114.91C66.7298 113.891 68.1388 112.868 69.7385 112.361C73.4554 111.184 82.9318 115.667 99.128 109.682C100.229 109.275 101.425 109.15 102.568 109.421C104.635 109.909 107.595 111.142 107.542 114.19C107.467 118.638 85.8398 130.846 66.1988 119.671Z" fill="#EC6356"/>
<path d="M147.668 218.555C142.237 228.578 134.246 237.306 124.383 243.06C114.52 248.816 102.768 251.496 91.445 249.957C86.9474 249.346 82.543 248.09 78.0179 247.733C75.4544 247.53 72.8835 247.618 70.3109 247.706C68.5082 247.768 66.7055 247.83 64.9044 247.791C57.9241 247.644 50.8555 245.916 45.0787 242.007C39.3018 238.098 34.9473 231.856 34.1675 224.94L147.668 218.555Z" fill="#DE7563"/>
<path d="M129.988 139.463C129.988 139.463 123.901 141.956 111.877 164.638C99.8543 187.321 81.1812 187.994 67.4236 186.122C61.3705 185.299 61.7957 190.741 66.2243 196.183C71.8613 203.109 83.9818 210.036 97.4823 204.045C121.59 193.347 129.988 139.463 129.988 139.463Z" fill="#E97865"/>
<path d="M15.0316 302.931C23.5092 301.551 30.6776 296.747 35.4466 290.947C40.2147 285.147 42.8497 278.393 44.9263 271.645C46.7581 265.69 48.1821 259.657 49.2292 253.581C49.5071 245.415 49.2941 237.213 48.9195 229.048L35.7928 238.245C34.4786 248.645 30.5653 258.709 24.5054 267.277C18.4689 275.81 10.4366 282.764 4.14784 291.116C2.18033 293.728 0.318521 296.698 0.370955 299.964C0.38011 300.486 0.46584 301.009 0.604831 301.521C5.01758 303.2 10.221 303.714 15.0316 302.931Z" fill="#343638"/>
<path d="M49.2293 253.581C48.1823 259.657 46.7583 265.69 44.9264 271.645C43.1012 277.58 40.8399 283.516 37.0788 288.807L32.3232 294.267C27.7723 298.519 21.824 301.826 15.0317 302.931C10.2211 303.714 5.01773 303.2 0.60498 301.521C0.990326 302.936 1.84175 304.244 2.95534 305.11C1.9075 306.727 -0.551895 311.485 1.9308 317.599C4.02482 322.755 9.279 322.088 12.9552 320.609C15.5461 322.05 20.7237 322.903 29.282 316.154C42.5053 305.727 46.5976 277.88 46.5976 277.88L46.596 277.882C46.7782 276.909 46.958 275.916 47.137 274.893C48.3687 267.848 48.9863 260.728 49.2293 253.581Z" fill="#2C2F31"/>
<path d="M117.146 158.767C113.929 164.333 109.003 168.683 104.165 172.927C100.444 176.19 96.7241 179.453 93.0046 182.716C89.8053 185.522 86.2132 188.486 81.9527 188.535C80.9482 188.548 79.9677 188.373 79.0165 188.082C77.1247 190.477 74.9782 192.643 72.4656 194.444L94.2405 197.665C98.8847 185.008 108.894 175.132 115.688 163.48C117.487 160.398 119.085 156.976 119.428 153.491C118.874 155.335 118.099 157.119 117.146 158.767Z" fill="#EADEE2"/>
<path d="M93.0045 182.716C96.724 179.453 100.444 176.19 104.165 172.928C109.003 168.683 113.929 164.334 117.146 158.767C118.099 157.119 118.874 155.335 119.428 153.491C119.55 152.244 119.516 150.989 119.267 149.738C118.781 147.291 117.334 144.882 115.016 143.942C112.358 142.863 109.312 143.94 106.856 145.418C98.1696 150.647 93.3624 160.315 89.201 169.541C86.3088 175.953 83.3292 182.624 79.0164 188.082C79.9677 188.373 80.9481 188.548 81.9526 188.535C86.2131 188.486 89.8052 185.522 93.0045 182.716Z" fill="#F3ECEF"/>
<path d="M97.0097 149.315C93.793 154.883 88.8667 159.231 84.0278 163.475C80.3084 166.739 76.5881 170.001 72.8678 173.264C69.6693 176.07 66.0772 179.034 61.8168 179.083C60.8122 179.095 59.8309 178.921 58.8805 178.63C56.9887 181.026 54.8422 183.19 52.3296 184.992L74.1045 188.213C78.7487 175.557 88.7585 165.68 95.5533 154.029C97.3501 150.946 98.9481 147.525 99.291 144.04C98.7376 145.882 97.9627 147.667 97.0097 149.315Z" fill="#EADEE2"/>
<path d="M72.8677 173.264C76.588 170.001 80.3083 166.739 84.0277 163.475C88.8666 159.231 93.7929 154.883 97.0097 149.315C97.9626 147.667 98.7375 145.882 99.2909 144.039C99.4141 142.793 99.38 141.536 99.1311 140.285C98.6451 137.839 97.1978 135.43 94.8798 134.489C92.2224 133.41 89.1762 134.487 86.7202 135.966C78.0328 141.195 73.2256 150.862 69.065 160.088C66.1728 166.501 63.1924 173.172 58.8804 178.63C59.8308 178.921 60.8121 179.095 61.8167 179.083C66.0771 179.034 69.6692 176.07 72.8677 173.264Z" fill="#F3ECEF"/>
<path d="M64.6156 151.167C63.3247 139.453 73.5826 138.641 83.1255 133.862C88.5778 131.133 90.3589 124.879 90.8857 120.016C90.77 119.454 90.6618 118.89 90.5228 118.333C83.3078 120.282 77.1256 120.443 68.0804 119.276C68.0804 119.276 66.4907 115.156 65.264 113.991C63.8316 112.632 61.676 109.882 59.9632 108.951C54.7864 105.4 49.5955 103.274 43.3667 104.102C42.6551 104.198 41.8985 104.381 41.4258 104.92C40.9531 105.46 40.9614 106.451 41.6022 106.774C40.1224 106.375 38.5919 105.972 37.0738 106.19C35.5557 106.406 34.041 107.41 33.723 108.905C33.6356 109.317 33.6365 109.76 33.4292 110.127C33.1546 110.613 32.592 110.842 32.1051 111.117C30.6411 111.942 29.6815 113.511 29.4568 115.165C26.7452 118.04 24.6994 121.536 23.5517 125.312C22.5089 128.749 22.2001 132.36 22.0029 135.945C21.7307 140.892 21.8006 149.872 22.1111 160.011C20.3142 163.163 18.3841 166.275 17.1831 169.696C16.7337 170.976 16.3966 172.436 16.9517 173.669C17.506 174.904 19.3304 175.505 20.1394 174.435C17.7308 177.441 16.2918 181.28 16.1037 185.196C16.0579 186.152 16.097 187.161 16.5647 187.985C17.0317 188.809 18.0504 189.361 18.8935 188.984C17.705 192.753 17.0724 196.713 17.0242 200.68C17.0125 201.569 17.0591 202.493 17.179 203.395C21.5426 205.191 26.4514 206.051 31.3061 205.832C42.9264 205.308 53.2825 198.718 59.4014 190.41C61.3131 187.814 62.8662 185.069 64.1362 182.223C67.7308 173.264 65.9065 162.881 64.6156 151.167Z" fill="#FAFAFA"/>
<path d="M92.1387 148.429C92.3868 147.436 91.8666 146.465 91.1742 145.665C91.1579 145.907 91.1147 146.147 91.0134 146.379C90.5863 147.364 89.4529 147.858 88.3843 147.969C86.0407 148.211 83.7835 147.069 81.8093 145.782C80.6452 145.023 79.496 144.159 78.5377 143.152L76.7085 144.319C77.9427 146.755 80.4609 148.252 82.961 149.348C85.1194 150.294 87.533 151.051 89.8056 150.428C90.8421 150.144 91.8786 149.471 92.1387 148.429Z" fill="#F25163"/>
<path d="M88.3842 147.969C89.4528 147.858 90.5863 147.365 91.0133 146.379C91.1146 146.147 91.1578 145.907 91.1741 145.665C91.0028 145.467 90.8243 145.277 90.641 145.103C88.3074 142.889 85.304 141.39 82.1322 140.857L78.5376 143.152C79.4959 144.159 80.6451 145.023 81.8092 145.782C83.7834 147.069 86.0406 148.211 88.3842 147.969Z" fill="#F35B6F"/>
<path d="M79.858 143.996C82.764 144.379 84.9258 146.673 87.6163 147.644C87.9748 147.773 88.1907 147.221 87.8308 147.091C85.0784 146.098 82.8989 143.799 79.9175 143.406C79.5394 143.356 79.4789 143.946 79.858 143.996Z" fill="#E83340"/>
<path d="M67.9824 169.96C68.1372 169.219 68.2796 168.478 68.4136 167.733C68.2796 168.478 68.1372 169.219 67.9824 169.96ZM67.4756 172.203C67.6229 171.592 67.7627 170.98 67.8934 170.366C67.7627 170.98 67.6229 171.592 67.4756 172.203ZM69.2084 162.55C69.1135 163.292 69.0086 164.036 68.8979 164.779C69.0086 164.036 69.1135 163.292 69.2084 162.55ZM68.7997 165.417C68.7098 165.996 68.6141 166.575 68.5143 167.154C68.6141 166.575 68.7098 165.996 68.7997 165.417ZM65.8551 177.812C65.6645 178.371 65.4648 178.927 65.2559 179.479C65.4648 178.927 65.6645 178.371 65.8551 177.812ZM67.3149 172.858C67.161 173.469 66.9995 174.079 66.8281 174.686C66.9995 174.079 67.161 173.469 67.3149 172.858ZM66.7157 175.096C66.5051 175.823 66.2804 176.546 66.0432 177.266C66.2804 176.546 66.5051 175.823 66.7157 175.096ZM90.886 120.017C90.3591 124.879 88.578 131.133 83.1258 133.863C73.5828 138.641 63.325 139.453 64.6158 151.167C65.9067 162.881 67.7311 173.264 64.1365 182.223C64.4494 181.521 64.7399 180.811 65.0203 180.097C64.7399 180.811 64.4494 181.521 64.1365 182.223C62.8664 185.069 61.3134 187.814 59.4016 190.41C53.2827 198.718 42.9266 205.308 31.3063 205.832C26.4516 206.051 21.5428 205.191 17.1792 203.395C17.4447 205.387 18.1114 207.277 19.6103 208.459C21.2765 209.773 23.4504 209.827 25.5744 209.494L25.6019 209.668L80.1678 204.932C79.9232 203.836 79.6785 202.738 79.4338 201.642C82.0629 200.085 84.2802 197.892 85.3996 195.086C87.0159 191.032 85.7241 185.722 81.8699 183.655C83.1258 182.1 83.5361 179.904 82.9252 178.002C82.3135 176.102 80.6997 174.552 78.7704 174.014C81.1824 172.143 80.3676 168.137 78.2686 165.922C76.1704 163.706 73.205 162.507 70.9179 160.485C70.6849 160.279 70.3553 159.852 69.9899 159.304C69.9333 159.053 69.8775 158.802 69.8218 158.55C69.4098 156.704 68.9978 154.859 68.5858 153.013C68.436 152.339 68.3095 151.559 68.7473 151.026C69.1909 150.486 69.9183 150.577 70.6524 150.666C70.9345 150.701 71.2183 150.735 71.4863 150.734C77.1591 150.711 79.0168 150.029 83.5677 147.917C84.7737 147.357 87.3371 145.19 88.5264 143.381C89.2788 142.236 89.9105 140.651 90.2742 139.331C92.0029 133.061 92.196 126.387 90.886 120.017Z" fill="#EADEE2"/>
<path d="M82.1273 129.117C82.7492 129.117 82.7507 128.15 82.1273 128.15C81.5061 128.15 81.5054 129.117 82.1273 129.117Z" fill="#D6CBCE"/>
<path d="M74.8168 132.503C75.4387 132.503 75.4403 131.537 74.8168 131.537C74.1949 131.537 74.1941 132.503 74.8168 132.503Z" fill="#D6CBCE"/>
<path d="M78.0863 140.857C78.7082 140.857 78.709 139.89 78.0863 139.89C77.4644 139.89 77.4637 140.857 78.0863 140.857Z" fill="#D6CBCE"/>
<path d="M82.9892 138.974C83.6111 138.974 83.6119 138.007 82.9892 138.007C82.3673 138.007 82.3665 138.974 82.9892 138.974Z" fill="#D6CBCE"/>
<path d="M79.5331 134.77C80.155 134.77 80.1558 133.804 79.5331 133.804C78.9112 133.804 78.9104 134.77 79.5331 134.77Z" fill="#D6CBCE"/>
<path d="M85.3993 134.121C86.0212 134.121 86.022 133.154 85.3993 133.154C84.7774 133.154 84.7767 134.121 85.3993 134.121Z" fill="#D6CBCE"/>
<path d="M72.12 138.74C72.7419 138.74 72.7427 137.774 72.12 137.774C71.4981 137.774 71.4974 138.74 72.12 138.74Z" fill="#D6CBCE"/>
<path d="M24.8967 141.952C31.3303 139.325 37.4883 134.99 40.1682 128.595C41.658 125.041 41.9668 121.118 42.1224 117.269C42.1366 116.914 42.1416 116.558 42.1541 116.202C35.8404 105.94 27.8031 111.453 23.4094 114.307C21.5568 115.511 20.027 117.143 18.5939 118.822C14.519 123.599 11.0692 128.906 8.36014 134.564C7.40135 136.567 6.54161 138.736 6.33521 140.913C7.7892 142.257 9.61606 143.253 11.5295 143.728C15.9672 144.827 20.6654 143.68 24.8967 141.952Z" fill="#343638"/>
<path d="M42.1665 116.221L42.154 116.202C42.1415 116.557 42.1365 116.914 42.1224 117.269C41.9667 121.118 41.658 125.041 40.1682 128.595C37.4882 134.99 31.3302 139.325 24.8967 141.952C20.6653 143.68 15.9671 144.827 11.5294 143.727C9.61599 143.253 7.78913 142.256 6.33514 140.913C6.23693 141.945 6.27272 142.98 6.53905 143.999C7.57274 147.947 11.442 150.404 15.104 152.228C21.729 155.524 28.8242 158.077 36.1982 158.746C38.3813 158.943 40.6667 158.959 42.6592 158.048C44.9088 157.021 46.5201 154.902 47.3907 152.594C48.2613 150.286 48.4668 147.784 48.5209 145.319C48.7382 135.303 46.5409 125.242 42.1665 116.221Z" fill="#2C2F31"/>
<path d="M83.4902 119.926C84.4315 120.844 85.3729 121.762 86.315 122.678C86.6729 123.028 87.0366 123.381 87.4752 123.622C88.4323 124.147 89.595 124.065 90.6837 123.969C90.9874 123.942 91.3079 123.909 91.5542 123.73C91.7698 123.574 91.8979 123.329 92.0111 123.089C92.4872 122.081 92.8393 120.981 92.7577 119.87C92.6761 118.76 92.0935 117.639 91.094 117.142C89.7781 116.489 88.2076 117.044 86.8485 117.603C85.6725 118.086 84.4274 118.623 83.7224 119.678" fill="#0D0D0B"/>
<path d="M54.8156 124.614C56.2749 124.146 57.7201 123.484 58.7886 122.351C59.7742 121.304 60.3616 119.792 60.0065 118.36C59.8472 117.718 60.8353 117.444 60.9946 118.086C61.4235 119.815 60.8046 121.602 59.6597 122.916C58.475 124.276 56.7718 125.066 55.0885 125.606C54.458 125.807 54.1892 124.815 54.8156 124.614Z" fill="#0D0D0B"/>
<path d="M22.0463 157.78C22.0463 157.78 46.3506 168.443 68.8979 155.082C68.8979 155.082 71.0335 155.574 69.6403 157.74C68.2479 159.907 51.2061 171.798 21.6202 161.2C21.6202 161.2 19.3106 158.731 22.0463 157.78Z" fill="#7673BF"/>
<path d="M144.881 122.225C139.282 122.225 136.52 127.651 135.628 130.675C130.363 148.539 128.199 167.635 120.677 184.466C119.991 186.004 119.231 187.56 118.039 188.649C116.21 190.322 113.685 190.624 111.32 190.715C93.5866 191.391 76.0929 185.857 58.352 185.605C57.1652 185.589 56.094 183.895 55.0878 184.596C54.045 185.322 53.464 186.622 52.9347 187.859C51.1378 192.053 49.3409 196.247 47.5448 200.442C47.2968 201.02 47.043 201.654 47.167 202.28C47.3201 203.054 47.9884 203.542 48.6035 203.939C75.0251 221.043 105.962 226.787 136.129 232.232C137.749 232.524 139.443 232.812 141.006 232.252C142.823 231.602 144.17 229.913 145.317 228.213C150.983 219.814 153.989 209.584 156.317 199.402C159.559 185.234 161.682 170.635 161.149 156.026C160.902 149.244 160.053 142.374 157.521 136.2C154.988 130.026 150.598 124.575 144.881 122.225Z" fill="#FF8671"/>
<path d="M56.4418 187.785C54.7098 185.615 53.672 181.105 51.7394 178.163C50.3287 176.014 48.1556 173.616 45.0637 171.347C42.3063 169.321 40.6118 166.55 37.9111 164.28C37.3426 163.803 36.4562 164.049 36.239 164.758C35.0813 168.532 39.1437 173.183 41.3143 175.68C42.0725 176.552 42.9813 177.661 43.33 178.744C43.6371 179.699 42.6035 180.537 41.8269 179.978C38.581 177.642 34.7908 175.642 31.7006 173.209C27.0049 169.513 21.7099 151.533 20.5305 159.372C21.5443 165.813 24.0752 171.915 27.8247 176.961C21.3387 171.001 12.7337 153.743 14.772 163.479C16.7803 170.56 20.7444 176.917 26.0427 181.556C22.3175 179.649 21.1614 179.188 19.3079 176.777C17.4544 174.366 12.1337 167.661 12.0696 171.738C13.7233 178.646 20.5805 182.176 25.1722 187.194C21.4785 185.933 15.174 178.47 14.8469 181.657C17.3404 186.169 21.1731 190.189 25.6674 192.274C30.1609 194.361 35.5907 196.73 40.2622 198.346C44.4561 199.797 48.3404 199.488 52.6066 200.696L56.4418 187.785Z" fill="#FCD8D0"/>
<path d="M54.2111 183.16C54.2111 183.16 58.0088 181.649 60.9718 185.128C63.2522 187.807 57.2132 199.407 54.3127 204.604C53.4063 206.228 51.3198 206.775 49.7443 205.782C48.4018 204.938 47.0743 203.648 46.7922 201.778C46.1838 197.748 54.2111 183.16 54.2111 183.16Z" fill="#EC6356"/>
<path d="M63.6079 225.618C66.1089 224.405 68.9994 220.784 72.0156 218.961C74.2186 217.63 77.2673 216.951 81.0392 216.232C84.1086 215.648 86.4731 214.303 89.1098 212.943C90.2259 212.367 91.4352 213.771 90.9866 214.941C89.7648 218.126 85.2372 220.018 82.4948 221.207C81.4328 221.667 80.1336 222.277 79.3488 223.104C78.6588 223.832 79.2289 225.034 80.1711 224.864C84.1111 224.153 88.3957 223.979 92.2367 223.115C98.0726 221.802 110.635 207.861 108.305 215.438C104.6 220.813 99.6756 225.229 94.1076 228.168C102.54 225.58 117.774 213.716 111.72 221.622C106.843 227.145 100.515 231.174 93.7256 233.079C97.912 232.96 99.1546 233.043 101.87 231.666C104.587 230.289 112.29 226.529 110.582 230.234C106.098 235.754 98.3847 235.988 92.0694 238.539C93.5758 238.714 95.8446 238.215 97.9902 237.715C101.368 236.929 104.445 236.143 103.781 237.987C99.5774 240.984 94.3806 242.961 89.4235 242.91C84.4665 242.857 78.5423 242.658 73.6294 242.106C69.2183 241.61 65.8476 239.66 61.4756 238.913L63.6079 225.618Z" fill="#FCD8D0"/>
<path d="M21.9829 195.136C18.0753 194.117 13.9439 195.172 11.0425 197.975C5.3822 203.443 -2.23816 214.817 14.0288 227.284C36.7742 244.713 63.1708 242.852 63.1708 242.852V221.266C63.1708 221.266 47.9525 210.319 37.1212 202.827C30.7351 198.408 25.8471 196.143 21.9829 195.136Z" fill="#FF8671"/>
<path d="M61.8359 218.025C62.694 217.94 63.7368 217.985 64.8179 218.372C66.0705 218.821 66.8321 219.895 66.8587 221.029L67.3173 240.369C67.3497 241.742 66.2711 242.985 64.6731 243.337C63.1351 243.675 61.2491 243.796 59.895 242.91C57.5946 241.404 57.2176 225.689 58.7573 220.29C59.1043 219.074 60.3419 218.172 61.8359 218.025Z" fill="#EC6356"/>
<path d="M141.945 139.332C139.998 139.332 140.001 136.319 141.945 136.319C143.894 136.319 143.891 139.332 141.945 139.332Z" fill="white"/>
<path d="M128.487 160.109C127.922 159.377 128.111 158.098 129.053 157.728C128.866 158.523 128.678 159.316 128.487 160.109Z" fill="white"/>
<path d="M129.629 160.638C129.11 160.638 128.729 160.424 128.487 160.109C128.678 159.316 128.866 158.523 129.053 157.728C129.221 157.662 129.413 157.625 129.629 157.625C131.577 157.625 131.574 160.638 129.629 160.638Z" fill="white"/>
<path d="M149.554 173.999C147.606 173.999 147.609 170.986 149.554 170.986C151.502 170.986 151.499 173.999 149.554 173.999Z" fill="white"/>
<path d="M127.817 184.471C125.869 184.471 125.872 181.458 127.817 181.458C129.766 181.458 129.762 184.471 127.817 184.471Z" fill="white"/>
<path d="M153.177 152.333C151.229 152.333 151.232 149.319 153.177 149.319C155.125 149.319 155.122 152.333 153.177 152.333Z" fill="white"/>
<path d="M149.373 193.68C147.425 193.68 147.428 190.667 149.373 190.667C151.321 190.667 151.318 193.68 149.373 193.68Z" fill="white"/>
<path d="M133.614 205.055C131.666 205.055 131.669 202.042 133.614 202.042C135.563 202.042 135.559 205.055 133.614 205.055Z" fill="white"/>
<path d="M141.584 222.388C139.636 222.388 139.639 219.375 141.584 219.375C143.533 219.375 143.529 222.388 141.584 222.388Z" fill="white"/>
<path d="M115.862 199.458C113.914 199.458 113.917 196.445 115.862 196.445C117.81 196.445 117.807 199.458 115.862 199.458Z" fill="white"/>
<path d="M115.681 216.611C113.733 216.611 113.736 213.598 115.681 213.598C117.629 213.598 117.626 216.611 115.681 216.611Z" fill="white"/>
<path d="M94.85 200.722C92.9025 200.722 92.9058 197.709 94.85 197.709C96.7984 197.709 96.7951 200.722 94.85 200.722Z" fill="white"/>
<path d="M92.1335 216.25C91.4402 216.25 90.9941 215.868 90.7952 215.377C90.8651 215.235 90.9292 215.089 90.9866 214.941C91.1314 214.562 91.1031 214.16 90.9608 213.807C91.2013 213.47 91.5917 213.236 92.1335 213.236C94.0819 213.236 94.0785 216.25 92.1335 216.25Z" fill="white"/>
<path d="M90.7952 215.377C90.5896 214.872 90.6446 214.25 90.9608 213.807C91.1032 214.16 91.1314 214.562 90.9866 214.941C90.9292 215.089 90.8651 215.235 90.7952 215.377Z" fill="#FBC6CE"/>
<path d="M78.9592 200.722C77.0117 200.722 77.0142 197.709 78.9592 197.709C80.9076 197.709 80.9043 200.722 78.9592 200.722Z" fill="white"/>
<path d="M66.6729 190.069C64.7246 190.069 64.7279 187.056 66.6729 187.056C68.6204 187.056 68.618 190.069 66.6729 190.069Z" fill="white"/>
<path d="M59.1668 204.152C57.2184 204.152 57.2218 201.139 59.1668 201.139C61.1152 201.139 61.1119 204.152 59.1668 204.152Z" fill="white"/>
<path d="M72.2086 217.694C70.9394 217.694 70.4983 216.416 70.8828 215.525C71.7883 215.899 72.7005 216.266 73.6127 216.625C73.4587 217.207 72.991 217.694 72.2086 217.694Z" fill="white"/>
<path d="M73.6125 216.625C72.7003 216.266 71.7881 215.899 70.8826 215.525C71.0881 215.048 71.5301 214.681 72.2084 214.681C73.3736 214.681 73.8405 215.758 73.6125 216.625Z" fill="white"/>
<path d="M127.999 125.068C126.05 125.068 126.054 122.055 127.999 122.055C129.946 122.055 129.944 125.068 127.999 125.068Z" fill="white"/>
<path d="M112.783 134.096C110.836 134.096 110.838 131.083 112.783 131.083C114.731 131.083 114.728 134.096 112.783 134.096Z" fill="white"/>
<path d="M121.65 148.403C121.676 147.807 122.007 147.228 122.642 147.038C122.322 147.468 121.991 147.923 121.65 148.403Z" fill="white"/>
<path d="M123.108 149.986C122.101 149.986 121.615 149.181 121.65 148.403C121.991 147.923 122.322 147.468 122.642 147.038C122.783 146.996 122.938 146.972 123.108 146.972C125.057 146.972 125.053 149.986 123.108 149.986Z" fill="#FAFAFA"/>
<path d="M113.508 179.055C111.56 179.055 111.563 176.041 113.508 176.041C115.455 176.041 115.452 179.055 113.508 179.055Z" fill="#FAFAFA"/>
<path d="M104.813 188.986C102.865 188.986 102.868 185.973 104.813 185.973C106.761 185.973 106.758 188.986 104.813 188.986Z" fill="#FAFAFA"/>
<path d="M102.097 126.693C100.148 126.693 100.151 123.68 102.097 123.68C104.044 123.68 104.042 126.693 102.097 126.693Z" fill="white"/>
<path d="M55.9068 215.812C55.7478 215.812 55.6013 215.791 55.469 215.755C55.2218 215.579 54.9721 215.4 54.7174 215.219C54.1174 214.342 54.5144 212.799 55.9068 212.799C57.8543 212.799 57.851 215.812 55.9068 215.812Z" fill="white"/>
<path d="M55.4691 215.755C55.1387 215.663 54.8881 215.468 54.7175 215.219C54.9722 215.4 55.2219 215.579 55.4691 215.755Z" fill="white"/>
<path d="M40.3282 214.805C38.3798 214.805 38.3832 211.792 40.3282 211.792C42.2766 211.792 42.2732 214.805 40.3282 214.805Z" fill="white"/>
<path d="M48.8414 235.207C46.893 235.207 46.8963 232.195 48.8414 232.195C50.7897 232.195 50.7864 235.207 48.8414 235.207Z" fill="white"/>
<path d="M25.1134 226.541C23.165 226.541 23.1683 223.528 25.1134 223.528C27.0609 223.528 27.0576 226.541 25.1134 226.541Z" fill="white"/>
<path d="M25.6568 208.485C23.7084 208.485 23.7118 205.473 25.6568 205.473C27.6052 205.473 27.6018 208.485 25.6568 208.485Z" fill="white"/>
<path d="M12.252 212.097C10.3044 212.097 10.3069 209.084 12.252 209.084C14.2003 209.084 14.197 212.097 12.252 212.097Z" fill="white"/>
<path d="M13.1583 193.318C11.2099 193.318 11.2132 190.305 13.1583 190.305C15.1066 190.305 15.1033 193.318 13.1583 193.318Z" fill="white"/>
<path d="M12.7954 175.624C11.0168 175.624 10.8645 173.113 12.3318 172.676C12.6464 173.655 13.0676 174.566 13.5711 175.423C13.3614 175.549 13.1025 175.624 12.7954 175.624Z" fill="white"/>
<path d="M13.5711 175.422C13.0675 174.565 12.6464 173.655 12.3318 172.676C12.4716 172.634 12.6264 172.611 12.7954 172.611C14.4366 172.611 14.693 174.748 13.5711 175.422Z" fill="#FBC6CE"/>
<path d="M58.0798 248.028C57.2409 248.028 56.764 247.469 56.6475 246.834C57.5372 247.028 58.4344 247.192 59.3357 247.326C59.1077 247.732 58.6891 248.028 58.0798 248.028Z" fill="white"/>
<path d="M59.3358 247.326C58.4344 247.192 57.5372 247.028 56.6475 246.834C56.4944 245.992 56.9721 245.015 58.0799 245.015C59.4173 245.015 59.8352 246.435 59.3358 247.326Z" fill="#FAFAFA"/>
<path d="M53.5513 258.861C51.603 258.861 51.6063 255.847 53.5513 255.847C55.4997 255.847 55.4964 258.861 53.5513 258.861Z" fill="white"/>
<path d="M77.6874 265.181C77.6724 265.181 77.6575 265.181 77.6425 265.181H77.4619C77.1881 265.18 76.9342 265.111 76.6987 264.975C76.5963 264.897 76.4948 264.818 76.3924 264.739C76.2052 264.552 76.0753 264.329 76.0037 264.074C75.9862 263.941 75.9679 263.808 75.9505 263.674C75.9421 263.467 75.9854 263.272 76.0803 263.094C76.1411 262.907 76.2451 262.746 76.3924 262.609C76.5297 262.462 76.692 262.358 76.8793 262.298C77.0449 262.211 77.223 262.167 77.412 262.167C77.4286 262.167 77.4452 262.167 77.4619 262.167H77.6425C77.9155 262.168 78.1693 262.236 78.4057 262.373C78.5072 262.451 78.6088 262.53 78.7111 262.609C78.8984 262.796 79.0282 263.019 79.0998 263.273C79.1181 263.408 79.1356 263.54 79.1539 263.674C79.1614 263.881 79.1181 264.075 79.0232 264.255C78.9625 264.441 78.8584 264.603 78.7111 264.739C78.5738 264.886 78.4124 264.99 78.2243 265.05C78.0578 265.138 77.8788 265.181 77.6874 265.181Z" fill="white"/>
<path d="M82.3515 248.93C81.6731 248.93 81.2312 248.565 81.0256 248.088C81.8238 248.21 82.6194 248.348 83.4134 248.496C83.1704 248.758 82.8167 248.93 82.3515 248.93Z" fill="white"/>
<path d="M83.4136 248.496C82.6196 248.349 81.824 248.21 81.0258 248.088C80.6413 247.197 81.0849 245.918 82.3516 245.918C83.8348 245.918 84.1868 247.662 83.4136 248.496Z" fill="#FAFAFA"/>
<path d="M100.828 261.93C98.8801 261.93 98.8834 258.917 100.828 258.917C102.777 258.917 102.773 261.93 100.828 261.93Z" fill="white"/>
<path d="M108.073 242.069C106.125 242.069 106.128 239.056 108.073 239.056C110.022 239.056 110.018 242.069 108.073 242.069Z" fill="#FAFAFA"/>
<path d="M125.644 260.305C123.696 260.305 123.699 257.292 125.644 257.292C127.592 257.292 127.589 260.305 125.644 260.305Z" fill="white"/>
<path d="M130.715 240.625C130.034 240.625 129.59 240.255 129.386 239.774C130.176 239.195 130.951 238.596 131.711 237.977C132.571 238.781 132.238 240.625 130.715 240.625Z" fill="white"/>
<path d="M129.386 239.774C129.007 238.883 129.452 237.612 130.715 237.612C131.14 237.612 131.471 237.754 131.711 237.977C130.951 238.596 130.176 239.195 129.386 239.774Z" fill="#FAFAFA"/>
</svg>
