<svg width="470" height="470" viewBox="0 0 470 470" fill="none" xmlns="http://www.w3.org/2000/svg">
<rect width="470" height="470" rx="24" fill="white"/>
<path d="M159.991 327.346C109.063 319.804 84.2241 315.091 53.9409 284.596C29.5886 260.047 20.3033 214.885 27.2319 180.973C34.1605 147.06 72.6921 118.914 107.272 120.116C135.387 121.058 162.01 139.754 189.693 134.75C205.742 131.86 219.356 121.317 230.762 109.668C242.168 98.0178 252.145 84.8911 264.792 74.6003C297.464 47.9935 346.592 44.5999 383.671 64.6866C420.749 84.7733 444.481 126.424 444.991 168.569C445.502 210.714 423.648 252.081 389.767 277.196C389.767 277.196 351.439 319.042 277.016 325.798C206.339 332.24 159.991 327.346 159.991 327.346Z" fill="#F0F3FA"/>
<path d="M6.81494 329.126L10.3211 341.492L344.689 439.007L459.698 362.789V352.386L6.81494 329.126Z" fill="#E2DEE5"/>
<path d="M126.768 273.175L459.698 352.386L344.689 427.755L6.81494 329.126L126.768 273.175Z" fill="#F6F5F7"/>
<path d="M353.355 422.544C352.095 425.329 350.689 428.045 349.144 430.681C347.74 433.397 346.19 436.035 344.5 438.582C347.163 433.077 350.119 427.72 353.355 422.534V422.544Z" fill="#F0F3FA"/>
<path d="M364.344 415.36C363.084 418.145 361.678 420.861 360.133 423.497C358.729 426.214 357.179 428.851 355.489 431.399C358.151 425.893 361.107 420.536 364.344 415.351V415.36Z" fill="#F0F3FA"/>
<path d="M375.333 408.148C374.072 410.933 372.666 413.649 371.121 416.285C369.72 419.003 368.17 421.641 366.478 424.186C369.14 418.681 372.096 413.324 375.333 408.138V408.148Z" fill="#F0F3FA"/>
<path d="M386.34 400.955C385.079 403.739 383.674 406.456 382.129 409.092C380.725 411.808 379.174 414.446 377.485 416.993C380.147 411.488 383.103 406.131 386.34 400.945V400.955Z" fill="#F0F3FA"/>
<path d="M397.31 393.761C396.049 396.546 394.644 399.262 393.098 401.899C391.694 404.615 390.144 407.253 388.455 409.8C389.712 407.01 391.117 404.291 392.666 401.653C394.069 398.939 395.619 396.304 397.31 393.761Z" fill="#F0F3FA"/>
<path d="M408.298 386.559C407.038 389.343 405.632 392.06 404.087 394.696C402.686 397.414 401.136 400.051 399.444 402.597C402.106 397.092 405.062 391.735 408.298 386.549V386.559Z" fill="#F0F3FA"/>
<path d="M419.287 379.365C418.026 382.15 416.621 384.866 415.076 387.503C413.672 390.219 412.121 392.857 410.432 395.404C413.094 389.899 416.05 384.541 419.287 379.356V379.365Z" fill="#F0F3FA"/>
<path d="M430.275 372.172C429.01 374.955 427.605 377.671 426.064 380.309C424.662 383.023 423.111 385.658 421.421 388.201C422.677 385.414 424.082 382.698 425.632 380.064C427.035 377.35 428.585 374.715 430.275 372.172Z" fill="#F0F3FA"/>
<path d="M441.264 364.969C440.004 367.754 438.598 370.47 437.053 373.107C435.649 375.823 434.099 378.461 432.409 381.008C435.072 375.503 438.028 370.145 441.264 364.96V364.969Z" fill="#F0F3FA"/>
<path d="M452.253 357.776C450.992 360.561 449.587 363.277 448.042 365.913C446.638 368.633 445.088 371.274 443.398 373.824C444.655 371.034 446.061 368.315 447.609 365.677C449.012 362.96 450.562 360.322 452.253 357.776Z" fill="#F0F3FA"/>
<path d="M459.707 356.983C459.036 358.697 458.218 360.348 457.263 361.92C456.444 363.575 455.482 365.155 454.386 366.64C455.053 364.925 455.871 363.272 456.83 361.703C457.642 360.044 458.605 358.464 459.707 356.983Z" fill="#F0F3FA"/>
<path d="M341.746 438.016C341.043 437.446 340.392 436.814 339.801 436.128C338.644 434.891 337.103 433.136 335.477 431.144C333.85 429.152 332.431 427.292 331.444 425.923C330.87 425.214 330.37 424.449 329.949 423.639C330.593 424.282 331.184 424.977 331.717 425.716L335.853 430.832L340.054 435.892C340.674 436.553 341.24 437.264 341.746 438.016Z" fill="#F0F3FA"/>
<path d="M326.246 433.541C325.537 432.978 324.885 432.346 324.3 431.653C323.144 430.417 321.602 428.67 319.976 426.679C318.35 424.687 316.93 422.827 315.943 421.458C315.371 420.745 314.87 419.977 314.449 419.164C315.09 419.81 315.68 420.505 316.216 421.241L320.352 426.367C321.941 428.255 323.379 430.001 324.554 431.427C325.174 432.084 325.74 432.791 326.246 433.541Z" fill="#F0F3FA"/>
<path d="M310.745 429.114C310.036 428.551 309.384 427.918 308.799 427.226C307.643 425.989 306.102 424.243 304.475 422.251C302.849 420.259 301.43 418.4 300.443 417.031C299.868 416.32 299.367 415.551 298.948 414.737C299.592 415.38 300.183 416.075 300.715 416.814L304.851 421.94L309.053 426.999C309.671 427.659 310.237 428.366 310.745 429.114Z" fill="#F0F3FA"/>
<path d="M295.244 424.696C294.538 424.13 293.887 423.498 293.299 422.808C292.142 421.572 290.601 419.816 288.975 417.824C287.349 415.832 285.929 413.972 284.942 412.604C284.368 411.895 283.868 411.129 283.448 410.319C284.094 410.96 284.685 411.654 285.215 412.396L289.351 417.512L293.552 422.572C294.176 423.23 294.742 423.941 295.244 424.696Z" fill="#F0F3FA"/>
<path d="M279.744 420.269C279.035 419.706 278.383 419.073 277.798 418.381C276.642 417.144 275.1 415.398 273.474 413.406C271.848 411.414 270.428 409.554 269.441 408.186C268.869 407.473 268.368 406.704 267.947 405.892C268.591 406.535 269.182 407.229 269.714 407.968L273.85 413.094C275.439 414.982 276.877 416.729 278.052 418.154C278.676 418.808 279.242 419.516 279.744 420.269Z" fill="#F0F3FA"/>
<path d="M264.243 415.841C263.534 415.278 262.882 414.646 262.297 413.953C261.141 412.717 259.6 410.97 257.973 408.979C256.347 406.987 254.928 405.127 253.941 403.758C253.366 403.047 252.865 402.278 252.446 401.464C253.091 402.11 253.683 402.808 254.213 403.551L258.349 408.667L262.551 413.727C263.173 414.383 263.739 415.09 264.243 415.841Z" fill="#F0F3FA"/>
<path d="M248.743 411.424C248.034 410.86 247.382 410.228 246.797 409.536C245.641 408.299 244.099 406.552 242.473 404.551C240.847 402.55 239.427 400.7 238.44 399.331C237.867 398.622 237.366 397.857 236.946 397.046C237.593 397.687 238.184 398.382 238.713 399.123L242.849 404.24L247.051 409.3C247.674 409.958 248.24 410.668 248.743 411.424Z" fill="#F0F3FA"/>
<path d="M233.242 406.118C232.533 405.555 231.881 404.923 231.296 404.23C230.149 402.994 228.598 401.247 226.972 399.255C225.346 397.264 223.927 395.404 222.94 394.035C222.364 393.324 221.864 392.555 221.445 391.741C222.089 392.384 222.68 393.079 223.212 393.818L227.348 398.944L231.55 404.004C232.172 404.66 232.738 405.367 233.242 406.118Z" fill="#F0F3FA"/>
<path d="M215.993 401.304C215.28 400.743 214.624 400.11 214.038 399.416C212.891 398.179 211.35 396.433 209.714 394.441C208.078 392.449 206.668 390.589 205.691 389.221C205.122 388.503 204.618 387.735 204.187 386.927C204.836 387.568 205.43 388.263 205.963 389.004L210.09 394.129C211.688 396.017 213.126 397.773 214.301 399.189C214.922 399.846 215.488 400.554 215.993 401.304Z" fill="#F0F3FA"/>
<path d="M198.735 396.48C198.026 395.917 197.374 395.284 196.789 394.592C195.633 393.355 194.091 391.609 192.465 389.617C190.839 387.625 189.419 385.766 188.432 384.387C187.859 383.678 187.358 382.913 186.938 382.103C187.585 382.743 188.176 383.438 188.705 384.18C189.861 385.615 191.281 387.361 192.841 389.306L197.043 394.356C197.666 395.014 198.232 395.725 198.735 396.48Z" fill="#F0F3FA"/>
<path d="M181.42 390.892C180.711 390.328 180.059 389.696 179.474 389.004C178.327 387.767 176.776 386.02 175.15 384.029C173.524 382.037 172.02 380.149 171.08 378.78C170.507 378.067 170.007 377.299 169.585 376.486C170.229 377.129 170.82 377.824 171.353 378.563L175.489 383.689L179.69 388.749C180.326 389.412 180.905 390.129 181.42 390.892Z" fill="#F0F3FA"/>
<path d="M164.011 386.011C163.302 385.448 162.65 384.815 162.065 384.123C160.919 382.886 159.368 381.14 157.741 379.148C156.115 377.156 154.696 375.297 153.709 373.928C153.136 373.215 152.635 372.446 152.214 371.634C152.858 372.277 153.449 372.972 153.981 373.711C155.147 375.146 156.557 376.901 158.117 378.837L162.329 383.896C162.949 384.551 163.512 385.259 164.011 386.011Z" fill="#F0F3FA"/>
<path d="M146.546 380.885C145.837 380.322 145.185 379.689 144.6 378.997C143.444 377.76 141.902 376.014 140.267 374.022C138.631 372.03 137.231 370.171 136.244 368.792C135.674 368.079 135.17 367.314 134.74 366.508C135.391 367.146 135.986 367.841 136.516 368.585L140.652 373.711L144.854 378.761C145.474 379.422 146.04 380.133 146.546 380.885Z" fill="#F0F3FA"/>
<path d="M129.72 376.137C129.011 375.574 128.359 374.941 127.774 374.249C126.618 373.012 125.076 371.266 123.45 369.274C121.824 367.282 120.404 365.422 119.417 364.044C118.844 363.335 118.343 362.57 117.923 361.76C118.566 362.403 119.157 363.098 119.69 363.836C120.846 365.271 122.266 367.018 123.826 368.962L128.028 374.013C128.648 374.674 129.213 375.384 129.72 376.137Z" fill="#F0F3FA"/>
<path d="M112.462 371.606C111.752 371.042 111.101 370.41 110.516 369.718C109.369 368.481 107.827 366.735 106.192 364.743C104.556 362.751 103.146 360.891 102.159 359.513C101.59 358.801 101.089 358.036 100.665 357.229C101.313 357.87 101.908 358.564 102.441 359.305L106.568 364.431L110.779 369.491C111.402 370.143 111.966 370.851 112.462 371.606Z" fill="#F0F3FA"/>
<path d="M97.2994 366.527C96.5903 365.964 95.9386 365.331 95.3536 364.639C94.2068 363.402 92.6652 361.656 91.0296 359.664C89.394 357.672 87.984 355.812 86.997 354.434C86.4386 353.709 85.9507 352.931 85.54 352.112C86.1919 352.75 86.7864 353.445 87.3166 354.189L91.4432 359.315L95.6544 364.365C96.2658 365.035 96.8163 365.759 97.2994 366.527Z" fill="#F0F3FA"/>
<path d="M82.1371 361.448C81.4306 360.882 80.779 360.25 80.1913 359.56C79.0445 358.324 77.5029 356.577 75.8673 354.576C74.2317 352.575 72.8217 350.724 71.8347 349.356C71.2652 348.644 70.7648 347.879 70.3401 347.071C70.9919 347.71 71.5864 348.404 72.1167 349.148L76.2433 354.264L80.4545 359.324C81.077 359.981 81.6401 360.691 82.1371 361.448Z" fill="#F0F3FA"/>
<path d="M68.3944 357.672C67.6853 357.109 67.0335 356.477 66.4486 355.784C65.2924 354.548 63.7508 352.801 62.1246 350.809C60.4984 348.817 59.079 346.958 58.092 345.58C57.5184 344.871 57.0176 344.105 56.5974 343.295C57.241 343.939 57.832 344.633 58.3646 345.372L62.5006 350.488L66.74 355.52C67.348 356.192 67.9013 356.911 68.3944 357.672Z" fill="#F0F3FA"/>
<path d="M52.64 353.349C51.9309 352.785 51.2791 352.153 50.6942 351.461C49.538 350.224 47.9964 348.478 46.3702 346.476C44.744 344.475 43.3246 342.625 42.3376 341.256C41.764 340.547 41.2632 339.782 40.843 338.971C41.4898 339.612 42.081 340.307 42.6102 341.048L46.7462 346.165L50.948 351.168C51.574 351.844 52.1401 352.574 52.64 353.349Z" fill="#F0F3FA"/>
<path d="M38.3049 349.167C37.5962 348.6 36.9416 347.968 36.3497 347.279C35.2029 346.052 33.6613 344.296 32.0257 342.304C30.3901 340.312 28.9801 338.452 28.0025 337.083C27.4284 336.37 26.9247 335.601 26.4985 334.79C27.1487 335.433 27.743 336.131 28.2751 336.876L32.4017 341.992L36.6599 347.014C37.2647 347.687 37.8148 348.406 38.3049 349.167Z" fill="#F0F3FA"/>
<path d="M22.0994 344.088C21.3952 343.519 20.7439 342.887 20.1536 342.2C18.9974 340.963 17.4558 339.217 15.8202 337.225C14.1846 335.233 12.784 333.374 11.797 332.005C11.2254 331.289 10.7219 330.521 10.293 329.711C10.9431 330.354 11.5375 331.052 12.0696 331.797L16.2056 336.914L20.4074 341.973C21.0268 342.632 21.5926 343.339 22.0994 344.088Z" fill="#F0F3FA"/>
<path d="M75.7264 336.829C74.2202 336.189 72.9177 335.147 71.961 333.815C71.0044 332.483 70.4302 330.913 70.3013 329.276C70.1723 327.639 70.4934 325.997 71.2296 324.531C71.9658 323.065 73.0888 321.829 74.4762 320.96C79.0126 318.229 84.127 316.611 89.4034 316.24C95.1005 315.708 100.834 316.76 105.976 319.28C112.452 322.452 112.612 332.769 105.299 336.375C94.799 341.501 85.9254 341.218 75.7264 336.829Z" fill="#263238"/>
<path d="M86.5741 210.002L87.5141 209.898L90.5879 209.606H90.6537V209.672C90.9357 222.048 91.6501 266.727 92.4115 319.884C92.4115 319.997 92.4115 320.11 92.4115 320.205V320.441H92.1859L88.7361 320.724H88.4823V320.469L87.0441 242.117C86.8749 232.167 86.7433 224.124 86.6493 218.517C86.6493 215.761 86.5835 213.618 86.5647 212.145C86.5647 211.437 86.5647 210.89 86.5647 210.503C86.5647 210.116 86.5647 209.946 86.5647 209.946C86.5647 209.946 86.5647 210.153 86.5647 210.531C86.5647 210.908 86.5647 211.475 86.6211 212.211C86.6211 213.693 86.7057 215.855 86.7809 218.64C86.9031 224.219 87.0911 232.281 87.3167 242.24C87.7773 262.243 88.3601 289.808 88.9899 320.497L88.7267 320.252L92.1671 319.969L91.9415 320.214V319.893C91.1801 266.737 90.6255 222.048 90.5503 209.672L90.6161 209.728L87.5705 209.946L86.5741 210.002Z" fill="#263238"/>
<path d="M79.8999 220.462L80.3887 220.122L81.9021 219.102L87.7677 215.232L109.388 200.883L181.363 153.306L181.58 153.164L181.711 153.381L183.892 156.912L184.118 157.28L184.24 157.488L184.042 157.62C134.298 189.895 92.6275 216.827 81.8363 223.7L81.7799 223.728V223.681L80.3793 221.245C80.0785 220.726 79.9563 220.471 79.9563 220.471C79.9563 220.471 80.1255 220.736 80.4357 221.255C80.7459 221.774 81.2347 222.557 81.8739 223.624H81.7987C92.4771 216.563 134.063 189.489 183.798 157.214L183.723 157.554C183.655 157.427 183.579 157.304 183.497 157.185C182.755 155.968 182.012 154.769 181.316 153.645L181.664 153.721L109.698 201.006L87.9463 215.232L82.0243 219.102L80.4733 220.103C80.1161 220.358 79.8999 220.462 79.8999 220.462Z" fill="#263238"/>
<path d="M93.4359 217.998C93.4707 219.039 93.1972 220.068 92.6499 220.953C92.1026 221.838 91.3062 222.54 90.3614 222.971C89.4166 223.402 88.3658 223.541 87.342 223.372C86.3182 223.203 85.3674 222.733 84.6098 222.021C83.8522 221.309 83.3219 220.387 83.0859 219.372C82.85 218.358 82.919 217.296 83.2842 216.32C83.6494 215.345 84.2944 214.5 85.1377 213.893C85.9809 213.286 86.9845 212.944 88.0215 212.91C89.4113 212.864 90.7623 213.374 91.7776 214.328C92.7928 215.282 93.3894 216.602 93.4359 217.998Z" fill="#263238"/>
<path d="M177.566 161.764C177.566 161.764 164.998 168.929 173.703 199.09C173.703 199.09 208.041 198.655 220.881 178.964C220.881 178.964 208.661 153.315 193.198 155.845L177.566 161.764Z" fill="#FF6F47"/>
<path d="M177.961 156.411L175.207 149.152C174.916 148.388 174.788 147.572 174.833 146.755C174.877 145.939 175.092 145.141 175.463 144.414C175.835 143.686 176.354 143.045 176.989 142.533C177.623 142.021 178.358 141.648 179.145 141.44C180.526 141.07 181.995 141.225 183.27 141.874C184.544 142.524 185.536 143.623 186.054 144.961L189.137 152.947L177.961 156.411Z" fill="#FF6F47"/>
<path d="M177.566 161.764L177.782 155.958L188.536 151.399L193.198 155.845L177.566 161.764Z" fill="#263238"/>
<path d="M109.698 322.678C109.723 322.85 109.723 323.025 109.698 323.197C109.669 323.698 109.606 324.196 109.51 324.689C109.137 326.506 108.356 328.214 107.226 329.683C105.509 331.834 103.268 333.505 100.721 334.535C97.6209 335.783 94.3218 336.457 90.9826 336.527C89.2154 336.602 87.4858 336.527 85.822 336.479C84.2196 336.408 82.6241 336.225 81.0468 335.932C78.3254 335.507 75.7833 334.304 73.7242 332.467C72.343 331.206 71.3622 329.565 70.9042 327.747C70.7986 327.257 70.742 326.757 70.735 326.256C70.7192 326.083 70.7192 325.909 70.735 325.737C70.8033 326.397 70.91 327.052 71.0546 327.7C71.5535 329.438 72.5311 330.999 73.8746 332.203C75.9113 333.95 78.397 335.085 81.0468 335.479C82.6003 335.755 84.1705 335.925 85.7468 335.988C87.3918 336.073 89.112 336.102 90.851 335.988C94.133 335.933 97.3791 335.293 100.439 334.1C102.936 333.123 105.142 331.521 106.85 329.447C107.978 328.03 108.787 326.384 109.219 324.623C109.613 323.396 109.642 322.678 109.698 322.678Z" fill="#455A64"/>
<path d="M215.58 172.752C215.485 172.888 215.375 173.011 215.251 173.12L214.254 174.064C213.822 174.489 213.314 175.008 212.619 175.556C211.923 176.103 211.237 176.773 210.363 177.444C209.488 178.114 208.577 178.841 207.543 179.568C206.509 180.295 205.352 181.04 204.149 181.814C201.484 183.426 198.721 184.87 195.877 186.138C193.013 187.365 190.074 188.409 187.079 189.263C185.688 189.621 184.381 189.989 183.121 190.207C181.862 190.424 180.706 190.679 179.634 190.848C178.562 191.018 177.594 191.132 176.739 191.226C175.883 191.321 175.141 191.387 174.539 191.415L173.148 191.481C172.986 191.504 172.821 191.504 172.659 191.481C172.814 191.429 172.975 191.4 173.139 191.396L174.52 191.236C175.122 191.179 175.855 191.103 176.701 190.962C177.547 190.82 178.525 190.735 179.578 190.518C180.63 190.301 181.805 190.122 183.037 189.82C184.268 189.517 185.584 189.187 186.957 188.819C192.894 187.104 198.582 184.616 203.877 181.418C205.08 180.653 206.245 179.955 207.279 179.218C208.313 178.482 209.282 177.812 210.099 177.16C210.917 176.509 211.716 175.886 212.384 175.348C213.051 174.81 213.624 174.338 214.076 173.932L215.128 172.988C215.267 172.888 215.419 172.809 215.58 172.752Z" fill="#F0F3FA"/>
<path d="M291.72 411.952C294.802 411.913 297.83 411.136 300.554 409.686C303.277 408.237 305.617 406.156 307.38 403.617C308.969 401.294 310.2 398.481 312.625 397.122C316.601 394.932 321.339 397.603 325.409 399.595C333.775 403.683 344.087 404.872 352.275 400.435C356.505 398.141 359.992 394.479 364.495 392.883C368.612 391.411 373.133 391.807 377.485 392.26C381.837 392.713 386.321 393.204 390.504 391.911C394.687 390.618 398.494 387.031 398.598 382.641C398.682 378.582 395.571 375.004 391.867 373.38C388.164 371.757 383.99 371.738 379.967 371.927C357.473 372.993 335.392 380.111 312.898 379.11C308.508 378.912 303.742 378.487 300.048 380.885C295.217 384 294.145 390.552 293.976 396.319C293.806 402.087 293.872 408.422 290.169 412.83" fill="#E2DEE6"/>
<path d="M290.742 358.116C289.959 359.457 289.262 360.848 288.655 362.279C287.772 365.262 284.529 375.873 288.655 381.414C293.355 387.673 319.675 387.503 321.79 387.474H322.053L360.349 384.756C360.753 384.73 361.151 384.65 361.533 384.52L394.387 373.192C395.183 372.916 395.89 372.43 396.436 371.785C396.832 371.307 397.13 370.754 397.313 370.16C397.495 369.565 397.559 368.94 397.501 368.321C397.442 367.702 397.263 367.1 396.972 366.551C396.681 366.001 396.285 365.515 395.806 365.12L371.216 345.117C370.71 344.7 370.12 344.4 369.486 344.239C353.894 340.363 337.669 339.797 321.847 342.578C306.327 345.438 298.525 347.685 290.742 358.116Z" fill="#FF6F47"/>
<path d="M393.099 372.455C392.157 373.136 391.51 374.152 391.29 375.296C391.07 376.441 391.293 377.626 391.914 378.61C393.456 380.857 396.906 381.14 399.218 379.715C401.531 378.289 402.837 375.618 403.373 372.937C403.74 371.049 403.693 368.84 402.283 367.546C401.235 366.754 399.973 366.3 398.664 366.244C395.005 365.753 391.319 365.498 387.628 365.479" fill="#FF6F47"/>
<g opacity="0.3">
<path opacity="0.3" d="M381.255 366.593C383.811 367.537 389.282 369.198 391.989 369.283C393.347 369.384 394.709 369.177 395.976 368.679C397.244 368.181 398.384 367.403 399.312 366.404C399.567 366.023 399.885 365.688 400.252 365.413C400.434 365.273 400.657 365.197 400.887 365.197C401.116 365.197 401.339 365.273 401.521 365.413C401.944 365.819 401.747 366.527 401.521 367.056C400.724 368.549 399.551 369.807 398.12 370.705C396.688 371.602 395.048 372.108 393.362 372.172C389.997 372.257 383.022 369.5 381.302 366.584" fill="#263238"/>
</g>
<path d="M381.762 335.422C381.762 335.422 366.271 337.631 370.548 354.585C374.825 371.54 391.961 370.784 394.988 370.341C395.972 370.141 396.912 369.764 397.761 369.227C400.047 367.853 401.981 365.959 403.406 363.698C404.831 361.437 405.709 358.872 405.967 356.209L406.061 355.388L415.076 346.892C415.076 346.892 412.472 345.466 403.232 346.524L391.952 337.81C391.952 337.81 393.258 327.247 391.886 326.482C390.514 325.718 381.762 335.422 381.762 335.422Z" fill="#FF6F47"/>
<path d="M288.42 364.62C285.6 369.576 286.662 375.721 287.715 381.319C288.768 386.917 289.661 393.119 286.681 397.962C285.554 399.748 283.975 401.2 282.105 402.172C280.236 403.144 278.143 403.6 276.041 403.494C272.45 403.267 269.207 401.417 265.87 400.077C262.533 398.736 258.585 397.934 255.464 399.727C252.136 401.615 250.858 406.109 251.911 409.809C252.963 413.51 255.943 416.417 259.299 418.239C266.359 422.091 275.279 421.713 282.432 417.947C289.586 414.18 294.775 407.327 297.332 399.68C299.888 392.034 299.917 383.679 298.225 375.797" fill="#FF6F47"/>
<path d="M387.816 351.857L388.145 356.511L391.905 355.01C391.905 355.01 390.542 352.159 387.816 351.857Z" fill="#263238"/>
<path d="M339.02 386.502C340.289 385.997 341.396 385.154 342.224 384.065C343.052 382.976 343.569 381.681 343.72 380.319C343.988 377.564 343.231 374.806 341.596 372.578C339.783 370.06 337.24 368.164 334.314 367.151C331.389 366.137 328.223 366.054 325.249 366.914C324.14 367.263 322.946 367.858 322.683 369.01C322.605 369.473 322.651 369.949 322.816 370.388C322.982 370.828 323.26 371.215 323.623 371.511C324.358 372.095 325.172 372.571 326.039 372.927C328.992 374.416 331.581 376.542 333.621 379.153C335.66 381.764 337.1 384.796 337.836 388.031" fill="#E86541"/>
<path d="M318.369 365.555C321.28 365.056 324.268 365.275 327.076 366.192C329.884 367.109 332.429 368.697 334.492 370.82C336.554 372.942 338.073 375.535 338.917 378.377C339.762 381.219 339.907 384.224 339.34 387.134C341.718 387.88 344.285 387.314 346.729 386.861C349.173 386.408 351.861 386.105 354.051 387.295C356.241 388.484 357.426 391.76 355.706 393.563C354.722 394.392 353.507 394.897 352.228 395.007C345.309 396.32 338.128 397.632 331.303 395.951C327.233 394.941 323.511 392.902 319.835 390.892C315.756 388.664 316.122 389.485 312.052 387.257" fill="#FF6F47"/>
<path d="M384.592 375.882L380.832 374.938C379.05 374.605 377.327 374.011 375.718 373.173C374.915 372.749 374.211 372.157 373.655 371.438C373.099 370.718 372.703 369.887 372.494 369C372.231 367.499 372.945 365.696 374.374 365.309C375.539 364.998 376.714 365.64 377.748 366.253C380.681 367.99 383.608 369.733 386.528 371.483C387.21 371.796 387.776 372.318 388.145 372.974C388.31 373.449 388.318 373.965 388.167 374.445C388.016 374.925 387.715 375.343 387.308 375.637C386.48 376.206 385.491 376.493 384.488 376.458" fill="#E86541"/>
<path d="M356.89 371.058C357.06 373.095 357.666 375.07 358.665 376.851C359.664 378.631 361.034 380.175 362.68 381.376C366.014 383.77 370.022 385.034 374.12 384.982C378.181 384.982 382.364 384.038 386.237 385.227C388.746 386.02 390.937 387.701 393.381 388.569C395.825 389.438 399.115 389.192 400.487 386.946C401.756 384.878 400.778 382.027 398.955 380.441C397.131 378.856 394.697 378.214 392.375 377.609L381.64 374.919C379.398 374.511 377.262 373.65 375.361 372.389C373.565 371.001 372.343 368.613 373.03 366.414" fill="#FF6F47"/>
<path d="M392.412 359.315C391.795 359.594 391.097 359.641 390.448 359.447C389.709 359.306 389.034 358.933 388.521 358.38C388.197 358.018 388.026 357.545 388.041 357.059C388.052 356.786 388.139 356.522 388.292 356.297C388.445 356.071 388.658 355.894 388.906 355.784L389.104 356.228C389.01 356.228 388.916 356.322 388.803 356.36C387.89 356.706 386.879 356.683 385.983 356.294C385.26 355.971 384.667 355.412 384.3 354.708C384.111 354.406 383.986 354.068 383.934 353.716C383.882 353.363 383.905 353.003 383.999 352.659C384.092 353.319 384.295 353.957 384.601 354.547C384.965 355.146 385.508 355.615 386.152 355.888C386.943 356.2 387.823 356.2 388.615 355.888L388.878 355.784L389.066 356.228C388.904 356.307 388.767 356.429 388.67 356.58C388.572 356.731 388.517 356.907 388.511 357.087C388.492 357.45 388.617 357.807 388.859 358.078C389.302 358.579 389.88 358.94 390.523 359.116C391.144 359.248 391.777 359.315 392.412 359.315Z" fill="#263238"/>
<path d="M400.544 358.72C400.544 358.777 400.233 358.994 399.604 359.135C398.786 359.316 397.935 359.257 397.15 358.965C396.364 358.668 395.687 358.134 395.214 357.436C394.866 356.898 394.81 356.492 394.857 356.492C394.904 356.492 395.11 356.804 395.496 357.238C395.99 357.809 396.616 358.25 397.319 358.522C398.369 358.812 399.467 358.88 400.544 358.72Z" fill="#263238"/>
<path d="M370.727 337.206C370.727 337.206 373.763 340.595 377.419 344.853C381.076 349.11 383.999 352.593 383.999 352.631C383.999 352.669 380.963 349.242 377.307 344.985C373.65 340.727 370.68 337.244 370.727 337.206Z" fill="#263238"/>
<path d="M374.919 332.109C374.919 332.109 377.062 336.338 379.619 341.615C382.176 346.892 384.159 351.196 384.112 351.215C384.065 351.234 381.969 346.986 379.412 341.7C376.855 336.413 374.872 332.128 374.919 332.109Z" fill="#263238"/>
<path d="M355.668 393.818C355.601 393.433 355.484 393.058 355.32 392.704C354.849 391.884 354.092 391.269 353.196 390.976C352.282 390.703 351.325 390.607 350.376 390.693C349.652 390.693 349.201 390.788 349.191 390.759C349.182 390.731 349.304 390.712 349.501 390.674C349.699 390.637 350 390.589 350.366 390.552C351.328 390.422 352.306 390.502 353.233 390.788C353.702 390.943 354.136 391.19 354.511 391.514C354.885 391.838 355.192 392.233 355.414 392.676C355.543 392.943 355.626 393.23 355.658 393.525C355.674 393.622 355.677 393.72 355.668 393.818Z" fill="#263238"/>
<path d="M356.081 390.504C356.081 390.504 355.94 390.099 355.574 389.56C355.098 388.826 354.394 388.271 353.57 387.983C352.747 387.694 351.851 387.688 351.024 387.965C350.394 388.173 350.084 388.437 350.028 388.409C350.096 388.332 350.175 388.265 350.263 388.211C350.485 388.057 350.725 387.93 350.977 387.833C351.838 387.525 352.777 387.525 353.637 387.833C354.496 388.139 355.22 388.737 355.687 389.523C355.829 389.757 355.943 390.007 356.025 390.268C356.056 390.344 356.075 390.423 356.081 390.504Z" fill="#263238"/>
<path d="M299.465 366.838C298.856 367.565 298.416 368.42 298.178 369.34C297.931 370.339 297.857 371.374 297.961 372.399C298.111 373.651 298.379 374.887 298.76 376.09C299.136 377.383 299.512 378.62 299.7 379.771C299.913 380.795 299.979 381.844 299.898 382.886C299.84 383.587 299.675 384.275 299.409 384.925C299.314 385.164 299.194 385.392 299.052 385.605C299.052 385.605 299.164 385.36 299.334 384.897C299.571 384.248 299.714 383.567 299.757 382.877C299.819 381.848 299.74 380.816 299.522 379.809C299.305 378.667 298.92 377.44 298.582 376.146C298.193 374.917 297.929 373.652 297.792 372.37C297.697 371.327 297.786 370.276 298.055 369.264C298.248 368.582 298.567 367.941 298.995 367.376C299.132 367.18 299.289 367 299.465 366.838Z" fill="#263238"/>
<path d="M359.306 365.687C359.314 365.756 359.314 365.825 359.306 365.894C359.306 366.074 359.259 366.263 359.23 366.461C359.142 367.156 359.095 367.856 359.089 368.557C359.08 369.599 359.156 370.641 359.315 371.672C359.516 372.925 359.83 374.158 360.255 375.353C360.712 376.54 361.279 377.68 361.947 378.761C362.503 379.641 363.132 380.471 363.827 381.244C364.29 381.769 364.786 382.264 365.312 382.726L365.745 383.104L365.886 383.255C365.102 382.702 364.377 382.069 363.724 381.367C363.009 380.602 362.364 379.774 361.797 378.893C361.114 377.802 360.535 376.648 360.067 375.448C359.637 374.241 359.323 372.995 359.127 371.728C358.972 370.688 358.912 369.636 358.948 368.585C358.961 367.609 359.08 366.637 359.306 365.687Z" fill="#263238"/>
<path d="M389.978 377.137C389.978 377.137 389.696 377.024 389.17 376.835C388.433 376.564 387.679 376.34 386.914 376.165C384.987 375.655 382.214 375.419 379.3 374.447C377.924 374.002 376.647 373.293 375.54 372.361C374.648 371.572 373.955 370.582 373.519 369.472C373.22 368.73 373.086 367.931 373.124 367.131C373.135 366.839 373.185 366.55 373.274 366.272C373.103 367.338 373.234 368.43 373.65 369.425C374.094 370.512 374.782 371.482 375.662 372.257C376.755 373.171 378.012 373.866 379.365 374.305C382.251 375.249 385.005 375.523 386.951 376.071C387.719 376.259 388.473 376.502 389.207 376.798C389.471 376.894 389.729 377.007 389.978 377.137Z" fill="#263238"/>
<path d="M399.5 388.399C399.5 388.399 399.284 388.05 398.889 387.54C397.853 386.19 396.403 385.221 394.762 384.784C394.142 384.614 393.738 384.567 393.738 384.538C393.738 384.51 393.841 384.538 394.029 384.538C394.288 384.558 394.546 384.596 394.8 384.652C395.641 384.842 396.441 385.184 397.159 385.662C397.893 386.14 398.53 386.751 399.039 387.465C399.188 387.678 399.32 387.902 399.434 388.135C399.444 388.296 399.5 388.39 399.5 388.399Z" fill="#263238"/>
<path d="M401.484 385.501C401.484 385.501 401.343 385.133 401.014 384.604C400.593 383.915 399.984 383.362 399.259 383.011C398.534 382.659 397.724 382.524 396.925 382.622C396.304 382.688 395.985 382.849 395.928 382.811C396.001 382.753 396.084 382.708 396.173 382.679C396.41 382.589 396.656 382.523 396.906 382.48C397.734 382.342 398.584 382.464 399.34 382.83C400.099 383.201 400.726 383.797 401.136 384.538C401.258 384.756 401.356 384.988 401.427 385.228C401.459 385.315 401.478 385.408 401.484 385.501Z" fill="#263238"/>
<path d="M398.767 371.87C398.225 371.756 397.675 371.687 397.122 371.662C395.779 371.637 394.462 372.04 393.362 372.814C392.751 373.212 392.232 373.737 391.839 374.353C391.538 374.866 391.352 375.44 391.294 376.033C391.267 376.588 391.292 377.144 391.369 377.694C391.177 377.16 391.103 376.59 391.153 376.023C391.194 375.405 391.378 374.804 391.689 374.268C392.085 373.622 392.618 373.071 393.249 372.653C394.374 371.859 395.729 371.461 397.103 371.521C397.514 371.539 397.92 371.606 398.316 371.719C398.473 371.746 398.625 371.797 398.767 371.87Z" fill="#263238"/>
<path d="M397.695 374.56C397.517 374.796 397.276 374.976 397 375.08C396.676 375.225 396.326 375.305 395.971 375.315C395.616 375.325 395.263 375.264 394.932 375.136C394.605 374.996 394.31 374.792 394.063 374.536C393.816 374.28 393.622 373.977 393.493 373.645C393.366 373.378 393.317 373.08 393.352 372.786C393.427 373.057 393.515 373.325 393.616 373.588C393.887 374.206 394.387 374.693 395.01 374.947C395.633 375.201 396.33 375.201 396.953 374.947C397.432 374.768 397.676 374.532 397.695 374.56Z" fill="#263238"/>
<path d="M397.009 376.883C396.765 377.094 396.475 377.245 396.163 377.326C395.419 377.565 394.622 377.581 393.869 377.373C393.121 377.158 392.449 376.733 391.933 376.146C391.713 375.909 391.544 375.63 391.435 375.325C391.435 375.325 391.642 375.636 392.036 376.052C392.557 376.584 393.204 376.974 393.916 377.185C394.637 377.38 395.396 377.38 396.116 377.185C396.68 377.043 396.99 376.854 397.009 376.883Z" fill="#263238"/>
<path d="M400.92 383.113C400.608 382.545 400.215 382.027 399.754 381.574C398.559 380.576 397.197 379.799 395.731 379.28C394.029 378.61 392.45 378.081 391.322 377.676L389.987 377.194C389.819 377.142 389.655 377.076 389.499 376.996C389.671 377.019 389.842 377.06 390.006 377.119L391.369 377.543C392.507 377.912 394.086 378.431 395.797 379.101C397.292 379.619 398.672 380.427 399.857 381.48C400.2 381.817 400.489 382.205 400.713 382.632C400.8 382.783 400.869 382.945 400.92 383.113Z" fill="#263238"/>
<path d="M387.487 368.83C386.53 368.358 385.626 367.786 384.789 367.122C382.617 365.444 380.825 363.319 379.535 360.891L379.713 360.825C380.11 362.342 380.821 363.757 381.8 364.979L382.129 365.375L381.678 365.12L381.142 364.809C377.699 362.795 374.996 359.72 373.434 356.039C372.959 354.937 372.6 353.789 372.362 352.612C372.212 351.772 372.174 351.31 372.174 351.31C372.174 351.31 372.174 351.423 372.25 351.64C372.325 351.857 372.334 352.188 372.438 352.584C372.704 353.746 373.079 354.881 373.556 355.973C375.142 359.6 377.83 362.631 381.236 364.629L381.772 364.941L381.65 365.092C380.654 363.849 379.933 362.407 379.535 360.863L379.328 360.089L379.704 360.797C380.975 363.205 382.729 365.323 384.855 367.018C385.458 367.503 386.086 367.956 386.735 368.377L387.271 368.698L387.487 368.83Z" fill="#263238"/>
<path d="M339.547 361.684C339.421 361.661 339.298 361.623 339.18 361.571C338.945 361.486 338.616 361.344 338.24 361.156C337.192 360.658 336.2 360.051 335.279 359.343C334.359 358.637 333.515 357.837 332.76 356.955C332.529 356.69 332.313 356.412 332.111 356.124C331.961 355.926 331.886 355.812 331.905 355.803C331.923 355.794 332.262 356.218 332.845 356.86C333.621 357.71 334.471 358.491 335.383 359.192C336.295 359.886 337.263 360.502 338.278 361.033C339.058 361.439 339.556 361.656 339.547 361.684Z" fill="#263238"/>
<path d="M339.547 360.4C338.751 359.857 337.997 359.254 337.291 358.597C336.537 357.994 335.824 357.341 335.157 356.643C335.95 357.19 336.704 357.793 337.413 358.446C338.164 359.052 338.877 359.705 339.547 360.4Z" fill="#263238"/>
<path d="M341.352 359.909C340.778 359.688 340.247 359.369 339.782 358.965C339.283 358.597 338.856 358.139 338.522 357.616C338.522 357.616 339.124 358.172 339.913 358.814C340.703 359.456 341.38 359.862 341.352 359.909Z" fill="#263238"/>
<g opacity="0.3">
<path opacity="0.3" d="M340.722 340.784C343.542 340.727 341.587 345.504 340.393 347.751C339.79 348.867 338.94 349.828 337.909 350.562C336.877 351.295 335.691 351.78 334.443 351.98C332.018 352.339 329.517 351.583 327.101 352.027C322.082 352.971 319.281 358.569 314.618 360.655C313.012 361.348 311.252 361.603 309.516 361.396C307.78 361.189 306.129 360.527 304.729 359.475C301.966 357.351 301.27 351.697 301.806 348.251C301.806 348.336 311.206 341.416 340.722 340.784Z" fill="#F0F3FA"/>
</g>
<g opacity="0.3">
<path opacity="0.3" d="M359.766 371.058C360.97 370.114 362.868 370.341 364.4 370.614C365.92 370.949 367.346 371.62 368.574 372.578C369.219 372.971 369.779 373.489 370.223 374.102C370.667 374.714 370.985 375.409 371.159 376.146C371.385 377.883 370.219 379.479 369.166 380.866C368.754 381.45 368.256 381.969 367.69 382.405C367.406 382.623 367.079 382.779 366.731 382.862C366.383 382.945 366.021 382.953 365.669 382.886C364.932 382.616 364.304 382.108 363.883 381.442C362.433 379.567 361.197 377.534 360.199 375.382C359.56 374.022 359.043 372.38 359.766 371.067" fill="#F0F3FA"/>
</g>
<path d="M339.34 387.134C339.34 387.134 339.34 387.012 339.387 386.785C339.434 386.559 339.5 386.238 339.547 385.841C339.728 384.626 339.772 383.394 339.679 382.169C339.52 380.359 339.053 378.59 338.297 376.939C337.378 374.91 336.206 373.007 334.809 371.275C333.303 369.64 331.484 368.327 329.461 367.414C327.813 366.656 326.102 366.046 324.347 365.592C322.843 365.196 321.612 364.96 320.756 364.799L319.816 364.629C319.699 364.611 319.583 364.586 319.469 364.554C321.138 364.746 322.79 365.061 324.413 365.498C326.183 365.941 327.909 366.542 329.574 367.291C331.622 368.21 333.464 369.536 334.988 371.19C336.4 372.934 337.581 374.854 338.504 376.901C339.253 378.576 339.711 380.367 339.857 382.197C339.935 383.431 339.869 384.67 339.66 385.888C339.472 386.672 339.34 387.134 339.34 387.134Z" fill="#263238"/>
<path d="M387.195 348.657C387.195 348.714 386.763 348.808 386.067 348.657C385.154 348.491 384.31 348.058 383.642 347.411C382.98 346.764 382.52 345.937 382.317 345.032C382.176 344.343 382.242 343.899 382.317 343.899C382.392 343.899 382.439 344.315 382.655 344.938C382.936 345.737 383.392 346.463 383.99 347.062C384.604 347.648 385.343 348.084 386.152 348.336C386.772 348.544 387.195 348.581 387.195 348.657Z" fill="#263238"/>
<path d="M390.542 358.031C390.41 358.031 390.279 357.908 390.251 357.719C390.226 357.644 390.23 357.562 390.264 357.49C390.297 357.418 390.356 357.362 390.429 357.332C390.57 357.332 390.702 357.446 390.73 357.644C390.758 357.842 390.683 358.003 390.542 358.031Z" fill="#263238"/>
<path d="M391.924 357.597C391.855 357.63 391.776 357.634 391.704 357.609C391.632 357.585 391.573 357.533 391.538 357.464C391.488 357.409 391.46 357.337 391.46 357.262C391.46 357.186 391.488 357.114 391.538 357.059C391.607 357.026 391.686 357.021 391.758 357.046C391.83 357.071 391.889 357.123 391.924 357.191C391.976 357.245 392.005 357.318 392.005 357.394C392.005 357.469 391.976 357.542 391.924 357.597Z" fill="#263238"/>
<path d="M391.905 358.569C391.884 358.592 391.858 358.61 391.83 358.622C391.802 358.634 391.771 358.641 391.74 358.641C391.71 358.641 391.679 358.634 391.651 358.622C391.623 358.61 391.597 358.592 391.576 358.569C391.533 358.525 391.509 358.466 391.509 358.404C391.509 358.342 391.533 358.283 391.576 358.239C391.62 358.195 391.679 358.171 391.74 358.171C391.802 358.171 391.861 358.195 391.905 358.239C391.927 358.26 391.945 358.285 391.958 358.314C391.97 358.342 391.976 358.373 391.976 358.404C391.976 358.435 391.97 358.465 391.958 358.494C391.945 358.522 391.927 358.548 391.905 358.569Z" fill="#263238"/>
<path d="M386.068 354.274C385.992 354.387 385.786 354.378 385.598 354.274C385.41 354.17 385.325 353.953 385.4 353.839C385.475 353.726 385.692 353.745 385.87 353.839C386.049 353.934 386.143 354.16 386.068 354.274Z" fill="#263238"/>
<path d="M386.678 352.877C386.547 352.877 386.425 352.754 386.415 352.584C386.407 352.547 386.406 352.51 386.412 352.473C386.419 352.436 386.432 352.4 386.453 352.369C386.473 352.337 386.499 352.31 386.53 352.288C386.56 352.267 386.595 352.252 386.631 352.244C386.772 352.244 386.885 352.367 386.904 352.546C386.915 352.62 386.898 352.695 386.856 352.756C386.814 352.818 386.751 352.861 386.678 352.877Z" fill="#263238"/>
<path d="M386.951 354.717C386.81 354.717 386.716 354.614 386.725 354.519C386.735 354.425 386.857 354.378 386.989 354.396C387.12 354.415 387.224 354.5 387.214 354.585C387.205 354.67 387.083 354.727 386.951 354.717Z" fill="#263238"/>
<path d="M411.278 371.436C411.278 371.436 407.283 368.915 402.424 365.706C397.564 362.496 393.653 359.843 393.682 359.796C393.71 359.749 397.677 362.326 402.536 365.536C407.396 368.745 411.307 371.398 411.278 371.436Z" fill="#263238"/>
<path d="M417.36 367.943H417.116C416.956 367.943 416.721 367.877 416.43 367.811C415.837 367.697 414.982 367.49 413.939 367.188C411.251 366.344 408.609 365.361 406.024 364.242L398.212 361.014L395.853 360.013L395.214 359.73L394.998 359.626C395.079 359.639 395.159 359.665 395.233 359.702L395.881 359.947L398.269 360.891L406.099 364.073C409.145 365.328 411.918 366.432 413.986 367.065C415.01 367.386 415.866 367.612 416.448 367.745L417.125 367.915L417.36 367.943Z" fill="#263238"/>
<g opacity="0.3">
<path opacity="0.3" d="M385.4 335.498C386.589 335.338 387.7 334.817 388.587 334.006C389.385 333.179 389.915 332.13 390.11 330.995C390.306 329.87 390.384 328.728 390.345 327.587L387.149 330.636C386.462 331.287 385.786 331.939 385.165 332.637C384.829 332.99 384.567 333.408 384.394 333.865C384.312 334.093 384.292 334.338 384.335 334.577C384.378 334.816 384.483 335.039 384.639 335.224C384.721 335.311 384.821 335.38 384.93 335.427C385.04 335.474 385.159 335.499 385.278 335.499C385.398 335.499 385.516 335.474 385.626 335.427C385.736 335.38 385.835 335.311 385.917 335.224" fill="#263238"/>
</g>
<g opacity="0.3">
<path opacity="0.3" d="M406.381 354.689C406.433 352.703 407.242 350.812 408.641 349.407C410.04 348.002 411.923 347.19 413.901 347.137C412.369 350.328 408.543 351.697 406.381 354.491" fill="#263238"/>
</g>
<path d="M330.551 247.451L329.338 248.083C328.668 263.924 327.997 279.761 327.327 295.595C326.96 304.327 326.622 313.229 329.855 321.791L381.903 335.715C383.975 332.169 385.228 328.201 385.569 324.104C387.241 306.567 387.769 288.94 387.148 271.334C386.998 265.821 387.487 253.039 382.448 249.622C373.923 243.873 366.036 245.846 357.416 243.901C348.797 241.957 339.942 246.629 331.096 246.535" fill="#263238"/>
<path d="M305.5 303.317L290.159 278.924C289.52 278.924 244.908 287.911 244.908 287.911C244.908 287.911 213.831 290.61 213.07 291.12C212.309 291.63 202.843 309.226 202.843 309.226C209.103 310.255 211.66 302.165 211.66 302.165L217.93 298.568L225.6 299.512C223.41 300.513 221.558 301.514 220.994 302.212C219.33 304.261 218.437 308.244 219.462 308.376C220.487 308.509 222.348 305.544 227.17 304.903C231.992 304.261 244.222 301.693 244.222 301.693L248.611 302.212L305.5 303.317Z" fill="#FCD8D0"/>
<path d="M233.261 296.322C231.844 297.026 230.391 297.657 228.909 298.21C227.492 298.921 226.035 299.551 224.547 300.098C225.816 299.121 227.222 298.342 228.721 297.785C230.151 297.066 231.682 296.573 233.261 296.322Z" fill="#DBBFB9"/>
<path d="M267.092 155.005C268.596 172.327 269.912 190.773 261.762 206.122C263.581 205.744 265.189 204.688 266.265 203.168C265.597 208.917 264.93 214.741 265.87 220.443C266.81 226.145 269.63 231.771 274.452 234.896C274.518 234.178 274.593 233.461 274.659 232.753C276.539 244.968 287.236 255.258 299.475 256.598C304.758 257.183 310.83 255.815 313.631 251.283C315.765 247.828 315.511 243.458 315.154 239.417L308.574 160.508C307.963 153.164 307.211 145.452 303.028 139.41C300.657 135.962 297.315 133.303 293.432 131.772C289.548 130.241 285.297 129.907 281.224 130.814C277.15 131.721 273.439 133.827 270.563 136.863C267.687 139.899 265.778 143.728 265.08 147.859" fill="#263238"/>
<path d="M302.276 205.726C302.276 205.726 289.558 213.127 285.675 219.263C281.793 225.399 283.241 242.608 283.241 242.608C281.653 248.615 280.757 254.785 280.571 260.997C280.571 270.937 288.232 278.225 290.187 283.559C292.143 288.892 290.798 313.257 290.798 313.257L363.178 315.032V264.943L372.804 265.821C372.804 265.821 375.934 216.922 361.383 210.739C346.832 204.555 329.329 198.419 329.329 198.419L302.276 205.726Z" fill="#AD96FF"/>
<path d="M373.18 251.472C373.02 251.764 372.828 252.036 372.607 252.284C371.987 253.011 371.238 253.616 370.398 254.068C369.067 254.785 367.599 255.21 366.092 255.314C364.095 255.435 362.095 255.139 360.217 254.446C357.964 253.603 355.791 252.561 353.722 251.331C351.382 249.917 348.911 248.734 346.343 247.8C343.475 246.885 340.411 246.78 337.488 247.498C334.361 248.356 331.321 249.506 328.408 250.934C325.465 252.38 322.385 253.528 319.215 254.361C316.204 255.077 313.052 254.923 310.125 253.917C307.547 252.919 305.092 251.623 302.812 250.056C300.841 248.705 298.787 247.478 296.664 246.384C294.896 245.501 292.987 244.939 291.024 244.723C289.555 244.565 288.07 244.684 286.644 245.072C285.426 245.424 284.287 246.007 283.288 246.79C283.515 246.547 283.767 246.329 284.04 246.139C284.815 245.585 285.675 245.164 286.587 244.893C288.033 244.458 289.549 244.307 291.052 244.449C293.037 244.65 294.972 245.199 296.767 246.073C298.921 247.136 301.003 248.341 303 249.679C305.266 251.207 307.697 252.474 310.247 253.455C312.364 254.166 314.605 254.426 316.827 254.219C317.588 254.134 318.35 254.002 319.111 253.851C322.248 253.018 325.296 251.876 328.21 250.443C331.153 249.005 334.225 247.851 337.385 246.998C340.387 246.26 343.534 246.375 346.475 247.328C349.069 248.28 351.563 249.488 353.919 250.934C355.962 252.166 358.107 253.218 360.33 254.078C362.161 254.779 364.115 255.1 366.074 255.022C367.562 254.964 369.022 254.594 370.36 253.936C371.193 253.513 371.945 252.944 372.578 252.256C372.992 251.746 373.18 251.453 373.18 251.472Z" fill="#F0F3FA"/>
<path d="M370.868 233.253C370.815 233.317 370.755 233.374 370.689 233.423C370.567 233.517 370.398 233.678 370.134 233.857C369.383 234.368 368.554 234.753 367.681 234.999C365.416 235.698 361.806 235.585 357.905 233.923C355.959 233.102 353.948 231.969 351.767 230.836C349.496 229.556 347.042 228.635 344.491 228.108C341.651 227.654 338.751 227.728 335.937 228.325C332.9 228.953 329.92 229.831 327.026 230.95C324.027 232.054 321.113 233.187 318.199 234.036C315.409 234.907 312.511 235.384 309.589 235.452C304.629 235.384 299.756 234.128 295.376 231.79C292.411 230.27 289.58 228.499 286.916 226.494C285.976 225.776 285.262 225.22 284.782 224.823L284.247 224.379C284.124 224.276 284.059 224.219 284.068 224.209C284.077 224.2 284.143 224.209 284.275 224.342L284.839 224.748L287.029 226.333C289.711 228.268 292.539 229.988 295.489 231.478C299.834 233.741 304.648 234.947 309.542 234.999C312.413 234.913 315.26 234.433 318.002 233.574C320.878 232.734 323.792 231.592 326.791 230.487C329.709 229.362 332.715 228.481 335.777 227.853C338.649 227.251 341.606 227.187 344.501 227.664C347.095 228.217 349.588 229.173 351.889 230.496C354.07 231.648 356.063 232.79 357.98 233.621C361.797 235.301 365.331 235.462 367.559 234.839C368.752 234.527 369.876 233.989 370.868 233.253Z" fill="#F0F3FA"/>
<path d="M338.4 280.585C338.238 280.686 338.068 280.774 337.892 280.849C337.563 281 337.065 281.227 336.417 281.501C334.593 282.289 332.706 282.921 330.777 283.389C327.884 284.169 324.827 284.073 321.988 283.115C318.792 282.001 315.84 279.717 312.663 277.63C309.714 275.599 306.358 274.243 302.83 273.656C301.291 273.426 299.734 273.331 298.177 273.373C296.823 273.42 295.475 273.574 294.145 273.835C292.212 274.214 290.333 274.832 288.552 275.676C287.283 276.262 286.625 276.677 286.597 276.62C286.734 276.489 286.889 276.378 287.057 276.29C287.512 275.996 287.983 275.728 288.467 275.487C290.245 274.558 292.144 273.881 294.107 273.477C295.457 273.188 296.827 273.008 298.206 272.939C299.777 272.888 301.349 272.974 302.906 273.194C306.506 273.763 309.936 275.131 312.945 277.196C316.141 279.311 319.045 281.567 322.147 282.671C324.908 283.617 327.882 283.741 330.711 283.03C332.631 282.578 334.515 281.988 336.351 281.265L337.855 280.698C338.03 280.634 338.214 280.596 338.4 280.585Z" fill="#F0F3FA"/>
<path d="M338.24 298.474C338.24 298.521 337.573 298.342 336.36 298.162C334.647 297.928 332.913 297.884 331.19 298.03C328.646 298.27 326.129 298.744 323.67 299.446C320.85 300.211 317.842 301.24 314.59 302.137C311.535 303.037 308.373 303.522 305.19 303.581C302.576 303.582 299.988 303.063 297.576 302.052C295.954 301.366 294.48 300.372 293.233 299.125C292.895 298.783 292.581 298.417 292.293 298.03C292.189 297.901 292.097 297.762 292.021 297.615C292.068 297.615 292.462 298.144 293.346 298.984C294.616 300.161 296.091 301.092 297.698 301.731C300.076 302.675 302.614 303.149 305.171 303.128C308.311 303.042 311.426 302.547 314.44 301.655C317.673 300.777 320.709 299.767 323.539 299.012C326.037 298.322 328.597 297.876 331.181 297.681C332.928 297.567 334.683 297.665 336.407 297.974C336.874 298.06 337.335 298.174 337.789 298.313C337.947 298.343 338.099 298.397 338.24 298.474Z" fill="#F0F3FA"/>
<path d="M338.146 276.28C338.015 276.28 337.902 269.436 337.902 260.997C337.902 252.558 338.015 245.714 338.146 245.714C338.278 245.714 338.4 252.558 338.4 260.997C338.4 269.436 338.287 276.28 338.146 276.28Z" fill="#263238"/>
<path d="M331.313 285.532C331.189 285.574 331.058 285.593 330.927 285.588C330.664 285.588 330.288 285.645 329.79 285.636C328.398 285.645 327.008 285.509 325.644 285.23C321.077 284.368 316.883 282.117 313.631 278.782C310.38 275.448 308.227 271.19 307.465 266.586C307.217 265.209 307.109 263.811 307.145 262.413C307.145 261.913 307.201 261.535 307.22 261.28C307.22 261.145 307.242 261.011 307.286 260.884C307.306 262.783 307.479 264.677 307.803 266.548C308.647 271.044 310.798 275.188 313.985 278.458C317.172 281.727 321.252 283.975 325.71 284.918C327.558 285.273 329.432 285.478 331.313 285.532Z" fill="#263238"/>
<path d="M293.102 308.745C303.62 302.458 317.72 303.524 327.186 295.736C331.651 292.064 334.546 286.778 336.285 281.255C338.024 275.733 338.673 269.927 339.321 264.197L341.126 296.218C341.248 298.398 341.295 300.825 339.876 302.495C338.682 303.902 336.746 304.383 334.95 304.78L311.883 309.934C305.641 311.322 298.977 312.691 293.008 310.387" fill="black" fill-opacity="0.17"/>
<path d="M323.191 229.165C321.207 231.62 319.196 234.131 318.115 237.104C317.034 240.078 317.043 243.628 318.933 246.157C320.991 248.914 324.864 249.82 328.229 249.15C331.594 248.48 334.546 246.478 337.216 244.326C338.55 243.25 340.036 242.07 341.718 242.108C342.718 242.25 343.705 242.471 344.67 242.768C347.443 243.259 350.188 241.447 351.767 239.115C353.346 236.784 354.051 233.989 354.944 231.308C355.837 228.627 357.059 225.918 359.315 224.228C361.411 222.661 364.335 222.029 365.632 219.754C367.267 216.922 365.134 213.089 362.135 211.758C359.136 210.427 355.705 210.88 352.472 211.343" fill="black" fill-opacity="0.17"/>
<path d="M328.192 285.164C328.37 285.437 328.145 286.004 327.393 286.665C326.287 287.555 324.968 288.138 323.567 288.354C321.473 288.709 319.324 288.517 317.325 287.797C314.914 286.902 312.756 285.431 311.037 283.512C309.391 281.688 308.072 279.593 307.136 277.319C306.405 275.565 305.856 273.74 305.5 271.872C304.945 268.71 305.058 266.718 305.688 266.529C306.318 266.34 307.436 268.039 308.79 270.768C310.144 273.496 311.845 277.177 314.627 280.208C315.876 281.607 317.366 282.768 319.027 283.634C320.389 284.312 321.859 284.747 323.369 284.918C326.011 285.192 327.797 284.559 328.192 285.164Z" fill="black" fill-opacity="0.17"/>
<path d="M372.842 265.821C372.842 265.953 365.049 265.358 355.47 264.48C345.892 263.603 338.137 262.791 338.146 262.649C338.156 262.508 345.939 263.112 355.517 263.99C365.096 264.868 372.851 265.679 372.842 265.821Z" fill="#263238"/>
<path d="M315.389 129.064C319.666 132.84 322.975 135.804 327.506 138.674C332.036 141.543 336.727 144.97 338.41 150.087C339.632 153.796 339.18 158.205 341.634 161.245C343.73 163.841 347.274 164.605 350.216 166.172C352.79 167.596 354.938 169.685 356.437 172.223C357.936 174.761 358.732 177.655 358.742 180.606C358.742 184.382 357.435 188.385 359.202 191.698C360.744 194.587 364.194 196.003 365.905 198.797C367.615 201.591 367.296 204.839 366.76 207.916C365.942 212.636 364.203 217.715 360.011 219.98C358.551 220.688 356.958 221.076 355.338 221.12C353.718 221.164 352.107 220.862 350.611 220.235C347.629 218.966 344.953 217.07 342.762 214.675C338.398 210.21 334.994 204.892 332.76 199.052C330.091 192.085 329.179 184.58 327.891 177.227C325.521 163.739 321.854 150.515 316.94 137.739C315.737 134.624 313.594 131.867 315.408 129.064" fill="#263238"/>
<path d="M350.799 188.168C350.799 188.168 351.053 187.998 351.541 187.686C352.25 187.232 352.934 186.74 353.591 186.213C354.623 185.389 355.549 184.438 356.345 183.381C357.398 181.98 358.081 180.333 358.328 178.595C358.585 176.486 358.052 174.357 356.834 172.62C356.163 171.665 355.237 170.919 354.164 170.468C352.987 170.064 351.751 169.856 350.507 169.854C349.133 169.858 347.781 169.51 346.578 168.844C345.372 168.025 344.503 166.794 344.134 165.379C343.728 163.957 343.598 162.471 343.749 160.999C343.89 159.517 344.181 158.054 344.388 156.572C344.618 155.127 344.618 153.655 344.388 152.211C344.101 150.827 343.524 149.521 342.696 148.378C341.068 146.222 338.968 144.471 336.558 143.261C334.292 142.025 332.008 141.062 329.978 139.967C325.305 137.525 320.977 134.468 317.109 130.876C316.301 130.13 315.699 129.517 315.304 129.101L314.853 128.62C314.75 128.507 314.703 128.45 314.712 128.441L314.881 128.582L315.37 129.035C315.793 129.432 316.414 129.979 317.25 130.735C319.566 132.805 322.032 134.698 324.629 136.399C326.418 137.575 328.27 138.653 330.175 139.627C332.215 140.694 334.499 141.638 336.802 142.884C339.277 144.122 341.437 145.91 343.119 148.114C343.988 149.313 344.594 150.683 344.896 152.135C345.14 153.632 345.14 155.16 344.896 156.657C344.698 158.158 344.397 159.612 344.266 161.056C344.118 162.466 344.239 163.892 344.623 165.257C344.955 166.564 345.751 167.705 346.86 168.466C347.999 169.091 349.276 169.416 350.573 169.41C351.855 169.426 353.125 169.652 354.333 170.08C355.47 170.567 356.447 171.365 357.153 172.384C358.413 174.213 358.952 176.447 358.667 178.652C358.385 180.441 357.657 182.13 356.552 183.561C355.74 184.625 354.792 185.578 353.732 186.393C353.063 186.915 352.356 187.386 351.617 187.799C351.363 187.95 351.165 188.045 351.034 188.111C350.96 188.145 350.88 188.164 350.799 188.168Z" fill="#263238"/>
<g opacity="0.4">
<path opacity="0.4" d="M278.851 174.092L277.385 171.657C277.707 171.462 278.092 171.404 278.457 171.494C278.821 171.584 279.136 171.816 279.331 172.138C279.524 172.462 279.583 172.849 279.493 173.215C279.403 173.581 279.172 173.897 278.851 174.092Z" fill="#263238"/>
</g>
<path d="M286.888 134.992C281.249 136.853 276.539 140.823 273.739 146.08C270.938 151.336 270.261 157.473 271.848 163.218C274.405 172.469 277.338 182.475 279.575 188.271C284.792 201.752 295.828 201.214 295.828 201.214C295.828 201.214 297.896 209.917 299.71 218.206C301.43 226.116 309.693 231.176 318.171 229.534C326.556 227.9 332.027 220.282 330.438 212.419L316.602 151.814C315.882 148.673 314.517 145.717 312.595 143.135C310.674 140.553 308.237 138.402 305.441 136.819C302.645 135.236 299.551 134.256 296.356 133.941C293.162 133.627 289.937 133.985 286.888 134.992Z" fill="#FCD8D0"/>
<path d="M277.206 167.862C277.314 168.325 277.592 168.729 277.984 168.995C278.376 169.261 278.853 169.369 279.321 169.297C279.551 169.265 279.772 169.187 279.971 169.068C280.171 168.949 280.345 168.791 280.483 168.604C280.621 168.417 280.721 168.204 280.777 167.978C280.832 167.752 280.842 167.516 280.806 167.286C280.711 166.819 280.437 166.407 280.044 166.139C279.651 165.871 279.169 165.768 278.701 165.851C278.47 165.881 278.247 165.958 278.045 166.076C277.844 166.194 277.669 166.351 277.529 166.539C277.39 166.726 277.289 166.94 277.234 167.167C277.178 167.395 277.169 167.631 277.206 167.862Z" fill="#263238"/>
<path d="M275.984 165.681C276.257 165.87 277.394 164.577 279.312 164.162C281.229 163.746 282.846 164.407 282.996 164.162C283.081 164.039 282.761 163.671 282.056 163.35C281.101 162.953 280.048 162.861 279.039 163.085C278.041 163.304 277.136 163.833 276.454 164.596C275.965 165.134 275.852 165.606 275.984 165.681Z" fill="#263238"/>
<path d="M296.852 164.341C296.948 164.809 297.221 165.22 297.614 165.488C298.008 165.756 298.49 165.859 298.958 165.776C299.189 165.746 299.412 165.67 299.613 165.552C299.814 165.434 299.99 165.276 300.129 165.088C300.268 164.901 300.369 164.687 300.424 164.46C300.48 164.232 300.489 163.996 300.452 163.765C300.344 163.303 300.066 162.898 299.674 162.632C299.282 162.366 298.805 162.258 298.337 162.33C298.107 162.361 297.885 162.438 297.685 162.557C297.485 162.676 297.31 162.833 297.172 163.021C297.033 163.208 296.934 163.422 296.879 163.648C296.824 163.875 296.815 164.111 296.852 164.341Z" fill="#263238"/>
<path d="M296.156 162.038C296.429 162.226 297.566 160.924 299.484 160.518C301.402 160.112 303.018 160.763 303.169 160.518C303.253 160.395 302.934 160.017 302.229 159.706C301.275 159.305 300.22 159.212 299.211 159.442C298.213 159.653 297.307 160.179 296.626 160.943C296.1 161.49 296.025 161.962 296.156 162.038Z" fill="#263238"/>
<path d="M292.265 177.84C291.187 177.742 290.1 177.78 289.031 177.953C288.533 178.01 288.044 178.01 287.884 177.689C287.733 177.191 287.733 176.658 287.884 176.16C288.091 174.876 288.298 173.517 288.524 172.101C289.388 166.333 289.905 161.632 289.67 161.594C289.435 161.556 288.552 166.21 287.687 171.978C287.49 173.394 287.292 174.753 287.114 176.047C286.927 176.705 286.983 177.409 287.273 178.029C287.38 178.185 287.519 178.315 287.682 178.41C287.844 178.504 288.026 178.561 288.213 178.576C288.5 178.591 288.788 178.569 289.069 178.51C290.159 178.43 291.234 178.204 292.265 177.84Z" fill="#263238"/>
<path d="M295.846 200.93C302.416 199.609 308.492 196.481 313.396 191.896C313.396 191.896 310.943 202.469 296.749 204.168L295.846 200.93Z" fill="#DBBFB9"/>
<path d="M300.922 155.024C300.781 155.42 299.259 155.231 297.435 155.335C295.611 155.439 294.107 155.76 293.938 155.335C293.769 154.91 295.217 153.929 297.36 153.825C299.503 153.721 301.063 154.656 300.922 155.024Z" fill="#263238"/>
<path d="M281.276 156.846C281.276 157.261 279.725 157.639 277.883 158.196C276.04 158.752 274.508 159.253 274.292 158.894C274.076 158.535 275.411 157.374 277.469 156.78C279.528 156.185 281.276 156.449 281.276 156.846Z" fill="#263238"/>
<path d="M353.017 207.293C353.017 207.293 345.497 198.967 346.071 189.414C346.644 179.86 343.711 173.668 338.391 171.478C334.631 169.939 333.174 166.078 332.6 162.859C331.704 157.453 330.125 152.184 327.9 147.179C324.592 140.005 320.183 132.613 314.045 127.969C306.064 121.927 293.534 117.887 285.845 124.268C282.263 127.232 280.158 127.704 276.962 132.764C276.962 132.764 273.117 134.114 271.134 135.02C264.309 138.136 261.809 147.085 262.533 152.956C264.206 166.465 272.356 168.174 275.542 176.792C275.542 176.792 271.717 158.035 272.017 152.871C272.381 149.058 274.072 145.495 276.792 142.808C282.207 141.864 285.074 144.404 288.185 148.963C291.297 153.523 293.327 157.252 298.431 159.347C303.235 161.311 307.512 165.672 314.017 161.046C316.093 163.385 317.443 166.282 317.899 169.382C318.359 174.102 313.763 176.698 317.137 183.938C320.512 191.179 326.819 196.088 327.477 198.967" fill="#263238"/>
<path d="M299.161 180.792C298.922 180.681 297.669 181.522 295.904 182.399C294.139 183.276 293.158 183.542 293.089 183.78C293.019 184.019 293.416 184.213 294.188 184.426C295.191 184.686 296.255 184.578 297.189 184.123C298.087 183.689 298.782 182.921 299.126 181.983C299.368 181.284 299.279 180.806 299.161 180.792Z" fill="#E77E7D"/>
<path d="M317.09 183.448C318.925 185.314 320.238 187.631 320.898 190.168C321.558 192.705 321.541 195.372 320.85 197.9C319.91 201.214 317.795 204.159 317.316 207.567C316.724 211.72 318.632 215.761 320.221 219.64C321.809 223.52 323.144 227.967 321.452 231.799C320.756 233.404 319.572 234.763 318.848 236.359C318.124 237.954 317.974 240.04 319.187 241.296C320.123 242.09 321.307 242.528 322.533 242.532C327.068 242.851 331.594 241.797 335.526 239.507C339.459 237.217 342.618 233.795 344.595 229.685L346.475 233.791C350.568 227.586 352.422 220.16 351.73 212.749C351.037 205.339 347.839 198.389 342.668 193.057" fill="#263238"/>
<path d="M311.535 163.897C311.328 162.953 313.217 160.64 314.129 160.395C316.235 159.847 319.901 159.895 321.574 165.7C323.971 173.998 315.436 173.762 315.351 173.526C315.267 173.29 312.259 167.163 311.535 163.897Z" fill="#FCD8D0"/>
<path d="M316.442 169.797C316.442 169.797 316.611 169.863 316.893 169.901C317.277 169.948 317.665 169.843 317.974 169.608C318.754 169.033 319.083 167.428 318.698 165.927C318.524 165.21 318.189 164.541 317.72 163.973C317.569 163.735 317.363 163.537 317.119 163.398C316.875 163.258 316.6 163.18 316.32 163.17C316.143 163.178 315.974 163.246 315.841 163.363C315.708 163.479 315.618 163.638 315.586 163.812C315.539 164.086 315.643 164.228 315.586 164.256C315.53 164.284 315.37 164.171 315.333 163.812C315.319 163.593 315.382 163.376 315.511 163.199C315.687 162.959 315.951 162.799 316.244 162.755C316.604 162.723 316.966 162.784 317.295 162.933C317.624 163.082 317.91 163.313 318.124 163.605C318.682 164.218 319.079 164.961 319.281 165.766C319.713 167.456 319.281 169.269 318.218 169.967C318.015 170.096 317.785 170.178 317.546 170.205C317.306 170.233 317.064 170.207 316.837 170.128C316.517 169.996 316.414 169.826 316.442 169.797Z" fill="#DBBFB9"/>
<path d="M355.997 187.629C355.893 187.629 355.997 187.233 355.997 186.563C356.028 185.592 355.848 184.625 355.47 183.731C354.875 182.34 353.941 181.123 352.754 180.191C351.094 178.993 349.253 178.072 347.302 177.463C344.777 176.697 342.333 175.682 340.007 174.432C338.645 173.637 337.455 172.575 336.511 171.308C335.575 169.966 334.849 168.489 334.358 166.928C333.832 165.408 333.418 163.869 332.826 162.434C332.319 161.031 331.492 159.767 330.41 158.743C328.22 156.789 324.77 156.364 321.358 156.628C317.946 156.893 314.364 157.761 310.708 157.469C308.895 157.327 307.125 156.843 305.491 156.043C303.975 155.288 302.566 154.336 301.298 153.211C299.096 151.143 297.068 148.894 295.235 146.49C293.703 144.492 291.97 142.658 290.065 141.015C288.749 139.82 287.195 138.918 285.507 138.368C283.819 137.818 282.035 137.633 280.27 137.824C279.306 137.956 278.371 138.253 277.507 138.702C276.896 139.004 276.567 139.193 276.52 139.127C276.473 139.061 276.68 138.749 277.234 138.287C278.06 137.616 279.023 137.136 280.054 136.88C281.701 136.48 283.416 136.454 285.074 136.804C287.274 137.275 289.338 138.244 291.109 139.636C293.184 141.268 295.075 143.123 296.749 145.168C298.58 147.422 300.579 149.533 302.727 151.484C304.967 153.554 307.825 154.825 310.858 155.099C314.016 155.335 317.438 154.533 321.132 154.212C323.016 154.039 324.914 154.131 326.772 154.486C328.691 154.835 330.482 155.692 331.961 156.968C333.309 158.252 334.336 159.837 334.96 161.594C335.58 163.218 335.984 164.785 336.454 166.229C336.85 167.594 337.446 168.892 338.221 170.08C338.977 171.144 339.936 172.045 341.041 172.733C343.222 173.986 345.513 175.035 347.885 175.867C349.963 176.628 351.894 177.746 353.59 179.171C354.878 180.318 355.827 181.797 356.335 183.448C356.659 184.485 356.698 185.59 356.448 186.648C356.26 187.346 356.053 187.658 355.997 187.629Z" fill="#455A64"/>
<path d="M306.75 125.184C305.882 124.352 305.189 123.354 304.712 122.248C304.236 121.142 303.986 119.951 303.977 118.746C303.984 117.54 304.29 116.355 304.866 115.297C305.441 114.24 306.27 113.342 307.277 112.685C308.68 111.869 310.311 111.537 311.92 111.741C313.283 111.886 314.591 112.361 315.731 113.126C316.871 113.891 317.808 114.923 318.463 116.132C319.118 117.342 319.47 118.693 319.489 120.069C319.509 121.446 319.195 122.806 318.575 124.034C317.955 125.262 317.047 126.32 315.929 127.117C314.812 127.914 313.518 128.426 312.159 128.61C310.801 128.794 309.418 128.643 308.13 128.171C306.843 127.7 305.688 126.92 304.767 125.901" fill="#263238"/>
<path d="M314.966 127.487C314.403 127.64 313.815 127.679 313.236 127.6C311.826 127.507 310.445 127.149 309.166 126.543C307.892 125.937 306.742 125.098 305.773 124.07C305.341 123.675 304.998 123.192 304.767 122.654C306.063 124.098 307.632 125.27 309.383 126.1C311.134 126.929 313.032 127.401 314.966 127.487Z" fill="#FF6F47"/>
<path d="M271.275 171.714C271.263 171.209 271.285 170.705 271.341 170.203C271.317 168.832 271.124 167.468 270.767 166.144C270.179 164.187 269.45 162.275 268.586 160.423C267.507 158.138 266.648 155.755 266.02 153.306C265.727 152.012 265.614 150.684 265.682 149.36C265.762 148.122 266.058 146.908 266.556 145.772C267.387 143.85 268.698 142.175 270.363 140.911C271.487 140.051 272.763 139.41 274.123 139.023C274.485 138.914 274.856 138.839 275.232 138.796C275.495 138.759 275.627 138.759 275.627 138.796C275.627 138.853 275.101 138.919 274.179 139.231C272.58 139.781 271.114 140.664 269.878 141.822C268.642 142.98 267.664 144.387 267.007 145.952C266.541 147.045 266.267 148.21 266.199 149.397C266.139 150.666 266.253 151.936 266.537 153.173C267.159 155.594 268.003 157.951 269.056 160.216C269.907 162.091 270.605 164.033 271.143 166.021C271.48 167.379 271.625 168.777 271.576 170.175C271.529 170.666 271.453 171.053 271.416 171.308C271.378 171.563 271.294 171.723 271.275 171.714Z" fill="#455A64"/>
<path d="M279.951 239.144C279.758 239.048 279.573 238.937 279.396 238.813C278.874 238.486 278.375 238.123 277.902 237.728C276.175 236.256 274.718 234.492 273.597 232.517C271.942 229.571 270.852 226.34 270.382 222.992C269.865 218.914 269.915 214.784 270.532 210.72C271.124 206.377 272.008 202.318 272.704 198.608C273.36 195.334 273.827 192.024 274.104 188.696C274.276 186.456 274.276 184.206 274.104 181.965C273.973 180.37 273.813 179.502 273.869 179.492C273.933 179.699 273.98 179.91 274.01 180.125C274.104 180.531 274.189 181.144 274.292 181.947C274.539 184.197 274.589 186.465 274.443 188.724C274.207 192.071 273.771 195.4 273.136 198.693C272.459 202.412 271.594 206.472 271.012 210.786C270.396 214.817 270.329 218.914 270.814 222.963C271.253 226.273 272.295 229.473 273.888 232.403C274.967 234.371 276.365 236.145 278.024 237.652C279.18 238.634 279.979 239.087 279.951 239.144Z" fill="#455A64"/>
<path d="M321.866 237.171C321.866 237.171 321.866 237.104 322.035 237.001L322.571 236.548C323.05 236.151 323.746 235.604 324.62 234.792C327.104 232.618 329.336 230.17 331.275 227.495C334.183 223.549 335.967 218.882 336.436 213.995C336.699 211.123 336.353 208.227 335.42 205.499C334.48 202.667 332.553 200.156 330.974 197.353C330.156 195.971 329.544 194.476 329.16 192.916C328.834 191.391 328.711 189.829 328.793 188.271C328.916 185.222 329.461 182.352 329.517 179.596C329.605 176.987 329.314 174.379 328.652 171.855C328.074 169.655 327.095 167.581 325.767 165.738C323.835 163.053 321.071 161.088 317.908 160.15C316.74 159.848 315.542 159.683 314.336 159.659H314.571H315.276C316.179 159.681 317.078 159.801 317.955 160.017C321.201 160.906 324.052 162.868 326.049 165.587C327.417 167.457 328.433 169.562 329.047 171.799C329.744 174.359 330.06 177.009 329.987 179.662C329.987 182.494 329.404 185.326 329.292 188.347C329.21 189.86 329.33 191.378 329.649 192.859C330.024 194.376 330.62 195.83 331.416 197.173C332.967 199.93 334.922 202.469 335.89 205.396C336.839 208.185 337.185 211.146 336.906 214.08C336.414 219.044 334.566 223.774 331.566 227.749C329.592 230.425 327.307 232.856 324.761 234.99C323.821 235.745 323.153 236.302 322.655 236.67L322.082 237.086C322.012 237.12 321.94 237.148 321.866 237.171Z" fill="#455A64"/>
<path d="M321.997 171.053C321.997 171.053 322.298 171.204 322.721 171.619C323.338 172.209 323.778 172.962 323.99 173.79C324.122 174.422 324.106 175.076 323.943 175.7C323.78 176.325 323.474 176.902 323.05 177.387C322.553 178.003 321.909 178.484 321.178 178.784C320.446 179.084 319.652 179.195 318.867 179.105C318.085 178.984 317.349 178.659 316.732 178.161C316.115 177.664 315.639 177.013 315.351 176.273C315.106 175.623 315.044 174.917 315.173 174.234C315.285 173.644 315.526 173.087 315.878 172.601C316.369 171.893 317.079 171.368 317.899 171.109C318.197 170.991 318.522 170.955 318.839 171.006C318.839 171.053 318.519 171.081 317.993 171.289C317.253 171.598 316.624 172.124 316.188 172.799C315.861 173.278 315.654 173.831 315.587 174.408C315.52 174.985 315.594 175.57 315.803 176.113C316.07 176.77 316.5 177.348 317.053 177.791C317.606 178.234 318.263 178.527 318.961 178.643C319.665 178.718 320.376 178.618 321.032 178.352C321.688 178.085 322.268 177.659 322.721 177.113C323.111 176.682 323.398 176.167 323.56 175.608C323.723 175.048 323.758 174.459 323.661 173.885C323.486 173.098 323.117 172.368 322.589 171.761C322.375 171.54 322.177 171.303 321.997 171.053Z" fill="#FCB340"/>
<path d="M317.353 132.16C317.347 132.304 317.325 132.446 317.288 132.585C317.288 132.745 317.212 132.915 317.165 133.104L316.94 133.793C316.391 135.242 315.542 136.558 314.449 137.654C312.839 139.309 310.779 140.452 308.527 140.939C307.193 141.215 305.819 141.241 304.475 141.015C303.05 140.754 301.661 140.319 300.339 139.721C297.623 138.513 295.273 136.956 293.007 135.842C291.046 134.767 288.893 134.094 286.672 133.859C285.173 133.722 283.662 133.928 282.254 134.463C281.314 134.869 280.797 135.237 280.769 135.2C280.864 135.09 280.975 134.995 281.098 134.916C281.439 134.675 281.801 134.463 282.179 134.284C283.6 133.671 285.147 133.406 286.691 133.51C288.967 133.69 291.183 134.332 293.205 135.398C295.517 136.512 297.905 138.051 300.537 139.231C301.818 139.839 303.169 140.286 304.56 140.562C305.843 140.803 307.159 140.803 308.442 140.562C310.622 140.111 312.625 139.04 314.214 137.475C315.301 136.426 316.17 135.172 316.771 133.784L317.043 133.123L317.203 132.632C317.278 132.32 317.335 132.16 317.353 132.16Z" fill="#455A64"/>
<path d="M298.826 338.216L239.832 366.848L131.685 337.235L184.776 308.103L298.826 338.216Z" fill="#263238"/>
<path d="M233.778 337.008L249.438 342.2L263.943 334.289L239.803 326.511L225.713 333.846L233.778 337.008Z" fill="#455A64"/>
<path d="M117.923 257.259C118.412 259.232 131.685 337.235 131.685 337.235L239.785 366.848L225.6 283.417L117.923 257.259Z" fill="#E2DEE5"/>
<path d="M231.964 320.79C232.095 320.79 233.966 331.061 236.137 343.776C238.309 356.492 239.963 366.829 239.832 366.848C239.7 366.867 237.829 356.587 235.658 343.861C233.487 331.136 231.832 320.809 231.964 320.79Z" fill="#455A64"/>
<path d="M175.43 314.296C178.354 313.159 179.658 309.47 178.342 306.058C177.025 302.645 173.588 300.8 170.664 301.937C167.74 303.074 166.437 306.763 167.753 310.176C169.069 313.589 172.506 315.434 175.43 314.296Z" fill="black" fill-opacity="0.18"/>
<path d="M285.676 326.671C285.676 326.671 349.003 332.118 359.484 324.491C369.965 316.863 369.975 265.66 369.975 265.66L338.598 262.753L338.146 298.342C335.984 300.154 281.38 309.236 276.68 308.877C276.68 308.877 248.057 311.945 246.496 311.945C244.936 311.945 234.577 323.792 234.577 324.34C234.613 324.754 234.732 325.157 234.928 325.524C235.123 325.89 235.391 326.213 235.715 326.473C235.357 326.924 235.175 327.49 235.201 328.067C235.227 328.643 235.459 329.19 235.856 329.607C235.856 329.607 235.433 331.608 236.993 332.033C238.553 332.458 238.694 333.175 240.537 332.033C242.379 330.891 251.46 323.792 251.46 323.792L258.275 323.216C258.275 323.216 241.674 332.76 243.094 334.903C244.513 337.046 247.794 334.62 251.46 332.618C255.126 330.617 261.254 327.068 262.382 326.775C263.51 326.482 285.676 326.671 285.676 326.671Z" fill="#FCD8D0"/>
<path d="M255.68 317.703C255.68 317.798 254.364 317.788 252.334 318.317C249.7 319.057 247.222 320.273 245.021 321.904C242.831 323.564 240.776 325.395 238.873 327.379C238.105 328.232 237.283 329.033 236.41 329.777C236.568 329.509 236.753 329.259 236.965 329.031C237.35 328.578 237.905 327.927 238.619 327.143C240.465 325.054 242.515 323.156 244.739 321.479C246.984 319.807 249.541 318.606 252.259 317.949C253.083 317.762 253.924 317.655 254.768 317.628C255.074 317.603 255.382 317.628 255.68 317.703Z" fill="#DBBFB9"/>
<path d="M252.117 315.372C252.117 315.466 250.98 315.447 249.232 315.928C246.96 316.584 244.835 317.67 242.971 319.129C241.108 320.61 239.375 322.249 237.792 324.028C237.153 324.787 236.462 325.499 235.724 326.161C236.254 325.317 236.861 324.524 237.538 323.792C239.064 321.929 240.785 320.236 242.67 318.742C244.579 317.236 246.788 316.161 249.147 315.589C249.86 315.422 250.587 315.331 251.318 315.315C251.586 315.286 251.857 315.305 252.117 315.372Z" fill="#DBBFB9"/>
<path d="M348.101 309.151C348.016 309.151 347.81 308.31 347.246 307.027C345.751 303.66 343.144 300.916 339.867 299.257C338.616 298.634 337.77 298.379 337.799 298.313C338.571 298.395 339.322 298.616 340.017 298.965C341.73 299.726 343.277 300.821 344.567 302.185C345.858 303.549 346.867 305.156 347.537 306.913C347.857 307.619 348.048 308.377 348.101 309.151Z" fill="#DBBFB9"/>
<path d="M239.286 375.967C236.532 376.647 235.301 380.215 236.222 382.905C237.143 385.596 239.578 387.465 242.041 388.862C249.476 393.063 259.346 394.054 266.255 389.032C269.282 386.842 271.651 382.952 270.4 379.422C269.31 376.335 265.935 374.702 262.786 373.871C254.292 371.592 245.277 372.298 237.237 375.873" fill="#E2DEE6"/>
<path d="M235.235 353.632C235.235 353.632 230.14 387.616 253.81 386.559C275.994 385.539 268.22 352.424 268.22 352.424L235.235 353.632Z" fill="#455A64"/>
<path d="M264.497 377.128C266.361 378.36 268.493 379.121 270.713 379.344C272.933 379.568 275.174 379.248 277.244 378.412C279.299 377.538 281.102 376.158 282.485 374.399C283.869 372.64 284.788 370.559 285.158 368.349C285.483 366.131 285.224 363.866 284.408 361.78C283.591 359.693 282.246 357.858 280.505 356.454C278.731 355.094 276.624 354.241 274.406 353.987C272.188 353.733 269.943 354.086 267.91 355.01L267.571 358.89C268.839 358.313 270.24 358.091 271.624 358.249C273.007 358.407 274.322 358.938 275.43 359.787C276.516 360.664 277.355 361.811 277.864 363.114C278.374 364.417 278.536 365.831 278.334 367.216C278.1 368.596 277.524 369.894 276.66 370.993C275.796 372.091 274.672 372.954 273.39 373.503C272.097 374.021 270.7 374.218 269.316 374.079C267.931 373.939 266.601 373.466 265.437 372.701L264.497 377.128Z" fill="#455A64"/>
<path d="M268.22 352.424C268.314 354.529 261.001 356.577 251.883 357.002C242.765 357.427 235.282 356.058 235.188 353.953C235.094 351.848 242.407 349.79 251.525 349.365C260.643 348.94 268.126 350.309 268.22 352.424Z" fill="#94A9DB"/>
<g opacity="0.2">
<path opacity="0.2" d="M269.207 358.38C268.241 358.732 267.394 359.354 266.767 360.171C266.139 360.989 265.756 361.968 265.663 362.996C265.584 365.074 266.065 367.136 267.054 368.962C267.327 369.529 267.797 370.18 268.417 370.067C269.038 369.954 269.226 369.208 269.291 368.604C269.773 365.261 269.741 361.864 269.197 358.531" fill="#263238"/>
</g>
<path d="M263.2 355.454C270.88 353.396 247.22 354.245 239.587 356.398C239.559 356.388 252.127 358.418 263.2 355.454Z" fill="#263238"/>
</svg>
