<svg width="287" height="32" viewBox="0 0 287 32" fill="none" xmlns="http://www.w3.org/2000/svg">
<path fill-rule="evenodd" clip-rule="evenodd" d="M102.749 23.9488V16.2248C102.749 12.284 102.276 9.38316 94.4573 9.38316C87.9322 9.38316 85.4411 11.4323 85.4411 14.9311H91.746C91.905 13.5135 93.133 13.3239 94.0474 13.3239C94.7417 13.3239 96.1914 13.4814 96.1914 14.6788C96.1914 17.7677 84.4334 14.3638 84.4334 21.8675C84.4334 25.3021 87.2073 26.8481 90.3284 26.8481C92.7874 26.8481 94.679 26.3435 96.5385 24.6094L96.8535 26.3741H103.631V26.0591C102.779 25.3663 102.749 24.8953 102.749 23.9488ZM93.289 23.1444C91.9968 23.1444 91.2077 22.5771 91.2077 21.7574C91.2077 19.615 94.0444 20.1181 96.1898 19.0783C96.3474 21.3461 95.5904 23.1444 93.289 23.1444ZM16.381 0.955749H7.97959V0H16.381V0.955749ZM33.0477 25.5865H24.6188V16.7401L0.145508 16.7631V15.7737H17.8506L19.1458 14.4417L0.145508 14.4479V13.4814H20.0832L21.2897 12.2749L0.145508 12.2978V11.3314H22.2852L23.611 10.0132L0.145508 10.0071V9.03909H24.6188V0.0611693H33.0477V25.5865Z" fill="#A2ACB9"/>
<path fill-rule="evenodd" clip-rule="evenodd" d="M16.3809 3.25865H7.97949V2.30444H16.3809V3.25865ZM16.3809 5.53869H7.97949V4.60741H16.3809V5.53869ZM16.3809 7.78202H7.97949V6.81557H16.3809V7.78202ZM9.05299 24.5879L9.9858 23.652L7.97949 23.6459V22.6917L10.9293 22.6932L12.2781 21.3613L7.97949 21.3552V20.3994H13.2384L14.5933 19.0446L7.97949 19.04V18.1072H15.5307L16.3809 17.2309V25.6293H7.97949V24.5894L9.05299 24.5879ZM53.4808 26.3771H47.3961V23.9487C45.7583 26.218 44.1496 26.8496 41.4383 26.8496C37.8432 26.8496 35.5112 24.643 35.5112 19.9147V9.85714H42.0684V18.7785C42.0684 21.0478 42.8559 21.7726 44.4325 21.7726C46.3241 21.7726 46.9236 20.3536 46.9236 17.7998V9.85561H53.4808V26.3771ZM54.9886 9.85714H61.009V12.3161C61.8287 11.0545 63.8778 9.38462 66.2419 9.38462C69.2055 9.38462 70.8448 10.6462 71.6324 12.4109C73.0499 10.4245 74.911 9.38462 77.3378 9.38462C82.1609 9.38462 83.6748 12.0959 83.6748 16.6024V26.3755H77.1176V17.9588C77.1176 15.532 76.6451 14.5533 74.9109 14.5533C72.9872 14.5533 72.6095 16.2247 72.6095 18.2111V26.3755H66.0523V17.9588C66.0523 15.532 65.5798 14.5533 63.8457 14.5533C61.9235 14.5533 61.5442 16.2247 61.5442 18.2111V26.3755H54.987V9.85714H54.9886ZM104.691 9.85714H110.68V12.4415C112.162 10.4551 113.769 9.3831 116.26 9.3831C120.611 9.3831 122.66 11.9353 122.66 16.4755V26.374H116.103V17.6423C116.103 16.003 115.661 14.5518 113.802 14.5518C111.785 14.5518 111.248 15.8455 111.248 17.9573V26.374H104.691V9.85714ZM141.824 23.9487V16.2247C141.824 12.284 141.352 9.3831 133.534 9.3831C127.009 9.3831 124.518 11.4322 124.518 14.931H130.823C130.981 13.5135 132.21 13.3238 133.124 13.3238C133.819 13.3238 135.268 13.4813 135.268 14.6787C135.268 17.7677 123.51 14.3637 123.51 21.8675C123.51 25.302 126.284 26.8481 129.405 26.8481C131.864 26.8481 133.756 26.3434 135.616 24.6093L135.932 26.374H142.709V26.059C141.856 25.3663 141.824 24.8953 141.824 23.9487ZM132.364 23.1443C131.072 23.1443 130.285 22.577 130.285 21.7574C130.285 19.6149 133.121 20.1181 135.265 19.0782C135.423 21.346 134.666 23.1443 132.364 23.1443ZM146.195 4.89336C144.381 4.89336 142.847 6.288 142.847 8.17961C142.847 10.0896 144.382 11.4842 146.195 11.4842C147.99 11.4842 149.525 10.0896 149.525 8.17961C149.525 6.288 147.99 4.89336 146.195 4.89336ZM146.195 10.9352C144.687 10.9352 143.509 9.76692 143.509 8.17961C143.509 6.61983 144.687 5.44235 146.195 5.44235C147.685 5.44235 148.861 6.61983 148.861 8.17961C148.861 9.76692 147.684 10.9352 146.195 10.9352Z" fill="#A2ACB9"/>
<path fill-rule="evenodd" clip-rule="evenodd" d="M146.725 8.41522C147.283 8.34488 147.712 8.04975 147.712 7.36772C147.712 6.61842 147.267 6.28658 146.367 6.28658H144.922V10.0866H145.499V8.43968H146.159L147.163 10.0866H147.808L146.725 8.41522ZM145.496 7.95034V6.77286H146.282C146.682 6.77286 147.109 6.86003 147.109 7.33102C147.109 7.91517 146.673 7.95034 146.185 7.95034H145.496ZM277.311 23.9488V16.2248C277.311 12.2841 276.839 9.38321 269.02 9.38321C262.493 9.38321 260.005 11.4323 260.005 14.9311H266.31C266.466 13.5136 267.695 13.3239 268.61 13.3239C269.303 13.3239 270.754 13.4815 270.754 14.6788C270.754 17.7678 258.996 14.3638 258.996 21.8676C258.996 25.3022 261.77 26.8482 264.891 26.8482C267.348 26.8482 269.24 26.3435 271.101 24.6094L271.414 26.3741H278.195V26.0591C277.343 25.3664 277.311 24.8954 277.311 23.9488ZM267.851 23.1445C266.561 23.1445 265.773 22.5771 265.773 21.7575C265.773 19.6151 268.61 20.1182 270.752 19.0783C270.91 21.3461 270.154 23.1445 267.851 23.1445ZM157.32 26.3619V3.66401H164.759V11.3253H171.79V3.66401H179.23V26.3619H171.79V17.5659H164.759V26.3619H157.32ZM190.392 9.38473C184.813 9.38473 181.028 12.5685 181.028 18.3061C181.028 23.9488 185.126 26.8497 190.425 26.8497C195.721 26.8497 199.819 24.013 199.819 17.9605C199.817 12.8208 196.225 9.38473 190.392 9.38473ZM190.425 22.4349C188.752 22.4349 187.588 21.08 187.588 17.959C187.588 16.0979 188.249 13.798 190.488 13.798C192.19 13.7032 193.262 15.5306 193.262 17.959C193.262 21.08 192.19 22.4349 190.425 22.4349ZM206.746 21.2391C206.746 21.9012 207 22.4043 207.439 22.7499C207.849 23.0665 208.416 23.2546 209.049 23.2546C210.055 23.2546 211.127 22.9395 211.127 21.7728C211.127 19.1257 201.009 21.2375 201.009 14.8379C201.009 10.6142 205.39 9.38473 208.828 9.38473C212.421 9.38473 216.643 10.2044 217.022 14.5855H211.065C211.002 14.0488 210.78 13.6711 210.435 13.3882C210.089 13.1053 209.617 12.9783 209.112 12.9783C207.977 12.9783 207.251 13.3255 207.251 14.1451C207.251 16.445 217.686 14.9006 217.686 21.08C217.686 24.5161 214.849 26.8482 208.795 26.8482C205.014 26.8482 200.851 25.6814 200.504 21.2375H206.746V21.2391ZM229.75 9.3985C227.86 9.3985 225.494 10.313 224.58 12.33H224.517V9.87102H218.622V32H225.178V24.7501C226.283 26.1371 227.606 26.8619 229.404 26.8619C233.093 26.8619 237.128 24.4978 237.128 18.0048C237.128 13.4646 234.732 9.3985 229.75 9.3985ZM227.731 21.837C226.029 21.837 225.052 20.2619 225.052 17.9605C225.052 15.7538 226.124 14.2399 227.701 14.2399C229.433 14.2399 230.568 15.4694 230.568 18.0859C230.57 20.3552 229.467 21.837 227.731 21.837ZM238.705 26.3757V9.85878H245.264V26.3757H238.705ZM238.705 3.01562H245.264V7.68121H238.705V3.01562ZM258.136 26.3649C249.529 26.8375 248.489 26.238 248.489 20.5326V13.6298H246.157V9.84656H248.585V4.70845H255.046V9.84656H258.199V13.6298H255.046V19.6197C255.046 21.1336 255.268 21.6688 257.095 21.6688H258.138V26.3649H258.136ZM279.683 26.3619V3.66401H286.239V26.3619H279.683Z" fill="#A2ACB9"/>
</svg>
