<svg width="24" height="25" viewBox="0 0 24 25" fill="none" xmlns="http://www.w3.org/2000/svg">
<g clip-path="url(#clip0_66_2244)">
<path d="M18.5759 13.9529C17.9157 10.6303 21.0693 8.68172 21.0693 8.68172C21.0693 8.68172 19.8406 6.90407 17.7756 6.44676C15.7117 5.98844 14.6787 6.56107 13.6477 6.99054C12.6157 7.42107 12.1008 7.42107 12.1008 7.42107C10.6115 7.42107 9.52284 5.84425 6.68542 6.56212C4.73064 7.05543 2.67282 9.31202 2.30102 12.0053C1.92922 14.6996 2.73155 18.1374 4.27848 20.8019C5.82541 23.4684 7.40123 24.4705 8.51969 24.4993C9.63819 24.5271 10.7546 23.698 12.1008 23.4961C13.4479 23.2963 14.277 23.9843 15.5984 24.3562C16.9146 24.7269 17.376 24.3829 18.892 23.0935C20.4122 21.804 21.7882 18.1055 21.7882 18.1055C21.7882 18.1055 19.2361 17.2774 18.5759 13.9529Z" fill="#0F182E"/>
<path d="M15.6533 4.29731C17.1158 2.80705 16.6204 0.5 16.6204 0.5C16.6204 0.5 14.5667 0.860484 13.1907 2.29206C11.8158 3.72469 12.0434 5.98743 12.0434 5.98743C12.0434 5.98743 14.1908 5.78661 15.6533 4.29731Z" fill="#0F182E"/>
</g>
<defs>
<clipPath id="clip0_66_2244">
<rect width="24" height="24" fill="white" transform="translate(0 0.5)"/>
</clipPath>
</defs>
</svg>
