<svg width="20" height="20" viewBox="0 0 20 20" fill="none" xmlns="http://www.w3.org/2000/svg">
<g clip-path="url(#clip0_76_167)">
<path d="M10 0C8.02219 0 6.08879 0.58649 4.4443 1.6853C2.79981 2.78412 1.51809 4.3459 0.761209 6.17317C0.00433286 8.00043 -0.193701 10.0111 0.192152 11.9509C0.578004 13.8907 1.53041 15.6725 2.92894 17.0711C4.32746 18.4696 6.10929 19.422 8.0491 19.8079C9.98891 20.1937 11.9996 19.9957 13.8268 19.2388C15.6541 18.4819 17.2159 17.2002 18.3147 15.5557C19.4135 13.9112 20 11.9778 20 10C19.9971 7.34872 18.9426 4.80684 17.0679 2.9321C15.1932 1.05736 12.6513 0.00286757 10 0V0ZM10 18.3333C8.35183 18.3333 6.74066 17.8446 5.37025 16.9289C3.99984 16.0132 2.93174 14.7117 2.30101 13.189C1.67028 11.6663 1.50525 9.99076 1.82679 8.37425C2.14834 6.75774 2.94201 5.27288 4.10745 4.10744C5.27289 2.94201 6.75774 2.14833 8.37425 1.82679C9.99076 1.50525 11.6663 1.67027 13.189 2.301C14.7118 2.93173 16.0132 3.99984 16.9289 5.37025C17.8446 6.74066 18.3333 8.35182 18.3333 10C18.3309 12.2094 17.4522 14.3276 15.8899 15.8899C14.3276 17.4522 12.2094 18.3309 10 18.3333Z" fill="#C1C7D1"/>
<path d="M10.5978 4.21915C10.1173 4.13159 9.62333 4.15072 9.15098 4.27518C8.67863 4.39965 8.23941 4.6264 7.8644 4.9394C7.48939 5.2524 7.18775 5.644 6.98083 6.08648C6.77392 6.52896 6.66677 7.01151 6.66699 7.49998C6.66699 7.721 6.75479 7.93296 6.91107 8.08924C7.06735 8.24552 7.27931 8.33332 7.50032 8.33332C7.72134 8.33332 7.9333 8.24552 8.08958 8.08924C8.24586 7.93296 8.33366 7.721 8.33366 7.49998C8.33345 7.2548 8.38734 7.01258 8.49148 6.79061C8.59563 6.56865 8.74747 6.37239 8.93617 6.21584C9.12487 6.05929 9.34579 5.9463 9.58317 5.88494C9.82056 5.82357 10.0686 5.81533 10.3095 5.86082C10.6387 5.92472 10.9414 6.0853 11.1789 6.32206C11.4164 6.55881 11.5779 6.86098 11.6428 7.18998C11.7084 7.53532 11.6631 7.89255 11.5134 8.2106C11.3638 8.52865 11.1174 8.79123 10.8095 8.96082C10.2996 9.2562 9.87831 9.68291 9.58943 10.1965C9.30054 10.7101 9.15466 11.2917 9.16699 11.8808V12.5C9.16699 12.721 9.25479 12.933 9.41107 13.0892C9.56735 13.2455 9.77931 13.3333 10.0003 13.3333C10.2213 13.3333 10.4333 13.2455 10.5896 13.0892C10.7459 12.933 10.8337 12.721 10.8337 12.5V11.8808C10.8232 11.5908 10.8893 11.3032 11.0254 11.0469C11.1614 10.7906 11.3626 10.5746 11.6087 10.4208C12.2124 10.0892 12.6986 9.5787 13.0004 8.95949C13.3022 8.34028 13.4047 7.64278 13.2939 6.96292C13.1831 6.28306 12.8644 5.65423 12.3816 5.16289C11.8988 4.67156 11.2756 4.34187 10.5978 4.21915Z" fill="#C1C7D1"/>
<path d="M10.8337 15.0001C10.8337 14.5398 10.4606 14.1667 10.0003 14.1667C9.54009 14.1667 9.16699 14.5398 9.16699 15.0001C9.16699 15.4603 9.54009 15.8334 10.0003 15.8334C10.4606 15.8334 10.8337 15.4603 10.8337 15.0001Z" fill="#C1C7D1"/>
</g>
<defs>
<clipPath id="clip0_76_167">
<rect width="20" height="20" fill="white"/>
</clipPath>
</defs>
</svg>
