<svg width="20" height="20" viewBox="0 0 20 20" fill="none" xmlns="http://www.w3.org/2000/svg">
<path d="M4.54471 8.04501C4.36053 6.28419 3.34389 5.26501 2.18139 5.26501V5.26669C2.11124 5.26662 2.04116 5.27021 1.97139 5.27751C0.723894 5.40584 -0.166926 6.65083 0.0263944 8.51669C0.213074 10.3017 1.29221 11.6667 2.47807 11.6667C2.53178 11.6668 2.5855 11.664 2.63889 11.6584C3.88889 11.5283 4.73971 9.90833 4.54471 8.04501ZM2.46471 9.99001C1.97757 9.58064 1.74335 9.00669 1.68389 8.34334C1.68389 7.92369 1.67991 7.50962 1.86639 7.13666C1.97003 6.94173 2.09639 6.93833 2.14471 6.93333L2.18155 6.93271C2.46237 6.93271 2.80304 7.41248 2.88721 8.21748C2.94487 8.84447 2.856 9.48845 2.46471 9.99001Z" fill="#C1C7D1"/>
<path d="M7.05512 7.04168C7.1143 7.04168 7.17262 7.04168 7.2318 7.0325C8.6043 6.88918 9.54262 5.10918 9.32848 3.0575C9.12598 1.12168 8.00762 0 6.7293 0C6.65246 7.8125e-05 6.5757 0.00421875 6.4993 0.0125C5.12598 0.155 4.1443 1.52418 4.35848 3.57668C4.5643 5.54 5.7493 7.04168 7.05512 7.04168ZM6.2418 1.96668C6.32574 1.80125 6.48676 1.68867 6.67098 1.66668C6.69039 1.66547 6.70988 1.66547 6.7293 1.66668C7.11598 1.66668 7.56262 2.20418 7.67098 3.23086C7.74883 3.82801 7.6552 4.43496 7.40098 4.98086C7.2493 5.26836 7.0968 5.36836 7.05516 5.37254C6.84098 5.37254 6.15184 4.69422 6.01598 3.40086C5.9291 2.91098 6.00859 2.40613 6.2418 1.96668Z" fill="#C1C7D1"/>
<path d="M12.8029 7.0325C12.8621 7.03832 12.9212 7.04168 12.9796 7.04168C14.2837 7.04168 15.4713 5.54168 15.6763 3.57668C15.8904 1.52418 14.9087 0.155 13.5371 0.0125C13.4604 0.00421875 13.3834 3.90625e-05 13.3062 0C12.0271 0 10.9087 1.12168 10.7062 3.0575C10.4921 5.10918 11.4304 6.89082 12.8029 7.0325ZM12.3646 3.23C12.4712 2.20418 12.9162 1.66668 13.3062 1.66668C13.3254 1.66543 13.3446 1.66543 13.3637 1.66668C13.5478 1.68848 13.7088 1.80074 13.7929 1.96586C14.027 2.40504 14.1066 2.91016 14.0187 3.40004C13.8837 4.69336 13.1937 5.37172 12.9762 5.37172C12.9379 5.37172 12.7854 5.26754 12.6337 4.98004C12.3794 4.43414 12.286 3.82707 12.3646 3.23Z" fill="#C1C7D1"/>
<path d="M9.9996 9.16675C6.2146 9.16675 2.4996 13.0342 2.4946 16.9742C2.39128 19.6401 4.66128 20.6059 7.41128 19.6226C9.08777 19.0509 10.9065 19.0509 12.583 19.6226C13.2289 19.8407 13.902 19.9677 14.583 20.0001C16.9938 20.0001 17.4996 18.3542 17.4996 16.9742C17.4996 13.0342 13.7846 9.16675 9.9996 9.16675ZM9.9996 17.5001C8.12128 17.2026 3.9796 19.8609 4.16628 16.9742C4.16628 13.9326 7.11046 10.8334 9.9996 10.8334C12.8887 10.8334 15.8329 13.9326 15.8329 16.9742C16.0213 19.8584 11.8871 17.2059 9.9996 17.5001Z" fill="#C1C7D1"/>
<path d="M18.3082 6.15879L18.3078 6.16043C18.2396 6.14414 18.1706 6.13152 18.101 6.1225C16.8575 5.95953 15.7035 6.96543 15.4611 8.8255C15.2309 10.6054 15.966 12.1826 17.1199 12.4562C17.1721 12.4687 17.225 12.4784 17.2783 12.4852C18.5245 12.6471 19.7262 11.2671 19.9664 9.40902C20.1934 7.65324 19.4393 6.42699 18.3082 6.15879ZM18.3138 9.19449C18.2252 9.81781 17.9902 10.4239 17.4937 10.8217C17.1142 10.3109 17.0187 9.69847 17.1139 9.03929C17.2107 8.63097 17.3024 8.22714 17.5699 7.9073C17.7157 7.74156 17.8394 7.76738 17.8876 7.77367L17.9236 7.7816C18.1968 7.84636 18.4176 8.39179 18.3138 9.19449Z" fill="#C1C7D1"/>
</svg>
