<svg width="20" height="20" viewBox="0 0 20 20" fill="none" xmlns="http://www.w3.org/2000/svg">
<path fill-rule="evenodd" clip-rule="evenodd" d="M11.5242 15.8334C11.2809 15.8334 11.0392 15.7275 10.8742 15.5225L6.85088 10.5225C6.60254 10.2134 6.60588 9.77169 6.86004 9.46669L11.0267 4.46669C11.3209 4.11336 11.8467 4.06586 12.2009 4.36003C12.5542 4.65419 12.6017 5.18003 12.3067 5.53336L8.57754 10.0092L12.1734 14.4775C12.4617 14.8359 12.405 15.3609 12.0459 15.6492C11.8925 15.7734 11.7075 15.8334 11.5242 15.8334Z" fill="#64748B"/>
<mask id="mask0_140_4576" style="mask-type:alpha" maskUnits="userSpaceOnUse" x="6" y="4" width="7" height="12">
<path fill-rule="evenodd" clip-rule="evenodd" d="M11.5242 15.8334C11.2809 15.8334 11.0392 15.7275 10.8742 15.5225L6.85088 10.5225C6.60254 10.2134 6.60588 9.77169 6.86004 9.46669L11.0267 4.46669C11.3209 4.11336 11.8467 4.06586 12.2009 4.36003C12.5542 4.65419 12.6017 5.18003 12.3067 5.53336L8.57754 10.0092L12.1734 14.4775C12.4617 14.8359 12.405 15.3609 12.0459 15.6492C11.8925 15.7734 11.7075 15.8334 11.5242 15.8334Z" fill="white"/>
</mask>
<g mask="url(#mask0_140_4576)">
<rect width="20" height="20" fill="#64748B"/>
</g>
</svg>
