<svg width="88" height="88" viewBox="0 0 88 88" fill="none" xmlns="http://www.w3.org/2000/svg">
<g clip-path="url(#clip0_24_1357)">
<path d="M30.1404 57.7002C32.6625 55.1781 32.6625 51.0889 30.1404 48.5667C27.6182 46.0446 23.5291 46.0446 21.0069 48.5667C18.4848 51.0889 18.4848 55.1781 21.0069 57.7002C23.5291 60.2223 27.6182 60.2223 30.1404 57.7002Z" fill="#FF8E7E"/>
<path d="M31.0537 42.1733C33.5758 39.6512 33.5758 35.562 31.0537 33.0399C28.5316 30.5177 24.4424 30.5177 21.9202 33.0399C19.3981 35.562 19.3981 39.6512 21.9202 42.1733C24.4424 44.6955 28.5316 44.6955 31.0537 42.1733Z" fill="#FF8E7E"/>
<path d="M42.0139 31.2132C44.5361 28.691 44.5361 24.6018 42.0139 22.0797C39.4918 19.5576 35.4026 19.5576 32.8805 22.0797C30.3583 24.6018 30.3583 28.691 32.8805 31.2132C35.4026 33.7353 39.4918 33.7353 42.0139 31.2132Z" fill="#FF8E7E"/>
<path d="M57.5408 30.2998C60.0629 27.7777 60.0629 23.6885 57.5408 21.1664C55.0186 18.6442 50.9294 18.6442 48.4073 21.1664C45.8852 23.6885 45.8852 27.7777 48.4073 30.2998C50.9294 32.822 55.0186 32.822 57.5408 30.2998Z" fill="#FF8E7E"/>
<path d="M58.8194 39.4698C55.367 39.1958 52.4443 38.9401 48.9735 38.6843C47.1468 38.5382 45.0827 38.6295 43.3656 39.4698C43.0916 39.5977 42.8358 39.7438 42.5984 39.9082C42.0686 40.2918 41.5754 40.785 41.1005 41.26C40.6256 41.7349 40.1323 42.2281 39.7487 42.7944C39.5843 43.0318 39.4382 43.2876 39.3103 43.5616C38.4701 45.2787 38.397 47.3246 38.5249 49.1695C38.7989 52.622 39.0546 55.5447 39.3103 59.0154C39.3103 63.8013 39.0181 69.391 43.2743 72.5512C45.6672 73.8847 48.8457 74.3961 51.7684 72.5329C53.3759 71.4734 56.5543 66.1395 61.0845 61.6093L61.4133 61.2805C65.9435 56.7503 71.2592 53.5536 72.3369 51.9644C74.2002 49.0417 73.6704 45.8449 72.3552 43.4702C69.195 39.1775 63.6053 39.4698 58.8194 39.4698Z" fill="#FF8E7E"/>
</g>
<defs>
<clipPath id="clip0_24_1357">
<rect width="62" height="62" fill="white" transform="translate(0 44) rotate(-45)"/>
</clipPath>
</defs>
</svg>
