<svg width="36" height="36" viewBox="0 0 36 36" fill="none" xmlns="http://www.w3.org/2000/svg">
<path d="M0 18C0 8.05888 8.05888 0 18 0C27.9411 0 36 8.05888 36 18C36 27.9411 27.9411 36 18 36C8.05888 36 0 27.9411 0 18Z" fill="#6F47FF"/>
<path fill-rule="evenodd" clip-rule="evenodd" d="M19.6666 13.8333C19.6666 12.9142 18.9191 12.1667 18 12.1667C17.0808 12.1667 16.3333 12.9142 16.3333 13.8333C16.3333 14.7525 17.0808 15.5 18 15.5C18.9191 15.5 19.6666 14.7525 19.6666 13.8333ZM21.3333 13.8333C21.3333 15.6717 19.8383 17.1667 18 17.1667C16.1616 17.1667 14.6666 15.6717 14.6666 13.8333C14.6666 11.995 16.1616 10.5 18 10.5C19.8383 10.5 21.3333 11.995 21.3333 13.8333ZM12.1666 24.6667C12.1666 21.45 14.7841 18.8333 18 18.8333C21.2158 18.8333 23.8333 21.45 23.8333 24.6667C23.8333 25.1267 23.4608 25.5 23 25.5C22.5391 25.5 22.1666 25.1267 22.1666 24.6667C22.1666 22.3692 20.2975 20.5 18 20.5C15.7025 20.5 13.8333 22.3692 13.8333 24.6667C13.8333 25.1267 13.4608 25.5 13 25.5C12.5391 25.5 12.1666 25.1267 12.1666 24.6667Z" fill="white"/>
<mask id="mask0_375_5613" style="mask-type:alpha" maskUnits="userSpaceOnUse" x="12" y="10" width="12" height="16">
<path fill-rule="evenodd" clip-rule="evenodd" d="M19.6666 13.8333C19.6666 12.9142 18.9191 12.1667 18 12.1667C17.0808 12.1667 16.3333 12.9142 16.3333 13.8333C16.3333 14.7525 17.0808 15.5 18 15.5C18.9191 15.5 19.6666 14.7525 19.6666 13.8333ZM21.3333 13.8333C21.3333 15.6717 19.8383 17.1667 18 17.1667C16.1616 17.1667 14.6666 15.6717 14.6666 13.8333C14.6666 11.995 16.1616 10.5 18 10.5C19.8383 10.5 21.3333 11.995 21.3333 13.8333ZM12.1666 24.6667C12.1666 21.45 14.7841 18.8333 18 18.8333C21.2158 18.8333 23.8333 21.45 23.8333 24.6667C23.8333 25.1267 23.4608 25.5 23 25.5C22.5391 25.5 22.1666 25.1267 22.1666 24.6667C22.1666 22.3692 20.2975 20.5 18 20.5C15.7025 20.5 13.8333 22.3692 13.8333 24.6667C13.8333 25.1267 13.4608 25.5 13 25.5C12.5391 25.5 12.1666 25.1267 12.1666 24.6667Z" fill="white"/>
</mask>
<g mask="url(#mask0_375_5613)">
<rect x="8" y="8" width="20" height="20" fill="white"/>
</g>
</svg>
