<svg width="252" height="98" viewBox="0 0 252 98" fill="none" xmlns="http://www.w3.org/2000/svg">
<path d="M251.14 19.1659C250.125 10.9315 243.159 3.25171 234.859 3.25171C229.962 3.25171 225.309 5.80852 221.962 9.38052C220.775 10.5919 219.678 11.8895 218.682 13.2627C217.981 11.721 217.164 10.2347 216.238 8.81651C213.662 4.65231 209.601 1.22131 204.798 0.262514C196.667 -1.36369 188.329 4.78391 185.707 12.6611C183.084 20.5383 185.265 29.3649 189.579 36.4525C193.894 43.5401 201.311 52.7991 214.959 57.3957C224.359 56.1831 237.012 47.8265 242.633 41.7259C248.254 35.6253 252.127 27.3909 251.14 19.1659Z" fill="#FF6F47"/>
<path d="M248.113 33.9428C248.023 33.953 247.931 33.953 247.841 33.9428L247.042 33.8864L243.968 33.6326L232.688 32.5986L232.895 32.4764C231.532 36.0202 229.943 40.175 228.195 44.6964L227.913 45.4296L227.725 44.6588C226.287 38.718 224.689 32.0534 223.025 25.0316C222.508 22.8602 221.991 20.717 221.493 18.6302L221.972 18.7242L213.362 30.5682L213.277 30.681H213.136L193.321 28.613L187.681 27.9926L186.196 27.8046C186.023 27.7953 185.852 27.7637 185.688 27.7106C185.86 27.6939 186.033 27.6939 186.205 27.7106L187.69 27.814L193.33 28.3028L213.164 30.1828L212.948 30.2768L221.521 18.414L221.859 17.9346L221.991 18.508C222.498 20.5948 223.006 22.7286 223.532 24.9094L228.232 44.546H227.762C229.539 40.0058 231.165 35.8604 232.556 32.326L232.603 32.185H232.754L244.034 33.3882L247.089 33.7454L247.888 33.8488C247.967 33.8702 248.043 33.9018 248.113 33.9428Z" fill="#F0F3FA"/>
<path d="M27.0097 60.5557H20.8057V88.3703H27.0097V60.5557Z" fill="#FF6F47"/>
<path d="M9.99561 71.3563V77.5603H37.8102V71.3563H9.99561Z" fill="#FF6F47"/>
<path d="M47.0035 74.5335C46.9803 74.4092 46.9646 74.2837 46.9565 74.1575C46.9565 73.8849 46.9095 73.5183 46.8813 73.0577C46.8813 72.8133 46.8813 72.5407 46.8249 72.2493C46.7685 71.9579 46.7309 71.6289 46.6745 71.3093C46.5703 70.5026 46.4069 69.7045 46.1857 68.9217C45.6413 66.7605 44.7729 64.6942 43.6101 62.7929C40.8702 58.1994 36.6129 54.7063 31.5727 52.9165C26.5325 51.1266 21.0257 51.1521 16.0023 52.9887C14.9733 53.3569 13.9713 53.7966 13.0037 54.3047C12.0229 54.8436 11.0807 55.4498 10.1837 56.1189C9.26852 56.7977 8.39874 57.5356 7.57993 58.3279C6.77389 59.1647 6.02341 60.0534 5.33331 60.9881C3.91051 62.9057 2.80304 65.0381 2.05272 67.3049C0.473638 72.0043 0.473638 77.091 2.05272 81.7903C2.80094 84.058 3.90858 86.1908 5.33331 88.1071C6.01863 89.0456 6.76938 89.9346 7.57993 90.7673C8.39622 91.5653 9.26618 92.3065 10.1837 92.9857C11.0807 93.6549 12.0229 94.261 13.0037 94.7999C13.9732 95.3041 14.9749 95.7438 16.0023 96.1159C21.0259 97.9385 26.5269 97.958 31.5633 96.1711C36.5998 94.3843 40.8584 90.9022 43.6101 86.3211C44.7748 84.4174 45.6433 82.3477 46.1857 80.1829C46.4077 79.4035 46.5711 78.6085 46.6745 77.8047C46.7309 77.4475 46.7967 77.1279 46.8249 76.8647C46.8531 76.6015 46.8249 76.3007 46.8813 76.0563C46.8813 75.5863 46.9377 75.2291 46.9565 74.9565C46.9637 74.8303 46.9794 74.7047 47.0035 74.5805C47.014 74.7056 47.014 74.8314 47.0035 74.9565C47.0035 75.2291 47.0035 75.5957 47.0035 76.0563V76.8741C47.0035 77.1749 46.9189 77.4945 46.8813 77.8141C46.7878 78.6259 46.637 79.43 46.4301 80.2205C45.9097 82.4146 45.057 84.5163 43.9015 86.4527C42.2064 89.314 39.9198 91.7803 37.1948 93.6866C34.4698 95.593 31.3691 96.8956 28.1001 97.5071C24.0112 98.2651 19.7944 97.9246 15.8801 96.5201C14.834 96.1417 13.8135 95.6959 12.8251 95.1853C10.8049 94.0724 8.94286 92.694 7.2885 91.0869C6.46193 90.239 5.69556 89.3344 4.99493 88.3797C3.5325 86.424 2.399 84.2427 1.63912 81.9219C0.864479 79.5312 0.455653 77.0371 0.426514 74.5241C0.460994 72.0147 0.869702 69.5245 1.63912 67.1357C2.40301 64.8195 3.53623 62.642 4.99493 60.6873C5.69787 59.7315 6.4641 58.824 7.2885 57.9707C8.12623 57.1657 9.01481 56.4153 9.94872 55.7241C12.527 53.8224 15.4688 52.4713 18.5915 51.7549C21.7141 51.0385 24.9507 50.9722 28.1001 51.5599C31.3531 52.1849 34.4359 53.4947 37.144 55.4021C39.8521 57.3096 42.1235 59.7713 43.8075 62.6237C44.9612 64.5577 45.8138 66.656 46.3361 68.8465C46.5423 69.6404 46.693 70.4476 46.7873 71.2623C46.7873 71.6101 46.8907 71.9391 46.9095 72.2023V73.0107C46.9095 73.4807 46.9095 73.8473 46.9095 74.1199C46.9534 74.2546 46.9849 74.3931 47.0035 74.5335Z" fill="#FF6F47"/>
</svg>
