<svg width="262" height="40" viewBox="0 0 262 40" fill="none" xmlns="http://www.w3.org/2000/svg">
<path fill-rule="evenodd" clip-rule="evenodd" d="M257.124 13.054V10.5902H258.024L258.64 12.3428L259.256 10.5902H260.156V13.054H259.586V11.2061L258.924 13.054H258.354L257.642 11.2537V13.054H257.124ZM255.322 13.054V11.0172H254.374V10.5902H256.935V11.0172H255.938V13.054H255.322ZM208.937 3.43663L209.032 3.53185C209.553 3.95738 209.932 4.43051 210.218 5.04797C210.661 5.9387 210.892 6.92009 210.892 7.91503C210.892 8.90997 210.661 9.89137 210.218 10.7821C210.037 11.2045 209.78 11.5899 209.459 11.9188C209.144 12.2692 208.755 12.5447 208.32 12.7252C207.909 12.935 207.454 13.0443 206.993 13.0443C206.532 13.0443 206.077 12.935 205.667 12.7252C205.246 12.5439 204.874 12.268 204.578 11.9188C204.246 11.587 204.011 11.2076 203.773 10.7821C203.346 9.88196 203.111 8.9342 203.157 7.93884V7.70227C203.157 6.75452 203.346 5.90198 203.773 5.04945C204.011 4.62244 204.246 4.24453 204.578 3.91274C204.854 3.59441 205.194 3.3366 205.575 3.15543V3.10782C205.479 2.87125 205.479 2.68081 205.479 2.44425V2.34902C205.479 2.01724 205.575 1.63784 205.717 1.30754C205.906 0.928136 206.191 0.596349 206.616 0.407393C206.948 0.266048 207.281 0.218438 207.659 0.31366C208.013 0.372414 208.333 0.558085 208.559 0.835888C208.702 0.977233 208.794 1.12007 208.891 1.30902C209.223 2.01426 209.223 2.77306 208.937 3.43663ZM222.68 10.733L222.726 10.7806C223.011 11.0172 223.247 11.2537 223.485 11.5855C223.72 12.0125 223.909 12.3905 224.052 12.8651C224.334 13.8124 224.399 14.8107 224.243 15.7866C224.088 16.7626 223.715 17.6911 223.153 18.504C222.871 18.8821 222.535 19.2173 222.157 19.4994C221.779 19.7835 221.398 20.0201 220.974 20.1153C220.026 20.3995 219.08 20.2567 218.321 19.6883C217.94 19.4041 217.608 19.12 217.37 18.7406C217.109 18.3435 216.903 17.9132 216.757 17.461C216.473 16.508 216.424 15.5002 216.614 14.524V14.3336C216.751 13.6537 216.99 12.9985 217.324 12.3905L217.232 12.4857C216.771 12.9173 216.22 13.2411 215.619 13.4334C215.183 13.5781 214.718 13.6148 214.265 13.5404C213.811 13.4661 213.382 13.2828 213.015 13.0064C212.628 12.7538 212.29 12.4326 212.018 12.0587C211.79 11.6507 211.6 11.2229 211.449 10.7806C211.175 9.82607 211.111 8.82382 211.26 7.84213L211.309 7.65317C211.498 6.70542 211.829 5.9005 212.349 5.1417C212.633 4.76379 212.965 4.43051 213.346 4.10021C213.703 3.83065 214.103 3.62248 214.528 3.48424H214.577L214.528 3.43663C214.339 3.05724 214.197 2.63023 214.244 2.2047V2.10948C214.244 1.73157 214.293 1.39829 214.482 1.06799C214.671 0.688595 214.955 0.356808 215.333 0.167852C215.668 -0.0211037 216.046 -0.0211055 216.376 0.0265053C216.757 0.121727 217.038 0.26307 217.324 0.547247C217.467 0.69008 217.562 0.879038 217.656 1.06948C217.821 1.41745 217.907 1.79787 217.907 2.18313C217.907 2.56839 217.821 2.9488 217.656 3.29677C217.513 3.53483 217.372 3.76991 217.183 3.91274L217.278 4.00648C217.656 4.29065 217.894 4.57483 218.129 4.90662C218.413 5.33363 218.602 5.71154 218.745 6.18616C219.225 7.88507 219.021 9.70432 218.178 11.2552L218.27 11.1615C218.602 10.8282 218.935 10.5931 219.359 10.4027L219.313 10.3075C219.267 10.0709 219.218 9.88047 219.218 9.6439V9.55017C219.267 9.17077 219.313 8.83898 219.502 8.50719C219.645 8.12928 219.975 7.79601 220.356 7.60705C220.688 7.46422 221.066 7.41809 221.396 7.46422C221.777 7.55944 222.061 7.74839 222.296 7.98645C222.439 8.1754 222.581 8.31824 222.677 8.50719C223.011 9.21689 223.011 10.0218 222.68 10.733ZM202.542 9.50107L202.591 9.54868C203.204 9.97569 203.681 10.5426 204.012 11.2537C204.456 12.1357 204.686 13.1092 204.686 14.0963C204.686 15.0834 204.456 16.0568 204.012 16.9388C203.774 17.3658 203.539 17.7437 203.204 18.1231C202.883 18.4435 202.516 18.7152 202.115 18.9295C201.705 19.14 201.25 19.2497 200.789 19.2497C200.328 19.2497 199.873 19.14 199.463 18.9295C199.038 18.6929 198.658 18.4564 198.326 18.1231C198.013 17.7701 197.757 17.3705 197.567 16.9388C197.094 16.0386 196.905 15.0909 196.905 14.0955V13.9066C196.951 12.9588 197.143 12.1063 197.567 11.2537C197.756 10.8267 197.994 10.4473 198.326 10.0694C198.564 9.83137 198.799 9.64242 199.085 9.50107L199.038 9.40585C198.989 9.16928 198.943 8.97884 198.943 8.74227V8.64853C198.989 8.26914 199.038 7.93735 199.227 7.65317C199.37 7.22616 199.701 6.94198 200.078 6.70542C200.41 6.56258 200.791 6.51646 201.121 6.6102C201.499 6.65781 201.784 6.84825 202.022 7.13243C202.164 7.27526 202.306 7.4166 202.4 7.60556C202.684 8.22152 202.731 8.88511 202.542 9.50107ZM209.223 15.8497C210.359 15.6607 211.498 15.8973 212.492 16.418C213.427 16.9267 214.237 17.6391 214.86 18.5025C215.003 18.6915 215.144 18.8819 215.287 19.0232C215.476 19.2122 215.714 19.4026 215.949 19.4979L218.224 20.825C218.886 21.2505 219.456 21.7728 219.977 22.3411V22.3887C220.642 23.2413 221.02 24.2828 221.066 25.3733C221.123 26.465 220.824 27.5457 220.215 28.4532C219.599 29.4009 218.794 30.0645 217.703 30.4424C216.66 30.8694 215.617 30.9155 214.527 30.6314H214.482C210.975 29.4947 207.516 29.2105 203.82 29.7312C202.641 29.919 201.433 29.6846 200.409 29.0691C199.38 28.4592 198.581 27.5266 198.137 26.4163C197.71 25.2781 197.71 24.0938 198.042 22.9571C198.423 21.7728 199.131 20.825 200.175 20.1614C201.075 19.5455 202.023 19.2137 203.16 19.0723H203.206C203.931 18.9371 204.624 18.6633 205.246 18.2659C205.481 18.1231 205.67 17.9818 205.908 17.7437C206.192 17.4595 206.475 17.223 206.808 16.9388C207.485 16.3973 208.281 16.0241 209.13 15.8497H209.223ZM232.488 32.1014C231.672 26.9858 230.692 21.8978 229.55 16.845C229.454 16.3228 229.026 15.8497 228.507 15.6607C228.364 15.6152 228.232 15.5415 228.118 15.4438C228.004 15.3462 227.911 15.2267 227.845 15.0924C227.702 14.8558 227.656 14.5716 227.702 14.2874C227.748 13.9557 227.937 13.6239 228.175 13.3873C228.41 13.1493 228.745 13.0079 229.075 12.9603C229.906 12.8255 230.751 12.8094 231.586 12.9127C233.577 13.1969 235.376 13.6239 237.27 14.3336C237.935 14.5716 238.456 14.9034 238.975 15.3289C239.167 15.4718 239.307 15.7083 239.402 15.8973C239.489 16.1242 239.505 16.3722 239.448 16.6085C239.402 16.845 239.305 17.0816 239.116 17.2244C238.962 17.4195 238.744 17.5538 238.5 17.6038C238.327 17.6667 238.179 17.7829 238.076 17.9356C238.021 18.0882 237.989 18.2482 237.981 18.4103L238.881 23.5269C238.881 23.6207 238.927 23.7159 238.974 23.7635C239.069 23.8587 239.116 23.9063 239.212 23.9063C239.255 23.9298 239.304 23.942 239.354 23.942C239.403 23.942 239.452 23.9298 239.496 23.9063C239.588 23.8587 239.685 23.8111 239.731 23.7174L241.436 21.4901L241.012 19.1676C240.92 18.7469 240.724 18.3561 240.442 18.0309C240.299 17.8419 240.204 17.6038 240.158 17.3673C240.112 17.1307 240.112 16.8941 240.204 16.6561C240.299 16.4671 240.442 16.2767 240.631 16.1353C240.869 15.9464 241.058 15.8988 241.344 15.8512C242.037 15.8036 242.733 15.8036 243.427 15.8512C245.938 16.1353 248.164 16.8465 250.342 18.0309C250.574 18.1585 250.758 18.358 250.866 18.5992C251.009 18.8373 251.055 19.1214 251.009 19.4056C250.947 19.6585 250.815 19.8886 250.628 20.0692C250.393 20.2582 250.155 20.401 249.869 20.4486C249.785 20.4532 249.703 20.4769 249.63 20.5179C249.556 20.5589 249.493 20.6161 249.445 20.6852C249.35 20.828 249.253 21.017 249.302 21.2074C249.491 22.9601 249.775 24.5714 250.25 26.3241C250.25 26.4193 250.296 26.4669 250.393 26.5621C250.458 26.6203 250.541 26.6536 250.628 26.6559C250.723 26.7035 250.771 26.6559 250.866 26.6559C250.955 26.608 251.035 26.5439 251.101 26.4669L253.897 22.6774C254.039 22.4869 254.089 22.2504 254.039 22.0138C253.947 21.7772 253.804 21.5883 253.612 21.4931C253.377 21.3502 253.188 21.2089 253.046 20.9708C252.95 20.7343 252.903 20.4977 252.903 20.2596C252.903 20.0216 252.998 19.7865 253.138 19.5961C253.33 19.3595 253.519 19.2167 253.754 19.1691C254.466 18.9325 255.129 18.8373 255.887 18.9325C257.749 19.1508 259.542 19.7646 261.147 20.7328C261.37 20.8989 261.535 21.1303 261.62 21.3949C261.732 21.6493 261.748 21.9357 261.666 22.2013C261.523 22.5331 261.288 22.8648 260.956 23.0538C260.625 23.2428 260.244 23.2904 259.867 23.2428C259.536 23.149 259.251 23.1951 258.967 23.2904C258.683 23.3856 258.446 23.5745 258.208 23.8111C257.546 24.5699 256.976 25.2796 256.314 26.086L248.97 35.4668C248.612 35.9258 248.215 36.3538 247.785 36.7464C247.264 37.2671 246.507 37.4576 245.794 37.3148C245.442 37.2469 245.112 37.0951 244.832 36.8723C244.552 36.6496 244.329 36.3624 244.184 36.0352C243.946 35.4192 243.757 34.8509 243.663 34.1873L242.62 27.2703C242.574 27.1751 242.574 27.1275 242.477 27.0799C242.424 27.0216 242.36 26.9737 242.288 26.9386C242.239 26.9386 242.146 26.9386 242.1 26.9862C242.004 26.9862 241.957 27.0338 241.908 27.0799L237.548 32.8602C237.216 33.3333 236.886 33.7127 236.412 34.0921C235.937 34.4715 235.322 34.6604 234.706 34.6128C234.091 34.5191 233.521 34.2334 233.143 33.7127C232.811 33.2289 232.588 32.6793 232.488 32.1014ZM175.63 5.5211C176.413 5.2761 177.228 5.14825 178.048 5.1417C179.374 5.1417 180.606 5.18931 181.933 5.33214C183.211 5.47348 184.348 5.85289 185.487 6.42124C185.732 6.56667 185.93 6.78084 186.054 7.0372C186.149 7.27526 186.197 7.55944 186.149 7.84361C186.104 8.12669 185.951 8.38131 185.722 8.5548C185.504 8.73197 185.242 8.84663 184.964 8.88659C184.803 8.88855 184.645 8.92307 184.499 8.98804C184.353 9.05301 184.221 9.14707 184.112 9.2645C183.921 9.45346 183.732 9.73763 183.732 10.0233C183.211 13.6715 182.881 16.9403 182.595 20.5899C182.595 20.8265 182.641 21.0631 182.784 21.252C182.893 21.4408 183.058 21.5902 183.257 21.679C183.97 21.9632 184.632 22.0584 185.391 22.0584C186.103 22.0222 186.784 21.7559 187.332 21.2996C187.902 20.8726 188.283 20.3058 188.472 19.5946C188.562 19.3314 188.748 19.1117 188.993 18.9786C189.116 18.9138 189.251 18.876 189.39 18.8678C189.529 18.8596 189.668 18.8811 189.798 18.931C190.413 19.1676 190.887 19.5946 191.079 20.2105C191.268 20.6837 191.314 21.1583 191.171 21.6314C190.811 23.2297 189.907 24.6534 188.613 25.659C188.447 25.8043 188.243 25.8992 188.025 25.9326C187.807 25.9661 187.583 25.9367 187.381 25.848C186.568 25.5644 185.726 25.3738 184.87 25.2796L174.114 24.0953C173.807 24.0406 173.525 23.8913 173.306 23.6683C173.117 23.4317 172.975 23.1937 172.975 22.8619C172.928 22.5301 173.024 22.2459 173.213 22.0093C173.402 21.7728 173.637 21.5838 173.971 21.4886C174.303 21.3934 174.633 21.2505 174.87 20.9664C175.154 20.6822 175.297 20.398 175.394 20.0186C175.678 18.9756 175.867 18.0294 176.01 16.9388C176.341 14.3321 176.53 11.9173 176.626 9.31062C176.645 9.16703 176.633 9.02103 176.592 8.88209C176.551 8.74316 176.482 8.61441 176.388 8.50421C176.245 8.26765 176.01 8.12631 175.726 8.03109C175.442 7.98434 175.188 7.83168 175.013 7.60407C174.829 7.37533 174.729 7.09094 174.729 6.79766C174.683 6.51349 174.778 6.27692 174.967 6.04035C175.116 5.79149 175.353 5.60661 175.63 5.5211ZM149.715 3.81454C150.467 3.50165 151.27 3.32531 152.084 3.2938C153.377 3.19858 154.675 3.19858 155.968 3.2938C157.214 3.32977 158.439 3.61989 159.569 4.14634C159.826 4.27061 160.041 4.46842 160.185 4.71469C160.328 4.95126 160.374 5.23543 160.328 5.51961C160.282 5.80378 160.139 6.04184 159.947 6.27841C159.851 6.38301 159.734 6.4665 159.604 6.52361C159.474 6.58072 159.333 6.61021 159.191 6.6102C158.884 6.66493 158.602 6.81421 158.383 7.0372C158.183 7.28212 158.052 7.57669 158.005 7.88974C157.721 11.4903 157.532 14.8067 157.532 18.4564C157.486 18.6929 157.578 18.9295 157.721 19.12C157.864 19.3089 158.005 19.4517 158.242 19.4994C158.955 19.7359 159.617 19.8311 160.375 19.7359C161.08 19.6905 161.748 19.4061 162.27 18.9295C162.839 18.4564 163.17 17.8404 163.312 17.1292C163.408 16.8927 163.551 16.6546 163.786 16.5133C164.07 16.3704 164.355 16.3243 164.591 16.4195C165.207 16.6085 165.73 17.0355 165.965 17.6038C166.154 18.077 166.203 18.5516 166.154 19.0247C165.889 20.653 165.048 22.1321 163.786 23.1937C163.454 23.4778 162.981 23.6207 162.554 23.4778C161.703 23.2413 160.895 23.0508 160.042 23.0047L149.24 22.3887C148.926 22.3799 148.624 22.2627 148.386 22.057C148.197 21.8189 148.055 21.5838 148.009 21.2505C147.968 20.9529 148.035 20.6505 148.198 20.398C148.363 20.1335 148.613 19.9331 148.907 19.8297C149.288 19.7359 149.572 19.5455 149.807 19.2613C150.092 18.9771 150.234 18.6929 150.28 18.3135C150.469 17.2244 150.612 16.2291 150.707 15.1861C150.896 12.5333 150.946 10.1646 150.946 7.51034C150.946 7.22616 150.803 6.9896 150.661 6.75303C150.469 6.51646 150.188 6.37363 149.903 6.32602C149.617 6.27841 149.379 6.13706 149.19 5.89901C149.001 5.66095 148.858 5.42588 148.858 5.14021C148.824 4.85802 148.891 4.57292 149.047 4.33529C149.24 4.10021 149.429 3.90976 149.715 3.81454ZM129.72 3.24768C132.8 2.29993 135.926 2.29992 139.007 3.29529C139.291 3.39051 139.48 3.57947 139.669 3.81603C139.812 4.0526 139.907 4.28917 139.907 4.62244C139.907 4.90662 139.812 5.14319 139.623 5.38124C139.438 5.60673 139.19 5.77155 138.91 5.85437C138.703 5.90074 138.519 6.01875 138.39 6.18765C138.242 6.35971 138.158 6.57712 138.152 6.80362C137.774 10.6422 137.774 14.2428 138.152 18.08C138.201 18.3641 138.247 18.5531 138.436 18.7435C138.582 18.936 138.78 19.0839 139.006 19.1705C139.333 19.2572 139.619 19.4589 139.811 19.7389C139.909 19.8652 139.98 20.0101 140.02 20.1649C140.061 20.3196 140.069 20.4809 140.046 20.639C140.002 20.893 139.906 21.1351 139.764 21.3502C139.573 21.5392 139.384 21.682 139.099 21.7296C135.926 22.6774 132.703 22.6774 129.53 21.682C129.198 21.5883 128.961 21.4454 128.772 21.1598C128.617 20.9026 128.535 20.6077 128.536 20.3073C128.583 20.0231 128.677 19.7389 128.867 19.5008C129.078 19.2694 129.363 19.1184 129.672 19.0738C129.925 19.0138 130.156 18.8821 130.336 18.6944C130.503 18.4881 130.617 18.2439 130.668 17.9832C130.952 14.1446 130.952 10.6869 130.668 6.84974C130.667 6.72582 130.641 6.60336 130.592 6.48945C130.543 6.37553 130.473 6.27245 130.384 6.18616C130.195 5.99572 130.004 5.85288 129.766 5.80676C129.434 5.71154 129.198 5.56871 129.009 5.28453C128.915 5.17456 128.845 5.04579 128.804 4.90676C128.763 4.76773 128.752 4.62163 128.772 4.47812C128.772 4.19395 128.867 3.90976 129.009 3.72081C129.193 3.49495 129.441 3.33002 129.72 3.24768ZM113.8 7.22616C113.611 6.89422 113.308 6.6417 112.948 6.51498C112.597 6.33824 112.2 6.27234 111.811 6.32602C111.762 6.32523 111.714 6.3382 111.672 6.36346C111.63 6.38872 111.596 6.42524 111.574 6.46885C111.479 6.56258 111.431 6.65781 111.431 6.75303L111.574 11.8221C111.574 11.9649 111.622 12.0587 111.716 12.1539C111.811 12.2476 111.954 12.2952 112.047 12.2476C112.568 12.2 113.043 12.0111 113.47 11.7269C113.802 11.4427 114.038 11.1585 114.181 10.7315C114.653 9.59629 114.51 8.31675 113.8 7.22616ZM104.797 18.4564C104.988 14.524 104.892 10.9234 104.419 7.0372C104.372 6.75303 104.278 6.51646 104.04 6.32602C103.845 6.14193 103.595 6.0256 103.329 5.99423C103.162 5.99861 102.998 5.96193 102.849 5.88745C102.7 5.81297 102.572 5.70298 102.476 5.56722C102.355 5.45288 102.262 5.31214 102.205 5.156C102.147 4.99986 102.127 4.83254 102.144 4.66708C102.148 4.32899 102.285 4.00592 102.524 3.76693C102.64 3.64508 102.779 3.54857 102.934 3.48352C103.089 3.41846 103.256 3.38629 103.424 3.38902L114.511 2.9144C115.742 2.85812 116.966 3.11944 118.066 3.6732C119.961 4.62096 121.193 6.42124 121.287 8.55331C121.363 9.40459 121.259 10.2624 120.981 11.0707C120.704 11.879 120.259 12.6197 119.676 13.2445C118.491 14.5716 116.928 15.3289 115.127 15.4718L112.238 15.5655C112.176 15.5637 112.114 15.5756 112.056 15.6003C111.999 15.6249 111.948 15.6618 111.906 15.7083C111.812 15.8021 111.812 15.9449 111.812 16.0401L112.049 18.3626C112.085 18.6041 112.183 18.8322 112.333 19.0247C112.522 19.2137 112.713 19.3565 112.949 19.4517C113.166 19.5025 113.367 19.6074 113.533 19.7568C113.699 19.9061 113.824 20.095 113.897 20.3058C114.04 20.7328 113.944 21.1583 113.66 21.5377C113.328 21.9647 112.903 22.2013 112.382 22.3426C110.095 22.949 107.705 23.0626 105.37 22.6759C104.754 22.5807 104.233 22.4378 103.711 22.1537C103.427 22.0108 103.238 21.8695 103.095 21.5853C102.952 21.3472 102.906 21.1107 102.952 20.8265C102.952 20.5423 103.048 20.3058 103.236 20.0677C103.402 19.8441 103.635 19.6785 103.9 19.5946C104.027 19.57 104.147 19.5194 104.253 19.4459C104.359 19.3724 104.449 19.2776 104.516 19.1676C104.608 19.074 104.681 18.9627 104.729 18.8406C104.777 18.7184 104.8 18.5877 104.797 18.4564ZM57.3708 8.31675L68.1264 6.75303C68.4582 6.42124 68.8852 6.23079 69.3584 6.23079C69.8315 6.18467 70.257 6.32602 70.6364 6.6102C72.0825 7.6314 73.0694 9.17991 73.3844 10.922C73.479 11.3524 73.4293 11.802 73.2431 12.2015C73.0526 12.5906 72.7574 12.9188 72.3906 13.1493C72.0112 13.3873 71.6318 13.5287 71.1586 13.481C70.7316 13.481 70.3061 13.3382 69.9267 13.1031C69.2339 12.5623 68.6408 11.9047 68.174 11.16C68.137 11.0817 68.0844 11.0117 68.0194 10.9544C67.9545 10.8971 67.8785 10.8537 67.7961 10.8267C67.6251 10.7804 67.4449 10.7804 67.2739 10.8267C67.0849 10.8743 66.9897 10.9696 66.8945 11.16C66.7984 11.2988 66.7485 11.4644 66.7517 11.6331L67.9836 19.4503C68.1264 20.3043 68.3154 21.1092 68.5519 21.9617C68.6117 22.2263 68.7629 22.4613 68.979 22.6253C69.2155 22.8143 69.4997 22.8619 69.7839 22.8619C70.068 22.8619 70.3522 22.9095 70.5427 23.0984C70.7867 23.232 70.9723 23.4516 71.0634 23.7144C71.2062 23.951 71.2062 24.2366 71.1586 24.4732C71.1104 24.7444 70.9776 24.9933 70.7792 25.1844C70.257 25.7051 69.6901 26.0369 68.979 26.2259C66.7993 26.8895 64.7624 27.2212 62.5351 27.3641C61.6286 27.4624 60.7122 27.3149 59.8823 26.9371C59.5872 26.8346 59.3361 26.634 59.1711 26.3687C59.0283 26.0845 58.9345 25.8004 58.9807 25.4686C59.0176 25.1661 59.1506 24.8834 59.3601 24.6622C59.549 24.4256 59.8332 24.2828 60.1189 24.189C60.2542 24.1714 60.3839 24.1239 60.4986 24.0501C60.6134 23.9762 60.7103 23.8778 60.7824 23.762C60.9714 23.5731 61.019 23.335 61.019 23.0508C60.9407 20.3033 60.6713 17.5645 60.2126 14.8543C60.0625 14.0872 59.8728 13.3284 59.6442 12.5809C59.5966 12.4857 59.549 12.3443 59.4077 12.2967C59.3658 12.2506 59.3145 12.2141 59.2573 12.1897C59.2 12.1653 59.1381 12.1536 59.0759 12.1554C58.9481 12.1207 58.8118 12.1378 58.6965 12.203C58.5791 12.272 58.4813 12.3698 58.4123 12.4872C58.0805 13.1046 57.7963 13.6239 57.4646 14.1922C57.1328 14.6669 56.801 15.0924 56.3264 15.4718C55.8517 15.8512 55.1897 15.9925 54.5737 15.8036C53.9101 15.6146 53.4846 15.1876 53.2941 14.5716C53.1064 13.9746 53.058 13.3424 53.1528 12.7237C53.3894 11.3014 53.9592 10.0709 54.8117 8.93272C55.0959 8.55332 55.5229 8.31675 55.9961 8.17391C56.4692 8.08018 56.9438 8.12779 57.3708 8.31675ZM26.7154 14.0494L39.8396 11.349C40.2666 11.3014 40.5984 11.16 40.9287 10.9696C41.1542 10.8207 41.4173 10.7386 41.6875 10.733C41.9241 10.733 42.1606 10.8267 42.3987 10.9696C43.1575 11.4442 43.7735 12.1078 44.1038 12.9603C44.4832 13.7652 44.5769 14.6178 44.4355 15.5179C44.3894 15.8021 44.2466 16.0401 44.0576 16.2752C43.8579 16.4721 43.6141 16.6185 43.3464 16.7022C43.0623 16.7577 42.7687 16.7414 42.4924 16.6546C42.2274 16.5707 41.9956 16.4051 41.8303 16.1815C41.0239 15.2337 39.7935 14.713 38.5139 14.9034C37.5046 14.9934 36.5142 15.233 35.5755 15.6146C35.4961 15.6335 35.4215 15.6684 35.3562 15.7173C35.291 15.7662 35.2365 15.8279 35.1961 15.8988C35.1023 16.0416 35.0547 16.183 35.1023 16.3258C35.1961 17.5101 35.3389 18.5531 35.6707 19.6898C35.7079 19.863 35.8095 20.0156 35.9549 20.1168C36.0977 20.2105 36.2881 20.2581 36.4295 20.2105C36.9026 20.2105 37.3296 20.0677 37.7566 19.8788C37.8519 19.8311 37.9932 19.7374 38.0408 19.5946C38.136 19.4517 38.136 19.3104 38.136 19.1676C38.0334 18.7175 38.0013 18.2542 38.0408 17.7943C38.0408 17.4625 38.1836 17.1307 38.4678 16.8941C38.752 16.7052 39.1314 16.61 39.4632 16.7052C40.1744 16.848 40.7427 17.3212 41.0269 17.9847C41.7381 19.5961 42.0699 21.2074 42.116 22.9601C42.116 23.4808 42.0208 23.9539 41.8794 24.4286C41.7366 24.8556 41.4063 25.235 40.9793 25.3763C40.8395 25.446 40.6854 25.4823 40.5292 25.4823C40.373 25.4823 40.2189 25.446 40.0791 25.3763C39.9273 25.3154 39.7922 25.219 39.685 25.0953C39.5779 24.9716 39.5018 24.8241 39.4632 24.6651C39.3393 24.2205 39.1646 23.7917 38.9424 23.3871C38.8472 23.2442 38.7044 23.1505 38.563 23.0553C38.3741 23.0077 38.2313 22.9616 38.0408 23.0077C37.7566 23.0553 37.5201 23.1505 37.1883 23.2442C37.0454 23.2919 36.9041 23.3871 36.8565 23.5284C36.7613 23.6698 36.7136 23.8111 36.7613 23.9539C36.9502 25.2811 37.2344 26.4178 37.7566 27.6497C37.811 27.828 37.9291 27.98 38.0884 28.0768C38.2473 28.1673 38.4263 28.2164 38.6092 28.2196C39.6848 28.0941 40.7469 27.872 41.7827 27.556C42.4425 27.3613 43.0337 26.9837 43.4878 26.4669C44.0561 25.8495 44.3879 25.0936 44.5769 24.2872C44.6353 23.9339 44.8211 23.6143 45.0991 23.3886C45.3833 23.1981 45.6675 23.0568 46.0469 23.0568C46.4263 23.0568 46.7581 23.152 47.0422 23.3886C47.3341 23.5892 47.5376 23.8945 47.6106 24.2411C47.8472 25.3302 47.8472 26.3256 47.6582 27.4147C47.4784 28.2448 47.1749 29.0432 46.7581 29.7833C46.6643 30.0199 46.4739 30.1627 46.2373 30.2564C46.0484 30.3993 45.8103 30.3993 45.5261 30.3517C44.9607 30.2485 44.3799 30.2647 43.8211 30.3993L30.6001 33.0967C30.3159 33.1428 30.0794 33.0967 29.8428 32.9539C29.6062 32.8111 29.4158 32.6221 29.3206 32.3855C29.2267 32.1249 29.2267 31.8397 29.3206 31.5791C29.4143 31.3426 29.5571 31.106 29.7937 30.9632C30.1255 30.7742 30.4097 30.5362 30.5525 30.1582C30.7415 29.8265 30.8367 29.4471 30.7891 29.0691C30.4097 25.0416 29.6048 21.441 28.2776 17.6024C28.1434 17.2986 27.9502 17.0245 27.7092 16.7959C27.4293 16.5938 27.1037 16.464 26.7615 16.418C26.4773 16.418 26.2407 16.2752 26.0503 16.0386C25.8613 15.8006 25.7185 15.564 25.7185 15.2798C25.7185 14.9481 25.8123 14.7115 26.0027 14.4749C26.178 14.2482 26.4326 14.0962 26.7154 14.0494ZM12.264 22.0093C11.9731 21.7304 11.6131 21.5342 11.221 21.441C10.8416 21.3934 10.4637 21.3934 10.0843 21.5347C9.98907 21.5823 9.89534 21.6285 9.84773 21.7237C9.82428 21.7674 9.81202 21.8162 9.81202 21.8658C9.81202 21.9153 9.82428 21.9642 9.84773 22.0078L11.032 26.9356C11.0709 27.0575 11.1557 27.1595 11.2686 27.2198C11.4114 27.3135 11.5052 27.3135 11.648 27.2674C12.1211 27.0769 12.5482 26.7927 12.8799 26.4148C13.1641 26.1307 13.3055 25.7513 13.4007 25.3257C13.4794 24.7227 13.4177 24.1097 13.2206 23.5345C13.0234 22.9592 12.696 22.4373 12.264 22.0093ZM5.91537 34.897C5.28724 31.1219 4.3202 27.4111 3.02598 23.8096C2.9344 23.5466 2.74825 23.327 2.50375 23.1937C2.27821 23.0526 2.00767 23.0021 1.74644 23.0523C1.41465 23.0999 1.08286 23.0047 0.798684 22.8157C0.514506 22.6268 0.325551 22.3411 0.276452 22.0093C0.182718 21.6775 0.276452 21.3458 0.419284 21.0616C0.60824 20.7774 0.893905 20.5394 1.22569 20.4932L11.9813 17.65C13.1656 17.3182 14.3975 17.2706 15.5819 17.6024C16.5818 17.8443 17.5011 18.3432 18.249 19.0496C18.9969 19.756 19.5474 20.6455 19.846 21.6299C20.3682 23.335 20.1778 25.0892 19.2777 26.6053C18.8697 27.3669 18.3105 28.0371 17.6343 28.5749C16.9581 29.1127 16.1792 29.5067 15.3453 29.7327L12.502 30.4915C12.4083 30.4915 12.3131 30.5867 12.2655 30.6805C12.2179 30.7757 12.1702 30.917 12.2179 31.0123L12.9767 33.2396C13.0623 33.4656 13.2104 33.6627 13.4037 33.8079C13.5926 33.9969 13.8307 34.0445 14.1149 34.0921C14.3334 34.0957 14.5475 34.154 14.7377 34.2616C14.928 34.3691 15.0882 34.5226 15.204 34.7081C15.4405 35.0875 15.4405 35.5606 15.2516 35.9876C15.0327 36.443 14.6654 36.8103 14.2101 37.0291C12.0875 38.1091 9.76436 38.7383 7.38684 38.877C6.77087 38.9246 6.25013 38.877 5.68177 38.7342C5.3976 38.6404 5.16103 38.5452 4.97059 38.3071C4.78163 38.1182 4.6388 37.8801 4.6388 37.5959C4.59698 37.3236 4.62936 37.045 4.73253 36.7895C4.87537 36.553 5.06432 36.3625 5.30089 36.1736C5.53745 36.0798 5.68029 35.8894 5.82312 35.6528C5.92228 35.414 5.95418 35.1526 5.91537 34.897Z" fill="#A2ACB9"/>
<path fill-rule="evenodd" clip-rule="evenodd" d="M194.96 38.8294C194.811 38.5352 194.731 38.2112 194.725 37.8816C194.725 37.6927 194.725 37.5499 194.679 37.3609C194.679 37.2181 194.725 37.1243 194.822 37.0291C194.914 36.9354 195.011 36.8878 195.103 36.8878C195.246 36.8878 195.341 36.8878 195.435 36.9815C195.53 37.0291 195.627 37.1705 195.719 37.3133C195.862 37.6451 196.1 37.9769 196.478 38.1658C196.81 38.3548 197.237 38.4024 197.617 38.2596C197.664 38.2596 197.71 38.2119 197.757 38.1658C197.806 38.1182 197.806 38.0721 197.806 37.9769C197.806 37.9293 197.806 37.8816 197.757 37.834C197.711 37.7388 197.665 37.7388 197.617 37.6927L196.478 37.2181C196.06 37.0326 195.689 36.7578 195.389 36.4131C195.208 36.2087 195.076 35.9663 195.002 35.7038C194.928 35.4414 194.914 35.1656 194.962 34.897C195.011 34.3287 195.343 33.8541 195.816 33.5699C196.159 33.3379 196.547 33.1802 196.955 33.1066C197.363 33.0331 197.782 33.0454 198.184 33.1429L198.611 33.2857C198.691 33.3275 198.778 33.3533 198.867 33.3615C198.956 33.3696 199.046 33.3601 199.132 33.3333C199.227 33.2857 199.321 33.2857 199.416 33.2857L199.7 33.4285C200.078 33.7603 200.316 34.2335 200.316 34.7557C200.314 34.8878 200.281 35.0175 200.221 35.1351C200.129 35.2288 200.032 35.3241 199.889 35.3717C199.747 35.4193 199.654 35.4193 199.512 35.3717C199.369 35.3241 199.273 35.2764 199.18 35.1351C199.037 34.9923 198.942 34.8509 198.753 34.7081C198.61 34.5667 198.515 34.5191 198.326 34.4239C198.132 34.3389 197.915 34.3221 197.71 34.3763C197.567 34.4239 197.521 34.5191 197.475 34.6129C197.426 34.7557 197.475 34.8494 197.567 34.9446C197.616 35.086 197.71 35.1336 197.851 35.1812L198.894 35.5591C199.129 35.6067 199.272 35.702 199.461 35.7957C199.842 36.0799 200.126 36.4131 200.269 36.8863C200.361 37.3133 200.361 37.7864 200.174 38.2134C199.986 38.6404 199.7 38.9707 199.273 39.2073C199.034 39.3468 198.78 39.4582 198.515 39.5391C197.426 39.7757 196.335 39.6804 195.341 39.1597C195.183 39.0912 195.05 38.9759 194.96 38.8294ZM188.472 32.338L192.026 32.6697C192.118 32.576 192.261 32.5284 192.45 32.576C192.593 32.576 192.688 32.6697 192.782 32.765C193.209 33.2396 193.352 33.8079 193.352 34.3763C193.356 34.5167 193.305 34.6531 193.209 34.7557C193.136 34.8873 193.019 34.9883 192.877 35.0399C192.739 35.086 192.589 35.086 192.45 35.0399C192.313 35.0059 192.195 34.9207 192.118 34.8018C191.883 34.5652 191.787 34.3287 191.691 34.0445C191.645 33.9969 191.645 33.9493 191.599 33.9493C191.553 33.9017 191.504 33.9017 191.41 33.9017C191.361 33.9017 191.315 33.9017 191.267 33.9493C191.218 33.9969 191.218 34.0445 191.218 34.0921L190.982 36.6973V37.5499C190.982 37.6436 191.028 37.7388 191.077 37.7864C191.123 37.8802 191.217 37.9293 191.312 37.9293C191.407 37.9293 191.455 37.9769 191.55 38.0721C191.608 38.1373 191.641 38.2213 191.642 38.3087C191.688 38.4039 191.642 38.4515 191.596 38.5467C191.596 38.6404 191.501 38.6881 191.453 38.7357C191.264 38.8785 191.026 38.9246 190.791 38.9722C190.079 38.9722 189.417 38.9722 188.658 38.8309C188.368 38.7822 188.093 38.6688 187.853 38.4991C187.804 38.4515 187.71 38.3578 187.71 38.2625C187.687 38.2186 187.675 38.1699 187.675 38.1204C187.675 38.071 187.687 38.0223 187.71 37.9784C187.71 37.8831 187.802 37.7894 187.853 37.7403C187.945 37.6466 188.042 37.6466 188.137 37.6466C188.224 37.6443 188.307 37.611 188.372 37.5528C188.467 37.5052 188.515 37.41 188.515 37.3639C188.704 36.4161 188.847 35.6112 188.893 34.6635V33.9047C188.893 33.857 188.847 33.8109 188.847 33.7618C188.801 33.7142 188.754 33.7142 188.704 33.7142C188.704 33.6666 188.658 33.6666 188.612 33.7142C188.563 33.7142 188.516 33.7142 188.516 33.7618C188.386 33.93 188.243 34.0882 188.089 34.235C187.952 34.372 187.792 34.4843 187.616 34.5667C187.427 34.662 187.192 34.662 187.049 34.5191C186.857 34.4239 186.715 34.235 186.715 34.046C186.715 33.8094 186.715 33.619 186.81 33.43C186.999 33.003 187.283 32.6712 187.615 32.3409C187.74 32.2521 187.888 32.2024 188.042 32.1981C188.232 32.1966 188.375 32.2442 188.472 32.338ZM179.61 31.6283L183.919 31.96C184.062 32.0077 184.157 31.96 184.3 31.96C184.395 31.9124 184.489 31.9124 184.538 31.96C184.63 31.96 184.727 32.0077 184.773 32.1029C184.962 32.2918 185.057 32.576 185.105 32.8602C185.152 33.1444 185.105 33.4285 184.962 33.7127C184.926 33.7978 184.858 33.8655 184.773 33.9017C184.727 33.9493 184.63 33.9954 184.538 33.9493C184.443 33.9493 184.346 33.9493 184.254 33.9017C184.205 33.8541 184.159 33.7588 184.111 33.6651C184.022 33.4883 183.895 33.333 183.739 33.2102C183.584 33.0874 183.403 32.9999 183.211 32.9539C182.881 32.9063 182.546 32.9063 182.217 32.9539C182.168 32.9539 182.122 32.9539 182.074 33.0015C182.025 33.0015 181.979 33.0491 181.979 33.1429C181.933 33.5223 181.884 33.8541 181.884 34.232C181.884 34.2796 181.884 34.3272 181.933 34.3748C181.979 34.4224 181.979 34.47 182.076 34.47C182.213 34.5176 182.362 34.5176 182.5 34.47C182.549 34.47 182.595 34.47 182.595 34.4224C182.641 34.3748 182.69 34.3287 182.69 34.2811C182.69 34.1382 182.736 33.9969 182.782 33.8541C182.782 33.7603 182.877 33.6651 182.971 33.6175C183.114 33.5714 183.209 33.5714 183.306 33.6175C183.418 33.6649 183.514 33.7442 183.581 33.8455C183.648 33.9468 183.684 34.0657 183.684 34.1873C183.779 34.7557 183.73 35.2764 183.589 35.8448C183.543 35.9876 183.446 36.129 183.354 36.2718C183.307 36.4146 183.165 36.5084 183.022 36.5084C182.879 36.5084 182.784 36.5084 182.738 36.4146C182.642 36.367 182.595 36.2718 182.595 36.1305C182.595 35.9876 182.595 35.8463 182.549 35.7035C182.549 35.6558 182.5 35.6097 182.453 35.5606C182.407 35.5145 182.358 35.5145 182.311 35.5145C182.218 35.4669 182.122 35.4669 182.026 35.4669C181.98 35.4669 181.934 35.5145 181.884 35.5606C181.837 35.5606 181.838 35.6558 181.838 35.7035C181.753 36.1086 181.738 36.5251 181.791 36.9354C181.791 36.983 181.837 37.0291 181.884 37.1243C181.884 37.1243 181.933 37.1719 182.026 37.1719C182.358 37.2657 182.691 37.2657 183.069 37.2657C183.29 37.2762 183.508 37.2094 183.685 37.0767C183.929 36.9432 184.115 36.7236 184.206 36.4608C184.255 36.3655 184.349 36.3179 184.49 36.2718C184.586 36.2242 184.679 36.1766 184.822 36.2242C184.917 36.2718 185.011 36.3179 185.06 36.4131C185.152 36.5069 185.203 36.6021 185.152 36.7449C185.152 37.1243 185.06 37.4085 184.917 37.7388C184.798 37.9978 184.62 38.2252 184.397 38.4024C184.347 38.4961 184.301 38.4961 184.205 38.5452C184.112 38.5452 184.062 38.5452 183.97 38.4976C183.812 38.4015 183.63 38.3524 183.446 38.3563L179.089 38.0245C179.001 38.0228 178.917 37.9895 178.851 37.9307C178.756 37.8355 178.756 37.7403 178.756 37.6942C178.71 37.599 178.756 37.5037 178.805 37.41C178.851 37.3624 178.945 37.3163 178.994 37.2672C179.119 37.2331 179.233 37.1681 179.326 37.0782C179.373 37.0367 179.41 36.9855 179.434 36.9282C179.459 36.8708 179.471 36.8088 179.469 36.7464C179.753 35.4669 179.801 34.235 179.753 32.9078C179.753 32.8141 179.704 32.7188 179.658 32.6236C179.566 32.5299 179.515 32.4347 179.374 32.4347C179.281 32.3871 179.231 32.2933 179.185 32.2457C179.162 32.2018 179.15 32.1531 179.15 32.1036C179.15 32.0542 179.162 32.0055 179.185 31.9615C179.185 31.8678 179.231 31.7726 179.327 31.725C179.413 31.6705 179.51 31.6373 179.61 31.6283ZM175.487 32.7635C175.428 32.6512 175.327 32.5664 175.206 32.5269C175.111 32.4317 175.014 32.4317 174.871 32.4317C174.825 32.3841 174.779 32.4317 174.779 32.4317C174.73 32.4793 174.73 32.4793 174.73 32.5269L174.59 34.1858C174.59 34.232 174.59 34.2796 174.636 34.3272C174.682 34.3272 174.682 34.3748 174.729 34.3748C174.898 34.3791 175.065 34.3291 175.205 34.232C175.345 34.1382 175.394 34.043 175.486 33.9478C175.581 33.765 175.631 33.5619 175.631 33.3558C175.631 33.1497 175.582 32.9465 175.487 32.7635ZM172.171 36.129C172.36 34.8494 172.455 33.6651 172.455 32.3856C172.452 32.298 172.419 32.2142 172.36 32.149C172.314 32.0538 172.217 32.0538 172.125 32.0062C172.076 32.0072 172.028 31.9945 171.986 31.9695C171.944 31.9445 171.909 31.9083 171.887 31.8648C171.795 31.7696 171.795 31.6283 171.795 31.533C171.795 31.4393 171.841 31.3441 171.934 31.2489C172.036 31.1897 172.151 31.1575 172.269 31.1551L175.87 31.3917C176.248 31.4393 176.629 31.5345 176.959 31.7711C177.526 32.1505 177.859 32.765 177.859 33.4762C177.81 34.0445 177.575 34.5652 177.146 34.9446C176.718 35.324 176.199 35.5606 175.629 35.513L174.681 35.4654H174.589C174.54 35.513 174.54 35.5591 174.54 35.6082V36.3655C174.54 36.4608 174.54 36.5084 174.589 36.6036C174.635 36.6497 174.681 36.6973 174.778 36.7449C174.845 36.7657 174.905 36.8024 174.955 36.8519C175.004 36.9014 175.041 36.9622 175.062 37.0291C175.062 37.1719 175.013 37.3609 174.919 37.4561C174.864 37.5145 174.798 37.5613 174.725 37.5938C174.651 37.6262 174.572 37.6437 174.492 37.6451C173.736 37.7801 172.96 37.7481 172.217 37.5513C172.032 37.5008 171.856 37.4209 171.696 37.3148C171.601 37.2672 171.554 37.1719 171.507 37.1258C171.507 37.0306 171.458 36.9369 171.507 36.8416C171.507 36.7464 171.554 36.6988 171.6 36.6051C171.695 36.5575 171.743 36.5099 171.838 36.4623C171.93 36.4623 171.981 36.4146 172.073 36.367C172.135 36.3032 172.17 36.218 172.171 36.129ZM161.133 32.0538C161.135 31.9914 161.123 31.9294 161.098 31.872C161.073 31.8147 161.036 31.7635 160.99 31.722C160.883 31.6664 160.772 31.6186 160.658 31.5792H160.326L160.231 33.0477V33.1414C160.28 33.189 160.326 33.189 160.326 33.2366H160.658C160.753 33.189 160.847 33.189 160.893 33.0953C160.988 33.0477 161.036 32.9524 161.085 32.8572C161.179 32.5745 161.179 32.338 161.133 32.0538ZM157.862 35.5591C158.005 34.4224 158.098 33.4271 158.098 32.2903C158.098 32.1014 158.051 31.9109 158.051 31.722C158.05 31.6347 158.017 31.5509 157.959 31.4854C157.91 31.4378 157.864 31.3902 157.767 31.3902C157.675 31.3426 157.578 31.2965 157.532 31.2489C157.486 31.1551 157.437 31.0599 157.437 30.9647C157.44 30.8771 157.474 30.7933 157.532 30.7281C157.578 30.6344 157.675 30.5868 157.767 30.5392C158.016 30.4816 158.271 30.4502 158.526 30.4454L161.653 30.5883C162.034 30.6359 162.412 30.7296 162.743 30.9662C163.027 31.109 163.216 31.3456 163.359 31.6297C163.454 31.9139 163.501 32.1981 163.454 32.5299C163.406 32.765 163.304 32.9857 163.157 33.1747C163.009 33.3638 162.819 33.5158 162.603 33.619C162.554 33.619 162.554 33.619 162.507 33.6666V33.7603C162.507 33.7603 162.507 33.8079 162.554 33.8079C162.554 33.8541 162.554 33.8541 162.603 33.8541C163.027 33.9969 163.359 34.2811 163.501 34.7066C163.644 34.9908 163.739 35.3241 163.693 35.6544C163.693 35.7957 163.739 35.8909 163.833 36.0338C163.928 36.129 164.025 36.1751 164.117 36.1751C164.213 36.2227 164.26 36.2227 164.26 36.2703C164.306 36.3179 164.355 36.4131 164.306 36.4593C164.301 36.5831 164.251 36.7008 164.166 36.7911C164.117 36.8387 164.024 36.9339 163.882 36.98C163.501 37.1229 163.123 37.169 162.696 37.1229C162.36 37.0838 162.036 36.9705 161.749 36.7911C161.554 36.6371 161.42 36.4187 161.371 36.1751L161.036 34.8018C160.99 34.6605 160.944 34.5176 160.801 34.4224C160.672 34.3322 160.527 34.268 160.374 34.2335C160.328 34.2335 160.282 34.2335 160.231 34.2811C160.185 34.3287 160.185 34.3748 160.185 34.4224V35.6544C160.185 35.702 160.185 35.7957 160.231 35.8433C160.28 35.8909 160.374 35.9861 160.42 35.9861C160.51 36.0339 160.591 36.098 160.658 36.1751C160.704 36.2227 160.704 36.3179 160.704 36.4131C160.704 36.5069 160.704 36.6021 160.658 36.6497C160.591 36.7273 160.51 36.7918 160.42 36.8402C160.252 36.8986 160.077 36.9303 159.899 36.9339C159.315 36.9888 158.727 36.9729 158.147 36.8863L157.577 36.7434C157.485 36.6958 157.388 36.6482 157.342 36.6021C157.288 36.5161 157.256 36.4188 157.246 36.3179C157.246 36.2242 157.293 36.129 157.342 36.0338C157.388 35.9861 157.485 35.8909 157.577 35.8909C157.672 35.8433 157.72 35.7957 157.766 35.7496C157.818 35.6982 157.852 35.6314 157.862 35.5591ZM151.752 33.6651C151.844 34.0921 151.987 34.4224 152.179 34.7542C152.319 34.9432 152.46 35.1336 152.652 35.2273C152.775 35.3172 152.923 35.367 153.076 35.3702C153.265 35.3226 153.408 35.2749 153.503 35.1336C153.646 35.0399 153.692 34.897 153.741 34.7066V34.1858C153.692 33.4747 153.457 32.8111 153.125 32.1951C153.03 32.0523 152.933 31.9109 152.841 31.7681C152.792 31.7205 152.746 31.7205 152.746 31.6729C152.557 31.5316 152.273 31.5315 152.084 31.5792C151.871 31.6709 151.702 31.8401 151.611 32.0523C151.561 32.2427 151.561 32.4317 151.561 32.5745C151.609 32.9539 151.655 33.3333 151.752 33.6651ZM151.325 30.3487C151.987 30.1598 152.603 30.1107 153.267 30.1598C153.979 30.3026 154.641 30.5868 155.164 31.1551C155.684 31.6759 156.015 32.3394 156.064 33.0491C156.152 33.5575 156.111 34.0798 155.945 34.5682C155.779 35.0566 155.493 35.4956 155.113 35.8448C154.451 36.4608 153.646 36.7449 152.79 36.7926C151.892 36.7926 151.087 36.556 150.376 35.9876C149.951 35.6039 149.612 35.1356 149.379 34.6129C149.19 34.0445 149.098 33.4762 149.19 32.9078C149.333 32.2918 149.525 31.8187 149.949 31.3441C150.331 30.8695 150.755 30.5853 151.325 30.3487ZM142.465 29.9693L146.681 30.0645C146.824 30.0645 146.966 30.0169 147.108 29.9693H147.393C147.477 30.0071 147.544 30.0743 147.582 30.1583C147.817 30.5853 147.959 30.9632 147.959 31.4378C147.959 31.5315 147.959 31.6268 147.867 31.722C147.818 31.8648 147.724 31.911 147.629 31.9586H147.251C147.151 31.9045 147.068 31.8223 147.013 31.722C146.902 31.5394 146.75 31.3846 146.57 31.2696C146.39 31.1546 146.186 31.0824 145.973 31.0584C145.689 31.0108 145.403 31.0108 145.073 31.0108C145.024 31.0108 144.978 31.0584 144.93 31.1045C144.93 31.1045 144.884 31.1522 144.884 31.1983L144.835 32.3365C144.835 32.3841 144.835 32.4302 144.884 32.4302C144.93 32.4778 144.93 32.4778 144.976 32.4778C145.119 32.5254 145.214 32.5254 145.357 32.4778C145.403 32.4778 145.497 32.4778 145.546 32.3841C145.641 32.3365 145.641 32.2427 145.641 32.1475C145.641 32.0523 145.687 31.9586 145.734 31.8633C145.829 31.7681 145.923 31.7205 146.018 31.7205C146.113 31.6729 146.253 31.7205 146.35 31.7681C146.446 31.8157 146.492 31.9109 146.539 32.0523C146.727 32.8111 146.681 33.5699 146.446 34.3272C146.397 34.4209 146.351 34.5162 146.254 34.5638C146.169 34.6165 146.073 34.649 145.973 34.659C145.901 34.6472 145.834 34.614 145.781 34.5638C145.689 34.5162 145.689 34.4209 145.641 34.3748V33.9954C145.592 33.8526 145.496 33.7112 145.403 33.6636C145.26 33.616 145.072 33.5699 144.93 33.616C144.884 33.616 144.884 33.6636 144.835 33.6636C144.835 33.7112 144.789 33.7574 144.789 33.8065C144.789 34.232 144.789 34.659 144.835 35.0845C144.835 35.1797 144.884 35.2273 144.93 35.2735C144.976 35.3687 145.073 35.3687 145.165 35.3687C145.308 35.3687 145.449 35.4624 145.546 35.5576C145.599 35.6611 145.631 35.7737 145.641 35.8894C145.607 36.0147 145.541 36.129 145.449 36.2212C145.343 36.2775 145.232 36.3247 145.118 36.3626L144.502 36.4102C143.934 36.4578 143.364 36.4578 142.797 36.4102C142.608 36.3626 142.465 36.3626 142.276 36.2673C142.181 36.2197 142.087 36.1721 142.038 36.0784C141.946 35.9356 141.895 35.7942 141.946 35.6514C141.992 35.51 142.135 35.3672 142.277 35.3672C142.37 35.3196 142.42 35.272 142.466 35.2244C142.512 35.1768 142.562 35.0815 142.562 34.9878C142.608 34.3242 142.654 33.7083 142.654 33.0447C142.711 32.429 142.695 31.8088 142.608 31.1968C142.608 31.1031 142.562 31.0554 142.512 31.0078C142.466 30.9602 142.42 30.9126 142.37 30.865C142.23 30.865 142.181 30.7713 142.088 30.676C142.035 30.5901 142.002 30.4928 141.993 30.3919C141.993 30.249 142.088 30.1553 142.136 30.0601C142.239 30.0096 142.351 29.9789 142.465 29.9693ZM132.087 34.47C132.419 33.5223 132.419 32.5745 132.041 31.722C131.949 31.4594 131.764 31.24 131.52 31.106C131.276 30.9681 130.991 30.9177 130.714 30.9632C130.666 30.9632 130.619 30.9632 130.619 31.0108C130.571 31.0108 130.571 31.0584 130.571 31.1045L130.666 34.9432C130.666 34.9908 130.666 35.0384 130.714 35.0845C130.714 35.1321 130.761 35.1321 130.809 35.1321C131.093 35.1797 131.377 35.1797 131.614 35.0384C131.833 34.9097 132 34.7087 132.087 34.47ZM128.345 32.9063C128.345 32.2442 128.345 31.6283 128.298 30.9632C128.298 30.9156 128.25 30.8695 128.202 30.8695C128.201 30.8451 128.191 30.822 128.173 30.8048C128.156 30.7875 128.133 30.7771 128.109 30.7757C127.966 30.7757 127.872 30.7281 127.824 30.6329C127.731 30.4901 127.683 30.3963 127.683 30.3011C127.731 30.1583 127.778 30.0645 127.872 29.9693C127.966 29.8741 128.061 29.8265 128.204 29.8265H131.568C131.996 29.8265 132.374 29.8741 132.754 30.0154C133.463 30.2996 134.032 30.7742 134.41 31.4839C134.694 32.0999 134.837 32.7159 134.741 33.4271C134.695 34.0906 134.41 34.7051 134.032 35.2273C133.605 35.7005 133.132 36.0337 132.514 36.1275C132.182 36.1736 131.898 36.2212 131.566 36.2212H128.109C128.046 36.223 127.984 36.2111 127.927 36.1865C127.87 36.1618 127.818 36.1249 127.777 36.0784C127.69 35.9891 127.639 35.871 127.634 35.7466C127.682 35.6038 127.728 35.51 127.777 35.4148C127.819 35.3684 127.87 35.3317 127.927 35.307C127.984 35.2823 128.046 35.2704 128.109 35.272C128.156 35.272 128.202 35.2244 128.202 35.2244C128.25 35.1768 128.25 35.1306 128.25 35.0815L128.345 32.9063ZM120.195 29.8741L124.554 29.8265C124.696 29.8265 124.791 29.8265 124.932 29.7789C124.98 29.7313 125.075 29.7313 125.169 29.7789C125.264 29.7789 125.312 29.8265 125.358 29.8726C125.587 30.0656 125.739 30.3351 125.785 30.6314C125.878 30.9156 125.832 31.1998 125.737 31.4839C125.689 31.5316 125.642 31.6268 125.548 31.6729C125.483 31.7324 125.399 31.7663 125.312 31.7681C125.218 31.7681 125.123 31.7681 125.027 31.7205C124.98 31.6729 124.885 31.6268 124.838 31.5315C124.751 31.3486 124.618 31.1914 124.452 31.0751C124.286 30.9588 124.092 30.8875 123.891 30.868C123.559 30.868 123.227 30.868 122.895 30.9156C122.848 30.9156 122.802 30.9632 122.752 31.0108C122.752 31.0584 122.705 31.1045 122.705 31.1536C122.657 31.5316 122.657 31.8648 122.657 32.2427C122.657 32.3365 122.705 32.3841 122.751 32.4317C122.799 32.4317 122.845 32.4793 122.894 32.4793C123.037 32.4793 123.178 32.4793 123.321 32.4317C123.368 32.4317 123.415 32.4317 123.464 32.3841C123.464 32.3365 123.511 32.2903 123.511 32.2427C123.511 32.0999 123.511 31.9586 123.559 31.8157C123.559 31.6729 123.654 31.5792 123.748 31.5315C123.842 31.4839 123.984 31.4839 124.08 31.5315C124.19 31.5742 124.287 31.6445 124.362 31.7358C124.436 31.827 124.486 31.936 124.507 32.0523C124.602 32.6206 124.649 33.1414 124.507 33.7112C124.507 33.9002 124.413 34.043 124.365 34.1858C124.272 34.3272 124.176 34.4224 123.986 34.4224C123.892 34.47 123.797 34.4224 123.702 34.3748C123.656 34.2811 123.56 34.232 123.56 34.0906C123.56 33.9478 123.513 33.8065 123.467 33.6636C123.467 33.616 123.419 33.5699 123.371 33.5208C123.324 33.4732 123.278 33.4732 123.229 33.4732H122.944C122.897 33.5208 122.849 33.5208 122.803 33.5684C122.755 33.6145 122.755 33.6621 122.755 33.7097C122.708 34.1367 122.755 34.5162 122.849 34.9417C122.849 35.0369 122.849 35.083 122.897 35.1306C122.944 35.1782 123.04 35.1782 123.086 35.1782C123.418 35.2258 123.749 35.2258 124.129 35.1782C124.365 35.1306 124.556 35.083 124.745 34.9417C124.934 34.7527 125.124 34.5623 125.218 34.2781C125.271 34.1776 125.354 34.0952 125.454 34.0415C125.548 33.9939 125.643 33.9939 125.786 33.9939C125.88 33.9939 125.975 34.0891 126.07 34.1844C126.164 34.2305 126.164 34.3733 126.164 34.4685C126.212 34.8465 126.116 35.1797 125.975 35.5115C125.88 35.7942 125.739 35.9847 125.548 36.2227C125.5 36.2703 125.454 36.3164 125.359 36.3641C125.312 36.3641 125.218 36.3641 125.123 36.3164C124.932 36.2688 124.789 36.2227 124.6 36.2227L120.193 36.2703C120.1 36.2703 120.052 36.2227 119.957 36.1751C119.897 36.1106 119.863 36.0264 119.862 35.9385C119.814 35.8448 119.862 35.7957 119.909 35.702C119.947 35.6177 120.014 35.5504 120.098 35.513C120.192 35.4654 120.287 35.4178 120.382 35.3241C120.468 35.2339 120.518 35.1162 120.524 34.9923C120.666 33.6651 120.667 32.4332 120.476 31.1075L120.333 30.8233C120.239 30.7296 120.144 30.682 120.049 30.6344C119.955 30.6344 119.906 30.5392 119.86 30.4916C119.812 30.3978 119.766 30.3026 119.812 30.2074C119.812 30.1122 119.86 30.0184 119.955 29.9708C120.021 29.911 120.106 29.8767 120.195 29.8741ZM114.937 33.6175L114.984 35.1812C114.984 35.2288 115.032 35.3241 115.078 35.3241C115.126 35.3717 115.173 35.4178 115.22 35.4178L115.458 35.3702C115.647 35.3702 115.835 35.2273 115.931 35.0384C116.169 34.7051 116.169 34.2796 115.978 33.9478C115.931 33.8065 115.789 33.7112 115.599 33.6636C115.411 33.6175 115.173 33.5699 114.937 33.6175ZM114.937 32.6221C115.015 32.6497 115.097 32.6597 115.179 32.6514C115.262 32.6432 115.341 32.6169 115.411 32.5745C115.505 32.5269 115.6 32.4793 115.648 32.4317C115.701 32.3455 115.734 32.2483 115.743 32.1475C115.791 31.8633 115.743 31.6268 115.743 31.3411C115.696 31.2474 115.696 31.1983 115.648 31.1522C115.6 31.0569 115.554 31.0569 115.459 31.0093C115.27 30.9141 115.08 30.9141 114.891 30.9141L114.937 32.6221ZM112.379 30.0169L116.264 29.9232C116.596 29.9232 116.928 30.0169 117.212 30.1598C117.685 30.3487 117.969 30.7757 118.018 31.2965C118.044 31.5294 118.01 31.765 117.918 31.9808C117.827 32.1965 117.681 32.3851 117.496 32.5284L117.355 32.6697L117.307 32.7174V32.7635C117.307 32.8111 117.355 32.8111 117.355 32.8587H117.401C117.496 32.9063 117.544 32.9063 117.639 32.9539C117.822 32.9943 117.993 33.0808 118.134 33.2052C118.275 33.3296 118.382 33.4879 118.445 33.6651C118.682 34.2811 118.634 34.897 118.255 35.4654C118.089 35.7292 117.858 35.946 117.584 36.0953C117.31 36.2445 117.003 36.3212 116.691 36.3179L112.522 36.4131C112.427 36.4131 112.333 36.3655 112.238 36.3179C112.19 36.2703 112.143 36.1751 112.095 36.0814C112.095 35.9876 112.095 35.8924 112.143 35.7972C112.19 35.7034 112.286 35.6558 112.381 35.6082C112.522 35.5606 112.57 35.4654 112.617 35.3717C112.665 35.2288 112.665 35.1351 112.665 34.9923C112.76 33.7127 112.76 32.5284 112.665 31.2489C112.665 31.1551 112.617 31.106 112.57 31.0123C112.476 30.9647 112.427 30.9171 112.333 30.9171C112.192 30.8695 112.097 30.8218 112.049 30.7281C111.955 30.6344 111.955 30.5392 111.955 30.3963C111.955 30.3026 112.003 30.2074 112.097 30.1121C112.182 30.059 112.279 30.0264 112.379 30.0169ZM97.5009 30.7266C97.5946 30.679 97.6437 30.6329 97.7374 30.6329C98.6376 30.3011 99.4901 30.3011 100.438 30.4901C100.574 30.5241 100.693 30.6087 100.77 30.7266C100.817 30.8695 100.865 31.0108 100.817 31.106C100.797 31.1731 100.76 31.2342 100.711 31.2838C100.661 31.3334 100.6 31.3699 100.533 31.3902C100.485 31.3902 100.392 31.4378 100.392 31.533C100.344 31.5806 100.296 31.6283 100.296 31.722C100.249 32.0538 100.296 32.338 100.296 32.6697C100.296 32.7174 100.344 32.7635 100.392 32.7635C100.392 32.8111 100.439 32.8587 100.485 32.8587C100.911 32.9063 101.338 32.8587 101.764 32.7635C101.811 32.7635 101.859 32.7174 101.906 32.6697C101.954 32.6221 101.954 32.576 101.954 32.5284C101.954 32.2442 101.906 31.96 101.859 31.6744C101.811 31.533 101.717 31.3902 101.575 31.3426C101.49 31.3061 101.422 31.2384 101.386 31.1536C101.338 31.106 101.29 31.0108 101.29 30.9156C101.29 30.8204 101.338 30.7266 101.386 30.679C101.433 30.5853 101.528 30.5362 101.622 30.4901C102.518 30.1505 103.501 30.1175 104.418 30.3963C104.561 30.4439 104.654 30.5853 104.702 30.7281C104.75 30.8218 104.75 30.9171 104.654 31.0123C104.607 31.106 104.561 31.2012 104.418 31.2489C104.347 31.2608 104.281 31.2934 104.229 31.3426C104.181 31.4378 104.134 31.5315 104.134 31.5792C104.086 32.9063 104.134 34.0906 104.276 35.3702C104.276 35.4639 104.276 35.513 104.323 35.5591C104.375 35.609 104.44 35.6422 104.512 35.6544C104.596 35.6916 104.676 35.7391 104.75 35.7957C104.796 35.8909 104.843 35.9861 104.843 36.0799C104.843 36.1736 104.843 36.2688 104.75 36.3641C104.702 36.4117 104.654 36.4593 104.561 36.5069C103.897 36.6958 103.281 36.7911 102.618 36.7434H102.095C101.954 36.6958 101.811 36.6482 101.668 36.5545C101.584 36.5171 101.517 36.4498 101.479 36.3655C101.479 36.3179 101.432 36.2242 101.432 36.129C101.479 36.0814 101.479 35.9861 101.527 35.8909C101.575 35.8433 101.668 35.7957 101.716 35.7496C101.81 35.7496 101.857 35.702 101.905 35.6544C101.952 35.5591 101.952 35.513 101.952 35.4178C102 35.0399 102 34.6605 102 34.2335C101.952 34.1873 101.952 34.1397 101.905 34.0921C101.905 34.0921 101.857 34.0445 101.811 34.0445C101.338 33.9969 100.959 34.0445 100.532 34.1382C100.438 34.1382 100.39 34.1859 100.39 34.232C100.343 34.2796 100.343 34.3272 100.343 34.3748C100.295 34.7542 100.343 35.1336 100.39 35.4639C100.438 35.5576 100.438 35.6067 100.484 35.7005C100.536 35.7502 100.602 35.7829 100.673 35.7942C100.744 35.8302 100.808 35.8786 100.862 35.937C100.956 36.0323 100.956 36.1275 100.956 36.2212C100.956 36.315 100.956 36.3626 100.908 36.4578C100.862 36.5054 100.767 36.6006 100.671 36.6006C99.7713 36.9785 98.7759 37.0261 97.7806 36.742C97.6868 36.742 97.6392 36.6943 97.544 36.6006C97.4964 36.5054 97.4964 36.4578 97.4964 36.3626C97.4964 36.2688 97.4964 36.1736 97.5901 36.0784C97.6377 35.9847 97.6853 35.9356 97.7791 35.9356C97.8728 35.8879 97.968 35.8418 98.0156 35.7927C98.0754 35.7283 98.1093 35.644 98.1109 35.5562C98.1585 34.2781 98.1109 33.0938 97.968 31.8618C97.9665 31.774 97.9326 31.6897 97.8728 31.6253C97.851 31.5815 97.8172 31.5447 97.7753 31.5194C97.7334 31.4941 97.6852 31.4813 97.6362 31.4825C97.541 31.4825 97.4934 31.4348 97.4473 31.3396C97.3997 31.292 97.3535 31.2459 97.3045 31.1507C97.3045 31.0554 97.3045 31.0078 97.3521 30.9126C97.4056 30.8218 97.4532 30.7757 97.5009 30.7266ZM90.8205 30.8219L94.3258 30.6805C94.4503 30.5917 94.5985 30.542 94.7513 30.5377C94.8916 30.5337 95.0279 30.585 95.1307 30.6805C95.6039 31.0599 95.8419 31.5806 95.8895 32.1966C95.9236 32.3245 95.9065 32.4605 95.8419 32.576C95.7568 32.7095 95.6436 32.8227 95.5101 32.9078C95.4164 32.9554 95.2736 32.9554 95.1307 32.9554C94.9894 32.9554 94.8465 32.8602 94.7052 32.765C94.5148 32.576 94.3258 32.3871 94.2306 32.1029L94.0877 31.96H93.9464C93.8988 31.96 93.8512 32.0077 93.8036 32.0538C93.756 32.1014 93.756 32.149 93.756 32.1966L93.8973 34.8018C93.8973 35.086 93.9449 35.3702 93.9925 35.6544C93.9925 35.7496 94.0401 35.7957 94.1339 35.8909C94.1986 35.9502 94.2827 35.9841 94.3704 35.9861C94.4584 35.9883 94.5427 36.0215 94.6085 36.0799C94.7037 36.1275 94.7498 36.2227 94.7498 36.2688C94.7733 36.3125 94.7855 36.3613 94.7855 36.4109C94.7855 36.4605 94.7733 36.5093 94.7498 36.553C94.7498 36.6467 94.7037 36.6958 94.6085 36.7896C94.4283 36.9313 94.2173 37.0287 93.9925 37.0737C93.2813 37.2166 92.6192 37.2627 91.9081 37.2166C91.5763 37.2166 91.2921 37.169 91.0555 37.0276C90.955 36.9739 90.8727 36.8916 90.819 36.7911C90.7955 36.7474 90.7833 36.6986 90.7833 36.649C90.7833 36.5994 90.7955 36.5506 90.819 36.5069C90.819 36.4132 90.8651 36.3179 90.9603 36.2703C90.9826 36.227 91.0165 36.1908 91.0584 36.1658C91.1002 36.1408 91.1482 36.128 91.1969 36.129C91.2457 36.1298 91.2938 36.1168 91.3357 36.0915C91.3775 36.0663 91.4114 36.0298 91.4334 35.9861C91.4836 35.9337 91.5168 35.8673 91.5287 35.7957C91.5763 34.8479 91.5763 33.9954 91.5287 33.0968C91.5287 32.8126 91.4811 32.5745 91.4334 32.2903L91.3382 32.1951C91.3382 32.1475 91.2921 32.1475 91.2445 32.1475H91.1031C91.0555 32.1475 91.0555 32.1951 91.0079 32.2427C90.9142 32.4317 90.7714 32.5745 90.6761 32.7635C90.5333 32.9063 90.4396 33.0477 90.2491 33.1429C90.1704 33.2076 90.0739 33.2469 89.9724 33.2554C89.8708 33.2639 89.7691 33.2412 89.6808 33.1905C89.4918 33.1429 89.349 32.9539 89.3014 32.7635C89.2536 32.5609 89.2536 32.3501 89.3014 32.1475C89.4442 31.7205 89.6332 31.295 89.9649 30.9632C90.0602 30.8204 90.203 30.7742 90.3443 30.7266C90.5363 30.7266 90.6791 30.7757 90.8205 30.8219ZM83.051 31.5806C83.2875 31.4393 83.5241 31.3441 83.8083 31.2965C84.2353 31.2489 84.6147 31.2013 85.0402 31.1551C85.4672 31.1075 85.8466 31.2013 86.2245 31.2965C86.3197 31.3441 86.4135 31.3902 86.4611 31.4854C86.5087 31.533 86.5563 31.6283 86.5563 31.722C86.5563 31.8157 86.5087 31.911 86.4611 31.9586C86.3659 32.0523 86.3197 32.1014 86.2245 32.1475C86.1757 32.1469 86.1277 32.1599 86.0859 32.1852C86.0441 32.2104 86.0101 32.2469 85.988 32.2903C85.8927 32.3841 85.8927 32.4793 85.8927 32.5745C85.9403 33.7588 85.988 34.8479 86.1308 36.0338C86.1308 36.129 86.1784 36.1751 86.2245 36.2703C86.2721 36.3179 86.3197 36.3641 86.4135 36.3641C86.65 36.4117 86.8866 36.4117 87.1247 36.3641C87.3381 36.3009 87.5331 36.1871 87.693 36.0323C87.8341 35.8517 87.9314 35.6408 87.9772 35.4163C87.9772 35.3226 88.0248 35.2273 88.0724 35.1797C88.1662 35.1321 88.2614 35.0845 88.3566 35.1321C88.5455 35.1321 88.736 35.2735 88.8297 35.4639C88.9235 35.6067 88.9235 35.7481 88.9235 35.8909C88.9235 36.4593 88.6869 36.9339 88.3551 37.3594C88.2614 37.4531 88.0709 37.5008 87.9281 37.5008C87.6439 37.4531 87.4074 37.407 87.1217 37.4532L83.6163 37.6421C83.5226 37.6421 83.4274 37.6421 83.3322 37.5484C83.2888 37.5261 83.2526 37.4921 83.2276 37.4503C83.2026 37.4085 83.1899 37.3605 83.1908 37.3118C83.1674 37.2681 83.1551 37.2193 83.1551 37.1697C83.1551 37.1201 83.1674 37.0713 83.1908 37.0276C83.2369 36.9339 83.3322 36.8863 83.4274 36.8387C83.5279 36.785 83.6102 36.7026 83.6639 36.6021C83.7105 36.5605 83.7474 36.5093 83.772 36.452C83.7967 36.3947 83.8086 36.3327 83.8068 36.2703V35.2273C83.7592 34.3748 83.7116 33.5699 83.5702 32.7159C83.5702 32.6206 83.5226 32.573 83.4765 32.4778C83.3813 32.4302 83.3337 32.3841 83.2384 32.3841C83.0971 32.3841 83.0495 32.3365 82.9543 32.2903C82.9066 32.1951 82.859 32.1475 82.8129 32.0523C82.8129 31.9586 82.8129 31.8633 82.859 31.7681C82.898 31.6843 82.9663 31.6177 83.051 31.5806ZM76.5119 35.4654L77.8391 35.3717L77.2231 34.4239C77.1755 34.3302 77.1279 34.2826 77.0803 34.235H76.9374C76.8898 34.235 76.8898 34.2826 76.8437 34.3302L76.5119 35.4654ZM75.9421 32.5284C75.9393 32.3228 76.0065 32.1225 76.1325 31.96C76.2262 31.8172 76.4167 31.7235 76.6056 31.6759C76.9379 31.59 77.2897 31.6238 77.5995 31.7711C77.9313 31.9601 78.217 32.1981 78.4059 32.4823C79.3169 33.8009 80.14 35.1782 80.8698 36.6051C80.9159 36.7464 81.0587 36.794 81.154 36.8416C81.2492 36.8416 81.2953 36.8416 81.3905 36.8893C81.4843 36.9369 81.5795 37.0306 81.5795 37.1734C81.5795 37.3163 81.5795 37.41 81.4843 37.5052C81.3572 37.6435 81.1929 37.7422 81.0111 37.7894C80.1586 37.9784 79.3061 38.0736 78.4521 37.9322H78.2631C78.1218 37.8846 78.0741 37.837 77.9789 37.7418C77.9313 37.6481 77.9313 37.5052 77.9313 37.41C77.9518 37.343 77.9885 37.2821 78.038 37.2325C78.0876 37.183 78.1485 37.1464 78.2155 37.1258C78.2616 37.1258 78.3092 37.0782 78.3568 37.0306C78.3568 36.983 78.4044 36.8893 78.3568 36.8416C78.3568 36.794 78.3568 36.7464 78.3092 36.6988C78.2616 36.6512 78.2155 36.6051 78.1203 36.6051C77.5043 36.5575 76.9359 36.6051 76.32 36.7464C76.2262 36.7464 76.1786 36.794 76.131 36.8416C76.0834 36.8893 76.0834 36.9354 76.0834 37.0306C76.0834 37.0782 76.131 37.1258 76.1786 37.1734C76.2262 37.221 76.2739 37.2672 76.3676 37.2672C76.4388 37.2791 76.5046 37.3123 76.5565 37.3624C76.6503 37.41 76.6979 37.4561 76.6979 37.5513C76.7455 37.599 76.7455 37.6942 76.7455 37.7879C76.6979 37.8355 76.6503 37.9307 76.6027 37.9769C76.4598 38.0721 76.3185 38.1658 76.1757 38.1658C75.6834 38.3062 75.1693 38.3541 74.6595 38.3072C74.5167 38.3072 74.3754 38.2596 74.2325 38.2134C74.1373 38.1658 74.0897 38.1182 74.0436 38.0721C73.996 37.9769 73.996 37.9293 73.996 37.834C73.996 37.7388 73.996 37.6927 74.0436 37.6451C74.0912 37.5513 74.1373 37.5022 74.2325 37.4561C74.3278 37.41 74.4215 37.4085 74.5167 37.3624C74.6119 37.3148 74.6596 37.2196 74.7072 37.1258L75.8439 33.7618C75.9376 33.5253 75.9376 33.3348 75.9376 33.0997V32.5284H75.9421ZM66.2295 32.5745L70.5888 32.1951C70.6826 32.1951 70.8269 32.1475 70.9206 32.1014C71.0143 32.0538 71.1096 32.0538 71.1572 32.0538C71.2509 32.1014 71.3461 32.1014 71.3937 32.1966C71.6193 32.3808 71.7842 32.6286 71.8669 32.9078C71.9621 33.184 71.9621 33.4841 71.8669 33.7603C71.8669 33.8079 71.8193 33.9032 71.724 33.9493C71.6303 34.0445 71.5827 34.0445 71.4875 34.0921C71.3937 34.0921 71.2985 34.0921 71.2033 34.0445C71.1187 34.007 71.0512 33.939 71.0143 33.8541C70.898 33.6834 70.7428 33.5428 70.5615 33.444C70.3801 33.3452 70.1778 33.2909 69.9714 33.2857C69.6396 33.2857 69.3554 33.3333 69.0236 33.4285C68.976 33.4285 68.9284 33.4762 68.8823 33.5223C68.8347 33.5223 68.8347 33.5699 68.8347 33.6651C68.8347 34.0445 68.8347 34.3763 68.8823 34.7542C68.8823 34.8018 68.9284 34.8479 68.976 34.897C69.0236 34.9447 69.0697 34.9446 69.1174 34.9446C69.2602 34.9923 69.4015 34.9447 69.5444 34.897C69.569 34.8953 69.5923 34.8847 69.6098 34.8672C69.6273 34.8497 69.6378 34.8265 69.6396 34.8018C69.6872 34.7542 69.6872 34.7542 69.6872 34.7066C69.6872 34.5176 69.6872 34.3748 69.7348 34.2335C69.7348 34.1397 69.7809 34.0445 69.8761 33.9493C70.019 33.9017 70.1127 33.9017 70.2079 33.9493C70.446 33.9969 70.6349 34.1873 70.6811 34.4224C70.87 34.9447 70.87 35.513 70.8239 36.0814C70.8211 36.2493 70.7717 36.4131 70.6811 36.5545C70.6335 36.6973 70.4921 36.7911 70.3493 36.8387C70.2541 36.8387 70.1603 36.8387 70.0651 36.7911C69.9699 36.7435 69.9223 36.6482 69.9223 36.5069L69.7794 36.0799C69.778 36.0555 69.7677 36.0324 69.7504 36.0152C69.7331 35.9979 69.7101 35.9876 69.6857 35.9861C69.6381 35.9385 69.592 35.9385 69.5429 35.9385C69.4491 35.9385 69.3539 35.9385 69.2587 35.9861C69.2111 35.9861 69.165 36.0338 69.1159 36.0338C69.0683 36.0814 69.0683 36.129 69.0683 36.1751C69.0683 36.6482 69.1159 37.0276 69.2572 37.4546C69.2572 37.5023 69.2572 37.5499 69.3524 37.5975C69.3986 37.6451 69.4462 37.6451 69.4938 37.6451C69.8732 37.6451 70.205 37.6451 70.5367 37.5513C70.7613 37.5056 70.9722 37.4083 71.1527 37.2672C71.3417 37.0782 71.4845 36.8893 71.5797 36.6051C71.5797 36.5099 71.6735 36.4161 71.7687 36.367C71.8624 36.2733 71.9576 36.2733 72.1005 36.2733C72.1942 36.2733 72.337 36.3209 72.3846 36.4161C72.4784 36.5099 72.526 36.6051 72.526 36.7003C72.5736 37.0782 72.526 37.4115 72.4308 37.7418C72.3536 38.0162 72.2253 38.2736 72.0529 38.5006C72.0052 38.5482 71.9591 38.5943 71.8639 38.6434H71.6273C71.4384 38.5958 71.2955 38.5497 71.059 38.5958L66.7472 38.9276C66.6535 38.9276 66.5583 38.9276 66.463 38.88C66.4053 38.808 66.3578 38.7284 66.3217 38.6434C66.3217 38.5497 66.3217 38.5006 66.3678 38.4069C66.4049 38.3219 66.473 38.2543 66.5583 38.2179C66.6639 38.1532 66.7597 38.0735 66.8424 37.9813C66.8957 37.8781 66.928 37.7653 66.9377 37.6495C66.9838 36.3224 66.8424 35.0905 66.5583 33.8124C66.5583 33.6696 66.5107 33.5758 66.4154 33.5282C66.3678 33.4345 66.2726 33.3869 66.1313 33.3869C66.0467 33.35 65.9792 33.2825 65.9423 33.1979C65.8982 33.1248 65.8665 33.0449 65.8486 32.9614C65.8486 32.8185 65.8947 32.7709 65.9899 32.6772C66.0534 32.6131 66.1393 32.5763 66.2295 32.5745ZM56.9439 33.6651C57.0391 33.6175 57.0867 33.5714 57.1804 33.5714C58.0278 33.1931 58.9733 33.0936 59.8809 33.2872C60.0237 33.2872 60.1174 33.3824 60.2126 33.4762C60.2602 33.6175 60.3079 33.7603 60.2603 33.8541C60.2222 33.9764 60.1371 34.0786 60.0237 34.1382C59.9517 34.1734 59.8871 34.2218 59.8332 34.2811C59.8332 34.3287 59.7871 34.4224 59.7871 34.47C59.7871 34.8018 59.8332 35.1336 59.8809 35.4639C59.8809 35.4639 59.8809 35.5115 59.9285 35.5576C59.9761 35.6053 60.0237 35.6052 60.0713 35.6052C60.4983 35.6529 60.8777 35.6052 61.3032 35.4624C61.3508 35.4624 61.3984 35.4148 61.4461 35.3687C61.4937 35.3226 61.4937 35.2735 61.4937 35.2259C61.4461 34.8941 61.3999 34.6575 61.3523 34.3733C61.3047 34.2305 61.2095 34.0891 61.0681 34.0415C60.9744 33.9939 60.9253 33.9463 60.8316 33.8987C60.784 33.805 60.784 33.7097 60.784 33.6145C60.784 33.5684 60.784 33.4732 60.8316 33.378C60.8681 33.2931 60.9357 33.2255 61.0205 33.189C61.9009 32.8044 62.8837 32.7213 63.8162 32.9524C63.9575 32.9524 64.1004 33.0953 64.148 33.2366C64.1715 33.2888 64.1837 33.3453 64.1837 33.4025C64.1837 33.4597 64.1715 33.5163 64.148 33.5684C64.1004 33.6621 64.0066 33.7097 63.9114 33.7574C63.8395 33.7925 63.7748 33.841 63.721 33.9002C63.6769 33.9733 63.6452 34.0533 63.6272 34.1368C63.6655 35.4057 63.7763 36.6715 63.959 37.9278C63.959 37.9754 64.0066 38.0706 64.0542 38.1167C64.1018 38.1643 64.148 38.2119 64.2432 38.2119C64.3369 38.2119 64.4321 38.2596 64.4798 38.3548C64.5389 38.4195 64.5722 38.5037 64.5735 38.5913C64.5735 38.6866 64.5735 38.7818 64.5259 38.8755C64.4783 38.9231 64.3845 39.0169 64.2893 39.0169C63.6734 39.2549 63.105 39.3963 62.4414 39.3963H61.8731C61.7199 39.3923 61.5713 39.3431 61.4461 39.2549C61.3618 39.2175 61.2945 39.1502 61.2571 39.066C61.2095 39.0184 61.2095 38.9231 61.2095 38.8294C61.2095 38.7818 61.2095 38.6866 61.2571 38.6404C61.3032 38.5467 61.3984 38.4976 61.4461 38.4515C61.5413 38.4039 61.5889 38.3578 61.5889 38.3087C61.6386 38.2567 61.6713 38.1907 61.6826 38.1197C61.6826 37.6942 61.6826 37.3148 61.635 36.9354C61.635 36.8878 61.5874 36.8417 61.5413 36.7926C61.5413 36.7449 61.4937 36.7449 61.4461 36.7449C60.9729 36.6973 60.5935 36.7925 60.1665 36.9339C60.1189 36.9339 60.0728 36.9815 60.0252 37.0276C59.9776 37.0276 59.9776 37.1228 59.9776 37.1705C59.9776 37.5499 60.0252 37.8816 60.1204 38.2596C60.1204 38.3072 60.168 38.4024 60.2141 38.4485C60.2662 38.4984 60.332 38.5315 60.4031 38.5437C60.4882 38.5795 60.5678 38.627 60.6396 38.6851C60.6873 38.7803 60.7349 38.8279 60.7349 38.9216C60.7349 39.0154 60.7349 39.1106 60.6873 39.2058C60.6396 39.2534 60.5444 39.3487 60.4507 39.3487C59.5505 39.7757 58.6028 39.917 57.6074 39.6804C57.5587 39.6814 57.5107 39.6686 57.4689 39.6436C57.4271 39.6187 57.3931 39.5824 57.3709 39.5391C57.2756 39.4439 57.2756 39.3963 57.2756 39.301C57.228 39.1597 57.2756 39.1121 57.3233 39.0169C57.3709 38.9231 57.4661 38.8755 57.5598 38.8279C57.655 38.8279 57.7027 38.7803 57.7488 38.6851C57.8083 38.6205 57.8422 38.5363 57.844 38.4485C57.8036 37.2113 57.6928 35.9774 57.5122 34.7527C57.4646 34.659 57.417 34.6099 57.3709 34.5161C57.3057 34.4565 57.2211 34.4227 57.1328 34.4209C57.0391 34.4209 56.9915 34.3733 56.9439 34.3272C56.8501 34.232 56.801 34.1859 56.801 34.0906V33.8526C56.8486 33.8079 56.8962 33.7127 56.9439 33.6651Z" fill="#A2ACB9"/>
</svg>
