<svg width="299" height="40" viewBox="0 0 299 40" fill="none" xmlns="http://www.w3.org/2000/svg">
<g clip-path="url(#clip0_24_1341)">
<path d="M69.5552 13.1867H70.9471L77.1742 29.89C77.5405 30.8424 77.9801 32.3808 77.9801 32.3808H78.0533C78.0533 32.3808 78.4929 30.8424 78.8592 29.89L85.0863 13.1867H86.4783L78.7127 33.8461H77.3207L69.5552 13.1867ZM98.1266 25.0548C97.9801 21.4651 95.8556 19.8534 93.3647 19.8534C90.6541 19.8534 88.1632 21.6116 87.5772 25.0548H98.1266ZM93.438 18.6812C97.4673 18.6812 99.4453 21.8314 99.4453 25.4211C99.4453 25.7142 99.372 26.227 99.372 26.227H87.5039C87.5039 30.4761 90.361 32.9669 93.8043 32.9669C96.6614 32.9669 98.3464 31.1354 98.3464 31.1354L99.0057 32.1611C99.0057 32.1611 96.9545 34.2123 93.731 34.2123C89.5552 34.2123 86.112 31.2087 86.112 26.52C86.2585 21.4651 89.6284 18.6812 93.438 18.6812ZM102.815 20.2929H100.837V19.194H102.815V15.0182H104.061V19.194H107.943V20.2929H104.061V28.4248C104.061 32.3076 106.405 32.8204 107.577 32.8204C108.017 32.8204 108.237 32.7471 108.237 32.7471V33.9193C108.237 33.9193 107.943 33.9926 107.504 33.9926C105.965 33.9926 102.815 33.4065 102.815 28.4981V20.2929ZM120.764 25.0548C120.617 21.4651 118.493 19.8534 116.002 19.8534C113.291 19.8534 110.801 21.6116 110.215 25.0548H120.764ZM116.002 18.6812C120.031 18.6812 122.009 21.8314 122.009 25.4211C122.009 25.7142 121.936 26.227 121.936 26.227H110.068C110.068 30.4761 112.925 32.9669 116.368 32.9669C119.226 32.9669 120.911 31.1354 120.911 31.1354L121.57 32.1611C121.57 32.1611 119.519 34.2123 116.295 34.2123C112.119 34.2123 108.676 31.2087 108.676 26.52C108.896 21.4651 112.266 18.6812 116.002 18.6812ZM125.379 19.0475H126.625V21.8314C126.625 22.4907 126.478 23.0768 126.478 23.0768H126.552C127.284 20.8058 128.969 18.9743 131.24 18.9743C131.68 18.9743 132.119 19.0475 132.119 19.0475V20.2929C132.119 20.2929 131.753 20.2197 131.46 20.2197C129.189 20.2197 127.724 22.1977 127.064 24.3222C126.771 25.3479 126.625 26.4468 126.625 27.3992V33.7728H125.379V19.0475ZM134.39 19.0475H135.636V33.7728H134.39V19.0475ZM134.317 13.1867H135.782V15.3112H134.317V13.1867ZM139.812 19.0475H141.057V21.6116C141.057 22.271 140.911 22.857 140.911 22.857H140.984C141.497 21.4651 143.548 18.6812 147.211 18.6812C151.02 18.6812 152.046 20.9523 152.046 24.4688V33.8461H150.801V24.9083C150.801 22.3442 150.508 19.9266 147.138 19.9266C144.354 19.9266 141.936 21.9047 141.204 24.6153C141.057 25.2014 140.984 25.934 140.984 26.5933V33.7728H139.812V19.0475ZM160.105 33.0402C163.328 33.0402 165.16 29.6702 165.16 26.8131V26.0072H164.207C161.716 26.0072 156.295 26.0072 156.295 29.8167C156.295 31.3552 157.614 33.0402 160.105 33.0402ZM164.207 24.8351H165.16V24.3222C165.16 21.0255 163.475 19.9266 161.13 19.9266C158.566 19.9266 156.881 21.3186 156.881 21.3186L156.149 20.2929C156.149 20.2929 157.907 18.6812 161.13 18.6812C164.5 18.6812 166.332 20.586 166.332 24.249V33.7728H165.086V31.7948C165.086 30.9889 165.233 30.4761 165.233 30.4761H165.16C165.16 30.4761 163.841 34.1391 159.958 34.1391C157.541 34.1391 154.976 32.8204 154.976 29.89C155.05 24.9083 161.57 24.8351 164.207 24.8351ZM170.508 19.0475H171.753V21.8314C171.753 22.4907 171.606 23.0768 171.606 23.0768H171.68C172.412 20.8058 174.097 18.9743 176.368 18.9743C176.808 18.9743 177.248 19.0475 177.248 19.0475V20.2929C177.248 20.2929 176.881 20.2197 176.588 20.2197C174.317 20.2197 172.852 22.1977 172.193 24.3222C171.9 25.3479 171.753 26.4468 171.753 27.3992V33.7728H170.508V19.0475ZM178.933 38.0951C178.933 38.0951 179.738 38.8277 180.764 38.8277C182.156 38.8277 183.035 37.5823 183.621 36.1904L184.72 33.7728L178.639 19.1208H179.958L184.793 30.9156C185.086 31.6482 185.306 32.3076 185.306 32.3076H185.379C185.379 32.3076 185.599 31.6482 185.892 30.9156L190.727 19.1208H192.046L184.5 37.2893C183.841 38.8277 182.596 39.9999 180.764 39.9999C179.372 39.9999 178.346 39.194 178.346 39.194L178.933 38.0951ZM200.984 13.1867H202.229V22.9303H215.343V13.1867H216.588V33.8461H215.343V24.0292H202.229V33.7728H200.984V13.1867ZM228.09 32.9669C231.607 32.9669 234.464 30.1098 234.464 26.3735C234.464 22.7105 231.607 19.9266 228.09 19.9266C224.574 19.9266 221.716 22.7105 221.716 26.3735C221.716 30.1098 224.574 32.9669 228.09 32.9669ZM228.09 18.6812C232.339 18.6812 235.709 22.0512 235.709 26.3003C235.709 30.6959 232.266 34.1391 228.09 34.1391C223.841 34.1391 220.471 30.6959 220.471 26.3003C220.471 22.0512 223.841 18.6812 228.09 18.6812ZM238.127 31.1354C238.127 31.1354 239.812 32.9669 242.669 32.9669C244.5 32.9669 246.039 32.0145 246.039 30.183C246.039 26.4468 237.907 27.4724 237.907 22.7105C237.907 20.0732 240.105 18.7545 242.596 18.7545C245.599 18.7545 246.991 20.3662 246.991 20.3662L246.259 21.3918C246.259 21.3918 245.013 19.9999 242.522 19.9999C240.837 19.9999 239.152 20.7325 239.152 22.7105C239.152 26.52 247.284 25.4211 247.284 30.3296C247.284 32.6739 245.306 34.2856 242.596 34.2856C239.006 34.2856 237.248 32.1611 237.248 32.1611L238.127 31.1354ZM256.808 32.9669C259.665 32.9669 262.083 30.5493 262.083 26.4468C262.083 22.4907 259.958 19.9266 256.955 19.9266C254.244 19.9266 251.68 21.8314 251.68 26.4468C251.68 29.7435 253.511 32.9669 256.808 32.9669ZM250.508 19.0475H251.753V20.8058C251.753 21.4651 251.68 21.9779 251.68 21.9779H251.753C251.753 21.9779 252.998 18.6812 257.101 18.6812C261.057 18.6812 263.475 21.8314 263.475 26.4468C263.475 31.1354 260.764 34.2123 256.955 34.2123C253.145 34.2123 251.753 30.8424 251.753 30.8424H251.68C251.68 30.8424 251.826 31.3552 251.826 32.1611V39.7801H250.581V19.0475H250.508ZM266.771 19.0475H268.017V33.7728H266.771V19.0475ZM266.625 13.1867H268.09V15.3112H266.625V13.1867ZM272.412 20.2929H270.434V19.194H272.412V15.0182H273.658V19.194H277.541V20.2929H273.658V28.4248C273.658 32.3076 276.002 32.8204 277.174 32.8204C277.614 32.8204 277.834 32.7471 277.834 32.7471V33.9193C277.834 33.9193 277.541 33.9926 277.101 33.9926C275.563 33.9926 272.412 33.4065 272.412 28.4981V20.2929ZM284.354 33.0402C287.577 33.0402 289.409 29.6702 289.409 26.8131V26.0072H288.456C285.966 26.0072 280.544 26.0072 280.544 29.8167C280.544 31.3552 281.863 33.0402 284.354 33.0402ZM288.383 24.8351H289.335V24.3222C289.335 21.0255 287.651 19.9266 285.306 19.9266C282.742 19.9266 281.057 21.3186 281.057 21.3186L280.324 20.2929C280.324 20.2929 282.083 18.6812 285.306 18.6812C288.676 18.6812 290.508 20.586 290.508 24.249V33.7728H289.262V31.7948C289.262 30.9889 289.409 30.4761 289.409 30.4761H289.335C289.335 30.4761 288.017 34.1391 284.134 34.1391C281.716 34.1391 279.079 32.8204 279.079 29.89C279.226 24.9083 285.746 24.8351 288.383 24.8351ZM294.61 13.1867H295.856V30.4761C295.856 32.5274 296.881 32.7471 297.614 32.7471H298.053V33.9193C298.053 33.9193 297.76 33.9926 297.541 33.9926C296.661 33.9926 294.683 33.6995 294.683 30.9156V13.1867H294.61ZM72.7054 5.05484C73.8043 5.05484 74.4636 4.3955 74.4636 3.2966C74.4636 2.1977 73.8043 1.53835 72.7054 1.53835H70.8739V5.05484H72.7054ZM69.5552 0.439453H72.8519C74.5369 0.439453 75.709 1.53835 75.709 3.2966C75.709 5.05484 74.5369 6.15374 72.8519 6.15374H70.8006V9.5237H69.5552V0.439453ZM79.9581 8.57132C81.2035 8.57132 82.2292 7.61894 82.2292 6.227C82.2292 4.90832 81.2035 3.88268 79.9581 3.88268C78.7127 3.88268 77.687 4.83506 77.687 6.227C77.687 7.61894 78.7127 8.57132 79.9581 8.57132ZM79.9581 2.85704C81.9361 2.85704 83.4746 4.32224 83.4746 6.227C83.4746 8.20502 81.9361 9.67022 79.9581 9.67022C77.9801 9.67022 76.4416 8.20502 76.4416 6.227C76.4416 4.24898 77.9801 2.85704 79.9581 2.85704ZM84.9398 4.10246H84.0607V3.07682H84.9398V1.24531H86.1852V3.15008H87.7237V4.17572H86.1852V7.10612C86.1852 8.4248 87.0643 8.57132 87.5772 8.57132H87.8702V9.5237H87.4306C86.6248 9.5237 84.9398 9.23066 84.9398 7.10612V4.10246ZM89.4819 4.10246H88.6028V3.07682H89.4819V1.24531H90.7273V3.15008H92.2658V4.17572H90.7273V7.10612C90.7273 8.4248 91.6065 8.57132 92.1193 8.57132H92.4123V9.5237H91.9728C91.1669 9.5237 89.4819 9.23066 89.4819 7.10612V4.10246ZM93.9508 7.83872C93.9508 7.83872 94.6834 8.57132 95.7823 8.57132C96.2951 8.57132 96.8812 8.27828 96.8812 7.76546C96.8812 6.5933 93.5112 6.81308 93.5112 4.68854C93.5112 3.51638 94.5369 2.85704 95.8556 2.85704C97.3208 2.85704 97.9801 3.58964 97.9801 3.58964L97.4673 4.54202C97.4673 4.54202 96.8812 3.95594 95.8556 3.95594C95.3427 3.95594 94.7567 4.17572 94.7567 4.7618C94.7567 5.93396 98.1266 5.64092 98.1266 7.83872C98.1266 8.93762 97.1742 9.74348 95.7823 9.74348C94.1706 9.74348 93.2915 8.7911 93.2915 8.7911L93.9508 7.83872ZM105.965 5.05484C107.064 5.05484 107.724 4.3955 107.724 3.2966C107.724 2.1977 107.064 1.53835 105.965 1.53835H104.134V5.05484H105.965ZM102.815 0.439453H106.112C107.797 0.439453 108.969 1.53835 108.969 3.2966C108.969 5.05484 107.797 6.15374 106.112 6.15374H104.061V9.5237H102.815V0.439453ZM113.218 8.57132C114.464 8.57132 115.489 7.61894 115.489 6.227C115.489 4.90832 114.464 3.88268 113.218 3.88268C111.973 3.88268 110.947 4.83506 110.947 6.227C110.947 7.61894 111.973 8.57132 113.218 8.57132ZM113.218 2.85704C115.196 2.85704 116.735 4.32224 116.735 6.227C116.735 8.20502 115.196 9.67022 113.218 9.67022C111.24 9.67022 109.702 8.20502 109.702 6.227C109.702 4.24898 111.24 2.85704 113.218 2.85704ZM118.127 3.00356H119.372V9.5237H118.127V3.00356ZM118.053 0.439453H119.299V1.68487H118.053V0.439453ZM121.35 3.00356H122.595V4.32224C122.889 3.73616 123.621 2.85704 125.013 2.85704C126.552 2.85704 127.284 3.6629 127.284 5.34788V9.5237H126.039V5.64092C126.039 4.7618 125.819 4.0292 124.793 4.0292C123.768 4.0292 123.035 4.68854 122.742 5.64092C122.669 5.93396 122.669 6.227 122.669 6.52004V9.5237H121.423V3.00356H121.35ZM129.189 4.10246H128.31V3.07682H129.189V1.24531H130.434V3.15008H131.973V4.17572H130.434V7.10612C130.434 8.4248 131.313 8.57132 131.826 8.57132H132.119V9.5237H131.68C130.874 9.5237 129.189 9.23066 129.189 7.10612V4.10246Z" fill="#A2ACB9"/>
<path d="M33.5114 9.3038C26.6983 6.59318 22.3759 8.49794 22.3759 8.49794C22.3759 8.49794 22.0096 5.86057 18.9327 3.44299C16.5884 7.98512 18.7129 13.8459 22.3759 14.432C22.7422 14.5053 23.0353 14.5053 23.4016 14.5053C20.6909 15.4576 17.1745 17.2159 14.3173 20.2928C12.1928 22.6371 9.99496 25.421 8.74954 28.3514C8.74954 28.3514 6.91804 27.8386 5.01328 26.1536C2.5957 23.9558 0.617676 19.9998 0.617676 19.9998C0.764196 22.2708 1.20376 29.6701 5.08654 34.139C5.08654 34.139 7.87042 31.2086 14.244 31.2086C22.669 31.2086 30.3613 34.139 30.3613 34.139C30.3613 34.139 24.5737 29.3038 24.5737 22.6371C24.5737 17.802 25.9657 15.2379 26.8448 14.139C31.0939 12.9668 33.5114 9.3038 33.5114 9.3038Z" fill="#A2ACB9"/>
<path d="M64.5001 11.7948C63.4012 7.32593 60.8371 3.66293 56.4415 1.02556C54.9763 0.146443 53.5111 -7.73417e-05 52.1924 -7.73417e-05C50.7272 -0.0733374 48.5294 0.292963 46.3316 1.46512C43.1082 3.29663 41.936 8.71787 41.936 8.71787C41.936 8.71787 44.7931 8.79113 47.6503 7.76549C47.0642 12.0146 45.3792 18.2417 40.3975 18.2417C34.903 18.2417 33.4378 13.6996 33.4378 13.6996C33.4378 13.6996 30.2144 18.0952 32.0459 24.6886C33.5843 30.2563 38.3462 34.2124 38.3462 34.2124C38.3462 34.2124 43.2547 28.2051 50.0679 28.2051C55.1961 28.2051 57.9067 34.2124 57.9067 34.2124C57.9067 34.2124 59.7382 26.227 58.1265 20.0732C57.2473 16.7032 55.0495 12.967 52.8517 10.0366C57.1741 12.1611 62.3023 13.553 64.5001 11.7948Z" fill="#A2ACB9"/>
</g>
<defs>
<clipPath id="clip0_24_1341">
<rect width="297.619" height="40" fill="white" transform="translate(0.526367)"/>
</clipPath>
</defs>
</svg>
