<svg width="520" height="462" viewBox="0 0 520 462" fill="none" xmlns="http://www.w3.org/2000/svg">
<g clip-path="url(#clip0_66_2321)">
<path d="M229.311 457.637C323.038 457.637 399.018 446.075 399.018 431.813C399.018 417.551 323.038 405.989 229.311 405.989C135.585 405.989 59.6045 417.551 59.6045 431.813C59.6045 446.075 135.585 457.637 229.311 457.637Z" fill="white"/>
<path d="M216.184 52.9447C138.84 96.692 74.0326 162.372 32.0494 240.551C17.5032 267.79 10.2892 308.825 20.3415 338.894C25.545 354.341 36.1886 367.43 48.2514 378.396C63.7438 392.547 82.5475 404.102 103.362 406.815C145.345 412.239 184.845 380.991 227.183 382.759C266.564 384.41 301.333 414.243 340.714 412.828C353.014 412.357 364.958 408.937 376.311 404.456C405.877 392.782 432.959 373.562 451.408 347.62C465.363 327.928 473.996 304.109 474.942 279.936C475.888 252.932 463.471 228.642 466.191 201.638C471.395 149.047 492.09 99.64 454.719 53.1805C433.551 26.885 400.674 10.9661 366.969 8.13613C333.146 5.30612 299.323 14.9753 267.983 27.8283C250.125 35.0213 232.859 43.5113 216.184 52.9447Z" fill="white"/>
<path d="M140.259 413.654C120.036 387.712 113.295 353.87 111.167 321.089C108.21 275.337 120.982 206.001 79.9452 173.574C78.5261 172.513 76.9887 171.452 75.333 171.452C71.4303 171.57 69.8929 176.64 70.0112 180.531C70.0112 193.62 73.6773 206.473 75.806 219.444C79.2357 239.49 77.4617 259.182 77.2252 279.228C77.1069 290.548 76.5156 301.986 77.4617 313.306C80.1818 347.974 96.6202 379.812 112.822 410.706C121.337 415.423 131.153 417.309 140.259 413.654Z" fill="#138713"/>
<path d="M78.7627 182.89C91.7716 212.015 88.342 245.504 89.8794 277.459C92.2446 325.57 106.791 372.972 131.863 414.126" stroke="#0A5E0A" stroke-miterlimit="10" stroke-linecap="round"/>
<path d="M61.0234 207.888C71.7853 216.85 81.2463 227.344 89.0516 239.018" stroke="#0A5E0A" stroke-miterlimit="10" stroke-linecap="round"/>
<path d="M89.6426 272.271C95.9105 253.876 103.952 235.952 113.413 218.972" stroke="#0A5E0A" stroke-miterlimit="10" stroke-linecap="round"/>
<path d="M68.1191 270.738C74.8601 281.469 82.9019 291.491 91.8899 300.453" stroke="#0A5E0A" stroke-miterlimit="10" stroke-linecap="round"/>
<path d="M99.2227 335.003C105.727 317.905 110.458 299.982 113.296 281.822" stroke="#0A5E0A" stroke-miterlimit="10" stroke-linecap="round"/>
<path d="M420.068 375.331C407.887 343.611 411.316 308.118 419.122 275.101C430.002 228.995 463.352 164.141 432.604 119.804C431.539 118.389 430.357 116.856 428.701 116.266C424.798 115.205 421.842 119.804 420.659 123.695C416.756 136.666 416.52 150.462 414.746 163.905C412.026 184.776 404.339 203.643 398.189 223.453C394.641 234.655 390.62 245.74 388.137 257.178C380.332 292.317 387.073 328.753 393.813 364.129C400.791 371.439 409.897 376.274 420.068 375.331Z" fill="#138713"/>
<path d="M428.582 128.648C432.721 161.429 419.239 193.502 411.197 225.458C399.016 273.804 399.135 325.098 411.552 373.326" stroke="#0A5E0A" stroke-miterlimit="10" stroke-linecap="round"/>
<path d="M403.511 148.104C411.434 160.249 417.702 173.456 421.841 187.253" stroke="#0A5E0A" stroke-miterlimit="10" stroke-linecap="round"/>
<path d="M412.499 220.387C424.207 203.997 437.571 188.668 452.117 174.753" stroke="#0A5E0A" stroke-miterlimit="10" stroke-linecap="round"/>
<path d="M391.685 212.487C395.114 225.104 400.081 237.368 406.231 248.923" stroke="#0A5E0A" stroke-miterlimit="10" stroke-linecap="round"/>
<path d="M403.038 285.242C414.628 270.266 424.68 253.994 432.959 236.896" stroke="#0A5E0A" stroke-miterlimit="10" stroke-linecap="round"/>
<path d="M390.385 73.6982C399.018 104.475 390.621 137.02 387.428 168.857C382.697 216.732 390.03 265.903 408.715 310.24" stroke="#0A5E0A" stroke-width="2" stroke-miterlimit="10" stroke-linecap="round"/>
<path d="M392.632 62.7318C393.223 65.2081 391.094 76.8819 391.094 76.8819C391.094 76.8819 384.235 67.2127 383.644 64.7364C383.052 62.2602 384.708 59.7839 387.191 59.3122C389.557 58.7226 392.04 60.2556 392.632 62.7318Z" fill="#0A5E0A"/>
<path d="M404.812 79.7119C403.393 81.7165 393.223 88.084 393.223 88.084C393.223 88.084 395.824 76.5281 397.362 74.4056C398.781 72.401 401.738 71.8115 403.748 73.3444C405.758 74.7594 406.35 77.7073 404.812 79.7119Z" fill="#0A5E0A"/>
<path d="M407.178 98.107C405.286 99.7578 393.933 103.413 393.933 103.413C393.933 103.413 399.254 92.8007 401.147 91.1499C403.039 89.499 405.995 89.7349 407.651 91.6215C409.307 93.6261 409.07 96.5741 407.178 98.107Z" fill="#0A5E0A"/>
<path d="M407.059 116.856C404.931 118.153 393.104 120.158 393.104 120.158C393.104 120.158 399.964 110.488 402.211 109.191C404.339 107.894 407.178 108.484 408.479 110.606C409.779 112.729 409.188 115.559 407.059 116.856Z" fill="#0A5E0A"/>
<path d="M379.859 83.2494C381.87 84.7823 393.459 87.6123 393.459 87.6123C393.459 87.6123 387.31 77.4714 385.299 75.9385C383.289 74.4056 380.332 74.8772 378.913 76.8818C377.376 78.8864 377.849 81.8344 379.859 83.2494Z" fill="#0A5E0A"/>
<path d="M380.451 100.701C382.579 101.998 394.406 103.767 394.406 103.767C394.406 103.767 387.31 94.2157 385.181 92.9186C383.052 91.6215 380.214 92.329 378.913 94.4515C377.612 96.574 378.204 99.404 380.451 100.701Z" fill="#0A5E0A"/>
<path d="M379.268 117.092C381.396 118.389 393.223 120.158 393.223 120.158C393.223 120.158 386.127 110.606 383.998 109.309C381.869 108.012 379.031 108.72 377.73 110.842C376.311 112.965 377.021 115.795 379.268 117.092Z" fill="#0A5E0A"/>
<path d="M405.522 133.246C403.394 134.543 391.567 136.548 391.567 136.548C391.567 136.548 398.427 126.879 400.674 125.582C402.802 124.285 405.641 124.874 406.942 126.997C408.361 129.119 407.651 131.949 405.522 133.246Z" fill="#0A5E0A"/>
<path d="M377.73 133.482C379.859 134.779 391.685 136.548 391.685 136.548C391.685 136.548 384.59 126.997 382.461 125.7C380.332 124.403 377.494 125.11 376.193 127.233C374.892 129.355 375.602 132.185 377.73 133.482Z" fill="#0A5E0A"/>
<path d="M403.275 151.642C401.147 152.939 389.32 154.943 389.32 154.943C389.32 154.943 396.18 145.274 398.427 143.977C400.555 142.68 403.394 143.269 404.694 145.392C405.995 147.397 405.404 150.227 403.275 151.642Z" fill="#0A5E0A"/>
<path d="M375.483 151.759C377.612 153.056 389.438 154.825 389.438 154.825C389.438 154.825 382.343 145.274 380.214 143.977C378.085 142.68 375.247 143.387 373.946 145.51C372.527 147.75 373.236 150.462 375.483 151.759Z" fill="#0A5E0A"/>
<path d="M400.792 171.687C398.663 172.985 386.837 174.989 386.837 174.989C386.837 174.989 393.696 165.32 395.943 164.023C398.072 162.726 400.91 163.315 402.211 165.438C403.512 167.56 403.039 170.39 400.792 171.687Z" fill="#0A5E0A"/>
<path d="M373 171.923C375.129 173.22 386.955 174.989 386.955 174.989C386.955 174.989 379.859 165.438 377.73 164.141C375.602 162.844 372.763 163.551 371.462 165.674C370.162 167.796 370.871 170.626 373 171.923Z" fill="#0A5E0A"/>
<path d="M399.609 193.384C397.48 194.681 385.654 196.686 385.654 196.686C385.654 196.686 392.513 187.017 394.76 185.72C396.889 184.422 399.727 185.012 401.028 187.135C402.329 189.257 401.738 192.087 399.609 193.384Z" fill="#0A5E0A"/>
<path d="M371.817 193.62C373.946 194.917 385.772 196.686 385.772 196.686C385.772 196.686 378.676 187.135 376.548 185.838C374.419 184.54 371.581 185.248 370.28 187.37C368.979 189.493 369.689 192.323 371.817 193.62Z" fill="#0A5E0A"/>
<path d="M400.91 217.321C398.781 218.736 387.073 220.977 387.073 220.977C387.073 220.977 393.696 211.072 395.825 209.657C397.953 208.242 400.792 208.831 402.211 210.954C403.63 213.076 403.039 215.906 400.91 217.321Z" fill="#0A5E0A"/>
<path d="M373.118 218.501C375.365 219.68 387.191 221.095 387.191 221.095C387.191 221.095 379.859 211.779 377.612 210.482C375.365 209.303 372.645 210.011 371.344 212.251C370.161 214.491 370.989 217.204 373.118 218.501Z" fill="#0A5E0A"/>
<path d="M403.393 240.433C401.501 242.084 390.029 245.622 390.029 245.622C390.029 245.622 395.469 235.127 397.48 233.476C399.372 231.825 402.329 232.061 403.984 234.066C405.64 235.952 405.403 238.782 403.393 240.433Z" fill="#0A5E0A"/>
<path d="M375.956 244.442C378.321 245.386 390.148 245.504 390.148 245.504C390.148 245.504 381.869 237.014 379.504 235.952C377.139 235.009 374.419 236.07 373.473 238.311C372.527 240.551 373.591 243.499 375.956 244.442Z" fill="#0A5E0A"/>
<path d="M407.769 263.427C405.877 265.078 394.642 269.087 394.642 269.087C394.642 269.087 399.727 258.357 401.619 256.706C403.511 255.055 406.35 255.173 408.124 257.06C409.779 258.828 409.661 261.658 407.769 263.427Z" fill="#0A5E0A"/>
<path d="M380.45 268.498C382.815 269.441 394.76 269.087 394.76 269.087C394.76 269.087 386.126 260.951 383.761 260.008C381.396 259.064 378.794 260.243 377.848 262.602C376.902 264.96 378.085 267.554 380.45 268.498Z" fill="#0A5E0A"/>
<path d="M414.037 285.124C412.381 287.01 401.501 292.081 401.501 292.081C401.501 292.081 405.522 280.879 407.178 278.992C408.833 277.105 411.79 276.988 413.682 278.638C415.574 280.289 415.692 283.237 414.037 285.124Z" fill="#0A5E0A"/>
<path d="M387.31 292.788C389.793 293.496 401.619 291.963 401.619 291.963C401.619 291.963 392.158 284.652 389.793 284.063C387.31 283.355 384.826 284.888 384.116 287.246C383.407 289.723 384.944 292.199 387.31 292.788Z" fill="#0A5E0A"/>
<path d="M33.8223 206.355C54.3999 230.882 60.3131 263.899 70.6019 294.204C86.2125 339.838 113.295 381.345 148.773 414.126" stroke="#0A5E0A" stroke-width="2" stroke-miterlimit="10" stroke-linecap="round"/>
<path d="M31.2209 195.507C32.7584 197.511 35.7149 209.067 35.7149 209.067C35.7149 209.067 25.4261 203.054 23.8887 201.049C22.3513 199.044 22.8243 196.214 24.8348 194.681C26.8452 193.148 29.6835 193.502 31.2209 195.507Z" fill="#0A5E0A"/>
<path d="M49.4337 206.002C48.9606 208.478 42.338 218.383 42.338 218.383C42.338 218.383 39.8544 206.709 40.3275 204.233C40.8005 201.756 43.1658 200.106 45.6493 200.577C48.2511 201.049 49.9067 203.407 49.4337 206.002Z" fill="#0A5E0A"/>
<path d="M59.2494 221.802C58.185 224.043 49.4336 232.179 49.4336 232.179C49.4336 232.179 49.9066 220.269 50.971 218.029C52.0354 215.789 54.7554 214.727 57.1207 215.789C59.2494 216.732 60.3137 219.444 59.2494 221.802Z" fill="#0A5E0A"/>
<path d="M66.818 238.9C65.3989 241.023 55.4648 247.626 55.4648 247.626C55.4648 247.626 57.7118 235.952 59.131 233.83C60.5501 231.707 63.3884 231.118 65.5171 232.533C67.6459 233.948 68.2372 236.778 66.818 238.9Z" fill="#0A5E0A"/>
<path d="M28.1459 219.562C30.6294 220.034 42.3374 217.911 42.3374 217.911C42.3374 217.911 32.5216 211.19 30.0381 210.718C27.5546 210.246 25.071 211.779 24.598 214.256C24.1249 216.614 25.6624 218.972 28.1459 219.562Z" fill="#0A5E0A"/>
<path d="M35.9515 235.127C38.435 235.363 49.9065 232.061 49.9065 232.061C49.9065 232.061 39.4994 226.283 37.0158 225.93C34.5323 225.694 32.1671 227.462 31.9306 229.939C31.5758 232.533 33.468 234.891 35.9515 235.127Z" fill="#0A5E0A"/>
<path d="M41.628 250.574C44.1115 250.81 55.583 247.508 55.583 247.508C55.583 247.508 45.1759 241.73 42.6924 241.377C40.2089 241.141 37.8436 242.91 37.6071 245.386C37.3706 247.98 39.1445 250.22 41.628 250.574Z" fill="#0A5E0A"/>
<path d="M72.3766 254.465C70.9575 256.588 61.0234 263.191 61.0234 263.191C61.0234 263.191 63.2704 251.518 64.6896 249.395C66.1087 247.273 68.947 246.683 71.0757 248.098C73.2045 249.513 73.6775 252.343 72.3766 254.465Z" fill="#0A5E0A"/>
<path d="M47.1862 266.139C49.6697 266.375 61.1411 263.073 61.1411 263.073C61.1411 263.073 50.734 257.295 48.2505 256.942C45.767 256.706 43.4018 258.475 43.1652 260.951C42.8105 263.545 44.5844 265.785 47.1862 266.139Z" fill="#0A5E0A"/>
<path d="M77.8161 272.035C76.3969 274.158 66.4629 280.761 66.4629 280.761C66.4629 280.761 68.7099 269.087 70.129 266.965C71.5482 264.842 74.3865 264.253 76.5152 265.668C78.6439 267.083 79.2352 269.913 77.8161 272.035Z" fill="#0A5E0A"/>
<path d="M52.6261 283.709C55.1096 283.945 66.581 280.643 66.581 280.643C66.581 280.643 56.1739 274.865 53.6904 274.511C51.2069 274.276 48.8417 276.044 48.6051 278.521C48.3686 281.115 50.1425 283.473 52.6261 283.709Z" fill="#0A5E0A"/>
<path d="M83.9665 291.256C82.5473 293.378 72.6133 299.982 72.6133 299.982C72.6133 299.982 74.8603 288.308 76.2794 286.185C77.6986 284.063 80.5369 283.473 82.6656 284.888C84.7943 286.303 85.3856 289.251 83.9665 291.256Z" fill="#0A5E0A"/>
<path d="M58.7764 302.929C61.26 303.165 72.7314 299.864 72.7314 299.864C72.7314 299.864 62.3243 294.086 59.8408 293.732C57.3573 293.496 54.992 295.265 54.7555 297.741C54.519 300.453 56.2929 302.694 58.7764 302.929Z" fill="#0A5E0A"/>
<path d="M92.0075 311.537C90.5883 313.66 80.6543 320.263 80.6543 320.263C80.6543 320.263 82.9013 308.59 84.3204 306.467C85.7396 304.345 88.5779 303.755 90.7066 305.17C92.8353 306.585 93.3084 309.533 92.0075 311.537Z" fill="#0A5E0A"/>
<path d="M66.818 323.211C69.3015 323.447 80.773 320.145 80.773 320.145C80.773 320.145 70.3659 314.368 67.8824 314.014C65.3989 313.778 63.0336 315.547 62.7971 318.023C62.4423 320.735 64.2162 322.975 66.818 323.211Z" fill="#0A5E0A"/>
<path d="M103.124 332.88C101.823 335.003 92.126 341.96 92.126 341.96C92.126 341.96 94.0182 330.286 95.3191 328.046C96.6199 325.923 99.4582 325.216 101.587 326.513C103.716 327.81 104.425 330.64 103.124 332.88Z" fill="#0A5E0A"/>
<path d="M78.2894 345.262C80.7729 345.498 92.1261 341.842 92.1261 341.842C92.1261 341.842 81.6007 336.418 78.999 336.182C76.5155 335.946 74.2685 337.833 74.0319 340.309C73.9137 342.903 75.6876 345.144 78.2894 345.262Z" fill="#0A5E0A"/>
<path d="M114.951 352.808C113.886 355.049 105.017 362.949 105.017 362.949C105.017 362.949 105.608 351.04 106.791 348.799C107.855 346.559 110.575 345.615 112.94 346.677C115.069 347.738 116.015 350.45 114.951 352.808Z" fill="#0A5E0A"/>
<path d="M91.6534 367.784C94.1369 367.666 105.017 362.832 105.017 362.832C105.017 362.832 93.9003 358.469 91.4168 358.586C88.9333 358.704 86.9229 360.709 86.9229 363.303C86.9229 365.897 89.0516 367.902 91.6534 367.784Z" fill="#0A5E0A"/>
<path d="M128.433 371.911C127.368 374.269 118.854 382.524 118.854 382.524C118.854 382.524 118.972 370.614 120.036 368.374C121.101 366.133 123.702 364.954 126.068 366.015C128.433 366.841 129.497 369.553 128.433 371.911Z" fill="#0A5E0A"/>
<path d="M105.726 387.83C108.21 387.712 118.971 382.406 118.971 382.406C118.971 382.406 107.737 378.514 105.135 378.632C102.651 378.75 100.641 380.991 100.877 383.467C100.996 386.061 103.124 387.948 105.726 387.83Z" fill="#0A5E0A"/>
<path d="M143.097 389.127C142.269 391.485 134.582 400.565 134.582 400.565C134.582 400.565 133.518 388.773 134.346 386.297C135.173 383.939 137.657 382.524 140.14 383.349C142.624 384.057 143.925 386.651 143.097 389.127Z" fill="#0A5E0A"/>
<path d="M122.047 407.168C124.53 406.815 134.701 400.447 134.701 400.447C134.701 400.447 123.111 397.735 120.628 398.089C118.144 398.443 116.37 400.801 116.843 403.395C117.198 405.871 119.563 407.522 122.047 407.168Z" fill="#0A5E0A"/>
<path d="M466.427 185.602C463.707 217.439 444.548 245.032 430.475 273.804C409.306 317.08 399.017 365.662 401.146 413.772" stroke="#0A5E0A" stroke-width="2" stroke-miterlimit="10" stroke-linecap="round"/>
<path d="M472.222 176.05C471.867 178.527 465.835 188.786 465.835 188.786C465.835 188.786 462.761 177.348 463.115 174.753C463.47 172.277 465.835 170.508 468.319 170.862C470.921 171.216 472.576 173.574 472.222 176.05Z" fill="#0A5E0A"/>
<path d="M477.78 196.214C475.651 197.629 464.062 199.988 464.062 199.988C464.062 199.988 470.566 190.083 472.695 188.55C474.823 187.135 477.662 187.606 479.081 189.729C480.5 191.969 479.909 194.799 477.78 196.214Z" fill="#0A5E0A"/>
<path d="M473.641 214.374C471.276 215.199 459.331 214.727 459.331 214.727C459.331 214.727 468.082 206.591 470.448 205.766C472.813 204.94 475.415 206.119 476.361 208.478C477.189 210.836 476.006 213.43 473.641 214.374Z" fill="#0A5E0A"/>
<path d="M466.899 231.825C464.416 232.297 452.708 230.057 452.708 230.057C452.708 230.057 462.524 223.335 465.007 222.864C467.491 222.392 469.856 223.925 470.447 226.401C471.039 228.877 469.383 231.354 466.899 231.825Z" fill="#0A5E0A"/>
<path d="M453.182 190.908C454.601 193.031 464.417 199.634 464.417 199.634C464.417 199.634 462.17 187.96 460.869 185.838C459.45 183.715 456.611 183.126 454.483 184.541C452.354 185.956 451.763 188.786 453.182 190.908Z" fill="#0A5E0A"/>
<path d="M447.623 207.416C449.161 209.421 459.686 215.081 459.686 215.081C459.686 215.081 456.375 203.643 454.837 201.638C453.3 199.634 450.343 199.398 448.333 200.931C446.322 202.582 446.086 205.53 447.623 207.416Z" fill="#0A5E0A"/>
<path d="M440.764 222.392C442.301 224.397 452.827 230.057 452.827 230.057C452.827 230.057 449.515 218.619 447.978 216.614C446.441 214.609 443.484 214.374 441.474 215.907C439.463 217.557 439.227 220.387 440.764 222.392Z" fill="#0A5E0A"/>
<path d="M459.804 246.683C457.32 247.155 445.612 244.914 445.612 244.914C445.612 244.914 455.428 238.193 457.912 237.721C460.395 237.25 462.76 238.783 463.352 241.259C463.825 243.735 462.287 246.211 459.804 246.683Z" fill="#0A5E0A"/>
<path d="M433.668 237.249C435.205 239.254 445.731 244.914 445.731 244.914C445.731 244.914 442.419 233.476 440.882 231.471C439.345 229.467 436.388 229.231 434.378 230.764C432.367 232.415 432.012 235.245 433.668 237.249Z" fill="#0A5E0A"/>
<path d="M451.289 263.073C448.806 263.545 437.098 261.305 437.098 261.305C437.098 261.305 446.913 254.583 449.397 254.112C451.88 253.64 454.246 255.173 454.837 257.649C455.31 260.125 453.773 262.602 451.289 263.073Z" fill="#0A5E0A"/>
<path d="M425.153 253.64C426.691 255.645 437.216 261.305 437.216 261.305C437.216 261.305 433.905 249.867 432.367 247.862C430.83 245.858 427.873 245.622 425.863 247.155C423.852 248.805 423.498 251.635 425.153 253.64Z" fill="#0A5E0A"/>
<path d="M441.946 281.115C439.463 281.586 427.755 279.346 427.755 279.346C427.755 279.346 437.571 272.625 440.054 272.153C442.538 271.681 444.903 273.214 445.494 275.691C446.086 278.167 444.43 280.525 441.946 281.115Z" fill="#0A5E0A"/>
<path d="M415.811 271.681C417.348 273.686 427.874 279.346 427.874 279.346C427.874 279.346 424.562 267.908 423.025 265.903C421.487 263.899 418.531 263.663 416.52 265.196C414.628 266.847 414.273 269.677 415.811 271.681Z" fill="#0A5E0A"/>
<path d="M433.314 301.043C430.83 301.514 419.122 299.274 419.122 299.274C419.122 299.274 428.938 292.553 431.421 292.081C433.905 291.609 436.27 293.142 436.861 295.619C437.334 298.095 435.797 300.571 433.314 301.043Z" fill="#0A5E0A"/>
<path d="M407.177 291.609C408.714 293.614 419.24 299.274 419.24 299.274C419.24 299.274 415.928 287.836 414.391 285.831C412.853 283.827 409.897 283.591 407.886 285.124C405.876 286.775 405.521 289.605 407.177 291.609Z" fill="#0A5E0A"/>
<path d="M426.099 323.919C423.615 324.508 411.907 322.622 411.907 322.622C411.907 322.622 421.487 315.665 423.97 315.075C426.454 314.485 428.937 316.018 429.528 318.495C430.12 320.853 428.582 323.329 426.099 323.919Z" fill="#0A5E0A"/>
<path d="M399.726 315.311C401.382 317.197 412.026 322.622 412.026 322.622C412.026 322.622 408.359 311.302 406.704 309.415C405.048 307.528 402.21 307.292 400.199 308.943C398.307 310.476 398.071 313.424 399.726 315.311Z" fill="#0A5E0A"/>
<path d="M420.422 346.441C418.057 347.266 406.112 346.677 406.112 346.677C406.112 346.677 414.982 338.658 417.347 337.833C419.712 337.008 422.314 338.187 423.26 340.663C424.088 342.903 422.787 345.616 420.422 346.441Z" fill="#0A5E0A"/>
<path d="M393.222 340.663C395.114 342.432 406.231 346.559 406.231 346.559C406.231 346.559 401.382 335.71 399.608 333.942C397.716 332.173 394.878 332.291 393.104 334.06C391.33 336.064 391.448 338.894 393.222 340.663Z" fill="#0A5E0A"/>
<path d="M416.52 369.435C414.154 370.378 402.21 370.142 402.21 370.142C402.21 370.142 410.725 361.888 413.09 360.945C415.455 360.001 418.057 361.181 419.003 363.539C419.949 365.897 418.885 368.491 416.52 369.435Z" fill="#0A5E0A"/>
<path d="M389.083 364.718C390.975 366.369 402.328 370.142 402.328 370.142C402.328 370.142 397.125 359.53 395.233 357.761C393.341 356.11 390.384 356.228 388.728 358.233C387.073 360.237 387.191 363.067 389.083 364.718Z" fill="#0A5E0A"/>
<path d="M414.746 391.957C412.499 393.136 400.673 394.079 400.673 394.079C400.673 394.079 408.36 385 410.607 383.821C412.854 382.642 415.574 383.585 416.757 385.825C417.939 388.066 416.993 390.778 414.746 391.957Z" fill="#0A5E0A"/>
<path d="M387.073 389.952C389.083 391.367 400.791 394.08 400.791 394.08C400.791 394.08 394.523 383.939 392.513 382.524C390.502 381.109 387.546 381.58 386.126 383.585C384.471 385.707 384.944 388.537 387.073 389.952Z" fill="#0A5E0A"/>
<path d="M424.681 329.815C435.679 308.354 443.603 285.36 455.192 264.135C466.782 242.91 482.866 223.1 504.863 213.195C506.518 212.487 508.765 211.78 510.184 213.077C511.485 214.256 511.13 216.26 510.657 217.911C507.228 229.585 499.068 238.547 494.219 249.395C489.488 260.008 486.414 271.799 482.511 282.766C475.533 302.34 468.438 322.15 457.558 339.956C450.58 351.276 441.829 361.652 431.303 369.907C424.681 375.095 408.952 388.538 400.792 380.637C393.696 373.68 402.329 365.897 406.35 360.237C413.091 350.45 419.241 340.309 424.681 329.815Z" fill="#138713"/>
<path d="M519.409 206.237C499.896 221.331 485.35 241.966 474.588 264.135C468.911 275.809 464.063 287.954 458.741 299.746C449.634 319.91 438.754 339.248 426.219 357.525C419.359 367.548 411.672 377.571 400.674 382.642" stroke="#0A5E0A" stroke-miterlimit="10" stroke-linecap="round"/>
<path d="M487.005 218.501C485.586 228.877 483.93 239.136 482.038 249.513" stroke="#0A5E0A" stroke-miterlimit="10" stroke-linecap="round"/>
<path d="M470.567 274.629C483.34 266.847 495.048 257.296 505.337 246.329" stroke="#0A5E0A" stroke-miterlimit="10" stroke-linecap="round"/>
<path d="M446.56 260.243C449.398 281.469 449.28 303.165 446.205 324.39" stroke="#0A5E0A" stroke-miterlimit="10" stroke-linecap="round"/>
<path d="M437.217 340.899C455.784 323.565 472.932 304.934 488.661 285.124" stroke="#0A5E0A" stroke-miterlimit="10" stroke-linecap="round"/>
<path d="M135.646 344.318C131.625 321.207 124.293 298.684 120.864 275.455C117.434 252.225 118.262 227.344 129.615 206.827C130.443 205.294 131.862 203.525 133.636 203.643C135.292 203.761 136.356 205.53 136.947 207.181C141.086 218.265 140.022 229.939 142.624 241.259C145.226 252.225 149.72 263.191 153.031 274.04C159.181 293.378 165.212 312.834 167.104 332.998C168.287 345.851 167.696 359.058 164.266 371.557C162.137 379.458 157.761 399.15 146.763 397.735C137.184 396.556 139.313 385.472 139.076 378.632C138.84 367.076 137.657 355.638 135.646 344.318Z" fill="#138713"/>
<path d="M136.829 192.913C130.443 216.024 131.389 240.551 136.002 264.017C138.367 276.398 141.796 288.661 144.635 301.043C149.365 322.032 152.204 343.493 153.268 364.954C153.859 376.628 153.741 389.009 148.183 399.386" stroke="#0A5E0A" stroke-miterlimit="10" stroke-linecap="round"/>
<path d="M118.735 221.449C123.821 230.292 128.551 239.254 133.045 248.452" stroke="#0A5E0A" stroke-miterlimit="10" stroke-linecap="round"/>
<path d="M138.958 274.629C144.398 261.069 147.828 246.801 149.365 232.415" stroke="#0A5E0A" stroke-miterlimit="10" stroke-linecap="round"/>
<path d="M111.876 277.459C126.541 292.317 139.195 309.179 149.247 327.574" stroke="#0A5E0A" stroke-miterlimit="10" stroke-linecap="round"/>
<path d="M151.849 345.615C156.106 321.325 158.471 296.798 159.063 272.153" stroke="#0A5E0A" stroke-miterlimit="10" stroke-linecap="round"/>
<path d="M35.3604 319.202C34.1778 313.778 33.1134 308.354 33.2317 302.812C33.2317 300.571 33.823 297.741 35.9517 296.916C37.8439 296.208 39.9726 297.505 41.51 298.802C47.3049 303.991 50.7345 311.184 54.5189 317.905C63.1521 333.234 74.387 347.148 87.5141 358.822C97.8029 367.902 138.249 403.513 107.855 413.89C82.7836 422.38 63.8616 386.061 54.5189 369.081C45.7675 353.398 39.3813 336.536 35.3604 319.202Z" fill="#138713"/>
<path d="M39.7363 307.528C55.82 345.851 76.989 383.467 109.511 409.527" stroke="#0A5E0A" stroke-miterlimit="10" stroke-linecap="round"/>
<path d="M34.0596 327.574C40.9188 332.998 48.1328 337.833 55.7016 342.196" stroke="#0A5E0A" stroke-miterlimit="10" stroke-linecap="round"/>
<path d="M63.1526 353.752C63.8621 341.371 62.6795 328.989 59.3682 317.08" stroke="#0A5E0A" stroke-miterlimit="10" stroke-linecap="round"/>
<path d="M44.8213 361.063C55.2284 367.902 66.5816 373.326 78.4078 377.217" stroke="#0A5E0A" stroke-miterlimit="10" stroke-linecap="round"/>
<path d="M290.807 40.9173C290.807 40.9173 271.648 17.2159 239.244 31.7198C206.84 46.2236 184.607 80.4196 186.026 123.106C186.499 139.614 185.317 156.123 177.393 171.098C174.318 176.994 170.179 182.418 166.868 188.196C158.235 203.289 154.805 221.685 159.654 238.429C163.32 251.046 172.071 262.248 183.661 268.498C197.025 275.573 215.71 274.276 230.493 275.337C260.532 277.341 290.807 277.577 320.845 277.106C329.124 276.988 337.52 276.87 345.799 276.87C372.999 276.87 400.791 256.588 405.758 237.368C410.725 218.147 400.554 198.219 372.763 178.055C344.971 157.891 347.455 110.842 340.122 82.66C333.5 57.3078 313.986 36.0827 290.807 40.9173Z" fill="#6F47FF"/>
<path fill-rule="evenodd" clip-rule="evenodd" d="M335.927 143.079C336.098 143.048 336.262 143.161 336.293 143.331C338.76 156.804 346.991 168.543 356.318 178.549L356.32 178.55C359.908 182.445 363.669 186.164 367.436 189.889C368.567 191.007 369.699 192.126 370.827 193.251C375.707 198.117 380.507 203.08 384.836 208.519L384.837 208.52C393.374 219.397 399.927 232.558 399.332 246.461C399.324 246.634 399.177 246.768 399.004 246.761C398.83 246.753 398.696 246.607 398.703 246.434C399.29 232.744 392.835 219.728 384.343 208.908C380.038 203.499 375.259 198.557 370.383 193.695C369.259 192.575 368.13 191.458 367 190.341C363.231 186.614 359.456 182.882 355.857 178.976C346.499 168.936 338.174 157.091 335.674 143.444C335.643 143.273 335.756 143.11 335.927 143.079Z" fill="#462CA5"/>
<path fill-rule="evenodd" clip-rule="evenodd" d="M285.171 51.1029C285.171 50.9296 285.312 50.7891 285.485 50.7891V51.1029C285.485 50.7891 285.485 50.7891 285.485 50.7891L285.487 50.7891L285.491 50.7891L285.506 50.7892C285.518 50.7893 285.536 50.7896 285.56 50.7901C285.607 50.7911 285.676 50.7931 285.766 50.797C285.946 50.8048 286.21 50.8204 286.55 50.8514C287.231 50.9134 288.218 51.0369 289.448 51.2835C291.909 51.7765 295.348 52.7613 299.271 54.7285C307.123 58.6652 316.899 66.5268 324.676 82.2118C331.743 96.4812 333.17 112.548 334.591 128.543L334.626 128.945C336.061 145.096 337.538 161.158 344.779 175.363C349.958 185.575 357.969 194.271 366.01 202.406C366.194 202.592 366.378 202.778 366.563 202.965C371.242 207.685 376.141 212.627 380.04 218.038C384.096 223.666 387.085 229.823 387.623 236.799C387.636 236.971 387.507 237.122 387.334 237.136C387.16 237.149 387.009 237.02 386.996 236.847C386.47 230.026 383.546 223.978 379.53 218.404C375.66 213.034 370.792 208.124 366.103 203.394C365.923 203.211 365.742 203.029 365.562 202.847C357.519 194.71 349.446 185.954 344.218 175.648C336.913 161.317 335.433 145.129 334 129L333.969 128.655C332.545 112.619 331.127 96.6535 324.112 82.4902C316.396 66.9271 306.718 59.1647 298.989 55.2894C295.122 53.3506 291.738 52.3824 289.324 51.8989C288.118 51.6571 287.154 51.5366 286.493 51.4765C286.163 51.4465 285.909 51.4315 285.738 51.4241C285.653 51.4204 285.589 51.4186 285.546 51.4177C285.525 51.4172 285.509 51.417 285.499 51.4169L285.488 51.4168L285.486 51.4168C285.486 51.4168 285.486 51.4168 285.486 51.4168M285.171 51.1029C285.171 51.2762 285.312 51.4167 285.486 51.4168L285.171 51.1029Z" fill="#462CA5"/>
<path d="M314.341 147.161C314.341 147.161 311.858 193.031 328.296 209.775C344.735 226.519 382.934 244.089 382.934 244.089C382.934 244.089 335.156 296.798 297.312 296.798C259.468 296.798 229.192 253.168 229.192 253.168C229.192 253.168 270.111 235.835 269.165 212.605L314.341 147.161Z" fill="#EA9D9D"/>
<path opacity="0.5" d="M314.341 147.161C314.341 147.161 311.858 193.031 328.296 209.775C344.735 226.519 382.934 244.089 382.934 244.089C382.934 244.089 335.156 296.798 297.312 296.798C259.468 296.798 229.192 253.168 229.192 253.168C229.192 253.168 270.111 235.835 269.165 212.605L314.341 147.161Z" fill="url(#paint0_linear_66_2321)"/>
<path d="M217.958 79.712C217.248 80.7733 192.295 116.974 216.302 160.014C240.31 203.054 269.284 221.331 288.324 211.897C307.364 202.582 322.147 159.896 312.331 110.724C302.634 61.5528 247.287 39.0306 217.958 79.712Z" fill="#EA9D9D"/>
<path d="M342.251 219.798C342.251 219.798 338.703 245.268 306.181 263.074L297.075 288.662L285.248 264.017C285.248 264.017 261.359 253.051 251.189 240.433C251.189 240.433 213.936 260.126 201.637 269.323C189.338 278.521 182.478 295.147 177.984 327.692L223.87 337.715C223.87 337.715 218.43 355.639 222.096 363.303C225.644 370.968 251.189 418.135 251.189 418.135H381.987L373.709 326.985C373.709 326.985 422.315 322.268 438.398 319.084C438.398 319.084 433.786 271.799 419.713 252.107C412.026 241.141 342.251 219.798 342.251 219.798Z" fill="#FFD639"/>
<path opacity="0.5" d="M381.988 418.017L377.731 371.086C372.882 376.746 356.443 382.995 340.005 382.995C329.125 382.995 317.535 382.052 307.956 376.038C296.957 369.199 283.121 369.671 272.595 377.217C269.757 379.34 266.682 381.109 263.489 382.76H263.371C260.532 384.175 257.458 381.345 258.64 378.397C267.865 356.464 271.413 331.819 267.51 309.533C285.013 288.897 292.109 260.126 286.314 233.712C274.369 230.528 259.941 234.066 249.416 240.433C238.89 246.801 230.494 256.234 222.925 265.904C212.4 279.346 202.939 294.086 198.918 310.712C195.606 323.919 195.843 337.833 198.445 351.158C203.057 374.387 220.087 396.202 238.772 410.942C240.546 408.937 242.084 406.815 243.739 404.692C247.878 412.357 250.953 418.017 250.953 418.017H381.988Z" fill="url(#paint1_linear_66_2321)"/>
<path d="M77.5801 270.738C85.6219 267.201 95.7925 266.021 102.77 271.328C107.619 275.101 109.984 281.469 110.102 287.718C110.102 293.85 108.21 299.864 105.727 305.524C103.243 311.184 100.405 316.726 98.3943 322.504C95.0829 332.527 94.6099 343.611 97.3299 353.87C99.1038 360.827 102.297 367.548 107.382 372.737C112.468 377.925 119.445 381.345 126.659 381.345" stroke="#303D66" stroke-width="15" stroke-miterlimit="10" stroke-linecap="round"/>
<path d="M195.251 256.47C195.251 256.47 115.897 274.512 103.716 347.62C94.1366 404.81 127.014 429.691 141.678 437.709C145.581 439.832 149.956 440.893 154.332 440.893H186.027C187.919 440.893 189.456 439.36 189.338 437.473C189.22 434.054 188.037 429.101 182.36 426.743C182.36 426.743 193.595 426.743 236.288 426.271C236.288 426.271 259.704 340.899 248.706 286.303L195.251 256.47Z" fill="#303D66"/>
<path d="M146.172 336.064C146.172 336.064 183.661 341.489 175.619 389.245C174.673 394.787 170.297 413.536 168.878 419.55C168.642 420.729 168.76 421.908 169.351 422.969C170.297 424.62 172.071 425.682 173.964 425.564C176.329 425.446 180.468 425.21 184.607 428.158" stroke="#1A284C" stroke-miterlimit="10" stroke-linecap="round"/>
<path fill-rule="evenodd" clip-rule="evenodd" d="M238.636 303.392C238.902 303.317 239.178 303.472 239.253 303.738C241.996 313.488 242.233 323.948 240.088 333.929C240.03 334.199 239.764 334.371 239.494 334.313C239.224 334.255 239.053 333.989 239.111 333.719C241.223 323.89 240.987 313.596 238.29 304.008C238.216 303.743 238.37 303.466 238.636 303.392Z" fill="#1A284C"/>
<path fill-rule="evenodd" clip-rule="evenodd" d="M234.5 321.246C234.739 321.107 235.045 321.189 235.183 321.428C239.267 328.495 240.587 337.232 238.786 345.254C238.725 345.523 238.458 345.692 238.188 345.632C237.919 345.571 237.75 345.304 237.81 345.034C239.557 337.255 238.275 328.776 234.317 321.929C234.179 321.69 234.261 321.384 234.5 321.246Z" fill="#1A284C"/>
<path fill-rule="evenodd" clip-rule="evenodd" d="M233.474 336.526L234.377 337.345C237.071 339.787 238.779 343.198 239.267 346.726C239.305 347 239.114 347.252 238.84 347.29C238.567 347.328 238.314 347.137 238.277 346.863C237.875 343.963 236.594 341.152 234.595 338.97C234.89 349.229 231.941 359.165 229.514 363.659C229.383 363.902 229.08 363.992 228.837 363.861C228.594 363.73 228.503 363.427 228.634 363.184C231.074 358.667 234.128 348.264 233.542 337.743L233.474 336.526Z" fill="#1A284C"/>
<path d="M182.124 433.228C183.543 435.705 184.253 438.535 184.016 441.365" stroke="#1A284C" stroke-miterlimit="10" stroke-linecap="round"/>
<path d="M176.329 433.228C177.748 435.705 178.458 438.535 178.221 441.365" stroke="#1A284C" stroke-miterlimit="10" stroke-linecap="round"/>
<path d="M249.771 292.317C250.362 290.784 251.663 288.308 251.19 286.303L193.832 253.051C193.832 253.051 193.832 253.051 188.629 258.357C192.886 272.507 204.24 284.417 219.968 290.077C230.139 293.85 240.428 294.439 249.771 292.317Z" fill="#FF66B3"/>
<path d="M269.639 75.1133C269.639 75.1133 266.327 112.257 250.244 125.7C234.16 139.024 236.525 108.13 236.525 108.13C236.525 108.13 226.473 134.19 211.335 148.104C196.198 162.018 193.005 101.881 213.819 79.7121C234.751 57.4257 252.254 52.0015 272.004 57.5436C291.754 63.0857 310.439 88.0842 316.944 105.654C323.448 123.106 313.277 116.738 313.277 116.738C313.277 116.738 290.453 106.479 269.639 75.1133Z" fill="#6F47FF"/>
<path fill-rule="evenodd" clip-rule="evenodd" d="M299.918 81.1966C300.034 81.0683 300.233 81.0587 300.362 81.1753C309.508 89.4654 316.514 100.122 320.67 111.844L320.67 111.844C323.876 120.96 325.239 130.483 326.141 140.086C326.443 143.296 326.693 146.511 326.943 149.724C327.442 156.137 327.939 162.539 328.845 168.858L328.845 168.858C331.796 189.69 340.052 210.821 356.636 223.603C356.773 223.709 356.798 223.906 356.692 224.044C356.586 224.181 356.389 224.206 356.251 224.1C339.484 211.176 331.184 189.857 328.222 168.946C327.314 162.608 326.813 156.171 326.313 149.744C326.064 146.537 325.815 143.333 325.515 140.145C324.614 130.557 323.257 121.095 320.077 112.052C315.954 100.426 309.005 89.8581 299.939 81.6399C299.81 81.5234 299.801 81.3249 299.918 81.1966Z" fill="#462CA5"/>
<path fill-rule="evenodd" clip-rule="evenodd" d="M275.299 64.0261C275.455 63.9516 275.643 64.0181 275.718 64.1747C287.155 88.1589 303.07 101.445 319.483 112.276C319.627 112.372 319.667 112.566 319.571 112.711C319.476 112.855 319.28 112.895 319.136 112.8C302.671 101.934 286.655 88.5705 275.15 64.4444C275.075 64.2879 275.142 64.1006 275.299 64.0261Z" fill="#462CA5"/>
<path d="M249.533 137.256C252.726 147.279 256.865 157.184 261.714 166.499C262.187 167.443 262.779 168.386 263.606 168.975C264.434 169.565 265.735 169.683 266.563 168.975C267.036 168.504 267.154 167.796 267.273 167.207C267.746 164.377 267.746 161.547 267.391 158.717" stroke="#D15957" stroke-miterlimit="10" stroke-linecap="round"/>
<path d="M277.562 139.614C277.562 139.614 270.112 126.879 275.906 124.403C281.701 121.926 286.786 134.897 286.786 134.897L289.743 128.766L287.26 129.827C287.26 129.827 281.583 119.922 275.788 122.398C269.875 124.757 273.305 134.308 277.562 139.614Z" fill="#011264" stroke="#011264" stroke-width="0.9076" stroke-miterlimit="10" stroke-linecap="round" stroke-linejoin="round"/>
<path d="M240.9 153.764C240.9 153.764 235.342 140.086 229.902 143.152C224.343 146.217 231.557 158.127 231.557 158.127L224.816 156.712L227.182 155.415C227.182 155.415 222.806 144.92 228.364 141.737C233.923 138.789 239.481 147.161 240.9 153.764Z" fill="#011264" stroke="#011264" stroke-width="0.9076" stroke-miterlimit="10" stroke-linecap="round" stroke-linejoin="round"/>
<path d="M264.435 108.484C264.435 108.484 274.96 92.5651 296.602 100.584" stroke="#011264" stroke-width="2" stroke-miterlimit="10" stroke-linecap="round"/>
<path d="M203.411 135.015C203.411 135.015 211.571 117.799 234.159 122.634" stroke="#011264" stroke-width="2" stroke-miterlimit="10" stroke-linecap="round"/>
<path fill-rule="evenodd" clip-rule="evenodd" d="M212.582 123.152C212.752 123.188 212.861 123.354 212.825 123.524C209.867 137.563 206.922 151.903 208.218 166.117C209.514 180.327 215.753 194.843 227.709 202.673C227.855 202.768 227.895 202.963 227.8 203.108C227.704 203.253 227.509 203.293 227.364 203.198C215.194 195.228 208.898 180.5 207.592 166.174C206.286 151.852 209.255 137.42 212.21 123.395C212.245 123.225 212.412 123.117 212.582 123.152Z" fill="#462CA5"/>
<path d="M298.957 161.656C304.099 159.402 307.011 154.724 305.46 151.206C303.91 147.688 298.484 146.664 293.341 148.917C288.199 151.171 285.287 155.85 286.838 159.367C288.389 162.885 293.814 163.91 298.957 161.656Z" fill="#FF66B3"/>
<path d="M247.013 184.334C252.155 182.08 255.067 177.402 253.516 173.884C251.965 170.366 246.54 169.342 241.397 171.596C236.255 173.849 233.343 178.528 234.894 182.046C236.444 185.563 241.87 186.588 247.013 184.334Z" fill="#FF66B3"/>
<path opacity="0.5" d="M301.923 134.426C305.708 143.505 303.461 155.887 290.57 161.311C278.153 166.499 267.154 159.66 263.37 150.58C259.586 141.501 266.09 133.011 276.734 128.648C287.377 124.049 298.139 125.346 301.923 134.426Z" fill="white"/>
<path fill-rule="evenodd" clip-rule="evenodd" d="M291.738 127.228C287.456 126.386 282.28 127.163 277.067 129.416L277.06 129.419L277.052 129.422C271.839 131.559 267.71 134.68 265.344 138.302C262.997 141.897 262.369 145.999 264.144 150.259C267.776 158.973 278.316 165.523 290.245 160.539C296.479 157.916 300.088 153.641 301.707 148.966C303.334 144.27 302.97 139.117 301.149 134.747C299.376 130.493 295.988 128.065 291.738 127.228ZM292.063 125.586C296.801 126.519 300.687 129.279 302.698 134.104C304.661 138.815 305.066 144.392 303.293 149.512C301.512 154.653 297.553 159.281 290.896 162.082L290.894 162.083C277.989 167.475 266.532 160.347 262.596 150.902C260.587 146.082 261.319 141.4 263.939 137.388C266.539 133.407 270.981 130.103 276.408 127.877C281.835 125.533 287.36 124.661 292.063 125.586Z" fill="#5681A0"/>
<path opacity="0.5" d="M252.372 155.179C256.156 164.259 253.909 176.64 241.019 182.064C228.601 187.253 217.603 180.413 213.818 171.334C210.034 162.254 216.538 153.764 227.182 149.401C237.944 144.802 248.587 146.099 252.372 155.179Z" fill="white"/>
<path d="M252.372 155.179C256.156 164.259 253.909 176.64 241.019 182.064C228.601 187.253 217.603 180.413 213.818 171.334C210.034 162.254 216.538 153.764 227.182 149.401C237.944 144.802 248.587 146.099 252.372 155.179Z" stroke="#5681A0" stroke-width="2" stroke-miterlimit="10" stroke-linecap="round"/>
<path d="M252.372 155.179C252.372 155.179 255.092 147.161 263.371 150.58" stroke="#5681A0" stroke-width="2" stroke-miterlimit="10" stroke-linecap="round"/>
<path d="M300.387 131.596L317.417 114.498" stroke="#5681A0" stroke-width="2" stroke-miterlimit="10" stroke-linecap="round"/>
<path d="M312.094 125.11C312.094 125.11 311.385 107.187 326.286 107.187C340.95 107.187 336.929 148.576 312.094 148.222V125.11Z" fill="#EA9D9D"/>
<path d="M327.232 114.498C327.232 114.498 312.686 119.332 321.437 137.138" stroke="#D15957" stroke-miterlimit="10" stroke-linecap="round"/>
<path d="M319.071 122.988C319.071 122.988 327.231 122.044 324.984 132.067" stroke="#D15957" stroke-miterlimit="10" stroke-linecap="round"/>
<path d="M281.582 197.747C277.088 200.106 272.949 198.809 269.283 196.096C262.424 191.026 257.812 180.885 257.812 180.885L282.055 168.622C282.055 168.622 284.184 172.395 285.721 177.348C287.968 184.423 289.151 193.738 281.582 197.747Z" fill="#891F2E"/>
<path d="M265.144 184.305C272.24 181.475 284.894 175.225 282.174 168.622L257.812 180.885L258.403 181.946C259.704 184.305 262.542 185.248 265.144 184.305Z" fill="white"/>
<path d="M281.583 197.747C277.089 200.106 272.949 198.809 269.283 196.097C271.175 188.196 276.852 181.121 284.303 177.937C284.776 177.701 285.13 177.583 285.603 177.466C287.969 184.423 289.151 193.738 281.583 197.747Z" fill="#DB4562"/>
<path d="M432.012 320.028L437.689 407.051C439.699 438.063 414.036 463.769 382.933 462C341.068 459.524 285.958 453.746 250.125 439.949C250.125 439.949 212.754 441.247 201.282 421.319C201.282 421.319 193.24 419.078 186.263 418.135C179.404 417.191 174.91 417.074 175.619 411.531C175.974 408.701 194.423 410.234 194.423 410.234C194.423 410.234 184.134 407.404 177.748 406.461C171.362 405.518 168.405 402.806 168.405 398.914C168.405 396.084 191.348 398.678 195.842 400.093C200.336 401.508 172.899 397.146 170.889 391.485C170.179 389.481 171.48 387.712 172.544 387.712C173.491 387.712 197.971 389.245 201.992 390.424C201.992 390.424 175.028 384.764 178.339 375.685C179.167 373.562 203.647 379.694 206.249 380.519C208.851 381.345 223.989 389.363 223.989 389.363C223.989 389.363 203.884 375.685 212.754 369.671C214.409 368.492 225.29 375.213 229.547 377.1C233.923 379.104 258.048 402.688 261.123 408.348C261.123 408.348 338.348 401.037 380.45 402.098L373.591 326.867L432.012 320.028Z" fill="#EA9D9D"/>
<g filter="url(#filter0_d_66_2321)">
<path d="M279.218 223.807L304.881 215.435C304.881 215.435 311.503 239.372 284.658 251.636L279.218 223.807Z" fill="#303D66"/>
<path d="M282.766 246.683C291.636 242.556 297.667 234.184 298.968 224.515C296.484 226.401 293.646 227.816 290.571 228.17C291.162 228.996 291.754 230.175 291.162 230.882C290.571 231.59 289.507 231.236 288.679 230.882C287.733 230.293 286.669 230.293 285.959 229.467C286.905 230.646 287.969 232.061 287.733 233.594C287.615 234.066 287.378 234.656 286.905 234.891C286.314 235.127 285.604 234.891 285.013 234.656C283.357 233.83 281.701 233.123 280.164 232.297C280.401 237.132 282.529 241.731 282.766 246.683Z" fill="#FE0089"/>
<path d="M218.431 201.521L204.358 178.645C204.358 178.645 183.662 192.677 196.316 219.326L218.431 201.521Z" fill="#303D66"/>
<path d="M200.928 216.732C196.907 207.77 197.735 197.629 203.057 189.375C203.766 192.441 204.949 195.271 207.078 197.629C206.132 197.865 204.831 198.337 204.949 199.398C204.949 200.342 206.013 200.813 206.841 200.931C207.906 201.167 208.733 201.757 209.916 201.639C208.379 201.874 206.723 202.346 205.895 203.643C205.659 204.115 205.422 204.587 205.659 205.176C205.895 205.766 206.605 206.002 207.314 206.237C209.088 206.709 210.744 207.181 212.518 207.652C208.97 210.954 204.358 213.077 200.928 216.732Z" fill="#FE0089"/>
<path d="M284.185 258.593C274.842 283.945 247.642 294.086 222.215 284.652C196.789 275.337 182.597 250.103 191.94 224.75C201.283 199.398 226.827 193.62 252.372 202.936C277.917 212.251 293.646 233.24 284.185 258.593Z" fill="#303D66"/>
<path fill-rule="evenodd" clip-rule="evenodd" d="M233.525 254.358C233.779 254.465 233.899 254.758 233.793 255.012L233.331 254.819C233.793 255.012 233.793 255.013 233.792 255.013L233.792 255.014L233.791 255.016L233.788 255.024L233.776 255.051C233.766 255.073 233.752 255.106 233.733 255.148C233.695 255.231 233.638 255.35 233.563 255.498C233.412 255.796 233.185 256.213 232.878 256.699C232.265 257.669 231.326 258.923 230.021 260.047C227.39 262.316 223.299 264.027 217.547 261.891C217.288 261.795 217.156 261.508 217.252 261.249C217.348 260.99 217.636 260.858 217.895 260.954C223.259 262.945 226.973 261.355 229.368 259.29C230.577 258.248 231.456 257.077 232.033 256.164C232.321 255.709 232.532 255.32 232.671 255.046C232.74 254.91 232.791 254.802 232.824 254.73C232.84 254.694 232.853 254.667 232.86 254.649L232.869 254.63L232.87 254.626L232.87 254.626L232.87 254.626C232.977 254.371 233.27 254.252 233.525 254.358Z" fill="#101631"/>
<path fill-rule="evenodd" clip-rule="evenodd" d="M233.807 254.973C233.807 254.973 233.807 254.973 233.807 254.973L233.807 254.973L233.806 254.977L233.8 254.997C233.794 255.015 233.786 255.043 233.775 255.081C233.754 255.156 233.723 255.27 233.687 255.417C233.615 255.712 233.523 256.14 233.448 256.668C233.295 257.727 233.207 259.174 233.456 260.74C233.948 263.841 235.764 267.45 241.191 269.443C241.45 269.539 241.583 269.826 241.488 270.085C241.393 270.344 241.105 270.477 240.846 270.382C235.038 268.249 233.01 264.311 232.468 260.897C232.199 259.205 232.296 257.653 232.458 256.526C232.539 255.962 232.637 255.501 232.715 255.18C232.754 255.019 232.789 254.893 232.814 254.806C232.826 254.763 232.836 254.729 232.843 254.705L232.852 254.677L232.854 254.669L232.855 254.667L232.856 254.666C232.856 254.666 232.856 254.665 233.331 254.819L232.856 254.665C232.941 254.403 233.223 254.259 233.485 254.344C233.748 254.429 233.892 254.71 233.807 254.973L233.807 254.973Z" fill="#101631"/>
<path d="M232.031 254.819L230.494 249.867C230.139 248.688 231.322 247.626 232.504 247.98L238.417 250.103C239.6 250.574 239.718 252.107 238.654 252.815L234.278 255.527C233.45 256.234 232.268 255.763 232.031 254.819Z" fill="#101631"/>
<path d="M219.953 249.175C220.156 248.625 219.873 248.015 219.322 247.813C218.77 247.61 218.158 247.892 217.955 248.442C217.752 248.992 218.035 249.602 218.587 249.805C219.138 250.007 219.75 249.725 219.953 249.175Z" fill="#101631"/>
<path fill-rule="evenodd" clip-rule="evenodd" d="M219.439 248.529C219.439 248.529 219.439 248.53 219.023 248.806L218.606 249.082L218.599 249.071L218.574 249.035C218.553 249.003 218.519 248.954 218.475 248.89C218.386 248.762 218.251 248.571 218.07 248.324C217.71 247.831 217.167 247.114 216.442 246.225C214.992 244.449 212.815 241.989 209.914 239.265C204.11 233.815 195.415 227.314 183.846 223.098L184.188 222.158C195.916 226.432 204.724 233.02 210.599 238.536C213.537 241.295 215.743 243.788 217.217 245.593C217.953 246.496 218.507 247.227 218.878 247.734C219.063 247.987 219.202 248.185 219.296 248.32C219.343 248.387 219.378 248.439 219.402 248.474L219.429 248.515L219.437 248.525L219.439 248.529Z" fill="#101631"/>
<path d="M217.304 256.548C217.507 255.998 217.224 255.388 216.672 255.186C216.121 254.984 215.509 255.266 215.306 255.816C215.103 256.366 215.386 256.976 215.937 257.178C216.489 257.38 217.101 257.099 217.304 256.548Z" fill="#101631"/>
<path fill-rule="evenodd" clip-rule="evenodd" d="M216.813 255.934C216.813 255.935 216.813 255.935 216.539 256.352L216.264 256.77L216.262 256.769L216.253 256.763L216.217 256.74C216.184 256.719 216.134 256.687 216.068 256.645C215.935 256.562 215.736 256.439 215.473 256.283C214.946 255.97 214.164 255.523 213.147 254.99C211.112 253.922 208.138 252.509 204.392 251.132C196.898 248.378 186.322 245.772 173.988 246.357L173.94 245.358C186.441 244.765 197.153 247.406 204.737 250.194C208.53 251.588 211.543 253.019 213.611 254.104C214.645 254.646 215.443 255.102 215.983 255.423C216.254 255.584 216.46 255.711 216.599 255.798C216.668 255.841 216.721 255.875 216.757 255.898L216.798 255.925L216.809 255.932L216.813 255.934Z" fill="#101631"/>
<path d="M223.007 255.804C223.21 255.254 222.927 254.644 222.375 254.442C221.824 254.239 221.212 254.521 221.009 255.071C220.806 255.621 221.089 256.231 221.641 256.433C222.192 256.636 222.804 256.354 223.007 255.804Z" fill="#101631"/>
<path fill-rule="evenodd" clip-rule="evenodd" d="M222.3 255.026C222.3 255.027 222.301 255.027 221.978 255.409C221.656 255.791 221.656 255.791 221.656 255.791L221.643 255.78L221.601 255.745C221.564 255.714 221.508 255.668 221.433 255.607C221.285 255.485 221.065 255.305 220.777 255.076C220.202 254.616 219.358 253.956 218.288 253.156C216.148 251.556 213.104 249.398 209.49 247.167C202.25 242.698 192.774 237.968 183.716 236.802L183.843 235.81C193.116 237.003 202.739 241.825 210.016 246.317C213.66 248.566 216.729 250.742 218.887 252.355C219.966 253.162 220.818 253.829 221.401 254.294C221.692 254.527 221.916 254.709 222.068 254.834C222.144 254.896 222.202 254.944 222.241 254.977L222.285 255.014L222.296 255.023L222.3 255.026Z" fill="#101631"/>
<path d="M249.079 259.848C249.282 259.298 248.999 258.687 248.447 258.484C247.896 258.282 247.285 258.563 247.082 259.113C246.88 259.664 247.163 260.274 247.714 260.477C248.266 260.68 248.877 260.399 249.079 259.848Z" fill="#101631"/>
<path fill-rule="evenodd" clip-rule="evenodd" d="M248.253 260.017L248.114 259.536C247.976 259.056 247.976 259.056 247.977 259.056L247.978 259.055L247.981 259.054L247.994 259.051L248.041 259.038C248.082 259.026 248.143 259.01 248.222 258.989C248.382 258.947 248.617 258.886 248.923 258.813C249.536 258.667 250.435 258.468 251.585 258.258C253.886 257.836 257.193 257.365 261.232 257.165C269.307 256.764 280.317 257.446 292.045 261.779L291.698 262.717C280.128 258.442 269.26 257.768 261.281 258.164C257.293 258.361 254.029 258.826 251.765 259.241C250.634 259.449 249.752 259.643 249.155 259.786C248.857 259.857 248.629 259.915 248.478 259.955C248.402 259.976 248.345 259.991 248.307 260.001L248.265 260.013L248.255 260.016L248.253 260.017L248.253 260.017Z" fill="#101631"/>
<path d="M246.335 267.19C246.537 266.64 246.254 266.029 245.703 265.826C245.151 265.623 244.54 265.905 244.338 266.455C244.136 267.006 244.419 267.616 244.97 267.819C245.522 268.022 246.133 267.74 246.335 267.19Z" fill="#101631"/>
<path fill-rule="evenodd" clip-rule="evenodd" d="M244.979 267.343L245.04 266.847C245.101 266.351 245.101 266.351 245.102 266.351L245.103 266.351L245.106 266.351L245.119 266.353L245.168 266.359C245.21 266.365 245.273 266.374 245.354 266.386C245.518 266.409 245.758 266.446 246.069 266.499C246.691 266.604 247.597 266.774 248.74 267.03C251.026 267.542 254.258 268.403 258.059 269.797C265.658 272.585 275.537 277.509 284.646 286.057L283.961 286.786C274.976 278.353 265.223 273.491 257.714 270.736C253.961 269.359 250.771 268.51 248.521 268.006C247.397 267.753 246.508 267.587 245.902 267.485C245.599 267.433 245.366 267.398 245.211 267.375C245.133 267.364 245.074 267.356 245.035 267.351L244.992 267.345L244.982 267.344L244.98 267.343L244.979 267.343Z" fill="#101631"/>
<path d="M242.447 262.905C242.649 262.355 242.366 261.744 241.814 261.541C241.263 261.338 240.652 261.62 240.449 262.17C240.247 262.721 240.53 263.331 241.082 263.534C241.633 263.737 242.244 263.456 242.447 262.905Z" fill="#101631"/>
<path fill-rule="evenodd" clip-rule="evenodd" d="M241.49 262.984C241.49 262.984 241.49 262.984 241.492 262.484C241.495 261.984 241.495 261.984 241.495 261.984L241.5 261.984L241.515 261.984L241.573 261.985C241.624 261.985 241.699 261.986 241.797 261.988C241.993 261.991 242.283 261.998 242.656 262.009C243.402 262.032 244.485 262.076 245.831 262.16C248.523 262.328 252.275 262.658 256.513 263.302C264.974 264.587 275.437 267.135 283.274 272.205L282.731 273.045C275.075 268.092 264.783 265.57 256.363 264.29C252.16 263.652 248.439 263.325 245.769 263.158C244.434 263.075 243.362 263.031 242.625 263.009C242.257 262.997 241.972 262.991 241.78 262.988C241.684 262.986 241.611 262.985 241.562 262.985L241.508 262.984L241.494 262.984L241.49 262.984Z" fill="#101631"/>
<path d="M250.598 246.329C250.598 246.329 253.909 238.783 257.457 240.08C260.886 241.377 258.758 249.277 258.758 249.277" stroke="#101631" stroke-width="2" stroke-miterlimit="10" stroke-linecap="round" stroke-linejoin="round"/>
<path d="M227.896 233.585C228.799 231.14 227.542 228.429 225.09 227.53C222.638 226.63 219.919 227.883 219.017 230.328C218.115 232.773 219.371 235.484 221.823 236.383C224.275 237.283 226.994 236.03 227.896 233.585Z" fill="#101631"/>
<path d="M223.702 231.104C223.995 230.31 223.587 229.429 222.79 229.137C221.993 228.844 221.109 229.251 220.816 230.046C220.523 230.84 220.931 231.721 221.728 232.014C222.525 232.306 223.409 231.899 223.702 231.104Z" fill="white"/>
</g>
<path d="M178.458 294.675C178.458 294.675 163.911 334.414 183.661 353.516C204.83 373.916 223.279 388.184 233.332 381.934C239.245 378.279 235.697 367.902 226.472 361.535C221.15 357.879 201.282 338.541 209.443 323.919" fill="#303D66"/>
<path fill-rule="evenodd" clip-rule="evenodd" d="M209.686 323.364C209.927 323.499 210.014 323.804 209.879 324.045C205.944 331.096 208.729 339.361 213.321 346.449C217.898 353.514 224.149 359.214 226.755 361.004L226.757 361.006C231.485 364.288 234.576 368.013 236.012 371.531C237.448 375.05 237.238 378.413 235.256 380.836C235.081 381.05 234.766 381.081 234.552 380.906C234.339 380.731 234.307 380.416 234.482 380.203C236.165 378.145 236.429 375.199 235.086 371.909C233.742 368.617 230.803 365.032 226.188 361.828C223.472 359.962 217.129 354.166 212.482 346.993C207.85 339.843 204.781 331.127 209.006 323.557C209.14 323.316 209.445 323.23 209.686 323.364Z" fill="#1A284C"/>
<path fill-rule="evenodd" clip-rule="evenodd" d="M178.63 294.206C178.889 294.301 179.022 294.588 178.927 294.847L178.458 294.675L177.988 294.504C178.083 294.244 178.37 294.111 178.63 294.206ZM184.008 353.156C194.411 363.175 204.08 371.637 212.434 377.033C212.666 377.183 212.732 377.493 212.582 377.725C212.433 377.957 212.123 378.023 211.891 377.873C203.452 372.422 193.726 363.903 183.314 353.876L183.314 353.876C173.267 344.158 171.984 329.244 173.155 316.885C173.743 310.69 174.95 305.098 176.01 301.056C176.54 299.035 177.033 297.399 177.395 296.268C177.576 295.702 177.723 295.263 177.826 294.964C177.878 294.814 177.918 294.7 177.945 294.623L177.977 294.535L177.985 294.512L177.988 294.504C177.988 294.503 177.988 294.504 178.458 294.675C178.927 294.847 178.927 294.847 178.927 294.847L178.927 294.849L178.925 294.853L178.918 294.874L178.888 294.957C178.861 295.032 178.822 295.143 178.772 295.289C178.671 295.581 178.526 296.014 178.347 296.572C177.991 297.689 177.502 299.307 176.977 301.31C175.927 305.316 174.732 310.853 174.151 316.979C172.987 329.265 174.305 343.771 184.008 353.156Z" fill="#1A284C"/>
<path d="M225.408 374.859C226.827 377.335 227.537 380.165 227.3 382.995" stroke="#1A284C" stroke-miterlimit="10" stroke-linecap="round"/>
<path d="M231 373C233.484 374.769 234.903 377.835 234.666 380.9" stroke="#1A284C" stroke-miterlimit="10" stroke-linecap="round"/>
<path d="M216.656 294.675C219.334 294.675 221.505 292.511 221.505 289.841C221.505 287.171 219.334 285.006 216.656 285.006C213.978 285.006 211.808 287.171 211.808 289.841C211.808 292.511 213.978 294.675 216.656 294.675Z" fill="#101631"/>
<path d="M118.617 418.253C118.617 418.253 118.499 413.064 116.489 407.876C114.478 402.688 128.433 389.009 125.595 380.637C124.649 377.689 110.576 394.08 110.576 394.08C110.576 394.08 117.435 378.161 119.563 375.213C121.692 372.383 131.863 358.233 126.896 352.219C124.885 349.743 111.522 368.138 111.522 368.138L105.49 379.576C105.49 379.576 111.995 362.478 113.769 358.822C115.543 355.285 127.251 346.205 125.595 334.767C125.122 331.583 109.275 347.856 107.619 350.568C105.963 353.28 98.3945 365.544 98.3945 365.544C98.3945 365.544 108.447 347.856 110.694 343.965C112.941 340.074 119.327 329.815 113.414 324.98C111.049 323.093 92.5996 357.172 91.2987 361.181C89.9978 365.072 87.9874 388.42 94.8466 403.867C101.706 419.196 118.617 418.253 118.617 418.253Z" fill="#EA9D9D"/>
<path fill-rule="evenodd" clip-rule="evenodd" d="M376.431 268.214C379.534 259.407 385.399 251.143 393.832 247.058L394.268 247.958C386.145 251.893 380.42 259.901 377.374 268.546C374.327 277.191 373.736 286.437 373.5 295.63C373.263 306.696 373.618 317.644 374.562 328.711L373.566 328.796C372.618 317.694 372.263 306.71 372.5 295.608L372.5 295.606C372.736 286.404 373.328 277.02 376.431 268.214Z" fill="#F56D15"/>
<path d="M380.687 401.98C380.687 401.98 392.986 402.806 402.802 404.692" stroke="#D15957" stroke-miterlimit="10" stroke-linecap="round"/>
<path d="M184.726 398.089L211.335 402.216" stroke="#D15957" stroke-miterlimit="10" stroke-linecap="round"/>
<path d="M199.391 389.599L213.582 392.193" stroke="#D15957" stroke-miterlimit="10" stroke-linecap="round"/>
<path d="M194.423 410.116L208.969 412.121" stroke="#D15957" stroke-miterlimit="10" stroke-linecap="round"/>
<path fill-rule="evenodd" clip-rule="evenodd" d="M279.85 57.4564C279.858 57.2833 280.005 57.1491 280.178 57.1568C285.56 57.3953 290.689 59.183 295.442 61.5522C313.501 70.4374 327.282 87.7306 331.679 107.281C331.717 107.45 331.61 107.618 331.441 107.656C331.271 107.694 331.103 107.587 331.065 107.418C326.71 88.0557 313.055 70.9173 295.163 62.1148L295.161 62.1141C290.453 59.7668 285.412 58.0171 280.15 57.7839C279.977 57.7762 279.842 57.6296 279.85 57.4564Z" fill="#462CA5"/>
<path fill-rule="evenodd" clip-rule="evenodd" d="M250.338 46.3422C261.649 44.3833 272.941 46.7822 280.07 57.2945C280.167 57.438 280.129 57.6332 279.986 57.7303C279.842 57.8275 279.646 57.7898 279.549 57.6463C272.604 47.4051 261.604 45.0283 250.445 46.9607C239.278 48.8946 228.01 55.1413 220.658 62.061C208.536 73.5607 201.229 89.5314 198.163 105.991C197.389 110.232 196.978 114.525 196.564 118.849C196.537 119.138 196.509 119.427 196.481 119.716C196.038 124.329 195.563 128.973 194.614 133.59L194.613 133.591C192.48 143.871 189.281 153.914 185.133 163.485L184.845 163.36L185.133 163.485C183.888 166.356 182.558 169.192 181.229 172.028C178.5 177.846 175.775 183.659 173.79 189.753L173.79 189.753C169.55 202.673 168.848 216.987 173.315 229.762C177.782 242.537 187.888 253.657 200.789 257.867C200.955 257.921 201.045 258.098 200.991 258.263C200.937 258.428 200.759 258.518 200.594 258.464C187.478 254.184 177.242 242.9 172.721 229.969C168.2 217.039 168.918 202.581 173.192 189.558C175.188 183.429 177.943 177.554 180.68 171.715C182.005 168.888 183.327 166.07 184.556 163.236C188.687 153.704 191.873 143.701 193.997 133.464C194.94 128.884 195.411 124.271 195.855 119.657C195.883 119.366 195.911 119.074 195.939 118.783C196.352 114.465 196.766 110.146 197.544 105.878L197.544 105.877C200.628 89.3202 207.985 73.2177 220.225 61.6058L220.226 61.605C227.657 54.6107 239.035 48.2996 250.338 46.3422Z" fill="#462CA5"/>
<path fill-rule="evenodd" clip-rule="evenodd" d="M265.739 69.4199C265.913 69.4218 266.052 69.5639 266.05 69.7372C265.813 91.3896 257.744 112.804 243.622 129.133C243.508 129.265 243.31 129.279 243.178 129.166C243.047 129.053 243.032 128.854 243.146 128.723C257.17 112.507 265.185 91.2357 265.421 69.7303C265.423 69.557 265.565 69.418 265.739 69.4199Z" fill="#462CA5"/>
<path fill-rule="evenodd" clip-rule="evenodd" d="M246.208 32.7033C256.921 32.2285 268.133 35.6684 275.659 43.4108C275.78 43.5352 275.777 43.7339 275.652 43.8546C275.527 43.9753 275.328 43.9723 275.207 43.8479C267.833 36.2613 256.811 32.862 246.237 33.3303C241.653 33.5648 237.186 34.3852 232.837 35.7916C232.672 35.8451 232.495 35.7547 232.441 35.5898C232.388 35.4249 232.478 35.2479 232.643 35.1945C237.045 33.771 241.567 32.9406 246.206 32.7034L246.208 32.7033Z" fill="#462CA5"/>
<path fill-rule="evenodd" clip-rule="evenodd" d="M236.904 50.9281C237.001 51.072 236.962 51.267 236.818 51.3636C228.739 56.7729 223.681 61.5854 220.024 66.3144C216.366 71.0461 214.102 75.7051 211.618 80.8367C206.736 90.9224 205.202 101.928 204.286 113.197C204.078 115.752 203.903 118.321 203.726 120.896C203.126 129.662 202.522 138.494 200.643 147.037L200.336 146.97L200.643 147.037C198.408 157.201 194.484 166.835 190.563 176.459C189.287 179.594 188.01 182.727 186.793 185.877C181.83 198.719 177.95 212.222 179.362 225.824C180.772 239.422 188.764 252.973 201.511 257.754C201.674 257.815 201.756 257.996 201.695 258.158C201.634 258.321 201.452 258.403 201.29 258.342C188.256 253.453 180.163 239.648 178.736 225.889C177.309 212.134 181.235 198.516 186.206 185.652C187.433 182.477 188.715 179.329 189.995 176.186C193.91 166.573 197.806 157.009 200.029 146.902C201.896 138.409 202.497 129.641 203.096 120.883C203.273 118.301 203.45 115.719 203.659 113.146C204.576 101.864 206.117 90.7598 211.051 80.5637L211.051 80.5637C213.534 75.4365 215.823 70.7211 219.526 65.931C223.232 61.1381 228.344 56.2814 236.467 50.8423C236.612 50.7457 236.807 50.7841 236.904 50.9281Z" fill="#462CA5"/>
<path fill-rule="evenodd" clip-rule="evenodd" d="M234.552 81.0961C234.725 81.117 234.848 81.2735 234.827 81.4455C231.746 106.729 222.503 131.304 208.165 152.335C208.068 152.478 207.872 152.515 207.728 152.418C207.585 152.32 207.548 152.125 207.645 151.981C221.927 131.034 231.133 106.554 234.202 81.3698C234.223 81.1977 234.38 81.0752 234.552 81.0961Z" fill="#462CA5"/>
<path d="M406.232 36.3184C414.853 36.3184 421.842 29.3497 421.842 20.7533C421.842 12.157 414.853 5.18823 406.232 5.18823C397.61 5.18823 390.621 12.157 390.621 20.7533C390.621 29.3497 397.61 36.3184 406.232 36.3184Z" fill="#FF6F47"/>
<path d="M15.6106 287.364C24.2322 287.364 31.2213 280.396 31.2213 271.799C31.2213 263.203 24.2322 256.234 15.6106 256.234C6.98912 256.234 0 263.203 0 271.799C0 280.396 6.98912 287.364 15.6106 287.364Z" fill="#FF6F47"/>
<path d="M14.4278 240.433C17.6935 240.433 20.3409 237.794 20.3409 234.537C20.3409 231.281 17.6935 228.642 14.4278 228.642C11.162 228.642 8.51465 231.281 8.51465 234.537C8.51465 237.794 11.162 240.433 14.4278 240.433Z" fill="#FF6F47"/>
<path d="M122.047 189.729C125.313 189.729 127.96 187.089 127.96 183.833C127.96 180.577 125.313 177.937 122.047 177.937C118.781 177.937 116.134 180.577 116.134 183.833C116.134 187.089 118.781 189.729 122.047 189.729Z" fill="#FF6F47"/>
<path d="M458.386 134.308C461.651 134.308 464.299 131.668 464.299 128.412C464.299 125.156 461.651 122.516 458.386 122.516C455.12 122.516 452.473 125.156 452.473 128.412C452.473 131.668 455.12 134.308 458.386 134.308Z" fill="#FF6F47"/>
<path d="M356.443 98.9326C359.709 98.9326 362.357 96.2929 362.357 93.0367C362.357 89.7805 359.709 87.1409 356.443 87.1409C353.178 87.1409 350.53 89.7805 350.53 93.0367C350.53 96.2929 353.178 98.9326 356.443 98.9326Z" fill="#FF6F47"/>
<path d="M437.098 107.54C439.188 107.54 440.882 105.851 440.882 103.767C440.882 101.683 439.188 99.9938 437.098 99.9938C435.008 99.9938 433.313 101.683 433.313 103.767C433.313 105.851 435.008 107.54 437.098 107.54Z" fill="#FF6F47"/>
<path d="M453.182 73.4625C455.272 73.4625 456.966 71.7731 456.966 69.6891C456.966 67.6052 455.272 65.9158 453.182 65.9158C451.092 65.9158 449.397 67.6052 449.397 69.6891C449.397 71.7731 451.092 73.4625 453.182 73.4625Z" fill="#FF6F47"/>
<path d="M157.407 166.853C159.498 166.853 161.192 165.163 161.192 163.079C161.192 160.996 159.498 159.306 157.407 159.306C155.317 159.306 153.623 160.996 153.623 163.079C153.623 165.163 155.317 166.853 157.407 166.853Z" fill="#FF6F47"/>
</g>
<defs>
<filter id="filter0_d_66_2321" x="169.94" y="178.645" width="139.663" height="117.481" filterUnits="userSpaceOnUse" color-interpolation-filters="sRGB">
<feFlood flood-opacity="0" result="BackgroundImageFix"/>
<feColorMatrix in="SourceAlpha" type="matrix" values="0 0 0 0 0 0 0 0 0 0 0 0 0 0 0 0 0 0 127 0" result="hardAlpha"/>
<feOffset dy="4"/>
<feGaussianBlur stdDeviation="2"/>
<feComposite in2="hardAlpha" operator="out"/>
<feColorMatrix type="matrix" values="0 0 0 0 0 0 0 0 0 0 0 0 0 0 0 0 0 0 0.25 0"/>
<feBlend mode="normal" in2="BackgroundImageFix" result="effect1_dropShadow_66_2321"/>
<feBlend mode="normal" in="SourceGraphic" in2="effect1_dropShadow_66_2321" result="shape"/>
</filter>
<linearGradient id="paint0_linear_66_2321" x1="338.944" y1="228.706" x2="279.686" y2="217.354" gradientUnits="userSpaceOnUse">
<stop offset="0.00613839" stop-color="white" stop-opacity="0"/>
<stop offset="1" stop-color="#71008D"/>
</linearGradient>
<linearGradient id="paint1_linear_66_2321" x1="379.489" y1="313.259" x2="201.73" y2="353.989" gradientUnits="userSpaceOnUse">
<stop offset="0.00613839" stop-color="white" stop-opacity="0"/>
<stop offset="1" stop-color="#71008D"/>
</linearGradient>
<clipPath id="clip0_66_2321">
<rect width="520" height="462" fill="white"/>
</clipPath>
</defs>
</svg>
