<svg width="416" height="320" viewBox="0 0 416 320" fill="none" xmlns="http://www.w3.org/2000/svg">
<path d="M182.31 38.2184C182.422 34.12 178.644 30.9616 174.79 29.4576C170.936 27.9536 166.743 27.3896 163.34 25.1054C160.332 23.075 158.311 19.9166 155.764 17.341C152.621 14.1555 148.687 11.8638 144.365 10.701C140.044 9.53814 135.491 9.54607 131.174 10.7239C126.856 11.9018 122.93 14.2072 119.798 17.4036C116.666 20.5999 114.441 24.572 113.351 28.9124C111.894 34.7404 112.891 41.6306 117.487 45.5128C122.826 50.006 130.732 49.0096 137.566 47.609C144.399 46.2084 152.145 44.789 157.851 48.8404C161.291 51.2656 163.265 55.2042 165.371 58.8514C167.476 62.4986 170.071 66.2116 174.094 67.584C178.117 68.9564 183.494 66.5876 183.635 62.3858" fill="#263238"/>
<path d="M182.037 40.465C181.586 43.896 184.068 46.9698 186.54 49.395C189.012 51.8202 191.804 54.3864 192.246 57.855C192.753 61.8688 189.82 65.8168 190.676 69.7742C191.212 72.284 193.167 74.211 194.351 76.4952C195.921 79.7819 196.18 83.5431 195.075 87.0138C194.06 90.473 192.434 98.1904 190.027 100.879C183.381 108.305 172.806 114.716 163.096 116.943C153.386 119.171 143.29 119.19 133.345 118.579C125.205 118.081 115.833 118.457 109.046 107.252C105.531 101.443 103.792 93.7348 101.93 87.2112C100.314 81.5712 98.9224 75.5834 100.596 69.981C101.536 66.7286 103.538 63.824 104.497 60.581C105.7 56.5014 105.258 52.121 105.737 47.9192C106.261 43.3223 107.875 38.917 110.444 35.0696C113.014 31.2222 116.465 28.0441 120.511 25.7996C124.556 23.5552 129.08 22.3093 133.704 22.1657C138.328 22.022 142.92 22.9848 147.097 24.9738" fill="#263238"/>
<path d="M109.638 54.5368C110.4 42.8526 118.173 28.527 129.82 29.7866L166.16 39.055C167.866 39.2424 169.44 40.0611 170.572 41.3501C171.704 42.639 172.314 44.305 172.28 46.0204L168.191 133.704L168.445 133.751C168.445 133.751 160.163 158.482 136.127 150.934C131.362 149.43 129.181 144.222 128.241 138.855H127.996C127.996 138.216 127.996 137.623 127.996 136.975C127.528 132.977 127.481 128.941 127.855 124.933C127.79 117.855 127.799 114.96 127.79 115.026C127.78 115.092 112.862 112.507 109.817 93.0204C108.266 83.4042 108.792 67.5182 109.638 54.5368Z" fill="#FCD8D0"/>
<path d="M128 93.8519C129.58 95.7011 132.244 95.9185 134.586 94.9769C136.928 94.0344 138.994 92.0989 140.822 90" fill="#E77E7D"/>
<path d="M109.571 57.2961C113.487 55.0318 118.439 54.7487 122.615 56.4741C123.639 56.8976 124.327 55.3238 123.3 54.9003C118.52 52.9249 113.012 53.3306 108.552 55.9094C108.15 56.1421 108.113 56.763 108.367 57.1093C108.666 57.5181 109.168 57.5293 109.571 57.2961Z" fill="#10202C"/>
<path d="M140.76 56.2233C145.018 54.6844 149.943 55.2782 153.749 57.7126C154.682 58.3089 155.639 56.8812 154.704 56.2834C150.346 53.4975 144.852 52.9277 140.003 54.6786C139.566 54.8369 139.419 55.4419 139.608 55.8277C139.831 56.2815 140.323 56.3813 140.76 56.2233Z" fill="#10202C"/>
<path d="M111.883 65.0506C115.501 61.8662 121.035 62.1301 124.373 65.6048C124.797 66.0465 125.479 65.3862 125.055 64.9452C121.348 61.0875 115.22 60.8488 111.22 64.3702C110.76 64.7745 111.426 65.4531 111.883 65.0506Z" fill="#10202C"/>
<path d="M151.711 65.9895C148.093 62.8051 142.558 63.0682 139.22 66.5429C138.796 66.9846 138.115 66.3251 138.539 65.8841C142.246 62.0254 148.373 61.7877 152.373 65.3084C152.833 65.7134 152.167 66.392 151.711 65.9895Z" fill="#10202C"/>
<path d="M129.688 83.282C129.688 83.1316 128.034 82.8402 125.327 82.483C124.641 82.4172 123.992 82.2762 123.87 81.8062C123.815 81.0972 123.979 80.3886 124.34 79.7758L126.38 74.5494C129.2 67.114 131.268 60.9946 130.967 60.8912C130.666 60.7878 128.147 66.7098 125.327 74.1546C124.637 75.9844 123.986 77.736 123.372 79.4092C122.936 80.2339 122.806 81.1863 123.005 82.0976C123.105 82.3397 123.258 82.556 123.453 82.7302C123.649 82.9044 123.881 83.032 124.133 83.1034C124.513 83.2078 124.905 83.2646 125.299 83.2726C127.987 83.423 129.679 83.4418 129.688 83.282Z" fill="#263238"/>
<path d="M127.761 115.101C136.935 115.261 145.972 112.869 153.865 108.192C153.865 108.192 147.285 121.662 127.78 119.801L127.761 115.101Z" fill="#DBBFB9"/>
<path d="M179.762 103.154C177.071 103.696 174.29 103.59 171.647 102.845C169.005 102.099 166.579 100.735 164.568 98.8662C162.557 96.9971 161.021 94.6761 160.085 92.0953C159.149 89.5146 158.841 86.7481 159.186 84.0246C159.787 79.24 162.372 74.3708 160.708 69.84C158.518 63.8522 150.124 62.0098 147.896 56.0314C146.599 52.5628 147.765 48.5114 146.298 45.0992C144.916 41.8938 141.551 40.0514 138.271 38.867C134.99 37.6826 131.484 36.8648 128.73 34.731C125.975 32.5972 124.265 28.5552 126.041 25.5566C140.59 27.2985 154.878 30.7697 168.604 35.8966C171.791 37.081 175.128 38.5098 177.008 41.3392C179.001 44.3284 178.888 48.1918 178.738 51.7826L176.284 104.253" fill="#263238"/>
<path d="M178.54 109.846C178.54 109.846 178.662 109.79 178.86 109.649L179.725 108.991C180.477 108.399 181.605 107.525 182.949 106.312C184.631 104.864 186.165 103.252 187.527 101.499C189.39 99.1677 190.644 96.4088 191.174 93.4716C191.547 91.6847 191.516 89.8369 191.081 88.0638C190.647 86.2907 189.821 84.6375 188.664 83.2256C187.251 81.821 185.734 80.5263 184.124 79.3528C182.503 78.1242 181.272 76.4527 180.58 74.54C179.142 70.5732 179.781 65.9766 179.226 61.2766C178.676 56.3733 176.761 51.7227 173.699 47.8534C172.121 45.9045 170.156 44.3041 167.928 43.1534C165.74 42.1586 163.457 41.3901 161.113 40.8598C158.93 40.3109 156.889 39.3048 155.125 37.9082C153.466 36.5187 152.005 34.9089 150.782 33.1236C148.338 29.6456 146.524 25.942 144.202 22.8494C143.102 21.3352 141.813 19.9674 140.367 18.7792C139.009 17.6893 137.469 16.849 135.817 16.2976C134.406 15.7592 132.889 15.5571 131.386 15.7072C129.884 15.8573 128.437 16.3556 127.16 17.1624C126.262 17.859 125.524 18.7393 124.993 19.7443C124.463 20.7494 124.154 21.8561 124.086 22.9904C123.969 24.4274 124.388 25.8569 125.261 27.0042C125.486 27.2952 125.752 27.5518 126.051 27.7656C126.147 27.8492 126.255 27.9189 126.37 27.9724C126.291 27.8739 126.203 27.7827 126.107 27.6998C125.84 27.4636 125.603 27.1952 125.402 26.9008C124.634 25.7612 124.3 24.3835 124.462 23.0186C124.551 21.9456 124.866 20.9035 125.386 19.9607C125.906 19.0179 126.62 18.1957 127.479 17.5478C128.698 16.8106 130.07 16.3659 131.489 16.2485C132.908 16.131 134.335 16.3441 135.657 16.871C137.233 17.4138 138.701 18.2317 139.991 19.2868C141.376 20.4612 142.613 21.7995 143.676 23.2724C145.932 26.3086 147.708 30.0122 150.19 33.6124C151.444 35.4692 152.95 37.1428 154.664 38.585C156.485 40.0267 158.589 41.0677 160.84 41.64C163.133 42.1633 165.366 42.9192 167.505 43.896C169.632 45.0037 171.508 46.54 173.013 48.408C175.981 52.1452 177.844 56.6388 178.39 61.38C178.963 65.9202 178.305 70.592 179.837 74.8126C180.577 76.8489 181.881 78.6324 183.597 79.9544C185.182 81.0959 186.681 82.3526 188.081 83.7144C189.185 85.044 189.977 86.6035 190.399 88.2787C190.822 89.9539 190.865 91.7024 190.525 93.3964C190.045 96.2478 188.87 98.9371 187.104 101.227C185.779 102.978 184.297 104.605 182.676 106.086C181.351 107.327 180.279 108.239 179.565 108.906C179.204 109.199 178.862 109.512 178.54 109.846Z" fill="#455A64"/>
<path d="M182.103 112.272C186.107 108.399 192.941 111.764 196.306 116.201C199.671 120.638 202.05 126.372 207.154 128.609C212.258 130.846 218.885 128.919 223.134 132.472C229.037 137.379 225.719 148.744 232.111 153.011C234.639 154.703 237.986 154.647 240.693 156.038C247.076 159.328 247 168.333 246.013 175.449C244.669 185.46 243.147 195.8 237.638 204.26C232.13 212.72 221.404 218.633 211.873 215.38C202.708 212.25 197.998 202.361 194.266 193.422C189.115 181.026 183.958 168.659 178.794 156.32C175.814 149.167 172.797 141.9 171.829 134.211C170.86 126.522 172.158 118.231 177.055 112.196" fill="#263238"/>
<path d="M184.669 103.736C187.574 103.389 189.801 106.951 189.031 109.781C188.26 112.61 185.553 114.481 182.78 115.421C181.249 116.028 179.586 116.219 177.957 115.975C177.144 115.848 176.377 115.51 175.736 114.993C175.094 114.477 174.599 113.801 174.301 113.033C173.996 112.371 173.965 111.615 174.215 110.93C174.465 110.245 174.976 109.687 175.636 109.376C177.516 108.183 178.672 107.243 180.185 106.406C182.498 105.137 182.357 104.968 184.669 103.689" fill="#94A9DB"/>
<path d="M117.713 135.085L129.012 126.522L171.603 123.796L173.314 129.511L159.458 215.954L170.391 319.09H110.973L117.713 135.085Z" fill="#94A9DB"/>
<g opacity="0.3">
<path opacity="0.4" d="M163.312 282.506C161.949 281.049 159.722 279.056 157.738 279.009C143.507 278.699 128.984 277.279 114.752 276.96L113.615 319.109C117.017 313.112 120.242 306.889 121.135 300.027C121.529 297.038 122.075 293.447 124.754 292.188C126.295 291.464 128.109 291.746 129.773 292.084C134.915 293.099 140.019 294.425 145.246 294.754C150.472 295.083 155.952 294.312 160.342 291.454C161.9 290.535 163.155 289.178 163.951 287.553C164.331 286.737 164.472 285.83 164.359 284.937C164.245 284.045 163.883 283.202 163.312 282.506Z" fill="#263238"/>
</g>
<path d="M126.925 136.834L125.599 124.473C125.545 123.955 125.594 123.431 125.744 122.932C125.893 122.434 126.141 121.97 126.471 121.567C126.802 121.165 127.209 120.832 127.67 120.589C128.13 120.345 128.634 120.196 129.153 120.149L168.351 116.605C168.601 116.586 168.853 116.617 169.092 116.697C169.33 116.777 169.55 116.904 169.739 117.071C169.927 117.237 170.08 117.44 170.189 117.667C170.298 117.893 170.36 118.14 170.372 118.391L170.813 133.102L159.458 152.363L147.793 156.076H133.524L125.317 147.315L126.925 136.834Z" fill="#94A9DB"/>
<path d="M165.023 128.383C164.497 128.361 163.973 128.308 163.453 128.223C162.035 128.091 160.608 128.065 159.186 128.148C157.072 128.3 154.972 128.614 152.906 129.088C150.566 129.577 148.018 130.263 145.321 130.921C142.789 131.582 140.208 132.041 137.603 132.294C135.46 132.496 133.298 132.35 131.202 131.861C129.792 131.531 128.446 130.972 127.216 130.207C126.889 129.995 126.575 129.762 126.276 129.511C126.069 129.342 125.966 129.239 125.985 129.229C126.004 129.22 126.445 129.539 127.329 130.038C128.575 130.724 129.914 131.224 131.305 131.523C133.369 131.955 135.487 132.063 137.584 131.842C140.163 131.567 142.718 131.099 145.227 130.442C147.915 129.793 150.472 129.116 152.831 128.646C154.923 128.198 157.048 127.927 159.186 127.838C160.628 127.776 162.072 127.852 163.5 128.064C164.008 128.151 164.393 128.227 164.656 128.289C164.891 128.327 165.032 128.364 165.023 128.383Z" fill="#263238"/>
<g opacity="0.3">
<path opacity="0.4" d="M127.855 130.329C126.803 133.215 126.774 136.787 128.908 138.996C130.638 140.801 133.43 141.252 135.883 140.763C138.313 140.138 140.618 139.101 142.698 137.699C148.094 134.493 153.583 131.166 159.712 129.803C160.114 129.755 160.495 129.595 160.812 129.342C160.885 129.274 160.943 129.192 160.983 129.101C161.023 129.009 161.044 128.911 161.044 128.811C161.044 128.711 161.023 128.613 160.983 128.521C160.943 128.43 160.885 128.348 160.812 128.28C160.658 128.189 160.483 128.141 160.304 128.139C154.88 127.594 149.494 129.079 144.183 130.32C138.872 131.56 133.185 132.359 128.062 130.508" fill="#263238"/>
</g>
<path d="M135.347 119.754C134.795 120.055 134.332 120.496 134.003 121.032C133.383 122.029 133.42 123.721 133.467 125.544C133.571 129.201 134.172 132.124 134.031 132.124C133.757 131.529 133.577 130.895 133.495 130.244C133.198 128.694 133.025 127.122 132.978 125.544C132.944 124.67 132.963 123.794 133.035 122.922C133.088 122.184 133.32 121.471 133.712 120.844C133.98 120.42 134.361 120.078 134.811 119.857C135.14 119.726 135.338 119.726 135.347 119.754Z" fill="#263238"/>
<path d="M145.706 130.498C145.717 128.502 145.623 126.506 145.424 124.52C144.973 121.239 143.883 118.748 144.033 118.692C144.389 119.171 144.66 119.709 144.832 120.28C145.345 121.624 145.708 123.021 145.913 124.445C146.116 125.87 146.157 127.315 146.035 128.75C146.025 129.347 145.914 129.938 145.706 130.498Z" fill="#263238"/>
<path d="M158.33 117.648C158.679 118.075 158.932 118.572 159.073 119.105C159.497 120.366 159.673 121.697 159.59 123.025C159.5 124.356 159.149 125.656 158.556 126.851C158.345 127.363 158.024 127.822 157.616 128.195C158.467 126.585 158.97 124.814 159.091 122.997C159.213 121.18 158.95 119.357 158.321 117.648H158.33Z" fill="#263238"/>
<path d="M103.359 140.65C103.359 140.65 89.9923 149.599 86.4391 165.767C83.6755 178.476 76.0991 245.611 76.0991 245.611L62.8545 271.385L71.5025 291.953C78.9088 292.476 86.2629 290.376 92.2765 286.021L98.0951 281.791L108.764 265.971L103.359 140.65Z" fill="#F2EEF5"/>
<path d="M126.013 128.787L103.359 140.65L98.0104 158.219L93.2446 209.157L102.212 268.876L86.4766 318.912L113.614 319.109L114.263 289.781L116.97 194.841L119.63 134.362L126.013 128.787Z" fill="#F2EEF5"/>
<path d="M115.043 207.935C114.883 207.709 114.742 207.47 114.62 207.221L113.492 205.144C113.022 204.204 112.552 203.057 111.979 201.722C111.706 201.045 111.471 200.303 111.199 199.522C110.926 198.742 110.625 197.915 110.39 197.031C108.256 189.991 106.846 179.829 107.147 168.625C107.147 167.76 107.213 166.904 107.269 166.049V165.899L107.41 165.842L111.377 164.169L111.321 164.583L107.354 161.396L107.269 161.33V161.236C107.231 157.386 107.841 153.557 109.074 149.909C110.071 146.591 111.161 143.733 112.12 141.383C113.079 139.033 113.915 137.2 114.507 135.96C114.808 135.33 115.043 134.85 115.203 134.54C115.28 134.373 115.371 134.213 115.476 134.061C115.43 134.237 115.364 134.408 115.278 134.568L114.648 136.025C114.103 137.285 113.314 139.137 112.392 141.496C111.471 143.856 110.418 146.713 109.46 150.022C108.274 153.627 107.692 157.404 107.739 161.199L107.645 161.039L111.622 164.207L111.932 164.46L111.565 164.62L107.598 166.293L107.749 166.087C107.692 166.923 107.655 167.779 107.627 168.643C107.335 179.801 108.679 189.916 110.719 196.928C110.935 197.821 111.227 198.639 111.481 199.419C111.734 200.199 111.96 200.951 112.233 201.628C112.787 202.963 113.173 204.138 113.661 205.059L114.695 207.174C114.828 207.42 114.945 207.674 115.043 207.935Z" fill="#263238"/>
<path d="M97.2585 243.599C97.1731 243.359 97.1009 243.114 97.0423 242.866C96.9107 242.333 96.7321 241.619 96.5065 240.723C96.2715 239.783 96.0083 238.655 95.7451 237.329C95.4819 236.004 95.1341 234.509 94.8709 232.789C94.6077 231.069 94.2505 229.255 93.9967 227.262C93.7429 225.269 93.4891 223.126 93.2541 220.879C92.8405 216.367 92.5679 211.395 92.5679 206.168C92.5679 200.942 92.8781 195.969 93.3011 191.467C93.5549 189.22 93.7711 187.077 94.0813 185.084C94.3915 183.091 94.6641 181.239 94.9649 179.557C95.2657 177.874 95.5853 176.361 95.9049 175.026C96.2245 173.691 96.4501 172.554 96.6851 171.633C96.9201 170.711 97.0893 170.025 97.2303 169.499C97.2845 169.246 97.3567 168.998 97.4465 168.756C97.4284 169.013 97.3875 169.268 97.3243 169.518L96.8731 171.67C96.6663 172.61 96.4125 173.748 96.1775 175.082C95.9425 176.417 95.6041 177.902 95.3503 179.623C95.0965 181.343 94.7675 183.148 94.5325 185.14C94.2975 187.133 94.0343 189.267 93.7993 191.504C93.4045 196.007 93.1225 200.961 93.1037 206.178C93.0849 211.395 93.3669 216.339 93.7429 220.842C93.9779 223.079 94.1659 225.222 94.4479 227.205C94.7299 229.189 94.9837 231.05 95.2563 232.733C95.5289 234.415 95.8203 235.938 96.0553 237.273C96.2903 238.608 96.5347 239.754 96.7415 240.685C96.9483 241.616 97.0799 242.302 97.1833 242.838C97.2354 243.088 97.2606 243.343 97.2585 243.599Z" fill="#263238"/>
<path d="M103.387 289.452C103.122 290.258 102.753 291.026 102.287 291.736C101.272 293.506 100.112 295.188 98.8189 296.765C97.5281 298.345 96.1069 299.814 94.5701 301.155C93.9628 301.748 93.2839 302.263 92.5491 302.687C93.1021 302.051 93.6988 301.454 94.3351 300.901C95.7852 299.496 97.1566 298.012 98.4429 296.455C99.7177 294.89 100.904 293.255 101.996 291.558C102.41 290.824 102.875 290.121 103.387 289.452Z" fill="#263238"/>
<path d="M207.52 139.193C212.28 141.043 216.513 144.033 219.847 147.901C223.181 151.769 225.513 156.397 226.64 161.377C234.057 194.052 246.737 237.517 246.944 251.551C247.188 269.411 239.424 281.631 229.187 283.887C221.122 285.673 148.047 281.669 148.047 281.669L144.625 254.409L203.845 245.695L195.742 200.5L203.76 137.783L207.52 139.193Z" fill="#F2EEF5"/>
<path d="M203.76 137.736L187.395 131.053L170.146 120.938L170.043 123.899C172.161 127.515 172.899 131.776 172.12 135.894L157.738 210.774L160.99 265.492L167.674 319.072H219.571L195.742 263.001L204.155 187.434L203.76 137.736Z" fill="#F2EEF5"/>
<path d="M218.923 284.348L218.565 284.395L217.522 284.498C216.582 284.592 215.238 284.583 213.471 284.63C209.955 284.63 204.841 284.555 198.478 284.348C185.759 283.925 168.059 283.07 148.065 281.913H147.868V281.707C147.464 278.464 147.031 275.042 146.599 271.573C145.856 265.698 145.142 259.964 144.456 254.484V254.249H144.681L189.877 247.669L203.149 245.789L206.712 245.31L207.652 245.188H207.972L207.661 245.253L206.721 245.413L203.168 245.977L189.924 247.998L144.804 254.738L145.001 254.465C145.697 259.955 146.42 265.68 147.154 271.555C147.595 275.033 148.018 278.454 148.423 281.697L148.197 281.49C168.181 282.656 185.891 283.568 198.6 284.085C204.954 284.329 210.058 284.47 213.574 284.517C215.332 284.517 216.704 284.517 217.616 284.461L218.659 284.404L218.923 284.348Z" fill="#263238"/>
<path d="M195.263 195.875C195.329 196.038 195.374 196.208 195.394 196.383C195.47 196.768 195.564 197.238 195.676 197.83C195.921 199.156 196.25 200.97 196.616 203.179C197.415 207.766 198.496 213.98 199.7 220.851C200.903 227.722 201.88 233.955 202.651 238.551C202.999 240.77 203.281 242.584 203.488 243.919C203.572 244.511 203.638 245 203.695 245.385C203.715 245.557 203.715 245.73 203.695 245.902C203.624 245.744 203.576 245.576 203.554 245.404C203.478 245.018 203.384 244.539 203.262 243.956C203.018 242.621 202.679 240.817 202.266 238.608C201.448 234.086 200.386 227.845 199.183 220.936C197.979 214.027 196.964 207.776 196.24 203.235C195.902 201.017 195.62 199.193 195.413 197.859C195.338 197.269 195.272 196.781 195.216 196.392C195.213 196.219 195.228 196.045 195.263 195.875Z" fill="#263238"/>
<path d="M177.675 126.24C177.675 126.24 177.675 126.306 177.741 126.428L177.892 126.973C178.014 127.462 178.221 128.167 178.418 129.107C178.991 131.765 179.406 134.455 179.659 137.163C180.042 141.249 180.146 145.357 179.969 149.458C179.809 154.158 179.32 159.3 178.615 164.78V164.949H178.446L173.06 165.946L173.239 165.617C173.549 166.444 173.859 167.327 174.103 168.239C175.584 174.23 175.373 180.513 173.492 186.391C172.003 191.159 169.892 195.71 167.213 199.927C164.976 203.555 162.964 206.337 161.573 208.264L159.947 210.464C159.778 210.699 159.627 210.878 159.515 211.028C159.472 211.099 159.418 211.162 159.355 211.216C159.355 211.216 159.355 211.141 159.477 211L159.872 210.408C160.248 209.862 160.812 209.11 161.413 208.152C162.758 206.196 164.732 203.386 166.912 199.748C169.529 195.536 171.595 191.006 173.06 186.268C174.611 180.939 175.344 174.603 173.633 168.408C173.395 167.536 173.113 166.676 172.787 165.833L172.684 165.56L172.975 165.504L178.324 164.517L178.127 164.724C178.841 159.262 179.358 154.111 179.537 149.449C179.735 145.375 179.669 141.293 179.339 137.229C179.119 134.525 178.751 131.836 178.239 129.173C178.07 128.233 177.882 127.518 177.798 127.03C177.751 126.804 177.713 126.625 177.685 126.475C177.667 126.398 177.663 126.318 177.675 126.24Z" fill="#263238"/>
<path d="M177.676 203.029V191.1C177.676 191.1 177.826 188.158 175.344 188.778C172.863 189.399 173.323 194.052 173.323 194.052C173.323 194.052 172.863 212.203 173.944 212.053C175.025 211.902 175.448 210.502 175.448 210.502V203.517L177.676 203.029Z" fill="#94A9DB"/>
<path d="M187.997 203.771C185.872 204.019 183.732 204.1 181.595 204.016C179.458 204.1 177.318 204.019 175.194 203.771C177.319 203.529 179.458 203.448 181.595 203.527C183.732 203.448 185.872 203.529 187.997 203.771Z" fill="#263238"/>
<path d="M211.6 146.281C211.169 146.482 210.723 146.649 210.265 146.779C209.049 147.213 207.862 147.725 206.712 148.311C202.921 150.262 199.633 153.065 197.105 156.499C196.39 157.466 195.761 158.495 195.225 159.572C194.761 160.592 194.384 161.648 194.097 162.731C193.612 164.578 193.297 166.466 193.157 168.371C193.026 169.997 192.998 171.332 192.988 172.244C193.016 172.719 193.016 173.196 192.988 173.672C192.87 173.224 192.807 172.763 192.8 172.3C192.726 171.001 192.726 169.698 192.8 168.399C192.893 166.464 193.18 164.543 193.656 162.665C193.939 161.55 194.32 160.461 194.793 159.413C195.341 158.305 195.985 157.248 196.72 156.254C199.284 152.755 202.666 149.937 206.571 148.048C207.744 147.482 208.961 147.011 210.209 146.638C210.659 146.472 211.125 146.352 211.6 146.281Z" fill="#263238"/>
<path d="M0.983643 245.611L86.4766 277.27L158.546 288.287L72.856 246.513L0.983643 245.611Z" fill="#263238"/>
<path d="M37.5684 279.751C36.8817 275.183 35.3313 270.787 33 266.798C32.4964 266.047 32.1038 265.227 31.8344 264.364C31.6999 263.932 31.6733 263.474 31.7569 263.03C31.8405 262.586 32.0317 262.169 32.3138 261.816C33.4136 260.622 35.4158 261.149 36.7694 262.051C39.5092 264.046 41.5278 266.876 42.5222 270.116C43.5018 273.332 44.1321 276.645 44.4022 279.996" fill="#FCD8D0"/>
<path d="M70.8914 271.611H66.6426C65.6 270.578 64.3029 269.838 62.8826 269.468C62.3571 269.379 61.8174 269.435 61.3209 269.629C60.8244 269.822 60.3896 270.147 60.0626 270.568C61.9426 267.437 64.0106 263.988 64.4054 263.048C65.1668 261.215 63.4654 259.842 60.73 259.842C57.9946 259.842 45.8874 276.978 45.8874 276.978C45.8874 276.978 53.4074 263.189 54.1312 261.083C55.9548 255.819 50.1926 255.443 48.1058 257.972C45.5114 261.121 35.0304 276.978 35.0304 276.978C35.0304 276.978 33.0376 280.193 34.41 283.248C35.7824 286.303 39.768 285.128 39.768 285.128C39.827 286.021 40.1183 286.882 40.613 287.628C41.1076 288.373 41.7885 288.976 42.588 289.377C45.6524 291.088 49.6944 289.104 49.6944 289.104L65.3642 292.62L71.0042 292.056C74.8535 291.671 78.464 290.012 81.2634 287.342C84.0628 284.672 85.8909 281.143 86.4578 277.317L70.8914 271.611Z" fill="#FCD8D0"/>
<path d="M60.3541 270.323C60.5327 270.436 58.4741 273.707 55.7481 277.636C54.3945 279.601 53.1443 281.396 52.2137 282.618C51.7556 283.328 51.2265 283.99 50.6345 284.592C50.9939 283.827 51.4284 283.1 51.9317 282.421C52.7871 281.114 53.9903 279.319 55.3439 277.354C56.6975 275.39 57.9383 273.594 58.8407 272.354L59.9311 270.859C60.0559 270.668 60.1974 270.489 60.3541 270.323Z" fill="#DBBFB9"/>
<path d="M59.4141 287.77C59.7964 286.875 60.2622 286.019 60.8053 285.213C61.7453 283.671 63.0425 281.575 64.4901 279.244C65.2139 278.088 65.9095 276.978 66.4735 275.954C66.7201 275.516 66.8778 275.035 66.9375 274.536C66.9972 274.038 66.9577 273.532 66.8213 273.049C66.5448 272.139 66.0912 271.292 65.4865 270.558C65.4865 270.558 65.7403 270.69 66.0881 271.066C66.5784 271.605 66.9414 272.248 67.1503 272.946C67.325 273.471 67.391 274.025 67.3441 274.577C67.2972 275.128 67.1385 275.663 66.8777 276.151C66.3137 277.213 65.6275 278.332 64.9131 279.498C63.4561 281.829 62.0931 283.897 61.0967 285.391C60.5928 286.223 60.0305 287.018 59.4141 287.77Z" fill="#DBBFB9"/>
<path d="M67.6389 289.33C67.7964 288.482 68.0783 287.661 68.4755 286.895L69.5941 284.339C70.06 283.321 70.4435 282.268 70.7409 281.19C70.8831 280.675 70.9123 280.135 70.8263 279.608C70.7403 279.08 70.5412 278.578 70.2427 278.135C69.9396 277.782 69.5559 277.508 69.1241 277.336C68.7611 277.15 68.3649 277.038 67.9585 277.007C67.365 277.095 66.7938 277.296 66.2759 277.599C66.0797 277.723 65.8634 277.812 65.6367 277.862C65.6367 277.862 65.8153 277.683 66.1819 277.43C66.4092 277.276 66.6446 277.135 66.8869 277.007C67.2164 276.818 67.5812 276.7 67.9585 276.659C68.419 276.669 68.8728 276.772 69.2933 276.96C69.7928 277.141 70.2388 277.445 70.5905 277.843C70.9469 278.334 71.1877 278.9 71.2951 279.497C71.4026 280.094 71.3738 280.708 71.2109 281.293C70.9113 282.407 70.5053 283.49 69.9983 284.527C69.5565 285.467 69.1335 286.322 68.7857 287.036C68.4443 287.821 68.0614 288.586 67.6389 289.33Z" fill="#DBBFB9"/>
<path d="M70.5249 274.534C70.7555 274.554 70.9796 274.621 71.1829 274.732C71.7647 274.977 72.314 275.292 72.8185 275.672C74.5258 276.947 75.7196 278.792 76.1835 280.871C76.6474 282.951 76.3507 285.128 75.3471 287.008C75.0594 287.573 74.7026 288.101 74.2849 288.578C73.9841 288.907 73.7867 289.057 73.7679 289.039C73.7491 289.02 74.3883 288.268 75.0369 286.858C75.9102 285.028 76.145 282.959 75.7036 280.981C75.2623 279.002 74.1703 277.229 72.6023 275.944C71.9365 275.436 71.2429 274.966 70.5249 274.534Z" fill="#DBBFB9"/>
<path d="M42.9829 265.539C41.9397 267.502 40.7554 269.387 39.4391 271.179C38.2641 273.095 36.9476 274.92 35.5005 276.64C36.5382 274.676 37.7195 272.79 39.0349 271C40.2149 269.085 41.5344 267.26 42.9829 265.539Z" fill="#DBBFB9"/>
<path d="M144.409 255.462L134.633 253.253L125.233 244.407C124.089 243.335 122.606 242.697 121.04 242.603L103.961 241.663C102.251 241.557 100.567 242.116 99.2605 243.223L87.0405 253.563L140.348 279.46L147.661 280.109L144.409 255.462Z" fill="#FCD8D0"/>
<path d="M115.448 250.903C115.448 250.978 114.188 250.752 112.158 250.489C110.127 250.226 107.232 249.991 104.421 251.298C103.113 251.929 101.877 252.701 100.737 253.601C99.6556 254.409 98.6874 255.161 97.832 255.734C97.1606 256.2 96.4534 256.612 95.717 256.966C95.4548 257.11 95.173 257.214 94.8804 257.276C94.8804 257.201 95.999 256.684 97.6346 255.452C98.4524 254.851 99.3924 254.071 100.455 253.234C101.612 252.296 102.874 251.495 104.215 250.846C105.59 250.24 107.074 249.92 108.576 249.906C109.789 249.887 111 249.982 112.195 250.188C113.22 250.348 114.075 250.536 114.583 250.677C114.882 250.702 115.174 250.779 115.448 250.903Z" fill="#DBBFB9"/>
<path d="M118.954 260.416C118.954 260.491 118.258 260.181 117.074 260.068C115.583 259.931 114.081 260.14 112.684 260.679C111.277 261.229 109.929 261.918 108.661 262.737C108.144 263.113 107.585 263.428 106.997 263.677C107.426 263.204 107.92 262.792 108.463 262.455C109.708 261.535 111.071 260.786 112.515 260.228C113.98 259.662 115.568 259.49 117.121 259.729C117.785 259.778 118.421 260.017 118.954 260.416Z" fill="#DBBFB9"/>
<path d="M140.94 261.995C140.818 262.07 139.446 260.021 137.632 257.596C135.817 255.17 134.257 253.262 134.36 253.168C135.748 254.387 136.977 255.777 138.017 257.304C139.189 258.736 140.171 260.312 140.94 261.995Z" fill="#DBBFB9"/>
<path d="M114.037 242.631L135.657 222.468C135.878 222.263 136.051 222.012 136.165 221.734C136.279 221.455 136.331 221.154 136.316 220.854C136.302 220.553 136.222 220.259 136.082 219.992C135.943 219.725 135.746 219.492 135.507 219.309C135.124 219.016 134.65 218.865 134.168 218.884C133.685 218.903 133.225 219.09 132.866 219.413L107.486 242.18" fill="#94A9DB"/>
<g opacity="0.3">
<path opacity="0.4" d="M114.037 242.631L135.657 222.468C135.878 222.263 136.051 222.012 136.165 221.734C136.279 221.455 136.331 221.154 136.316 220.854C136.302 220.553 136.222 220.259 136.082 219.992C135.943 219.725 135.746 219.492 135.507 219.309C135.124 219.016 134.65 218.865 134.168 218.884C133.685 218.903 133.225 219.09 132.866 219.413L107.486 242.18" fill="#263238"/>
</g>
<path d="M290.974 48.2952C290.635 48.1636 277.522 44.7232 278.312 57.9866C279.101 71.25 292.252 67.7156 292.261 67.3302C292.271 66.9448 290.974 48.2952 290.974 48.2952Z" fill="#D7A38F"/>
<path d="M287.909 62.555C287.843 62.508 287.684 62.7242 287.308 62.931C286.771 63.1996 286.15 63.2468 285.578 63.0626C284.149 62.6396 282.833 60.487 282.626 58.0994C282.524 56.9826 282.665 55.8569 283.04 54.8C283.139 54.3772 283.34 53.985 283.625 53.6574C283.91 53.3298 284.271 53.0767 284.676 52.92C284.937 52.8337 285.221 52.8419 285.477 52.9433C285.733 53.0447 285.945 53.2327 286.076 53.4746C286.274 53.8318 286.208 54.1044 286.274 54.1232C286.339 54.142 286.546 53.8788 286.405 53.343C286.315 53.0172 286.112 52.7341 285.832 52.544C285.644 52.4161 285.432 52.327 285.21 52.2818C284.987 52.2367 284.758 52.2363 284.535 52.2808C283.997 52.4212 283.505 52.6972 283.105 53.0823C282.705 53.4675 282.411 53.9489 282.25 54.4804C281.746 55.6655 281.545 56.9581 281.668 58.2404C281.912 60.91 283.435 63.3258 285.381 63.7676C285.744 63.85 286.121 63.8497 286.483 63.7667C286.846 63.6837 287.186 63.5202 287.477 63.2882C287.9 62.8746 287.956 62.5738 287.909 62.555Z" fill="#AC7C6A"/>
<path d="M324.08 0.928589C330.82 0.928589 337.682 0.928584 346.114 5.33718C351.434 8.15719 354.743 12.5094 357.516 17.8298C359.728 22.1553 360.808 26.9706 360.656 31.8264C360.411 36.4136 360.393 39.619 358.56 43.8302" fill="#263238"/>
<path d="M321.383 1.97199C326.12 1.63445 330.877 2.24497 335.375 3.76784C339.874 5.29071 344.023 7.69534 347.581 10.8411C351.139 13.9868 354.034 17.8105 356.097 22.0885C358.159 26.3664 359.348 31.0127 359.594 35.7556C360.458 52.3654 361.22 70.3288 361.041 79.3716C360.646 98.792 341.198 101.659 341.198 101.659C341.198 101.659 341.63 107.412 342.138 114.556C342.364 117.969 341.904 121.392 340.784 124.624C339.664 127.856 337.908 130.83 335.619 133.372C333.33 135.913 330.555 137.97 327.457 139.42C324.36 140.87 321.003 141.685 317.585 141.816C314.227 141.944 310.876 141.409 307.725 140.241C304.574 139.074 301.684 137.296 299.22 135.011C296.756 132.725 294.767 129.976 293.367 126.921C291.966 123.866 291.182 120.565 291.058 117.207L288.172 38.9422C287.821 29.6665 291.094 20.6181 297.298 13.7138C303.502 6.80942 312.15 2.5914 321.411 1.95318L321.383 1.97199Z" fill="#D7A38F"/>
<path d="M306.366 38.7101C306.097 38.7025 305.895 38.6367 305.794 38.4946C305.188 37.649 308.82 33.9906 309.757 33.471C313.661 31.3037 322.607 29.6281 327.105 29.6437C327.126 29.6443 327.148 29.6441 327.169 29.6447C328.291 29.6763 329.138 30.4192 329.221 31.4906C329.299 32.4977 328.299 33.5262 327.222 33.5222C326.203 33.5182 320.722 34.0584 319.708 34.1814C319.441 34.2142 319.174 34.2586 318.907 34.2931C318.901 34.2937 318.896 34.2945 318.892 34.2951C318.776 34.3166 318.661 34.3364 318.546 34.3587C318.075 34.4509 317.606 34.5562 317.142 34.6749C316.154 34.9279 315.183 35.2432 314.238 35.6177C314.126 35.6615 314.016 35.7061 313.905 35.7516C313.888 35.7586 313.804 35.7949 313.741 35.8211C313.677 35.8498 313.582 35.8924 313.565 35.9002C313.456 35.9498 313.348 36.0011 313.24 36.0524C312.782 36.271 312.333 36.5054 311.89 36.7507C311.051 37.2163 307.774 38.7498 306.366 38.7101Z" fill="#10202C"/>
<path d="M345.772 35.4446C345.124 35.2845 344.524 34.6901 344.415 34.0034C344.259 33.0312 344.785 32.2282 345.675 32.0351C348.443 31.4358 351.359 31.5127 354.178 32.2092C354.893 32.3857 355.601 32.6015 356.299 32.8571C356.507 32.933 356.885 33.1546 357.331 33.4562C358.663 34.3595 360.598 35.9876 360.376 36.618C360.201 37.1143 358.894 36.9838 357.63 36.7189C357.397 36.6698 357.166 36.6162 356.943 36.5611C356.231 36.3852 355.61 36.1943 355.316 36.0869C354.924 35.9435 354.53 35.8114 354.133 35.6946C354.038 35.6669 353.944 35.6404 353.851 35.6147C353.836 35.6101 353.754 35.5892 353.7 35.574C353.645 35.5614 353.572 35.5432 353.558 35.5399C353.463 35.5182 353.369 35.4973 353.274 35.4764C352.467 35.3026 351.654 35.1857 350.84 35.1253C350.457 35.0968 350.075 35.0812 349.692 35.0783C349.602 35.0771 349.512 35.0786 349.421 35.0783C349.415 35.0785 349.408 35.0793 349.401 35.0793C349.187 35.0925 348.973 35.0981 348.759 35.1131C347.951 35.1713 347.154 35.2898 346.367 35.4602C346.173 35.5021 345.97 35.4935 345.772 35.4446Z" fill="#10202C"/>
<path d="M313.664 46.4598C313.215 46.4239 312.82 45.9528 313.19 45.5331C314.353 44.2189 315.673 43.0007 317.278 42.2514C318.417 41.7199 319.687 41.5012 320.925 41.6005C322.559 41.7314 324.138 42.4172 325.288 43.6682C325.706 44.1254 325.229 44.7108 324.743 44.6719C324.606 44.6608 324.467 44.5993 324.348 44.4692C324.311 44.429 324.175 44.3026 324.178 44.3028C324.179 44.3028 324.182 44.3064 324.19 44.3128C324.016 44.1593 323.833 44.015 323.644 43.88C323.003 43.4248 322.302 43.0886 321.527 42.9067C321.27 42.8464 321.014 42.8078 320.762 42.7875C318.172 42.5799 315.854 44.3739 314.203 46.2396C314.049 46.4139 313.852 46.4749 313.664 46.4598Z" fill="#10202C"/>
<path d="M346.636 45.4558C346.221 45.3446 345.924 44.8064 346.33 44.4294C347.51 43.3347 348.827 42.3343 350.359 41.7961C351.402 41.4303 352.516 41.3664 353.548 41.6431C354.129 41.7986 354.684 42.0615 355.186 42.4389C355.844 42.9342 356.467 43.5801 356.844 44.3221C357.12 44.8623 356.56 45.3533 356.119 45.235C355.984 45.1988 355.861 45.1061 355.776 44.9393L355.67 44.755L355.547 44.5644C355.522 44.5279 355.413 44.3793 355.415 44.3799C355.416 44.3801 355.425 44.3911 355.446 44.418C354.841 43.6344 354.124 43.0588 353.206 42.8128C353.069 42.7762 352.927 42.7467 352.782 42.7247C350.679 42.4143 348.652 43.9588 347.199 45.3075C347.022 45.4712 346.818 45.5044 346.636 45.4558Z" fill="#10202C"/>
<path d="M341.198 101.659C341.198 101.659 329.26 102.279 316.288 93.9792C316.288 93.9792 322.163 108.079 341.546 106.519L341.198 101.659Z" fill="#AC7C6A"/>
<path d="M336.159 65.14C336.159 64.9708 338.039 64.67 341.01 64.3034C341.771 64.2282 342.495 64.0872 342.627 63.5702C342.702 62.7827 342.532 61.991 342.138 61.3048C341.442 59.4248 340.7 57.5448 339.929 55.4862C336.864 47.1954 334.655 40.3898 334.994 40.2676C335.332 40.1454 338.086 46.763 341.141 55.0538C341.884 57.0936 342.589 59.0394 343.256 60.91C343.729 61.8313 343.862 62.8896 343.632 63.8992C343.516 64.1667 343.342 64.4049 343.123 64.5968C342.903 64.7886 342.644 64.9293 342.363 65.0084C341.942 65.113 341.51 65.1698 341.076 65.1776C338.049 65.3374 336.169 65.3374 336.159 65.14Z" fill="#263238"/>
<path d="M327.361 67.161C327.85 67.161 327.822 70.3758 330.576 72.6976C333.33 75.0194 336.789 74.6904 336.808 75.1416C336.808 75.3484 336.028 75.7714 334.571 75.7996C332.671 75.8032 330.831 75.1376 329.373 73.9196C327.976 72.75 327.083 71.0868 326.882 69.276C326.769 67.96 327.135 67.1422 327.361 67.161Z" fill="#263238"/>
<path d="M288.37 45.024C288.37 45.024 289.216 49.5172 289.441 51.5382C289.526 52.2808 289.441 60.5058 291.425 60.9382C293.145 61.2954 296.557 59.7256 298.08 56.3228C299.603 52.92 302.498 44.7514 302.178 41.0384C301.755 35.9812 301.52 30.83 302.536 25.848C303.551 20.866 305.929 16.0156 309.924 12.876C313.919 9.73641 319.7 8.65541 324.25 10.9302C327.07 12.3402 329.147 14.8312 331.77 16.5702C334.096 18.2179 336.945 18.9569 339.778 18.6476C341.184 18.471 342.512 17.9009 343.608 17.0028C344.704 16.1048 345.524 14.9153 345.973 13.5716C346.8 10.6106 345.277 7.3676 342.899 5.403C340.521 3.4384 337.466 2.53601 334.439 1.93441C326.037 0.130231 317.296 0.742947 309.228 3.7016C301.267 6.7942 294.188 12.735 290.804 20.5652C286.875 29.6174 287.326 35.1728 288.37 45.0052" fill="#263238"/>
<path d="M332.757 46.6784C332.663 45.6024 332.494 44.5344 332.249 43.4824C331.496 40.6265 329.804 38.1069 327.446 36.329C325.833 35.1088 323.955 34.2846 321.965 33.9226C319.68 33.5049 317.325 33.7028 315.141 34.496C313.965 34.9155 312.862 35.5148 311.87 36.2726C310.81 37.0343 309.883 37.9648 309.125 39.0268C307.495 41.2466 306.616 43.9289 306.616 46.6831C306.616 49.4373 307.495 52.1195 309.125 54.3394C309.888 55.3971 310.815 56.3268 311.87 57.0936C312.862 57.8486 313.966 58.4448 315.141 58.8608C317.324 59.6567 319.679 59.8578 321.965 59.4436C323.957 59.0802 325.834 58.2525 327.446 57.0278C329.806 55.2538 331.501 52.7376 332.258 49.8838C332.498 48.8281 332.665 47.7571 332.757 46.6784C332.771 46.7498 332.771 46.8232 332.757 46.8946V47.5244C332.761 47.8678 332.733 48.2109 332.672 48.549C332.628 49.0123 332.546 49.4712 332.428 49.9214C331.728 52.8604 330.039 55.4692 327.643 57.3098C325.869 58.6769 323.778 59.5745 321.565 59.9195C319.352 60.2646 317.088 60.0459 314.981 59.2838C313.759 58.8601 312.611 58.248 311.578 57.4696C310.495 56.6853 309.543 55.7334 308.758 54.6496C307.061 52.3493 306.145 49.5655 306.145 46.7066C306.145 43.8476 307.061 41.0639 308.758 38.7636C310.335 36.6168 312.509 34.9821 315.009 34.0636C317.266 33.2581 319.696 33.0667 322.05 33.509C324.104 33.8991 326.036 34.7687 327.69 36.047C330.084 37.8852 331.773 40.4904 332.475 43.426C332.593 43.8793 332.675 44.3414 332.719 44.8078C332.78 45.1427 332.808 45.4827 332.804 45.823V46.4528C332.775 46.6126 332.766 46.6784 332.757 46.6784Z" fill="#263238"/>
<path d="M366.944 46.6784C366.845 45.6031 366.676 44.5355 366.437 43.4824C365.681 40.6252 363.986 38.1054 361.624 36.329C360.012 35.1073 358.134 34.2829 356.144 33.9226C353.862 33.5048 351.509 33.7027 349.329 34.496C346.922 35.3826 344.83 36.9584 343.313 39.0268C341.677 41.2443 340.794 43.9275 340.794 46.6831C340.794 49.4387 341.677 52.1219 343.313 54.3394C344.073 55.3968 344.996 56.3265 346.048 57.0936C347.043 57.8506 348.15 58.4469 349.329 58.8608C351.508 59.6567 353.861 59.8579 356.144 59.4436C358.135 59.0802 360.013 58.2525 361.624 57.0278C363.984 55.2538 365.679 52.7376 366.437 49.8838C366.676 48.8276 366.846 47.7568 366.944 46.6784C366.948 46.7504 366.948 46.8226 366.944 46.8946C366.944 47.0638 366.944 47.2706 366.944 47.5244C366.948 47.8674 366.923 48.2101 366.869 48.549C366.821 49.0125 366.736 49.4714 366.615 49.9214C365.923 52.8634 364.232 55.4745 361.831 57.3098C360.177 58.5863 358.244 59.4528 356.191 59.8384C353.834 60.2902 351.398 60.0987 349.141 59.2838C346.637 58.3773 344.462 56.74 342.899 54.5838C341.196 52.2858 340.276 49.5012 340.276 46.6408C340.276 43.7804 341.196 40.9957 342.899 38.6978C343.682 37.6131 344.635 36.661 345.719 35.8778C346.754 35.1001 347.901 34.4851 349.122 34.0542C351.381 33.2483 353.814 33.0569 356.172 33.4996C358.226 33.8883 360.159 34.758 361.812 36.0376C364.211 37.871 365.902 40.4783 366.597 43.4166C366.718 43.8698 366.802 44.3318 366.85 44.7984C366.904 45.1341 366.929 45.4737 366.926 45.8136C366.926 46.0674 366.926 46.2742 366.926 46.4434C366.937 46.5212 366.944 46.5997 366.944 46.6784Z" fill="#263238"/>
<path d="M340.859 45.2684C340.859 45.3436 340.38 45.0992 339.637 44.8548C338.667 44.5284 337.642 44.3943 336.62 44.46C335.609 44.5351 334.621 44.7964 333.706 45.2308C333.001 45.5787 332.606 45.8795 332.559 45.8137C332.512 45.7478 332.841 45.3718 333.499 44.93C334.425 44.3717 335.472 44.0429 336.551 43.971C337.63 43.899 338.711 44.086 339.703 44.5164C340.521 44.8736 340.897 45.2308 340.859 45.2684Z" fill="#263238"/>
<path d="M346.152 12.5C346.349 11.4942 346.011 10.9302 346.584 10.5166C347.157 10.103 348.464 11.2874 348.896 11.7762C349.047 11.936 349.498 11.3156 349.677 11.2028C349.872 10.7998 349.987 10.3622 350.015 9.915C349.93 9.21 348.831 8.975 348.314 8.5426C347.78 8.07385 347.156 7.71882 346.481 7.4992C346.205 7.36302 345.899 7.30093 345.593 7.31906C345.286 7.33719 344.99 7.43492 344.732 7.6026C344.58 7.78306 344.466 7.99305 344.398 8.21947C344.33 8.4459 344.309 8.68389 344.337 8.9186C344.335 9.38887 344.424 9.85511 344.601 10.291C344.778 10.7295 345.113 11.0853 345.541 11.2874" fill="#263238"/>
<path d="M287.646 34.7028C287.646 34.7028 297.168 38.1902 302.122 40.2958L301.84 35.4266L287.994 29.9464C287.994 29.9464 287.637 33.5654 287.646 34.7028Z" fill="#F2EEF5"/>
<path d="M288.539 27.1358C290.84 27.8484 293.092 28.7119 295.279 29.7208C297.539 30.5819 299.737 31.5963 301.859 32.757C299.558 32.0444 297.306 31.1808 295.119 30.172C292.859 29.3109 290.661 28.2965 288.539 27.1358Z" fill="#F2EEF5"/>
<path d="M291.406 129.709L290.673 106.669C290.673 106.669 295.251 127.753 319.23 127.481C342.138 127.218 341.724 108.906 341.724 108.906L342.542 118.194V155.709L327.596 216.912L308.505 219.3L287.411 135.64L291.406 129.709Z" fill="#94A9DB"/>
<path d="M339.591 122.339C339.519 122.512 339.428 122.676 339.318 122.828C339.031 123.291 338.717 123.737 338.378 124.163C337.172 125.749 335.733 127.143 334.11 128.299C331.702 130.023 329.001 131.296 326.139 132.059C322.633 132.999 318.978 133.252 315.376 132.801C311.789 132.307 308.3 131.257 305.036 129.69C302.387 128.422 299.868 126.898 297.516 125.14C295.925 123.973 294.4 122.717 292.948 121.38C292.431 120.91 292.055 120.515 291.792 120.252C291.651 120.129 291.525 119.99 291.416 119.839C291.575 119.938 291.723 120.055 291.857 120.186L293.079 121.239C294.132 122.179 295.693 123.429 297.723 124.886C300.087 126.59 302.604 128.069 305.243 129.304C308.469 130.826 311.908 131.847 315.442 132.331C318.979 132.775 322.567 132.542 326.017 131.645C328.836 130.913 331.508 129.698 333.913 128.054C335.528 126.938 336.98 125.603 338.228 124.087C339.13 122.959 339.553 122.311 339.591 122.339Z" fill="#263238"/>
<path d="M322.952 319.043L322.605 210.285L291.716 130.94L290.682 107.055L271.882 121.286C271.882 121.286 244.5 215.54 244.039 212.288C243.579 209.035 244.039 319.043 244.039 319.043H322.952Z" fill="#F2EEF5"/>
<path d="M322.21 318.743C322.078 318.743 321.965 294.237 321.965 264.006C321.965 233.776 322.078 209.27 322.21 209.27C322.341 209.27 322.454 233.776 322.454 264.006C322.454 294.237 322.341 318.743 322.21 318.743Z" fill="#263238"/>
<path d="M324.644 263.33L255.451 243.044L253.157 190.489L272.136 121.249C272.136 121.249 226.903 143.818 223.82 158.2C220.737 172.582 213.32 207.475 212.54 232.714C211.835 255.274 211.732 270.314 216.883 277.561C231.641 298.185 328.874 301.87 367.715 277.561" fill="#F2EEF5"/>
<path d="M319.23 205.632C319.23 205.632 319.145 205.557 319.004 205.379C318.863 205.2 318.638 204.927 318.384 204.608L316.034 201.6C313.985 198.949 311.061 195.151 307.461 190.47L279.327 153.65L277.212 150.83L277.137 150.736V150.624C278.34 145.811 279.515 141.139 280.634 136.683L280.859 136.984H272.098H271.873V136.759C271.873 131.119 271.873 125.855 271.873 121.23V121.136L271.948 121.079L285.55 110.739L289.31 107.919L290.25 107.196C290.357 107.107 290.473 107.031 290.598 106.97L290.287 107.243L289.347 108.004L285.672 110.88L272.174 121.352L272.249 121.202C272.249 125.826 272.249 131.043 272.249 136.73L272.023 136.514H280.784H281.16L281.085 136.815L277.607 150.755L277.56 150.548L279.684 153.321L307.696 190.235L316.156 201.449C317.096 202.765 317.895 203.79 318.431 204.514C318.675 204.852 318.863 205.125 319.014 205.322L319.23 205.632Z" fill="#263238"/>
<path d="M350.071 117.15C344.554 107.506 341.687 108.502 341.687 108.502L341.978 111.943V119.171L339.355 150.191L322.595 217.58L322.943 319.043H386.308L394.195 195.189L393.481 141.825L350.071 117.15Z" fill="#F2EEF5"/>
<path d="M393.49 141.825C393.49 141.825 409.893 153.932 411.35 173.419C412.506 189.239 415.11 232.563 415.627 241.992C416.379 256.674 404.939 291.069 375.16 281.331C357.3 275.484 291.331 253.065 291.331 253.065L295.721 225.043L374.023 229.743L375.583 164.432L393.49 141.825Z" fill="#F2EEF5"/>
<path d="M294.79 228.268C294.79 228.268 272.625 225.871 267.53 227.111C262.595 228.305 255.573 234.34 255.573 234.34L255.677 243.091L291.331 253.065L294.79 228.268Z" fill="#D7A38F"/>
<path d="M322.604 207.447C322.629 207.343 322.663 207.242 322.708 207.146C322.783 206.93 322.896 206.638 323.037 206.281C323.347 205.491 323.798 204.401 324.362 202.972L329.325 190.827L336.733 172.836C337.438 171.153 338.133 169.395 339.008 167.675C339.882 165.955 340.831 164.235 341.828 162.515C343.988 159.007 346.335 155.618 348.859 152.363C350.137 150.718 351.425 149.11 352.76 147.569V147.822L349.996 140.801L349.902 140.566L350.137 140.481L361.671 136.58L361.549 136.9C356.191 127.951 351.669 120.393 348.455 115.035C346.875 112.384 345.522 110.26 344.084 109.395C343.542 109.068 342.952 108.83 342.335 108.69C342.116 108.649 341.9 108.596 341.687 108.53C341.907 108.545 342.127 108.573 342.345 108.615C342.983 108.73 343.597 108.956 344.159 109.282C345.031 109.849 345.784 110.58 346.377 111.435C347.207 112.545 347.976 113.7 348.68 114.894L361.934 136.683L362.075 136.918L361.812 137.003L350.278 140.96L350.419 140.65L353.192 147.672L353.249 147.804L353.145 147.916C351.829 149.439 350.541 151.047 349.272 152.692C346.758 155.924 344.418 159.288 342.26 162.768C341.254 164.479 340.267 166.162 339.44 167.882C338.613 169.602 337.879 171.313 337.174 173.005C334.354 179.754 331.798 185.836 329.654 190.959C327.511 196.082 325.763 200.162 324.55 203.038C323.949 204.439 323.469 205.538 323.14 206.319C322.98 206.676 322.858 206.948 322.755 207.165C322.718 207.265 322.667 207.36 322.604 207.447Z" fill="#263238"/>
<path d="M402.486 275.879C402.406 275.985 402.315 276.083 402.213 276.17L401.367 276.988C400.254 278.006 399.049 278.919 397.767 279.714C395.724 280.957 393.506 281.889 391.187 282.477C388.115 283.238 384.931 283.442 381.787 283.079C379.954 282.865 378.144 282.481 376.382 281.932C374.502 281.349 372.697 280.626 370.742 279.949C366.879 278.539 362.724 277.129 358.362 275.55C349.62 272.485 339.985 269.214 329.833 265.877C309.529 259.212 291.011 253.591 277.588 249.577L261.683 244.877L257.359 243.59L256.241 243.251C256.111 243.216 255.985 243.169 255.865 243.11L256.26 243.195L257.388 243.496L261.74 244.689C265.5 245.742 270.961 247.293 277.72 249.248C291.162 253.168 309.68 258.742 330.012 265.416C340.173 268.744 349.808 271.996 358.541 275.117C362.903 276.668 367.048 278.144 370.911 279.563C372.848 280.259 374.671 280.992 376.551 281.575C378.288 282.126 380.072 282.513 381.881 282.731C384.995 283.113 388.153 282.938 391.206 282.214C393.516 281.648 395.732 280.752 397.786 279.554C399.068 278.777 400.281 277.893 401.414 276.913L402.289 276.132C402.348 276.043 402.414 275.958 402.486 275.879Z" fill="#263238"/>
<path d="M255.639 243.251C255.639 243.355 254.389 243.082 252.405 243.167C251.246 243.214 250.097 243.404 248.984 243.731C247.625 244.138 246.328 244.73 245.13 245.488C242.965 246.917 241.134 248.796 239.762 250.997C238.719 252.689 238.258 253.817 238.174 253.817C238.224 253.528 238.313 253.246 238.437 252.98C238.721 252.232 239.067 251.509 239.471 250.818C240.788 248.503 242.638 246.534 244.867 245.075C246.105 244.293 247.451 243.694 248.862 243.298C250.014 242.986 251.202 242.825 252.396 242.819C253.197 242.808 253.997 242.88 254.784 243.035C255.077 243.067 255.365 243.14 255.639 243.251Z" fill="#263238"/>
<path d="M233.84 236.389C233.84 236.389 233.84 236.295 233.925 236.135C234.037 235.911 234.183 235.705 234.357 235.524C235.029 234.867 235.891 234.439 236.82 234.302C238.165 234.081 239.536 234.081 240.881 234.302C242.526 234.519 244.143 234.913 245.703 235.477C248.557 236.48 251.163 238.083 253.345 240.177C253.996 240.818 254.59 241.513 255.122 242.255C255.328 242.518 255.502 242.805 255.639 243.11C255.554 243.176 254.784 241.973 253.11 240.431C250.904 238.458 248.329 236.94 245.534 235.966C244.009 235.42 242.435 235.02 240.834 234.772C239.531 234.537 238.2 234.499 236.886 234.66C236.011 234.76 235.185 235.113 234.508 235.675C234.038 236.079 233.878 236.408 233.84 236.389Z" fill="#263238"/>
<path d="M259.672 176.06C259.519 175.599 259.411 175.123 259.352 174.641C259.211 174.189 259.014 173.654 258.797 173.033C258.581 172.413 258.205 171.736 257.773 171.022C256.761 169.339 255.58 167.764 254.248 166.322C252.599 164.57 250.79 162.978 248.843 161.565C245.309 158.982 241.29 157.137 237.027 156.141C235.73 155.867 234.413 155.697 233.088 155.634C232.6 155.637 232.113 155.599 231.631 155.521C232.117 155.452 232.608 155.427 233.098 155.446C234.438 155.431 235.776 155.551 237.093 155.803C241.441 156.71 245.545 158.54 249.125 161.17C251.103 162.593 252.93 164.215 254.577 166.011C255.917 167.488 257.09 169.108 258.074 170.843C258.497 171.586 258.769 172.309 259.014 172.92C259.258 173.531 259.39 174.124 259.502 174.584C259.596 175.071 259.652 175.565 259.672 176.06Z" fill="#263238"/>
<path d="M391.037 256.392C391.025 256.28 391.025 256.167 391.037 256.054V255.067C391.037 254.202 390.971 252.933 390.849 251.307C390.508 246.688 389.559 242.133 388.029 237.762C387.568 236.313 386.937 234.925 386.149 233.626C385.269 232.242 383.991 231.157 382.483 230.514C379.334 229.161 375.545 229.339 371.691 229.123L346.462 228.061C325.613 227.121 307.066 226.369 295.41 225.748L295.57 225.617C294.865 229.903 294.301 233.297 293.916 235.656C293.718 236.793 293.568 237.677 293.455 238.307C293.408 238.589 293.361 238.814 293.333 238.993L293.277 239.219C293.268 239.14 293.268 239.062 293.277 238.984L293.371 238.297C293.455 237.668 293.587 236.775 293.747 235.628C294.104 233.268 294.611 229.866 295.26 225.57V225.438H295.401L346.452 227.563L371.682 228.7C373.618 228.794 375.508 228.841 377.322 228.991C379.13 229.092 380.909 229.492 382.586 230.176C384.165 230.839 385.508 231.962 386.44 233.4C387.235 234.729 387.867 236.149 388.32 237.63C389.83 242.03 390.728 246.616 390.99 251.26C391.093 252.896 391.093 254.174 391.084 255.02C391.084 255.434 391.084 255.763 391.084 256.007C391.046 256.27 391.037 256.392 391.037 256.392Z" fill="#263238"/>
<path d="M376.1 195.086C376.232 195.086 376.345 202.671 376.345 212.006C376.345 221.34 376.232 228.926 376.1 228.926C375.969 228.926 375.856 221.34 375.856 212.006C375.856 202.671 375.969 195.086 376.1 195.086Z" fill="#263238"/>
<path d="M224.365 156.48C224.365 156.48 224.309 156.696 224.177 157.1C224.046 157.504 223.811 158.115 223.613 158.98C223.153 160.606 222.57 163.032 221.921 166.199C220.615 172.535 219.007 181.803 217.221 193.403C216.328 199.212 215.341 205.623 214.401 212.494C213.922 215.944 213.621 219.535 213.377 223.257C213.132 226.98 212.935 230.777 212.784 234.763C212.502 242.668 212.333 251.016 212.559 259.711C212.634 261.882 212.709 264.082 212.888 266.291C212.944 267.4 213.132 268.49 213.264 269.59C213.465 270.689 213.731 271.775 214.063 272.842C214.732 274.999 215.789 277.016 217.184 278.793C218.582 280.599 220.42 282.017 222.523 282.91C226.998 285.105 231.664 286.886 236.463 288.23C241.323 289.687 246.342 290.862 251.437 291.906C262.523 294.194 273.778 295.565 285.089 296.004C290.448 296.142 295.81 296.004 301.154 295.59C306.39 295.224 311.494 294.65 316.429 293.945C325.734 292.627 334.906 290.494 343.839 287.572C351.488 285.046 358.904 281.864 366.004 278.059V278.37L335.68 267.588L327.493 264.664L325.378 263.894C324.898 263.715 324.663 263.612 324.663 263.612L325.387 263.847L327.521 264.57L335.736 267.39L366.192 278.012L366.559 278.135L366.221 278.323C359.107 282.157 351.676 285.368 344.008 287.92C335.057 290.869 325.862 293.024 316.532 294.359C311.588 295.102 306.474 295.656 301.229 296.023C295.869 296.442 290.492 296.587 285.117 296.455C273.778 296.022 262.494 294.652 251.381 292.357C246.267 291.304 241.238 290.129 236.341 288.672C231.514 287.309 226.82 285.513 222.316 283.305C220.125 282.384 218.209 280.914 216.751 279.037C215.326 277.212 214.246 275.141 213.565 272.927C213.224 271.842 212.951 270.737 212.747 269.618C212.606 268.49 212.427 267.381 212.371 266.272C212.192 264.053 212.117 261.844 212.051 259.692C211.826 250.969 212.051 242.621 212.314 234.707C212.465 230.759 212.669 226.92 212.925 223.192C213.179 219.432 213.489 215.86 213.978 212.41C214.918 205.501 215.915 199.118 216.798 193.318C218.678 181.719 220.314 172.46 221.677 166.134C222.354 162.966 222.955 160.541 223.444 158.914C223.651 158.097 223.914 157.495 224.046 157.091C224.177 156.687 224.365 156.48 224.365 156.48Z" fill="#263238"/>
<path d="M259.982 188.28C260.002 188.467 260.002 188.657 259.982 188.844C259.982 189.267 259.925 189.784 259.878 190.442C259.766 191.899 259.615 193.892 259.418 196.317C259.004 201.337 258.478 208.152 257.829 215.69L256.306 235.073C256.128 237.498 255.978 239.491 255.865 240.948L255.724 242.537C255.712 242.723 255.687 242.909 255.648 243.091C255.621 242.908 255.621 242.721 255.648 242.537C255.648 242.114 255.649 241.597 255.696 240.929C255.743 239.538 255.846 237.527 255.977 235.045C256.269 230.082 256.739 223.22 257.359 215.653C257.98 208.086 258.6 201.243 259.098 196.289C259.352 193.864 259.559 191.88 259.709 190.423C259.794 189.775 259.86 189.248 259.907 188.835C259.907 188.647 259.932 188.461 259.982 188.28Z" fill="#263238"/>
<path d="M288.501 165.137C288.749 168.443 288.831 171.759 288.746 175.073C288.831 178.387 288.749 181.703 288.501 185.009C288.37 185.009 288.257 180.553 288.257 175.073C288.257 169.593 288.37 165.137 288.501 165.137Z" fill="#263238"/>
<path d="M280.963 198.141C281.16 200.062 281.9 201.888 283.096 203.405C284.187 204.824 286.396 206.225 288.172 206.102C289.511 206.171 290.844 205.89 292.042 205.289C293.24 204.688 294.261 203.786 295.006 202.671C297.168 199.231 297.704 192.059 295.946 187.819C294.752 184.905 292.073 182.179 288.924 182.114C284.788 182.02 282.194 185.009 281.31 188.036" fill="#E2DEE5"/>
<path d="M281.329 188.036C281.466 187.32 281.723 186.634 282.091 186.005C282.5 185.25 283.023 184.562 283.642 183.965C284.47 183.171 285.475 182.585 286.574 182.255C287.212 182.059 287.873 181.952 288.539 181.935C289.268 181.895 289.998 181.991 290.692 182.217C292.205 182.752 293.536 183.708 294.527 184.971C295.645 186.335 296.422 187.947 296.792 189.671C297.182 191.502 297.321 193.377 297.206 195.245C297.018 198.188 296.435 201.12 294.809 203.358C294 204.409 292.922 205.221 291.688 205.708C290.566 206.157 289.361 206.359 288.154 206.3C287.272 206.308 286.403 206.094 285.625 205.679C284.941 205.322 284.308 204.873 283.745 204.345C282.86 203.463 282.157 202.415 281.677 201.261C281.355 200.533 281.134 199.765 281.019 198.977C280.987 198.772 280.968 198.565 280.963 198.357C280.95 198.285 280.95 198.212 280.963 198.141C281.154 199.183 281.469 200.2 281.903 201.167C282.405 202.272 283.113 203.271 283.989 204.11C284.557 204.607 285.189 205.024 285.869 205.35C286.595 205.725 287.402 205.916 288.219 205.905C289.41 205.964 290.598 205.739 291.685 205.249C292.772 204.759 293.727 204.017 294.47 203.085C295.984 200.989 296.567 198.103 296.745 195.227C296.952 191.467 296.322 187.763 294.207 185.263C293.261 184.064 291.998 183.155 290.56 182.64C289.909 182.425 289.225 182.326 288.539 182.349C287.903 182.355 287.271 182.447 286.659 182.621C285.608 182.924 284.643 183.468 283.839 184.21C283.224 184.772 282.695 185.421 282.269 186.137C281.92 186.752 281.607 187.386 281.329 188.036Z" fill="#263238"/>
<path d="M278.763 198.329C278.961 200.25 279.701 202.075 280.897 203.593C281.978 205.012 284.196 206.413 285.973 206.29C287.311 206.358 288.644 206.077 289.842 205.476C291.04 204.874 292.061 203.973 292.807 202.859C294.969 199.41 295.504 192.247 293.747 188.007C292.553 185.084 289.874 182.367 286.725 182.302C284.975 182.287 283.272 182.862 281.891 183.935C280.509 185.008 279.53 186.516 279.111 188.214" fill="#E2DEE5"/>
<path d="M279.13 188.214C279.267 187.502 279.525 186.819 279.891 186.193C280.3 185.438 280.823 184.75 281.442 184.153C282.76 182.883 284.509 182.158 286.34 182.123C287.068 182.084 287.798 182.18 288.492 182.405C290.006 182.94 291.336 183.896 292.327 185.159C293.446 186.522 294.22 188.134 294.583 189.859C294.981 191.689 295.124 193.565 295.006 195.433C294.818 198.376 294.236 201.299 292.609 203.546C291.801 204.597 290.722 205.409 289.488 205.896C288.367 206.345 287.161 206.547 285.954 206.488C285.072 206.493 284.202 206.276 283.426 205.858C282.74 205.507 282.107 205.061 281.546 204.533C280.655 203.651 279.952 202.6 279.478 201.44C279.156 200.715 278.934 199.95 278.82 199.165C278.82 198.893 278.763 198.686 278.754 198.545C278.744 198.473 278.744 198.4 278.754 198.329C278.946 199.368 279.261 200.381 279.694 201.346C280.19 202.457 280.899 203.46 281.781 204.298C282.348 204.795 282.98 205.212 283.661 205.538C284.388 205.909 285.194 206.099 286.011 206.093C287.2 206.151 288.386 205.925 289.471 205.435C290.556 204.945 291.509 204.204 292.252 203.273C293.775 201.167 294.358 198.291 294.536 195.415C294.743 191.655 294.113 187.951 291.998 185.451C291.068 184.242 289.813 183.322 288.379 182.8C287.731 182.584 287.05 182.486 286.368 182.508C284.623 182.535 282.95 183.205 281.668 184.388C281.053 184.951 280.524 185.6 280.098 186.315C279.736 186.927 279.412 187.562 279.13 188.214Z" fill="#263238"/>
<path d="M282.758 187.161C281.715 187.029 280.657 187.241 279.746 187.766C278.835 188.29 278.12 189.098 277.71 190.066C276.93 192.038 276.93 194.233 277.71 196.204C278.033 197.225 278.568 198.167 279.28 198.968C280.005 199.774 281.018 200.264 282.1 200.331C282.883 200.287 283.645 200.055 284.32 199.656C284.996 199.257 285.566 198.702 285.982 198.037C286.71 197.002 287.205 195.822 287.433 194.577C287.662 193.333 287.619 192.054 287.308 190.827C286.875 189.192 285.672 187.528 283.989 187.481" fill="#E2DEE5"/>
<path d="M283.98 187.481C283.98 187.481 284.112 187.481 284.356 187.481C284.718 187.522 285.068 187.641 285.381 187.829C285.935 188.198 286.41 188.674 286.778 189.23C287.146 189.785 287.399 190.408 287.524 191.062C287.982 192.991 287.777 195.018 286.941 196.815C286.472 197.893 285.75 198.841 284.835 199.579C284.344 200.003 283.758 200.303 283.127 200.455C282.496 200.607 281.838 200.606 281.207 200.453C279.976 200.061 278.94 199.214 278.312 198.084C277.735 197.073 277.329 195.975 277.109 194.832C276.874 193.877 276.836 192.885 276.997 191.915C277.159 190.945 277.517 190.019 278.049 189.192C278.43 188.646 278.915 188.18 279.476 187.822C280.037 187.464 280.664 187.22 281.32 187.105C281.678 187.052 282.042 187.052 282.401 187.105C282.636 187.152 282.758 187.19 282.758 187.208C282.29 187.192 281.821 187.22 281.357 187.293C280.118 187.58 279.036 188.33 278.331 189.389C277.844 190.188 277.524 191.077 277.389 192.002C277.255 192.928 277.31 193.871 277.55 194.775C277.77 195.864 278.167 196.909 278.725 197.868C279.293 198.888 280.227 199.655 281.339 200.011C281.896 200.147 282.477 200.148 283.035 200.014C283.592 199.88 284.11 199.615 284.544 199.24C285.397 198.546 286.079 197.665 286.537 196.665C287.35 194.956 287.578 193.027 287.185 191.175C286.987 189.923 286.314 188.795 285.305 188.026C284.901 187.764 284.452 187.579 283.98 187.481Z" fill="#263238"/>
<path d="M287.496 202.615C287.42 202.615 287.317 202.314 286.997 201.938C286.567 201.454 286.01 201.1 285.39 200.914C284.747 200.729 284.084 200.625 283.416 200.603C282.899 200.603 282.561 200.519 282.561 200.453C282.561 200.387 282.88 200.312 283.416 200.256C284.13 200.179 284.851 200.243 285.54 200.444C286.258 200.65 286.877 201.111 287.279 201.741C287.571 202.23 287.552 202.606 287.496 202.615Z" fill="#263238"/>
<path d="M288.238 185.883C288.238 185.883 288.088 186.212 287.656 186.56C287.074 187.004 286.394 187.301 285.672 187.425C284.953 187.556 284.212 187.517 283.51 187.312C282.984 187.133 282.702 186.926 282.73 186.87C283.663 187.016 284.611 187.041 285.55 186.945C286.486 186.703 287.389 186.347 288.238 185.883Z" fill="#263238"/>
<path d="M352.826 118.551C352.826 118.551 352.938 118.551 353.136 118.664C353.423 118.792 353.702 118.936 353.972 119.096C354.98 119.666 355.925 120.34 356.792 121.108C359.683 123.654 361.784 126.974 362.846 130.677C363.958 134.313 364.729 138.046 365.149 141.825C365.318 143.273 365.403 144.448 365.459 145.256C365.507 145.678 365.507 146.104 365.459 146.525C365.354 146.115 365.284 145.697 365.253 145.275C365.13 144.382 364.971 143.235 364.792 141.872C364.272 138.129 363.458 134.433 362.357 130.818C361.312 127.198 359.304 123.93 356.548 121.361C355.378 120.334 354.134 119.394 352.826 118.551Z" fill="#263238"/>
<path d="M341.113 222.017C343.839 221.913 346.02 219.197 348.746 219.347C349.24 219.389 349.72 219.528 350.161 219.755C350.601 219.983 350.992 220.295 351.311 220.674C351.631 221.053 351.872 221.491 352.023 221.963C352.173 222.436 352.228 222.933 352.186 223.427C352.144 223.92 352.006 224.401 351.778 224.841C351.55 225.281 351.238 225.672 350.859 225.992C350.48 226.311 350.042 226.553 349.57 226.703C349.098 226.853 348.601 226.909 348.107 226.867C345.24 226.538 343.567 223.182 340.765 222.543" fill="#263238"/>
<path d="M364.219 224.338C363.365 224.337 362.513 224.268 361.671 224.132L361.822 223.192C365.187 223.727 368.016 223.192 370.225 221.547C373.045 219.507 374.803 215.85 375.555 210.68V210.483C375.865 208.434 376.288 168.23 376.288 160.597C376.288 148.668 365.826 147.042 365.375 146.976C364.924 146.911 355.439 145.313 350.391 158.332C345.108 171.971 336.658 198.253 336.103 201.337C336.028 201.713 335.925 202.183 335.812 202.718C334.928 206.666 333.105 214.873 338.575 219.591C344.676 224.865 349.489 222.825 349.686 222.74L350.072 223.596C349.846 223.69 344.544 225.993 337.964 220.306C332.061 215.211 333.969 206.638 334.891 202.512C335.013 201.985 335.107 201.572 335.173 201.167C335.737 198.065 344.215 171.67 349.517 157.993C354.819 144.316 365.422 146.027 365.497 146.055C365.572 146.083 377.191 147.841 377.191 160.597C377.191 166.886 376.777 208.443 376.448 210.624V210.812C375.658 216.245 373.741 220.108 370.742 222.308C368.844 223.672 366.555 224.384 364.219 224.338Z" fill="#263238"/>
<path d="M376.786 168.296C376.37 166.641 375.711 165.057 374.831 163.596C373.831 162.053 372.575 160.693 371.118 159.572C369.324 158.218 367.264 157.257 365.074 156.752C361.05 155.867 356.844 156.416 353.183 158.303C351.687 159.121 350.295 160.115 349.037 161.264C349.097 161.161 349.169 161.067 349.254 160.982C349.468 160.714 349.704 160.462 349.959 160.23C350.872 159.354 351.9 158.605 353.014 158.003C356.727 155.97 361.053 155.355 365.187 156.273C367.444 156.806 369.56 157.819 371.391 159.243C372.889 160.404 374.163 161.828 375.151 163.445C375.812 164.529 376.3 165.708 376.598 166.942C376.687 167.276 376.753 167.615 376.796 167.957C376.796 168.164 376.805 168.296 376.786 168.296Z" fill="#263238"/>
<path d="M400.728 243.439C400.381 242.078 399.948 240.741 399.431 239.435C398.095 236.319 395.88 233.66 393.058 231.783C391.478 230.817 389.719 230.178 387.888 229.903C386.377 229.668 384.855 229.511 383.329 229.433L380.236 229.217C379.856 229.207 379.478 229.156 379.108 229.067C379.486 229.021 379.868 229.021 380.246 229.067L383.348 229.123C384.889 229.157 386.427 229.283 387.954 229.499C389.854 229.747 391.681 230.387 393.321 231.379C396.226 233.302 398.471 236.072 399.751 239.313C400.142 240.279 400.432 241.284 400.615 242.311C400.703 242.681 400.741 243.06 400.728 243.439Z" fill="#263238"/>
<path d="M353.305 227.76C353.305 227.76 362.555 213.763 364.914 211.93C367.273 210.097 387.474 200.979 389.815 202.446C392.155 203.912 390.755 207.089 390.755 207.089C390.755 207.089 399.29 204.1 400.202 205.275C400.692 205.982 400.955 206.821 400.955 207.682C400.955 208.542 400.692 209.381 400.202 210.088C400.202 210.088 404.902 209.364 404.902 210.821C404.883 211.8 404.624 212.758 404.149 213.614C403.674 214.469 402.996 215.195 402.176 215.728C399.995 217.364 385.81 226.801 384.673 229.414L380.076 229.132L353.305 227.76Z" fill="#D7A38F"/>
<path d="M379.907 223.746C380.011 223.435 380.153 223.139 380.33 222.863C380.78 222.097 381.289 221.368 381.853 220.682C383.743 218.428 386.011 216.519 388.555 215.042C391.086 213.561 393.74 212.303 396.489 211.282C397.532 210.878 398.369 210.577 398.98 210.342C399.281 210.217 399.597 210.129 399.92 210.079C399.65 210.265 399.356 210.414 399.045 210.52L396.611 211.564C393.927 212.662 391.32 213.94 388.809 215.39C386.31 216.847 384.053 218.683 382.116 220.832C380.65 222.571 379.992 223.793 379.907 223.746Z" fill="#AC7C6A"/>
<path d="M368.185 223.521C368.295 223.162 368.446 222.819 368.637 222.496C368.956 221.847 369.417 220.917 370.056 219.789C370.793 218.463 371.646 217.205 372.603 216.029C373.172 215.313 373.821 214.667 374.54 214.102C375.32 213.575 376.138 213.087 376.993 212.579C379.884 210.856 382.9 209.354 386.017 208.086C386.962 207.712 387.929 207.398 388.912 207.146C389.274 207.041 389.646 206.975 390.022 206.948C390.022 207.033 388.489 207.39 386.149 208.443C383.09 209.798 380.115 211.333 377.238 213.04C376.392 213.538 375.574 214.036 374.812 214.534C374.12 215.067 373.49 215.676 372.932 216.348C371.969 217.497 371.101 218.724 370.338 220.014L368.778 222.628C368.613 222.946 368.414 223.245 368.185 223.521Z" fill="#AC7C6A"/>
</svg>
