<svg width="470" height="493" viewBox="0 0 470 493" fill="none" xmlns="http://www.w3.org/2000/svg">
<rect y="23" width="470" height="470" rx="24" fill="white"/>
<path d="M409.44 169.516L408.39 165.636C399.55 132.926 373.87 107.346 341.1 100.076C336.885 99.1409 332.607 98.5192 328.3 98.2157C297.23 96.0157 265.37 110.786 246.63 136.076C235.63 150.946 228.33 169.626 212.73 179.456C192.42 192.236 166.24 185.256 143.57 177.936C120.9 170.616 94.68 163.686 74.44 176.566C61.75 184.626 54.27 199.146 50.85 213.856C41.85 252.856 58.62 294.856 87.7 321.766C116.78 348.676 156.38 361.766 195.77 365.006C250.96 369.566 308.89 355.006 351.58 319.066C394.27 283.126 419.38 224.536 409.44 169.516Z" fill="#F0F3FA"/>
<path d="M452.14 19.1659C451.125 10.9315 444.159 3.25171 435.859 3.25171C430.962 3.25171 426.309 5.80852 422.962 9.38052C421.775 10.5919 420.678 11.8895 419.682 13.2627C418.981 11.721 418.164 10.2347 417.238 8.81651C414.662 4.65231 410.601 1.22131 405.798 0.262514C397.667 -1.36369 389.329 4.78391 386.707 12.6611C384.084 20.5383 386.265 29.3649 390.579 36.4525C394.894 43.5401 402.311 52.7991 415.959 57.3957C425.359 56.1831 438.012 47.8265 443.633 41.7259C449.254 35.6253 453.127 27.3909 452.14 19.1659Z" fill="#FF6F47"/>
<path d="M449.113 33.9428C449.023 33.953 448.931 33.953 448.841 33.9428L448.042 33.8864L444.968 33.6326L433.688 32.5986L433.895 32.4764C432.532 36.0202 430.943 40.175 429.195 44.6964L428.913 45.4296L428.725 44.6588C427.287 38.718 425.689 32.0534 424.025 25.0316C423.508 22.8602 422.991 20.717 422.493 18.6302L422.972 18.7242L414.362 30.5682L414.277 30.681H414.136L394.321 28.613L388.681 27.9926L387.196 27.8046C387.023 27.7953 386.852 27.7637 386.688 27.7106C386.86 27.6939 387.033 27.6939 387.205 27.7106L388.69 27.814L394.33 28.3028L414.164 30.1828L413.948 30.2768L422.521 18.414L422.859 17.9346L422.991 18.508C423.498 20.5948 424.006 22.7286 424.532 24.9094L429.232 44.546H428.762C430.539 40.0058 432.165 35.8604 433.556 32.326L433.603 32.185H433.754L445.034 33.3882L448.089 33.7454L448.888 33.8488C448.967 33.8702 449.043 33.9018 449.113 33.9428Z" fill="#F0F3FA"/>
<path d="M228.01 60.5557H221.806V88.3703H228.01V60.5557Z" fill="#FF6F47"/>
<path d="M210.996 71.3563V77.5603H238.81V71.3563H210.996Z" fill="#FF6F47"/>
<path d="M248.003 74.5335C247.98 74.4092 247.965 74.2837 247.957 74.1575C247.957 73.8849 247.91 73.5183 247.881 73.0577C247.881 72.8133 247.881 72.5407 247.825 72.2493C247.769 71.9579 247.731 71.6289 247.675 71.3093C247.57 70.5026 247.407 69.7045 247.186 68.9217C246.641 66.7605 245.773 64.6942 244.61 62.7929C241.87 58.1994 237.613 54.7063 232.573 52.9165C227.533 51.1266 222.026 51.1521 217.002 52.9887C215.973 53.3569 214.971 53.7966 214.004 54.3047C213.023 54.8436 212.081 55.4498 211.184 56.1189C210.269 56.7977 209.399 57.5356 208.58 58.3279C207.774 59.1647 207.023 60.0534 206.333 60.9881C204.911 62.9057 203.803 65.0381 203.053 67.3049C201.474 72.0043 201.474 77.091 203.053 81.7903C203.801 84.058 204.909 86.1908 206.333 88.1071C207.019 89.0456 207.769 89.9346 208.58 90.7673C209.396 91.5653 210.266 92.3065 211.184 92.9857C212.081 93.6549 213.023 94.261 214.004 94.7999C214.973 95.3041 215.975 95.7438 217.002 96.1159C222.026 97.9385 227.527 97.958 232.563 96.1711C237.6 94.3843 241.858 90.9022 244.61 86.3211C245.775 84.4174 246.643 82.3477 247.186 80.1829C247.408 79.4035 247.571 78.6085 247.675 77.8047C247.731 77.4475 247.797 77.1279 247.825 76.8647C247.853 76.6015 247.825 76.3007 247.881 76.0563C247.881 75.5863 247.938 75.2291 247.957 74.9565C247.964 74.8303 247.979 74.7047 248.003 74.5805C248.014 74.7056 248.014 74.8314 248.003 74.9565C248.003 75.2291 248.003 75.5957 248.003 76.0563V76.8741C248.003 77.1749 247.919 77.4945 247.881 77.8141C247.788 78.6259 247.637 79.43 247.43 80.2205C246.91 82.4146 246.057 84.5163 244.902 86.4527C243.206 89.314 240.92 91.7803 238.195 93.6866C235.47 95.593 232.369 96.8956 229.1 97.5071C225.011 98.2651 220.794 97.9246 216.88 96.5201C215.834 96.1417 214.813 95.6959 213.825 95.1853C211.805 94.0724 209.943 92.694 208.289 91.0869C207.462 90.239 206.696 89.3344 205.995 88.3797C204.533 86.424 203.399 84.2427 202.639 81.9219C201.864 79.5312 201.456 77.0371 201.427 74.5241C201.461 72.0147 201.87 69.5245 202.639 67.1357C203.403 64.8195 204.536 62.642 205.995 60.6873C206.698 59.7315 207.464 58.824 208.289 57.9707C209.126 57.1657 210.015 56.4153 210.949 55.7241C213.527 53.8224 216.469 52.4713 219.591 51.7549C222.714 51.0385 225.951 50.9722 229.1 51.5599C232.353 52.1849 235.436 53.4947 238.144 55.4021C240.852 57.3096 243.123 59.7713 244.808 62.6237C245.961 64.5577 246.814 66.656 247.336 68.8465C247.542 69.6404 247.693 70.4476 247.787 71.2623C247.787 71.6101 247.891 71.9391 247.91 72.2023V73.0107C247.91 73.4807 247.91 73.8473 247.91 74.1199C247.953 74.2546 247.985 74.3931 248.003 74.5335Z" fill="#FF6F47"/>
<path d="M196.31 166.218C196.422 162.12 192.644 158.962 188.79 157.458C184.936 155.954 180.743 155.39 177.34 153.105C174.332 151.075 172.311 147.917 169.764 145.341C166.621 142.156 162.687 139.864 158.365 138.701C154.044 137.538 149.491 137.546 145.174 138.724C140.856 139.902 136.93 142.207 133.798 145.404C130.666 148.6 128.441 152.572 127.351 156.912C125.894 162.74 126.891 169.631 131.487 173.513C136.826 178.006 144.732 177.01 151.566 175.609C158.399 174.208 166.145 172.789 171.851 176.84C175.291 179.266 177.265 183.204 179.371 186.851C181.476 190.499 184.071 194.212 188.094 195.584C192.117 196.956 197.494 194.588 197.635 190.386" fill="#263238"/>
<path d="M196.037 168.465C195.586 171.896 198.068 174.97 200.54 177.395C203.012 179.82 205.804 182.386 206.246 185.855C206.753 189.869 203.82 193.817 204.676 197.774C205.212 200.284 207.167 202.211 208.351 204.495C209.921 207.782 210.18 211.543 209.075 215.014C208.06 218.473 206.434 226.19 204.027 228.879C197.381 236.305 186.806 242.716 177.096 244.943C167.386 247.171 157.29 247.19 147.345 246.579C139.205 246.081 129.833 246.457 123.046 235.252C119.531 229.443 117.792 221.735 115.93 215.211C114.314 209.571 112.922 203.583 114.596 197.981C115.536 194.729 117.538 191.824 118.497 188.581C119.7 184.501 119.258 180.121 119.737 175.919C120.261 171.322 121.875 166.917 124.444 163.07C127.014 159.222 130.465 156.044 134.511 153.8C138.556 151.555 143.08 150.309 147.704 150.166C152.328 150.022 156.92 150.985 161.097 152.974" fill="#263238"/>
<path d="M123.638 182.537C124.4 170.853 132.173 156.527 143.82 157.787L180.16 167.055C181.866 167.242 183.44 168.061 184.572 169.35C185.704 170.639 186.314 172.305 186.28 174.02L182.191 261.704L182.445 261.751C182.445 261.751 174.163 286.482 150.127 278.934C145.362 277.43 143.181 272.222 142.241 266.855H141.996C141.996 266.216 141.996 265.623 141.996 264.975C141.528 260.977 141.481 256.941 141.855 252.933C141.79 245.855 141.799 242.96 141.79 243.026C141.78 243.092 126.862 240.507 123.817 221.02C122.266 211.404 122.792 195.518 123.638 182.537Z" fill="#FCD8D0"/>
<path d="M142 221.852C143.58 223.701 146.244 223.918 148.586 222.977C150.928 222.034 152.994 220.099 154.822 218" fill="#E77E7D"/>
<path d="M123.571 185.296C127.487 183.032 132.439 182.749 136.615 184.474C137.639 184.898 138.327 183.324 137.3 182.9C132.52 180.925 127.012 181.331 122.552 183.909C122.15 184.142 122.113 184.763 122.367 185.109C122.666 185.518 123.168 185.529 123.571 185.296Z" fill="#10202C"/>
<path d="M154.76 184.223C159.018 182.684 163.943 183.278 167.749 185.713C168.682 186.309 169.639 184.881 168.704 184.283C164.346 181.498 158.852 180.928 154.003 182.679C153.566 182.837 153.419 183.442 153.608 183.828C153.831 184.282 154.323 184.381 154.76 184.223Z" fill="#10202C"/>
<path d="M125.883 193.051C129.501 189.866 135.035 190.13 138.373 193.605C138.797 194.047 139.479 193.386 139.055 192.945C135.348 189.087 129.22 188.849 125.22 192.37C124.76 192.774 125.426 193.453 125.883 193.051Z" fill="#10202C"/>
<path d="M165.711 193.99C162.093 190.805 156.558 191.068 153.22 194.543C152.796 194.985 152.115 194.325 152.539 193.884C156.246 190.025 162.373 189.788 166.373 193.308C166.833 193.713 166.167 194.392 165.711 193.99Z" fill="#10202C"/>
<path d="M143.688 211.282C143.688 211.132 142.034 210.84 139.327 210.483C138.641 210.417 137.992 210.276 137.87 209.806C137.815 209.097 137.979 208.389 138.34 207.776L140.38 202.549C143.2 195.114 145.268 188.995 144.967 188.891C144.666 188.788 142.147 194.71 139.327 202.155C138.637 203.984 137.986 205.736 137.372 207.409C136.936 208.234 136.806 209.186 137.005 210.098C137.105 210.34 137.258 210.556 137.453 210.73C137.649 210.904 137.881 211.032 138.133 211.103C138.513 211.208 138.905 211.265 139.299 211.273C141.987 211.423 143.679 211.442 143.688 211.282Z" fill="#263238"/>
<path d="M141.761 243.101C150.935 243.261 159.972 240.869 167.865 236.192C167.865 236.192 161.285 249.662 141.78 247.801L141.761 243.101Z" fill="#DBBFB9"/>
<path d="M193.762 231.154C191.071 231.696 188.29 231.59 185.647 230.845C183.005 230.099 180.579 228.735 178.568 226.866C176.557 224.997 175.021 222.676 174.085 220.095C173.149 217.515 172.841 214.748 173.186 212.025C173.787 207.24 176.372 202.371 174.708 197.84C172.518 191.852 164.124 190.01 161.896 184.031C160.599 180.563 161.765 176.511 160.298 173.099C158.916 169.894 155.551 168.051 152.271 166.867C148.99 165.683 145.484 164.865 142.73 162.731C139.975 160.597 138.265 156.555 140.041 153.557C154.59 155.298 168.878 158.77 182.604 163.897C185.791 165.081 189.128 166.51 191.008 169.339C193.001 172.328 192.888 176.192 192.738 179.783L190.284 232.253" fill="#263238"/>
<path d="M192.54 237.846C192.54 237.846 192.662 237.79 192.86 237.649L193.725 236.991C194.477 236.399 195.605 235.525 196.949 234.312C198.631 232.864 200.165 231.252 201.527 229.499C203.39 227.168 204.644 224.409 205.174 221.472C205.547 219.685 205.516 217.837 205.081 216.064C204.647 214.291 203.821 212.638 202.664 211.226C201.251 209.821 199.734 208.526 198.124 207.353C196.503 206.124 195.272 204.453 194.58 202.54C193.142 198.573 193.781 193.977 193.226 189.277C192.676 184.373 190.761 179.723 187.699 175.853C186.121 173.904 184.156 172.304 181.928 171.153C179.74 170.159 177.457 169.39 175.113 168.86C172.93 168.311 170.889 167.305 169.125 165.908C167.466 164.519 166.005 162.909 164.782 161.124C162.338 157.646 160.524 153.942 158.202 150.849C157.102 149.335 155.813 147.967 154.367 146.779C153.009 145.689 151.469 144.849 149.817 144.298C148.406 143.759 146.889 143.557 145.386 143.707C143.884 143.857 142.437 144.356 141.16 145.162C140.262 145.859 139.524 146.739 138.993 147.744C138.463 148.749 138.154 149.856 138.086 150.99C137.969 152.427 138.388 153.857 139.261 155.004C139.486 155.295 139.752 155.552 140.051 155.766C140.147 155.849 140.255 155.919 140.37 155.972C140.291 155.874 140.203 155.783 140.107 155.7C139.84 155.464 139.603 155.195 139.402 154.901C138.634 153.761 138.3 152.383 138.462 151.019C138.551 149.946 138.866 148.904 139.386 147.961C139.906 147.018 140.62 146.196 141.479 145.548C142.698 144.811 144.07 144.366 145.489 144.248C146.908 144.131 148.335 144.344 149.657 144.871C151.233 145.414 152.701 146.232 153.991 147.287C155.376 148.461 156.613 149.8 157.676 151.272C159.932 154.309 161.708 158.012 164.19 161.612C165.444 163.469 166.95 165.143 168.664 166.585C170.485 168.027 172.589 169.068 174.84 169.64C177.133 170.163 179.366 170.919 181.505 171.896C183.632 173.004 185.508 174.54 187.013 176.408C189.981 180.145 191.844 184.639 192.39 189.38C192.963 193.92 192.305 198.592 193.837 202.813C194.577 204.849 195.881 206.632 197.597 207.954C199.182 209.096 200.681 210.353 202.081 211.714C203.185 213.044 203.977 214.603 204.399 216.279C204.822 217.954 204.865 219.702 204.525 221.396C204.045 224.248 202.87 226.937 201.104 229.227C199.779 230.978 198.297 232.605 196.676 234.086C195.351 235.327 194.279 236.239 193.565 236.906C193.204 237.199 192.862 237.512 192.54 237.846Z" fill="#455A64"/>
<path d="M196.103 240.272C200.107 236.399 206.941 239.764 210.306 244.201C213.671 248.638 216.05 254.372 221.154 256.609C226.258 258.846 232.885 256.919 237.134 260.472C243.037 265.379 239.719 276.744 246.111 281.011C248.639 282.703 251.986 282.647 254.693 284.038C261.076 287.328 261 296.333 260.013 303.449C258.669 313.46 257.147 323.8 251.638 332.26C246.13 340.72 235.404 346.633 225.873 343.38C216.708 340.25 211.998 330.361 208.266 321.422C203.115 309.026 197.958 296.659 192.794 284.32C189.814 277.167 186.797 269.9 185.829 262.211C184.86 254.522 186.158 246.231 191.055 240.196" fill="#263238"/>
<path d="M198.669 231.736C201.574 231.389 203.801 234.951 203.031 237.781C202.26 240.61 199.553 242.481 196.78 243.421C195.249 244.028 193.586 244.219 191.957 243.975C191.144 243.848 190.377 243.51 189.736 242.993C189.094 242.477 188.599 241.801 188.301 241.033C187.996 240.371 187.965 239.615 188.215 238.93C188.465 238.245 188.976 237.687 189.636 237.376C191.516 236.183 192.672 235.243 194.185 234.406C196.498 233.137 196.357 232.968 198.669 231.689" fill="#94A9DB"/>
<path d="M131.713 263.085L143.012 254.522L185.603 251.796L187.314 257.511L173.458 343.954L184.391 447.09H124.973L131.713 263.085Z" fill="#94A9DB"/>
<g opacity="0.3">
<path opacity="0.4" d="M177.312 410.506C175.949 409.049 173.722 407.056 171.738 407.009C157.507 406.699 142.984 405.279 128.752 404.96L127.615 447.109C131.017 441.112 134.242 434.889 135.135 428.027C135.529 425.038 136.075 421.447 138.754 420.188C140.295 419.464 142.109 419.746 143.773 420.084C148.915 421.099 154.019 422.425 159.246 422.754C164.472 423.083 169.952 422.312 174.342 419.454C175.9 418.535 177.155 417.178 177.951 415.553C178.331 414.737 178.472 413.83 178.359 412.937C178.245 412.045 177.883 411.202 177.312 410.506Z" fill="#263238"/>
</g>
<path d="M140.925 264.834L139.599 252.473C139.545 251.955 139.594 251.431 139.744 250.932C139.893 250.434 140.141 249.97 140.471 249.567C140.802 249.165 141.209 248.832 141.67 248.589C142.13 248.345 142.634 248.196 143.153 248.149L182.351 244.605C182.601 244.586 182.853 244.617 183.092 244.697C183.33 244.777 183.55 244.904 183.739 245.071C183.927 245.237 184.08 245.44 184.189 245.667C184.298 245.893 184.36 246.14 184.372 246.391L184.813 261.102L173.458 280.363L161.793 284.076H147.524L139.317 275.315L140.925 264.834Z" fill="#94A9DB"/>
<path d="M179.023 256.383C178.497 256.361 177.973 256.308 177.453 256.223C176.035 256.091 174.608 256.065 173.186 256.148C171.072 256.3 168.972 256.614 166.906 257.088C164.566 257.577 162.018 258.263 159.321 258.921C156.789 259.582 154.208 260.041 151.603 260.294C149.46 260.496 147.298 260.35 145.202 259.861C143.792 259.531 142.446 258.972 141.216 258.207C140.889 257.995 140.575 257.762 140.276 257.511C140.069 257.342 139.966 257.239 139.985 257.229C140.004 257.22 140.445 257.539 141.329 258.038C142.575 258.724 143.914 259.224 145.305 259.523C147.369 259.955 149.487 260.063 151.584 259.842C154.163 259.567 156.718 259.099 159.227 258.442C161.915 257.793 164.472 257.116 166.831 256.646C168.923 256.198 171.048 255.927 173.186 255.838C174.628 255.776 176.072 255.852 177.5 256.064C178.008 256.151 178.393 256.227 178.656 256.289C178.891 256.327 179.032 256.364 179.023 256.383Z" fill="#263238"/>
<g opacity="0.3">
<path opacity="0.4" d="M141.855 258.329C140.803 261.215 140.774 264.787 142.908 266.996C144.638 268.801 147.43 269.252 149.883 268.763C152.313 268.138 154.618 267.101 156.698 265.699C162.094 262.493 167.583 259.166 173.712 257.803C174.114 257.755 174.495 257.595 174.812 257.342C174.885 257.274 174.943 257.192 174.983 257.101C175.023 257.009 175.044 256.911 175.044 256.811C175.044 256.711 175.023 256.613 174.983 256.521C174.943 256.43 174.885 256.348 174.812 256.28C174.658 256.189 174.483 256.141 174.304 256.139C168.88 255.594 163.494 257.079 158.183 258.32C152.872 259.56 147.185 260.359 142.062 258.508" fill="#263238"/>
</g>
<path d="M149.347 247.754C148.795 248.055 148.332 248.496 148.003 249.032C147.383 250.029 147.42 251.721 147.467 253.544C147.571 257.201 148.172 260.124 148.031 260.124C147.757 259.529 147.577 258.895 147.495 258.244C147.198 256.694 147.025 255.122 146.978 253.544C146.944 252.67 146.963 251.794 147.035 250.922C147.088 250.184 147.32 249.471 147.712 248.844C147.98 248.42 148.361 248.078 148.811 247.857C149.14 247.726 149.338 247.726 149.347 247.754Z" fill="#263238"/>
<path d="M159.706 258.498C159.717 256.502 159.623 254.506 159.424 252.52C158.973 249.239 157.883 246.748 158.033 246.692C158.389 247.171 158.66 247.709 158.832 248.28C159.345 249.624 159.708 251.021 159.913 252.445C160.116 253.87 160.157 255.315 160.035 256.75C160.025 257.347 159.914 257.938 159.706 258.498Z" fill="#263238"/>
<path d="M172.33 245.648C172.679 246.075 172.932 246.572 173.073 247.105C173.497 248.366 173.673 249.697 173.59 251.025C173.5 252.356 173.149 253.656 172.556 254.851C172.345 255.363 172.024 255.822 171.616 256.195C172.467 254.585 172.97 252.814 173.091 250.997C173.213 249.18 172.95 247.357 172.321 245.648H172.33Z" fill="#263238"/>
<path d="M117.359 268.65C117.359 268.65 103.992 277.599 100.439 293.767C97.6755 306.476 90.0991 373.611 90.0991 373.611L76.8545 399.385L85.5025 419.953C92.9088 420.476 100.263 418.376 106.276 414.021L112.095 409.791L122.764 393.971L117.359 268.65Z" fill="#F2EEF5"/>
<path d="M140.013 256.787L117.359 268.65L112.01 286.219L107.245 337.157L116.212 396.876L100.477 446.912L127.614 447.109L128.263 417.781L130.97 322.841L133.63 262.362L140.013 256.787Z" fill="#F2EEF5"/>
<path d="M129.043 335.935C128.883 335.709 128.742 335.47 128.62 335.221L127.492 333.144C127.022 332.204 126.552 331.057 125.979 329.722C125.706 329.045 125.471 328.303 125.199 327.522C124.926 326.742 124.625 325.915 124.39 325.031C122.256 317.991 120.846 307.829 121.147 296.625C121.147 295.76 121.213 294.904 121.269 294.049V293.899L121.41 293.842L125.377 292.169L125.321 292.583L121.354 289.396L121.269 289.33V289.236C121.231 285.386 121.841 281.557 123.074 277.909C124.071 274.591 125.161 271.733 126.12 269.383C127.079 267.033 127.915 265.2 128.507 263.96C128.808 263.33 129.043 262.85 129.203 262.54C129.28 262.373 129.371 262.213 129.476 262.061C129.43 262.237 129.364 262.408 129.278 262.568L128.648 264.025C128.103 265.285 127.314 267.137 126.392 269.496C125.471 271.856 124.418 274.713 123.46 278.022C122.274 281.627 121.692 285.404 121.739 289.199L121.645 289.039L125.622 292.207L125.932 292.46L125.565 292.62L121.598 294.293L121.749 294.087C121.692 294.923 121.655 295.779 121.627 296.643C121.335 307.801 122.679 317.916 124.719 324.928C124.935 325.821 125.227 326.639 125.481 327.419C125.734 328.199 125.96 328.951 126.233 329.628C126.787 330.963 127.173 332.138 127.661 333.059L128.695 335.174C128.828 335.42 128.945 335.674 129.043 335.935Z" fill="#263238"/>
<path d="M111.258 371.599C111.173 371.359 111.101 371.114 111.042 370.866C110.911 370.333 110.732 369.619 110.506 368.723C110.271 367.783 110.008 366.655 109.745 365.329C109.482 364.004 109.134 362.509 108.871 360.789C108.608 359.069 108.25 357.255 107.997 355.262C107.743 353.269 107.489 351.126 107.254 348.879C106.84 344.367 106.568 339.395 106.568 334.168C106.568 328.942 106.878 323.969 107.301 319.467C107.555 317.22 107.771 315.077 108.081 313.084C108.391 311.091 108.664 309.239 108.965 307.557C109.266 305.874 109.585 304.361 109.905 303.026C110.224 301.691 110.45 300.554 110.685 299.633C110.92 298.711 111.089 298.025 111.23 297.499C111.284 297.246 111.357 296.998 111.446 296.756C111.428 297.013 111.388 297.268 111.324 297.518L110.873 299.67C110.666 300.61 110.412 301.748 110.177 303.082C109.942 304.417 109.604 305.902 109.35 307.623C109.096 309.343 108.767 311.148 108.532 313.14C108.297 315.133 108.034 317.267 107.799 319.504C107.404 324.007 107.122 328.961 107.104 334.178C107.085 339.395 107.367 344.339 107.743 348.842C107.978 351.079 108.166 353.222 108.448 355.205C108.73 357.189 108.984 359.05 109.256 360.733C109.529 362.415 109.82 363.938 110.055 365.273C110.29 366.608 110.535 367.754 110.741 368.685C110.948 369.616 111.08 370.302 111.183 370.838C111.235 371.088 111.261 371.343 111.258 371.599Z" fill="#263238"/>
<path d="M117.387 417.452C117.122 418.258 116.753 419.026 116.287 419.736C115.272 421.506 114.112 423.188 112.819 424.765C111.528 426.345 110.107 427.814 108.57 429.155C107.963 429.748 107.284 430.263 106.549 430.687C107.102 430.051 107.699 429.454 108.335 428.901C109.785 427.496 111.157 426.012 112.443 424.455C113.718 422.89 114.904 421.255 115.996 419.558C116.41 418.824 116.875 418.121 117.387 417.452Z" fill="#263238"/>
<path d="M221.52 267.193C226.28 269.043 230.513 272.033 233.847 275.901C237.181 279.769 239.513 284.397 240.64 289.377C248.057 322.052 260.737 365.517 260.944 379.551C261.188 397.411 253.424 409.631 243.187 411.887C235.122 413.673 162.047 409.669 162.047 409.669L158.625 382.409L217.845 373.695L209.742 328.5L217.76 265.783L221.52 267.193Z" fill="#F2EEF5"/>
<path d="M217.76 265.736L201.395 259.053L184.146 248.938L184.043 251.899C186.161 255.515 186.899 259.776 186.12 263.894L171.738 338.774L174.99 393.492L181.674 447.072H233.571L209.742 391.001L218.155 315.434L217.76 265.736Z" fill="#F2EEF5"/>
<path d="M232.923 412.348L232.565 412.395L231.522 412.498C230.582 412.592 229.238 412.583 227.471 412.63C223.955 412.63 218.841 412.555 212.478 412.348C199.759 411.925 182.059 411.07 162.065 409.913H161.868V409.707C161.464 406.464 161.031 403.042 160.599 399.573C159.856 393.698 159.142 387.964 158.456 382.484V382.249H158.681L203.877 375.669L217.149 373.789L220.712 373.31L221.652 373.188H221.972L221.661 373.253L220.721 373.413L217.168 373.977L203.924 375.998L158.804 382.738L159.001 382.465C159.697 387.955 160.42 393.68 161.154 399.555C161.595 403.033 162.018 406.454 162.423 409.697L162.197 409.49C182.181 410.656 199.891 411.568 212.6 412.085C218.954 412.329 224.058 412.47 227.574 412.517C229.332 412.517 230.704 412.517 231.616 412.461L232.659 412.404L232.923 412.348Z" fill="#263238"/>
<path d="M209.263 323.875C209.329 324.038 209.374 324.208 209.394 324.383C209.47 324.768 209.564 325.238 209.676 325.83C209.921 327.156 210.25 328.97 210.616 331.179C211.415 335.766 212.496 341.98 213.7 348.851C214.903 355.722 215.88 361.955 216.651 366.551C216.999 368.77 217.281 370.584 217.488 371.919C217.572 372.511 217.638 373 217.695 373.385C217.715 373.557 217.715 373.73 217.695 373.902C217.624 373.744 217.576 373.576 217.554 373.404C217.478 373.018 217.384 372.539 217.262 371.956C217.018 370.621 216.679 368.817 216.266 366.608C215.448 362.086 214.386 355.845 213.183 348.936C211.979 342.027 210.964 335.776 210.24 331.235C209.902 329.017 209.62 327.193 209.413 325.859C209.338 325.269 209.272 324.781 209.216 324.392C209.213 324.219 209.228 324.045 209.263 323.875Z" fill="#263238"/>
<path d="M191.675 254.24C191.675 254.24 191.675 254.306 191.741 254.428L191.892 254.973C192.014 255.462 192.221 256.167 192.418 257.107C192.991 259.765 193.406 262.455 193.659 265.163C194.042 269.249 194.146 273.357 193.969 277.458C193.809 282.158 193.32 287.3 192.615 292.78V292.949H192.446L187.06 293.946L187.239 293.617C187.549 294.444 187.859 295.327 188.103 296.239C189.584 302.23 189.373 308.513 187.492 314.391C186.003 319.159 183.892 323.71 181.213 327.927C178.976 331.555 176.964 334.337 175.573 336.264L173.947 338.464C173.778 338.699 173.627 338.878 173.515 339.028C173.472 339.099 173.418 339.162 173.355 339.216C173.355 339.216 173.355 339.141 173.477 339L173.872 338.408C174.248 337.862 174.812 337.11 175.413 336.152C176.758 334.196 178.732 331.386 180.912 327.748C183.529 323.536 185.595 319.006 187.06 314.268C188.611 308.939 189.344 302.603 187.633 296.408C187.395 295.536 187.113 294.676 186.787 293.833L186.684 293.56L186.975 293.504L192.324 292.517L192.127 292.724C192.841 287.262 193.358 282.111 193.537 277.449C193.735 273.375 193.669 269.293 193.339 265.229C193.119 262.525 192.751 259.836 192.239 257.173C192.07 256.233 191.882 255.518 191.798 255.03C191.751 254.804 191.713 254.625 191.685 254.475C191.667 254.398 191.663 254.318 191.675 254.24Z" fill="#263238"/>
<path d="M191.676 331.029V319.1C191.676 319.1 191.826 316.158 189.344 316.778C186.863 317.399 187.323 322.052 187.323 322.052C187.323 322.052 186.863 340.203 187.944 340.053C189.025 339.902 189.448 338.502 189.448 338.502V331.517L191.676 331.029Z" fill="#94A9DB"/>
<path d="M201.997 331.771C199.872 332.019 197.732 332.1 195.595 332.016C193.458 332.1 191.318 332.019 189.194 331.771C191.319 331.529 193.458 331.448 195.595 331.527C197.732 331.448 199.872 331.529 201.997 331.771Z" fill="#263238"/>
<path d="M225.6 274.281C225.169 274.482 224.723 274.649 224.265 274.779C223.049 275.213 221.862 275.725 220.712 276.311C216.921 278.262 213.633 281.065 211.105 284.499C210.39 285.466 209.761 286.495 209.225 287.572C208.761 288.592 208.384 289.648 208.097 290.731C207.612 292.578 207.297 294.466 207.157 296.371C207.026 297.997 206.998 299.332 206.988 300.244C207.016 300.719 207.016 301.196 206.988 301.672C206.87 301.224 206.807 300.763 206.8 300.3C206.726 299.001 206.726 297.698 206.8 296.399C206.893 294.464 207.18 292.543 207.656 290.665C207.939 289.55 208.32 288.461 208.793 287.413C209.341 286.305 209.985 285.248 210.72 284.254C213.284 280.755 216.666 277.937 220.571 276.048C221.744 275.482 222.961 275.011 224.209 274.638C224.659 274.472 225.125 274.352 225.6 274.281Z" fill="#263238"/>
<path d="M14.9836 373.611L100.477 405.27L172.546 416.287L86.856 374.513L14.9836 373.611Z" fill="#263238"/>
<path d="M51.5684 407.751C50.8817 403.183 49.3313 398.787 47 394.798C46.4964 394.047 46.1038 393.227 45.8344 392.364C45.6999 391.932 45.6733 391.474 45.7569 391.03C45.8405 390.586 46.0317 390.169 46.3138 389.816C47.4136 388.622 49.4158 389.149 50.7694 390.051C53.5092 392.046 55.5278 394.876 56.5222 398.116C57.5018 401.332 58.1321 404.645 58.4022 407.996" fill="#FCD8D0"/>
<path d="M84.8914 399.611H80.6426C79.6 398.578 78.3029 397.838 76.8826 397.468C76.3571 397.379 75.8174 397.435 75.3209 397.629C74.8244 397.822 74.3896 398.147 74.0626 398.568C75.9426 395.437 78.0106 391.988 78.4054 391.048C79.1668 389.215 77.4654 387.842 74.73 387.842C71.9946 387.842 59.8874 404.978 59.8874 404.978C59.8874 404.978 67.4074 391.189 68.1312 389.083C69.9548 383.819 64.1926 383.443 62.1058 385.972C59.5114 389.121 49.0304 404.978 49.0304 404.978C49.0304 404.978 47.0376 408.193 48.41 411.248C49.7824 414.303 53.768 413.128 53.768 413.128C53.827 414.021 54.1183 414.882 54.613 415.628C55.1076 416.373 55.7885 416.976 56.588 417.377C59.6524 419.088 63.6944 417.104 63.6944 417.104L79.3642 420.62L85.0042 420.056C88.8535 419.671 92.464 418.012 95.2634 415.342C98.0628 412.672 99.8909 409.143 100.458 405.317L84.8914 399.611Z" fill="#FCD8D0"/>
<path d="M74.3541 398.323C74.5327 398.436 72.4741 401.707 69.7481 405.636C68.3945 407.601 67.1443 409.396 66.2137 410.618C65.7556 411.328 65.2265 411.99 64.6345 412.592C64.9939 411.827 65.4284 411.1 65.9317 410.421C66.7871 409.114 67.9903 407.319 69.3439 405.354C70.6975 403.39 71.9383 401.594 72.8407 400.354L73.9311 398.859C74.0559 398.668 74.1974 398.489 74.3541 398.323Z" fill="#DBBFB9"/>
<path d="M73.4141 415.77C73.7964 414.875 74.2622 414.019 74.8053 413.213C75.7453 411.671 77.0425 409.575 78.4901 407.244C79.2139 406.088 79.9095 404.978 80.4735 403.954C80.7201 403.516 80.8778 403.035 80.9375 402.536C80.9972 402.038 80.9577 401.532 80.8213 401.049C80.5448 400.139 80.0912 399.292 79.4865 398.558C79.4865 398.558 79.7403 398.69 80.0881 399.066C80.5784 399.605 80.9414 400.248 81.1503 400.946C81.325 401.471 81.391 402.025 81.3441 402.577C81.2972 403.128 81.1385 403.663 80.8777 404.151C80.3137 405.213 79.6275 406.332 78.9131 407.498C77.4561 409.829 76.0931 411.897 75.0967 413.391C74.5928 414.223 74.0305 415.018 73.4141 415.77Z" fill="#DBBFB9"/>
<path d="M81.6389 417.33C81.7964 416.482 82.0783 415.661 82.4755 414.895L83.5941 412.339C84.06 411.321 84.4435 410.268 84.7409 409.19C84.8831 408.675 84.9123 408.135 84.8263 407.608C84.7403 407.08 84.5412 406.578 84.2427 406.135C83.9396 405.782 83.5559 405.508 83.1241 405.336C82.7611 405.15 82.3649 405.038 81.9585 405.007C81.365 405.095 80.7938 405.296 80.2759 405.599C80.0797 405.723 79.8634 405.812 79.6367 405.862C79.6367 405.862 79.8153 405.683 80.1819 405.43C80.4092 405.276 80.6446 405.135 80.8869 405.007C81.2164 404.818 81.5812 404.7 81.9585 404.659C82.419 404.669 82.8728 404.772 83.2933 404.96C83.7928 405.141 84.2388 405.445 84.5905 405.843C84.9469 406.334 85.1877 406.9 85.2951 407.497C85.4026 408.094 85.3738 408.708 85.2109 409.293C84.9113 410.407 84.5053 411.49 83.9983 412.527C83.5565 413.467 83.1335 414.322 82.7857 415.036C82.4443 415.821 82.0614 416.586 81.6389 417.33Z" fill="#DBBFB9"/>
<path d="M84.5249 402.534C84.7555 402.554 84.9796 402.621 85.1829 402.732C85.7647 402.977 86.314 403.292 86.8185 403.672C88.5258 404.947 89.7196 406.792 90.1835 408.871C90.6474 410.951 90.3507 413.128 89.3471 415.008C89.0594 415.573 88.7026 416.101 88.2849 416.578C87.9841 416.907 87.7867 417.057 87.7679 417.039C87.7491 417.02 88.3883 416.268 89.0369 414.858C89.9102 413.028 90.145 410.959 89.7036 408.981C89.2623 407.002 88.1703 405.229 86.6023 403.944C85.9365 403.436 85.2429 402.966 84.5249 402.534Z" fill="#DBBFB9"/>
<path d="M56.9829 393.539C55.9397 395.502 54.7554 397.387 53.4391 399.179C52.2641 401.095 50.9476 402.92 49.5005 404.64C50.5382 402.676 51.7195 400.79 53.0349 399C54.2149 397.085 55.5344 395.26 56.9829 393.539Z" fill="#DBBFB9"/>
<path d="M158.409 383.462L148.633 381.253L139.233 372.407C138.089 371.335 136.606 370.697 135.04 370.603L117.961 369.663C116.251 369.557 114.567 370.116 113.261 371.223L101.041 381.563L154.348 407.46L161.661 408.109L158.409 383.462Z" fill="#FCD8D0"/>
<path d="M129.448 378.903C129.448 378.978 128.188 378.752 126.158 378.489C124.127 378.226 121.232 377.991 118.421 379.298C117.113 379.929 115.877 380.701 114.737 381.601C113.656 382.409 112.687 383.161 111.832 383.734C111.161 384.2 110.453 384.612 109.717 384.966C109.455 385.11 109.173 385.214 108.88 385.276C108.88 385.201 109.999 384.684 111.635 383.452C112.452 382.851 113.392 382.071 114.455 381.234C115.612 380.296 116.874 379.495 118.215 378.846C119.59 378.24 121.074 377.92 122.576 377.906C123.789 377.887 125 377.982 126.195 378.188C127.22 378.348 128.075 378.536 128.583 378.677C128.882 378.702 129.174 378.779 129.448 378.903Z" fill="#DBBFB9"/>
<path d="M132.954 388.416C132.954 388.491 132.258 388.181 131.074 388.068C129.583 387.931 128.081 388.14 126.684 388.679C125.277 389.229 123.929 389.918 122.661 390.737C122.144 391.113 121.585 391.428 120.997 391.677C121.426 391.204 121.92 390.792 122.463 390.455C123.708 389.535 125.071 388.786 126.515 388.228C127.98 387.662 129.568 387.49 131.121 387.729C131.785 387.778 132.421 388.017 132.954 388.416Z" fill="#DBBFB9"/>
<path d="M154.94 389.995C154.818 390.07 153.446 388.021 151.632 385.596C149.817 383.17 148.257 381.262 148.36 381.168C149.748 382.387 150.977 383.777 152.017 385.304C153.189 386.736 154.171 388.312 154.94 389.995Z" fill="#DBBFB9"/>
<path d="M128.037 370.631L149.657 350.468C149.878 350.263 150.051 350.012 150.165 349.734C150.279 349.455 150.331 349.154 150.316 348.854C150.302 348.553 150.222 348.259 150.082 347.992C149.943 347.725 149.746 347.492 149.507 347.309C149.124 347.016 148.65 346.865 148.168 346.884C147.685 346.903 147.225 347.09 146.866 347.413L121.486 370.18" fill="#94A9DB"/>
<g opacity="0.3">
<path opacity="0.4" d="M128.037 370.631L149.657 350.468C149.878 350.263 150.051 350.012 150.165 349.734C150.279 349.455 150.331 349.154 150.316 348.854C150.302 348.553 150.222 348.259 150.082 347.992C149.943 347.725 149.746 347.492 149.507 347.309C149.124 347.016 148.65 346.865 148.168 346.884C147.685 346.903 147.225 347.09 146.866 347.413L121.486 370.18" fill="#263238"/>
</g>
<path d="M304.974 176.295C304.635 176.164 291.522 172.723 292.312 185.987C293.101 199.25 306.252 195.716 306.261 195.33C306.271 194.945 304.974 176.295 304.974 176.295Z" fill="#D7A38F"/>
<path d="M301.909 190.555C301.843 190.508 301.684 190.724 301.308 190.931C300.771 191.2 300.15 191.247 299.578 191.063C298.149 190.64 296.833 188.487 296.626 186.099C296.524 184.983 296.665 183.857 297.04 182.8C297.139 182.377 297.34 181.985 297.625 181.657C297.91 181.33 298.271 181.077 298.676 180.92C298.937 180.834 299.221 180.842 299.477 180.943C299.733 181.045 299.945 181.233 300.076 181.475C300.274 181.832 300.208 182.104 300.274 182.123C300.339 182.142 300.546 181.879 300.405 181.343C300.315 181.017 300.112 180.734 299.832 180.544C299.644 180.416 299.432 180.327 299.21 180.282C298.987 180.237 298.758 180.236 298.535 180.281C297.997 180.421 297.505 180.697 297.105 181.082C296.705 181.467 296.411 181.949 296.25 182.48C295.746 183.666 295.545 184.958 295.668 186.24C295.912 188.91 297.435 191.326 299.381 191.768C299.744 191.85 300.121 191.85 300.483 191.767C300.846 191.684 301.186 191.52 301.477 191.288C301.9 190.875 301.956 190.574 301.909 190.555Z" fill="#AC7C6A"/>
<path d="M338.08 128.929C344.82 128.929 351.682 128.929 360.114 133.337C365.434 136.157 368.743 140.509 371.516 145.83C373.728 150.155 374.808 154.971 374.656 159.826C374.411 164.414 374.393 167.619 372.56 171.83" fill="#263238"/>
<path d="M335.383 129.972C340.12 129.634 344.877 130.245 349.375 131.768C353.874 133.291 358.023 135.695 361.581 138.841C365.139 141.987 368.034 145.811 370.097 150.088C372.159 154.366 373.348 159.013 373.594 163.756C374.458 180.365 375.22 198.329 375.041 207.372C374.646 226.792 355.198 229.659 355.198 229.659C355.198 229.659 355.63 235.412 356.138 242.556C356.364 245.969 355.904 249.392 354.784 252.624C353.664 255.856 351.908 258.83 349.619 261.372C347.33 263.913 344.555 265.97 341.457 267.42C338.36 268.87 335.003 269.685 331.585 269.816C328.227 269.944 324.876 269.409 321.725 268.241C318.574 267.074 315.684 265.296 313.22 263.011C310.756 260.725 308.767 257.976 307.367 254.921C305.966 251.866 305.182 248.565 305.058 245.207L302.172 166.942C301.821 157.666 305.094 148.618 311.298 141.714C317.502 134.809 326.15 130.591 335.411 129.953L335.383 129.972Z" fill="#D7A38F"/>
<path d="M320.366 166.71C320.097 166.703 319.895 166.637 319.794 166.495C319.188 165.649 322.82 161.991 323.757 161.471C327.661 159.304 336.607 157.628 341.105 157.644C341.126 157.644 341.148 157.644 341.169 157.645C342.291 157.676 343.138 158.419 343.221 159.491C343.299 160.498 342.299 161.526 341.222 161.522C340.203 161.518 334.722 162.058 333.708 162.181C333.441 162.214 333.174 162.259 332.907 162.293C332.901 162.294 332.896 162.294 332.892 162.295C332.776 162.317 332.661 162.336 332.546 162.359C332.075 162.451 331.606 162.556 331.142 162.675C330.154 162.928 329.183 163.243 328.238 163.618C328.126 163.661 328.016 163.706 327.905 163.752C327.888 163.759 327.804 163.795 327.741 163.821C327.677 163.85 327.582 163.892 327.565 163.9C327.456 163.95 327.348 164.001 327.24 164.052C326.782 164.271 326.333 164.505 325.89 164.751C325.051 165.216 321.774 166.75 320.366 166.71Z" fill="#10202C"/>
<path d="M359.772 163.445C359.124 163.284 358.524 162.69 358.415 162.003C358.259 161.031 358.785 160.228 359.675 160.035C362.443 159.436 365.359 159.513 368.178 160.209C368.893 160.386 369.601 160.602 370.299 160.857C370.507 160.933 370.885 161.155 371.331 161.456C372.663 162.36 374.598 163.988 374.376 164.618C374.201 165.114 372.894 164.984 371.63 164.719C371.397 164.67 371.166 164.616 370.943 164.561C370.231 164.385 369.61 164.194 369.316 164.087C368.924 163.944 368.53 163.811 368.133 163.695C368.038 163.667 367.944 163.64 367.851 163.615C367.836 163.61 367.754 163.589 367.7 163.574C367.645 163.561 367.572 163.543 367.558 163.54C367.463 163.518 367.369 163.497 367.274 163.476C366.467 163.303 365.654 163.186 364.84 163.125C364.457 163.097 364.075 163.081 363.692 163.078C363.602 163.077 363.512 163.079 363.421 163.078C363.415 163.078 363.408 163.079 363.401 163.079C363.187 163.092 362.973 163.098 362.759 163.113C361.951 163.171 361.154 163.29 360.367 163.46C360.173 163.502 359.97 163.494 359.772 163.445Z" fill="#10202C"/>
<path d="M327.664 174.46C327.215 174.424 326.82 173.953 327.19 173.533C328.353 172.219 329.673 171.001 331.278 170.251C332.417 169.72 333.687 169.501 334.925 169.6C336.559 169.731 338.138 170.417 339.288 171.668C339.706 172.125 339.229 172.711 338.743 172.672C338.606 172.661 338.467 172.599 338.348 172.469C338.311 172.429 338.175 172.303 338.178 172.303C338.179 172.303 338.182 172.306 338.19 172.313C338.016 172.159 337.833 172.015 337.644 171.88C337.003 171.425 336.302 171.089 335.527 170.907C335.27 170.846 335.014 170.808 334.762 170.788C332.172 170.58 329.854 172.374 328.203 174.24C328.049 174.414 327.852 174.475 327.664 174.46Z" fill="#10202C"/>
<path d="M360.636 173.456C360.221 173.345 359.924 172.806 360.33 172.429C361.51 171.335 362.827 170.334 364.359 169.796C365.402 169.43 366.516 169.366 367.548 169.643C368.129 169.799 368.684 170.061 369.186 170.439C369.844 170.934 370.467 171.58 370.844 172.322C371.12 172.862 370.56 173.353 370.119 173.235C369.984 173.199 369.861 173.106 369.776 172.939L369.67 172.755L369.547 172.564C369.522 172.528 369.413 172.379 369.415 172.38C369.416 172.38 369.425 172.391 369.446 172.418C368.841 171.634 368.124 171.059 367.206 170.813C367.069 170.776 366.927 170.747 366.782 170.725C364.679 170.414 362.652 171.959 361.199 173.307C361.022 173.471 360.818 173.504 360.636 173.456Z" fill="#10202C"/>
<path d="M355.198 229.659C355.198 229.659 343.26 230.279 330.288 221.979C330.288 221.979 336.163 236.079 355.546 234.519L355.198 229.659Z" fill="#AC7C6A"/>
<path d="M350.159 193.14C350.159 192.971 352.039 192.67 355.01 192.303C355.771 192.228 356.495 192.087 356.627 191.57C356.702 190.783 356.532 189.991 356.138 189.305C355.442 187.425 354.7 185.545 353.929 183.486C350.864 175.195 348.655 168.39 348.994 168.268C349.332 168.145 352.086 174.763 355.141 183.054C355.884 185.094 356.589 187.039 357.256 188.91C357.729 189.831 357.862 190.89 357.632 191.899C357.516 192.167 357.342 192.405 357.123 192.597C356.903 192.789 356.644 192.929 356.363 193.008C355.942 193.113 355.51 193.17 355.076 193.178C352.049 193.337 350.169 193.337 350.159 193.14Z" fill="#263238"/>
<path d="M341.361 195.161C341.85 195.161 341.822 198.376 344.576 200.698C347.33 203.019 350.789 202.69 350.808 203.142C350.808 203.348 350.028 203.771 348.571 203.8C346.671 203.803 344.831 203.138 343.373 201.92C341.976 200.75 341.083 199.087 340.882 197.276C340.769 195.96 341.135 195.142 341.361 195.161Z" fill="#263238"/>
<path d="M302.37 173.024C302.37 173.024 303.216 177.517 303.441 179.538C303.526 180.281 303.441 188.506 305.425 188.938C307.145 189.295 310.557 187.726 312.08 184.323C313.603 180.92 316.498 172.751 316.178 169.038C315.755 163.981 315.52 158.83 316.536 153.848C317.551 148.866 319.929 144.016 323.924 140.876C327.919 137.736 333.7 136.655 338.25 138.93C341.07 140.34 343.147 142.831 345.77 144.57C348.096 146.218 350.945 146.957 353.778 146.648C355.184 146.471 356.512 145.901 357.608 145.003C358.704 144.105 359.524 142.915 359.973 141.572C360.8 138.611 359.277 135.368 356.899 133.403C354.521 131.438 351.466 130.536 348.439 129.934C340.037 128.13 331.296 128.743 323.228 131.702C315.267 134.794 308.188 140.735 304.804 148.565C300.875 157.617 301.326 163.173 302.37 173.005" fill="#263238"/>
<path d="M346.757 174.678C346.663 173.602 346.494 172.534 346.249 171.482C345.496 168.626 343.804 166.107 341.446 164.329C339.833 163.109 337.955 162.285 335.965 161.923C333.68 161.505 331.325 161.703 329.141 162.496C327.965 162.915 326.862 163.515 325.87 164.273C324.81 165.034 323.883 165.965 323.125 167.027C321.495 169.247 320.616 171.929 320.616 174.683C320.616 177.437 321.495 180.12 323.125 182.339C323.888 183.397 324.815 184.327 325.87 185.094C326.862 185.849 327.966 186.445 329.141 186.861C331.324 187.657 333.679 187.858 335.965 187.444C337.957 187.08 339.834 186.253 341.446 185.028C343.806 183.254 345.501 180.738 346.258 177.884C346.498 176.828 346.665 175.757 346.757 174.678C346.771 174.75 346.771 174.823 346.757 174.895V175.524C346.761 175.868 346.733 176.211 346.672 176.549C346.628 177.012 346.546 177.471 346.428 177.921C345.728 180.86 344.039 183.469 341.643 185.31C339.869 186.677 337.778 187.575 335.565 187.92C333.352 188.265 331.088 188.046 328.981 187.284C327.759 186.86 326.611 186.248 325.578 185.47C324.495 184.685 323.543 183.733 322.758 182.65C321.061 180.349 320.145 177.566 320.145 174.707C320.145 171.848 321.061 169.064 322.758 166.764C324.335 164.617 326.509 162.982 329.009 162.064C331.266 161.258 333.696 161.067 336.05 161.509C338.104 161.899 340.036 162.769 341.69 164.047C344.084 165.885 345.773 168.49 346.475 171.426C346.593 171.879 346.675 172.341 346.719 172.808C346.78 173.143 346.808 173.483 346.804 173.823V174.453C346.775 174.613 346.766 174.678 346.757 174.678Z" fill="#263238"/>
<path d="M380.944 174.678C380.845 173.603 380.676 172.536 380.437 171.482C379.681 168.625 377.986 166.105 375.624 164.329C374.012 163.107 372.134 162.283 370.144 161.923C367.862 161.505 365.509 161.703 363.329 162.496C360.922 163.383 358.83 164.958 357.313 167.027C355.677 169.244 354.794 171.927 354.794 174.683C354.794 177.439 355.677 180.122 357.313 182.339C358.073 183.397 358.996 184.327 360.048 185.094C361.043 185.851 362.15 186.447 363.329 186.861C365.508 187.657 367.861 187.858 370.144 187.444C372.135 187.08 374.013 186.253 375.624 185.028C377.984 183.254 379.679 180.738 380.437 177.884C380.676 176.828 380.846 175.757 380.944 174.678C380.948 174.75 380.948 174.823 380.944 174.895C380.944 175.064 380.944 175.271 380.944 175.524C380.948 175.867 380.923 176.21 380.869 176.549C380.821 177.012 380.736 177.471 380.615 177.921C379.923 180.863 378.232 183.474 375.831 185.31C374.177 186.586 372.244 187.453 370.191 187.838C367.834 188.29 365.398 188.099 363.141 187.284C360.637 186.377 358.462 184.74 356.899 182.584C355.196 180.286 354.276 177.501 354.276 174.641C354.276 171.78 355.196 168.996 356.899 166.698C357.682 165.613 358.635 164.661 359.719 163.878C360.754 163.1 361.901 162.485 363.122 162.054C365.381 161.248 367.814 161.057 370.172 161.5C372.226 161.888 374.159 162.758 375.812 164.038C378.211 165.871 379.902 168.478 380.597 171.417C380.718 171.87 380.802 172.332 380.85 172.798C380.904 173.134 380.929 173.474 380.926 173.814C380.926 174.067 380.926 174.274 380.926 174.443C380.937 174.521 380.944 174.6 380.944 174.678Z" fill="#263238"/>
<path d="M354.859 173.268C354.859 173.344 354.38 173.099 353.637 172.855C352.667 172.528 351.642 172.394 350.62 172.46C349.609 172.535 348.621 172.796 347.706 173.231C347.001 173.579 346.606 173.879 346.559 173.814C346.512 173.748 346.841 173.372 347.499 172.93C348.425 172.372 349.472 172.043 350.551 171.971C351.63 171.899 352.711 172.086 353.703 172.516C354.521 172.874 354.897 173.231 354.859 173.268Z" fill="#263238"/>
<path d="M360.152 140.5C360.349 139.494 360.011 138.93 360.584 138.517C361.157 138.103 362.464 139.287 362.896 139.776C363.047 139.936 363.498 139.316 363.677 139.203C363.872 138.8 363.987 138.362 364.015 137.915C363.93 137.21 362.831 136.975 362.314 136.543C361.78 136.074 361.156 135.719 360.481 135.499C360.205 135.363 359.899 135.301 359.593 135.319C359.286 135.337 358.99 135.435 358.732 135.603C358.58 135.783 358.466 135.993 358.398 136.219C358.33 136.446 358.309 136.684 358.337 136.919C358.335 137.389 358.424 137.855 358.601 138.291C358.778 138.73 359.113 139.085 359.541 139.287" fill="#263238"/>
<path d="M301.646 162.703C301.646 162.703 311.168 166.19 316.122 168.296L315.84 163.427L301.994 157.946C301.994 157.946 301.637 161.565 301.646 162.703Z" fill="#F2EEF5"/>
<path d="M302.539 155.136C304.84 155.848 307.092 156.712 309.279 157.721C311.539 158.582 313.737 159.596 315.859 160.757C313.558 160.044 311.306 159.181 309.119 158.172C306.859 157.311 304.661 156.296 302.539 155.136Z" fill="#F2EEF5"/>
<path d="M305.406 257.709L304.673 234.669C304.673 234.669 309.251 255.753 333.23 255.481C356.138 255.218 355.724 236.906 355.724 236.906L356.542 246.194V283.709L341.596 344.912L322.505 347.3L301.411 263.64L305.406 257.709Z" fill="#94A9DB"/>
<path d="M353.591 250.339C353.519 250.512 353.428 250.676 353.318 250.828C353.031 251.291 352.717 251.737 352.378 252.163C351.172 253.749 349.733 255.143 348.11 256.299C345.702 258.023 343.001 259.296 340.139 260.059C336.633 260.999 332.978 261.252 329.376 260.801C325.789 260.307 322.3 259.257 319.036 257.69C316.387 256.422 313.868 254.898 311.516 253.14C309.925 251.973 308.4 250.717 306.948 249.38C306.431 248.91 306.055 248.515 305.792 248.252C305.651 248.129 305.525 247.99 305.416 247.839C305.575 247.938 305.723 248.055 305.857 248.186L307.079 249.239C308.132 250.179 309.693 251.429 311.723 252.886C314.087 254.59 316.604 256.069 319.243 257.304C322.469 258.826 325.908 259.847 329.442 260.331C332.979 260.775 336.567 260.542 340.017 259.645C342.836 258.913 345.508 257.698 347.913 256.054C349.528 254.938 350.98 253.603 352.228 252.087C353.13 250.959 353.553 250.311 353.591 250.339Z" fill="#263238"/>
<path d="M336.952 447.043L336.605 338.285L305.716 258.94L304.682 235.055L285.882 249.286C285.882 249.286 258.5 343.54 258.039 340.288C257.579 337.035 258.039 447.043 258.039 447.043H336.952Z" fill="#F2EEF5"/>
<path d="M336.21 446.743C336.078 446.743 335.965 422.237 335.965 392.006C335.965 361.776 336.078 337.27 336.21 337.27C336.341 337.27 336.454 361.776 336.454 392.006C336.454 422.237 336.341 446.743 336.21 446.743Z" fill="#263238"/>
<path d="M338.644 391.33L269.451 371.044L267.157 318.489L286.136 249.249C286.136 249.249 240.903 271.818 237.82 286.2C234.737 300.582 227.32 335.475 226.54 360.714C225.835 383.274 225.732 398.314 230.883 405.561C245.641 426.185 342.874 429.87 381.715 405.561" fill="#F2EEF5"/>
<path d="M333.23 333.632C333.23 333.632 333.145 333.557 333.004 333.379C332.863 333.2 332.638 332.927 332.384 332.608L330.034 329.6C327.985 326.949 325.061 323.151 321.461 318.47L293.327 281.65L291.212 278.83L291.137 278.736V278.624C292.34 273.811 293.515 269.139 294.634 264.683L294.859 264.984H286.098H285.873V264.759C285.873 259.119 285.873 253.855 285.873 249.23V249.136L285.948 249.079L299.55 238.739L303.31 235.919L304.25 235.196C304.357 235.107 304.473 235.031 304.598 234.97L304.287 235.243L303.347 236.004L299.672 238.88L286.174 249.352L286.249 249.202C286.249 253.826 286.249 259.043 286.249 264.73L286.023 264.514H294.784H295.16L295.085 264.815L291.607 278.755L291.56 278.548L293.684 281.321L321.696 318.235L330.156 329.449C331.096 330.765 331.895 331.79 332.431 332.514C332.675 332.852 332.863 333.125 333.014 333.322L333.23 333.632Z" fill="#263238"/>
<path d="M364.071 245.15C358.554 235.506 355.687 236.502 355.687 236.502L355.978 239.943V247.171L353.355 278.191L336.595 345.58L336.943 447.043H400.308L408.195 323.189L407.481 269.825L364.071 245.15Z" fill="#F2EEF5"/>
<path d="M407.49 269.825C407.49 269.825 423.893 281.932 425.35 301.419C426.506 317.239 429.11 360.563 429.627 369.992C430.379 384.674 418.939 419.069 389.16 409.331C371.3 403.484 305.331 381.065 305.331 381.065L309.721 353.043L388.023 357.743L389.583 292.432L407.49 269.825Z" fill="#F2EEF5"/>
<path d="M308.79 356.268C308.79 356.268 286.625 353.871 281.53 355.111C276.595 356.305 269.573 362.34 269.573 362.34L269.677 371.091L305.331 381.065L308.79 356.268Z" fill="#D7A38F"/>
<path d="M336.604 335.447C336.629 335.343 336.663 335.242 336.708 335.146C336.783 334.93 336.896 334.638 337.037 334.281C337.347 333.491 337.798 332.401 338.362 330.972L343.325 318.827L350.733 300.836C351.438 299.153 352.133 297.395 353.008 295.675C353.882 293.955 354.831 292.235 355.828 290.515C357.988 287.007 360.335 283.618 362.859 280.363C364.137 278.718 365.425 277.11 366.76 275.569V275.822L363.996 268.801L363.902 268.566L364.137 268.481L375.671 264.58L375.549 264.9C370.191 255.951 365.669 248.393 362.455 243.035C360.875 240.384 359.522 238.26 358.084 237.395C357.542 237.068 356.952 236.83 356.335 236.69C356.116 236.649 355.9 236.596 355.687 236.53C355.907 236.545 356.127 236.573 356.345 236.615C356.983 236.73 357.597 236.956 358.159 237.282C359.031 237.849 359.784 238.58 360.377 239.435C361.207 240.545 361.976 241.7 362.68 242.894L375.934 264.683L376.075 264.918L375.812 265.003L364.278 268.96L364.419 268.65L367.192 275.672L367.249 275.804L367.145 275.916C365.829 277.439 364.541 279.047 363.272 280.692C360.758 283.924 358.418 287.288 356.26 290.768C355.254 292.479 354.267 294.162 353.44 295.882C352.613 297.602 351.879 299.313 351.174 301.005C348.354 307.754 345.798 313.836 343.654 318.959C341.511 324.082 339.763 328.162 338.55 331.038C337.949 332.439 337.469 333.538 337.14 334.319C336.98 334.676 336.858 334.948 336.755 335.165C336.718 335.265 336.667 335.36 336.604 335.447Z" fill="#263238"/>
<path d="M416.486 403.879C416.406 403.985 416.315 404.083 416.213 404.17L415.367 404.988C414.254 406.006 413.049 406.919 411.767 407.714C409.724 408.957 407.506 409.889 405.187 410.477C402.115 411.238 398.931 411.442 395.787 411.079C393.954 410.865 392.144 410.481 390.382 409.932C388.502 409.349 386.697 408.626 384.742 407.949C380.879 406.539 376.724 405.129 372.362 403.55C363.62 400.485 353.985 397.214 343.833 393.877C323.529 387.212 305.011 381.591 291.588 377.577L275.683 372.877L271.359 371.59L270.241 371.251C270.111 371.216 269.985 371.169 269.865 371.11L270.26 371.195L271.388 371.496L275.74 372.689C279.5 373.742 284.961 375.293 291.72 377.248C305.162 381.168 323.68 386.742 344.012 393.416C354.173 396.744 363.808 399.996 372.541 403.117C376.903 404.668 381.048 406.144 384.911 407.563C386.848 408.259 388.671 408.992 390.551 409.575C392.288 410.126 394.072 410.513 395.881 410.731C398.995 411.113 402.153 410.938 405.206 410.214C407.516 409.648 409.732 408.752 411.786 407.554C413.068 406.777 414.281 405.893 415.414 404.913L416.289 404.132C416.348 404.043 416.414 403.958 416.486 403.879Z" fill="#263238"/>
<path d="M269.639 371.251C269.639 371.355 268.389 371.082 266.405 371.167C265.246 371.214 264.097 371.404 262.984 371.731C261.625 372.138 260.328 372.73 259.13 373.488C256.965 374.917 255.134 376.796 253.762 378.997C252.719 380.689 252.258 381.817 252.174 381.817C252.224 381.528 252.313 381.246 252.437 380.98C252.721 380.232 253.067 379.509 253.471 378.818C254.788 376.503 256.638 374.534 258.867 373.075C260.105 372.293 261.451 371.694 262.862 371.298C264.014 370.986 265.202 370.825 266.396 370.819C267.197 370.808 267.997 370.88 268.784 371.035C269.077 371.067 269.365 371.14 269.639 371.251Z" fill="#263238"/>
<path d="M247.84 364.389C247.84 364.389 247.84 364.295 247.925 364.135C248.037 363.911 248.183 363.705 248.357 363.524C249.029 362.867 249.891 362.439 250.82 362.302C252.165 362.081 253.536 362.081 254.881 362.302C256.526 362.519 258.143 362.913 259.703 363.477C262.557 364.48 265.163 366.083 267.345 368.177C267.996 368.818 268.59 369.513 269.122 370.255C269.328 370.518 269.502 370.805 269.639 371.11C269.554 371.176 268.784 369.973 267.11 368.431C264.904 366.458 262.329 364.94 259.534 363.966C258.009 363.42 256.435 363.02 254.834 362.772C253.531 362.537 252.2 362.499 250.886 362.66C250.011 362.76 249.185 363.113 248.508 363.675C248.038 364.079 247.878 364.408 247.84 364.389Z" fill="#263238"/>
<path d="M273.672 304.06C273.519 303.599 273.411 303.123 273.352 302.641C273.211 302.189 273.014 301.654 272.797 301.033C272.581 300.413 272.205 299.736 271.773 299.022C270.761 297.339 269.58 295.764 268.248 294.322C266.599 292.57 264.79 290.978 262.843 289.565C259.309 286.982 255.29 285.137 251.027 284.141C249.73 283.867 248.413 283.697 247.088 283.634C246.6 283.637 246.113 283.599 245.631 283.521C246.117 283.452 246.608 283.427 247.098 283.446C248.438 283.431 249.776 283.551 251.093 283.803C255.441 284.71 259.545 286.54 263.125 289.17C265.103 290.593 266.93 292.215 268.577 294.011C269.917 295.488 271.09 297.108 272.074 298.843C272.497 299.586 272.769 300.309 273.014 300.92C273.258 301.531 273.39 302.124 273.502 302.584C273.596 303.071 273.652 303.565 273.672 304.06Z" fill="#263238"/>
<path d="M405.037 384.392C405.025 384.28 405.025 384.167 405.037 384.054V383.067C405.037 382.202 404.971 380.933 404.849 379.307C404.508 374.688 403.559 370.133 402.029 365.762C401.568 364.313 400.937 362.925 400.149 361.626C399.269 360.242 397.991 359.157 396.483 358.514C393.334 357.161 389.545 357.339 385.691 357.123L360.462 356.061C339.613 355.121 321.066 354.369 309.41 353.748L309.57 353.617C308.865 357.903 308.301 361.297 307.916 363.656C307.718 364.793 307.568 365.677 307.455 366.307C307.408 366.589 307.361 366.814 307.333 366.993L307.277 367.219C307.268 367.14 307.268 367.062 307.277 366.984L307.371 366.297C307.455 365.668 307.587 364.775 307.747 363.628C308.104 361.268 308.611 357.866 309.26 353.57V353.438H309.401L360.452 355.563L385.682 356.7C387.618 356.794 389.508 356.841 391.322 356.991C393.13 357.092 394.909 357.492 396.586 358.176C398.165 358.839 399.508 359.962 400.44 361.4C401.235 362.729 401.867 364.149 402.32 365.63C403.83 370.03 404.728 374.616 404.99 379.26C405.093 380.896 405.093 382.174 405.084 383.02C405.084 383.434 405.084 383.763 405.084 384.007C405.046 384.27 405.037 384.392 405.037 384.392Z" fill="#263238"/>
<path d="M390.1 323.086C390.232 323.086 390.345 330.671 390.345 340.006C390.345 349.34 390.232 356.926 390.1 356.926C389.969 356.926 389.856 349.34 389.856 340.006C389.856 330.671 389.969 323.086 390.1 323.086Z" fill="#263238"/>
<path d="M238.365 284.48C238.365 284.48 238.309 284.696 238.177 285.1C238.046 285.504 237.811 286.115 237.613 286.98C237.153 288.606 236.57 291.032 235.921 294.199C234.615 300.535 233.007 309.803 231.221 321.403C230.328 327.212 229.341 333.623 228.401 340.494C227.922 343.944 227.621 347.535 227.377 351.257C227.132 354.98 226.935 358.777 226.784 362.763C226.502 370.668 226.333 379.016 226.559 387.711C226.634 389.882 226.709 392.082 226.888 394.291C226.944 395.4 227.132 396.49 227.264 397.59C227.465 398.689 227.731 399.775 228.063 400.842C228.732 402.999 229.789 405.016 231.184 406.793C232.582 408.599 234.42 410.017 236.523 410.91C240.998 413.105 245.664 414.886 250.463 416.23C255.323 417.687 260.342 418.862 265.437 419.906C276.523 422.194 287.778 423.565 299.089 424.004C304.448 424.142 309.81 424.004 315.154 423.59C320.39 423.224 325.494 422.65 330.429 421.945C339.734 420.627 348.906 418.494 357.839 415.572C365.488 413.046 372.904 409.864 380.004 406.059V406.37L349.68 395.588L341.493 392.664L339.378 391.894C338.898 391.715 338.663 391.612 338.663 391.612L339.387 391.847L341.521 392.57L349.736 395.39L380.192 406.012L380.559 406.135L380.221 406.323C373.107 410.157 365.676 413.368 358.008 415.92C349.057 418.869 339.862 421.024 330.532 422.359C325.588 423.102 320.474 423.656 315.229 424.023C309.869 424.442 304.492 424.587 299.117 424.455C287.778 424.022 276.494 422.652 265.381 420.357C260.267 419.304 255.238 418.129 250.341 416.672C245.514 415.309 240.82 413.513 236.316 411.305C234.125 410.384 232.209 408.914 230.751 407.037C229.326 405.212 228.246 403.141 227.565 400.927C227.224 399.842 226.951 398.737 226.747 397.618C226.606 396.49 226.427 395.381 226.371 394.272C226.192 392.053 226.117 389.844 226.051 387.692C225.826 378.969 226.051 370.621 226.314 362.707C226.465 358.759 226.669 354.92 226.925 351.192C227.179 347.432 227.489 343.86 227.978 340.41C228.918 333.501 229.915 327.118 230.798 321.318C232.678 309.719 234.314 300.46 235.677 294.134C236.354 290.966 236.955 288.541 237.444 286.914C237.651 286.097 237.914 285.495 238.046 285.091C238.177 284.687 238.365 284.48 238.365 284.48Z" fill="#263238"/>
<path d="M273.982 316.28C274.002 316.467 274.002 316.657 273.982 316.844C273.982 317.267 273.925 317.784 273.878 318.442C273.766 319.899 273.615 321.892 273.418 324.317C273.004 329.337 272.478 336.152 271.829 343.69L270.306 363.073C270.128 365.498 269.978 367.491 269.865 368.948L269.724 370.537C269.712 370.723 269.687 370.909 269.648 371.091C269.621 370.908 269.621 370.721 269.648 370.537C269.648 370.114 269.649 369.597 269.696 368.929C269.743 367.538 269.846 365.527 269.977 363.045C270.269 358.082 270.739 351.22 271.359 343.653C271.98 336.086 272.6 329.243 273.098 324.289C273.352 321.864 273.559 319.88 273.709 318.423C273.794 317.775 273.86 317.248 273.907 316.835C273.907 316.647 273.932 316.461 273.982 316.28Z" fill="#263238"/>
<path d="M302.501 293.137C302.749 296.443 302.831 299.759 302.746 303.073C302.831 306.387 302.749 309.703 302.501 313.009C302.37 313.009 302.257 308.553 302.257 303.073C302.257 297.593 302.37 293.137 302.501 293.137Z" fill="#263238"/>
<path d="M294.963 326.141C295.16 328.062 295.9 329.888 297.096 331.405C298.187 332.824 300.396 334.225 302.172 334.102C303.511 334.171 304.844 333.89 306.042 333.289C307.24 332.688 308.261 331.786 309.006 330.671C311.168 327.231 311.704 320.059 309.946 315.819C308.752 312.905 306.073 310.179 302.924 310.114C298.788 310.02 296.194 313.009 295.31 316.036" fill="#E2DEE5"/>
<path d="M295.329 316.036C295.466 315.32 295.723 314.634 296.091 314.005C296.5 313.25 297.023 312.562 297.642 311.965C298.47 311.171 299.475 310.585 300.574 310.255C301.212 310.059 301.873 309.952 302.539 309.935C303.268 309.895 303.998 309.991 304.692 310.217C306.205 310.752 307.536 311.708 308.527 312.971C309.645 314.335 310.422 315.947 310.792 317.671C311.182 319.502 311.321 321.377 311.206 323.245C311.018 326.188 310.435 329.12 308.809 331.358C308 332.409 306.922 333.221 305.688 333.708C304.566 334.157 303.361 334.359 302.154 334.3C301.272 334.308 300.403 334.094 299.625 333.679C298.941 333.322 298.308 332.873 297.745 332.345C296.86 331.463 296.157 330.415 295.677 329.261C295.355 328.533 295.134 327.765 295.019 326.977C294.987 326.772 294.968 326.565 294.963 326.357C294.95 326.285 294.95 326.212 294.963 326.141C295.154 327.183 295.469 328.2 295.903 329.167C296.405 330.272 297.113 331.271 297.989 332.11C298.557 332.607 299.189 333.024 299.869 333.35C300.595 333.725 301.402 333.916 302.219 333.905C303.41 333.964 304.598 333.739 305.685 333.249C306.772 332.759 307.727 332.017 308.47 331.085C309.984 328.989 310.567 326.103 310.745 323.227C310.952 319.467 310.322 315.763 308.207 313.263C307.261 312.064 305.998 311.155 304.56 310.64C303.909 310.425 303.225 310.326 302.539 310.349C301.903 310.355 301.271 310.447 300.659 310.621C299.608 310.924 298.643 311.468 297.839 312.21C297.224 312.772 296.695 313.421 296.269 314.137C295.92 314.752 295.607 315.386 295.329 316.036Z" fill="#263238"/>
<path d="M292.763 326.329C292.961 328.25 293.701 330.075 294.897 331.593C295.978 333.012 298.196 334.413 299.973 334.29C301.311 334.358 302.644 334.077 303.842 333.476C305.04 332.874 306.061 331.973 306.807 330.859C308.969 327.41 309.504 320.247 307.747 316.007C306.553 313.084 303.874 310.367 300.725 310.302C298.975 310.287 297.272 310.862 295.891 311.935C294.509 313.008 293.53 314.516 293.111 316.214" fill="#E2DEE5"/>
<path d="M293.13 316.214C293.267 315.502 293.525 314.819 293.891 314.193C294.3 313.438 294.823 312.75 295.442 312.153C296.76 310.883 298.509 310.158 300.34 310.123C301.068 310.084 301.798 310.18 302.492 310.405C304.006 310.94 305.336 311.896 306.327 313.159C307.446 314.522 308.22 316.134 308.583 317.859C308.981 319.689 309.124 321.565 309.006 323.433C308.818 326.376 308.236 329.299 306.609 331.546C305.801 332.597 304.722 333.409 303.488 333.896C302.367 334.345 301.161 334.547 299.954 334.488C299.072 334.493 298.202 334.276 297.426 333.858C296.74 333.507 296.107 333.061 295.546 332.533C294.655 331.651 293.952 330.6 293.478 329.44C293.156 328.715 292.934 327.95 292.82 327.165C292.82 326.893 292.763 326.686 292.754 326.545C292.744 326.473 292.744 326.4 292.754 326.329C292.946 327.368 293.261 328.381 293.694 329.346C294.19 330.457 294.899 331.46 295.781 332.298C296.348 332.795 296.98 333.212 297.661 333.538C298.388 333.909 299.194 334.099 300.011 334.093C301.2 334.151 302.386 333.925 303.471 333.435C304.556 332.945 305.509 332.204 306.252 331.273C307.775 329.167 308.358 326.291 308.536 323.415C308.743 319.655 308.113 315.951 305.998 313.451C305.068 312.242 303.813 311.322 302.379 310.8C301.731 310.584 301.05 310.486 300.368 310.508C298.623 310.535 296.95 311.205 295.668 312.388C295.053 312.951 294.524 313.6 294.098 314.315C293.736 314.927 293.412 315.562 293.13 316.214Z" fill="#263238"/>
<path d="M296.758 315.161C295.715 315.029 294.657 315.241 293.746 315.766C292.835 316.29 292.12 317.098 291.71 318.066C290.93 320.038 290.93 322.233 291.71 324.204C292.033 325.225 292.568 326.167 293.28 326.968C294.005 327.774 295.018 328.264 296.1 328.331C296.883 328.287 297.645 328.055 298.32 327.656C298.996 327.257 299.566 326.702 299.982 326.037C300.71 325.002 301.205 323.822 301.433 322.577C301.662 321.333 301.619 320.054 301.308 318.827C300.875 317.192 299.672 315.528 297.989 315.481" fill="#E2DEE5"/>
<path d="M297.98 315.481C297.98 315.481 298.112 315.481 298.356 315.481C298.718 315.522 299.068 315.641 299.381 315.829C299.935 316.198 300.41 316.674 300.778 317.23C301.146 317.785 301.399 318.408 301.524 319.062C301.982 320.991 301.777 323.018 300.941 324.815C300.472 325.893 299.75 326.841 298.835 327.579C298.344 328.003 297.758 328.303 297.127 328.455C296.496 328.607 295.838 328.606 295.207 328.453C293.976 328.061 292.94 327.214 292.312 326.084C291.735 325.073 291.329 323.975 291.109 322.832C290.874 321.877 290.836 320.885 290.997 319.915C291.159 318.945 291.517 318.019 292.049 317.192C292.43 316.646 292.915 316.18 293.476 315.822C294.037 315.464 294.664 315.22 295.32 315.105C295.678 315.052 296.042 315.052 296.401 315.105C296.636 315.152 296.758 315.19 296.758 315.208C296.29 315.192 295.821 315.22 295.357 315.293C294.118 315.58 293.036 316.33 292.331 317.389C291.844 318.188 291.524 319.077 291.389 320.002C291.255 320.928 291.31 321.871 291.55 322.775C291.77 323.864 292.167 324.909 292.725 325.868C293.293 326.888 294.227 327.655 295.339 328.011C295.896 328.147 296.477 328.148 297.035 328.014C297.592 327.88 298.11 327.615 298.544 327.24C299.397 326.546 300.079 325.665 300.537 324.665C301.35 322.956 301.578 321.027 301.185 319.175C300.987 317.923 300.314 316.795 299.305 316.026C298.901 315.764 298.452 315.579 297.98 315.481Z" fill="#263238"/>
<path d="M301.496 330.615C301.42 330.615 301.317 330.314 300.997 329.938C300.567 329.454 300.01 329.1 299.39 328.914C298.747 328.729 298.084 328.625 297.416 328.603C296.899 328.603 296.561 328.519 296.561 328.453C296.561 328.387 296.88 328.312 297.416 328.256C298.13 328.179 298.851 328.243 299.54 328.444C300.258 328.65 300.877 329.111 301.279 329.741C301.571 330.23 301.552 330.606 301.496 330.615Z" fill="#263238"/>
<path d="M302.238 313.883C302.238 313.883 302.088 314.212 301.656 314.56C301.074 315.004 300.394 315.301 299.672 315.425C298.953 315.556 298.212 315.517 297.51 315.312C296.984 315.133 296.702 314.926 296.73 314.87C297.663 315.016 298.611 315.041 299.55 314.945C300.486 314.703 301.389 314.347 302.238 313.883Z" fill="#263238"/>
<path d="M366.826 246.551C366.826 246.551 366.938 246.551 367.136 246.664C367.423 246.792 367.702 246.936 367.972 247.096C368.98 247.666 369.925 248.34 370.792 249.108C373.683 251.654 375.784 254.974 376.846 258.677C377.958 262.313 378.729 266.046 379.149 269.825C379.318 271.273 379.403 272.448 379.459 273.256C379.507 273.678 379.507 274.104 379.459 274.525C379.354 274.115 379.284 273.697 379.253 273.275C379.13 272.382 378.971 271.235 378.792 269.872C378.272 266.129 377.458 262.433 376.357 258.818C375.312 255.198 373.304 251.93 370.548 249.361C369.378 248.334 368.134 247.394 366.826 246.551Z" fill="#263238"/>
<path d="M355.113 350.017C357.839 349.913 360.02 347.197 362.746 347.347C363.24 347.389 363.72 347.528 364.161 347.755C364.601 347.983 364.992 348.295 365.311 348.674C365.631 349.053 365.872 349.491 366.023 349.963C366.173 350.436 366.228 350.933 366.186 351.427C366.144 351.92 366.006 352.401 365.778 352.841C365.55 353.281 365.238 353.672 364.859 353.992C364.48 354.311 364.042 354.553 363.57 354.703C363.098 354.853 362.601 354.909 362.107 354.867C359.24 354.538 357.567 351.182 354.765 350.543" fill="#263238"/>
<path d="M378.219 352.338C377.365 352.337 376.513 352.268 375.671 352.132L375.822 351.192C379.187 351.727 382.016 351.192 384.225 349.547C387.045 347.507 388.803 343.85 389.555 338.68V338.483C389.865 336.434 390.288 296.23 390.288 288.597C390.288 276.668 379.826 275.042 379.375 274.976C378.924 274.911 369.439 273.313 364.391 286.332C359.108 299.971 350.658 326.253 350.103 329.337C350.028 329.713 349.925 330.183 349.812 330.718C348.928 334.666 347.105 342.873 352.575 347.591C358.676 352.865 363.489 350.825 363.686 350.74L364.072 351.596C363.846 351.69 358.544 353.993 351.964 348.306C346.061 343.211 347.969 334.638 348.891 330.512C349.013 329.985 349.107 329.572 349.173 329.167C349.737 326.065 358.215 299.67 363.517 285.993C368.819 272.316 379.422 274.027 379.497 274.055C379.572 274.083 391.191 275.841 391.191 288.597C391.191 294.886 390.777 336.443 390.448 338.624V338.812C389.658 344.245 387.741 348.108 384.742 350.308C382.844 351.672 380.555 352.384 378.219 352.338Z" fill="#263238"/>
<path d="M390.786 296.296C390.37 294.641 389.711 293.057 388.831 291.596C387.831 290.053 386.575 288.693 385.118 287.572C383.324 286.218 381.264 285.257 379.074 284.752C375.05 283.867 370.844 284.416 367.183 286.303C365.687 287.121 364.295 288.115 363.037 289.264C363.097 289.161 363.169 289.067 363.254 288.982C363.468 288.714 363.704 288.462 363.959 288.23C364.872 287.354 365.9 286.605 367.014 286.003C370.727 283.97 375.053 283.355 379.187 284.273C381.444 284.806 383.56 285.819 385.391 287.243C386.889 288.404 388.163 289.828 389.151 291.445C389.812 292.529 390.3 293.708 390.598 294.942C390.687 295.276 390.753 295.615 390.796 295.957C390.796 296.164 390.805 296.296 390.786 296.296Z" fill="#263238"/>
<path d="M414.728 371.439C414.381 370.078 413.948 368.741 413.431 367.435C412.095 364.319 409.88 361.66 407.058 359.783C405.478 358.817 403.719 358.178 401.888 357.903C400.377 357.668 398.855 357.511 397.329 357.433L394.236 357.217C393.856 357.207 393.478 357.156 393.108 357.067C393.486 357.021 393.868 357.021 394.246 357.067L397.348 357.123C398.889 357.157 400.427 357.283 401.954 357.499C403.854 357.747 405.681 358.387 407.321 359.379C410.226 361.302 412.471 364.072 413.751 367.313C414.142 368.279 414.432 369.284 414.615 370.311C414.703 370.681 414.741 371.06 414.728 371.439Z" fill="#263238"/>
<path d="M367.305 355.76C367.305 355.76 376.555 341.763 378.914 339.93C381.273 338.097 401.474 328.979 403.815 330.446C406.155 331.912 404.755 335.089 404.755 335.089C404.755 335.089 413.29 332.1 414.202 333.275C414.692 333.982 414.955 334.821 414.955 335.682C414.955 336.542 414.692 337.381 414.202 338.088C414.202 338.088 418.902 337.364 418.902 338.821C418.883 339.8 418.624 340.758 418.149 341.614C417.674 342.469 416.996 343.195 416.176 343.728C413.995 345.364 399.81 354.801 398.673 357.414L394.076 357.132L367.305 355.76Z" fill="#D7A38F"/>
<path d="M393.907 351.746C394.011 351.435 394.153 351.139 394.33 350.863C394.78 350.097 395.289 349.368 395.853 348.682C397.743 346.428 400.011 344.519 402.555 343.042C405.086 341.561 407.74 340.303 410.489 339.282C411.532 338.878 412.369 338.577 412.98 338.342C413.281 338.217 413.597 338.129 413.92 338.079C413.65 338.265 413.356 338.414 413.045 338.52L410.611 339.564C407.927 340.662 405.32 341.94 402.809 343.39C400.31 344.847 398.053 346.683 396.116 348.832C394.65 350.571 393.992 351.793 393.907 351.746Z" fill="#AC7C6A"/>
<path d="M382.185 351.521C382.295 351.162 382.446 350.819 382.637 350.496C382.956 349.847 383.417 348.917 384.056 347.789C384.793 346.463 385.646 345.205 386.603 344.029C387.172 343.313 387.821 342.667 388.54 342.102C389.32 341.575 390.138 341.087 390.993 340.579C393.884 338.856 396.9 337.354 400.017 336.086C400.962 335.712 401.929 335.398 402.912 335.146C403.274 335.041 403.646 334.975 404.022 334.948C404.022 335.033 402.489 335.39 400.149 336.443C397.09 337.798 394.115 339.333 391.238 341.04C390.392 341.538 389.574 342.036 388.812 342.534C388.12 343.067 387.49 343.676 386.932 344.348C385.969 345.497 385.101 346.724 384.338 348.014L382.778 350.628C382.613 350.946 382.414 351.245 382.185 351.521Z" fill="#AC7C6A"/>
<path d="M435.254 446.74C435.254 446.88 345.588 447 235.012 447C124.437 447 34.7466 446.93 34.7466 446.74C34.7466 446.55 124.394 446.48 235.012 446.48C345.631 446.48 435.254 446.6 435.254 446.74Z" fill="#263238"/>
</svg>
