<svg width="619" height="1317" viewBox="0 0 619 1317" fill="none" xmlns="http://www.w3.org/2000/svg">
<path d="M515.364 1C549.492 14.1924 617.748 58.1287 617.748 128.335C617.748 216.093 533.432 265.995 509.341 268.576C485.251 271.157 369.961 264.274 366.519 186.841C363.078 109.407 466.323 65.528 509.341 119.732C552.36 173.935 554.081 224.697 493.855 284.063C433.628 343.429 278.761 300.41 226.278 410.538M226.278 410.538C173.796 520.666 267.037 658.788 362.913 625.386C468.571 588.576 313.385 438.281 226.278 410.538ZM226.278 410.538C99.5872 384.13 -4.30184 355.474 1.72076 494.854C7.74337 634.235 282.203 837.283 264.135 1016.24C246.067 1195.2 150.565 1254.56 0 1316.51" stroke="#FF6F47"/>
</svg>
