<svg width="1920" height="580" viewBox="0 0 1920 580" fill="none" xmlns="http://www.w3.org/2000/svg">
<path fill-rule="evenodd" clip-rule="evenodd" d="M1695.09 272.828C1621.32 379.355 1536.61 474.695 1405.76 474.695C1263.07 474.695 1181.23 435.604 1089.86 391.958C1077.61 386.103 1065.17 380.165 1052.4 374.229C944.484 324.069 811.988 273.901 552.069 273.901C237.058 273.901 48.349 438.587 4.78703 568.85C33.984 509.034 98.0498 447.656 188.835 400.358C284.939 350.29 411.051 315.963 557.637 315.963C817.793 315.963 950.186 361.555 1057.96 407.155C1070.71 412.549 1083.11 417.942 1095.33 423.258C1186.41 462.865 1267.74 498.229 1410.09 498.229C1540.16 498.229 1615.36 421.5 1684.13 333.401C1694.65 319.935 1705.01 306.199 1715.4 292.432C1738.97 261.194 1762.66 229.799 1788.45 201.043C1825.64 159.595 1867.86 123.221 1920 100.879V102.59C1868.14 124.814 1826.68 160.687 1789.57 202.048C1763.81 230.754 1740.19 262.065 1716.64 293.278C1706.24 307.058 1695.86 320.818 1685.31 334.327C1616.5 422.486 1540.9 499.732 1410.09 499.732C1267.42 499.732 1185.83 464.252 1094.73 424.633C1082.51 419.318 1070.11 413.928 1057.38 408.539C949.763 363.006 817.567 317.465 557.637 317.465C411.282 317.465 285.408 351.739 189.526 401.691C97.9527 449.399 33.7958 511.376 5.2237 571.396C80.6894 461.363 279.62 359.527 565.936 359.527C826.083 359.527 956.397 401.61 1062.09 443.703C1074.6 448.681 1086.75 453.659 1098.73 458.566C1188.01 495.126 1267.73 527.773 1410.09 527.773C1540.21 527.773 1623.45 459.861 1696.1 383.045C1711.16 367.118 1725.79 350.788 1740.28 334.602C1760.71 311.797 1780.87 289.279 1801.65 268.58C1837.2 233.156 1876.1 202.13 1920 184.55V185.761C1876.37 203.232 1838.19 234.28 1802.7 269.646C1781.94 290.335 1761.84 312.778 1741.45 335.542C1726.96 351.73 1712.32 368.08 1697.19 384.079C1624.45 460.987 1540.84 529.275 1410.09 529.275C1267.43 529.275 1187.46 496.527 1098.16 459.955C1086.18 455.048 1074.03 450.073 1061.54 445.099C956.002 403.069 825.875 361.029 565.936 361.029C273.125 361.029 72.2302 467.642 1.35534 580L0 579.398C36.5759 446.791 227.691 272.399 552.069 272.399C812.237 272.399 944.947 322.629 1053.03 372.866C1065.82 378.808 1078.26 384.749 1090.52 390.605C1181.87 434.239 1263.42 473.193 1405.76 473.193C1535.78 473.193 1620.08 378.505 1693.86 271.971C1708.82 250.375 1723.35 228.28 1737.74 206.4C1758.8 174.379 1779.55 142.818 1800.9 113.955C1836.84 65.346 1876.08 23.1151 1920 0V2.01729C1876.39 24.9696 1838.01 66.2853 1802.1 114.85C1780.77 143.697 1760.06 175.179 1739.03 207.16C1724.64 229.044 1710.09 251.161 1695.09 272.828Z" fill="#FFFFFF"/>
</svg>
