<svg width="42" height="43" viewBox="0 0 42 43" fill="none" xmlns="http://www.w3.org/2000/svg">
<path d="M38.9687 3.82111H3.0313C1.35721 3.82111 0 5.17831 0 6.8524V12.3889H42V6.8524C42 5.17831 40.6429 3.82111 38.9687 3.82111ZM5.25697 9.41169C4.53009 9.41169 3.94078 8.82238 3.94078 8.0955C3.94078 7.36863 4.53001 6.77931 5.25697 6.77931C5.98385 6.77931 6.57316 7.36863 6.57316 8.0955C6.57316 8.82238 5.98385 9.41169 5.25697 9.41169ZM10.6087 9.41169C9.88181 9.41169 9.2925 8.82238 9.2925 8.0955C9.2925 7.36863 9.88173 6.77931 10.6087 6.77931C11.3356 6.77931 11.9249 7.36863 11.9249 8.0955C11.9249 8.82238 11.3356 9.41169 10.6087 9.41169ZM16.203 9.41169C15.4761 9.41169 14.8868 8.82238 14.8868 8.0955C14.8868 7.36863 15.4761 6.77931 16.203 6.77931C16.9299 6.77931 17.5192 7.36863 17.5192 8.0955C17.5192 8.82238 16.9299 9.41169 16.203 9.41169Z" fill="#275E76"/>
<path d="M0 15.0039V36.1479C0 37.822 1.35721 39.1792 3.0313 39.1792H38.9687C40.6429 39.1792 42 37.822 42 36.1479V15.0039H0ZM13.8423 24.7657L12.1308 29.7448C11.952 30.2651 11.4667 30.6177 10.9168 30.6272C10.9093 30.6272 10.9016 30.6273 10.8941 30.6273C10.3532 30.6273 9.86705 30.2938 9.67313 29.7872L9.05469 28.1712L8.51378 29.7448C8.33495 30.2651 7.84973 30.6177 7.2998 30.6272C7.29225 30.6272 7.28462 30.6273 7.27707 30.6273C6.73616 30.6273 6.24996 30.2938 6.05612 29.7872L4.15054 24.808C3.89246 24.1337 4.22994 23.3777 4.90432 23.1196C5.57862 22.8611 6.3347 23.1989 6.59277 23.8734L7.2112 25.4894L7.75212 23.9157C8.01954 22.9677 9.64852 22.5637 10.2098 23.8734L10.8282 25.4894L11.3691 23.9157C11.6039 23.2329 12.3478 22.8698 13.0307 23.1042C13.7137 23.3389 14.0771 24.0829 13.8423 24.7657ZM25.8535 24.7657L24.142 29.7448C23.9632 30.2651 23.478 30.6177 22.9281 30.6272C22.9205 30.6272 22.9129 30.6273 22.9053 30.6273C22.3644 30.6273 21.8782 30.2938 21.6844 29.7872L21.066 28.1712L20.525 29.7448C20.3462 30.2651 19.861 30.6177 19.3111 30.6272C19.3035 30.6272 19.2959 30.6273 19.2883 30.6273C18.7474 30.6273 18.2612 30.2938 18.0674 29.7872L16.1618 24.808C15.9037 24.1337 16.2412 23.3777 16.9156 23.1196C17.59 22.8611 18.346 23.1989 18.604 23.8734L19.2225 25.4894L19.7634 23.9157C20.063 22.9027 21.7361 22.6589 22.221 23.8734L22.8395 25.4894L23.3804 23.9157C23.6152 23.2329 24.3589 22.8698 25.0419 23.1042C25.725 23.3389 26.0883 24.0829 25.8535 24.7657ZM37.8649 24.7657L36.1534 29.7448C35.9746 30.2651 35.4893 30.6177 34.9394 30.6272C34.9319 30.6272 34.9242 30.6273 34.9167 30.6273C34.3758 30.6273 33.8896 30.2938 33.6957 29.7872L33.0773 28.1712L32.5364 29.7448C32.3576 30.2651 31.8723 30.6177 31.3224 30.6272C31.3149 30.6272 31.3072 30.6273 31.2997 30.6273C30.7588 30.6273 30.2726 30.2938 30.0787 29.7872L28.1731 24.808C27.915 24.1337 28.2525 23.3777 28.9268 23.1196C29.6014 22.8611 30.3573 23.1989 30.6154 23.8734L31.2339 25.4895L31.7748 23.9157C32.0713 22.9416 33.6864 22.5811 34.2325 23.8734L34.8509 25.4894L35.3918 23.9157C35.6266 23.2329 36.3705 22.8698 37.0534 23.1042C37.7363 23.3389 38.0996 24.0829 37.8649 24.7657Z" fill="#275E76"/>
</svg>
