<svg width="266" height="321" viewBox="0 0 266 321" fill="none" xmlns="http://www.w3.org/2000/svg">
<path d="M117.75 2V1.25H117H6C3.37665 1.25 1.25 3.37665 1.25 6V40C1.25 42.6234 3.37664 44.75 6 44.75H117H117.75V44V2Z" fill="white"/>
<path d="M40.4346 22.2646C40.4346 22.8708 40.3913 23.4609 40.3047 24.0352C40.2227 24.6094 40.0791 25.1449 39.874 25.6416C39.6735 26.1383 39.4001 26.5736 39.0537 26.9473C38.7074 27.321 38.2721 27.6149 37.748 27.8291C37.2285 28.0387 36.6064 28.1436 35.8818 28.1436C35.6859 28.1436 35.4626 28.1299 35.2119 28.1025C34.9613 28.0798 34.7562 28.0456 34.5967 28V27.0156C34.7653 27.0749 34.9635 27.1227 35.1914 27.1592C35.4193 27.1911 35.6426 27.207 35.8613 27.207C36.7135 27.207 37.3835 27.0247 37.8711 26.6602C38.3587 26.291 38.7096 25.792 38.9238 25.1631C39.138 24.5296 39.2588 23.8187 39.2861 23.0303H39.2041C39.0674 23.249 38.8874 23.4518 38.6641 23.6387C38.4453 23.821 38.1787 23.9691 37.8643 24.083C37.5498 24.1924 37.1829 24.2471 36.7637 24.2471C36.1849 24.2471 35.679 24.1286 35.2461 23.8916C34.8177 23.6546 34.4827 23.3105 34.2412 22.8594C34.0042 22.4082 33.8857 21.8636 33.8857 21.2256C33.8857 20.5374 34.0156 19.9427 34.2754 19.4414C34.5397 18.9355 34.9089 18.5459 35.3828 18.2725C35.8568 17.999 36.415 17.8623 37.0576 17.8623C37.5498 17.8623 38.001 17.9557 38.4111 18.1426C38.8213 18.3294 39.1768 18.6097 39.4775 18.9834C39.7829 19.3525 40.0176 19.8105 40.1816 20.3574C40.3503 20.9043 40.4346 21.54 40.4346 22.2646ZM37.0576 18.8262C36.4515 18.8262 35.9593 19.0244 35.5811 19.4209C35.2074 19.8174 35.0205 20.4144 35.0205 21.2119C35.0205 21.8727 35.1823 22.3945 35.5059 22.7773C35.8294 23.1602 36.3285 23.3516 37.0029 23.3516C37.4678 23.3516 37.8688 23.2581 38.2061 23.0713C38.5479 22.8844 38.8099 22.6475 38.9922 22.3604C39.179 22.0732 39.2725 21.7793 39.2725 21.4785C39.2725 21.1777 39.2269 20.8724 39.1357 20.5625C39.0492 20.2526 38.9147 19.9678 38.7324 19.708C38.5501 19.4437 38.32 19.2318 38.042 19.0723C37.764 18.9082 37.4359 18.8262 37.0576 18.8262ZM53.9355 20.5078V28H52.9102V23.1191C52.9102 22.9186 52.9147 22.7158 52.9238 22.5107C52.9375 22.3011 52.9535 22.0915 52.9717 21.8818H52.9307L50.4424 28H49.4785L47.0518 21.8818H47.0107C47.0244 22.0915 47.0335 22.3011 47.0381 22.5107C47.0472 22.7158 47.0518 22.9323 47.0518 23.1602V28H46.0195V20.5078H47.5439L49.9639 26.6328L52.418 20.5078H53.9355ZM59.0967 20.3848C59.9899 20.3848 60.653 20.5853 61.0859 20.9863C61.5189 21.3874 61.7354 22.0277 61.7354 22.9072V28H60.9082L60.6895 26.8926H60.6348C60.4251 27.166 60.2064 27.3962 59.9785 27.583C59.7507 27.7653 59.4863 27.9043 59.1855 28C58.8893 28.0911 58.5247 28.1367 58.0918 28.1367C57.6361 28.1367 57.2305 28.057 56.875 27.8975C56.5241 27.738 56.2461 27.4964 56.041 27.1729C55.8405 26.8493 55.7402 26.4391 55.7402 25.9424C55.7402 25.195 56.0365 24.6208 56.6289 24.2197C57.2214 23.8187 58.1237 23.5999 59.3359 23.5635L60.6279 23.5088V23.0508C60.6279 22.4036 60.4889 21.9502 60.2109 21.6904C59.9329 21.4307 59.541 21.3008 59.0352 21.3008C58.6432 21.3008 58.2695 21.3577 57.9141 21.4717C57.5586 21.5856 57.2214 21.7201 56.9023 21.875L56.5537 21.0137C56.891 20.8405 57.2783 20.6924 57.7158 20.5693C58.1533 20.4463 58.6136 20.3848 59.0967 20.3848ZM60.6143 24.3086L59.4727 24.3564C58.5384 24.3929 57.8799 24.5456 57.4971 24.8145C57.1143 25.0833 56.9229 25.4639 56.9229 25.9561C56.9229 26.3844 57.0527 26.7012 57.3125 26.9062C57.5723 27.1113 57.9163 27.2139 58.3447 27.2139C59.0101 27.2139 59.5547 27.0293 59.9785 26.6602C60.4023 26.291 60.6143 25.7373 60.6143 24.999V24.3086ZM67.5938 20.3711C68.528 20.3711 69.2731 20.6924 69.8291 21.335C70.3851 21.9775 70.6631 22.9437 70.6631 24.2334C70.6631 25.0856 70.5355 25.8011 70.2803 26.3799C70.0251 26.9587 69.665 27.3962 69.2002 27.6924C68.7399 27.9886 68.1953 28.1367 67.5664 28.1367C67.1699 28.1367 66.8213 28.0843 66.5205 27.9795C66.2197 27.8747 65.9622 27.7334 65.748 27.5557C65.5339 27.3779 65.3561 27.1842 65.2148 26.9746H65.1328C65.1465 27.1523 65.1624 27.3665 65.1807 27.6172C65.2035 27.8678 65.2148 28.0866 65.2148 28.2734V31.3496H64.0732V20.5078H65.0098L65.1602 21.6152H65.2148C65.3607 21.3874 65.5384 21.18 65.748 20.9932C65.9577 20.8018 66.2129 20.6514 66.5137 20.542C66.819 20.4281 67.179 20.3711 67.5938 20.3711ZM67.3955 21.3281C66.876 21.3281 66.4567 21.4284 66.1377 21.6289C65.8232 21.8294 65.5931 22.1302 65.4473 22.5312C65.3014 22.9277 65.224 23.4268 65.2148 24.0283V24.2471C65.2148 24.8805 65.2832 25.416 65.4199 25.8535C65.5612 26.291 65.7913 26.6237 66.1104 26.8516C66.4339 27.0794 66.8669 27.1934 67.4092 27.1934C67.874 27.1934 68.2614 27.068 68.5713 26.8174C68.8812 26.5667 69.1113 26.2181 69.2617 25.7715C69.4167 25.3203 69.4941 24.8031 69.4941 24.2197C69.4941 23.3356 69.321 22.6338 68.9746 22.1143C68.6328 21.5902 68.1064 21.3281 67.3955 21.3281ZM77.752 21.4717H75.2842V28H74.1631V21.4717H71.7295V20.5078H77.752V21.4717ZM82.0381 20.3848C82.9313 20.3848 83.5944 20.5853 84.0273 20.9863C84.4603 21.3874 84.6768 22.0277 84.6768 22.9072V28H83.8496L83.6309 26.8926H83.5762C83.3665 27.166 83.1478 27.3962 82.9199 27.583C82.6921 27.7653 82.4277 27.9043 82.127 28C81.8307 28.0911 81.4661 28.1367 81.0332 28.1367C80.5775 28.1367 80.1719 28.057 79.8164 27.8975C79.4655 27.738 79.1875 27.4964 78.9824 27.1729C78.7819 26.8493 78.6816 26.4391 78.6816 25.9424C78.6816 25.195 78.9779 24.6208 79.5703 24.2197C80.1628 23.8187 81.0651 23.5999 82.2773 23.5635L83.5693 23.5088V23.0508C83.5693 22.4036 83.4303 21.9502 83.1523 21.6904C82.8743 21.4307 82.4824 21.3008 81.9766 21.3008C81.5846 21.3008 81.2109 21.3577 80.8555 21.4717C80.5 21.5856 80.1628 21.7201 79.8438 21.875L79.4951 21.0137C79.8324 20.8405 80.2197 20.6924 80.6572 20.5693C81.0947 20.4463 81.555 20.3848 82.0381 20.3848ZM83.5557 24.3086L82.4141 24.3564C81.4798 24.3929 80.8213 24.5456 80.4385 24.8145C80.0557 25.0833 79.8643 25.4639 79.8643 25.9561C79.8643 26.3844 79.9941 26.7012 80.2539 26.9062C80.5137 27.1113 80.8577 27.2139 81.2861 27.2139C81.9515 27.2139 82.4961 27.0293 82.9199 26.6602C83.3438 26.291 83.5557 25.7373 83.5557 24.999V24.3086Z" fill="#11112D"/>
<path d="M117.75 2V1.25H117H6C3.37665 1.25 1.25 3.37665 1.25 6V40C1.25 42.6234 3.37664 44.75 6 44.75H117H117.75V44V2Z" stroke="#275E76" stroke-width="1.5"/>
<path d="M117 1.25H116.25V2V44V44.75H117H181C183.623 44.75 185.75 42.6234 185.75 40V6C185.75 3.37665 183.623 1.25 181 1.25H117Z" fill="white"/>
<path d="M140.308 22.9893C140.308 24.7165 140.034 26.0062 139.487 26.8584C138.945 27.7106 138.113 28.1367 136.992 28.1367C135.917 28.1367 135.099 27.7015 134.538 26.8311C133.978 25.9561 133.697 24.6755 133.697 22.9893C133.697 21.2484 133.968 19.9564 134.511 19.1133C135.053 18.2702 135.88 17.8486 136.992 17.8486C138.077 17.8486 138.899 18.2884 139.46 19.168C140.025 20.0475 140.308 21.3213 140.308 22.9893ZM134.846 22.9893C134.846 24.443 135.017 25.5026 135.358 26.168C135.7 26.8288 136.245 27.1592 136.992 27.1592C137.749 27.1592 138.296 26.8242 138.633 26.1543C138.975 25.4798 139.146 24.4248 139.146 22.9893C139.146 21.5537 138.975 20.5033 138.633 19.8379C138.296 19.168 137.749 18.833 136.992 18.833C136.245 18.833 135.7 19.1634 135.358 19.8242C135.017 20.4805 134.846 21.5355 134.846 22.9893ZM148.265 22.2715C148.265 26.1816 146.752 28.1367 143.726 28.1367C143.197 28.1367 142.778 28.0911 142.468 28V27.0225C142.832 27.141 143.247 27.2002 143.712 27.2002C144.806 27.2002 145.631 26.863 146.187 26.1885C146.747 25.5094 147.052 24.4704 147.103 23.0713H147.021C146.77 23.4495 146.437 23.7389 146.022 23.9395C145.608 24.1354 145.141 24.2334 144.621 24.2334C143.737 24.2334 143.035 23.9691 142.516 23.4404C141.996 22.9118 141.736 22.1735 141.736 21.2256C141.736 20.1865 142.026 19.3662 142.604 18.7646C143.188 18.1631 143.953 17.8623 144.901 17.8623C145.58 17.8623 146.173 18.0378 146.679 18.3887C147.189 18.735 147.581 19.2432 147.854 19.9131C148.128 20.5785 148.265 21.3646 148.265 22.2715ZM144.901 18.833C144.25 18.833 143.746 19.0426 143.391 19.4619C143.035 19.8812 142.857 20.4645 142.857 21.2119C142.857 21.8682 143.021 22.3854 143.35 22.7637C143.678 23.1374 144.177 23.3242 144.847 23.3242C145.261 23.3242 145.642 23.2399 145.988 23.0713C146.339 22.9027 146.615 22.6725 146.815 22.3809C147.016 22.0892 147.116 21.7839 147.116 21.4648C147.116 20.9863 147.023 20.5443 146.836 20.1387C146.649 19.7331 146.387 19.4141 146.05 19.1816C145.717 18.9492 145.334 18.833 144.901 18.833ZM150.062 27.2754C150.062 26.9701 150.131 26.7399 150.268 26.585C150.409 26.4255 150.609 26.3457 150.869 26.3457C151.133 26.3457 151.339 26.4255 151.484 26.585C151.635 26.7399 151.71 26.9701 151.71 27.2754C151.71 27.5716 151.635 27.7995 151.484 27.959C151.334 28.1185 151.129 28.1982 150.869 28.1982C150.637 28.1982 150.443 28.1276 150.288 27.9863C150.138 27.8405 150.062 27.6035 150.062 27.2754ZM150.062 21.2393C150.062 20.624 150.331 20.3164 150.869 20.3164C151.43 20.3164 151.71 20.624 151.71 21.2393C151.71 21.5355 151.635 21.7633 151.484 21.9229C151.334 22.0824 151.129 22.1621 150.869 22.1621C150.637 22.1621 150.443 22.0915 150.288 21.9502C150.138 21.8044 150.062 21.5674 150.062 21.2393ZM160.48 25.7031H158.997V28H157.91V25.7031H153.05V24.7119L157.794 17.9512H158.997V24.6709H160.48V25.7031ZM157.91 24.6709V21.3486C157.91 20.6969 157.933 19.9609 157.979 19.1406H157.924C157.705 19.5781 157.5 19.9404 157.309 20.2275L154.185 24.6709H157.91ZM168.021 22.2715C168.021 26.1816 166.507 28.1367 163.481 28.1367C162.953 28.1367 162.534 28.0911 162.224 28V27.0225C162.588 27.141 163.003 27.2002 163.468 27.2002C164.562 27.2002 165.386 26.863 165.942 26.1885C166.503 25.5094 166.808 24.4704 166.858 23.0713H166.776C166.526 23.4495 166.193 23.7389 165.778 23.9395C165.364 24.1354 164.896 24.2334 164.377 24.2334C163.493 24.2334 162.791 23.9691 162.271 23.4404C161.752 22.9118 161.492 22.1735 161.492 21.2256C161.492 20.1865 161.782 19.3662 162.36 18.7646C162.944 18.1631 163.709 17.8623 164.657 17.8623C165.336 17.8623 165.929 18.0378 166.435 18.3887C166.945 18.735 167.337 19.2432 167.61 19.9131C167.884 20.5785 168.021 21.3646 168.021 22.2715ZM164.657 18.833C164.006 18.833 163.502 19.0426 163.146 19.4619C162.791 19.8812 162.613 20.4645 162.613 21.2119C162.613 21.8682 162.777 22.3854 163.105 22.7637C163.434 23.1374 163.933 23.3242 164.603 23.3242C165.017 23.3242 165.398 23.2399 165.744 23.0713C166.095 22.9027 166.371 22.6725 166.571 22.3809C166.772 22.0892 166.872 21.7839 166.872 21.4648C166.872 20.9863 166.779 20.5443 166.592 20.1387C166.405 19.7331 166.143 19.4141 165.806 19.1816C165.473 18.9492 165.09 18.833 164.657 18.833Z" fill="#11112D"/>
<path d="M117 1.25H116.25V2V44V44.75H117H181C183.623 44.75 185.75 42.6234 185.75 40V6C185.75 3.37665 183.623 1.25 181 1.25H117Z" stroke="#275E76" stroke-width="1.5"/>
<rect width="264" height="272" transform="translate(2 49)" fill="white"/>
<path d="M27.8813 85L25.3032 76.5991H25.2373C25.2471 76.7993 25.2617 77.1021 25.2812 77.5073C25.3057 77.9077 25.3276 78.335 25.3472 78.7891C25.3667 79.2432 25.3765 79.6533 25.3765 80.0195V85H23.3477V74.292H26.4385L28.9727 82.4805H29.0166L31.7046 74.292H34.7954V85H32.6787V79.9316C32.6787 79.5947 32.6836 79.2065 32.6934 78.7671C32.708 78.3276 32.7251 77.9102 32.7446 77.5146C32.7642 77.1143 32.7788 76.814 32.7886 76.6138H32.7227L29.9614 85H27.8813ZM40.6768 76.6431C41.7754 76.6431 42.6177 76.8823 43.2036 77.3608C43.7896 77.8394 44.0825 78.5669 44.0825 79.5435V85H42.5225L42.0903 83.8867H42.0317C41.7974 84.1797 41.5581 84.4189 41.314 84.6045C41.0698 84.79 40.7891 84.9268 40.4717 85.0146C40.1543 85.1025 39.7686 85.1465 39.3145 85.1465C38.8311 85.1465 38.3965 85.0537 38.0107 84.8682C37.6299 84.6826 37.3296 84.3994 37.1099 84.0186C36.8901 83.6328 36.7803 83.1445 36.7803 82.5537C36.7803 81.6846 37.0854 81.0449 37.6958 80.6348C38.3062 80.2197 39.2217 79.9902 40.4424 79.9463L41.8633 79.9023V79.5435C41.8633 79.1138 41.751 78.7988 41.5264 78.5986C41.3018 78.3984 40.9893 78.2983 40.5889 78.2983C40.1934 78.2983 39.8052 78.3545 39.4243 78.4668C39.0435 78.5791 38.6626 78.7207 38.2817 78.8916L37.542 77.3828C37.9766 77.1533 38.4624 76.9727 38.9995 76.8408C39.5415 76.709 40.1006 76.6431 40.6768 76.6431ZM41.8633 81.2061L40.999 81.2354C40.2764 81.2549 39.7734 81.3843 39.4902 81.6235C39.2119 81.8628 39.0728 82.1777 39.0728 82.5684C39.0728 82.9102 39.1729 83.1543 39.373 83.3008C39.5732 83.4424 39.8345 83.5132 40.1567 83.5132C40.6353 83.5132 41.0381 83.3716 41.3652 83.0884C41.6973 82.8052 41.8633 82.4023 41.8633 81.8799V81.2061ZM50.9453 76.6577C51.8682 76.6577 52.6128 77.0166 53.1792 77.7344C53.7505 78.4521 54.0361 79.5044 54.0361 80.8911C54.0361 81.8188 53.9019 82.6001 53.6333 83.2349C53.3647 83.8647 52.9937 84.3408 52.52 84.6631C52.0464 84.9854 51.502 85.1465 50.8867 85.1465C50.4912 85.1465 50.1519 85.0977 49.8687 85C49.5854 84.8975 49.3438 84.7681 49.1436 84.6118C48.9434 84.4507 48.77 84.2798 48.6235 84.0991H48.5063C48.5454 84.2944 48.5747 84.4946 48.5942 84.6997C48.6138 84.9048 48.6235 85.105 48.6235 85.3003V88.6035H46.3896V76.8115H48.2061L48.521 77.8735H48.6235C48.77 77.6538 48.9482 77.4512 49.1582 77.2656C49.3682 77.0801 49.6196 76.9336 49.9126 76.8262C50.2104 76.7139 50.5547 76.6577 50.9453 76.6577ZM50.2275 78.4448C49.8369 78.4448 49.5269 78.5254 49.2974 78.6865C49.0679 78.8477 48.8994 79.0894 48.792 79.4116C48.6895 79.7339 48.6333 80.1416 48.6235 80.6348V80.8765C48.6235 81.4038 48.6724 81.8506 48.77 82.2168C48.8726 82.583 49.041 82.8613 49.2754 83.0518C49.5146 83.2422 49.8418 83.3374 50.2568 83.3374C50.5986 83.3374 50.8794 83.2422 51.0991 83.0518C51.3188 82.8613 51.4824 82.583 51.5898 82.2168C51.7021 81.8457 51.7583 81.394 51.7583 80.8618C51.7583 80.061 51.6338 79.458 51.3848 79.0527C51.1357 78.6475 50.75 78.4448 50.2275 78.4448ZM62.6567 78.4888H59.9761V85H57.7422V78.4888H55.0542V76.8115H62.6567V78.4888ZM74.998 85H67.5127V83.4253L70.2007 80.708C70.7427 80.1514 71.1772 79.6875 71.5044 79.3164C71.8364 78.9404 72.0757 78.5986 72.2222 78.291C72.3735 77.9834 72.4492 77.6538 72.4492 77.3022C72.4492 76.8774 72.3296 76.5601 72.0903 76.3501C71.856 76.1353 71.541 76.0278 71.1455 76.0278C70.7305 76.0278 70.3276 76.123 69.937 76.3135C69.5464 76.5039 69.1387 76.7749 68.7139 77.1265L67.4834 75.6689C67.791 75.4053 68.1157 75.1562 68.4575 74.9219C68.8042 74.6875 69.2046 74.4995 69.6587 74.3579C70.1177 74.2114 70.667 74.1382 71.3066 74.1382C72.0098 74.1382 72.6128 74.2651 73.1157 74.519C73.6235 74.7729 74.0142 75.1196 74.2876 75.5591C74.561 75.9937 74.6978 76.4868 74.6978 77.0386C74.6978 77.6294 74.5806 78.1689 74.3462 78.6572C74.1118 79.1455 73.77 79.6289 73.3208 80.1074C72.8765 80.5859 72.3394 81.1157 71.7095 81.6968L70.3325 82.9932V83.0957H74.998V85ZM83.5234 79.646C83.5234 80.5103 83.4551 81.2817 83.3184 81.9604C83.1865 82.6392 82.9717 83.2153 82.6738 83.689C82.3809 84.1626 81.9951 84.5239 81.5166 84.7729C81.0381 85.022 80.457 85.1465 79.7734 85.1465C78.9141 85.1465 78.2085 84.9292 77.6567 84.4946C77.105 84.0552 76.6973 83.4253 76.4336 82.605C76.1699 81.7798 76.0381 80.7935 76.0381 79.646C76.0381 78.4888 76.1577 77.5 76.397 76.6797C76.6411 75.8545 77.0366 75.2222 77.5835 74.7827C78.1304 74.3433 78.8604 74.1235 79.7734 74.1235C80.6279 74.1235 81.3311 74.3433 81.8828 74.7827C82.4395 75.2173 82.8521 75.8472 83.1206 76.6724C83.3892 77.4927 83.5234 78.4839 83.5234 79.646ZM78.2866 79.646C78.2866 80.4614 78.3306 81.1426 78.4185 81.6895C78.5112 82.2314 78.665 82.6392 78.8799 82.9126C79.0947 83.186 79.3926 83.3228 79.7734 83.3228C80.1494 83.3228 80.4448 83.1885 80.6597 82.9199C80.8794 82.6465 81.0356 82.2388 81.1284 81.6968C81.2212 81.1499 81.2676 80.4663 81.2676 79.646C81.2676 78.8306 81.2212 78.1494 81.1284 77.6025C81.0356 77.0557 80.8794 76.6455 80.6597 76.3721C80.4448 76.0938 80.1494 75.9546 79.7734 75.9546C79.3926 75.9546 79.0947 76.0938 78.8799 76.3721C78.665 76.6455 78.5112 77.0557 78.4185 77.6025C78.3306 78.1494 78.2866 78.8306 78.2866 79.646ZM92.166 85H84.6807V83.4253L87.3687 80.708C87.9106 80.1514 88.3452 79.6875 88.6724 79.3164C89.0044 78.9404 89.2437 78.5986 89.3901 78.291C89.5415 77.9834 89.6172 77.6538 89.6172 77.3022C89.6172 76.8774 89.4976 76.5601 89.2583 76.3501C89.0239 76.1353 88.709 76.0278 88.3135 76.0278C87.8984 76.0278 87.4956 76.123 87.105 76.3135C86.7144 76.5039 86.3066 76.7749 85.8818 77.1265L84.6514 75.6689C84.959 75.4053 85.2837 75.1562 85.6255 74.9219C85.9722 74.6875 86.3726 74.4995 86.8267 74.3579C87.2856 74.2114 87.835 74.1382 88.4746 74.1382C89.1777 74.1382 89.7808 74.2651 90.2837 74.519C90.7915 74.7729 91.1821 75.1196 91.4556 75.5591C91.729 75.9937 91.8657 76.4868 91.8657 77.0386C91.8657 77.6294 91.7485 78.1689 91.5142 78.6572C91.2798 79.1455 90.938 79.6289 90.4888 80.1074C90.0444 80.5859 89.5073 81.1157 88.8774 81.6968L87.5005 82.9932V83.0957H92.166V85ZM100.333 76.687C100.333 77.1802 100.23 77.6074 100.025 77.9688C99.8198 78.3301 99.5415 78.6255 99.1899 78.855C98.8433 79.0845 98.4526 79.2529 98.0181 79.3604V79.4043C98.8774 79.5117 99.5293 79.7754 99.9736 80.1953C100.423 80.6152 100.647 81.1768 100.647 81.8799C100.647 82.5049 100.494 83.064 100.186 83.5571C99.8833 84.0503 99.4146 84.4385 98.7798 84.7217C98.145 85.0049 97.3271 85.1465 96.3262 85.1465C95.7354 85.1465 95.1836 85.0977 94.6709 85C94.1631 84.9072 93.6846 84.7632 93.2354 84.5679V82.6416C93.6943 82.876 94.1753 83.0542 94.6782 83.1763C95.1812 83.2935 95.6499 83.3521 96.0845 83.3521C96.895 83.3521 97.4614 83.2129 97.7837 82.9346C98.1108 82.6514 98.2744 82.2559 98.2744 81.748C98.2744 81.4502 98.1987 81.1987 98.0474 80.9937C97.896 80.7886 97.6323 80.6323 97.2563 80.5249C96.8853 80.4175 96.3652 80.3638 95.6963 80.3638H94.8833V78.6279H95.7109C96.3701 78.6279 96.8706 78.5669 97.2124 78.4448C97.5591 78.3179 97.7935 78.147 97.9155 77.9321C98.0425 77.7124 98.106 77.4634 98.106 77.1851C98.106 76.8042 97.9888 76.5063 97.7544 76.2915C97.52 76.0767 97.1294 75.9692 96.5825 75.9692C96.2407 75.9692 95.9282 76.0132 95.645 76.1011C95.3667 76.1841 95.1152 76.2866 94.8906 76.4087C94.666 76.5259 94.4683 76.6406 94.2974 76.7529L93.25 75.1929C93.6699 74.8901 94.1606 74.6387 94.7222 74.4385C95.2886 74.2383 95.9624 74.1382 96.7437 74.1382C97.8472 74.1382 98.7212 74.3604 99.3657 74.8047C100.01 75.249 100.333 75.8765 100.333 76.687Z" fill="#11112D"/>
<path d="M241.663 77.9999L240.249 76.5857L234.091 82.7441L235.505 84.1583L241.663 77.9999Z" fill="#11112D"/>
<path d="M241.663 77.9999L240.249 79.4143L234.091 73.2558L235.505 71.8416L241.663 77.9999Z" fill="#11112D"/>
<path d="M210.091 77.9999L211.505 76.5857L217.663 82.7441L216.249 84.1583L210.091 77.9999Z" fill="#11112D"/>
<path d="M210.091 77.9999L211.505 79.4143L217.663 73.2558L216.249 71.8416L210.091 77.9999Z" fill="#11112D"/>
<path d="M37.4023 130H35.9961V122.635H32.2168V130H30.8164V121.434H37.4023V130ZM40.8945 123.52V126.121H43.9473V123.52H45.3242V130H43.9473V127.205H40.8945V130H39.5176V123.52H40.8945Z" fill="#11112D"/>
<path d="M64.1113 121.434H66.6543C67.834 121.434 68.6855 121.605 69.209 121.949C69.7363 122.293 70 122.836 70 123.578C70 124.078 69.8711 124.494 69.6133 124.826C69.3555 125.158 68.9844 125.367 68.5 125.453V125.512C69.1016 125.625 69.543 125.85 69.8242 126.186C70.1094 126.518 70.252 126.969 70.252 127.539C70.252 128.309 69.9824 128.912 69.4434 129.35C68.9082 129.783 68.1621 130 67.2051 130H64.1113V121.434ZM65.5117 124.973H66.8594C67.4453 124.973 67.873 124.881 68.1426 124.697C68.4121 124.51 68.5469 124.193 68.5469 123.748C68.5469 123.346 68.4004 123.055 68.1074 122.875C67.8184 122.695 67.3574 122.605 66.7246 122.605H65.5117V124.973ZM65.5117 126.109V128.822H67C67.5859 128.822 68.0273 128.711 68.3242 128.488C68.625 128.262 68.7754 127.906 68.7754 127.422C68.7754 126.977 68.623 126.646 68.3184 126.432C68.0137 126.217 67.5508 126.109 66.9297 126.109H65.5117ZM76.7559 123.52V124.598H74.6465V130H73.2637V124.598H71.1543V123.52H76.7559Z" fill="#11112D"/>
<path d="M99.2344 122.512C98.4297 122.512 97.7969 122.797 97.3359 123.367C96.875 123.938 96.6445 124.725 96.6445 125.729C96.6445 126.779 96.8652 127.574 97.3066 128.113C97.752 128.652 98.3945 128.922 99.2344 128.922C99.5977 128.922 99.9492 128.887 100.289 128.816C100.629 128.742 100.982 128.648 101.35 128.535V129.736C100.678 129.99 99.916 130.117 99.0645 130.117C97.8105 130.117 96.8477 129.738 96.1758 128.98C95.5039 128.219 95.168 127.131 95.168 125.717C95.168 124.826 95.3301 124.047 95.6543 123.379C95.9824 122.711 96.4551 122.199 97.0723 121.844C97.6895 121.488 98.4141 121.311 99.2461 121.311C100.121 121.311 100.93 121.494 101.672 121.861L101.168 123.027C100.879 122.891 100.572 122.771 100.248 122.67C99.9277 122.564 99.5898 122.512 99.2344 122.512ZM106.336 130.117C105.516 130.117 104.879 129.822 104.426 129.232H104.344C104.398 129.779 104.426 130.111 104.426 130.229V132.883H103.049V123.52H104.162C104.193 123.641 104.258 123.93 104.355 124.387H104.426C104.855 123.73 105.5 123.402 106.359 123.402C107.168 123.402 107.797 123.695 108.246 124.281C108.699 124.867 108.926 125.689 108.926 126.748C108.926 127.807 108.695 128.633 108.234 129.227C107.777 129.82 107.145 130.117 106.336 130.117ZM106.002 124.527C105.455 124.527 105.055 124.688 104.801 125.008C104.551 125.328 104.426 125.84 104.426 126.543V126.748C104.426 127.537 104.551 128.109 104.801 128.465C105.051 128.816 105.459 128.992 106.025 128.992C106.502 128.992 106.869 128.797 107.127 128.406C107.385 128.016 107.514 127.459 107.514 126.736C107.514 126.01 107.385 125.461 107.127 125.09C106.873 124.715 106.498 124.527 106.002 124.527Z" fill="#11112D"/>
<path d="M134.082 130H132.676V126.578C132.148 126.766 131.678 126.9 131.264 126.982C130.854 127.064 130.439 127.105 130.021 127.105C129.213 127.105 128.588 126.916 128.146 126.537C127.709 126.154 127.49 125.613 127.49 124.914V121.434H128.896V124.586C128.896 125.031 129.006 125.363 129.225 125.582C129.447 125.801 129.811 125.91 130.314 125.91C130.686 125.91 131.047 125.877 131.398 125.811C131.75 125.74 132.176 125.621 132.676 125.453V121.434H134.082V130ZM141.061 123.52V124.598H138.951V130H137.568V124.598H135.459V123.52H141.061Z" fill="#11112D"/>
<path d="M166.234 130H164.828V122.635H161.049V130H159.648V121.434H166.234V130ZM173.219 123.52V124.598H171.109V130H169.727V124.598H167.617V123.52H173.219Z" fill="#11112D"/>
<path d="M195.316 122.512C194.512 122.512 193.879 122.797 193.418 123.367C192.957 123.938 192.727 124.725 192.727 125.729C192.727 126.779 192.947 127.574 193.389 128.113C193.834 128.652 194.477 128.922 195.316 128.922C195.68 128.922 196.031 128.887 196.371 128.816C196.711 128.742 197.064 128.648 197.432 128.535V129.736C196.76 129.99 195.998 130.117 195.146 130.117C193.893 130.117 192.93 129.738 192.258 128.98C191.586 128.219 191.25 127.131 191.25 125.717C191.25 124.826 191.412 124.047 191.736 123.379C192.064 122.711 192.537 122.199 193.154 121.844C193.771 121.488 194.496 121.311 195.328 121.311C196.203 121.311 197.012 121.494 197.754 121.861L197.25 123.027C196.961 122.891 196.654 122.771 196.33 122.67C196.01 122.564 195.672 122.512 195.316 122.512ZM198.756 126.109C198.756 124.664 199 123.553 199.488 122.775C199.98 121.998 200.762 121.498 201.832 121.275C202.641 121.111 203.572 120.951 204.627 120.795L204.82 122.008C203.539 122.203 202.602 122.355 202.008 122.465C201.395 122.578 200.951 122.83 200.678 123.221C200.408 123.611 200.252 124.199 200.209 124.984H200.297C200.52 124.66 200.811 124.41 201.17 124.234C201.529 124.055 201.914 123.965 202.324 123.965C203.121 123.965 203.742 124.217 204.188 124.721C204.633 125.225 204.855 125.932 204.855 126.842C204.855 127.885 204.584 128.691 204.041 129.262C203.502 129.832 202.754 130.117 201.797 130.117C200.848 130.117 200.104 129.766 199.564 129.062C199.025 128.359 198.756 127.375 198.756 126.109ZM201.891 128.992C202.914 128.992 203.426 128.32 203.426 126.977C203.426 125.68 202.963 125.031 202.037 125.031C201.783 125.031 201.537 125.086 201.299 125.195C201.061 125.305 200.84 125.449 200.637 125.629C200.438 125.809 200.283 125.994 200.174 126.186C200.174 127.107 200.32 127.807 200.613 128.283C200.906 128.756 201.332 128.992 201.891 128.992Z" fill="#11112D"/>
<path d="M224.199 121.434H226.742C227.922 121.434 228.773 121.605 229.297 121.949C229.824 122.293 230.088 122.836 230.088 123.578C230.088 124.078 229.959 124.494 229.701 124.826C229.443 125.158 229.072 125.367 228.588 125.453V125.512C229.189 125.625 229.631 125.85 229.912 126.186C230.197 126.518 230.34 126.969 230.34 127.539C230.34 128.309 230.07 128.912 229.531 129.35C228.996 129.783 228.25 130 227.293 130H224.199V121.434ZM225.6 124.973H226.947C227.533 124.973 227.961 124.881 228.23 124.697C228.5 124.51 228.635 124.193 228.635 123.748C228.635 123.346 228.488 123.055 228.195 122.875C227.906 122.695 227.445 122.605 226.812 122.605H225.6V124.973ZM225.6 126.109V128.822H227.088C227.674 128.822 228.115 128.711 228.412 128.488C228.713 128.262 228.863 127.906 228.863 127.422C228.863 126.977 228.711 126.646 228.406 126.432C228.102 126.217 227.639 126.109 227.018 126.109H225.6ZM234.588 130.117C233.607 130.117 232.861 129.832 232.35 129.262C231.842 128.688 231.588 127.865 231.588 126.795C231.588 125.705 231.854 124.867 232.385 124.281C232.92 123.695 233.691 123.402 234.699 123.402C235.383 123.402 235.998 123.529 236.545 123.783L236.129 124.891C235.547 124.664 235.066 124.551 234.688 124.551C233.566 124.551 233.006 125.295 233.006 126.783C233.006 127.51 233.145 128.057 233.422 128.424C233.703 128.787 234.113 128.969 234.652 128.969C235.266 128.969 235.846 128.816 236.393 128.512V129.713C236.146 129.857 235.883 129.961 235.602 130.023C235.324 130.086 234.986 130.117 234.588 130.117Z" fill="#11112D"/>
<path d="M38.7559 162H37.8066V155.895C37.8066 155.387 37.8223 154.906 37.8535 154.453C37.7715 154.535 37.6797 154.621 37.5781 154.711C37.4766 154.801 37.0117 155.182 36.1836 155.854L35.668 155.186L37.9355 153.434H38.7559V162Z" fill="#11112D"/>
<path d="M72.7832 162H67.1523V161.162L69.4082 158.895C70.0957 158.199 70.5488 157.703 70.7676 157.406C70.9863 157.109 71.1504 156.82 71.2598 156.539C71.3691 156.258 71.4238 155.955 71.4238 155.631C71.4238 155.174 71.2852 154.812 71.0078 154.547C70.7305 154.277 70.3457 154.143 69.8535 154.143C69.498 154.143 69.1602 154.201 68.8398 154.318C68.5234 154.436 68.1699 154.648 67.7793 154.957L67.2637 154.295C68.0527 153.639 68.9121 153.311 69.8418 153.311C70.6465 153.311 71.2773 153.518 71.7344 153.932C72.1914 154.342 72.4199 154.895 72.4199 155.59C72.4199 156.133 72.2676 156.67 71.9629 157.201C71.6582 157.732 71.0879 158.404 70.252 159.217L68.377 161.051V161.098H72.7832V162Z" fill="#11112D"/>
<path d="M104.461 155.449C104.461 155.996 104.307 156.443 103.998 156.791C103.693 157.139 103.26 157.371 102.697 157.488V157.535C103.385 157.621 103.895 157.84 104.227 158.191C104.559 158.543 104.725 159.004 104.725 159.574C104.725 160.391 104.441 161.02 103.875 161.461C103.309 161.898 102.504 162.117 101.461 162.117C101.008 162.117 100.592 162.082 100.213 162.012C99.8379 161.945 99.4727 161.826 99.1172 161.654V160.729C99.4883 160.912 99.8828 161.053 100.301 161.15C100.723 161.244 101.121 161.291 101.496 161.291C102.977 161.291 103.717 160.711 103.717 159.551C103.717 158.512 102.9 157.992 101.268 157.992H100.424V157.154H101.279C101.947 157.154 102.477 157.008 102.867 156.715C103.258 156.418 103.453 156.008 103.453 155.484C103.453 155.066 103.309 154.738 103.02 154.5C102.734 154.262 102.346 154.143 101.854 154.143C101.479 154.143 101.125 154.193 100.793 154.295C100.461 154.396 100.082 154.584 99.6562 154.857L99.1641 154.201C99.5156 153.924 99.9199 153.707 100.377 153.551C100.838 153.391 101.322 153.311 101.83 153.311C102.662 153.311 103.309 153.502 103.77 153.885C104.23 154.264 104.461 154.785 104.461 155.449Z" fill="#11112D"/>
<path d="M137.188 160.031H135.916V162H134.984V160.031H130.818V159.182L134.885 153.387H135.916V159.146H137.188V160.031ZM134.984 159.146V156.299C134.984 155.74 135.004 155.109 135.043 154.406H134.996C134.809 154.781 134.633 155.092 134.469 155.338L131.791 159.146H134.984Z" fill="#11112D"/>
<path d="M165.83 156.768C166.732 156.768 167.441 156.992 167.957 157.441C168.477 157.887 168.736 158.498 168.736 159.275C168.736 160.162 168.453 160.857 167.887 161.361C167.324 161.865 166.547 162.117 165.555 162.117C164.59 162.117 163.854 161.963 163.346 161.654V160.717C163.619 160.893 163.959 161.031 164.365 161.133C164.771 161.23 165.172 161.279 165.566 161.279C166.254 161.279 166.787 161.117 167.166 160.793C167.549 160.469 167.74 160 167.74 159.387C167.74 158.191 167.008 157.594 165.543 157.594C165.172 157.594 164.676 157.65 164.055 157.764L163.551 157.441L163.873 153.434H168.133V154.33H164.705L164.488 156.902C164.938 156.812 165.385 156.768 165.83 156.768Z" fill="#11112D"/>
<path d="M195.252 158.338C195.252 156.654 195.578 155.396 196.23 154.564C196.887 153.729 197.855 153.311 199.137 153.311C199.578 153.311 199.926 153.348 200.18 153.422V154.26C199.879 154.162 199.535 154.113 199.148 154.113C198.23 154.113 197.529 154.4 197.045 154.975C196.561 155.545 196.295 156.443 196.248 157.67H196.318C196.748 156.998 197.428 156.662 198.357 156.662C199.127 156.662 199.732 156.895 200.174 157.359C200.619 157.824 200.842 158.455 200.842 159.252C200.842 160.143 200.598 160.844 200.109 161.355C199.625 161.863 198.969 162.117 198.141 162.117C197.254 162.117 196.551 161.785 196.031 161.121C195.512 160.453 195.252 159.525 195.252 158.338ZM198.129 161.291C198.684 161.291 199.113 161.117 199.418 160.77C199.727 160.418 199.881 159.912 199.881 159.252C199.881 158.686 199.738 158.24 199.453 157.916C199.168 157.592 198.742 157.43 198.176 157.43C197.824 157.43 197.502 157.502 197.209 157.646C196.916 157.791 196.682 157.99 196.506 158.244C196.334 158.498 196.248 158.762 196.248 159.035C196.248 159.438 196.326 159.812 196.482 160.16C196.639 160.508 196.859 160.783 197.145 160.986C197.434 161.189 197.762 161.291 198.129 161.291Z" fill="#11112D"/>
<path d="M228.236 162L231.787 154.33H227.117V153.434H232.818V154.213L229.314 162H228.236Z" fill="#11112D"/>
<path d="M37.9883 185.311C38.7695 185.311 39.3887 185.492 39.8457 185.855C40.3027 186.219 40.5312 186.721 40.5312 187.361C40.5312 187.783 40.4004 188.168 40.1387 188.516C39.877 188.863 39.459 189.18 38.8848 189.465C39.5801 189.797 40.0742 190.146 40.3672 190.514C40.6602 190.877 40.8066 191.299 40.8066 191.779C40.8066 192.49 40.5586 193.059 40.0625 193.484C39.5664 193.906 38.8867 194.117 38.0234 194.117C37.1094 194.117 36.4062 193.918 35.9141 193.52C35.4219 193.117 35.1758 192.549 35.1758 191.814C35.1758 190.834 35.7734 190.07 36.9688 189.523C36.4297 189.219 36.043 188.891 35.8086 188.539C35.5742 188.184 35.457 187.787 35.457 187.35C35.457 186.729 35.6855 186.234 36.1426 185.867C36.6035 185.496 37.2188 185.311 37.9883 185.311ZM36.1367 191.838C36.1367 192.307 36.2988 192.672 36.623 192.934C36.9512 193.195 37.4102 193.326 38 193.326C38.582 193.326 39.0352 193.189 39.3594 192.916C39.6836 192.643 39.8457 192.268 39.8457 191.791C39.8457 191.412 39.6934 191.076 39.3887 190.783C39.084 190.486 38.5527 190.199 37.7949 189.922C37.2129 190.172 36.791 190.449 36.5293 190.754C36.2676 191.055 36.1367 191.416 36.1367 191.838ZM37.9766 186.102C37.4883 186.102 37.1055 186.219 36.8281 186.453C36.5508 186.688 36.4121 187 36.4121 187.391C36.4121 187.75 36.5273 188.059 36.7578 188.316C36.9883 188.574 37.4141 188.832 38.0352 189.09C38.5938 188.855 38.9883 188.604 39.2188 188.334C39.4531 188.064 39.5703 187.75 39.5703 187.391C39.5703 186.996 39.4277 186.684 39.1426 186.453C38.8613 186.219 38.4727 186.102 37.9766 186.102Z" fill="#11112D"/>
<rect x="54" y="173" width="32" height="32" rx="16" fill="#275E76"/>
<path d="M71.2656 189.432C70.7891 189.936 70.2324 190.188 69.5957 190.188C68.8457 190.188 68.248 189.926 67.8027 189.402C67.3574 188.875 67.1348 188.184 67.1348 187.328C67.1348 186.766 67.248 186.256 67.4746 185.799C67.7012 185.342 68.0234 184.986 68.4414 184.732C68.8594 184.479 69.3438 184.352 69.8945 184.352C70.7539 184.352 71.4355 184.672 71.9395 185.312C72.4434 185.953 72.6953 186.811 72.6953 187.885V188.283C72.6953 189.822 72.3477 190.996 71.6523 191.805C70.957 192.613 69.9199 193.023 68.541 193.035H68.3711V191.857H68.5762C69.416 191.846 70.0605 191.645 70.5098 191.254C70.959 190.859 71.2109 190.252 71.2656 189.432ZM69.8945 189.074C70.1797 189.074 70.4473 188.992 70.6973 188.828C70.9473 188.664 71.1406 188.438 71.2773 188.148V187.592C71.2773 186.963 71.1484 186.457 70.8906 186.074C70.6328 185.691 70.2988 185.5 69.8887 185.5C69.4785 185.5 69.1504 185.67 68.9043 186.01C68.6621 186.346 68.541 186.771 68.541 187.287C68.541 187.822 68.6641 188.254 68.9102 188.582C69.1562 188.91 69.4844 189.074 69.8945 189.074Z" fill="white"/>
<path d="M99.3223 194H98.373V187.895C98.373 187.387 98.3887 186.906 98.4199 186.453C98.3379 186.535 98.2461 186.621 98.1445 186.711C98.043 186.801 97.5781 187.182 96.75 187.854L96.2344 187.186L98.502 185.434H99.3223V194ZM108.264 189.705C108.264 191.186 108.029 192.291 107.561 193.021C107.096 193.752 106.383 194.117 105.422 194.117C104.5 194.117 103.799 193.744 103.318 192.998C102.838 192.248 102.598 191.15 102.598 189.705C102.598 188.213 102.83 187.105 103.295 186.383C103.76 185.66 104.469 185.299 105.422 185.299C106.352 185.299 107.057 185.676 107.537 186.43C108.021 187.184 108.264 188.275 108.264 189.705ZM103.582 189.705C103.582 190.951 103.729 191.859 104.021 192.43C104.314 192.996 104.781 193.279 105.422 193.279C106.07 193.279 106.539 192.992 106.828 192.418C107.121 191.84 107.268 190.936 107.268 189.705C107.268 188.475 107.121 187.574 106.828 187.004C106.539 186.43 106.07 186.143 105.422 186.143C104.781 186.143 104.314 186.426 104.021 186.992C103.729 187.555 103.582 188.459 103.582 189.705Z" fill="#11112D"/>
<path d="M131.322 194H130.373V187.895C130.373 187.387 130.389 186.906 130.42 186.453C130.338 186.535 130.246 186.621 130.145 186.711C130.043 186.801 129.578 187.182 128.75 187.854L128.234 187.186L130.502 185.434H131.322V194ZM138.189 194H137.24V187.895C137.24 187.387 137.256 186.906 137.287 186.453C137.205 186.535 137.113 186.621 137.012 186.711C136.91 186.801 136.445 187.182 135.617 187.854L135.102 187.186L137.369 185.434H138.189V194Z" fill="#11112D"/>
<path d="M163.322 194H162.373V187.895C162.373 187.387 162.389 186.906 162.42 186.453C162.338 186.535 162.246 186.621 162.145 186.711C162.043 186.801 161.578 187.182 160.75 187.854L160.234 187.186L162.502 185.434H163.322V194ZM172.217 194H166.586V193.162L168.842 190.895C169.529 190.199 169.982 189.703 170.201 189.406C170.42 189.109 170.584 188.82 170.693 188.539C170.803 188.258 170.857 187.955 170.857 187.631C170.857 187.174 170.719 186.812 170.441 186.547C170.164 186.277 169.779 186.143 169.287 186.143C168.932 186.143 168.594 186.201 168.273 186.318C167.957 186.436 167.604 186.648 167.213 186.957L166.697 186.295C167.486 185.639 168.346 185.311 169.275 185.311C170.08 185.311 170.711 185.518 171.168 185.932C171.625 186.342 171.854 186.895 171.854 187.59C171.854 188.133 171.701 188.67 171.396 189.201C171.092 189.732 170.521 190.404 169.686 191.217L167.811 193.051V193.098H172.217V194Z" fill="#11112D"/>
<path d="M195.322 194H194.373V187.895C194.373 187.387 194.389 186.906 194.42 186.453C194.338 186.535 194.246 186.621 194.145 186.711C194.043 186.801 193.578 187.182 192.75 187.854L192.234 187.186L194.502 185.434H195.322V194ZM203.895 187.449C203.895 187.996 203.74 188.443 203.432 188.791C203.127 189.139 202.693 189.371 202.131 189.488V189.535C202.818 189.621 203.328 189.84 203.66 190.191C203.992 190.543 204.158 191.004 204.158 191.574C204.158 192.391 203.875 193.02 203.309 193.461C202.742 193.898 201.938 194.117 200.895 194.117C200.441 194.117 200.025 194.082 199.646 194.012C199.271 193.945 198.906 193.826 198.551 193.654V192.729C198.922 192.912 199.316 193.053 199.734 193.15C200.156 193.244 200.555 193.291 200.93 193.291C202.41 193.291 203.15 192.711 203.15 191.551C203.15 190.512 202.334 189.992 200.701 189.992H199.857V189.154H200.713C201.381 189.154 201.91 189.008 202.301 188.715C202.691 188.418 202.887 188.008 202.887 187.484C202.887 187.066 202.742 186.738 202.453 186.5C202.168 186.262 201.779 186.143 201.287 186.143C200.912 186.143 200.559 186.193 200.227 186.295C199.895 186.396 199.516 186.584 199.09 186.857L198.598 186.201C198.949 185.924 199.354 185.707 199.811 185.551C200.271 185.391 200.756 185.311 201.264 185.311C202.096 185.311 202.742 185.502 203.203 185.885C203.664 186.264 203.895 186.785 203.895 187.449Z" fill="#11112D"/>
<path d="M227.322 194H226.373V187.895C226.373 187.387 226.389 186.906 226.42 186.453C226.338 186.535 226.246 186.621 226.145 186.711C226.043 186.801 225.578 187.182 224.75 187.854L224.234 187.186L226.502 185.434H227.322V194ZM236.621 192.031H235.35V194H234.418V192.031H230.252V191.182L234.318 185.387H235.35V191.146H236.621V192.031ZM234.418 191.146V188.299C234.418 187.74 234.438 187.109 234.477 186.406H234.43C234.242 186.781 234.066 187.092 233.902 187.338L231.225 191.146H234.418Z" fill="#11112D"/>
<path d="M35.3223 226H34.373V219.895C34.373 219.387 34.3887 218.906 34.4199 218.453C34.3379 218.535 34.2461 218.621 34.1445 218.711C34.043 218.801 33.5781 219.182 32.75 219.854L32.2344 219.186L34.502 217.434H35.3223V226ZM41.2637 220.768C42.166 220.768 42.875 220.992 43.3906 221.441C43.9102 221.887 44.1699 222.498 44.1699 223.275C44.1699 224.162 43.8867 224.857 43.3203 225.361C42.7578 225.865 41.9805 226.117 40.9883 226.117C40.0234 226.117 39.2871 225.963 38.7793 225.654V224.717C39.0527 224.893 39.3926 225.031 39.7988 225.133C40.2051 225.23 40.6055 225.279 41 225.279C41.6875 225.279 42.2207 225.117 42.5996 224.793C42.9824 224.469 43.1738 224 43.1738 223.387C43.1738 222.191 42.4414 221.594 40.9766 221.594C40.6055 221.594 40.1094 221.65 39.4883 221.764L38.9844 221.441L39.3066 217.434H43.5664V218.33H40.1387L39.9219 220.902C40.3711 220.812 40.8184 220.768 41.2637 220.768Z" fill="#11112D"/>
<path d="M67.3223 226H66.373V219.895C66.373 219.387 66.3887 218.906 66.4199 218.453C66.3379 218.535 66.2461 218.621 66.1445 218.711C66.043 218.801 65.5781 219.182 64.75 219.854L64.2344 219.186L66.502 217.434H67.3223V226ZM70.6855 222.338C70.6855 220.654 71.0117 219.396 71.6641 218.564C72.3203 217.729 73.2891 217.311 74.5703 217.311C75.0117 217.311 75.3594 217.348 75.6133 217.422V218.26C75.3125 218.162 74.9688 218.113 74.582 218.113C73.6641 218.113 72.9629 218.4 72.4785 218.975C71.9941 219.545 71.7285 220.443 71.6816 221.67H71.752C72.1816 220.998 72.8613 220.662 73.791 220.662C74.5605 220.662 75.166 220.895 75.6074 221.359C76.0527 221.824 76.2754 222.455 76.2754 223.252C76.2754 224.143 76.0312 224.844 75.543 225.355C75.0586 225.863 74.4023 226.117 73.5742 226.117C72.6875 226.117 71.9844 225.785 71.4648 225.121C70.9453 224.453 70.6855 223.525 70.6855 222.338ZM73.5625 225.291C74.1172 225.291 74.5469 225.117 74.8516 224.77C75.1602 224.418 75.3145 223.912 75.3145 223.252C75.3145 222.686 75.1719 222.24 74.8867 221.916C74.6016 221.592 74.1758 221.43 73.6094 221.43C73.2578 221.43 72.9355 221.502 72.6426 221.646C72.3496 221.791 72.1152 221.99 71.9395 222.244C71.7676 222.498 71.6816 222.762 71.6816 223.035C71.6816 223.438 71.7598 223.812 71.916 224.16C72.0723 224.508 72.293 224.783 72.5781 224.986C72.8672 225.189 73.1953 225.291 73.5625 225.291Z" fill="#11112D"/>
<path d="M99.3223 226H98.373V219.895C98.373 219.387 98.3887 218.906 98.4199 218.453C98.3379 218.535 98.2461 218.621 98.1445 218.711C98.043 218.801 97.5781 219.182 96.75 219.854L96.2344 219.186L98.502 217.434H99.3223V226ZM103.67 226L107.221 218.33H102.551V217.434H108.252V218.213L104.748 226H103.67Z" fill="#11112D"/>
<path d="M118 221C118 212.163 125.163 205 134 205H150V237H134C125.163 237 118 229.837 118 221Z" fill="#275E76"/>
<path d="M131.674 225H130.256V218.15L128.164 218.865V217.664L131.492 216.439H131.674V225ZM140.012 218.719C140.012 219.137 139.904 219.51 139.689 219.838C139.475 220.162 139.182 220.418 138.811 220.605C139.256 220.812 139.598 221.096 139.836 221.455C140.078 221.814 140.199 222.221 140.199 222.674C140.199 223.424 139.945 224.02 139.438 224.461C138.93 224.898 138.254 225.117 137.41 225.117C136.562 225.117 135.883 224.896 135.371 224.455C134.863 224.014 134.609 223.42 134.609 222.674C134.609 222.217 134.73 221.807 134.973 221.443C135.215 221.08 135.555 220.801 135.992 220.605C135.625 220.418 135.334 220.162 135.119 219.838C134.908 219.51 134.803 219.137 134.803 218.719C134.803 217.992 135.037 217.416 135.506 216.99C135.975 216.564 136.607 216.352 137.404 216.352C138.205 216.352 138.84 216.564 139.309 216.99C139.777 217.416 140.012 217.992 140.012 218.719ZM138.775 222.604C138.775 222.182 138.648 221.842 138.395 221.584C138.145 221.322 137.812 221.191 137.398 221.191C136.984 221.191 136.652 221.32 136.402 221.578C136.156 221.836 136.033 222.178 136.033 222.604C136.033 223.021 136.154 223.355 136.396 223.605C136.643 223.855 136.98 223.98 137.41 223.98C137.84 223.98 138.174 223.859 138.412 223.617C138.654 223.375 138.775 223.037 138.775 222.604ZM138.594 218.771C138.594 218.4 138.486 218.096 138.271 217.857C138.057 217.615 137.768 217.494 137.404 217.494C137.041 217.494 136.754 217.609 136.543 217.84C136.332 218.066 136.227 218.377 136.227 218.771C136.227 219.162 136.332 219.473 136.543 219.703C136.758 219.934 137.047 220.049 137.41 220.049C137.773 220.049 138.061 219.934 138.271 219.703C138.486 219.473 138.594 219.162 138.594 218.771Z" fill="white"/>
<rect width="32" height="32" transform="translate(150 205)" fill="#275E76"/>
<path d="M163.674 225H162.256V218.15L160.164 218.865V217.664L163.492 216.439H163.674V225ZM170.676 221.432C170.199 221.936 169.643 222.188 169.006 222.188C168.256 222.188 167.658 221.926 167.213 221.402C166.768 220.875 166.545 220.184 166.545 219.328C166.545 218.766 166.658 218.256 166.885 217.799C167.111 217.342 167.434 216.986 167.852 216.732C168.27 216.479 168.754 216.352 169.305 216.352C170.164 216.352 170.846 216.672 171.35 217.312C171.854 217.953 172.105 218.811 172.105 219.885V220.283C172.105 221.822 171.758 222.996 171.062 223.805C170.367 224.613 169.33 225.023 167.951 225.035H167.781V223.857H167.986C168.826 223.846 169.471 223.645 169.92 223.254C170.369 222.859 170.621 222.252 170.676 221.432ZM169.305 221.074C169.59 221.074 169.857 220.992 170.107 220.828C170.357 220.664 170.551 220.438 170.688 220.148V219.592C170.688 218.963 170.559 218.457 170.301 218.074C170.043 217.691 169.709 217.5 169.299 217.5C168.889 217.5 168.561 217.67 168.314 218.01C168.072 218.346 167.951 218.771 167.951 219.287C167.951 219.822 168.074 220.254 168.32 220.582C168.566 220.91 168.895 221.074 169.305 221.074Z" fill="white"/>
<rect width="32" height="32" transform="translate(182 205)" fill="#275E76"/>
<path d="M197.555 225H191.818V224.021L194.66 220.922C195.07 220.465 195.361 220.084 195.533 219.779C195.709 219.471 195.797 219.162 195.797 218.854C195.797 218.447 195.682 218.119 195.451 217.869C195.225 217.619 194.918 217.494 194.531 217.494C194.07 217.494 193.713 217.635 193.459 217.916C193.205 218.197 193.078 218.582 193.078 219.07H191.654C191.654 218.551 191.771 218.084 192.006 217.67C192.244 217.252 192.582 216.928 193.02 216.697C193.461 216.467 193.969 216.352 194.543 216.352C195.371 216.352 196.023 216.561 196.5 216.979C196.98 217.393 197.221 217.967 197.221 218.701C197.221 219.127 197.1 219.574 196.857 220.043C196.619 220.508 196.227 221.037 195.68 221.631L193.594 223.863H197.555V225ZM204.199 221.408C204.199 222.635 203.969 223.561 203.508 224.186C203.051 224.807 202.354 225.117 201.416 225.117C200.494 225.117 199.799 224.814 199.33 224.209C198.865 223.6 198.627 222.699 198.615 221.508V220.031C198.615 218.805 198.844 217.885 199.301 217.271C199.762 216.658 200.463 216.352 201.404 216.352C202.338 216.352 203.033 216.65 203.49 217.248C203.951 217.846 204.188 218.74 204.199 219.932V221.408ZM202.775 219.814C202.775 219.014 202.666 218.428 202.447 218.057C202.229 217.682 201.881 217.494 201.404 217.494C200.939 217.494 200.598 217.672 200.379 218.027C200.16 218.379 200.045 218.93 200.033 219.68V221.613C200.033 222.41 200.145 223.004 200.367 223.395C200.59 223.785 200.939 223.98 201.416 223.98C201.873 223.98 202.211 223.801 202.43 223.441C202.648 223.078 202.764 222.512 202.775 221.742V219.814Z" fill="white"/>
<rect width="32" height="32" transform="translate(214 205)" fill="#275E76"/>
<path d="M229.555 225H223.818V224.021L226.66 220.922C227.07 220.465 227.361 220.084 227.533 219.779C227.709 219.471 227.797 219.162 227.797 218.854C227.797 218.447 227.682 218.119 227.451 217.869C227.225 217.619 226.918 217.494 226.531 217.494C226.07 217.494 225.713 217.635 225.459 217.916C225.205 218.197 225.078 218.582 225.078 219.07H223.654C223.654 218.551 223.771 218.084 224.006 217.67C224.244 217.252 224.582 216.928 225.02 216.697C225.461 216.467 225.969 216.352 226.543 216.352C227.371 216.352 228.023 216.561 228.5 216.979C228.98 217.393 229.221 217.967 229.221 218.701C229.221 219.127 229.1 219.574 228.857 220.043C228.619 220.508 228.227 221.037 227.68 221.631L225.594 223.863H229.555V225ZM234.494 225H233.076V218.15L230.984 218.865V217.664L234.312 216.439H234.494V225Z" fill="white"/>
<rect width="32" height="32" transform="translate(22 237)" fill="#275E76"/>
<path d="M37.5547 257H31.8184V256.021L34.6602 252.922C35.0703 252.465 35.3613 252.084 35.5332 251.779C35.709 251.471 35.7969 251.162 35.7969 250.854C35.7969 250.447 35.6816 250.119 35.4512 249.869C35.2246 249.619 34.918 249.494 34.5312 249.494C34.0703 249.494 33.7129 249.635 33.459 249.916C33.2051 250.197 33.0781 250.582 33.0781 251.07H31.6543C31.6543 250.551 31.7715 250.084 32.0059 249.67C32.2441 249.252 32.582 248.928 33.0195 248.697C33.4609 248.467 33.9688 248.352 34.543 248.352C35.3711 248.352 36.0234 248.561 36.5 248.979C36.9805 249.393 37.2207 249.967 37.2207 250.701C37.2207 251.127 37.0996 251.574 36.8574 252.043C36.6191 252.508 36.2266 253.037 35.6797 253.631L33.5938 255.863H37.5547V257ZM44.375 257H38.6387V256.021L41.4805 252.922C41.8906 252.465 42.1816 252.084 42.3535 251.779C42.5293 251.471 42.6172 251.162 42.6172 250.854C42.6172 250.447 42.502 250.119 42.2715 249.869C42.0449 249.619 41.7383 249.494 41.3516 249.494C40.8906 249.494 40.5332 249.635 40.2793 249.916C40.0254 250.197 39.8984 250.582 39.8984 251.07H38.4746C38.4746 250.551 38.5918 250.084 38.8262 249.67C39.0645 249.252 39.4023 248.928 39.8398 248.697C40.2812 248.467 40.7891 248.352 41.3633 248.352C42.1914 248.352 42.8438 248.561 43.3203 248.979C43.8008 249.393 44.041 249.967 44.041 250.701C44.041 251.127 43.9199 251.574 43.6777 252.043C43.4395 252.508 43.0469 253.037 42.5 253.631L40.4141 255.863H44.375V257Z" fill="white"/>
<rect width="32" height="32" transform="translate(54 237)" fill="#275E76"/>
<path d="M69.5547 257H63.8184V256.021L66.6602 252.922C67.0703 252.465 67.3613 252.084 67.5332 251.779C67.709 251.471 67.7969 251.162 67.7969 250.854C67.7969 250.447 67.6816 250.119 67.4512 249.869C67.2246 249.619 66.918 249.494 66.5312 249.494C66.0703 249.494 65.7129 249.635 65.459 249.916C65.2051 250.197 65.0781 250.582 65.0781 251.07H63.6543C63.6543 250.551 63.7715 250.084 64.0059 249.67C64.2441 249.252 64.582 248.928 65.0195 248.697C65.4609 248.467 65.9688 248.352 66.543 248.352C67.3711 248.352 68.0234 248.561 68.5 248.979C68.9805 249.393 69.2207 249.967 69.2207 250.701C69.2207 251.127 69.0996 251.574 68.8574 252.043C68.6191 252.508 68.2266 253.037 67.6797 253.631L65.5938 255.863H69.5547V257ZM72.2852 252.084H73.1523C73.5898 252.08 73.9355 251.967 74.1895 251.744C74.4473 251.521 74.5762 251.199 74.5762 250.777C74.5762 250.371 74.4688 250.057 74.2539 249.834C74.043 249.607 73.7188 249.494 73.2812 249.494C72.8984 249.494 72.584 249.605 72.3379 249.828C72.0918 250.047 71.9688 250.334 71.9688 250.689H70.5449C70.5449 250.252 70.6602 249.854 70.8906 249.494C71.125 249.135 71.4492 248.855 71.8633 248.656C72.2812 248.453 72.748 248.352 73.2637 248.352C74.1152 248.352 74.7832 248.566 75.2676 248.996C75.7559 249.422 76 250.016 76 250.777C76 251.16 75.877 251.521 75.6309 251.861C75.3887 252.197 75.0742 252.451 74.6875 252.623C75.1562 252.783 75.5117 253.035 75.7539 253.379C76 253.723 76.123 254.133 76.123 254.609C76.123 255.375 75.8594 255.984 75.332 256.438C74.8086 256.891 74.1191 257.117 73.2637 257.117C72.4434 257.117 71.7715 256.898 71.248 256.461C70.7246 256.023 70.4629 255.441 70.4629 254.715H71.8867C71.8867 255.09 72.0117 255.395 72.2617 255.629C72.5156 255.863 72.8555 255.98 73.2812 255.98C73.7227 255.98 74.0703 255.863 74.3242 255.629C74.5781 255.395 74.7051 255.055 74.7051 254.609C74.7051 254.16 74.5723 253.814 74.3066 253.572C74.041 253.33 73.6465 253.209 73.123 253.209H72.2852V252.084Z" fill="white"/>
<rect width="32" height="32" transform="translate(86 237)" fill="#275E76"/>
<path d="M101.555 257H95.8184V256.021L98.6602 252.922C99.0703 252.465 99.3613 252.084 99.5332 251.779C99.709 251.471 99.7969 251.162 99.7969 250.854C99.7969 250.447 99.6816 250.119 99.4512 249.869C99.2246 249.619 98.918 249.494 98.5312 249.494C98.0703 249.494 97.7129 249.635 97.459 249.916C97.2051 250.197 97.0781 250.582 97.0781 251.07H95.6543C95.6543 250.551 95.7715 250.084 96.0059 249.67C96.2441 249.252 96.582 248.928 97.0195 248.697C97.4609 248.467 97.9688 248.352 98.543 248.352C99.3711 248.352 100.023 248.561 100.5 248.979C100.98 249.393 101.221 249.967 101.221 250.701C101.221 251.127 101.1 251.574 100.857 252.043C100.619 252.508 100.227 253.037 99.6797 253.631L97.5938 255.863H101.555V257ZM107.455 253.959H108.516V255.102H107.455V257H106.031V255.102H102.346L102.305 254.234L105.984 248.469H107.455V253.959ZM103.799 253.959H106.031V250.396L105.926 250.584L103.799 253.959Z" fill="white"/>
<path d="M118 237H134C142.837 237 150 244.163 150 253C150 261.837 142.837 269 134 269H118V237Z" fill="#275E76"/>
<path d="M133.555 257H127.818V256.021L130.66 252.922C131.07 252.465 131.361 252.084 131.533 251.779C131.709 251.471 131.797 251.162 131.797 250.854C131.797 250.447 131.682 250.119 131.451 249.869C131.225 249.619 130.918 249.494 130.531 249.494C130.07 249.494 129.713 249.635 129.459 249.916C129.205 250.197 129.078 250.582 129.078 251.07H127.654C127.654 250.551 127.771 250.084 128.006 249.67C128.244 249.252 128.582 248.928 129.02 248.697C129.461 248.467 129.969 248.352 130.543 248.352C131.371 248.352 132.023 248.561 132.5 248.979C132.98 249.393 133.221 249.967 133.221 250.701C133.221 251.127 133.1 251.574 132.857 252.043C132.619 252.508 132.227 253.037 131.68 253.631L129.594 255.863H133.555V257ZM135.02 252.77L135.482 248.469H140.064V249.699H136.666L136.432 251.738C136.826 251.512 137.271 251.398 137.768 251.398C138.58 251.398 139.211 251.658 139.66 252.178C140.113 252.697 140.34 253.396 140.34 254.275C140.34 255.143 140.09 255.834 139.59 256.35C139.09 256.861 138.404 257.117 137.533 257.117C136.752 257.117 136.104 256.896 135.588 256.455C135.076 256.01 134.799 255.424 134.756 254.697H136.133C136.188 255.111 136.336 255.43 136.578 255.652C136.82 255.871 137.137 255.98 137.527 255.98C137.965 255.98 138.305 255.824 138.547 255.512C138.793 255.199 138.916 254.773 138.916 254.234C138.916 253.715 138.781 253.305 138.512 253.004C138.242 252.699 137.871 252.547 137.398 252.547C137.141 252.547 136.922 252.582 136.742 252.652C136.562 252.719 136.367 252.852 136.156 253.051L135.02 252.77Z" fill="white"/>
<path d="M165.35 258H159.719V257.162L161.975 254.895C162.662 254.199 163.115 253.703 163.334 253.406C163.553 253.109 163.717 252.82 163.826 252.539C163.936 252.258 163.99 251.955 163.99 251.631C163.99 251.174 163.852 250.812 163.574 250.547C163.297 250.277 162.912 250.143 162.42 250.143C162.064 250.143 161.727 250.201 161.406 250.318C161.09 250.436 160.736 250.648 160.346 250.957L159.83 250.295C160.619 249.639 161.479 249.311 162.408 249.311C163.213 249.311 163.844 249.518 164.301 249.932C164.758 250.342 164.986 250.895 164.986 251.59C164.986 252.133 164.834 252.67 164.529 253.201C164.225 253.732 163.654 254.404 162.818 255.217L160.943 257.051V257.098H165.35V258ZM166.686 254.338C166.686 252.654 167.012 251.396 167.664 250.564C168.32 249.729 169.289 249.311 170.57 249.311C171.012 249.311 171.359 249.348 171.613 249.422V250.26C171.312 250.162 170.969 250.113 170.582 250.113C169.664 250.113 168.963 250.4 168.479 250.975C167.994 251.545 167.729 252.443 167.682 253.67H167.752C168.182 252.998 168.861 252.662 169.791 252.662C170.561 252.662 171.166 252.895 171.607 253.359C172.053 253.824 172.275 254.455 172.275 255.252C172.275 256.143 172.031 256.844 171.543 257.355C171.059 257.863 170.402 258.117 169.574 258.117C168.688 258.117 167.984 257.785 167.465 257.121C166.945 256.453 166.686 255.525 166.686 254.338ZM169.562 257.291C170.117 257.291 170.547 257.117 170.852 256.77C171.16 256.418 171.314 255.912 171.314 255.252C171.314 254.686 171.172 254.24 170.887 253.916C170.602 253.592 170.176 253.43 169.609 253.43C169.258 253.43 168.936 253.502 168.643 253.646C168.35 253.791 168.115 253.99 167.939 254.244C167.768 254.498 167.682 254.762 167.682 255.035C167.682 255.438 167.76 255.812 167.916 256.16C168.072 256.508 168.293 256.783 168.578 256.986C168.867 257.189 169.195 257.291 169.562 257.291Z" fill="#11112D"/>
<path d="M197.35 258H191.719V257.162L193.975 254.895C194.662 254.199 195.115 253.703 195.334 253.406C195.553 253.109 195.717 252.82 195.826 252.539C195.936 252.258 195.99 251.955 195.99 251.631C195.99 251.174 195.852 250.812 195.574 250.547C195.297 250.277 194.912 250.143 194.42 250.143C194.064 250.143 193.727 250.201 193.406 250.318C193.09 250.436 192.736 250.648 192.346 250.957L191.83 250.295C192.619 249.639 193.479 249.311 194.408 249.311C195.213 249.311 195.844 249.518 196.301 249.932C196.758 250.342 196.986 250.895 196.986 251.59C196.986 252.133 196.834 252.67 196.529 253.201C196.225 253.732 195.654 254.404 194.818 255.217L192.943 257.051V257.098H197.35V258ZM199.67 258L203.221 250.33H198.551V249.434H204.252V250.213L200.748 258H199.67Z" fill="#11112D"/>
<path d="M229.35 258H223.719V257.162L225.975 254.895C226.662 254.199 227.115 253.703 227.334 253.406C227.553 253.109 227.717 252.82 227.826 252.539C227.936 252.258 227.99 251.955 227.99 251.631C227.99 251.174 227.852 250.812 227.574 250.547C227.297 250.277 226.912 250.143 226.42 250.143C226.064 250.143 225.727 250.201 225.406 250.318C225.09 250.436 224.736 250.648 224.346 250.957L223.83 250.295C224.619 249.639 225.479 249.311 226.408 249.311C227.213 249.311 227.844 249.518 228.301 249.932C228.758 250.342 228.986 250.895 228.986 251.59C228.986 252.133 228.834 252.67 228.529 253.201C228.225 253.732 227.654 254.404 226.818 255.217L224.943 257.051V257.098H229.35V258ZM233.422 249.311C234.203 249.311 234.822 249.492 235.279 249.855C235.736 250.219 235.965 250.721 235.965 251.361C235.965 251.783 235.834 252.168 235.572 252.516C235.311 252.863 234.893 253.18 234.318 253.465C235.014 253.797 235.508 254.146 235.801 254.514C236.094 254.877 236.24 255.299 236.24 255.779C236.24 256.49 235.992 257.059 235.496 257.484C235 257.906 234.32 258.117 233.457 258.117C232.543 258.117 231.84 257.918 231.348 257.52C230.855 257.117 230.609 256.549 230.609 255.814C230.609 254.834 231.207 254.07 232.402 253.523C231.863 253.219 231.477 252.891 231.242 252.539C231.008 252.184 230.891 251.787 230.891 251.35C230.891 250.729 231.119 250.234 231.576 249.867C232.037 249.496 232.652 249.311 233.422 249.311ZM231.57 255.838C231.57 256.307 231.732 256.672 232.057 256.934C232.385 257.195 232.844 257.326 233.434 257.326C234.016 257.326 234.469 257.189 234.793 256.916C235.117 256.643 235.279 256.268 235.279 255.791C235.279 255.412 235.127 255.076 234.822 254.783C234.518 254.486 233.986 254.199 233.229 253.922C232.646 254.172 232.225 254.449 231.963 254.754C231.701 255.055 231.57 255.416 231.57 255.838ZM233.41 250.102C232.922 250.102 232.539 250.219 232.262 250.453C231.984 250.688 231.846 251 231.846 251.391C231.846 251.75 231.961 252.059 232.191 252.316C232.422 252.574 232.848 252.832 233.469 253.09C234.027 252.855 234.422 252.604 234.652 252.334C234.887 252.064 235.004 251.75 235.004 251.391C235.004 250.996 234.861 250.684 234.576 250.453C234.295 250.219 233.906 250.102 233.41 250.102Z" fill="#11112D"/>
<path d="M37.3496 290H31.7188V289.162L33.9746 286.895C34.6621 286.199 35.1152 285.703 35.334 285.406C35.5527 285.109 35.7168 284.82 35.8262 284.539C35.9355 284.258 35.9902 283.955 35.9902 283.631C35.9902 283.174 35.8516 282.812 35.5742 282.547C35.2969 282.277 34.9121 282.143 34.4199 282.143C34.0645 282.143 33.7266 282.201 33.4062 282.318C33.0898 282.436 32.7363 282.648 32.3457 282.957L31.8301 282.295C32.6191 281.639 33.4785 281.311 34.4082 281.311C35.2129 281.311 35.8438 281.518 36.3008 281.932C36.7578 282.342 36.9863 282.895 36.9863 283.59C36.9863 284.133 36.834 284.67 36.5293 285.201C36.2246 285.732 35.6543 286.404 34.8184 287.217L32.9434 289.051V289.098H37.3496V290ZM44.2168 285.09C44.2168 288.441 42.9199 290.117 40.3262 290.117C39.873 290.117 39.5137 290.078 39.248 290V289.162C39.5605 289.264 39.916 289.314 40.3145 289.314C41.252 289.314 41.959 289.025 42.4355 288.447C42.916 287.865 43.1777 286.975 43.2207 285.775H43.1504C42.9355 286.1 42.6504 286.348 42.2949 286.52C41.9395 286.688 41.5391 286.771 41.0938 286.771C40.3359 286.771 39.7344 286.545 39.2891 286.092C38.8438 285.639 38.6211 285.006 38.6211 284.193C38.6211 283.303 38.8691 282.6 39.3652 282.084C39.8652 281.568 40.5215 281.311 41.334 281.311C41.916 281.311 42.4238 281.461 42.8574 281.762C43.2949 282.059 43.6309 282.494 43.8652 283.068C44.0996 283.639 44.2168 284.312 44.2168 285.09ZM41.334 282.143C40.7754 282.143 40.3438 282.322 40.0391 282.682C39.7344 283.041 39.582 283.541 39.582 284.182C39.582 284.744 39.7227 285.188 40.0039 285.512C40.2852 285.832 40.7129 285.992 41.2871 285.992C41.6426 285.992 41.9688 285.92 42.2656 285.775C42.5664 285.631 42.8027 285.434 42.9746 285.184C43.1465 284.934 43.2324 284.672 43.2324 284.398C43.2324 283.988 43.1523 283.609 42.9922 283.262C42.832 282.914 42.6074 282.641 42.3184 282.441C42.0332 282.242 41.7051 282.143 41.334 282.143Z" fill="#11112D"/>
<path d="M69.0273 283.449C69.0273 283.996 68.873 284.443 68.5645 284.791C68.2598 285.139 67.8262 285.371 67.2637 285.488V285.535C67.9512 285.621 68.4609 285.84 68.793 286.191C69.125 286.543 69.291 287.004 69.291 287.574C69.291 288.391 69.0078 289.02 68.4414 289.461C67.875 289.898 67.0703 290.117 66.0273 290.117C65.5742 290.117 65.1582 290.082 64.7793 290.012C64.4043 289.945 64.0391 289.826 63.6836 289.654V288.729C64.0547 288.912 64.4492 289.053 64.8672 289.15C65.2891 289.244 65.6875 289.291 66.0625 289.291C67.543 289.291 68.2832 288.711 68.2832 287.551C68.2832 286.512 67.4668 285.992 65.834 285.992H64.9902V285.154H65.8457C66.5137 285.154 67.043 285.008 67.4336 284.715C67.8242 284.418 68.0195 284.008 68.0195 283.484C68.0195 283.066 67.875 282.738 67.5859 282.5C67.3008 282.262 66.9121 282.143 66.4199 282.143C66.0449 282.143 65.6914 282.193 65.3594 282.295C65.0273 282.396 64.6484 282.584 64.2227 282.857L63.7305 282.201C64.082 281.924 64.4863 281.707 64.9434 281.551C65.4043 281.391 65.8887 281.311 66.3965 281.311C67.2285 281.311 67.875 281.502 68.3359 281.885C68.7969 282.264 69.0273 282.785 69.0273 283.449ZM76.2637 285.705C76.2637 287.186 76.0293 288.291 75.5605 289.021C75.0957 289.752 74.3828 290.117 73.4219 290.117C72.5 290.117 71.7988 289.744 71.3184 288.998C70.8379 288.248 70.5977 287.15 70.5977 285.705C70.5977 284.213 70.8301 283.105 71.2949 282.383C71.7598 281.66 72.4688 281.299 73.4219 281.299C74.3516 281.299 75.0566 281.676 75.5371 282.43C76.0215 283.184 76.2637 284.275 76.2637 285.705ZM71.582 285.705C71.582 286.951 71.7285 287.859 72.0215 288.43C72.3145 288.996 72.7812 289.279 73.4219 289.279C74.0703 289.279 74.5391 288.992 74.8281 288.418C75.1211 287.84 75.2676 286.936 75.2676 285.705C75.2676 284.475 75.1211 283.574 74.8281 283.004C74.5391 282.43 74.0703 282.143 73.4219 282.143C72.7812 282.143 72.3145 282.426 72.0215 282.992C71.7285 283.555 71.582 284.459 71.582 285.705Z" fill="#11112D"/>
<rect width="32" height="32" transform="translate(86 269)" fill="#FAFAFA"/>
<path d="M102.756 290H101.807V283.895C101.807 283.387 101.822 282.906 101.854 282.453C101.771 282.535 101.68 282.621 101.578 282.711C101.477 282.801 101.012 283.182 100.184 283.854L99.668 283.186L101.936 281.434H102.756V290Z" fill="#A8AFC7"/>
<rect width="32" height="32" transform="translate(118 269)" fill="#FAFAFA"/>
<path d="M136.783 290H131.152V289.162L133.408 286.895C134.096 286.199 134.549 285.703 134.768 285.406C134.986 285.109 135.15 284.82 135.26 284.539C135.369 284.258 135.424 283.955 135.424 283.631C135.424 283.174 135.285 282.812 135.008 282.547C134.73 282.277 134.346 282.143 133.854 282.143C133.498 282.143 133.16 282.201 132.84 282.318C132.523 282.436 132.17 282.648 131.779 282.957L131.264 282.295C132.053 281.639 132.912 281.311 133.842 281.311C134.646 281.311 135.277 281.518 135.734 281.932C136.191 282.342 136.42 282.895 136.42 283.59C136.42 284.133 136.268 284.67 135.963 285.201C135.658 285.732 135.088 286.404 134.252 287.217L132.377 289.051V289.098H136.783V290Z" fill="#A8AFC7"/>
<rect width="32" height="32" transform="translate(150 269)" fill="#FAFAFA"/>
<path d="M168.461 283.449C168.461 283.996 168.307 284.443 167.998 284.791C167.693 285.139 167.26 285.371 166.697 285.488V285.535C167.385 285.621 167.895 285.84 168.227 286.191C168.559 286.543 168.725 287.004 168.725 287.574C168.725 288.391 168.441 289.02 167.875 289.461C167.309 289.898 166.504 290.117 165.461 290.117C165.008 290.117 164.592 290.082 164.213 290.012C163.838 289.945 163.473 289.826 163.117 289.654V288.729C163.488 288.912 163.883 289.053 164.301 289.15C164.723 289.244 165.121 289.291 165.496 289.291C166.977 289.291 167.717 288.711 167.717 287.551C167.717 286.512 166.9 285.992 165.268 285.992H164.424V285.154H165.279C165.947 285.154 166.477 285.008 166.867 284.715C167.258 284.418 167.453 284.008 167.453 283.484C167.453 283.066 167.309 282.738 167.02 282.5C166.734 282.262 166.346 282.143 165.854 282.143C165.479 282.143 165.125 282.193 164.793 282.295C164.461 282.396 164.082 282.584 163.656 282.857L163.164 282.201C163.516 281.924 163.92 281.707 164.377 281.551C164.838 281.391 165.322 281.311 165.83 281.311C166.662 281.311 167.309 281.502 167.77 281.885C168.23 282.264 168.461 282.785 168.461 283.449Z" fill="#A8AFC7"/>
<rect width="32" height="32" transform="translate(182 269)" fill="#FAFAFA"/>
<path d="M201.188 288.031H199.916V290H198.984V288.031H194.818V287.182L198.885 281.387H199.916V287.146H201.188V288.031ZM198.984 287.146V284.299C198.984 283.74 199.004 283.109 199.043 282.406H198.996C198.809 282.781 198.633 283.092 198.469 283.338L195.791 287.146H198.984Z" fill="#A8AFC7"/>
<rect width="32" height="32" transform="translate(214 269)" fill="#FAFAFA"/>
<path d="M229.83 284.768C230.732 284.768 231.441 284.992 231.957 285.441C232.477 285.887 232.736 286.498 232.736 287.275C232.736 288.162 232.453 288.857 231.887 289.361C231.324 289.865 230.547 290.117 229.555 290.117C228.59 290.117 227.854 289.963 227.346 289.654V288.717C227.619 288.893 227.959 289.031 228.365 289.133C228.771 289.23 229.172 289.279 229.566 289.279C230.254 289.279 230.787 289.117 231.166 288.793C231.549 288.469 231.74 288 231.74 287.387C231.74 286.191 231.008 285.594 229.543 285.594C229.172 285.594 228.676 285.65 228.055 285.764L227.551 285.441L227.873 281.434H232.133V282.33H228.705L228.488 284.902C228.938 284.812 229.385 284.768 229.83 284.768Z" fill="#A8AFC7"/>
</svg>
