<svg width="42" height="43" viewBox="0 0 42 43" fill="none" xmlns="http://www.w3.org/2000/svg">
<g clip-path="url(#clip0_28_101)">
<path d="M15.9637 20.7367V15.6142H26.0366V20.7367H37.471V14.7379C37.471 12.9691 36.4379 11.4374 34.9437 10.7129H7.05632C5.56213 11.4374 4.52905 12.9691 4.52905 14.7379V20.7367H15.9637ZM30.1657 15.1426C31.1059 15.1426 31.8678 15.9046 31.8678 16.8447C31.8678 17.7849 31.1059 18.5469 30.1657 18.5469C29.2259 18.5469 28.4636 17.7849 28.4636 16.8447C28.4636 15.9046 29.2259 15.1426 30.1657 15.1426ZM11.3819 15.1426C12.322 15.1426 13.084 15.9046 13.084 16.8447C13.084 17.7849 12.322 18.5469 11.3819 18.5469C10.4417 18.5469 9.67971 17.7849 9.67971 16.8447C9.67971 15.9046 10.4417 15.1426 11.3819 15.1426Z" fill="#DF4088"/>
<path d="M18.4247 18.0753H23.5756V20.7368H18.4247V18.0753Z" fill="#DF4088"/>
<path d="M16.4514 8.25194L13.0702 5.45808L14.6377 3.56079L20.3146 8.25194H24.8259L21.445 5.45808L23.0126 3.56079L28.6894 8.25194H33.9798L31.017 0.5H10.9832L8.02014 8.25194H16.4514Z" fill="#DF4088"/>
<path d="M27.2331 23.9494C27.2331 26.1627 29.0336 27.9632 31.2468 27.9632C33.4598 27.9632 35.2603 26.1627 35.2603 23.9494V23.1977H27.2331V23.9494Z" fill="#DF4088"/>
<path d="M24.6956 23.1977H17.3044V40.0391H15.121V42.5H26.879V40.0391H24.6956V23.1977Z" fill="#DF4088"/>
<path d="M6.73972 23.9494C6.73972 26.1627 8.54023 27.9632 10.7535 27.9632C12.9664 27.9632 14.7669 26.1627 14.7669 23.9494V23.1977H6.73972V23.9494Z" fill="#DF4088"/>
</g>
<defs>
<clipPath id="clip0_28_101">
<rect width="42" height="42" fill="white" transform="translate(0 0.5)"/>
</clipPath>
</defs>
</svg>
