<svg width="42" height="43" viewBox="0 0 42 43" fill="none" xmlns="http://www.w3.org/2000/svg">
<g clip-path="url(#clip0_28_155)">
<path d="M3.8759 33.4765H6.80933C7.43112 34.7415 8.40893 35.7988 9.61233 36.5183H17.0673C19.1927 35.2484 20.6151 32.9245 20.6151 30.2691V24.1529H6.06531V25.7246H3.8759C1.739 25.7246 -6.10352e-05 27.4637 -6.10352e-05 29.6006C-6.10352e-05 31.7375 1.739 33.4765 3.8759 33.4765ZM3.8759 28.1855H6.06531C6.06531 29.1227 6.00936 30.0818 6.10304 31.0156H3.8759C3.09579 31.0156 2.46087 30.3807 2.46087 29.6006C2.46087 28.8205 3.09579 28.1855 3.8759 28.1855Z" fill="#F9A339"/>
<path d="M4.84961 10.2002H8.04882V17.4903H12.11L12.1098 17.4907V21.459H14.5707V17.4907L14.5705 17.4903H18.6308V10.2002H27.0086V36.5182H41.9998V6.72943C41.9998 5.0642 41.3115 3.50069 40.063 2.32519C38.8137 1.14804 37.1534 0.5 35.3864 0.5H4.84961C2.1754 0.500082 -6.10352e-05 2.67636 -6.10352e-05 5.35057C-6.10352e-05 8.02478 2.1754 10.2002 4.84961 10.2002ZM33.2733 24.1529H35.7343V26.6138H33.2733V24.1529ZM33.2733 29.4439H35.7343V31.9048H33.2733V29.4439Z" fill="#F9A339"/>
<path d="M-6.10352e-05 38.9791H42V42.4999H-6.10352e-05V38.9791Z" fill="#F9A339"/>
</g>
<defs>
<clipPath id="clip0_28_155">
<rect width="42" height="42" fill="white" transform="translate(0 0.5)"/>
</clipPath>
</defs>
</svg>
