<svg width="42" height="43" viewBox="0 0 42 43" fill="none" xmlns="http://www.w3.org/2000/svg">
<path d="M42 12.3945V9.60547C42 8.27148 40.8355 7.14453 39.457 7.14453H30.1055C28.7485 7.14453 27.6445 8.24851 27.6445 9.60547V12.3945H42Z" fill="#F9A339"/>
<path d="M27.6445 14.8555V33.3945C27.6445 34.7515 28.7485 35.8555 30.1055 35.8555H39.457C40.8355 35.8555 42 34.7285 42 33.3945V14.8555H27.6445ZM35.1389 30.5521C34.5289 30.7339 33.8339 30.4375 33.6041 29.7327C33.4196 29.1141 33.7299 28.4193 34.4244 28.1979C35.0972 27.9933 35.8337 28.395 35.9879 29.1346C36.0992 29.7294 35.7937 30.3388 35.1389 30.5521ZM35.1389 25.3021C34.5294 25.4838 33.8339 25.1876 33.6041 24.4827C33.4196 23.8641 33.7299 23.1693 34.4244 22.9479C35.0972 22.7433 35.8337 23.145 35.9879 23.8846C36.0992 24.4794 35.7937 25.0888 35.1389 25.3021Z" fill="#F9A339"/>
<path d="M22.3945 7.14453H2.46094C1.10414 7.14453 0 8.24867 0 9.60547V26.2578C0 27.6146 1.10414 28.7188 2.46094 28.7188H22.3945C23.7513 28.7188 24.8555 27.6146 24.8555 26.2578V9.60547C24.8555 8.24867 23.7513 7.14453 22.3945 7.14453Z" fill="#F9A339"/>
<path d="M19.0312 33.3945H16.3242V31.1797H8.61328V33.3945H5.90625C5.22703 33.3945 4.67578 33.9458 4.67578 34.625C4.67578 35.3042 5.22703 35.8555 5.90625 35.8555H19.0312C19.7105 35.8555 20.2617 35.3042 20.2617 34.625C20.2617 33.9458 19.7105 33.3945 19.0312 33.3945Z" fill="#F9A339"/>
</svg>
