<svg width="42" height="43" viewBox="0 0 42 43" fill="none" xmlns="http://www.w3.org/2000/svg">
<g clip-path="url(#clip0_28_177)">
<path d="M4.84503 28.4967L0.288448 39.0602C-0.105045 39.9731 0.0724755 40.9911 0.751797 41.7169C1.23053 42.228 1.86979 42.5 2.53373 42.5C2.81219 42.5 3.09546 42.452 3.37231 42.3536L10.3091 39.8878L4.84503 28.4967Z" fill="#275E76"/>
<path d="M9.16829 18.4735L6.1373 25.501L12.6408 39.0589L18.1103 37.1148L9.16829 18.4735Z" fill="#275E76"/>
<path d="M39.6653 8.71927C38.9924 8.81572 38.5252 9.43897 38.6217 10.1116C38.6569 10.3593 38.6858 10.5999 38.7114 10.8373C39.004 13.5521 38.6534 15.6099 37.6421 17.1086C36.5417 18.7386 34.5019 19.6948 32.5661 19.4875C32.1137 19.4388 31.6683 19.3269 31.2427 19.1606C31.3206 19.0264 31.3927 18.8889 31.4587 18.7489C31.8147 17.9952 31.9624 17.1278 31.9047 16.2668C31.8605 15.6099 31.6971 14.9572 31.4135 14.3608C30.848 13.1714 29.8956 12.3581 28.7315 12.0707C27.4472 11.7538 26.0312 12.6074 25.5746 13.9734C25.2766 14.8649 25.3551 15.8845 25.8078 17.0038C26.184 17.934 26.7349 18.7739 27.4132 19.4871C26.8005 19.8137 26.0802 20.0508 25.2884 20.1758C24.6171 20.2818 24.1589 20.9118 24.265 21.5831C24.3604 22.1894 24.8837 22.6216 25.4788 22.6216C25.5425 22.6216 25.6073 22.6168 25.672 22.6066C27.1425 22.3743 28.4566 21.8362 29.4992 21.0694C30.3657 21.528 31.3164 21.8282 32.304 21.934C32.5729 21.9628 32.8414 21.9769 33.1099 21.9769C35.6974 21.9769 38.2131 20.6609 39.6817 18.4851C41.1387 16.3264 41.5886 13.4732 41.0576 9.76292C40.9612 9.09033 40.3373 8.62282 39.6653 8.71927ZM27.9086 14.7534C27.9586 14.604 28.0967 14.4877 28.1643 14.4659C28.7357 14.6181 29.0522 15.1257 29.191 15.4176C29.5322 16.1351 29.5489 17.0304 29.2336 17.6985C29.2208 17.7257 29.2073 17.753 29.1936 17.7799C28.7248 17.2874 28.3441 16.7119 28.0893 16.0812C27.8657 15.5282 27.8032 15.069 27.9086 14.7534Z" fill="#275E76"/>
<path d="M33.0807 26.6411C33.0807 25.7862 32.3956 25.0934 31.5506 25.0934C30.7053 25.0934 30.0202 25.7862 30.0202 26.6411C30.0202 27.4957 30.7053 28.1885 31.5506 28.1885C32.3956 28.1885 33.0807 27.4957 33.0807 26.6411Z" fill="#275E76"/>
<path d="M35.366 9.95119C35.366 9.09659 34.681 8.40381 33.8356 8.40381C32.9907 8.40381 32.3056 9.09659 32.3056 9.95119C32.3056 10.8058 32.9907 11.4986 33.8356 11.4986C34.681 11.4986 35.366 10.8058 35.366 9.95119Z" fill="#275E76"/>
<path d="M38.447 7.50502C40.3629 7.50502 41.9218 5.93393 41.9218 4.00267C41.9218 2.07109 40.3632 0.5 38.447 0.5C36.5308 0.5 34.9722 2.07109 34.9722 4.00267C34.9722 5.93393 36.5311 7.50502 38.447 7.50502Z" fill="#275E76"/>
<path d="M22.1443 15.239C22.1443 14.3844 21.4592 13.6917 20.6139 13.6917C19.7689 13.6917 19.0838 14.3844 19.0838 15.239C19.0838 16.0936 19.7689 16.7864 20.6139 16.7864C21.4592 16.7864 22.1443 16.0936 22.1443 15.239Z" fill="#275E76"/>
<path d="M30.1189 3.80531C30.1189 2.95071 29.4335 2.25793 28.5885 2.25793C27.7432 2.25793 27.0581 2.95071 27.0581 3.80531C27.0581 4.66023 27.7432 5.35301 28.5885 5.35301C29.4335 5.35301 30.1189 4.66023 30.1189 3.80531Z" fill="#275E76"/>
<path d="M20.0461 8.88899H20.6212V9.48628C20.6212 10.1659 21.1721 10.7168 21.8517 10.7168C22.5313 10.7168 23.0822 10.1659 23.0822 9.48628V8.88899H23.6573C24.337 8.88899 24.8878 8.33784 24.8878 7.65852C24.8878 6.97888 24.337 6.42805 23.6573 6.42805H23.0822V5.83044C23.0822 5.15112 22.5313 4.59998 21.8517 4.59998C21.1721 4.59998 20.6212 5.15112 20.6212 5.83044V6.42805H20.0461C19.3664 6.42805 18.8156 6.97888 18.8156 7.65852C18.8156 8.33784 19.3664 8.88899 20.0461 8.88899Z" fill="#275E76"/>
<path d="M12.4075 11.8601C11.948 11.3593 11.1697 11.3256 10.6688 11.7848C10.168 12.2443 10.1347 13.0227 10.5938 13.5235L11.0764 14.0497L10.4605 15.4778L20.4421 36.2862L28.7609 33.3292L29.113 33.7131C29.3559 33.9778 29.6876 34.1117 30.0202 34.1117C30.3176 34.1117 30.6152 34.0047 30.8517 33.7881C31.3526 33.3286 31.3859 32.5503 30.9267 32.0497L12.4075 11.8601Z" fill="#275E76"/>
</g>
<defs>
<clipPath id="clip0_28_177">
<rect width="42" height="42" fill="white" transform="translate(0 0.5)"/>
</clipPath>
</defs>
</svg>
