<svg width="42" height="43" viewBox="0 0 42 43" fill="none" xmlns="http://www.w3.org/2000/svg">
<g clip-path="url(#clip0_28_97)">
<path d="M26.2498 4.00007H15.7498C14.7838 4.00007 13.9998 3.21607 13.9998 2.25007C13.9998 1.28406 14.7838 0.500061 15.7498 0.500061H26.2498C27.2158 0.500061 27.9998 1.28406 27.9998 2.25007C27.9998 3.21607 27.2158 4.00007 26.2498 4.00007Z" fill="#F9A339"/>
<path d="M30.4833 42.5H13.0777C7.60546 42.5 3.7607 39.5722 3.51395 35.2129C3.4177 33.5102 3.8622 31.8652 4.80195 30.4582L14.8277 15.8842C15.4297 15.0039 15.75 13.9749 15.75 12.9074V3.12488C15.75 2.15888 16.534 1.37488 17.5 1.37488C18.466 1.37488 19.25 2.15888 19.25 3.12488V12.9074C19.25 14.6872 18.7162 16.4022 17.7082 17.8669L7.69821 32.4199C7.19771 33.1707 6.95446 34.0737 7.00696 35.0134C7.14521 37.4354 9.52697 38.9999 13.0777 38.9999H30.485C32.8458 38.9999 34.8688 37.2132 34.993 35.0152C35.0473 34.0754 34.804 33.1724 34.2878 32.4007L24.2918 17.8669C23.2838 16.4022 22.75 14.6872 22.75 12.9074V3.12488C22.75 2.15888 23.534 1.37488 24.5 1.37488C25.466 1.37488 26.25 2.15888 26.25 3.12488V12.9074C26.25 13.9749 26.5703 15.0039 27.174 15.8824L37.184 30.4354C38.1378 31.8634 38.5823 33.5084 38.486 35.2112C38.255 39.2992 34.7393 42.5 30.4833 42.5Z" fill="#F9A339"/>
<path d="M29.4812 35.5004H12.5201C11.4071 35.5004 10.5006 34.6307 10.5006 33.5632C10.5006 33.1449 10.6371 32.7477 10.8961 32.4117C10.9189 32.3819 10.9434 32.3522 10.9696 32.3242L15.9169 25.8736C16.1514 25.5691 16.5067 25.3819 16.8917 25.3626C17.2084 25.3469 17.5147 25.2734 17.7562 25.1561L18.8482 24.6119C20.1607 23.9714 21.8442 23.9696 23.1479 24.6066L24.2609 25.1614C24.4902 25.2716 24.7964 25.3451 25.1132 25.3626C25.4964 25.3819 25.8534 25.5691 26.0879 25.8736L31.0352 32.3224C31.0614 32.3504 31.0859 32.3802 31.1087 32.4099C31.3642 32.7459 31.5007 33.1449 31.5007 33.5632C31.5007 34.6307 30.5942 35.5004 29.4812 35.5004Z" fill="#F9A339"/>
</g>
<defs>
<clipPath id="clip0_28_97">
<rect width="42" height="42" fill="white" transform="translate(0 0.5)"/>
</clipPath>
</defs>
</svg>
