<svg width="42" height="43" viewBox="0 0 42 43" fill="none" xmlns="http://www.w3.org/2000/svg">
<path fill-rule="evenodd" clip-rule="evenodd" d="M29.9414 9.27863C33.5828 10.1236 34.9758 12.2529 36.7221 15.1836H29.9414V9.27863ZM8.66071 15.4297C9.37367 15.4297 9.89117 15.7738 9.89117 16.5781C9.89117 17.2565 9.34227 17.8067 8.66423 17.8086H1.23047C0.550827 17.8086 0 18.3597 0 19.0391C0 19.7187 0.550827 20.2695 1.23047 20.2695H12.3047C12.9907 20.2695 13.54 20.82 13.54 21.5C13.54 22.1796 12.9891 22.7305 12.3095 22.7305H1.23047C0.550827 22.7305 0 23.2813 0 23.9609C0 24.6406 0.550827 25.1914 1.23047 25.1914H3.9375V28.8828C3.9375 29.5625 4.48833 30.1133 5.16797 30.1133H7.6414C8.08232 32.2852 10.0014 33.8867 12.2637 33.8867C14.5259 33.8867 16.445 32.2852 16.8859 30.1133H29.3797C29.8206 32.2852 31.7397 33.8867 34.002 33.8867C36.2642 33.8867 38.1833 32.2852 38.6242 30.1133H40.7695C41.4492 30.1133 42 29.5625 42 28.8828V21.5C42 17.8897 38.192 17.65 38.1884 17.6445H28.7109C28.0313 17.6445 27.4805 17.0937 27.4805 16.4141V9.03125H5.16797C4.48833 9.03125 3.9375 9.58208 3.9375 10.2617V12.9688H2.46094C1.7813 12.9688 1.23047 13.5196 1.23047 14.1992C1.23047 14.8789 1.7813 15.4297 2.46094 15.4297H8.66071ZM35.5971 27.5748C36.478 28.4557 36.478 29.8845 35.5971 30.7654C34.1801 32.1823 31.7461 31.1742 31.7461 29.1699C31.7461 27.1659 34.1801 26.1578 35.5971 27.5748ZM13.8588 27.5748C14.7397 28.4557 14.7397 29.8845 13.8588 30.7654C12.4418 32.1823 10.0078 31.1742 10.0078 29.1699C10.0078 27.1659 12.4418 26.1578 13.8588 27.5748Z" fill="#275E76"/>
</svg>
