<svg width="24" height="24" viewBox="0 0 24 24" fill="none" xmlns="http://www.w3.org/2000/svg">
<path d="M5.99501 4C5.7326 4 5.47277 4.05177 5.2304 4.15234C4.98803 4.25291 4.76788 4.40031 4.58256 4.58609C4.39724 4.77187 4.25039 4.99239 4.15043 5.23501C4.05047 5.47763 3.99935 5.73759 4.00001 6V18C4.00001 19.105 4.89301 20 5.99801 20H12.548V14.312H10.47V11.89H12.548V10.108C12.548 8.041 13.81 6.916 15.655 6.916C16.277 6.914 16.9 6.946 17.519 7.011V9.171H16.246C15.243 9.171 15.049 9.648 15.049 10.347V11.89H17.447L17.135 14.312H15.05V20H18C19.105 20 20 19.11 20 18.006V6.006C20.0001 5.74266 19.9484 5.48188 19.8477 5.23856C19.7469 4.99525 19.5993 4.77417 19.413 4.58796C19.2268 4.40175 19.0058 4.25407 18.7624 4.15335C18.5191 4.05264 18.2583 4.00087 17.995 4.001L5.99501 4Z" fill="#11112D"/>
</svg>
