<svg width="42" height="43" viewBox="0 0 42 43" fill="none" xmlns="http://www.w3.org/2000/svg">
<g clip-path="url(#clip0_28_80)">
<path d="M20.693 34.7224H40.7513C41.4408 34.7224 41.9997 35.3012 41.9997 36.0151V41.2074C41.9997 41.9213 41.4408 42.5 40.7513 42.5H20.693C20.0036 42.5 19.4446 41.9213 19.4446 41.2074V36.0151C19.4446 35.3012 20.0035 34.7224 20.693 34.7224Z" fill="#275E76"/>
<path d="M1.08277 32.3145L14.1995 19.1978L19.4345 24.4328L6.31789 37.5495C5.59624 38.2712 4.64827 38.632 3.70037 38.632C2.75248 38.632 1.8045 38.2713 1.08285 37.5495C-0.360529 36.1062 -0.360529 33.7578 1.08277 32.3145Z" fill="#275E76"/>
<path d="M14.1821 15.7035L22.9107 6.97484L31.6539 15.718L22.9252 24.4466L14.1821 15.7035Z" fill="#275E76"/>
<path d="M36.0171 16.5801L37.7718 18.3348C38.2524 18.8154 38.2524 19.5944 37.7718 20.075L27.2871 30.5597C27.0468 30.7999 26.7319 30.9201 26.4171 30.9201C26.1022 30.9201 25.7872 30.8 25.547 30.5597L23.7923 28.805C23.3118 28.3244 23.3118 27.5454 23.7923 27.0648L34.2769 16.5802C34.7575 16.0996 35.5366 16.0996 36.0171 16.5801Z" fill="#275E76"/>
<path d="M11.5675 14.8399C11.087 15.3205 10.3079 15.3205 9.82734 14.8399L8.07265 13.0852C7.5921 12.6047 7.5921 11.8256 8.07265 11.3451L18.5573 0.860383C19.0376 0.379913 19.8168 0.379831 20.2974 0.860383L22.0521 2.61508C22.5327 3.09563 22.5327 3.8747 22.0521 4.35525L11.5675 14.8399Z" fill="#275E76"/>
</g>
<defs>
<clipPath id="clip0_28_80">
<rect width="42" height="42" fill="white" transform="translate(0 0.5)"/>
</clipPath>
</defs>
</svg>
