<svg width="536" height="518" viewBox="0 0 536 518" fill="none" xmlns="http://www.w3.org/2000/svg">
<path d="M214.925 111.052C169.31 147.348 116.838 199.113 116.838 254.449C117.136 310.082 169.907 369.286 234.006 396.954C298.106 424.621 373.534 420.754 422.727 387.433C472.218 354.41 495.472 291.935 501.733 234.219C507.994 176.8 496.963 123.845 466.851 91.4168C437.037 58.9889 387.845 46.4937 343.721 50.6588C299.596 54.8238 260.838 75.0541 214.925 111.052Z" fill="#FAFAFA"/>
<path d="M124.954 114.101C119.782 117.392 110.942 127.064 105.342 135.958C98.2757 147.179 95.6748 160.392 95.6748 162.968M135.253 117.392C132.561 120.97 127.325 123.581 120.469 133.551C113.613 143.522 111.902 149.134 110.155 152.461M109.386 157.451L105.675 169.929" stroke="#BCC1D2" stroke-linecap="round"/>
<path d="M211.148 23.2068C223.536 20.5429 252.786 16.8133 270.688 23.2068M211.148 37.1928C220.339 34.662 240.879 30.5595 249.51 34.3956" stroke="#BCC1D2" stroke-linecap="round"/>
<path d="M474.74 183.085C478.814 196.665 486.263 225.452 483.469 231.97M489.871 183.085C495.497 201.126 505.817 240.234 502.092 252.339M499.182 169.118C503.45 181.534 511.753 207.993 510.822 214.511" stroke="#BCC1D2" stroke-linecap="round"/>
<path d="M396.807 61.7571C408.372 61.6178 433.677 65.6031 442.373 82.659M384.684 75.9704C392.487 75.2737 411.522 77.3918 425.233 91.4378M428.578 82.659C432.201 85.0279 440.032 91.5215 442.373 98.5445" stroke="#BCC1D2" stroke-linecap="round"/>
<path d="M272.667 518C140.337 518 33.0635 511.745 33.0635 504.03C33.0635 496.315 140.337 490.06 272.667 490.06C404.996 490.06 512.27 496.315 512.27 504.03C512.27 511.745 404.996 518 272.667 518Z" fill="#EDF2F9"/>
<path d="M240.537 208.318L240.117 208.824L239.549 209.478C239.141 209.91 238.745 210.366 238.313 210.786C237.46 211.674 236.533 212.538 235.594 213.415C233.717 215.143 231.75 216.77 229.699 218.289C227.611 219.844 225.411 221.263 223.212 222.67C221.976 223.337 220.963 224.04 219.801 224.682L217.119 226.163C216.73 226.334 216.291 226.361 215.884 226.237C215.019 225.978 210.051 221.066 208.469 219.239C204.959 215.229 199.646 209.947 196.779 205.455L193.578 209.86C195.601 215.364 198.286 220.602 201.573 225.459C203.341 228.085 205.462 230.456 207.876 232.506C209.325 233.725 210.96 234.704 212.72 235.406C214.95 236.295 217.4 236.48 219.739 235.937C220.344 235.79 220.935 235.591 221.506 235.344L222.618 234.863L224.62 233.95C225.967 233.357 227.265 232.642 228.575 231.988C231.194 230.592 233.735 229.055 236.187 227.384C238.659 225.687 241.032 223.849 243.293 221.88C244.467 220.856 245.517 219.819 246.592 218.696C247.124 218.141 247.668 217.561 248.187 216.956L248.953 216.018C249.237 215.673 249.447 215.414 249.83 214.883L240.537 208.318Z" fill="#FCB58A"/>
<path d="M197.285 206.133L191.551 193.891L186.077 203.69C186.077 203.69 189.673 209.86 193.578 209.86L197.285 206.133Z" fill="#FCB58A"/>
<path d="M185.001 192L181.501 193.5L179.268 196.236L186.028 203.678L191.502 193.891L188.277 191.349L185.001 192Z" fill="#FCB58A"/>
<path d="M172.709 197.531L167.654 185.26L172.348 180.827L176.603 189.885L189.931 182.626L190.208 188.861L172.709 197.531ZM195.018 181.048L192.531 184.733C192.409 183.041 191.87 181.323 190.901 179.58C189.836 177.666 188.142 176.089 185.819 174.852C183.494 173.613 181.066 173.006 178.533 173.03C176 173.053 173.624 173.746 171.408 175.108C169.19 176.469 167.344 178.536 165.867 181.308C164.39 184.081 163.701 186.727 163.8 189.245C163.898 191.764 164.636 194.026 166.012 196.029C167.388 198.032 169.238 199.654 171.562 200.892C173.044 201.682 174.477 202.178 175.861 202.382C177.245 202.584 178.536 202.599 179.735 202.424C180.934 202.25 181.977 202.004 182.866 201.689C183.153 201.587 183.407 201.487 183.644 201.387L181.496 205.421L187.085 208.398L200.187 183.801L195.018 181.048Z" fill="#275E76"/>
<path d="M187.559 202.11L185.94 201.283C185.116 200.865 184.355 200.333 183.679 199.704L183.382 198.63C183.555 198.344 183.815 198.122 184.125 197.995C184.434 197.868 184.776 197.844 185.1 197.927L186.447 198.297L193.132 198.803L193.293 201.617L191.34 204.628H190.673C189.937 204.654 189.217 204.413 188.645 203.951C188.072 203.488 187.687 202.834 187.559 202.11Z" fill="#FCB58A"/>
<path d="M252.202 196.409C247.568 195.57 214.882 223.867 214.882 223.867L224.57 238.059C224.57 238.059 260.309 213.205 259.172 207.207C258.072 200.901 258.949 197.643 252.202 196.409Z" fill="#E52650"/>
<path opacity="0.3" d="M252.203 196.409C247.569 195.57 214.883 223.867 214.883 223.867L224.571 238.059C224.571 238.059 260.31 213.205 259.173 207.207C258.073 200.901 258.95 197.643 252.203 196.409Z" fill="white"/>
<path opacity="0.2" d="M248.075 205.455L248.434 220.264C244.726 223.139 231.331 233.394 231.331 233.394L248.075 205.455Z" fill="black"/>
<path d="M273.989 490.505L263.028 491.578L259.543 466.193L270.517 465.119L273.989 490.505Z" fill="#FFB573"/>
<path d="M381.909 341.55L384.714 352.213L360.999 362.418L356.081 351.596L381.909 341.55Z" fill="#FFB573"/>
<path d="M255.18 493.824C254.237 493.94 253.282 493.731 252.474 493.232C252.299 493.08 252.163 492.889 252.078 492.674C251.992 492.46 251.958 492.228 251.98 491.998C251.98 491.854 252.019 491.712 252.093 491.588C252.167 491.465 252.273 491.363 252.4 491.294C253.722 490.505 258.195 492.627 258.702 492.862C258.751 492.884 258.791 492.921 258.817 492.968C258.844 493.014 258.855 493.068 258.85 493.121C258.843 493.175 258.819 493.226 258.782 493.266C258.744 493.306 258.694 493.333 258.64 493.343C257.504 493.608 256.346 493.769 255.18 493.824ZM253.191 491.615C253.018 491.602 252.846 491.641 252.696 491.726C252.644 491.753 252.601 491.794 252.57 491.844C252.54 491.894 252.523 491.952 252.523 492.01C252.51 492.164 252.533 492.32 252.591 492.463C252.649 492.607 252.74 492.735 252.857 492.837C253.537 493.417 255.328 493.466 257.8 492.997C256.342 492.27 254.771 491.799 253.154 491.603L253.191 491.615Z" fill="#F8DB8B"/>
<path d="M258.591 493.294H258.492C257.158 492.738 254.476 490.443 254.649 489.184C254.697 488.965 254.819 488.77 254.995 488.631C255.17 488.491 255.389 488.417 255.613 488.419C255.87 488.371 256.135 488.38 256.389 488.443C256.642 488.507 256.88 488.625 257.083 488.789C258.505 489.888 258.838 492.862 258.863 492.973C258.875 493.018 258.875 493.065 258.864 493.11C258.854 493.155 258.832 493.197 258.801 493.232C258.772 493.256 258.739 493.274 258.703 493.285C258.666 493.295 258.628 493.298 258.591 493.294ZM255.86 488.888H255.712C255.23 488.962 255.205 489.147 255.205 489.209C255.094 489.962 256.923 491.788 258.294 492.516C258.163 491.265 257.635 490.089 256.787 489.159C256.512 488.961 256.171 488.877 255.835 488.925L255.86 488.888Z" fill="#F8DB8B"/>
<path d="M263.571 487.16L273.457 487.58C273.67 487.582 273.875 487.662 274.033 487.806C274.19 487.949 274.289 488.145 274.31 488.357L276.683 502.142C276.696 502.376 276.663 502.611 276.585 502.833C276.507 503.054 276.385 503.258 276.228 503.432C276.07 503.607 275.88 503.748 275.667 503.849C275.455 503.949 275.225 504.007 274.99 504.018H274.792C270.479 503.796 268.403 503.475 262.941 503.29C259.592 503.179 249.347 504.388 244.775 503.351C240.203 502.315 241.068 497.786 243.033 497.823C249.385 497.946 256.713 493.812 260.333 488.974C260.964 488.567 262.879 487.123 263.571 487.16Z" fill="#09005C"/>
<path d="M379.672 353.607L374.63 345.055C374.516 344.874 374.474 344.657 374.513 344.446C374.552 344.236 374.669 344.048 374.84 343.919L385.122 334.454C385.504 334.185 385.976 334.075 386.438 334.149C386.9 334.223 387.314 334.474 387.593 334.849L387.704 335.022C389.855 338.724 390.707 340.674 393.512 345.351C395.243 348.226 401.842 356.211 403.399 360.567C404.956 364.924 400.729 366.738 399.691 365.035C396.342 359.629 388.891 355.73 382.835 355.261C382.255 355.039 380.018 354.212 379.672 353.607Z" fill="#09005C"/>
<path opacity="0.2" d="M259.543 466.193L261.335 479.287L272.309 478.213L270.529 465.132L259.543 466.193Z" fill="black"/>
<path opacity="0.2" d="M348.79 354.237L353.857 365.652L369.131 358.914L365.238 348.041L348.79 354.237Z" fill="black"/>
<path d="M245.195 209.428C238.93 220.066 246.592 229.038 252.993 260.828L294.292 260.939C293.625 243.81 293.699 229.964 301.015 196.261C301.205 195.43 301.205 194.568 301.014 193.737C300.823 192.907 300.447 192.131 299.913 191.466C299.38 190.802 298.702 190.266 297.932 189.9C297.162 189.533 296.319 189.345 295.466 189.35C292.056 189.35 287.768 189.461 283.405 189.905C276.525 190.467 269.691 191.502 262.953 193.003C259.299 193.883 255.708 195.004 252.202 196.359C250.077 197.075 247.519 202.851 245.195 209.428Z" fill="#E52650"/>
<path opacity="0.5" d="M245.195 209.428C238.93 220.066 246.592 229.038 252.993 260.828L294.292 260.939C293.625 243.81 293.699 229.964 301.015 196.261C301.205 195.43 301.205 194.568 301.014 193.737C300.823 192.907 300.447 192.131 299.913 191.466C299.38 190.802 298.702 190.266 297.932 189.9C297.162 189.533 296.319 189.345 295.466 189.35C292.056 189.35 287.768 189.461 283.405 189.905C276.525 190.467 269.691 191.502 262.953 193.003C259.299 193.883 255.708 195.004 252.202 196.359C250.077 197.075 247.519 202.851 245.195 209.428Z" fill="white"/>
<path d="M251.461 262.976C251.461 262.976 228.266 329.95 228.822 362.159C229.143 380.609 230.54 414.991 236.113 439.166C240.661 458.912 259.197 471.5 259.197 471.5L274.026 470.623C274.026 470.623 282.059 440.512 280.662 428.529C277.882 404.674 269.639 386.755 270.64 364.85C272.222 328.987 282.85 262.42 282.85 262.42L251.461 262.976Z" fill="#F8DB8B"/>
<path d="M277.004 474.486L256.058 475.72L254.155 469.439L277.561 467.279L277.004 474.486Z" fill="#E7AA29"/>
<path opacity="0.15" d="M274.359 398.281C274.359 398.281 274.359 398.158 274.236 398.17C261.075 399.404 251.992 380.486 254.155 354.582L261.137 288.558L274.359 398.281Z" fill="black"/>
<path d="M261.866 262.42C261.866 262.42 243.428 380.189 281.762 393.443C301.991 401.095 319.008 392.802 339.163 383.892C350.817 378.745 365.374 364.813 365.374 364.813L359.776 349.596C349.708 346.877 339.173 346.347 328.882 348.041C309.233 351.077 308.405 356.68 301.423 352.447C286.742 316.214 312.001 287.571 294.836 262.359L261.866 262.42Z" fill="#F8DB8B"/>
<path d="M358.676 346.708L366.165 366.442L360.654 370.65L351.756 347.165L358.676 346.708Z" fill="#E7AA29"/>
<path d="M361.766 240.293C363.632 243.045 373.098 241.182 373.098 241.182L375.112 229.47L363.484 234.123L361.766 240.293Z" fill="#FCB58A"/>
<path d="M372.764 228.865L370.96 241.033L377.942 242.07C378.32 242.104 378.698 241.997 379.002 241.769C379.306 241.541 379.514 241.209 379.586 240.836L382.267 232.197C382.313 231.996 382.279 231.786 382.173 231.609C382.068 231.432 381.898 231.302 381.699 231.247L372.764 228.865Z" fill="#FCB58A"/>
<path d="M375.89 234.382L371.911 235.085L368.142 232.259L369.6 231.222C370.588 230.52 371.283 229.479 371.552 228.298C371.833 227.06 372.002 225.801 372.059 224.534V224.114C372.107 223.742 372.275 223.396 372.538 223.128C372.802 222.861 373.145 222.687 373.517 222.633L374.506 223.361C375.124 224.706 374.679 226.274 374.753 227.323L374.914 229.359L376.508 230.05L375.89 234.382Z" fill="#FCB58A"/>
<path d="M299.026 193.941L322.407 226.027L365.35 234.493V241.527C365.35 241.527 324.989 244.514 315.919 239.244C306.848 233.974 291.636 202.012 291.636 202.012L299.026 193.941Z" fill="#FCB58A"/>
<path d="M299.297 132.236C309.109 128.954 320.491 135.038 324.976 144.343C329.462 153.648 327.893 165.063 322.838 174.072C321.319 176.799 319.502 179.366 318.254 182.217C316.867 185.043 316.563 188.278 317.401 191.312C318.414 194.262 319.452 196.15 323.11 195.681C323.11 195.681 323.11 193.657 321.714 193.904C321.714 193.904 324.68 195.545 325.841 194.471C324.494 196.545 320.898 195.792 319.749 193.595C318.031 190.325 321.195 185.894 324.902 185.931C328.61 185.968 331.625 189.72 331.501 193.41C331.347 195.256 330.689 197.024 329.6 198.522C328.511 200.021 327.031 201.194 325.322 201.913C326.324 202.078 327.352 201.907 328.246 201.427C329.141 200.947 329.851 200.185 330.265 199.26C328.585 203.653 323.098 205.59 318.464 204.727C313.83 203.863 309.912 200.901 306.279 197.902C301.336 193.854 296.282 188.733 296.393 182.402C296.504 177.675 299.544 173.615 302.102 169.629C304.66 165.643 306.897 160.781 305.266 156.35C303.894 152.586 300.162 150.316 296.875 148.02C294.502 146.379 289.683 142.714 290.251 139.246C290.832 135.938 296.517 133.162 299.297 132.236Z" fill="#09005C"/>
<path d="M321.405 242.07L327.881 224.953L326.398 225.077C325.198 225.177 323.995 224.93 322.932 224.366C321.869 223.801 320.992 222.942 320.404 221.893C315.461 213.106 302.696 190.806 299.1 189.695C293.971 188.177 288.695 192.275 286.742 198.334C285.272 202.789 300.336 221.893 307.281 232.753C313.447 242.366 321.405 242.07 321.405 242.07Z" fill="#E52650"/>
<path opacity="0.3" d="M321.405 242.07L327.881 224.953L326.398 225.077C325.198 225.177 323.995 224.93 322.932 224.366C321.869 223.801 320.992 222.942 320.404 221.893C315.461 213.106 302.696 190.806 299.1 189.695C293.971 188.177 288.695 192.275 286.742 198.334C285.272 202.789 300.336 221.893 307.281 232.753C313.447 242.366 321.405 242.07 321.405 242.07Z" fill="white"/>
<path d="M384.566 359.234V359.37C384.475 359.608 384.325 359.818 384.13 359.982C383.936 360.146 383.703 360.258 383.454 360.308C383.304 360.355 383.144 360.363 382.991 360.33C382.837 360.298 382.694 360.227 382.576 360.123C381.538 359.173 382.205 355.187 382.267 354.792C382.274 354.74 382.297 354.693 382.332 354.655C382.368 354.617 382.414 354.592 382.465 354.582C382.513 354.576 382.562 354.582 382.607 354.599C382.652 354.616 382.692 354.644 382.724 354.681C383.565 355.865 384.899 357.976 384.566 359.234ZM382.663 355.532C382.44 357.112 382.341 359.234 382.922 359.753C382.983 359.786 383.051 359.804 383.12 359.804C383.189 359.804 383.257 359.786 383.318 359.753C383.484 359.722 383.639 359.649 383.769 359.541C383.899 359.433 383.999 359.293 384.059 359.136C384.281 358.469 383.812 357.112 382.663 355.508V355.532Z" fill="#F8DB8B"/>
<path d="M382.65 355.31C382.329 356.643 381.069 358.914 379.956 359.185C379.754 359.226 379.543 359.197 379.359 359.103C379.175 359.009 379.029 358.855 378.943 358.667C378.846 358.491 378.79 358.296 378.777 358.095C378.764 357.895 378.795 357.694 378.869 357.507C379.376 355.977 382.292 354.718 382.416 354.656C382.455 354.634 382.5 354.623 382.545 354.623C382.591 354.623 382.635 354.634 382.675 354.656C382.711 354.685 382.74 354.723 382.757 354.767C382.774 354.81 382.78 354.857 382.774 354.903C382.744 355.042 382.702 355.178 382.65 355.31ZM379.289 357.778C379.264 357.887 379.261 358 379.28 358.11C379.299 358.221 379.34 358.326 379.4 358.42C379.561 358.716 379.722 358.716 379.845 358.692C380.599 358.543 381.748 356.68 382.119 355.384C381.168 355.865 379.648 356.766 379.326 357.704C379.335 357.728 379.335 357.754 379.326 357.778H379.289Z" fill="#F8DB8B"/>
<path d="M294.441 258.854L295.59 262.864C295.739 263.173 295.38 263.494 294.861 263.482H252.227C251.819 263.482 251.486 263.272 251.461 263.025L251.066 259.014C251.066 258.743 251.387 258.496 251.832 258.508H293.724C293.864 258.497 294.003 258.524 294.129 258.584C294.255 258.645 294.363 258.738 294.441 258.854Z" fill="white"/>
<path opacity="0.5" d="M294.441 258.854L295.59 262.864C295.739 263.173 295.38 263.494 294.861 263.482H252.227C251.819 263.482 251.486 263.272 251.461 263.025L251.066 259.014C251.066 258.743 251.387 258.496 251.832 258.508H293.724C293.864 258.497 294.003 258.524 294.129 258.584C294.255 258.645 294.363 258.738 294.441 258.854Z" fill="white"/>
<path d="M286.261 263.852H287.496C287.731 263.852 287.929 263.728 287.904 263.58L287.348 258.36C287.348 258.212 287.113 258.089 286.866 258.089H285.63C285.396 258.089 285.21 258.212 285.223 258.372L285.779 263.58C285.853 263.728 286.075 263.864 286.261 263.852Z" fill="#F8DB8B"/>
<path opacity="0.15" d="M286.261 263.852H287.496C287.731 263.852 287.929 263.728 287.904 263.58L287.348 258.36C287.348 258.212 287.113 258.089 286.866 258.089H285.63C285.396 258.089 285.21 258.212 285.223 258.372L285.779 263.58C285.853 263.728 286.075 263.864 286.261 263.852Z" fill="black"/>
<path d="M255.527 263.852H256.763C256.985 263.852 257.183 263.728 257.158 263.58L256.602 258.372C256.602 258.212 256.38 258.089 256.145 258.089H254.909C254.674 258.089 254.476 258.212 254.501 258.36L255.057 263.568C255.082 263.728 255.28 263.852 255.527 263.852Z" fill="#F8DB8B"/>
<path opacity="0.15" d="M255.527 263.852H256.763C256.985 263.852 257.183 263.728 257.158 263.58L256.602 258.372C256.602 258.212 256.38 258.089 256.145 258.089H254.909C254.674 258.089 254.476 258.212 254.501 258.36L255.057 263.568C255.082 263.728 255.28 263.852 255.527 263.852Z" fill="black"/>
<path d="M269.627 263.827H270.863C271.097 263.827 271.295 263.704 271.27 263.556L270.714 258.348C270.714 258.187 270.479 258.064 270.245 258.064H269.009C268.774 258.064 268.589 258.187 268.601 258.335L269.17 263.543C269.17 263.704 269.38 263.827 269.627 263.827Z" fill="#F8DB8B"/>
<path opacity="0.15" d="M269.627 263.827H270.863C271.097 263.827 271.295 263.704 271.27 263.556L270.714 258.348C270.714 258.187 270.479 258.064 270.245 258.064H269.009C268.774 258.064 268.589 258.187 268.601 258.335L269.17 263.543C269.17 263.704 269.38 263.827 269.627 263.827Z" fill="black"/>
<path d="M281.478 167.445C280.168 174.171 278.883 186.314 283.455 189.967C283.455 189.967 281.626 196.865 269.404 198.704C255.91 200.728 262.991 193.052 262.991 193.052C270.344 190.152 270.158 184.845 268.898 179.958L281.478 167.445Z" fill="#FCB58A"/>
<path d="M283.406 189.905C276.885 190.318 270.404 191.217 264.017 192.595L254.773 195.348C253.13 198.655 255.824 205.455 263.56 206.751C263.56 206.751 283.048 209.428 288.794 189.387L283.406 189.905Z" fill="#FCB58A"/>
<path d="M276.374 172.566L268.959 179.971C269.271 181.117 269.474 182.291 269.564 183.476C272.382 182.649 276.905 179.551 277.214 176.589C277.211 175.205 276.925 173.836 276.374 172.566Z" fill="#EB996E"/>
<path d="M289.733 158.954C286.421 169.395 285.259 173.887 278.475 177.996C268.366 184.167 256.231 177.848 256.355 166.643C256.453 156.548 261.829 141.171 273.309 139.493C275.833 139.115 278.411 139.388 280.799 140.287C283.187 141.186 285.304 142.68 286.951 144.627C288.597 146.574 289.717 148.909 290.204 151.41C290.691 153.912 290.529 156.496 289.733 158.917V158.954Z" fill="#FCB58A"/>
<path d="M293.329 138.11C294.691 138.99 295.821 140.183 296.625 141.59C297.43 142.997 297.884 144.575 297.95 146.194C298.007 146.813 297.909 147.436 297.666 148.008C297.544 148.291 297.35 148.537 297.103 148.721C296.855 148.905 296.564 149.021 296.257 149.057C295.318 149.057 294.626 148.218 294.107 147.428L291.71 143.726C290.723 142.523 289.892 141.2 289.238 139.789C288.435 137.358 291.858 137.173 293.329 138.11Z" fill="#F85988"/>
<path d="M292.155 140.566C298.717 148.144 301.658 169.111 282.43 174.96C279.217 172.418 284.407 167.79 286.606 161.941C288.052 158.115 280.724 150.97 277.87 148.033C275.015 145.095 272.383 140.862 268.354 141.541C267.332 141.883 266.23 141.913 265.191 141.628C261.99 140.184 263.547 138.271 265.191 136.938C267.711 135.075 270.713 133.97 273.841 133.754C277.216 133.357 280.637 133.768 283.821 134.952C287.006 136.137 289.863 138.061 292.155 140.566Z" fill="#09005C"/>
<path d="M270.813 138.024C263.089 144.454 273.284 144.614 278.685 148.687C283.863 152.599 280.229 159.004 288.991 161.978C296.146 164.063 297.802 162.805 299.779 161.422C297.329 160.999 295.088 159.778 293.405 157.95C291.722 156.122 290.691 153.789 290.474 151.315C289.868 146.626 279.636 130.57 270.813 138.024Z" fill="#09005C"/>
<path d="M290.894 167.729C289.684 169.469 287.838 170.666 285.754 171.061C282.986 171.542 281.923 169.012 282.874 166.544C283.776 164.322 286.285 161.398 288.967 162.027C289.889 162.265 290.678 162.859 291.163 163.678C291.647 164.497 291.786 165.474 291.549 166.396C291.423 166.88 291.201 167.333 290.894 167.729Z" fill="#FCB58A"/>
<path d="M272.135 138.678C270.64 142.479 266.327 141.973 263.139 145.947C261.174 148.415 257.318 140.801 262.57 137.802C267.822 134.803 274.483 132.73 272.135 138.678Z" fill="#09005C"/>
<path d="M209.816 217.734L217.057 221.843L224.583 238.01C224.583 238.01 217.317 242.625 211.583 238.886C205.849 235.147 209.816 217.734 209.816 217.734Z" fill="#E52650"/>
<path opacity="0.5" d="M209.816 217.734L217.057 221.843L224.583 238.01C224.583 238.01 217.317 242.625 211.583 238.886C205.849 235.147 209.816 217.734 209.816 217.734Z" fill="white"/>
<path d="M336.445 222.732L327.881 225.2L319.762 241.971C319.762 241.971 326.287 248.006 333.355 242.243C338.645 237.874 336.445 222.732 336.445 222.732Z" fill="#E52650"/>
<path opacity="0.5" d="M336.445 222.732L327.881 225.2L319.762 241.971C319.762 241.971 326.287 248.006 333.355 242.243C338.645 237.874 336.445 222.732 336.445 222.732Z" fill="white"/>
<path d="M323.753 203.702C324.917 203.709 326.071 203.491 327.152 203.061C330.983 201.493 332.762 197.519 332.095 192.139C332.073 191.977 331.988 191.83 331.859 191.731C331.729 191.631 331.565 191.587 331.403 191.608C331.322 191.617 331.244 191.643 331.173 191.683C331.102 191.722 331.04 191.776 330.99 191.841C330.94 191.905 330.904 191.979 330.884 192.058C330.864 192.137 330.859 192.219 330.872 192.299C331.514 197.075 330.006 200.58 326.732 201.913C324.831 202.563 322.773 202.595 320.853 202.005C318.933 201.416 317.249 200.234 316.042 198.63C312.941 194.508 313.954 188.659 318.786 182.587C331.44 166.729 330.6 158.3 328.808 151.636C326.213 141.961 318.613 130.879 297.11 133.014C296.946 133.03 296.796 133.111 296.692 133.238C296.587 133.365 296.538 133.529 296.554 133.692C296.571 133.856 296.651 134.007 296.779 134.111C296.906 134.215 297.07 134.264 297.234 134.248C317.859 132.199 325.15 142.763 327.621 151.969C329.401 158.633 330.093 166.42 317.822 181.834C310.407 191.127 313.41 197.211 315.054 199.383C316.082 200.713 317.399 201.793 318.906 202.541C320.413 203.29 322.071 203.687 323.753 203.702Z" fill="#09005C"/>
<path d="M73.0066 292.248L75.582 296.751L74.7508 297.225L72.1754 292.723L73.0066 292.248Z" fill="#F8DB8B"/>
<path d="M59.2057 268.095L69.7529 286.535L68.9218 287.009L58.3746 268.569L59.2057 268.095Z" fill="#F8DB8B"/>
<path d="M56.2139 258.071L109.731 236.688L120.134 278.579C121.28 283.19 120.718 288.058 118.551 292.284C116.384 296.511 112.758 299.81 108.344 301.573L102.068 304.08C97.6541 305.845 92.7493 305.954 88.2592 304.387C83.7692 302.821 79.9973 299.685 77.6401 295.558L56.2139 258.071Z" fill="#F8DB8B"/>
<path d="M84.2577 250.445C69.4756 256.352 56.9405 259.765 56.2597 258.066C55.5789 256.368 67.0102 250.202 81.7923 244.295C96.5744 238.387 109.11 234.974 109.79 236.673C110.471 238.371 99.0398 244.537 84.2577 250.445Z" fill="#CF7A64"/>
<path d="M67.8757 234.128C82.39 224.444 63.5968 195.165 43.5965 175.736C23.3436 156.088 14.6653 153.837 6.94713 157.786C-0.947024 161.837 19.1905 185.004 29.8675 200.007C40.5446 215.011 51.0366 245.37 67.8757 234.128Z" fill="#2D7627"/>
<path opacity="0.4" d="M67.8757 234.128C82.39 224.444 63.5968 195.165 43.5965 175.736C23.3436 156.088 14.6653 153.837 6.94713 157.786C-0.947024 161.837 19.1905 185.004 29.8675 200.007C40.5446 215.011 51.0366 245.37 67.8757 234.128Z" fill="white"/>
<path d="M76.1265 251.144C76.2278 251.103 76.3089 251.024 76.3518 250.924C76.3948 250.824 76.3961 250.711 76.3555 250.609C64.8745 222.461 41.3343 183.831 20.4184 167.666C20.3305 167.597 20.2191 167.566 20.1085 167.58C19.9979 167.593 19.8971 167.649 19.8282 167.737C19.764 167.824 19.7362 167.933 19.7505 168.041C19.7648 168.148 19.8201 168.246 19.9049 168.314C40.7337 184.391 64.1317 222.872 75.5646 250.925C75.5866 250.977 75.6187 251.024 75.6591 251.063C75.6994 251.102 75.7472 251.133 75.7995 251.153C75.8519 251.173 75.9078 251.183 75.9639 251.181C76.0201 251.18 76.0753 251.167 76.1265 251.144Z" fill="#EB996E"/>
<path d="M57.9139 205.002C61.6481 205.88 64.8213 204.972 67.4729 206.211C73.2005 216.844 75.2347 226.624 70.0694 232.284C66.7011 230.827 59.7865 214.97 57.9139 205.002Z" fill="#EB996E"/>
<path d="M51.3459 188.156C58.7392 205.027 62.7647 236.877 81.5529 229.318C97.7636 222.84 85.394 190.316 69.7566 167.208C53.9378 143.853 41.3893 134.441 33.0274 136.732C29.6197 137.671 30.6594 143.325 33.6097 150.863C39.0633 149.189 40.9483 149.878 40.9483 149.878C38.8673 151.171 36.8601 152.578 34.936 154.094C39.5951 165.123 47.3031 178.921 51.3459 188.156Z" fill="#2D7627"/>
<path d="M92.8715 232.374C81.0793 233.263 78.8006 209.833 81.3522 191.119C83.9215 172.193 87.5871 167.369 93.3602 166.258C99.1332 165.146 98.2328 185.869 98.8338 198.324C99.4348 210.78 106.563 231.334 92.8715 232.374Z" fill="#2D7627"/>
<path opacity="0.4" d="M92.8715 232.374C81.0793 233.263 78.8006 209.833 81.3522 191.119C83.9215 172.193 87.5871 167.369 93.3602 166.258C99.1332 165.146 98.2328 185.869 98.8338 198.324C99.4348 210.78 106.563 231.334 92.8715 232.374Z" fill="white"/>
<path d="M95.6937 244.999C95.788 244.96 95.8647 244.887 95.9095 244.795C95.9543 244.703 95.964 244.598 95.937 244.5C90.2826 224.79 86.6348 194.552 91.0076 177.348C91.0218 177.295 91.025 177.239 91.0171 177.184C91.0093 177.13 90.9905 177.077 90.962 177.03C90.9334 176.983 90.8956 176.942 90.8509 176.909C90.8062 176.877 90.7554 176.854 90.7015 176.842C90.649 176.828 90.594 176.824 90.5401 176.832C90.4862 176.839 90.4344 176.858 90.3879 176.886C90.3413 176.914 90.3011 176.952 90.2694 176.996C90.2378 177.04 90.2155 177.09 90.2039 177.144C85.8258 194.514 89.4702 224.95 95.1549 244.761C95.1674 244.814 95.1908 244.864 95.2236 244.907C95.2564 244.95 95.2978 244.987 95.3453 245.013C95.3928 245.04 95.4453 245.056 95.4995 245.061C95.5536 245.067 95.6083 245.06 95.66 245.043L95.6937 244.999Z" fill="#EB996E"/>
<path d="M86.2048 247.646C86.2955 247.612 86.3712 247.546 86.4183 247.462C86.4654 247.377 86.481 247.278 86.4622 247.183C80.9957 217.293 65.9097 174.67 48.7179 154.566C48.6453 154.484 48.5436 154.434 48.4344 154.426C48.3252 154.417 48.2172 154.452 48.1331 154.522C48.0914 154.557 48.0572 154.6 48.0324 154.649C48.0076 154.697 47.9927 154.75 47.9886 154.805C47.9845 154.859 47.9913 154.914 48.0085 154.965C48.0257 155.017 48.0531 155.065 48.089 155.106C65.1723 175.067 80.1978 217.54 85.6465 247.334C85.6561 247.387 85.6762 247.439 85.7058 247.485C85.7354 247.53 85.7738 247.57 85.8188 247.601C85.8638 247.632 85.9145 247.653 85.9679 247.665C86.0214 247.676 86.0766 247.676 86.1302 247.666L86.2048 247.646Z" fill="#EB996E"/>
<path d="M35.2232 183.013C35.2897 182.984 35.3483 182.94 35.3941 182.884C35.4399 182.828 35.4715 182.762 35.4862 182.691C35.5007 182.582 35.4727 182.471 35.4082 182.382C35.3436 182.293 35.2473 182.232 35.1391 182.211C30.2934 181.447 24.5778 183.504 24.3431 183.587C24.2562 183.638 24.1905 183.719 24.158 183.814C24.1254 183.909 24.1282 184.013 24.1656 184.107C24.2031 184.2 24.2729 184.277 24.3623 184.324C24.4518 184.37 24.5549 184.383 24.653 184.36C24.7064 184.339 30.4042 182.289 35.0328 183.027C35.0966 183.036 35.1615 183.031 35.2232 183.013Z" fill="#EB996E"/>
<path d="M49.9348 202.57C50.0151 202.536 50.083 202.478 50.1291 202.405C50.1752 202.331 50.1973 202.244 50.1923 202.158C50.0496 199.171 49.555 196.21 48.7188 193.339C48.7011 193.287 48.6734 193.24 48.6374 193.2C48.6015 193.159 48.5579 193.127 48.5091 193.103C48.4604 193.079 48.4075 193.066 48.3534 193.062C48.2994 193.059 48.2453 193.067 48.1942 193.085C48.1422 193.101 48.0942 193.128 48.053 193.164C48.0119 193.199 47.9784 193.243 47.9546 193.292C47.9309 193.341 47.9173 193.394 47.9149 193.449C47.9124 193.503 47.921 193.558 47.9402 193.609C48.727 196.416 49.1927 199.303 49.3283 202.214C49.3357 202.323 49.3853 202.426 49.4666 202.499C49.548 202.572 49.6547 202.611 49.7641 202.607L49.9348 202.57Z" fill="#EB996E"/>
<path d="M163.681 111.812C163.84 111.981 164.037 112.11 164.256 112.188C164.475 112.265 164.709 112.29 164.939 112.259C165.17 112.229 165.389 112.144 165.58 112.012C165.771 111.879 165.928 111.704 166.037 111.499L207.081 45.0158C208.834 42.1772 191.86 31.7207 190.105 34.5636L149.044 101.073C148.91 101.262 148.824 101.481 148.791 101.711C148.758 101.94 148.781 102.174 148.857 102.394C148.933 102.613 149.06 102.811 149.228 102.971C149.396 103.131 149.6 103.25 149.823 103.316C153.757 104.172 161.133 108.719 163.681 111.812Z" fill="#2D7627"/>
<path opacity="0.2" d="M163.681 111.812C163.84 111.981 164.037 112.11 164.256 112.188C164.475 112.265 164.709 112.29 164.939 112.259C165.17 112.229 165.389 112.144 165.58 112.012C165.771 111.879 165.928 111.704 166.037 111.499L207.081 45.0158C208.834 42.1772 191.86 31.7207 190.105 34.5636L149.044 101.073C148.91 101.262 148.824 101.481 148.791 101.711C148.758 101.94 148.781 102.174 148.857 102.394C148.933 102.613 149.06 102.811 149.228 102.971C149.396 103.131 149.6 103.25 149.823 103.316C153.757 104.172 161.133 108.719 163.681 111.812Z" fill="white"/>
<path opacity="0.8" d="M150.337 103.416L175.153 63.2195C176.495 61.046 189.501 69.054 188.159 71.2275L163.34 111.429C160.654 108.491 154.173 104.5 150.337 103.416Z" fill="white"/>
<path opacity="0.6" d="M190.282 68.7428C190.441 68.9125 190.637 69.042 190.856 69.1205C191.074 69.1989 191.309 69.2241 191.539 69.1939C191.769 69.1636 191.989 69.0789 192.18 68.9467C192.37 68.8146 192.527 68.6387 192.636 68.434L207.09 45.021C208.843 42.1824 191.869 31.7259 190.114 34.5688L175.659 57.9818C175.525 58.1712 175.438 58.3899 175.406 58.6196C175.373 58.8493 175.396 59.0834 175.472 59.3026C175.548 59.5218 175.675 59.7198 175.843 59.8801C176.011 60.0404 176.215 60.1585 176.437 60.2246C180.356 61.1074 187.73 65.6474 190.282 68.7428Z" fill="#263238"/>
<path opacity="0.5" d="M184.123 45.5966C184.038 45.5946 183.956 45.5693 183.885 45.5236C183.814 45.4779 183.757 45.4135 183.72 45.3375C183.683 45.2615 183.668 45.1768 183.676 45.0927C183.684 45.0087 183.715 44.9285 183.766 44.861L186.222 40.8835C187.971 38.0492 204.948 48.5014 203.198 51.3356L200.732 55.3305C200.694 55.4062 200.636 55.4701 200.565 55.5151C200.493 55.5602 200.411 55.5847 200.326 55.5859C200.242 55.5872 200.158 55.5651 200.085 55.5222C200.013 55.4793 199.953 55.4171 199.913 55.3426C198.354 52.0007 187.798 45.5016 184.123 45.5966Z" fill="white"/>
<path opacity="0.5" d="M180.291 51.8039C180.206 51.8013 180.124 51.7756 180.053 51.7297C179.982 51.6838 179.925 51.6194 179.887 51.5435C179.85 51.4675 179.835 51.3829 179.842 51.2987C179.849 51.2145 179.88 51.1339 179.93 51.0656L182.385 47.0881C184.135 44.2539 201.111 54.7061 199.362 57.5403L196.906 61.5178C196.868 61.5926 196.81 61.6555 196.738 61.6996C196.667 61.7438 196.584 61.7676 196.5 61.7684C196.416 61.7692 196.334 61.747 196.261 61.7041C196.189 61.6613 196.13 61.5995 196.09 61.5255C194.522 58.2081 183.962 51.7063 180.291 51.8039Z" fill="white"/>
<path d="M120.506 88.3466C119.778 88.201 119.521 87.2895 119.977 86.5566L163.036 17.4031C164.492 15.0657 177.363 23.0585 175.908 25.396L132.848 94.5494C132.392 95.2823 131.455 95.4523 131.002 94.8644C129.125 92.4355 123.527 88.9595 120.506 88.3466Z" fill="#625FF8"/>
<path opacity="0.2" d="M120.506 88.3466C119.778 88.201 119.521 87.2895 119.977 86.5566L144.82 46.6587C146.278 44.3169 159.15 52.3097 157.691 54.6516L132.848 94.5494C132.392 95.2823 131.455 95.4523 131.002 94.8644C129.125 92.4355 123.527 88.9595 120.506 88.3466Z" fill="black"/>
<path opacity="0.8" d="M130.75 94.5635L155.463 54.8738C156.581 53.0784 146.719 46.9543 145.601 48.7497L120.888 88.4394C123.841 89.2089 128.753 92.2588 130.75 94.5635Z" fill="white"/>
<path opacity="0.2" d="M159.883 44.7379C160.344 45.2646 161.209 45.104 161.641 44.4102L171.649 28.3383C172.71 26.6339 163.334 20.8119 162.273 22.5162L152.265 38.5881C151.833 39.282 152.072 40.1275 152.753 40.31C154.909 40.861 158.431 43.048 159.883 44.7379Z" fill="white"/>
<path d="M148.333 98.9083C148.45 99.0474 148.598 99.1578 148.764 99.2311C148.931 99.3044 149.112 99.3386 149.294 99.3312C149.476 99.3237 149.654 99.2747 149.813 99.188C149.973 99.1013 150.111 98.9792 150.217 98.831L189.894 34.9502C191.134 32.9539 176.793 24.0709 175.553 26.0672L135.876 89.948C135.792 90.1061 135.745 90.281 135.739 90.4598C135.732 90.6385 135.766 90.8165 135.837 90.9804C135.909 91.1443 136.017 91.29 136.153 91.4066C136.288 91.5232 136.449 91.6077 136.622 91.6539C139.864 92.5864 146.091 96.4437 148.333 98.9083Z" fill="#275E76"/>
<path opacity="0.5" d="M148.333 98.9083C148.45 99.0474 148.598 99.1578 148.764 99.2311C148.931 99.3044 149.112 99.3386 149.294 99.3312C149.476 99.3237 149.654 99.2747 149.813 99.188C149.973 99.1013 150.111 98.9792 150.217 98.831L189.894 34.9502C191.134 32.9539 176.793 24.0709 175.553 26.0672L135.876 89.948C135.792 90.1061 135.745 90.281 135.739 90.4598C135.732 90.6385 135.766 90.8165 135.837 90.9804C135.909 91.1443 136.017 91.29 136.153 91.4066C136.288 91.5232 136.449 91.6077 136.622 91.6539C139.864 92.5864 146.091 96.4437 148.333 98.9083Z" fill="white"/>
<path opacity="0.8" d="M137.058 91.8037L161.131 53.0456C162.08 51.518 173.057 58.3175 172.108 59.8451L148.035 98.6032C145.697 96.2353 140.225 92.8463 137.058 91.8037Z" fill="white"/>
<path opacity="0.6" d="M173.66 58.1322C173.777 58.2713 173.925 58.3817 174.091 58.455C174.258 58.5283 174.439 58.5625 174.621 58.5551C174.802 58.5476 174.98 58.4986 175.14 58.4119C175.3 58.3252 175.438 58.2031 175.543 58.0549L189.894 34.9502C191.134 32.9539 176.793 24.0709 175.553 26.0672L161.203 49.1719C161.119 49.33 161.072 49.505 161.065 49.6837C161.059 49.8624 161.092 50.0404 161.164 50.2043C161.236 50.3682 161.343 50.5139 161.479 50.6305C161.615 50.7471 161.775 50.8316 161.948 50.8778C165.185 51.8189 171.412 55.6763 173.66 58.1322Z" fill="#275E76"/>
<path opacity="0.5" d="M167.54 41.3611C167.4 41.3368 167.267 41.28 167.153 41.1951C167.039 41.1103 166.946 40.9998 166.882 40.8726C166.818 40.7453 166.785 40.6049 166.785 40.4627C166.786 40.3204 166.82 40.1802 166.884 40.0533L172.356 31.2437C173.596 29.2474 187.937 38.1304 186.697 40.1267L181.225 48.9363C181.139 49.0502 181.028 49.1425 180.9 49.2057C180.772 49.269 180.631 49.3015 180.488 49.3007C180.346 49.2998 180.205 49.2657 180.078 49.201C179.951 49.1362 179.84 49.0427 179.756 48.9278C177.645 46.3881 170.748 42.1162 167.54 41.3611Z" fill="white"/>
<path d="M495.925 124.184L432.055 155.236C431.128 155.686 430.419 156.487 430.083 157.46C429.746 158.434 429.811 159.502 430.263 160.428L440.561 181.542C440.719 181.865 440.939 182.154 441.208 182.393C441.478 182.631 441.791 182.814 442.131 182.932C442.472 183.049 442.831 183.098 443.19 183.077C443.55 183.055 443.901 182.963 444.224 182.806L510.152 150.753C510.806 150.435 511.305 149.872 511.542 149.186C511.779 148.5 511.733 147.747 511.415 147.095L501.117 125.981C500.665 125.056 499.865 124.347 498.892 124.01C497.919 123.673 496.852 123.735 495.925 124.184Z" fill="#F85988"/>
<path opacity="0.3" d="M432.056 155.241L495.937 124.18C496.864 123.732 497.931 123.67 498.905 124.007C499.878 124.344 500.678 125.052 501.129 125.978L504.854 133.615C504.41 134.182 503.837 134.634 503.183 134.937C499.441 136.756 497.551 132.882 493.808 134.701C490.065 136.521 491.955 140.396 488.212 142.216C484.47 144.036 482.58 140.161 478.837 141.981C475.094 143.801 476.984 147.675 473.241 149.495C469.498 151.315 467.609 147.44 463.866 149.26C460.123 151.08 462.013 154.955 458.27 156.775C454.527 158.594 452.638 154.719 448.895 156.539C445.152 158.359 447.042 162.234 443.299 164.054C439.556 165.874 437.666 161.999 433.924 163.819C433.266 164.126 432.689 164.583 432.242 165.155L430.002 160.562C429.765 160.081 429.631 159.556 429.607 159.021C429.584 158.486 429.671 157.952 429.864 157.452C430.057 156.952 430.351 156.498 430.728 156.118C431.106 155.737 431.557 155.439 432.056 155.241Z" fill="white"/>
<path d="M470.273 110.504L437.092 126.636C435.129 127.59 433.626 129.285 432.914 131.347C432.203 133.409 432.34 135.67 433.297 137.631L440.006 151.385L487.976 128.063L481.268 114.309C480.312 112.35 478.618 110.849 476.557 110.136C474.495 109.422 472.235 109.555 470.273 110.504Z" fill="#F8DB8B"/>
<path opacity="0.5" d="M470.273 110.504L437.092 126.636C435.129 127.59 433.626 129.285 432.914 131.347C432.203 133.409 432.34 135.67 433.297 137.631L440.006 151.385L487.976 128.063L481.268 114.309C480.312 112.35 478.618 110.849 476.557 110.136C474.495 109.422 472.235 109.555 470.273 110.504Z" fill="white"/>
<path opacity="0.5" d="M470.274 110.504L437.092 126.637C435.131 127.591 433.629 129.284 432.918 131.344C432.207 133.404 432.345 135.663 433.301 137.622L436.891 144.982C437.378 144.982 437.857 144.866 438.291 144.644C440.813 143.418 439.536 140.8 442.066 139.57C444.596 138.34 445.866 140.961 448.388 139.735C450.911 138.508 449.634 135.891 452.156 134.664C454.679 133.438 455.963 136.052 458.486 134.826C461.008 133.599 459.747 130.937 462.239 129.725C464.732 128.513 466.039 131.116 468.569 129.886C471.099 128.656 469.814 126.042 472.337 124.816C474.859 123.589 476.136 126.207 478.659 124.981C481.181 123.754 479.912 121.133 482.434 119.906C482.872 119.682 483.357 119.564 483.849 119.561L481.27 114.273C480.308 112.32 478.61 110.827 476.55 110.121C474.489 109.414 472.232 109.552 470.274 110.504Z" fill="#EB996E"/>
<path d="M435.002 141.117C435.611 140.818 436.148 140.389 436.575 139.862C437.002 139.335 437.31 138.721 437.476 138.063C437.557 137.609 437.743 137.181 438.021 136.813C438.299 136.445 438.66 136.148 439.074 135.947C439.489 135.745 439.946 135.644 440.407 135.653C440.868 135.662 441.321 135.779 441.728 135.996C442.347 136.288 443.023 136.437 443.707 136.433C444.392 136.429 445.066 136.272 445.681 135.973C446.296 135.674 446.836 135.241 447.261 134.706C447.685 134.17 447.985 133.546 448.136 132.88C448.216 132.426 448.403 131.998 448.681 131.63C448.958 131.262 449.319 130.965 449.734 130.763C450.149 130.562 450.606 130.461 451.067 130.47C451.528 130.478 451.981 130.596 452.388 130.813C453.008 131.104 453.685 131.253 454.369 131.249C455.054 131.245 455.729 131.087 456.344 130.788C456.96 130.489 457.5 130.055 457.926 129.52C458.351 128.984 458.651 128.36 458.803 127.693C458.884 127.239 459.07 126.811 459.348 126.443C459.626 126.075 459.987 125.778 460.401 125.577C460.816 125.375 461.273 125.274 461.734 125.283C462.195 125.291 462.648 125.409 463.055 125.626C463.674 125.917 464.35 126.067 465.034 126.063C465.719 126.059 466.393 125.902 467.008 125.603C467.623 125.304 468.163 124.871 468.587 124.335C469.012 123.8 469.312 123.176 469.463 122.51C469.543 122.056 469.73 121.628 470.008 121.26C470.285 120.892 470.646 120.595 471.061 120.393C471.476 120.192 471.932 120.091 472.394 120.099C472.855 120.108 473.308 120.225 473.715 120.442C474.335 120.734 475.012 120.883 475.696 120.879C476.381 120.875 477.056 120.717 477.671 120.418C478.287 120.118 478.827 119.685 479.253 119.149C479.678 118.614 479.978 117.99 480.13 117.323C480.22 116.873 480.411 116.448 480.687 116.082C480.964 115.715 481.319 115.415 481.727 115.204C481.932 115.105 482.088 114.928 482.162 114.714C482.237 114.499 482.222 114.263 482.123 114.059C482.023 113.854 481.846 113.698 481.631 113.624C481.416 113.55 481.18 113.564 480.976 113.663C480.366 113.97 479.831 114.405 479.407 114.939C478.983 115.472 478.68 116.092 478.52 116.755C478.443 117.21 478.258 117.641 477.981 118.011C477.704 118.381 477.343 118.68 476.927 118.882C476.511 119.084 476.053 119.184 475.59 119.174C475.128 119.163 474.674 119.043 474.268 118.822C473.648 118.531 472.971 118.381 472.287 118.386C471.602 118.39 470.927 118.548 470.312 118.847C469.696 119.146 469.156 119.579 468.73 120.115C468.305 120.651 468.005 121.275 467.853 121.942C467.776 122.397 467.591 122.828 467.314 123.198C467.037 123.568 466.676 123.867 466.26 124.069C465.844 124.271 465.386 124.371 464.923 124.361C464.461 124.35 464.007 124.23 463.601 124.009C462.982 123.717 462.306 123.568 461.621 123.572C460.937 123.576 460.263 123.733 459.648 124.032C459.033 124.331 458.493 124.764 458.068 125.3C457.644 125.835 457.344 126.459 457.193 127.125C457.116 127.581 456.931 128.011 456.654 128.381C456.377 128.751 456.016 129.05 455.6 129.252C455.184 129.454 454.726 129.554 454.263 129.544C453.801 129.534 453.348 129.413 452.941 129.192C452.321 128.901 451.644 128.752 450.96 128.756C450.275 128.76 449.6 128.918 448.985 129.217C448.369 129.516 447.829 129.95 447.403 130.485C446.978 131.021 446.678 131.645 446.526 132.312C446.449 132.768 446.264 133.198 445.987 133.568C445.71 133.938 445.349 134.237 444.933 134.439C444.517 134.641 444.059 134.741 443.596 134.731C443.134 134.721 442.68 134.6 442.274 134.379C441.655 134.088 440.979 133.938 440.295 133.942C439.61 133.946 438.936 134.103 438.321 134.402C437.706 134.701 437.166 135.135 436.741 135.67C436.317 136.205 436.017 136.829 435.866 137.495C435.776 137.946 435.586 138.371 435.31 138.738C435.034 139.106 434.68 139.408 434.273 139.621C434.069 139.72 433.913 139.896 433.839 140.11C433.766 140.323 433.78 140.558 433.879 140.761C433.978 140.965 434.154 141.12 434.368 141.194C434.582 141.268 434.817 141.254 435.02 141.155L435.002 141.117Z" fill="white"/>
<path d="M439.366 179.107C441.649 177.996 442.259 176.284 442.807 174.768C443.355 173.252 443.712 172.199 445.367 171.395C447.021 170.59 448.216 170.99 449.604 171.463C450.992 171.935 452.848 172.551 455.146 171.433C457.445 170.316 458.039 168.611 458.587 167.095C459.135 165.579 459.492 164.526 461.147 163.722C462.801 162.917 463.996 163.317 465.384 163.79C466.772 164.262 468.628 164.878 470.926 163.76C473.225 162.643 473.812 160.941 474.367 159.422C474.923 157.902 475.272 156.853 476.927 156.048C478.581 155.244 479.769 155.647 481.157 156.12C482.545 156.593 484.401 157.208 486.699 156.091C488.997 154.973 489.592 153.268 490.14 151.752C490.688 150.236 491.037 149.187 492.692 148.383C494.346 147.578 495.541 147.978 496.929 148.451C498.318 148.923 500.173 149.539 502.472 148.421C504.77 147.304 505.364 145.599 505.912 144.083C506.46 142.567 506.817 141.514 508.472 140.709C508.675 140.61 508.831 140.435 508.905 140.221C508.979 140.007 508.964 139.773 508.865 139.569C508.766 139.366 508.59 139.21 508.376 139.136C508.162 139.063 507.927 139.077 507.724 139.176C505.441 140.286 504.831 141.998 504.283 143.514C503.735 145.03 503.378 146.083 501.724 146.888C500.069 147.692 498.871 147.285 497.486 146.819C496.102 146.354 494.242 145.731 491.944 146.849C489.646 147.966 489.059 149.668 488.503 151.187C487.948 152.707 487.598 153.756 485.944 154.561C484.289 155.365 483.098 154.954 481.713 154.489C480.329 154.024 478.469 153.401 476.171 154.518C473.873 155.636 473.279 157.341 472.731 158.857C472.183 160.373 471.825 161.426 470.171 162.23C468.517 163.035 467.318 162.627 465.933 162.162C464.549 161.697 462.689 161.074 460.391 162.191C458.093 163.309 457.498 165.014 456.95 166.53C456.402 168.046 456.045 169.099 454.391 169.903C452.737 170.708 451.538 170.3 450.153 169.835C448.769 169.37 446.909 168.747 444.611 169.865C442.313 170.982 441.718 172.687 441.17 174.203C440.622 175.719 440.265 176.772 438.611 177.576C438.407 177.675 438.252 177.851 438.178 178.065C438.104 178.279 438.118 178.513 438.218 178.716C438.317 178.92 438.493 179.076 438.707 179.149C438.921 179.223 439.155 179.209 439.359 179.11L439.366 179.107Z" fill="white"/>
<path d="M444.817 98.4237L443.321 99.1512C443.183 99.2181 443.06 99.3114 442.959 99.4258C442.857 99.5402 442.779 99.6734 442.73 99.8179C442.68 99.9624 442.659 100.115 442.668 100.268C442.677 100.42 442.717 100.57 442.784 100.707L451.899 119.398L455.513 117.641L446.397 98.9502C446.329 98.8108 446.234 98.6864 446.118 98.5842C446.001 98.482 445.865 98.4041 445.718 98.3551C445.571 98.306 445.415 98.2868 445.26 98.2986C445.106 98.3104 444.955 98.3529 444.817 98.4237Z" fill="#275E76"/>
<path opacity="0.6" d="M443.202 101.66L448.027 102.385L449.377 105.152L444.548 104.419L443.202 101.66Z" fill="white"/>
<path opacity="0.6" d="M445.783 106.953L450.612 107.686L451.958 110.445L447.132 109.72L445.783 106.953Z" fill="white"/>
<path opacity="0.6" d="M448.367 112.253L453.196 112.986L454.542 115.745L449.713 115.012L448.367 112.253Z" fill="white"/>
<path d="M456.197 97.0701L454.94 97.6812C454.71 97.7931 454.533 97.9918 454.45 98.2336C454.366 98.4754 454.383 98.7404 454.495 98.9704L462.068 114.499L465.061 113.044L457.487 97.5154C457.375 97.2854 457.176 97.1092 456.934 97.0257C456.692 96.9422 456.427 96.9582 456.197 97.0701Z" fill="#275E76"/>
<path opacity="0.6" d="M454.878 99.7184L458.886 100.323L460.005 102.619L455.994 102.007L454.878 99.7184Z" fill="white"/>
<path opacity="0.6" d="M457.022 104.114L461.029 104.719L462.149 107.015L458.141 106.41L457.022 104.114Z" fill="white"/>
<path opacity="0.6" d="M459.168 108.518L463.176 109.123L464.292 111.411L460.284 110.806L459.168 108.518Z" fill="white"/>
<path d="M436.501 106.648L435.237 107.263C435.006 107.375 434.83 107.573 434.747 107.815C434.663 108.057 434.68 108.322 434.792 108.552L442.365 124.08L445.357 122.625L437.784 107.097C437.673 106.868 437.475 106.693 437.235 106.609C436.995 106.525 436.731 106.539 436.501 106.648Z" fill="#275E76"/>
<path opacity="0.6" d="M435.16 109.307L439.175 109.908L440.294 112.204L436.276 111.595L435.16 109.307Z" fill="white"/>
<path opacity="0.6" d="M437.303 113.703L441.318 114.304L442.438 116.6L438.423 115.999L437.303 113.703Z" fill="white"/>
<path opacity="0.6" d="M439.451 118.106L443.466 118.708L444.582 120.996L440.567 120.395L439.451 118.106Z" fill="white"/>
<path d="M439.499 97.0067C436.665 94.4432 440.091 90.7614 439.022 88.5704C440.572 88.446 444.383 90.8304 445.051 92.8459C445.72 94.8615 445.079 97.0785 442.913 97.7802C442.325 97.9572 441.702 97.9789 441.104 97.8433C440.506 97.7078 439.953 97.4195 439.499 97.0067Z" fill="#E52650"/>
<path opacity="0.3" d="M439.499 97.0067C436.665 94.4432 440.091 90.7614 439.022 88.5704C440.572 88.446 444.383 90.8304 445.051 92.8459C445.72 94.8615 445.079 97.0785 442.913 97.7802C442.325 97.9572 441.702 97.9789 441.104 97.8433C440.506 97.7078 439.953 97.4195 439.499 97.0067Z" fill="white"/>
<path d="M451.78 95.8709C449.427 93.7403 452.268 90.6844 451.378 88.8598C452.664 88.7622 455.831 90.738 456.38 92.4138C456.929 94.0896 456.411 95.9324 454.611 96.5116C454.124 96.6577 453.608 96.6756 453.112 96.5633C452.616 96.451 452.157 96.2125 451.78 95.8709Z" fill="#E52650"/>
<path opacity="0.3" d="M451.78 95.8709C449.427 93.7403 452.268 90.6844 451.378 88.8598C452.664 88.7622 455.831 90.738 456.38 92.4138C456.929 94.0896 456.411 95.9324 454.611 96.5116C454.124 96.6577 453.608 96.6756 453.112 96.5633C452.616 96.451 452.157 96.2125 451.78 95.8709Z" fill="white"/>
<path d="M432.062 105.46C429.716 103.326 432.558 100.27 431.668 98.445C432.953 98.3474 436.113 100.327 436.669 101.999C437.226 103.671 436.693 105.521 434.9 106.097C434.412 106.244 433.895 106.263 433.398 106.151C432.9 106.039 432.44 105.801 432.062 105.46Z" fill="#E52650"/>
<path opacity="0.3" d="M432.062 105.46C429.716 103.326 432.558 100.27 431.668 98.445C432.953 98.3474 436.113 100.327 436.669 101.999C437.226 103.671 436.693 105.521 434.9 106.097C434.412 106.244 433.895 106.263 433.398 106.151C432.9 106.039 432.44 105.801 432.062 105.46Z" fill="white"/>
<path d="M384.441 38.4505L293.941 14.2727L281.419 60.9567C281.259 61.5549 281.218 62.1787 281.299 62.7926C281.38 63.4064 281.581 63.9983 281.891 64.5344C282.2 65.0704 282.613 65.5402 283.105 65.9169C283.596 66.2936 284.158 66.5698 284.756 66.7297L366.139 88.4717C366.737 88.6317 367.362 88.6722 367.976 88.5911C368.591 88.5099 369.183 88.3087 369.72 87.9988C370.257 87.6889 370.727 87.2765 371.105 86.785C371.482 86.2936 371.759 85.7328 371.919 85.1346L384.441 38.4505Z" fill="#DBC6AF"/>
<path d="M384.438 38.4709L320.39 21.3556L330.971 13.3828C332.134 12.5087 334.516 12.1867 336.299 12.6631L393.9 28.0554C395.675 28.5299 396.182 29.624 395.019 30.498L384.438 38.4709Z" fill="#DBC6AF"/>
<path opacity="0.2" d="M384.438 38.4709L320.39 21.3556L330.971 13.3828C332.134 12.5087 334.516 12.1867 336.299 12.6631L393.9 28.0554C395.675 28.5299 396.182 29.624 395.019 30.498L384.438 38.4709Z" fill="black"/>
<path d="M293.927 14.2785L357.97 31.3938L351.853 22.7167C351.175 21.7807 349.194 20.6095 347.411 20.1331L289.816 4.74094C288.033 4.26447 287.136 4.65132 287.811 5.6014L293.927 14.2785Z" fill="#DBC6AF"/>
<path opacity="0.2" d="M357.973 31.3787L293.941 14.2727L281.42 60.9529C281.259 61.551 281.218 62.1748 281.299 62.7886C281.38 63.4024 281.581 63.9942 281.891 64.5302C282.201 65.0662 282.613 65.536 283.105 65.9126C283.597 66.2893 284.158 66.5654 284.756 66.7254L339.671 81.3958C340.269 81.5557 340.894 81.5963 341.508 81.5151C342.123 81.434 342.715 81.2327 343.252 80.9229C343.789 80.613 344.259 80.2006 344.637 79.7092C345.014 79.2178 345.291 78.657 345.451 78.0589L357.973 31.3787Z" fill="white"/>
<path opacity="0.5" d="M376.492 36.3418L367.907 68.3519L366.163 66.0155L364.139 67.3451L363.307 65.0412L361.399 66.6131L359.86 64.6405L357.342 65.5291L365.927 33.519L376.492 36.3418Z" fill="white"/>
<path d="M446.994 238.001L452.151 229.901C452.825 228.842 453.892 228.094 455.118 227.822C456.344 227.549 457.627 227.773 458.687 228.446C459.743 229.12 460.488 230.185 460.759 231.407C461.03 232.629 460.804 233.909 460.131 234.966L454.974 243.067C452.944 246.257 452.239 250.111 453.009 253.81L456.45 270.287C456.801 271.976 456.734 273.725 456.253 275.382C455.772 277.039 454.892 278.554 453.691 279.794L429.244 305.017L401.76 287.57L414.233 254.746C414.848 253.134 415.848 251.696 417.146 250.558C418.445 249.419 420.003 248.616 421.683 248.217L438.085 244.337C441.766 243.463 444.962 241.19 446.994 238.001Z" fill="#F4CAAB"/>
<path d="M458.672 228.445L461.091 229.981L459.139 233.047L456.72 231.512L458.672 228.445Z" fill="#F4CAAB"/>
<path d="M449.414 239.537L454.572 231.437C455.244 230.38 456.309 229.633 457.533 229.359C458.756 229.085 460.038 229.307 461.098 229.976C462.157 230.648 462.905 231.714 463.178 232.938C463.45 234.162 463.225 235.444 462.551 236.502L457.394 244.603C455.364 247.793 454.659 251.647 455.429 255.347L458.861 271.817C459.218 273.506 459.153 275.257 458.673 276.915C458.194 278.574 457.314 280.09 456.111 281.33L431.655 306.547L404.171 289.101L416.671 256.294C417.286 254.681 418.286 253.243 419.585 252.105C420.883 250.967 422.441 250.164 424.122 249.765L440.478 245.856C444.168 244.996 447.375 242.728 449.414 239.537Z" fill="#FFDBC6"/>
<path d="M459.135 233.056L514.118 267.962L512.026 271.249L457.042 236.343C456.647 236.049 456.378 235.616 456.289 235.131C456.2 234.647 456.297 234.146 456.562 233.73C456.827 233.315 457.239 233.014 457.716 232.889C458.194 232.764 458.7 232.824 459.135 233.056Z" fill="#F4CAAB"/>
<path d="M501.988 272.915L507.146 264.815C507.818 263.758 508.883 263.01 510.107 262.737C511.33 262.463 512.612 262.685 513.672 263.354C514.731 264.026 515.479 265.092 515.752 266.315C516.024 267.539 515.799 268.822 515.125 269.88L509.968 277.98C507.938 281.171 507.233 285.025 508.003 288.724L511.444 305.201C511.796 306.889 511.728 308.639 511.247 310.296C510.766 311.953 509.886 313.467 508.685 314.707L484.238 339.931L456.755 322.484L469.218 289.654C469.833 288.042 470.833 286.604 472.131 285.466C473.43 284.327 474.988 283.524 476.668 283.125L493.079 279.251C496.761 278.377 499.957 276.104 501.988 272.915Z" fill="#F4CAAB"/>
<path d="M513.666 263.359L516.085 264.894L514.133 267.961L511.714 266.425L513.666 263.359Z" fill="#F4CAAB"/>
<path d="M504.407 274.451L509.564 266.35C510.237 265.294 511.302 264.546 512.526 264.272C513.749 263.998 515.031 264.22 516.09 264.889C516.615 265.222 517.068 265.655 517.424 266.163C517.78 266.671 518.033 267.244 518.167 267.85C518.301 268.455 518.314 269.082 518.206 269.693C518.097 270.303 517.869 270.887 517.535 271.41L512.377 279.51C510.351 282.704 509.649 286.56 510.422 290.26L513.854 306.731C514.208 308.419 514.142 310.169 513.661 311.827C513.18 313.485 512.298 314.999 511.094 316.237L486.648 341.461L459.164 324.014L471.664 291.207C472.276 289.593 473.276 288.154 474.575 287.016C475.874 285.877 477.433 285.074 479.114 284.678L495.461 280.763C499.152 279.903 502.361 277.638 504.407 274.451Z" fill="#FFDBC6"/>
<path d="M511.435 268.561C511.225 268.886 511.117 269.266 511.124 269.653C511.131 270.039 511.252 270.415 511.473 270.732C511.694 271.049 512.004 271.294 512.365 271.435C512.725 271.576 513.119 271.607 513.497 271.524C513.875 271.441 514.22 271.247 514.488 270.968C514.756 270.689 514.935 270.337 515.003 269.956C515.07 269.576 515.023 269.184 514.867 268.83C514.711 268.476 514.454 268.177 514.127 267.97C513.691 267.696 513.164 267.604 512.66 267.715C512.156 267.826 511.716 268.13 511.435 268.561Z" fill="#F4CAAB"/>
<path d="M416.124 255.939L469.643 289.913L457.251 322.795L403.732 288.821L416.124 255.939Z" fill="#F4CAAB"/>
<path d="M197.394 101.337C197.15 101.93 196.293 101.936 195.712 101.36L150.275 56.2581C148.422 54.4184 157.604 45.1934 159.457 47.033L204.898 92.1389C205.478 92.7149 205.481 93.5671 204.885 93.818C202.411 94.8546 198.421 98.8641 197.394 101.337Z" fill="#FCB58A"/>
<path opacity="0.2" d="M197.394 101.338C197.15 101.931 196.293 101.937 195.712 101.361L173.433 79.2453C171.579 77.4056 180.761 68.1806 182.615 70.0202L204.898 92.1393C205.478 92.7154 205.481 93.5676 204.885 93.8185C202.411 94.8551 198.421 98.8646 197.394 101.338Z" fill="black"/>
<path opacity="0.8" d="M204.578 93.9597L182.454 71.999C181.036 70.5913 173.999 77.6613 175.417 79.069L197.541 101.03C198.709 98.6392 202.202 95.1296 204.578 93.9597Z" fill="white"/>
<path opacity="0.2" d="M174.13 65.6871C174.675 65.4146 174.672 64.6202 174.121 64.073L161.402 51.4474C160.053 50.1081 153.362 56.8304 154.711 58.1697L167.43 70.7952C167.981 71.3425 168.773 71.3437 169.043 70.7976C170.276 68.6898 172.026 66.9308 174.13 65.6871Z" fill="white"/>
<path d="M199.614 107.234C199.762 107.158 199.889 107.048 199.985 106.913C200.08 106.777 200.141 106.621 200.163 106.457C200.184 106.292 200.165 106.125 200.108 105.97C200.05 105.815 199.956 105.675 199.832 105.565L149.28 55.4455C147.702 53.8804 137.495 64.1474 139.073 65.7125L189.64 115.846C189.752 115.968 189.891 116.061 190.047 116.117C190.202 116.173 190.369 116.191 190.532 116.169C190.696 116.147 190.852 116.085 190.987 115.989C191.122 115.894 191.231 115.767 191.306 115.62C192.62 113.037 197.055 108.576 199.614 107.234Z" fill="#F85988"/>
<path opacity="0.8" d="M191.471 115.28L160.795 84.8665C159.587 83.6684 167.408 75.8006 168.617 76.9987L199.293 107.412C196.81 108.873 192.912 112.794 191.471 115.28Z" fill="white"/>
<path opacity="0.2" d="M167.338 75.2338C167.486 75.1584 167.613 75.0482 167.708 74.9128C167.804 74.7774 167.865 74.6208 167.886 74.4565C167.908 74.2922 167.889 74.1252 167.831 73.9698C167.774 73.8145 167.679 73.6754 167.556 73.5647L149.28 55.4455C147.702 53.8804 137.495 64.1474 139.073 65.7125L157.364 83.8461C157.475 83.9679 157.615 84.0608 157.77 84.117C157.926 84.1732 158.092 84.1909 158.256 84.1687C158.42 84.1464 158.576 84.0849 158.711 83.9893C158.845 83.8937 158.955 83.7669 159.03 83.6198C160.344 81.0367 164.779 76.5755 167.338 75.2338Z" fill="black"/>
<path d="M146.869 73.4406L142.692 69.2994C141.113 67.7343 151.32 57.4673 152.899 59.0324L157.076 63.1736C155.511 61.6229 145.305 71.8899 146.869 73.4406Z" fill="#F85988"/>
<path d="M150.16 76.7042L148.52 75.0779C146.941 73.5128 157.148 63.2458 158.727 64.8109L160.367 66.4372C158.778 64.8613 148.571 75.1283 150.16 76.7042Z" fill="#F85988"/>
<path d="M179.756 193.815L187.488 190.077L188.176 193.384L186.305 195.125L182.252 194.88L179.756 193.815Z" fill="#FCB58A"/>
</svg>
