<svg width="42" height="43" viewBox="0 0 42 43" fill="none" xmlns="http://www.w3.org/2000/svg">
<g clip-path="url(#clip0_28_146)">
<path d="M26.0828 27.4605C31.2735 23.647 33.7968 19.4077 33.7968 14.5C33.7968 6.78031 28.3015 0.5 21.5468 0.5C14.792 0.5 9.29675 6.78031 9.29675 14.5C9.29675 19.4077 11.82 23.647 17.0108 27.4605C18.7343 28.7268 18.4471 29.3365 17.4953 31.3564C16.9335 32.5486 16.2968 33.9001 16.2968 35.5C16.2968 40.0955 18.9377 42.5 21.5468 42.5C24.1558 42.5 26.7968 40.0955 26.7968 35.5C26.7968 33.9001 26.16 32.5486 25.5982 31.3564C24.6464 29.3365 24.3592 28.7268 26.0828 27.4605ZM21.5468 25C16.722 25 12.7968 20.2897 12.7968 14.5C12.7968 8.71034 16.722 4 21.5468 4C26.3715 4 30.2968 8.71034 30.2968 14.5C30.2968 20.2897 26.3715 25 21.5468 25Z" fill="#1EC245"/>
<path d="M26.8303 8.76013L15.909 19.6817C16.8277 21.2383 18.147 22.4018 19.6787 22.9308L28.5381 14.0714C28.4846 12.1747 27.8923 10.3325 26.8303 8.76013Z" fill="#1EC245"/>
<path d="M21.5468 5.74994C18.1831 5.74994 15.3752 8.71663 14.7024 12.6705L21.6203 5.75256C21.5958 5.75213 21.5715 5.74994 21.5468 5.74994Z" fill="#1EC245"/>
<path d="M22.2599 5.79791L14.5978 13.4599C14.5654 13.8013 14.5468 14.1478 14.5468 14.5C14.5472 15.1683 14.6094 15.8351 14.7327 16.4919L24.5983 6.62632C23.8859 6.18869 23.089 5.9064 22.2599 5.79791Z" fill="#1EC245"/>
<path d="M21.3349 23.2433C21.4054 23.2459 21.4758 23.2501 21.5469 23.2501C24.9594 23.2501 27.7994 20.1976 28.4196 16.1586L21.3349 23.2433Z" fill="#1EC245"/>
<path d="M8.42184 22.3749C7.72588 22.3742 7.05864 22.0974 6.56652 21.6053C6.0744 21.1131 5.7976 20.4459 5.79684 19.7499C5.79684 19.5179 5.70466 19.2953 5.54056 19.1312C5.37647 18.9671 5.15391 18.8749 4.92184 18.8749C4.68978 18.8749 4.46722 18.9671 4.30313 19.1312C4.13903 19.2953 4.04684 19.5179 4.04684 19.7499C4.04609 20.4459 3.76929 21.1131 3.27717 21.6053C2.78505 22.0974 2.11781 22.3742 1.42184 22.3749C1.18978 22.3749 0.96722 22.4671 0.803126 22.6312C0.639032 22.7953 0.546844 23.0179 0.546844 23.2499C0.546844 23.482 0.639032 23.7046 0.803126 23.8686C0.96722 24.0327 1.18978 24.1249 1.42184 24.1249C2.11781 24.1257 2.78505 24.4025 3.27717 24.8946C3.76929 25.3867 4.04609 26.054 4.04684 26.7499C4.04684 26.982 4.13903 27.2045 4.30313 27.3686C4.46722 27.5327 4.68978 27.6249 4.92184 27.6249C5.15391 27.6249 5.37647 27.5327 5.54056 27.3686C5.70466 27.2045 5.79684 26.982 5.79684 26.7499C5.7976 26.054 6.0744 25.3867 6.56652 24.8946C7.05864 24.4025 7.72588 24.1257 8.42184 24.1249C8.65391 24.1249 8.87647 24.0327 9.04056 23.8686C9.20466 23.7046 9.29684 23.482 9.29684 23.2499C9.29684 23.0179 9.20466 22.7953 9.04056 22.6312C8.87647 22.4671 8.65391 22.3749 8.42184 22.3749Z" fill="#1EC245"/>
<path d="M38.1719 28.4999C37.4759 28.4992 36.8087 28.2224 36.3165 27.7303C35.8244 27.2381 35.5476 26.5709 35.5469 25.8749C35.5469 25.6429 35.4547 25.4203 35.2906 25.2562C35.1265 25.0921 34.9039 24.9999 34.6719 24.9999C34.4398 24.9999 34.2172 25.0921 34.0531 25.2562C33.8891 25.4203 33.7969 25.6429 33.7969 25.8749C33.7961 26.5709 33.5193 27.2381 33.0272 27.7303C32.5351 28.2224 31.8678 28.4992 31.1719 28.4999C30.9398 28.4999 30.7172 28.5921 30.5532 28.7562C30.3891 28.9203 30.2969 29.1429 30.2969 29.3749C30.2969 29.607 30.3891 29.8296 30.5532 29.9936C30.7172 30.1577 30.9398 30.2499 31.1719 30.2499C31.8678 30.2507 32.5351 30.5275 33.0272 31.0196C33.5193 31.5117 33.7961 32.179 33.7969 32.8749C33.7969 33.107 33.8891 33.3295 34.0531 33.4936C34.2172 33.6577 34.4398 33.7499 34.6719 33.7499C34.9039 33.7499 35.1265 33.6577 35.2906 33.4936C35.4547 33.3295 35.5469 33.107 35.5469 32.8749C35.5476 32.179 35.8244 31.5117 36.3165 31.0196C36.8087 30.5275 37.4759 30.2507 38.1719 30.2499C38.4039 30.2499 38.6265 30.1577 38.7906 29.9936C38.9547 29.8296 39.0469 29.607 39.0469 29.3749C39.0469 29.1429 38.9547 28.9203 38.7906 28.7562C38.6265 28.5921 38.4039 28.4999 38.1719 28.4999Z" fill="#1EC245"/>
<path d="M40.5782 4C39.8822 3.99925 39.215 3.72244 38.7229 3.23032C38.2307 2.7382 37.9539 2.07096 37.9532 1.375C37.9532 1.14294 37.861 0.920376 37.6969 0.756282C37.5328 0.592187 37.3102 0.5 37.0782 0.5C36.8461 0.5 36.6236 0.592187 36.4595 0.756282C36.2954 0.920376 36.2032 1.14294 36.2032 1.375C36.2024 2.07096 35.9256 2.7382 35.4335 3.23032C34.9414 3.72244 34.2741 3.99925 33.5782 4C33.3461 4 33.1236 4.09219 32.9595 4.25628C32.7954 4.42038 32.7032 4.64294 32.7032 4.875C32.7032 5.10707 32.7954 5.32962 32.9595 5.49372C33.1236 5.65781 33.3461 5.75 33.5782 5.75C34.2741 5.75075 34.9414 6.02756 35.4335 6.51968C35.9256 7.0118 36.2024 7.67904 36.2032 8.375C36.2032 8.60707 36.2954 8.82963 36.4595 8.99372C36.6236 9.15781 36.8461 9.25 37.0782 9.25C37.3102 9.25 37.5328 9.15781 37.6969 8.99372C37.861 8.82963 37.9532 8.60707 37.9532 8.375C37.9539 7.67904 38.2307 7.0118 38.7229 6.51968C39.215 6.02756 39.8822 5.75075 40.5782 5.75C40.8102 5.75 41.0328 5.65781 41.1969 5.49372C41.361 5.32962 41.4532 5.10707 41.4532 4.875C41.4532 4.64294 41.361 4.42038 41.1969 4.25628C41.0328 4.09219 40.8102 4 40.5782 4Z" fill="#1EC245"/>
</g>
<defs>
<clipPath id="clip0_28_146">
<rect width="42" height="42" fill="white" transform="translate(0 0.5)"/>
</clipPath>
</defs>
</svg>
