<svg width="16" height="16" viewBox="0 0 16 16" fill="#C71585" xmlns="http://www.w3.org/2000/svg">
<g clip-path="url(#clip0_63_4)">
<path d="M7.99998 16.0053L7.53331 15.6053C6.88998 15.0667 1.27264 10.2153 1.27264 6.66666C1.27264 4.88246 1.98141 3.17134 3.24303 1.90972C4.50465 0.648102 6.21578 -0.0606689 7.99998 -0.0606689C9.78418 -0.0606689 11.4953 0.648102 12.7569 1.90972C14.0185 3.17134 14.7273 4.88246 14.7273 6.66666C14.7273 10.2153 9.10998 15.0667 8.46931 15.608L7.99998 16.0053ZM7.99998 1.394C6.60207 1.39559 5.26187 1.95161 4.27339 2.94008C3.28492 3.92855 2.7289 5.26875 2.72731 6.66666C2.72731 8.896 6.18331 12.4573 7.99998 14.0873C9.81664 12.4567 13.2726 8.89333 13.2726 6.66666C13.2711 5.26875 12.715 3.92855 11.7266 2.94008C10.7381 1.95161 9.39789 1.39559 7.99998 1.394Z" />
<path d="M8 9.33333C7.47258 9.33333 6.95701 9.17694 6.51848 8.88392C6.07994 8.5909 5.73815 8.17443 5.53632 7.68716C5.33448 7.19989 5.28167 6.66371 5.38457 6.14643C5.48746 5.62914 5.74144 5.15399 6.11438 4.78105C6.48732 4.40811 6.96247 4.15413 7.47976 4.05124C7.99704 3.94835 8.53322 4.00116 9.02049 4.20299C9.50776 4.40482 9.92423 4.74662 10.2172 5.18515C10.5103 5.62368 10.6667 6.13925 10.6667 6.66667C10.6667 7.37391 10.3857 8.05219 9.88561 8.55229C9.38552 9.05238 8.70724 9.33333 8 9.33333ZM8 5.33333C7.73629 5.33333 7.4785 5.41153 7.25924 5.55804C7.03997 5.70455 6.86907 5.91279 6.76816 6.15642C6.66724 6.40006 6.64084 6.66815 6.69228 6.92679C6.74373 7.18543 6.87072 7.42301 7.05719 7.60948C7.24366 7.79595 7.48123 7.92294 7.73988 7.97438C7.99852 8.02583 8.26661 7.99942 8.51024 7.89851C8.75388 7.79759 8.96211 7.62669 9.10862 7.40743C9.25513 7.18816 9.33333 6.93038 9.33333 6.66667C9.33333 6.31305 9.19285 5.97391 8.94281 5.72386C8.69276 5.47381 8.35362 5.33333 8 5.33333Z" />
</g>
<defs>
<clipPath id="clip0_63_4">
<rect width="16" height="16" fill="white"/>
</clipPath>
</defs>
</svg>
