<svg width="24" height="24" viewBox="0 0 24 24" fill="none" xmlns="http://www.w3.org/2000/svg">
<path fill-rule="evenodd" clip-rule="evenodd" d="M12 4C9.827 4 9.555 4.01 8.702 4.048C7.85 4.087 7.268 4.222 6.76 4.42C6.22614 4.62091 5.74255 4.9359 5.343 5.343C4.9359 5.74255 4.62091 6.22614 4.42 6.76C4.222 7.268 4.087 7.85 4.048 8.702C4.009 9.555 4 9.827 4 12C4 14.173 4.01 14.445 4.048 15.298C4.087 16.15 4.222 16.732 4.42 17.24C4.624 17.766 4.898 18.212 5.343 18.657C5.788 19.102 6.233 19.376 6.76 19.58C7.268 19.778 7.85 19.913 8.702 19.952C9.555 19.991 9.827 20 12 20C14.173 20 14.445 19.99 15.298 19.952C16.15 19.913 16.732 19.778 17.24 19.58C17.7739 19.3791 18.2574 19.0641 18.657 18.657C19.0641 18.2574 19.3791 17.7739 19.58 17.24C19.778 16.732 19.913 16.15 19.952 15.298C19.99 14.445 20 14.173 20 12C20 9.827 19.99 9.555 19.952 8.702C19.912 7.85 19.778 7.268 19.58 6.76C19.3791 6.22614 19.0641 5.74255 18.657 5.343C18.2574 4.9359 17.7739 4.62091 17.24 4.42C16.732 4.222 16.15 4.087 15.298 4.048C14.445 4.01 14.173 4 12 4ZM12 5.442C14.136 5.442 14.39 5.45 15.233 5.488C16.013 5.524 16.436 5.654 16.718 5.764C17.092 5.908 17.358 6.082 17.638 6.362C17.918 6.642 18.091 6.908 18.236 7.282C18.346 7.564 18.476 7.987 18.512 8.767C18.55 9.611 18.558 9.864 18.558 12C18.558 14.136 18.55 14.39 18.512 15.233C18.476 16.013 18.346 16.436 18.236 16.718C18.091 17.092 17.918 17.358 17.638 17.638C17.3803 17.9041 17.0658 18.1085 16.718 18.236C16.436 18.346 16.013 18.476 15.233 18.512C14.389 18.55 14.136 18.558 12 18.558C9.864 18.558 9.61 18.55 8.767 18.512C7.987 18.476 7.564 18.346 7.282 18.236C6.93438 18.1082 6.61995 17.9038 6.362 17.638C6.09621 17.38 5.89183 17.0656 5.764 16.718C5.654 16.436 5.524 16.013 5.488 15.233C5.45 14.389 5.442 14.136 5.442 12C5.442 9.864 5.45 9.61 5.488 8.767C5.524 7.987 5.654 7.564 5.764 7.282C5.89153 6.93422 6.09594 6.61973 6.362 6.362C6.642 6.082 6.908 5.908 7.282 5.764C7.564 5.654 7.987 5.524 8.767 5.488C9.611 5.45 9.864 5.442 12 5.442Z" fill="#11112D"/>
<path fill-rule="evenodd" clip-rule="evenodd" d="M12 14.667C11.2927 14.667 10.6143 14.386 10.1142 13.8859C9.61399 13.3857 9.333 12.7074 9.333 12C9.333 11.2927 9.61399 10.6143 10.1142 10.1142C10.6143 9.61401 11.2927 9.33302 12 9.33302C12.7073 9.33302 13.3857 9.61401 13.8859 10.1142C14.386 10.6143 14.667 11.2927 14.667 12C14.667 12.7074 14.386 13.3857 13.8859 13.8859C13.3857 14.386 12.7073 14.667 12 14.667ZM12 7.89202C11.4551 7.88352 10.9139 7.98351 10.408 8.18616C9.90207 8.38882 9.44152 8.69009 9.05315 9.07244C8.66479 9.4548 8.35637 9.91059 8.14584 10.4133C7.93532 10.916 7.8269 11.4555 7.8269 12.0005C7.8269 12.5455 7.93532 13.0851 8.14584 13.5878C8.35637 14.0905 8.66479 14.5462 9.05315 14.9286C9.44152 15.3109 9.90207 15.6122 10.408 15.8149C10.9139 16.0175 11.4551 16.1175 12 16.109C13.0785 16.0922 14.1072 15.6519 14.864 14.8833C15.6207 14.1146 16.0449 13.0792 16.0449 12.0005C16.0449 10.9218 15.6207 9.88643 14.864 9.11777C14.1072 8.34911 13.0785 7.90885 12 7.89202ZM17.23 7.73002C17.23 7.98463 17.1289 8.22881 16.9488 8.40884C16.7688 8.58888 16.5246 8.69002 16.27 8.69002C16.0154 8.69002 15.7712 8.58888 15.5912 8.40884C15.4111 8.22881 15.31 7.98463 15.31 7.73002C15.31 7.47541 15.4111 7.23123 15.5912 7.0512C15.7712 6.87116 16.0154 6.77002 16.27 6.77002C16.5246 6.77002 16.7688 6.87116 16.9488 7.0512C17.1289 7.23123 17.23 7.47541 17.23 7.73002Z" fill="#11112D"/>
</svg>
