<svg width="24" height="24" viewBox="0 0 24 24" fill="none" xmlns="http://www.w3.org/2000/svg">
<g clip-path="url(#clip0_169_25)">
<path d="M18.4 7.37605C18.2193 7.32422 18.0545 7.22812 17.9204 7.09645C17.7863 6.96478 17.6871 6.80172 17.632 6.62205C17.3253 5.58453 16.8114 4.61999 16.1213 3.78677C15.4312 2.95355 14.5793 2.26896 13.6171 1.77441C12.6548 1.27985 11.6023 0.985612 10.523 0.909481C9.44384 0.833349 8.3604 0.976908 7.33826 1.33148C6.31612 1.68604 5.37652 2.24425 4.57629 2.97234C3.77605 3.70043 3.13181 4.58326 2.68253 5.56745C2.23325 6.55165 1.98826 7.61674 1.96239 8.69832C1.93651 9.7799 2.13029 10.8555 2.53199 11.86C2.62502 12.0719 2.64504 12.3086 2.58893 12.533C2.53282 12.7575 2.40375 12.9569 2.22199 13.1C1.42554 13.6909 0.803661 14.4861 0.422188 15.4015C0.040714 16.3169 -0.0861608 17.3184 0.0549934 18.3C0.275884 19.6271 0.965154 20.831 1.99774 21.6933C3.03033 22.5556 4.33783 23.0193 5.68299 23H11C11.2652 23 11.5196 22.8947 11.7071 22.7072C11.8946 22.5196 12 22.2653 12 22C12 21.7348 11.8946 21.4805 11.7071 21.2929C11.5196 21.1054 11.2652 21 11 21H5.68299C4.81916 21.021 3.97637 20.7319 3.30734 20.1851C2.6383 19.6382 2.18728 18.8698 2.03599 18.019C1.93926 17.3929 2.01644 16.7521 2.2591 16.1668C2.50176 15.5815 2.90057 15.0741 3.41199 14.7C3.94769 14.2994 4.33532 13.7323 4.51412 13.0877C4.69291 12.4431 4.65278 11.7574 4.39999 11.138C3.89832 9.81277 3.87216 8.35446 4.32599 7.01205C4.68972 5.96067 5.34037 5.03203 6.20436 4.33116C7.06835 3.63028 8.1112 3.18513 9.21499 3.04605C9.47114 3.01495 9.72896 2.99959 9.98699 3.00005C11.2803 2.99579 12.5402 3.41059 13.578 4.18234C14.6159 4.95409 15.3758 6.04125 15.744 7.28105C15.8877 7.75342 16.1467 8.18262 16.4976 8.53C16.8484 8.87739 17.2802 9.13205 17.754 9.27105C18.9138 9.6139 19.9411 10.3029 20.6985 11.2457C21.4559 12.1886 21.9072 13.3403 21.9919 14.5468C22.0766 15.7532 21.7908 16.9567 21.1726 17.9962C20.5544 19.0356 19.6335 19.8615 18.533 20.363C18.3702 20.4465 18.2342 20.574 18.1403 20.731C18.0464 20.888 17.9985 21.0682 18.002 21.251C18.0001 21.4165 18.0398 21.5798 18.1174 21.7259C18.195 21.8721 18.3081 21.9964 18.4462 22.0876C18.5843 22.1787 18.7431 22.2338 18.908 22.2476C19.0728 22.2615 19.2386 22.2338 19.39 22.167C23.525 20.179 25.771 14.951 22.27 9.90105C21.3062 8.64208 19.9405 7.75101 18.4 7.37605Z" fill="#BCC1D2"/>
<path d="M18.709 15.2911L15.709 12.2911C15.5215 12.1036 15.2672 11.9983 15.002 11.9983C14.7368 11.9983 14.4825 12.1036 14.295 12.2911L11.295 15.2911C11.1074 15.4786 11.0019 15.733 11.0018 15.9982C11.0017 16.2635 11.107 16.5179 11.2945 16.7056C11.482 16.8932 11.7364 16.9987 12.0016 16.9988C12.2669 16.9989 12.5214 16.8936 12.709 16.7061L14 15.4131V23.0001C14 23.2653 14.1054 23.5196 14.2929 23.7072C14.4804 23.8947 14.7348 24.0001 15 24.0001C15.2652 24.0001 15.5196 23.8947 15.7071 23.7072C15.8946 23.5196 16 23.2653 16 23.0001V15.4131L17.3 16.7061C17.3929 16.7989 17.5032 16.8726 17.6246 16.9228C17.7459 16.973 17.876 16.9988 18.0074 16.9988C18.1387 16.9987 18.2688 16.9728 18.3901 16.9225C18.5114 16.8722 18.6217 16.7985 18.7145 16.7056C18.8073 16.6127 18.881 16.5024 18.9312 16.381C18.9814 16.2596 19.0073 16.1296 19.0072 15.9982C19.0072 15.8669 18.9812 15.7368 18.9309 15.6155C18.8806 15.4942 18.8069 15.3839 18.714 15.2911H18.709Z" fill="#BCC1D2"/>
</g>
<defs>
<clipPath id="clip0_169_25">
<rect width="24" height="24" fill="white"/>
</clipPath>
</defs>
</svg>
