<svg xmlns="http://www.w3.org/2000/svg" version="1.1" xmlns:xlink="http://www.w3.org/1999/xlink" xmlns:svgjs="http://svgjs.dev/svgjs" width="1000" height="750" viewBox="0 0 1000 750"><rect width="1000" height="750" fill="#ffffff"></rect><g transform="matrix(0.834,0,0,0.834,82.86222373690424,48.3367190283401)"><svg viewBox="0 0 315 247" data-background-color="#ffffff" preserveAspectRatio="xMidYMid meet" height="784" width="1000" xmlns="http://www.w3.org/2000/svg" xmlns:xlink="http://www.w3.org/1999/xlink"><g id="tight-bounds" transform="matrix(1,0,0,1,0.052037797212420855,-0.09999999999999432)"><svg viewBox="0 0 314.89592440557516 247.2" height="247.2" width="314.89592440557516"><g><svg viewBox="0 0 397.4975999999999 312.0440726741279" height="247.2" width="314.89592440557516"><g><rect width="397.4975999999999" height="6.162799792949832" x="0" y="174.88040274090608" fill="#89939e" opacity="1" stroke-width="0" stroke="transparent" fill-opacity="1" class="rect-o-0" data-fill-palette-color="primary" rx="1%" id="o-0" data-palette-color="#89939e"></rect></g><g transform="matrix(1,0,0,1,0.9887999999999693,197.17618628503348)"><svg viewBox="0 0 395.52 114.86788638909442" height="114.86788638909442" width="395.52"><g><svg viewBox="0 0 395.52 114.86788638909442" height="114.86788638909442" width="395.52"><g><svg viewBox="0 0 395.52 68.33809345794393" height="68.33809345794393" width="395.52"><g transform="matrix(1,0,0,1,0,0)"><svg width="395.52" viewBox="0.17000001668930054 -35.45000076293945 208.97000122070312 36.11000061035156" height="68.33809345794393" data-palette-color="#89939e"><path d="M0.17-0.2L0.17-0.2 0.17-0.88Q0.17-1.07 0.37-1.07L0.37-1.07 0.9-1.07Q1.93-1.15 3-1.16 4.08-1.17 4.96-1.42L4.96-1.42Q6.96-2 6.96-4.35L6.96-4.35 6.96-30.08Q6.96-32.5 4.1-33.15L4.1-33.15Q3.3-33.33 2.47-33.45L2.47-33.45 1.95-33.45Q1.76-33.45 1.76-33.64L1.76-33.64 1.76-34.23Q1.76-34.42 1.95-34.42L1.95-34.42 25.17-34.42Q25.61-34.42 25.81-34.27 26-34.11 26.05-33.57L26.05-33.57 26.49-26.49Q26.49-26.25 26.12-26.25 25.76-26.25 25.59-26.46L25.59-26.46Q25.44-26.71 25.21-28.25 24.98-29.79 24.37-30.81 23.75-31.84 22.22-32.1L22.22-32.1 12.04-32.1Q11.72-32.1 11.72-31.79L11.72-31.79 11.72-19.17Q11.72-18.92 11.96-18.92L11.96-18.92 20.41-18.92Q23.68-18.92 23.68-22.73L23.68-22.73Q23.68-22.92 23.88-22.92L23.88-22.92 24.46-22.92Q24.66-22.92 24.66-22.73L24.66-22.73 24.66-12.28Q24.66-12.08 24.46-12.08L24.46-12.08 23.88-12.08Q23.68-12.08 23.68-12.28L23.68-12.28Q23.68-15.89 21.58-16.46L21.58-16.46Q21-16.6 20.34-16.6L20.34-16.6 11.96-16.6Q11.72-16.6 11.72-16.36L11.72-16.36 11.72-4.47Q11.72-2.64 13.4-2.39L13.4-2.39Q13.89-2.32 14.43-2.32L14.43-2.32 22.56-2.32Q25.07-2.32 26.46-4.54L26.46-4.54Q27.47-6.13 27.69-8.18L27.69-8.18Q27.76-8.86 28.42-8.86L28.42-8.86Q28.71-8.86 28.71-8.54L28.71-8.54 27.91-0.34Q27.76 0 27.56 0L27.56 0 0.37 0Q0.17 0 0.17-0.2ZM43.09-0.98L43.09-0.98Q43.23-0.98 43.23-0.78L43.23-0.78 43.23-0.2Q43.23 0 43.09 0L43.09 0 31.69 0Q31.49 0 31.49-0.2L31.49-0.2 31.49-0.78Q31.49-0.98 31.69-0.98L31.69-0.98Q35.69-0.98 36.03-4.42L36.03-4.42Q36.13-5.42 36.24-7.75 36.35-10.08 36.89-17.79 37.42-25.49 37.42-30.25L37.42-30.25 37.42-31.15Q37.42-32.13 36.31-32.79 35.2-33.45 34.69-33.45 34.18-33.45 34.18-33.64L34.18-33.64 34.18-34.23Q34.18-34.42 34.37-34.42L34.37-34.42 41.43-34.42Q41.89-34.35 42.19-33.89L42.19-33.89 53.64-8.37Q53.76-8.2 53.83-8.08 53.9-7.96 54.2-7.97 54.49-7.98 54.64-8.4L54.64-8.4 65.96-33.45Q66.48-34.42 66.89-34.42L66.89-34.42 74-34.42Q74.19-34.42 74.19-34.23L74.19-34.23 74.19-33.64Q74.19-33.45 74.07-33.45L74.07-33.45Q73.34-33.45 72.26-32.96L72.26-32.96Q70.63-32.23 70.63-30.79L70.63-30.79 72.09-3.81Q72.14-2.54 73.41-1.76 74.68-0.98 76.73-0.98L76.73-0.98Q76.93-0.98 76.93-0.78L76.93-0.78 76.93-0.2Q76.93 0 76.73 0L76.73 0 62.86 0Q62.67 0 62.67-0.2L62.67-0.2 62.67-0.78Q62.67-0.98 62.86-0.98L62.86-0.98Q67.23-0.98 67.23-3.1L67.23-3.1 65.94-26.42Q65.92-26.66 65.81-26.66 65.7-26.66 65.62-26.44L65.62-26.44 53.49-0.17Q53.39 0 52.93 0 52.46 0 52.39-0.2L52.39-0.2 40.43-26.51Q40.28-26.86 40.15-26.86 40.01-26.86 40.01-26.32L40.01-26.32Q40.01-25.2 39.43-15.72 38.84-6.25 38.84-3.91L38.84-3.91 38.84-2.91Q39.13-1.51 41.6-1.1L41.6-1.1Q42.31-0.98 43.09-0.98ZM94.99 0L80.39 0Q80.2 0 80.2-0.49L80.2-0.49 80.2-0.78Q80.2-0.98 80.44-0.98 80.68-0.98 81.16-1.12 81.64-1.27 81.88-1.32L81.88-1.32Q84.37-1.88 84.37-4.15L84.37-4.15 84.37-29.93Q84.37-32.18 83.54-32.8 82.71-33.42 80.54-33.42L80.54-33.42 79.44-33.42Q78.93-33.42 78.93-34.01L78.93-34.01Q78.93-34.35 79.24-34.42L79.24-34.42 79.41-34.42 93.11-34.79 95.58-34.79Q99.95-34.5 102.85-31.64 105.76-28.78 105.76-24.79 105.76-20.8 102.9-17.55L102.9-17.55Q101.66-16.11 100.09-15.22 98.53-14.33 97.02-14.31L97.02-14.31 89.69-14.6 89.5-14.6Q89.13-14.6 89.13-14.26L89.13-14.26 89.13-4.22Q89.13-2.88 89.86-2.25 90.6-1.61 92.96-1.25L92.96-1.25Q93.28-1.2 93.99-1.09 94.7-0.98 94.94-0.98 95.19-0.98 95.19-0.78L95.19-0.78 95.19-0.2Q95.19 0 94.99 0L94.99 0ZM91.11-33.56Q90.82-33.54 90.49-33.53 90.16-33.52 89.64-33.51 89.13-33.5 89.13-33.11L89.13-33.11 89.13-17.36 89.18-16.63Q89.25-16.11 89.64-16.09L89.64-16.09 92.13-15.94Q96.06-15.94 98.47-18.58 100.87-21.22 100.87-25.21 100.87-29.2 98.54-31.4 96.21-33.59 92.33-33.59L92.33-33.59Q91.99-33.59 91.69-33.58 91.4-33.57 91.11-33.56ZM133.32 0L108.68 0Q108.49 0 108.49-0.2L108.49-0.2 108.49-0.78Q108.49-0.98 108.68-0.98L108.68-0.98 109.27-0.98Q111.37-0.98 112.93-1.86L112.93-1.86Q113.57-2.22 113.98-2.99 114.4-3.76 114.4-4.71L114.4-4.71 114.4-30.54Q114.4-32.06 112.44-32.86L112.44-32.86Q111.08-33.45 109.54-33.45L109.54-33.45 109-33.45Q108.81-33.45 108.81-33.64L108.81-33.64 108.81-34.23Q108.81-34.42 109-34.42L109-34.42 125.53-34.42Q125.72-34.42 125.72-34.23L125.72-34.23 125.72-33.64Q125.72-33.45 125.53-33.45L125.53-33.45 124.48-33.45Q121.97-33.45 120.04-32.74L120.04-32.74Q119.47-32.54 119.32-32.09 119.16-31.64 119.16-30.54L119.16-30.54 119.16-3.47Q119.21-3.05 119.6-2.69 119.99-2.32 120.48-2.32L120.48-2.32 130.12-2.32Q132.29-2.32 134.39-4.88L134.39-4.88Q134.95-5.57 135.78-6.7 136.61-7.84 136.81-7.98L136.81-7.98Q137.59-8.57 137.59-7.96L137.59-7.96Q137.59-7.81 137.52-7.67L137.52-7.67 133.83-0.44Q133.61 0 133.32 0L133.32 0ZM137.93-0.2L137.93-0.2 137.93-0.88Q137.93-1.07 138.12-1.07L138.12-1.07 138.66-1.07Q139.69-1.15 140.76-1.16 141.84-1.17 142.71-1.42L142.71-1.42Q144.72-2 144.72-4.35L144.72-4.35 144.72-30.08Q144.72-32.5 141.86-33.15L141.86-33.15Q141.05-33.33 140.22-33.45L140.22-33.45 139.71-33.45Q139.52-33.45 139.52-33.64L139.52-33.64 139.52-34.23Q139.52-34.42 139.71-34.42L139.71-34.42 162.93-34.42Q163.37-34.42 163.56-34.27 163.76-34.11 163.81-33.57L163.81-33.57 164.25-26.49Q164.25-26.25 163.88-26.25 163.52-26.25 163.34-26.46L163.34-26.46Q163.2-26.71 162.97-28.25 162.73-29.79 162.12-30.81 161.51-31.84 159.98-32.1L159.98-32.1 149.79-32.1Q149.48-32.1 149.48-31.79L149.48-31.79 149.48-19.17Q149.48-18.92 149.72-18.92L149.72-18.92 158.17-18.92Q161.44-18.92 161.44-22.73L161.44-22.73Q161.44-22.92 161.64-22.92L161.64-22.92 162.22-22.92Q162.42-22.92 162.42-22.73L162.42-22.73 162.42-12.28Q162.42-12.08 162.22-12.08L162.22-12.08 161.64-12.08Q161.44-12.08 161.44-12.28L161.44-12.28Q161.44-15.89 159.34-16.46L159.34-16.46Q158.75-16.6 158.1-16.6L158.1-16.6 149.72-16.6Q149.48-16.6 149.48-16.36L149.48-16.36 149.48-4.47Q149.48-2.64 151.16-2.39L151.16-2.39Q151.65-2.32 152.19-2.32L152.19-2.32 160.32-2.32Q162.83-2.32 164.22-4.54L164.22-4.54Q165.22-6.13 165.44-8.18L165.44-8.18Q165.52-8.86 166.18-8.86L166.18-8.86Q166.47-8.86 166.47-8.54L166.47-8.54 165.66-0.34Q165.52 0 165.32 0L165.32 0 138.12 0Q137.93 0 137.93-0.2ZM199.91-2.1Q197.79-0.81 195.28-0.07 192.76 0.66 190.81 0.66L190.81 0.66Q186.8 0.66 183.17-0.63L183.17-0.63Q178.19-2.44 175.16-5.98L175.16-5.98Q171.3-10.5 171.3-17.43L171.3-17.43Q171.3-22.44 173.86-26.55 176.43-30.66 180.96-33.06 185.49-35.45 190.7-35.45 195.91-35.45 200.04-33.13 204.16-30.81 206.65-26.76 209.14-22.71 209.14-17.98 209.14-13.26 206.68-9 204.21-4.74 199.91-2.1L199.91-2.1ZM176.43-18.21Q176.43-14.16 178.22-10.17 180.02-6.18 183.36-3.66 186.71-1.15 191.1-1.15L191.1-1.15Q197.35-1.15 200.84-5.93L200.84-5.93Q203.99-10.25 203.99-16.97 203.99-23.68 200.13-28.54L200.13-28.54Q198.25-30.91 195.53-32.34 192.81-33.76 190.04-33.76 187.27-33.76 185.5-33.15 183.73-32.54 182.29-31.48 180.85-30.42 179.75-28.96 178.65-27.49 177.92-25.78L177.92-25.78Q176.43-22.27 176.43-18.21Z" opacity="1" transform="matrix(1,0,0,1,0,0)" fill="#89939e" class="undefined-text-0" data-fill-palette-color="primary" id="text-0"></path></svg></g></svg></g><g transform="matrix(1,0,0,1,75.54432,84.47107720912149)"><svg viewBox="0 0 244.43135999999998 30.39680917997293" height="30.39680917997293" width="244.43135999999998"><g transform="matrix(1,0,0,1,0,0)"><svg width="244.43135999999998" viewBox="1.75 -35.5 369.45001220703125 45.95000076293945" height="30.39680917997293" data-palette-color="#89939e"><path d="M18.5-1.75Q16.7-0.6 14.4 0 12.1 0.6 9.8 0.6L9.8 0.6Q6.1 0.6 3.93-1.23 1.75-3.05 1.75-6.7L1.75-6.7 1.75-16.95Q1.75-21 4.28-23.25 6.8-25.5 10.95-25.5L10.95-25.5Q15.1-25.5 17.43-23.28 19.75-21.05 19.75-17.1L19.75-17.1 19.75-10.25 5.35-9.5 5.35-6.9Q5.35-4.8 6.65-3.75 7.95-2.7 10.2-2.7L10.2-2.7Q13.45-2.7 17.15-4.7L17.15-4.7 18.5-1.75ZM16.1-17.3Q16.1-19.95 14.45-21.08 12.8-22.2 10.9-22.2L10.9-22.2Q8.4-22.2 6.88-20.85 5.35-19.5 5.35-16.9L5.35-16.9 5.35-12.9 16.1-13.45 16.1-17.3ZM39.75 0L39.75-16.75Q39.75-19.45 38.12-20.78 36.5-22.1 34-22.1L34-22.1Q32.6-22.1 31.15-21.73 29.7-21.35 28.5-20.65L28.5-20.65 28.5 0 24.9 0 24.9-25.05 28.3-25.05 28.35-23.75Q29.5-24.55 31.12-25 32.75-25.45 34.55-25.45L34.55-25.45Q37.15-25.45 39.1-24.55L39.1-24.55Q41.1-23.65 42.22-21.85 43.35-20.05 43.35-17.3L43.35-17.3 43.35 0 39.75 0ZM64.6-0.3Q61.5 0.5 58.6 0.5L58.6 0.5Q55.9 0.5 54.1-0.1L54.1-0.1Q51.15-1.1 49.82-3.18 48.5-5.25 48.5-9L48.5-9 48.5-15.4Q48.5-20.35 51.1-22.93 53.7-25.5 57.8-25.5L57.8-25.5Q61.05-25.5 64.5-23.9L64.5-23.9 63.5-21.05Q60.65-22.15 58.4-22.15L58.4-22.15Q55.55-22.15 53.82-20.53 52.1-18.9 52.1-15.7L52.1-15.7 52.1-8.45Q52.1-5.5 54.02-4.17 55.95-2.85 58.95-2.85L58.95-2.85Q61.3-2.85 63.75-3.5L63.75-3.5 64.6-0.3ZM82.84 0L82.84-1.85Q81.79-0.7 80.24-0.08 78.69 0.55 77.04 0.55L77.04 0.55Q67.64 0.55 67.64-8.6L67.64-8.6 67.64-25.05 71.24-25.05 71.24-8.6Q71.24-5.7 72.74-4.28 74.24-2.85 77.04-2.85L77.04-2.85Q82.69-2.85 82.69-8.65L82.69-8.65 82.69-25.05 86.29-25.05 86.29 0 82.84 0ZM106.69-1.75Q104.89-0.6 102.59 0 100.29 0.6 97.99 0.6L97.99 0.6Q94.29 0.6 92.12-1.23 89.94-3.05 89.94-6.7L89.94-6.7 89.94-16.95Q89.94-21 92.47-23.25 94.99-25.5 99.14-25.5L99.14-25.5Q103.29-25.5 105.62-23.28 107.94-21.05 107.94-17.1L107.94-17.1 107.94-10.25 93.54-9.5 93.54-6.9Q93.54-4.8 94.84-3.75 96.14-2.7 98.39-2.7L98.39-2.7Q101.64-2.7 105.34-4.7L105.34-4.7 106.69-1.75ZM104.29-17.3Q104.29-19.95 102.64-21.08 100.99-22.2 99.09-22.2L99.09-22.2Q96.59-22.2 95.07-20.85 93.54-19.5 93.54-16.9L93.54-16.9 93.54-12.9 104.29-13.45 104.29-17.3ZM127.94 0L127.94-16.75Q127.94-19.45 126.31-20.78 124.69-22.1 122.19-22.1L122.19-22.1Q120.79-22.1 119.34-21.73 117.89-21.35 116.69-20.65L116.69-20.65 116.69 0 113.09 0 113.09-25.05 116.49-25.05 116.54-23.75Q117.69-24.55 119.31-25 120.94-25.45 122.74-25.45L122.74-25.45Q125.34-25.45 127.29-24.55L127.29-24.55Q129.29-23.65 130.41-21.85 131.54-20.05 131.54-17.3L131.54-17.3 131.54 0 127.94 0ZM143.09 0.65Q139.89 0.05 138.49-1.75 137.09-3.55 137.09-6.6L137.09-6.6 137.09-35 140.74-35 140.74-25.05 146.34-25.05 145.14-21.65 140.74-21.65 140.74-6.6Q140.74-3.05 144.14-2.15L144.14-2.15 143.09 0.65ZM150.53 0L150.53-25.05 154.03-25.05 154.03-23.75Q156.38-25.5 159.58-25.5L159.58-25.5Q161.18-25.5 163.48-25L163.48-25 162.58-21.6Q161.08-22.15 159.43-22.15L159.43-22.15Q157.23-22.15 155.68-21.23 154.13-20.3 154.13-18.55L154.13-18.55 154.13 0 150.53 0ZM180.88 0Q175.48 0.55 173.08 0.55L173.08 0.55Q167.83 0.55 164.73-1.4 161.63-3.35 161.63-8.45L161.63-8.45 161.63-12.6Q161.63-17.55 165.08-19.25L165.08-19.25Q166.73-20.05 169.13-20.05L169.13-20.05Q171.33-20.05 173.58-19.38 175.83-18.7 177.28-17.65L177.28-17.65Q177.28-22.8 170.23-22.8L170.23-22.8 170.48-25.45Q175.28-25.45 177.56-23.93 179.83-22.4 180.36-20.3 180.88-18.2 180.88-14.9L180.88-14.9 180.88 0ZM177.28-14.4Q175.53-15.25 173.43-15.93 171.33-16.6 169.58-16.6L169.58-16.6Q165.23-16.6 165.23-12.3L165.23-12.3 165.23-8.4Q165.23-2.7 173.03-2.7L173.03-2.7Q174.58-2.7 177.28-3.05L177.28-3.05 177.28-14.4ZM204.78 0.65Q201.58 0.05 200.18-1.75 198.78-3.55 198.78-6.6L198.78-6.6 198.78-35 202.43-35 202.43-25.05 208.03-25.05 206.83-21.65 202.43-21.65 202.43-6.6Q202.43-3.05 205.83-2.15L205.83-2.15 204.78 0.65ZM226.17 0L226.17-1.85Q225.12-0.7 223.57-0.08 222.02 0.55 220.37 0.55L220.37 0.55Q210.97 0.55 210.97-8.6L210.97-8.6 210.97-25.05 214.57-25.05 214.57-8.6Q214.57-5.7 216.07-4.28 217.57-2.85 220.37-2.85L220.37-2.85Q226.02-2.85 226.02-8.65L226.02-8.65 226.02-25.05 229.62-25.05 229.62 0 226.17 0ZM253.62 0.65Q250.42 0.05 249.02-1.75 247.62-3.55 247.62-6.6L247.62-6.6 247.62-35 251.27-35 251.27-25.05 256.87-25.05 255.67-21.65 251.27-21.65 251.27-6.6Q251.27-3.05 254.67-2.15L254.67-2.15 253.62 0.65ZM261.07 0L261.07-25.05 264.57-25.05 264.57-23.75Q266.92-25.5 270.12-25.5L270.12-25.5Q271.72-25.5 274.02-25L274.02-25 273.12-21.6Q271.62-22.15 269.97-22.15L269.97-22.15Q267.77-22.15 266.22-21.23 264.67-20.3 264.67-18.55L264.67-18.55 264.67 0 261.07 0ZM291.41 0Q286.01 0.55 283.61 0.55L283.61 0.55Q278.36 0.55 275.26-1.4 272.16-3.35 272.16-8.45L272.16-8.45 272.16-12.6Q272.16-17.55 275.61-19.25L275.61-19.25Q277.26-20.05 279.66-20.05L279.66-20.05Q281.86-20.05 284.11-19.38 286.36-18.7 287.81-17.65L287.81-17.65Q287.81-22.8 280.76-22.8L280.76-22.8 281.01-25.45Q285.81-25.45 288.09-23.93 290.36-22.4 290.89-20.3 291.41-18.2 291.41-14.9L291.41-14.9 291.41 0ZM287.81-14.4Q286.06-15.25 283.96-15.93 281.86-16.6 280.11-16.6L280.11-16.6Q275.76-16.6 275.76-12.3L275.76-12.3 275.76-8.4Q275.76-2.7 283.56-2.7L283.56-2.7Q285.11-2.7 287.81-3.05L287.81-3.05 287.81-14.4ZM313.71-7.85Q313.71-5.3 312.66-3.55 311.61-1.8 309.81-0.9L309.81-0.9Q308.21-0.1 306.59 0.25 304.96 0.6 303.11 0.6L303.11 0.6Q301.26 0.6 298.01 0.25L298.01 0.25 295.26 0 295.26-35 298.86-35 298.86-24.1Q299.96-24.75 301.51-25.1 303.06-25.45 304.66-25.45L304.66-25.45Q307.41-25.45 309.46-24.5L309.46-24.5Q313.71-22.55 313.71-17.3L313.71-17.3 313.71-7.85ZM310.16-16.75Q310.16-19.55 308.54-20.8 306.91-22.05 304.41-22.05L304.41-22.05Q302.91-22.05 301.41-21.65 299.91-21.25 298.86-20.6L298.86-20.6 298.86-3.1Q300.66-2.75 302.81-2.75L302.81-2.75Q306.06-2.75 308.11-3.93 310.16-5.1 310.16-7.8L310.16-7.8 310.16-16.75ZM336.56 0Q331.16 0.55 328.76 0.55L328.76 0.55Q323.51 0.55 320.41-1.4 317.31-3.35 317.31-8.45L317.31-8.45 317.31-12.6Q317.31-17.55 320.76-19.25L320.76-19.25Q322.41-20.05 324.81-20.05L324.81-20.05Q327.01-20.05 329.26-19.38 331.51-18.7 332.96-17.65L332.96-17.65Q332.96-22.8 325.91-22.8L325.91-22.8 326.16-25.45Q330.96-25.45 333.23-23.93 335.51-22.4 336.03-20.3 336.56-18.2 336.56-14.9L336.56-14.9 336.56 0ZM332.96-14.4Q331.21-15.25 329.11-15.93 327.01-16.6 325.26-16.6L325.26-16.6Q320.91-16.6 320.91-12.3L320.91-12.3 320.91-8.4Q320.91-2.7 328.71-2.7L328.71-2.7Q330.26-2.7 332.96-3.05L332.96-3.05 332.96-14.4ZM343.71-31.4Q342.86-31.4 342.23-32 341.61-32.6 341.61-33.45L341.61-33.45Q341.61-34.3 342.23-34.9 342.86-35.5 343.71-35.5L343.71-35.5Q344.56-35.5 345.13-34.9 345.71-34.3 345.71-33.45L345.71-33.45Q345.71-32.6 345.11-32 344.5-31.4 343.71-31.4L343.71-31.4ZM341.81-21.6L339.46-21.85 338.36-25.05 345.41-25.05 345.41 3.75Q345.31 6.6 343.43 8.53 341.56 10.45 338.81 10.45L338.81 10.45 338.11 7.65Q338.11 7.8 339.13 7.35 340.16 6.9 340.98 5.78 341.81 4.65 341.81 2.5L341.81 2.5 341.81-21.6ZM371.2-9.2Q371.2-5 368.9-2.25 366.6 0.5 361.95 0.5L361.95 0.5Q357.3 0.5 354.93-2.27 352.55-5.05 352.55-9.2L352.55-9.2 352.55-15.8Q352.55-20.55 354.98-23.08 357.4-25.6 361.95-25.6L361.95-25.6Q366.3-25.6 368.75-22.98 371.2-20.35 371.2-15.8L371.2-15.8 371.2-9.2ZM367.6-15.8Q367.6-22.15 361.95-22.15L361.95-22.15Q359.3-22.15 357.73-20.65 356.15-19.15 356.15-15.8L356.15-15.8 356.15-8.7Q356.15-6 357.73-4.42 359.3-2.85 361.95-2.85L361.95-2.85Q364.6-2.85 366.1-4.42 367.6-6 367.6-8.7L367.6-8.7 367.6-15.8Z" opacity="1" transform="matrix(1,0,0,1,0,0)" fill="#89939e" class="undefined-text-1" data-fill-palette-color="secondary" id="text-1"></path></svg></g></svg></g></svg></g></svg></g><g transform="matrix(1,0,0,1,125.01465053172863,0)"><svg viewBox="0 0 147.46829893654265 158.74741898972852" height="158.74741898972852" width="147.46829893654265"><g><svg xmlns="http://www.w3.org/2000/svg" xmlns:xlink="http://www.w3.org/1999/xlink" version="1.1" x="0" y="0" viewBox="13.642233848571777 10.190472602844238 73.31735229492188 78.92503356933594" enable-background="new 0 0 100 100" xml:space="preserve" height="158.74741898972852" width="147.46829893654265" class="icon-icon-0" data-fill-palette-color="accent" id="icon-0"><path d="M46.3 75.9c-3.1 0.3-5.5-0.3-7.5-1.8-3.1-2.3-3.4-6-3.4-6.2 0-0.7 0.5-1.3 1.2-1.4l0 0c0.7 0 1.3 0.5 1.4 1.2 0 0.1 0.2 2.7 2.4 4.3 1.8 1.3 4.5 1.6 8 0.9 0.7-0.2 1.4 0.3 1.5 1 0.2 0.7-0.3 1.4-1 1.5C48 75.7 47.1 75.8 46.3 75.9z" fill="#89939e" data-fill-palette-color="accent"></path><path d="M72.3 48.1c-0.2 0-0.4 0-0.6 0.1-0.8-1.7-2.6-2.8-4.6-2.8H56.5c-1.1 0-2.1 0.3-2.9 0.9-1-0.5-2.2-0.9-3.7-1-1.5 0-3 0.3-4.4 1-0.8-0.6-1.9-1-3-1H31.9c-2 0-3.8 1.2-4.6 2.9-0.2 0-0.3-0.1-0.5-0.1-0.9 0-1.6 0.7-1.6 1.6v1.5c0 0.9 0.7 1.6 1.6 1.6v2.5c0 2.8 2.3 5.1 5.1 5.1h10.6c2.8 0 5.1-2.3 5.1-5.1v-5.1c0-0.3 0-0.5-0.1-0.8 0.8-0.3 1.5-0.5 2.2-0.4 0.6 0 1.2 0.2 1.7 0.4-0.1 0.3-0.1 0.6-0.1 0.9v5.1c0 2.8 2.3 5.1 5.1 5.1H67c2.8 0 5.1-2.3 5.1-5.1v-2.7c0 0 0 0 0.1 0 0.9 0 1.6-0.7 1.6-1.6v-1.5C73.9 48.8 73.2 48.1 72.3 48.1z" fill="#89939e" data-fill-palette-color="accent"></path><path d="M79.3 49.6c-1.1-3.7-3-7-5.3-9.9-1.2 0-2.7 0-4.3-0.1 3.3 3.3 5.7 7.5 6.9 12.3l0.5 1.8 1.7-0.7c0.2-0.1 0.4-0.1 0.6-0.2 1.8-0.2 4.1 2.5 4.4 6.6 0.4 4.1-1.4 7.1-3.2 7.2-0.6 0.1-1.2-0.2-1.8-0.7L77 64.4l-0.7 2.3c-3.3 10.6-12.6 18-23.6 19-13.8 1.2-26.3-8.1-29-21.7l-0.3-1.5-1.5 0.3h-0.2c-1.9 0.2-4.3-2.7-4.7-7.1-0.4-4.4 1.5-7.6 3.4-7.8 0.9-0.1 1.7 0.5 2.2 1l1.7 1.7 0.9-2.2c1-2.4 3.7-6.4 3.7-6.4s-2.3 0.7-3.6 0.8l0 0c-0.3 0-0.5 0-0.8 0-0.5 0.8-1 1.6-1.4 2.5C22 44.8 21 44.6 20 44.7c-4 0.4-6.8 5.3-6.3 11.3 0.5 5.4 3.5 9.5 7 10 3.6 14.5 17.2 24.3 32.2 23 11.7-1 21.6-8.6 25.7-19.5 0.7 0.3 1.5 0.4 2.2 0.3 3.9-0.3 6.6-5.1 6.1-10.7C86.5 53.4 83.1 49.3 79.3 49.6z" fill="#89939e" data-fill-palette-color="accent"></path><path d="M48 14.9l-0.4-3.2c-0.1-0.9-1-1.6-1.9-1.5s-1.6 1-1.5 1.9l0.4 3.2c-17.3 2.7-30.1 12-28.9 21.1 0.4 2.8 2.1 5.3 4.7 7.4 3.4-4.5 14.6-8.9 28.3-10.7 13.4-1.8 25.1-0.5 29.8 2.8 1.9-2.6 2.8-5.3 2.4-8.1C79.6 18.8 65.1 13.2 48 14.9z" fill="#89939e" data-fill-palette-color="accent"></path></svg></g></svg></g><g></g></svg></g><defs></defs></svg><rect width="314.89592440557516" height="247.2" fill="none" stroke="none" visibility="hidden"></rect></g></svg></g></svg>