<svg width="140" height="43" viewBox="0 0 140 43" fill="none" xmlns="http://www.w3.org/2000/svg">
<path d="M0 9.34517H23.8836V14.7457H14.6737V33.7242H8.97513V14.7457H0V9.34517Z" fill="#275E76"/>
<path d="M68.3262 9.68242L68.8548 16.651L68.6198 15.6639C69.246 14.2319 70.1474 12.9925 71.3223 11.9473C72.4973 10.902 73.7503 10.109 75.0821 9.56633C76.4132 9.02447 77.5496 8.73441 78.4897 8.69516L78.2548 14.1539C76.3748 13.9997 74.739 14.3382 73.349 15.1701C71.9584 16.0033 70.8615 17.0865 70.0589 18.4222C69.2556 19.7579 68.8548 21.2007 68.8548 22.7485V33.7241H63.3908V9.68242H68.3262Z" fill="#275E76"/>
<path d="M95.7623 34.3048C92.9806 34.3048 90.5922 33.7531 88.5946 32.65C86.5972 31.5466 85.0497 30.0364 83.9535 28.1203C82.8568 26.204 82.3086 24.0071 82.3086 21.529C82.3086 19.1683 82.9254 17.0196 84.1593 15.0832C85.3928 13.1479 87.0279 11.5988 89.0645 10.4376C91.1006 9.27585 93.3728 8.69524 95.8797 8.69524C99.0908 8.69524 101.669 9.72458 103.87 11.4827C104.987 12.3752 106.212 14.2085 106.883 16.17C107.645 18.4004 107.82 20.8035 107.82 22.6569L87.4997 22.719L86.2073 19.525L103.848 19.4126L102.732 20.2255C102.476 19.5298 102.181 18.0479 101.57 16.7879C101.059 15.7343 100.256 14.8674 99.7573 14.4443C98.6602 13.5153 97.231 13.0508 95.4683 13.0508C93.9794 13.0508 92.6577 13.399 91.503 14.0959C90.3468 14.7928 89.4362 15.7511 88.7709 16.9704C88.1045 18.19 87.7721 19.6128 87.7721 21.2387C87.7721 22.8647 88.1145 24.3164 88.8004 25.5941C89.485 26.8719 90.4451 27.8688 91.679 28.5848C92.9128 29.3017 94.3127 29.6591 95.8797 29.6591C96.9371 29.6591 97.9653 29.4656 98.9637 29.0785C99.963 28.6919 100.912 28.1883 101.814 27.5686L104.281 31.5755C103.067 32.3885 101.705 33.0471 100.198 33.5497C98.6896 34.0525 97.2108 34.3048 95.7623 34.3048Z" fill="#275E76"/>
<path d="M126.605 29.8334C127.976 29.8334 129.21 29.5818 130.307 29.0785C131.402 28.5757 132.313 27.8589 133.038 26.9297C133.763 26.0006 134.262 24.9171 134.536 23.6775V18.974C134.222 17.8127 133.674 16.7963 132.891 15.9251C132.107 15.0539 131.167 14.377 130.072 13.8925C128.974 13.4091 127.78 13.1669 126.488 13.1669C124.998 13.1669 123.648 13.5153 122.434 14.212C121.219 14.9089 120.25 15.8772 119.526 17.1158C118.8 18.355 118.439 19.8068 118.439 21.471C118.439 23.0201 118.811 24.4326 119.555 25.7102C120.299 26.9881 121.297 27.9948 122.551 28.7299C123.804 29.4657 125.156 29.8334 126.605 29.8334ZM125.136 34.3049C122.865 34.3049 120.798 33.8204 118.938 32.8529C117.078 31.8859 115.599 30.4629 114.503 28.5849C113.406 26.7075 112.858 24.4136 112.858 21.7033C112.858 18.9938 113.425 16.6711 114.561 14.7348C115.697 12.7995 117.224 11.3083 119.144 10.2632C121.063 9.21786 123.158 8.69513 125.43 8.69513C127.701 8.69513 129.631 9.20888 131.217 10.2342C132.803 11.2604 133.988 12.47 134.771 13.8636L134.419 14.7348L134.947 9.68239H140V33.7243H134.536V27.4526L135.183 28.846C134.986 29.2335 134.614 29.7271 134.066 30.3271C133.517 30.9275 132.823 31.5375 131.981 32.1562C131.138 32.7761 130.149 33.2885 129.014 33.6953C127.877 34.1015 126.585 34.3049 125.136 34.3049Z" fill="#275E76"/>
<path d="M38.6374 31.2809L29.8117 23.9875L31.5877 18.7081L38.5015 23.8793L45.7055 12.9469L48.4453 17.5823L38.6374 31.2809ZM48.9384 9.6824L48.5393 13.4972C47.7603 12.2577 46.653 11.1689 45.2079 10.2342C43.6218 9.20889 41.6923 8.69514 39.4213 8.69514C37.1492 8.69514 35.0537 9.21787 33.135 10.2632C31.2155 11.3083 29.688 12.7994 28.5525 14.7348C27.416 16.6711 26.8487 18.9939 26.8487 21.7033C26.8487 24.4136 27.3967 26.7075 28.4936 28.5849C29.5898 30.4629 31.0686 31.886 32.9292 32.8529C34.789 33.8204 36.8554 34.3049 39.1274 34.3049C40.5759 34.3049 41.8685 34.1015 43.0049 33.6953C44.1405 33.2885 45.1292 32.7761 45.9715 32.1562C46.8135 31.5375 47.5084 30.9275 48.0574 30.3271C48.2348 30.1328 48.3869 29.9539 48.5274 29.7819V33.7241H53.9909V9.6824H48.9384Z" fill="#275E76"/>
</svg>
