<svg width="42" height="43" viewBox="0 0 42 43" fill="none" xmlns="http://www.w3.org/2000/svg">
<g clip-path="url(#clip0_28_61)">
<path d="M41.5852 16.8418C42.1382 16.2888 42.1382 15.3922 41.5852 14.8391L39.46 12.714C38.9794 12.2334 38.2248 12.1621 37.6627 12.5441L33.1944 15.5811L36.213 11.0825C36.5899 10.5207 36.5169 9.77054 36.0383 9.29219L31.4285 4.6824C31.003 4.25682 30.355 4.14665 29.8129 4.40787L29.0158 4.79162L29.3975 3.94481C29.6395 3.40812 29.5241 2.77787 29.1079 2.36155L27.6608 0.914697C27.1079 0.361768 26.2112 0.361768 25.6582 0.914697L14.4184 12.1545L30.3454 28.0815L41.5852 16.8418Z" fill="#F9A339"/>
<path d="M12.3255 14.2473L9.07174 17.5011C8.80618 17.7666 8.65692 18.1268 8.65692 18.5023C8.65692 18.8779 8.80608 19.2381 9.07174 19.5036L12.1582 22.5901C12.7529 23.1847 13.0413 24.0054 12.9495 24.8415C12.8578 25.6771 12.3979 26.4159 11.6877 26.8687C2.61841 32.6499 1.77301 33.4954 1.49527 33.7732C-0.498465 35.7669 -0.498465 39.0108 1.49527 41.0046C3.49099 43.0004 6.73512 42.9964 8.72669 41.0046C9.00462 40.7268 9.8503 39.881 15.6311 30.8122C16.0827 30.1037 16.8213 29.6448 17.6572 29.5529C18.4958 29.4614 19.3164 29.7484 19.9096 30.3416L22.9961 33.4281C23.549 33.981 24.4458 33.981 24.9987 33.4281L28.2526 30.1742L12.3255 14.2473ZM6.61306 38.7174C5.83139 39.4991 4.56409 39.4991 3.78252 38.7174C3.00084 37.9357 3.00084 36.6684 3.78252 35.8868C4.56419 35.1052 5.83148 35.1052 6.61306 35.8868C7.39473 36.6684 7.39473 37.9357 6.61306 38.7174Z" fill="#F9A339"/>
</g>
<defs>
<clipPath id="clip0_28_61">
<rect width="42" height="42" fill="white" transform="translate(0 0.5)"/>
</clipPath>
</defs>
</svg>
