<svg width="42" height="43" viewBox="0 0 42 43" fill="none" xmlns="http://www.w3.org/2000/svg">
<g clip-path="url(#clip0_28_164)">
<path d="M9.51553 27.6522C10.1951 27.6522 10.746 27.1013 10.746 26.4218C10.746 25.7422 10.1951 25.1913 9.51553 25.1913C8.83596 25.1913 8.28506 25.7422 8.28506 26.4218C8.28506 27.1013 8.83596 27.6522 9.51553 27.6522Z" fill="#DF4088"/>
<path d="M9.51553 17.8086C10.1951 17.8086 10.746 17.2577 10.746 16.5781C10.746 15.8986 10.1951 15.3477 9.51553 15.3477C8.83596 15.3477 8.28506 15.8986 8.28506 16.5781C8.28506 17.2577 8.83596 17.8086 9.51553 17.8086Z" fill="#DF4088"/>
<path d="M16.0781 35.4453C16.7576 35.4453 17.3085 34.8944 17.3085 34.2148C17.3085 33.5353 16.7576 32.9844 16.0781 32.9844C15.3985 32.9844 14.8476 33.5353 14.8476 34.2148C14.8476 34.8944 15.3985 35.4453 16.0781 35.4453Z" fill="#DF4088"/>
<path d="M16.0781 10.0156C16.7576 10.0156 17.3085 9.46472 17.3085 8.78516C17.3085 8.10559 16.7576 7.55469 16.0781 7.55469C15.3985 7.55469 14.8476 8.10559 14.8476 8.78516C14.8476 9.46472 15.3985 10.0156 16.0781 10.0156Z" fill="#DF4088"/>
<path d="M25.2878 27.9672C24.8355 27.2637 24.3678 26.5362 23.9446 25.8157C22.381 23.1537 22.381 19.8463 23.9446 17.1843C24.3678 16.4639 24.8355 15.7363 25.2878 15.0328C26.564 13.0475 27.7694 11.1724 28.211 9.22363C28.75 6.84489 27.9992 4.75219 25.9791 3.00378C24.6014 1.81145 22.9006 1.0059 21.0603 0.674171C19.2874 0.354331 17.4176 0.47787 15.6532 1.03125C11.6124 2.29806 7.97206 4.96933 5.40252 8.55302C2.72674 12.285 1.31244 16.762 1.31244 21.5C1.31244 26.2381 2.72674 30.715 5.40252 34.447C7.97198 38.0307 11.6124 40.702 15.6532 41.9688C16.7779 42.3214 17.945 42.4994 19.1029 42.4994C19.7615 42.4994 20.4174 42.4418 21.0603 42.3259C22.9006 41.9941 24.6014 41.1886 25.979 39.9963C27.9991 38.2478 28.7499 36.1551 28.2109 33.7764C27.7693 31.8275 26.564 29.9524 25.2878 27.9672ZM9.51556 12.8867C11.551 12.8867 13.207 14.5427 13.207 16.5781C13.207 18.6136 11.551 20.2695 9.51556 20.2695C7.48012 20.2695 5.82416 18.6136 5.82416 16.5781C5.82416 14.5427 7.48012 12.8867 9.51556 12.8867ZM9.51556 30.1133C7.48012 30.1133 5.82416 28.4573 5.82416 26.4219C5.82416 24.3864 7.48012 22.7305 9.51556 22.7305C11.551 22.7305 13.207 24.3864 13.207 26.4219C13.207 28.4573 11.551 30.1133 9.51556 30.1133ZM16.0781 37.9063C14.0426 37.9063 12.3867 36.2503 12.3867 34.2149C12.3867 32.1794 14.0426 30.5234 16.0781 30.5234C18.1135 30.5234 19.7695 32.1794 19.7695 34.2149C19.7695 36.2503 18.1135 37.9063 16.0781 37.9063ZM16.0781 12.4766C14.0426 12.4766 12.3867 10.8206 12.3867 8.78517C12.3867 6.74973 14.0426 5.09377 16.0781 5.09377C18.1135 5.09377 19.7695 6.74973 19.7695 8.78517C19.7695 10.8206 18.1135 12.4766 16.0781 12.4766Z" fill="#DF4088"/>
<path d="M39.2275 5.74918L36.5822 1.11999C36.3631 0.73666 35.9555 0.5 35.5139 0.5C35.0724 0.5 34.6647 0.73666 34.4456 1.11999L31.8003 5.74918C31.0351 7.08826 31.0404 8.68409 31.8146 10.0181C32.0096 10.3541 32.2446 10.6543 32.5096 10.918H38.5182C38.7833 10.6543 39.0182 10.3541 39.2132 10.0181C39.9874 8.68417 39.9928 7.08826 39.2275 5.74918Z" fill="#DF4088"/>
<path d="M30.7068 20.3514H40.3213L40.6755 16.5138C40.7495 15.7118 40.4808 14.9104 39.9381 14.3153C39.3953 13.7201 38.6221 13.3788 37.8166 13.3788H33.2115C32.406 13.3788 31.6327 13.7201 31.09 14.3153C30.5473 14.9104 30.2785 15.7117 30.3525 16.5138L30.7068 20.3514Z" fill="#DF4088"/>
<path d="M30.934 22.8125L32.4975 39.7489C32.6421 41.3173 33.939 42.5 35.5141 42.5C37.0891 42.5 38.386 41.3174 38.5308 39.749L40.0941 22.8125H30.934Z" fill="#DF4088"/>
</g>
<defs>
<clipPath id="clip0_28_164">
<rect width="42" height="42" fill="white" transform="translate(0 0.5)"/>
</clipPath>
</defs>
</svg>
