<svg width="42" height="43" viewBox="0 0 42 43" fill="none" xmlns="http://www.w3.org/2000/svg">
<g clip-path="url(#clip0_28_127)">
<path d="M32.9631 1.67583V1.67149C32.2237 0.922061 31.2187 0.500434 30.1703 0.5H11.8254C9.64657 0.507159 7.88212 2.28619 7.87502 4.48306V38.5126C7.87545 39.5697 8.29362 40.583 9.0369 41.3285C9.77524 42.0769 10.7785 42.4984 11.8254 42.5H30.1746C31.2215 42.4984 32.2248 42.0769 32.9631 41.3285C33.7053 40.5841 34.1234 39.5725 34.125 38.5169V4.4874C34.1234 3.43186 33.7053 2.42026 32.9631 1.67583ZM21 39.7969C20.4106 39.7969 19.9328 39.3152 19.9328 38.7209C19.9328 38.1266 20.4106 37.6448 21 37.6448C21.5895 37.6448 22.0672 38.1266 22.0672 38.7209C22.0672 39.3152 21.5895 39.7969 21 39.7969ZM30.9879 33.0413C30.9879 34.4791 29.832 35.6446 28.406 35.6446H13.5898C12.1638 35.6446 11.0078 34.4791 11.0078 33.0413V7.68078C11.0078 6.243 12.1638 5.07748 13.5898 5.07748H28.4103C29.8363 5.07748 30.9922 6.243 30.9922 7.68078L30.9879 33.0413Z" fill="#DF4088"/>
</g>
<defs>
<clipPath id="clip0_28_127">
<rect width="42" height="42" fill="white" transform="translate(0 0.5)"/>
</clipPath>
</defs>
</svg>
