<svg width="42" height="43" viewBox="0 0 42 43" fill="none" xmlns="http://www.w3.org/2000/svg">
<g clip-path="url(#clip0_28_208)">
<path d="M36.9783 10.5436H32.5956L30.1761 6.89138C29.263 5.52181 27.6652 4.70007 26.0217 4.70007H15.9783C14.3348 4.70007 12.737 5.52181 11.8239 6.89138L9.40435 10.5436H5.02174C2.23696 10.5436 0 12.7805 0 15.5653V33.2783C0 36.0631 2.23696 38.3001 5.02174 38.3001H36.9783C39.763 38.3001 42 36.0631 42 33.2783V15.5653C42 12.7805 39.763 10.5436 36.9783 10.5436ZM21 34.1914C14.7457 34.1914 9.67826 29.124 9.67826 22.8696C9.67826 16.6153 14.7457 11.5936 21 11.5936C27.2543 11.5936 32.3217 16.6609 32.3217 22.9153C32.3217 29.124 27.2543 34.1914 21 34.1914ZM36.3391 17.6196C36.2935 17.6196 36.2478 17.6196 36.1565 17.6196H34.3304C33.5087 17.574 32.8696 16.8892 32.9152 16.0675C32.9609 15.2914 33.5543 14.6979 34.3304 14.6522H36.1565C36.9783 14.6066 37.663 15.2457 37.7087 16.0675C37.7543 16.8892 37.1609 17.574 36.3391 17.6196Z" fill="#1EC245"/>
<path d="M21 16.6152C17.5304 16.6152 14.7 19.4456 14.7 22.9152C14.7 26.3847 17.5304 29.1695 21 29.1695C24.4696 29.1695 27.3 26.3391 27.3 22.8695C27.3 19.4 24.4696 16.6152 21 16.6152Z" fill="#1EC245"/>
</g>
<defs>
<clipPath id="clip0_28_208">
<rect width="42" height="42" fill="white" transform="translate(0 0.5)"/>
</clipPath>
</defs>
</svg>
