<svg width="16" height="17" viewBox="0 0 16 17" fill="none" xmlns="http://www.w3.org/2000/svg">
<g clip-path="url(#clip0_171_54)">
<path d="M13.0233 2.58132L11.9193 1.47598C11.6104 1.16552 11.2431 0.919409 10.8384 0.751879C10.4338 0.584349 9.99994 0.498732 9.562 0.499983H5.33333C4.4496 0.501042 3.60237 0.852571 2.97748 1.47746C2.35259 2.10236 2.00106 2.94959 2 3.83332V13.1667C2.00106 14.0504 2.35259 14.8976 2.97748 15.5225C3.60237 16.1474 4.4496 16.4989 5.33333 16.5H10.6667C11.5504 16.4989 12.3976 16.1474 13.0225 15.5225C13.6474 14.8976 13.9989 14.0504 14 13.1667V4.93798C14.0011 4.50011 13.9153 4.06636 13.7477 3.66184C13.58 3.25733 13.3338 2.89007 13.0233 2.58132ZM12.0807 3.52398C12.1752 3.6182 12.2599 3.72185 12.3333 3.83332H10.6667V2.16665C10.778 2.24086 10.8818 2.32571 10.9767 2.41998L12.0807 3.52398ZM12.6667 13.1667C12.6667 13.6971 12.456 14.2058 12.0809 14.5809C11.7058 14.9559 11.1971 15.1667 10.6667 15.1667H5.33333C4.8029 15.1667 4.29419 14.9559 3.91912 14.5809C3.54405 14.2058 3.33333 13.6971 3.33333 13.1667V3.83332C3.33333 3.30288 3.54405 2.79418 3.91912 2.4191C4.29419 2.04403 4.8029 1.83332 5.33333 1.83332H9.33333V3.83332C9.33333 4.18694 9.47381 4.52608 9.72386 4.77613C9.97391 5.02617 10.313 5.16665 10.6667 5.16665H12.6667V13.1667ZM10.6667 6.49998C10.8435 6.49998 11.013 6.57022 11.1381 6.69525C11.2631 6.82027 11.3333 6.98984 11.3333 7.16665C11.3333 7.34346 11.2631 7.51303 11.1381 7.63805C11.013 7.76308 10.8435 7.83332 10.6667 7.83332H5.33333C5.15652 7.83332 4.98695 7.76308 4.86193 7.63805C4.7369 7.51303 4.66667 7.34346 4.66667 7.16665C4.66667 6.98984 4.7369 6.82027 4.86193 6.69525C4.98695 6.57022 5.15652 6.49998 5.33333 6.49998H10.6667ZM11.3333 9.83332C11.3333 10.0101 11.2631 10.1797 11.1381 10.3047C11.013 10.4297 10.8435 10.5 10.6667 10.5H5.33333C5.15652 10.5 4.98695 10.4297 4.86193 10.3047C4.7369 10.1797 4.66667 10.0101 4.66667 9.83332C4.66667 9.65651 4.7369 9.48694 4.86193 9.36191C4.98695 9.23689 5.15652 9.16665 5.33333 9.16665H10.6667C10.8435 9.16665 11.013 9.23689 11.1381 9.36191C11.2631 9.48694 11.3333 9.65651 11.3333 9.83332ZM11.2053 12.1087C11.309 12.2512 11.3519 12.429 11.3248 12.6032C11.2977 12.7773 11.2027 12.9337 11.0607 13.038C10.3852 13.5193 9.5852 13.7955 8.75667 13.8333C8.27259 13.831 7.80321 13.6667 7.42333 13.3667C7.20467 13.2167 7.12133 13.1667 6.95667 13.1667C6.51095 13.2356 6.09041 13.4179 5.73533 13.696C5.5945 13.7964 5.42016 13.8381 5.24913 13.8124C5.0781 13.7866 4.92377 13.6954 4.81872 13.558C4.71368 13.4206 4.66615 13.2478 4.68616 13.076C4.70618 12.9042 4.79218 12.7469 4.926 12.6373C5.51345 12.1813 6.21885 11.9024 6.95933 11.8333C7.40342 11.8404 7.83275 11.9939 8.18067 12.27C8.33926 12.4126 8.54344 12.4942 8.75667 12.5C9.30178 12.4591 9.82598 12.2729 10.2747 11.9607C10.4177 11.8569 10.5961 11.8143 10.7706 11.842C10.9451 11.8698 11.1015 11.9657 11.2053 12.1087Z" fill="#BCC1D2"/>
</g>
<defs>
<clipPath id="clip0_171_54">
<rect width="16" height="16" fill="white" transform="translate(0 0.5)"/>
</clipPath>
</defs>
</svg>
