<svg width="42" height="43" viewBox="0 0 42 43" fill="none" xmlns="http://www.w3.org/2000/svg">
<g clip-path="url(#clip0_28_190)">
<path d="M37.4797 18.2784H36.2458V16.5443C36.2458 13.746 33.9523 11.4886 31.1549 11.4886H22.8415V7.32956C23.9345 6.6969 24.669 5.51495 24.669 4.15886C24.669 2.13769 23.0286 0.5 21.0092 0.5C18.9871 0.5 17.3383 2.13861 17.3383 4.15886C17.3383 5.51495 18.0655 6.6969 19.1585 7.32956V11.4886H10.858C8.05966 11.4886 5.81154 13.746 5.81154 16.5443V18.2784H4.53233C2.95671 18.2784 1.66916 19.5816 1.66916 21.1573V27.3199C1.66916 28.8946 2.95671 30.1868 4.53233 30.1868H5.81154V31.9347C5.81154 34.733 8.05966 36.9756 10.858 36.9756H13.233V39.647C13.233 41.2226 14.5233 42.5 16.099 42.5H25.914C27.4896 42.5 28.767 41.2226 28.767 39.647V36.9765H31.1549C33.9533 36.9765 36.2458 34.733 36.2458 31.9347V30.1877H37.4797C39.0553 30.1877 40.3308 28.8965 40.3308 27.3208V21.1582C40.3308 19.5826 39.0571 18.2784 37.4797 18.2784ZM9.89372 20.2032C9.89372 18.3515 11.3952 16.8519 13.246 16.8519C15.0967 16.8519 16.5964 18.3515 16.5964 20.2032C16.5964 22.0548 15.0967 23.5545 13.246 23.5545C11.3952 23.5545 9.89372 22.0548 9.89372 20.2032ZM25.5712 32.4321H16.4417C14.9291 32.4321 13.7026 31.2131 13.7026 29.6986C13.7026 28.186 14.9291 26.967 16.4417 26.967H25.5722C27.0848 26.967 28.3112 28.186 28.3112 29.6986C28.3112 31.2113 27.0839 32.4321 25.5712 32.4321ZM28.767 23.5545C26.9162 23.5545 25.4156 22.0548 25.4156 20.2032C25.4156 18.3515 26.9162 16.8519 28.767 16.8519C30.6186 16.8519 32.1192 18.3515 32.1192 20.2032C32.1192 22.0548 30.6186 23.5545 28.767 23.5545Z" fill="#1EC245"/>
</g>
<defs>
<clipPath id="clip0_28_190">
<rect width="42" height="42" fill="white" transform="translate(0 0.5)"/>
</clipPath>
</defs>
</svg>
