<svg width="23" height="24" viewBox="0 0 23 24" fill="none" xmlns="http://www.w3.org/2000/svg">
<g clip-path="url(#clip0_222_51)">
<path d="M11.5 0.375C5.14718 0.375 0 5.57812 0 12C0 18.4219 5.14718 23.625 11.5 23.625C17.8528 23.625 23 18.4219 23 12C23 5.57812 17.8528 0.375 11.5 0.375ZM11.5 4.875C13.7536 4.875 15.5806 6.72188 15.5806 9C15.5806 11.2781 13.7536 13.125 11.5 13.125C9.24637 13.125 7.41935 11.2781 7.41935 9C7.41935 6.72188 9.24637 4.875 11.5 4.875ZM11.5 21C8.77802 21 6.33891 19.7531 4.70665 17.8031C5.57843 16.1437 7.28488 15 9.27419 15C9.38548 15 9.49677 15.0188 9.60343 15.0516C10.2063 15.2484 10.8369 15.375 11.5 15.375C12.1631 15.375 12.7984 15.2484 13.3966 15.0516C13.5032 15.0188 13.6145 15 13.7258 15C15.7151 15 17.4216 16.1437 18.2933 17.8031C16.6611 19.7531 14.222 21 11.5 21Z" fill="#BCC1D2"/>
</g>
<defs>
<clipPath id="clip0_222_51">
<rect width="23" height="24" fill="white"/>
</clipPath>
</defs>
</svg>
