<svg width="16" height="17" viewBox="0 0 16 17" fill="none" xmlns="http://www.w3.org/2000/svg">
<g clip-path="url(#clip0_171_22)">
<path d="M10.3401 16.5C3.92939 16.4519 -3.58102 7.11086 1.90701 1.61833C2.102 1.42013 2.30838 1.22945 2.52042 1.05156C2.96885 0.67537 3.53699 0.481355 4.11985 0.505224C4.70505 0.529187 5.25529 0.770753 5.66919 1.18537C5.67187 1.18806 5.67456 1.19081 5.67722 1.19356L6.73433 2.29207C7.87837 3.41148 7.47293 5.43018 5.98142 6.01432C5.51969 6.20265 5.22514 6.36989 5.14644 6.42647C4.56433 7.0196 4.19377 7.98337 6.37108 10.1645C7.07762 10.8722 8.12409 11.8132 9.05061 11.8132C9.42649 11.8132 9.7715 11.6541 10.1045 11.3271C10.1479 11.2636 10.2976 11.0086 10.4906 10.5276C11.0688 9.02583 13.0914 8.60834 14.2149 9.76034L15.3007 10.8111C15.3033 10.8136 15.3059 10.8161 15.3084 10.8186C15.7206 11.2316 15.9619 11.7803 15.9876 12.3637C16.0133 12.9467 15.8216 13.5145 15.4479 13.9626C15.2821 14.1613 15.1049 14.3553 14.9214 14.5392C13.6284 15.8344 12.0632 16.5 10.3401 16.5ZM4.02453 1.75136C3.77752 1.75136 3.52905 1.83662 3.3236 2.00895C3.14193 2.16138 2.965 2.32481 2.79779 2.49477C-0.127898 5.46636 1.48012 9.52543 4.29102 12.3044C7.07662 15.076 11.1153 16.5914 14.037 13.6563C14.1944 13.4986 14.3462 13.3323 14.4883 13.162C14.849 12.7297 14.8225 12.1041 14.4274 11.7049L13.3423 10.6548C13.3397 10.6523 13.3371 10.6497 13.3346 10.6472C13.0859 10.3981 12.7456 10.2955 12.4013 10.3659C12.0558 10.4364 11.7821 10.665 11.6504 10.9931C11.5631 11.2107 11.2585 11.9402 11.0074 12.1918C10.4304 12.7698 9.77203 13.0628 9.05064 13.0628C7.67507 13.0628 6.42344 11.9857 5.48667 11.0473C4.0653 9.68367 2.42254 7.35833 4.27746 5.52794C4.5404 5.26453 5.28694 4.94792 5.50948 4.85716C5.83274 4.72532 6.05803 4.45248 6.12754 4.10866C6.19759 3.76218 6.09486 3.42032 5.84567 3.1707C5.84299 3.16801 5.8403 3.16526 5.83765 3.16251L4.78118 2.06466C4.57161 1.85664 4.29899 1.75136 4.02453 1.75136ZM15.3676 7.97024C15.0479 7.97024 14.7753 7.72609 14.746 7.40145C14.4751 4.39599 12.0972 2.01807 9.09179 1.74723C8.74809 1.71627 8.49459 1.41253 8.52555 1.06884C8.55648 0.725108 8.86044 0.471576 9.20395 0.5026C12.718 0.765348 15.7279 3.77524 15.9906 7.28926C16.0216 7.63295 15.7681 7.93669 15.4244 7.96765C15.4053 7.9694 15.3864 7.97024 15.3676 7.97024ZM10.4994 7.96931C10.8267 7.86008 11.0036 7.5062 10.8943 7.17881C10.6493 6.44418 10.0742 5.85407 9.3561 5.60023C9.0308 5.4852 8.67373 5.65575 8.55876 5.98114C8.44373 6.30649 8.61428 6.6635 8.93964 6.7785C9.29724 6.90491 9.58482 7.2024 9.70892 7.57431C9.79624 7.83606 10.04 8.00158 10.3016 8.00158C10.3671 8.00161 10.4338 7.99121 10.4994 7.96931ZM12.9542 7.9639C13.2958 7.91504 13.5331 7.59849 13.4843 7.25686C13.1713 5.06873 11.4245 3.32194 9.23635 3.00893C8.41174 2.92435 8.24325 4.09575 9.05939 4.24603C10.7014 4.48091 12.0123 5.79178 12.2471 7.43378C12.2917 7.74542 12.559 7.97021 12.8649 7.97021C12.8944 7.97028 12.9242 7.96818 12.9542 7.9639Z" fill="#BCC1D2"/>
</g>
<defs>
<clipPath id="clip0_171_22">
<rect width="16" height="16" fill="white" transform="translate(0 0.5)"/>
</clipPath>
</defs>
</svg>
