<svg width="24" height="24" viewBox="0 0 24 24" fill="none" xmlns="http://www.w3.org/2000/svg">
<path fill-rule="evenodd" clip-rule="evenodd" d="M20.5 6.657C19.8643 6.94276 19.189 7.13056 18.497 7.214C19.2278 6.76896 19.7725 6.07401 20.03 5.258C19.356 5.664 18.61 5.958 17.816 6.116C17.4918 5.76415 17.0981 5.48332 16.6599 5.29124C16.2217 5.09915 15.7485 4.99999 15.27 5C13.344 5 11.782 6.583 11.782 8.534C11.782 8.811 11.812 9.081 11.872 9.34C8.974 9.192 6.404 7.785 4.684 5.647C4.37343 6.18769 4.21032 6.80047 4.211 7.424C4.211 8.65 4.827 9.732 5.763 10.366C5.2083 10.348 4.66621 10.196 4.183 9.923V9.968C4.183 11.68 5.385 13.108 6.981 13.434C6.46765 13.5752 5.9286 13.5957 5.406 13.494C5.849 14.898 7.137 15.92 8.664 15.949C7.94348 16.5235 7.11577 16.9487 6.22916 17.1999C5.34254 17.4511 4.41478 17.5232 3.5 17.412C5.09006 18.4491 6.94763 19.0008 8.846 19C15.262 19 18.77 13.615 18.77 8.944C18.77 8.791 18.766 8.638 18.76 8.487C19.4441 7.98521 20.0333 7.36552 20.5 6.657Z" fill="#11112D"/>
</svg>
