<svg width="42" height="43" viewBox="0 0 42 43" fill="none" xmlns="http://www.w3.org/2000/svg">
<g clip-path="url(#clip0_28_236)">
<path d="M38.3118 2.04159C34.8903 0.0668094 30.1737 -0.0164171 26.0049 1.82491C22.1476 3.5295 19.367 7.28547 17.7234 10.1081C16.9835 9.9277 16.1918 10.2795 15.8483 10.9954C15.5196 11.68 15.7115 12.4743 16.2585 12.9488C16.1086 13.2825 16.0171 13.5066 15.9826 13.5939L7.99929 31.1291C7.19434 30.7582 6.23533 31.0886 5.83824 31.8886C5.43374 32.7034 5.76578 33.6921 6.58056 34.0974L6.63493 34.1246L4.839 38.0718H0.376126C-0.533422 38.0718 -1.27161 38.8099 -1.27161 39.7195C-1.27161 40.629 -0.533422 41.3672 0.376126 41.3672H8.61479C9.52434 41.3672 10.2625 40.629 10.2625 39.7195C10.2625 38.8099 9.52434 38.0718 8.61479 38.0718H8.45988L9.60257 35.5614C9.75334 35.6051 9.90575 35.6348 10.0582 35.6348C10.6637 35.6348 11.247 35.2994 11.5354 34.7203C11.9128 33.9607 11.6441 33.0569 10.9471 32.6087L19.2196 14.4384C19.4429 14.5414 19.676 14.5925 19.9075 14.5925C20.5213 14.5925 21.1103 14.2482 21.3938 13.6574C21.7711 12.8723 21.4646 11.9413 20.7182 11.5178C22.1277 9.14256 24.3844 6.14451 27.3379 4.83951C30.5131 3.43646 34.1744 3.45791 36.6649 4.89551C38.4964 5.95255 39.5485 7.63406 39.7939 9.89471C40.2537 14.1286 39.8639 16.9676 38.6389 18.3344C38.526 18.4604 38.4017 18.5684 38.2748 18.6705V22.3589C39.2898 22.0162 40.2644 21.4568 41.0915 20.535C42.9963 18.4135 43.643 14.8165 43.0705 9.53957C42.7163 6.26969 41.0256 3.60696 38.3118 2.04159Z" fill="#1EC245"/>
<path d="M33.6191 29.8331C34.6943 29.8331 35.7109 30.0778 36.6262 30.5045V22.7429V19.3997V17.4751C36.6262 16.5648 36.7127 16.6513 35.8024 16.6513H32.5753C31.665 16.6513 22.4829 17.4068 20.0575 29.3965L18.5012 39.3075C18.5012 40.2178 19.2386 41.3671 20.1489 41.3671H27.9682C27.0273 40.1553 26.4614 38.6394 26.4614 36.9908C26.4614 33.0436 29.6728 29.8331 33.6191 29.8331Z" fill="#1EC245"/>
<path d="M37.4502 33.0395C37.1972 32.7948 36.922 32.5741 36.6263 32.3805C35.7605 31.8137 34.7282 31.4808 33.6192 31.4808C30.5808 31.4808 28.1092 33.9525 28.1092 36.9908C28.1092 38.7753 28.966 40.3604 30.286 41.3672C30.7457 41.7181 31.2605 41.9975 31.8167 42.191C32.3826 42.3879 32.9875 42.5 33.6193 42.5C34.2513 42.5 34.856 42.3879 35.422 42.191C36.0053 41.9883 36.5449 41.6909 37.0211 41.3161C37.4693 40.9635 37.864 40.5458 38.1845 40.0729C38.7809 39.1921 39.1303 38.131 39.1303 36.99C39.1303 35.9108 38.8139 34.9064 38.276 34.0562C38.0391 33.6854 37.764 33.3436 37.4502 33.0395ZM33.6192 34.2268C35.145 34.2268 36.3824 35.4642 36.3824 36.99C36.3824 38.5158 35.145 39.7533 33.6192 39.7533C32.0933 39.7533 30.856 38.5158 30.856 36.99C30.856 35.4642 32.0926 34.2268 33.6192 34.2268Z" fill="#1EC245"/>
</g>
<defs>
<clipPath id="clip0_28_236">
<rect width="42" height="42" fill="white" transform="translate(0 0.5)"/>
</clipPath>
</defs>
</svg>
