<svg width="17" height="17" viewBox="0 0 17 17" fill="none" xmlns="http://www.w3.org/2000/svg">
<g clip-path="url(#clip0_171_50)">
<path d="M15.7667 6.47C15.5459 6.35814 15.2983 6.31035 15.0518 6.33203C14.8053 6.35371 14.5698 6.444 14.372 6.59267L13.15 7.5C13.0664 6.67819 12.681 5.91659 12.0683 5.36246C11.4557 4.80833 10.6594 4.50103 9.83333 4.5H9.77667L7.02867 1.75267C6.84352 1.56622 6.62319 1.41841 6.38045 1.31782C6.13772 1.21722 5.87742 1.16584 5.61467 1.16667H1.16667C0.989856 1.16667 0.820286 1.2369 0.695262 1.36193C0.570238 1.48695 0.5 1.65652 0.5 1.83333C0.5 2.01014 0.570238 2.17971 0.695262 2.30474C0.820286 2.42976 0.989856 2.5 1.16667 2.5H5.61467C5.79138 2.50047 5.96076 2.57067 6.086 2.69533L7.89067 4.5H3.83333C2.9496 4.50106 2.10237 4.85259 1.47748 5.47748C0.852588 6.10237 0.501059 6.9496 0.5 7.83333L0.5 13.1667C0.501059 14.0504 0.852588 14.8976 1.47748 15.5225C2.10237 16.1474 2.9496 16.4989 3.83333 16.5H9.83333C10.6594 16.499 11.4557 16.1917 12.0683 15.6375C12.681 15.0834 13.0664 14.3218 13.15 13.5L14.37 14.4093C14.5681 14.5579 14.8036 14.6484 15.0503 14.6706C15.2969 14.6929 15.5448 14.646 15.7663 14.5352C15.9878 14.4245 16.174 14.2543 16.3042 14.0436C16.4344 13.833 16.5033 13.5903 16.5033 13.3427V7.662C16.5042 7.41433 16.4356 7.17137 16.3054 6.96068C16.1752 6.74999 15.9886 6.58001 15.7667 6.47ZM11.8333 13.1667C11.8333 13.6971 11.6226 14.2058 11.2475 14.5809C10.8725 14.956 10.3638 15.1667 9.83333 15.1667H3.83333C3.3029 15.1667 2.79419 14.956 2.41912 14.5809C2.04405 14.2058 1.83333 13.6971 1.83333 13.1667V7.83333C1.83333 7.3029 2.04405 6.79419 2.41912 6.41912C2.79419 6.04405 3.3029 5.83333 3.83333 5.83333H9.454C9.47 5.83333 9.486 5.83333 9.502 5.83333C9.51867 5.83333 9.53467 5.83333 9.55067 5.83333H9.83333C10.3638 5.83333 10.8725 6.04405 11.2475 6.41912C11.6226 6.79419 11.8333 7.3029 11.8333 7.83333V13.1667ZM15.1667 13.338L13.1667 11.8473V9.15267L15.1667 7.662V13.338Z" fill="#BCC1D2"/>
</g>
<defs>
<clipPath id="clip0_171_50">
<rect width="16" height="16" fill="white" transform="translate(0.5 0.5)"/>
</clipPath>
</defs>
</svg>
