<svg width="24" height="24" viewBox="0 0 24 24" fill="none" xmlns="http://www.w3.org/2000/svg">
<path fill-rule="evenodd" clip-rule="evenodd" d="M12.9318 17.4537C12.9318 17.4537 13.2748 17.4147 13.4498 17.2237C13.6108 17.0477 13.6058 16.7177 13.6058 16.7177C13.6058 16.7177 13.5838 15.1707 14.2908 14.9437C14.9878 14.7187 15.8838 16.4377 16.8318 17.0987C17.5498 17.5987 18.0948 17.4887 18.0948 17.4887L20.6328 17.4537C20.6328 17.4537 21.9598 17.3707 21.3308 16.3117C21.2788 16.2247 20.9638 15.5277 19.4438 14.0967C17.8528 12.5967 18.0658 12.8397 19.9828 10.2477C21.1498 8.66972 21.6158 7.70572 21.4698 7.29272C21.3298 6.89972 20.4718 7.00272 20.4718 7.00272L17.6148 7.02172C17.6148 7.02172 17.4028 6.99172 17.2458 7.08772C17.0928 7.18072 16.9938 7.39772 16.9938 7.39772C16.9938 7.39772 16.5428 8.61972 15.9398 9.65972C14.6678 11.8517 14.1598 11.9677 13.9508 11.8317C13.4668 11.5147 13.5878 10.5577 13.5878 9.87772C13.5878 7.75272 13.9058 6.86772 12.9698 6.63772C12.6598 6.56172 12.4298 6.51172 11.6368 6.50272C10.6168 6.49272 9.75376 6.50672 9.26576 6.74872C8.93976 6.90972 8.68976 7.26972 8.84276 7.29072C9.03176 7.31572 9.45876 7.40772 9.68576 7.72072C9.97876 8.12472 9.96876 9.03272 9.96876 9.03272C9.96876 9.03272 10.1368 11.5327 9.57576 11.8437C9.19076 12.0567 8.66176 11.6217 7.52776 9.63372C7.14239 8.94051 6.80169 8.22338 6.50776 7.48672C6.50776 7.48672 6.42376 7.27672 6.27276 7.16372C6.14025 7.07437 5.99085 7.01311 5.83376 6.98372L3.11976 7.00472C3.11976 7.00472 2.71176 7.01472 2.56176 7.19472C2.42876 7.35472 2.55176 7.68472 2.55176 7.68472C2.55176 7.68472 4.67676 12.7317 7.08276 15.2747C9.28976 17.6067 11.7958 17.4537 11.7958 17.4537H12.9318Z" fill="#11112D"/>
</svg>
