<svg width="24" height="24" viewBox="0 0 24 24" fill="none" xmlns="http://www.w3.org/2000/svg">
<path fill-rule="evenodd" clip-rule="evenodd" d="M5.699 6.01953C8.218 5.84253 11.996 5.84253 11.996 5.84253H12.004C12.004 5.84253 15.782 5.84253 18.301 6.01953L18.417 6.03153C18.803 6.06753 19.487 6.13253 20.105 6.76153C20.645 7.29253 20.82 8.49953 20.82 8.49953C20.82 8.49953 21 9.91653 21 11.3325V12.6605C21 14.0775 20.82 15.4945 20.82 15.4945C20.82 15.4945 20.644 16.7015 20.105 17.2325C19.488 17.8625 18.803 17.9265 18.417 17.9625L18.301 17.9745C15.782 18.1515 12 18.1575 12 18.1575C12 18.1575 7.32 18.1155 5.88 17.9815C5.812 17.9685 5.729 17.9595 5.635 17.9485C5.178 17.8945 4.463 17.8115 3.895 17.2325C3.355 16.7025 3.18 15.4955 3.18 15.4955C3.18 15.4955 3 14.0785 3 12.6625V11.3335C3 9.91653 3.18 8.49953 3.18 8.49953C3.18 8.49953 3.356 7.29253 3.895 6.76153C4.513 6.13253 5.197 6.06753 5.583 6.03153L5.7 6.01953H5.699ZM15.004 11.8195L10.141 9.35253V14.2725L15.004 11.8215V11.8195Z" fill="#11112D"/>
</svg>
