<svg width="100" height="100" viewBox="0 0 100 100" fill="none" xmlns="http://www.w3.org/2000/svg">
<path d="M39.7156 4.98857C42.4094 2.21909 46.087 0.64209 49.9457 0.64209C53.8045 0.64209 57.482 2.21909 60.1758 4.98857C62.8659 7.75428 64.3582 11.4824 64.3582 15.3472C64.3582 17.5563 62.5674 19.3472 60.3582 19.3472C58.1491 19.3472 56.3582 17.5563 56.3582 15.3472C56.3582 13.5337 55.6565 11.816 54.4411 10.5665C53.2295 9.3208 51.6101 8.64209 49.9457 8.64209C48.2813 8.64209 46.662 9.3208 45.4503 10.5665C44.235 11.816 43.5332 13.5337 43.5332 15.3472C43.5332 17.5563 41.7423 19.3472 39.5332 19.3472C37.3241 19.3472 35.5332 17.5563 35.5332 15.3472C35.5332 11.4824 37.0255 7.75428 39.7156 4.98857Z" fill="#408221"/>
<path d="M22.4923 29.4895C20.9916 29.4885 19.5233 30.0393 18.3558 31.0684C17.1857 32.1 16.394 33.5473 16.1529 35.1592L8.94221 83.3323C8.79702 84.3033 8.85794 85.2953 9.11979 86.2376C9.38162 87.1798 9.83648 88.0449 10.4466 88.7759C11.0563 89.5065 11.8057 90.0848 12.6386 90.4783C13.4711 90.8716 14.3713 91.073 15.2785 91.0729H84.7269C85.6336 91.0721 86.5331 90.87 87.3648 90.4763C88.197 90.0823 88.9456 89.5039 89.5547 88.7733C90.1641 88.0425 90.6183 87.1777 90.8798 86.2359C91.1413 85.2941 91.2021 84.3031 91.057 83.3327L83.8463 35.1596C83.8383 35.106 83.8314 35.0525 83.8256 34.9989C83.6724 34.1155 83.3533 33.2848 82.8971 32.549C82.5545 31.9963 82.1347 31.4972 81.6497 31.0695C80.4829 30.0404 79.0154 29.4893 77.5152 29.4895H66.1881L22.4962 21.4895H77.5142C80.9888 21.4892 84.3324 22.7686 86.9414 25.0697C89.5479 27.3685 91.2482 30.5316 91.7634 33.9757C91.7735 34.0427 91.7818 34.1098 91.7883 34.1769L98.9688 82.1484C99.2798 84.2272 99.1504 86.3512 98.5882 88.376C98.026 90.401 97.0428 92.2849 95.6991 93.8964C94.3552 95.5083 92.6814 96.8106 90.7878 97.707C88.8937 98.6036 86.8283 99.071 84.7342 99.0729H15.2795C13.1843 99.0731 11.1169 98.6073 9.22121 97.7117C7.32577 96.8161 5.65019 95.5141 4.30467 93.902C2.95944 92.2902 1.97488 90.4056 1.41187 88.3795C0.848901 86.3537 0.7191 84.2288 1.03024 82.1488L8.24091 33.9757C8.75634 30.5305 10.4578 27.3662 13.0656 25.0673C15.6757 22.7665 19.0197 21.4879 22.4949 21.4895L66.1881 29.4895H22.4923Z" fill="#408221"/>
<path d="M58.5647 53.0732C57.3861 54.4582 54.9101 56.6297 50.8559 56.8377V56.8089C50.5631 56.8329 50.2772 56.847 49.9981 56.8518C49.719 56.847 49.4331 56.8329 49.1403 56.8089V56.8377C45.0861 56.6298 42.6101 54.4582 41.4315 53.0732C41.0505 52.6256 40.5847 52.2872 40.071 52.0851C39.5573 51.8829 39.0101 51.8226 38.4727 51.9088C34.6826 52.5207 35.8771 56.9881 36.3142 57.5796C36.8185 58.2616 36.4823 60.1129 36.4823 60.1129C36.4823 60.1129 33.8766 64.9847 37.6591 66.3488C40.6805 67.4384 41.8248 65.8547 42.8912 64.3787C43.1599 64.007 43.4236 63.6419 43.7111 63.3283C44.7953 62.1455 48.3472 61.804 49.9981 61.708C51.649 61.804 55.2009 62.1455 56.285 63.3283C56.5725 63.6419 56.8363 64.0069 57.1049 64.3787C58.1714 65.8547 59.3157 67.4384 62.3371 66.3488C66.1196 64.9847 63.5139 60.1129 63.5139 60.1129C63.5139 60.1129 63.1776 58.2616 63.682 57.5796C64.1191 56.9881 65.3135 52.5207 61.5234 51.9088C60.9861 51.8226 60.4388 51.8829 59.9251 52.0851C59.4115 52.2872 58.9456 52.6256 58.5647 53.0732Z" fill="#408221"/>
</svg>
