<svg width="92" height="85" viewBox="0 0 92 85" fill="none" xmlns="http://www.w3.org/2000/svg">
<path d="M49.7014 7.68914L46.0011 11.6927L42.2827 7.6794C38.4424 3.52934 33.4221 0.89141 28.0268 0.188635C22.6316 -0.514139 17.1739 0.758963 12.5291 3.80378C7.88435 6.84859 4.3215 11.4887 2.41194 16.98C0.50239 22.4713 0.356775 28.4957 1.99845 34.087H9.24121C7.53019 30.0635 7.18374 25.519 8.26241 21.2478C9.34107 16.9766 11.7762 13.2504 15.1423 10.7206C18.5083 8.19067 22.5911 7.01803 26.6769 7.40761C30.7628 7.79719 34.5918 9.7242 37.4948 12.8518L43.6229 19.461C43.9417 19.8055 44.3212 20.0778 44.7389 20.2617C45.1566 20.4457 45.6042 20.5376 46.0553 20.5322C46.5065 20.5268 46.952 20.424 47.3658 20.23C47.7797 20.036 48.1534 19.7547 48.465 19.4026L54.4848 12.8518C57.3897 9.72425 61.2201 7.79714 65.3073 7.40688C69.3945 7.01662 73.4789 8.18801 76.8474 10.7166C80.216 13.2451 82.6548 16.9702 83.7381 21.2416C84.8213 25.513 84.4803 30.0593 82.7745 34.087H90.0172C91.6458 28.4943 91.4896 22.4737 89.5736 16.9881C87.6577 11.5025 84.0927 6.86879 79.4488 3.82806C74.8048 0.787321 69.3503 -0.484785 63.9574 0.215185C58.5646 0.915155 53.545 3.54677 49.7014 7.68914Z" fill="#408221"/>
<path d="M43.6086 83.1566L13.9336 51.1335H22.7919C23.022 51.1335 23.2522 51.1188 23.4778 51.0994L46.0003 75.4077L68.5093 51.1286H78.0851L48.392 83.1566C47.7574 83.8406 46.8972 84.2248 46.0003 84.2248C45.1034 84.2248 44.2432 83.8406 43.6086 83.1566Z" fill="#408221"/>
<path d="M33.093 20.0113C33.6344 20.3675 34.0723 20.8806 34.3567 21.4924L34.3613 21.4972L46.5273 47.7587L57.9217 30.7316C58.22 30.2868 58.6074 29.9204 59.0551 29.6595C59.5028 29.3986 59.9991 29.25 60.5074 29.2247C61.0156 29.1994 61.5225 29.2982 61.9905 29.5135C62.4585 29.7289 62.8755 30.0553 63.2105 30.4686L70.0967 38.9578H87.7411C88.6387 38.9578 89.4996 39.3427 90.1343 40.0277C90.769 40.7127 91.1256 41.6418 91.1256 42.6106C91.1256 43.5794 90.769 44.5085 90.1343 45.1936C89.4996 45.8786 88.6387 46.2635 87.7411 46.2635H68.5624C68.0801 46.2626 67.6034 46.1505 67.1645 45.9346C66.7255 45.7188 66.3344 45.4041 66.0173 45.0118L60.9181 38.7289L48.743 56.9249C48.4018 57.4341 47.9446 57.8397 47.4157 58.1025C46.8867 58.3653 46.3039 58.4763 45.7236 58.4249C45.1433 58.3735 44.5851 58.1613 44.1029 57.809C43.6208 57.4566 43.2311 56.976 42.9713 56.4135L31.419 31.4768L25.8504 44.1692C25.5761 44.7944 25.1429 45.3227 24.6013 45.6926C24.0596 46.0625 23.4318 46.2588 22.7909 46.2586H4.25752C3.3599 46.2586 2.49905 45.8738 1.86434 45.1887C1.22962 44.5037 0.873049 43.5746 0.873049 42.6058C0.873049 41.637 1.22962 40.7079 1.86434 40.0228C2.49905 39.3378 3.3599 38.9529 4.25752 38.9529H20.6474L28.2737 21.5654C28.5454 20.947 28.9726 20.4235 29.5067 20.0544C30.0407 19.6853 30.66 19.4856 31.2941 19.478C31.9282 19.4704 32.5515 19.6552 33.093 20.0113Z" fill="#408221"/>
</svg>
