<svg width="36" height="36" viewBox="0 0 36 36" fill="none" xmlns="http://www.w3.org/2000/svg">
<path fill-rule="evenodd" clip-rule="evenodd" d="M10.6368 0.58791C12.5029 0.502001 13.0979 0.48291 17.8516 0.48291C22.6052 0.48291 23.2002 0.503592 25.0647 0.58791C26.9293 0.672228 28.202 0.969728 29.3157 1.40086C30.4818 1.84155 31.5397 2.53041 32.4147 3.42132C33.3057 4.29473 33.9929 5.35109 34.432 6.51882C34.8647 7.63246 35.1607 8.90518 35.2466 10.7665C35.3325 12.6359 35.3516 13.2309 35.3516 17.9829C35.3516 22.7365 35.3309 23.3315 35.2466 25.1977C35.1622 27.059 34.8647 28.3318 34.432 29.4454C33.9929 30.6133 33.3045 31.6714 32.4147 32.5461C31.5397 33.437 30.4818 34.1243 29.3157 34.5634C28.202 34.9961 26.9293 35.292 25.0679 35.3779C23.2002 35.4638 22.6052 35.4829 17.8516 35.4829C13.0979 35.4829 12.5029 35.4622 10.6368 35.3779C8.77543 35.2936 7.5027 34.9961 6.38906 34.5634C5.22121 34.1242 4.16309 33.4358 3.28838 32.5461C2.39808 31.6722 1.70911 30.6145 1.26952 29.447C0.838381 28.3334 0.542472 27.0606 0.456562 25.1993C0.370653 23.33 0.351562 22.735 0.351562 17.9829C0.351562 13.2293 0.372244 12.6343 0.456562 10.7697C0.540881 8.90518 0.838381 7.63246 1.26952 6.51882C1.70976 5.35122 2.39925 4.29364 3.28997 3.41973C4.16344 2.52962 5.2205 1.84066 6.38747 1.40086C7.50111 0.969728 8.77384 0.673819 10.6352 0.58791H10.6368ZM24.9232 3.73791C23.0777 3.65359 22.5241 3.63609 17.8516 3.63609C13.1791 3.63609 12.6254 3.65359 10.78 3.73791C9.07293 3.81586 8.14702 4.10064 7.52974 4.34086C6.71361 4.65905 6.12974 5.03609 5.51724 5.64859C4.93663 6.21345 4.4898 6.90109 4.20952 7.66109C3.96929 8.27837 3.68452 9.20427 3.60656 10.9113C3.52224 12.7568 3.50474 13.3104 3.50474 17.9829C3.50474 22.6554 3.52224 23.209 3.60656 25.0545C3.68452 26.7615 3.96929 27.6875 4.20952 28.3047C4.48952 29.0636 4.93656 29.7525 5.51724 30.3172C6.08202 30.8979 6.77088 31.345 7.52974 31.625C8.14702 31.8652 9.07293 32.15 10.78 32.2279C12.6254 32.3122 13.1775 32.3297 17.8516 32.3297C22.5257 32.3297 23.0777 32.3122 24.9232 32.2279C26.6302 32.15 27.5561 31.8652 28.1734 31.625C28.9895 31.3068 29.5734 30.9297 30.1859 30.3172C30.7666 29.7525 31.2136 29.0636 31.4936 28.3047C31.7338 27.6875 32.0186 26.7615 32.0966 25.0545C32.1809 23.209 32.1984 22.6554 32.1984 17.9829C32.1984 13.3104 32.1809 12.7568 32.0966 10.9113C32.0186 9.20427 31.7338 8.27837 31.4936 7.66109C31.1754 6.84496 30.7984 6.26109 30.1859 5.64859C29.621 5.06802 28.9334 4.6212 28.1734 4.34086C27.5561 4.10064 26.6302 3.81586 24.9232 3.73791ZM15.6163 23.3777C16.8647 23.8973 18.2547 23.9675 19.549 23.5761C20.8432 23.1847 21.9615 22.3562 22.7128 21.2319C23.464 20.1077 23.8017 18.7575 23.668 17.4119C23.5344 16.0664 22.9377 14.809 21.98 13.8545C21.3694 13.2444 20.6312 12.7772 19.8185 12.4866C19.0057 12.1959 18.1386 12.0892 17.2796 12.1739C16.4206 12.2586 15.5911 12.5327 14.8508 12.9765C14.1105 13.4203 13.4777 14.0227 12.9982 14.7404C12.5186 15.4581 12.2041 16.2731 12.0774 17.1269C11.9506 17.9807 12.0148 18.852 12.2651 19.6781C12.5155 20.5041 12.946 21.2643 13.5254 21.9041C14.1049 22.5438 14.819 23.0471 15.6163 23.3777ZM11.4911 11.6225C12.3264 10.7872 13.318 10.1246 14.4093 9.67258C15.5006 9.22053 16.6703 8.98787 17.8516 8.98787C19.0328 8.98787 20.2025 9.22053 21.2938 9.67258C22.3851 10.1246 23.3768 10.7872 24.212 11.6225C25.0473 12.4577 25.7099 13.4493 26.1619 14.5407C26.6139 15.632 26.8466 16.8017 26.8466 17.9829C26.8466 19.1642 26.6139 20.3338 26.1619 21.4252C25.7099 22.5165 25.0473 23.5081 24.212 24.3434C22.5251 26.0303 20.2372 26.978 17.8516 26.978C15.4659 26.978 13.178 26.0303 11.4911 24.3434C9.80421 22.6565 8.85652 20.3685 8.85652 17.9829C8.85652 15.5973 9.80421 13.3094 11.4911 11.6225ZM28.8416 10.3275C29.0485 10.1322 29.2143 9.8974 29.3289 9.63696C29.4435 9.37652 29.5047 9.09572 29.5088 8.81121C29.513 8.52669 29.46 8.24424 29.353 7.98056C29.246 7.71689 29.0873 7.47736 28.886 7.27615C28.6848 7.07495 28.4453 6.91616 28.1816 6.80919C27.918 6.70222 27.6355 6.64924 27.351 6.65338C27.0665 6.65753 26.7857 6.71872 26.5252 6.83334C26.2648 6.94795 26.03 7.11365 25.8347 7.32064C25.455 7.72318 25.2471 8.25788 25.2552 8.81121C25.2632 9.36454 25.4866 9.89295 25.8779 10.2843C26.2693 10.6756 26.7977 10.899 27.351 10.907C27.9043 10.9151 28.439 10.7072 28.8416 10.3275Z" fill="white"/>
</svg>
