<svg width="36" height="36" viewBox="0 0 36 36" fill="none" xmlns="http://www.w3.org/2000/svg">
<path d="M34.2211 0.48291H2.02109C1.24672 0.48291 0.621094 1.10854 0.621094 1.88291V34.0829C0.621094 34.8573 1.24672 35.4829 2.02109 35.4829H34.2211C34.9955 35.4829 35.6211 34.8573 35.6211 34.0829V1.88291C35.6211 1.10854 34.9955 0.48291 34.2211 0.48291ZM32.8211 32.6829H24.7667V21.9292H29.3167L29.9992 16.6485H24.7667V13.2754C24.7667 11.7442 25.1911 10.7029 27.383 10.7029H30.1786V5.97791C29.693 5.91229 28.0348 5.76791 26.1011 5.76791C22.0673 5.76791 19.3067 8.23103 19.3067 12.7504V16.6442H14.748V21.9248H19.3111V32.6829H3.42109V3.28291H32.8211V32.6829Z" fill="white"/>
</svg>
