<svg width="36" height="36" viewBox="0 0 36 36" fill="none" xmlns="http://www.w3.org/2000/svg">
<path d="M29.9472 5.57113C28.3354 3.95167 26.4159 2.66776 24.3006 1.79421C22.1853 0.920661 19.9165 0.474938 17.6265 0.483018C8.03047 0.483018 0.209969 8.26612 0.20118 17.8211C0.20118 20.8814 1.00542 23.8586 2.52382 26.4945L0.0605469 35.4829L9.29836 33.0723C11.8539 34.4568 14.717 35.1825 17.6265 35.1832H17.6353C27.2334 35.1832 35.0518 27.4001 35.0605 17.8364C35.0627 15.5571 34.6119 13.3 33.7339 11.1949C32.856 9.08986 31.5683 7.17857 29.945 5.57113H29.9472ZM17.6265 32.2476C15.0313 32.2485 12.4839 31.5533 10.252 30.2351L9.72466 29.9201L4.24437 31.3507L5.70783 26.0286L5.36504 25.4795C3.91434 23.1833 3.1471 20.5249 3.15227 17.8123C3.15227 9.88049 9.64995 3.40988 17.6353 3.40988C19.5376 3.40649 21.4219 3.77798 23.1793 4.50296C24.9368 5.22793 26.5327 6.29204 27.8751 7.63393C29.2222 8.9706 30.29 10.5595 31.0172 12.3091C31.7443 14.0587 32.1163 15.9343 32.1116 17.8277C32.1029 25.7879 25.6052 32.2476 17.6265 32.2476ZM25.57 21.4545C25.1371 21.238 22.9991 20.1901 22.597 20.0414C22.197 19.8992 21.9048 19.8248 21.6191 20.258C21.3269 20.6889 20.4919 21.6711 20.2414 21.9533C19.9909 22.2442 19.7316 22.277 19.2965 22.0626C18.8636 21.8439 17.4595 21.3889 15.7982 19.908C14.5018 18.7595 13.6338 17.3377 13.3745 16.9067C13.124 16.4736 13.3503 16.2417 13.5679 16.0252C13.7591 15.8327 14.0008 15.5177 14.2183 15.2683C14.4381 15.0189 14.5106 14.8352 14.6534 14.5464C14.7962 14.2533 14.7281 14.0039 14.6204 13.7874C14.5106 13.5708 13.6426 11.4336 13.2756 10.5717C12.9241 9.7208 12.5659 9.83893 12.2978 9.82799C12.0473 9.81268 11.755 9.81268 11.4628 9.81268C11.2421 9.81814 11.0249 9.86895 10.8249 9.96193C10.6248 10.0549 10.4463 10.188 10.3004 10.353C9.90045 10.7861 8.78198 11.8339 8.78198 13.9711C8.78198 16.1083 10.3421 18.1623 10.5619 18.4533C10.7772 18.7442 13.625 23.117 17.9956 24.9983C19.0284 25.4467 19.8414 25.7114 20.4765 25.9126C21.5202 26.2451 22.4629 26.1948 23.2144 26.0876C24.0494 25.9608 25.7876 25.0376 26.1545 24.0248C26.5149 23.0098 26.5149 22.1436 26.405 21.962C26.2974 21.7783 26.0051 21.6711 25.57 21.4545Z" fill="white"/>
</svg>
