<svg width="35" height="35" viewBox="0 0 35 35" fill="none" xmlns="http://www.w3.org/2000/svg">
<path fill-rule="evenodd" clip-rule="evenodd" d="M17.5 0C7.83502 0 0 7.83502 0 17.5C0 27.165 7.83502 35 17.5 35C27.165 35 35 27.165 35 17.5C35 7.83502 27.165 0 17.5 0ZM1.37212 16.9477C1.66325 8.29112 8.77253 1.36284 17.5 1.36284C26.4123 1.36284 33.6372 8.58769 33.6372 17.5C33.6372 18.6401 33.5189 19.7527 33.294 20.826C33.2899 20.8283 33.2883 20.8263 33.2924 20.8149C30.7295 21.8309 28.9206 23.3514 27.8305 24.4694C27.212 25.6683 24.8237 26.732 23.7068 27.114C22.3895 28.4069 20.0807 30.1277 19.7371 29.8456C19.3935 29.5635 18.9531 27.9367 18.9817 26.7614C16.5075 26.6203 15.7744 24.3518 15.7171 23.2352C15.5166 23.0001 14.9954 22.4595 14.5143 22.1774C14.0332 21.8953 14.1993 21.2958 14.3425 21.0314C13.9989 20.6788 14.2566 19.7091 14.4284 19.2683C14.2981 18.4658 15.4887 17.3928 16.3538 17.1305C16.4444 17.103 16.6293 17.0647 16.7242 17.0637C22.3219 17.0038 23.3682 13.4893 23.1888 11.5649C23.0517 11.3601 22.8353 11.2015 22.5875 11.1041C19.5055 9.8931 19.4006 8.70046 19.4006 8.70046C17.9083 4.03004 12.1159 5.55208 12.1159 5.55208C12.1159 5.55208 11.9921 5.5683 11.7821 5.61675C10.3989 5.03873 8.28841 6.3959 6.84526 7.32392C6.47129 7.5644 6.14212 7.77607 5.88207 7.91776C4.8219 8.49539 4.28368 10.893 5.8707 12.3231C4.68433 14.0472 2.9435 15.647 1.63436 16.7258C1.63731 16.7685 1.64044 16.8111 1.64374 16.8538L1.37212 16.9477Z" fill="white"/>
</svg>
