<svg width="92" height="90" viewBox="0 0 92 90" fill="none" xmlns="http://www.w3.org/2000/svg">
<path fill-rule="evenodd" clip-rule="evenodd" d="M44.3669 12.0676C44.3669 18.1881 39.4976 23.1498 33.491 23.1498C27.4845 23.1498 22.6152 18.1881 22.6152 12.0676C22.6152 5.94702 27.4845 0.985352 33.491 0.985352C39.4976 0.985352 44.3669 5.94702 44.3669 12.0676ZM36.3669 12.0676C36.3669 13.9123 34.9382 15.1498 33.491 15.1498C32.0439 15.1498 30.6152 13.9123 30.6152 12.0676C30.6152 10.2229 32.0439 8.98535 33.491 8.98535C34.9382 8.98535 36.3669 10.2229 36.3669 12.0676Z" fill="#7C9B49"/>
<path fill-rule="evenodd" clip-rule="evenodd" d="M11.741 38.1107C17.7476 38.1107 22.6169 33.149 22.6169 27.0285C22.6169 20.908 17.7476 15.9463 11.741 15.9463C5.7345 15.9463 0.865234 20.908 0.865234 27.0285C0.865234 33.149 5.7345 38.1107 11.741 38.1107ZM11.741 30.1107C13.1882 30.1107 14.6169 28.8732 14.6169 27.0285C14.6169 25.1838 13.1882 23.9463 11.741 23.9463C10.2939 23.9463 8.86523 25.1838 8.86523 27.0285C8.86523 28.8732 10.2939 30.1107 11.741 30.1107Z" fill="#7C9B49"/>
<path d="M45.998 48.5178C48.2072 48.5178 49.998 50.3087 49.998 52.5178V75.2363C49.998 77.4455 48.2072 79.2363 45.998 79.2363C43.7889 79.2363 41.998 77.4455 41.998 75.2363V52.5178C41.998 50.3087 43.7889 48.5178 45.998 48.5178Z" fill="#7C9B49"/>
<path d="M45.9971 46.4225C47.7991 46.4225 49.2599 44.934 49.2599 43.0979C49.2599 41.2617 47.7991 39.7732 45.9971 39.7732C44.1952 39.7732 42.7344 41.2617 42.7344 43.0979C42.7344 44.934 44.1952 46.4225 45.9971 46.4225Z" fill="#7C9B49"/>
<path fill-rule="evenodd" clip-rule="evenodd" d="M45.7297 89.6434C63.2989 89.6434 77.5415 75.1305 77.5415 57.2279C77.5415 39.3254 63.2989 24.8125 45.7297 24.8125C28.1606 24.8125 13.918 39.3254 13.918 57.2279C13.918 75.1305 28.1606 89.6434 45.7297 89.6434ZM45.7297 81.6434C58.7395 81.6434 69.5415 70.8547 69.5415 57.2279C69.5415 43.6012 58.7395 32.8125 45.7297 32.8125C32.72 32.8125 21.918 43.6012 21.918 57.2279C21.918 70.8547 32.72 81.6434 45.7297 81.6434Z" fill="#7C9B49"/>
<path fill-rule="evenodd" clip-rule="evenodd" d="M58.5047 23.1498C64.5113 23.1498 69.3805 18.1881 69.3805 12.0676C69.3805 5.94702 64.5113 0.985352 58.5047 0.985352C52.4982 0.985352 47.6289 5.94702 47.6289 12.0676C47.6289 18.1881 52.4982 23.1498 58.5047 23.1498ZM58.5047 15.1498C59.9519 15.1498 61.3805 13.9123 61.3805 12.0676C61.3805 10.2229 59.9519 8.98535 58.5047 8.98535C57.0576 8.98535 55.6289 10.2229 55.6289 12.0676C55.6289 13.9123 57.0576 15.1498 58.5047 15.1498Z" fill="#7C9B49"/>
<path fill-rule="evenodd" clip-rule="evenodd" d="M91.1325 27.0285C91.1325 33.149 86.2632 38.1107 80.2567 38.1107C74.2501 38.1107 69.3809 33.149 69.3809 27.0285C69.3809 20.908 74.2501 15.9463 80.2567 15.9463C86.2632 15.9463 91.1325 20.908 91.1325 27.0285ZM83.1325 27.0285C83.1325 28.8732 81.7038 30.1107 80.2567 30.1107C78.8095 30.1107 77.3809 28.8732 77.3809 27.0285C77.3809 25.1838 78.8095 23.9463 80.2567 23.9463C81.7038 23.9463 83.1325 25.1838 83.1325 27.0285Z" fill="#7C9B49"/>
</svg>
