<?xml version="1.0" encoding="utf-8"?>
<!-- Generator: Adobe Illustrator 15.1.0, SVG Export Plug-In  -->
<!DOCTYPE svg PUBLIC "-//W3C//DTD SVG 1.1//EN" "http://www.w3.org/Graphics/SVG/1.1/DTD/svg11.dtd" [
	<!ENTITY ns_flows "http://ns.adobe.com/Flows/1.0/">
]>
<svg version="1.1"
	 xmlns="http://www.w3.org/2000/svg" xmlns:xlink="http://www.w3.org/1999/xlink" xmlns:a="http://ns.adobe.com/AdobeSVGViewerExtensions/3.0/"
	 x="0px" y="0px" width="69px" height="61px" viewBox="0 0 69 61" enable-background="new 0 0 69 61" xml:space="preserve">
<defs>
</defs>
<path fill="#F2F4F4" d="M56.574,28.288c0,15.623-12.664,28.288-28.287,28.288C12.665,56.576,0,43.911,0,28.288S12.665,0,28.287,0
	C43.91,0,56.574,12.665,56.574,28.288"/>
<path fill="#2D5972" d="M28.496,61.249c-0.235,0-0.473-0.047-0.701-0.141c-0.687-0.285-1.132-0.949-1.132-1.693V47.517h-6.98
	c-1.011,0-1.833-0.822-1.833-1.833V13.061c0-1.011,0.822-1.833,1.833-1.833h47.532c1.012,0,1.833,0.822,1.833,1.833v32.623
	c0,1.011-0.821,1.833-1.833,1.833H42.732L29.799,60.705C29.443,61.061,28.974,61.249,28.496,61.249 M19.85,45.517h8.813v13.49
	l12.696-12.946c0.353-0.353,0.813-0.544,1.303-0.544h24.386V13.228H19.85V45.517z"/>
<path fill="#2D5972" d="M58.004,22.137H28.286c-0.553,0-1-0.448-1-1c0-0.552,0.447-1,1-1h29.718c0.554,0,1,0.448,1,1
	C59.004,21.689,58.558,22.137,58.004,22.137"/>
<path fill="#2D5972" d="M58.004,30.359H28.286c-0.553,0-1-0.448-1-1c0-0.552,0.447-1,1-1h29.718c0.554,0,1,0.448,1,1
	C59.004,29.911,58.558,30.359,58.004,30.359"/>
<path fill="#2D5972" d="M46.455,38.581H28.286c-0.553,0-1-0.448-1-1c0-0.553,0.447-1,1-1h18.169c0.553,0,1,0.447,1,1
	C47.455,38.133,47.008,38.581,46.455,38.581"/>
</svg>
