<?xml version="1.0" encoding="utf-8"?>
<!-- Generator: Adobe Illustrator 15.1.0, SVG Export Plug-In  -->
<!DOCTYPE svg PUBLIC "-//W3C//DTD SVG 1.1//EN" "http://www.w3.org/Graphics/SVG/1.1/DTD/svg11.dtd" [
	<!ENTITY ns_flows "http://ns.adobe.com/Flows/1.0/">
]>
<svg version="1.1"
	 xmlns="http://www.w3.org/2000/svg" xmlns:xlink="http://www.w3.org/1999/xlink" xmlns:a="http://ns.adobe.com/AdobeSVGViewerExtensions/3.0/"
	 x="0px" y="0px" width="74px" height="58px" viewBox="0 0 74 58" enable-background="new 0 0 74 58" xml:space="preserve">
<defs>
</defs>
<path fill="#F2F4F4" d="M28.287,56.575C12.665,56.575,0,43.91,0,28.287S12.665,0,28.287,0c15.624,0,28.288,12.664,28.288,28.287"/>
<path fill="#F2F4F4" d="M56.575,28.287c0,15.623-12.664,28.288-28.288,28.288"/>
<path fill="#2D5972" d="M35.543,36.302c-6.711,0-12.17-5.459-12.17-12.17V10.209c0-2.242,1.824-4.066,4.066-4.066h0.52
	c0.553,0,1,0.448,1,1c0,0.553-0.447,1-1,1h-0.52c-1.139,0-2.066,0.927-2.066,2.066v13.923c0,5.608,4.563,10.17,10.17,10.17
	s10.17-4.562,10.17-10.17V10.209c0-1.139-0.926-2.066-2.065-2.066h-0.181c-0.553,0-1-0.447-1-1c0-0.552,0.447-1,1-1h0.181
	c2.242,0,4.065,1.824,4.065,4.066v13.923C47.713,30.843,42.254,36.302,35.543,36.302"/>
<path fill="#2D5972" d="M43.903,57.575c-5.161,0-9.359-4.199-9.359-9.36V35.302h2v12.913c0,4.058,3.301,7.36,7.359,7.36
	c4.06,0,7.36-3.303,7.36-7.36V35.302h2v12.913C53.263,53.376,49.064,57.575,43.903,57.575"/>
<path fill="#2D5972" d="M69.985,46.523h-2V32.718c0-4.06-3.303-7.361-7.36-7.361c-4.06,0-7.361,3.302-7.361,7.361v4.974h-2v-4.974
	c0-5.161,4.2-9.361,9.361-9.361s9.36,4.2,9.36,9.361V46.523z"/>
<path fill="#2D5972" d="M68.985,56.638c-2.931,0-5.313-2.383-5.313-5.312s2.382-5.312,5.313-5.312c2.929,0,5.312,2.383,5.312,5.312"
	/>
<path fill="#2D5972" d="M72.296,51.326c0-1.826-1.485-3.312-3.312-3.312"/>
<path fill="#2D5972" d="M68.985,48.015c-1.826,0-3.313,1.485-3.313,3.312s1.487,3.312,3.313,3.312s3.312-1.485,3.312-3.312"/>
<path fill="#2D5972" d="M70.233,51.326c0,0.689-0.56,1.249-1.248,1.249c-0.69,0-1.25-0.56-1.25-1.249c0-0.688,0.56-1.249,1.25-1.249
	C69.673,50.077,70.233,50.638,70.233,51.326"/>
</svg>
