<?xml version="1.0" encoding="utf-8"?>
<!-- Generator: Adobe Illustrator 15.1.0, SVG Export Plug-In  -->
<!DOCTYPE svg PUBLIC "-//W3C//DTD SVG 1.1//EN" "http://www.w3.org/Graphics/SVG/1.1/DTD/svg11.dtd" [
	<!ENTITY ns_flows "http://ns.adobe.com/Flows/1.0/">
]>
<svg version="1.1"
	 xmlns="http://www.w3.org/2000/svg" xmlns:xlink="http://www.w3.org/1999/xlink" xmlns:a="http://ns.adobe.com/AdobeSVGViewerExtensions/3.0/"
	 x="0px" y="0px" width="74px" height="64px" viewBox="0 0 74 64" enable-background="new 0 0 74 64" xml:space="preserve">
<defs>
</defs>
<path fill="#F2F4F4" d="M56.576,28.287c0,15.623-12.666,28.288-28.289,28.288C12.665,56.575,0,43.91,0,28.287S12.665,0,28.287,0
	C43.91,0,56.576,12.664,56.576,28.287"/>
<path fill="#2D5972" d="M44.951,64.006c-12.736,0-23.641-9.501-25.362-22.101c-0.075-0.547,0.308-1.051,0.855-1.126
	c0.542-0.075,1.051,0.309,1.127,0.855c1.587,11.613,11.639,20.371,23.38,20.371c11.74,0,21.793-8.758,23.379-20.371
	c0.076-0.547,0.578-0.93,1.127-0.855c0.548,0.075,0.931,0.579,0.855,1.126C68.59,54.505,57.686,64.006,44.951,64.006"/>
<path fill="#2D5972" d="M69.308,35.956c-0.49,0-0.918-0.361-0.988-0.861c-1.624-11.566-11.67-20.287-23.369-20.287
	c-11.7,0-21.746,8.721-23.37,20.287c-0.076,0.547-0.577,0.93-1.128,0.852c-0.547-0.076-0.929-0.582-0.852-1.13
	c1.762-12.548,12.659-22.009,25.35-22.009c12.689,0,23.587,9.461,25.349,22.009c0.077,0.548-0.304,1.054-0.851,1.13
	C69.402,35.952,69.355,35.956,69.308,35.956"/>
<path fill="#2D5972" d="M69.708,36.308l-8.039-4.275c-0.486-0.26-0.672-0.865-0.412-1.353c0.259-0.487,0.863-0.673,1.352-0.413
	l6.273,3.337l3.336-6.272c0.26-0.487,0.865-0.673,1.353-0.413c0.488,0.259,0.673,0.865,0.413,1.353L69.708,36.308z"/>
<path fill="#2D5972" d="M16.763,49.925c-0.158,0-0.319-0.037-0.469-0.116c-0.487-0.259-0.673-0.865-0.413-1.354l4.277-8.038
	l8.038,4.277c0.487,0.259,0.672,0.864,0.413,1.352c-0.259,0.487-0.866,0.674-1.353,0.414l-6.272-3.338l-3.337,6.273
	C17.467,49.733,17.121,49.925,16.763,49.925"/>
</svg>
