<?xml version="1.0" encoding="utf-8"?>
<!-- Generator: Adobe Illustrator 15.1.0, SVG Export Plug-In  -->
<!DOCTYPE svg PUBLIC "-//W3C//DTD SVG 1.1//EN" "http://www.w3.org/Graphics/SVG/1.1/DTD/svg11.dtd" [
	<!ENTITY ns_flows "http://ns.adobe.com/Flows/1.0/">
]>
<svg version="1.1"
	 xmlns="http://www.w3.org/2000/svg" xmlns:xlink="http://www.w3.org/1999/xlink" xmlns:a="http://ns.adobe.com/AdobeSVGViewerExtensions/3.0/"
	 x="0px" y="0px" width="72px" height="62px" viewBox="0 0 72 62" enable-background="new 0 0 72 62" xml:space="preserve">
<defs>
</defs>
<path fill="#F2F4F4" d="M56.575,28.288c0,15.623-12.664,28.288-28.288,28.288C12.665,56.576,0,43.911,0,28.288S12.665,0,28.287,0
	C43.911,0,56.575,12.665,56.575,28.288"/>
<path fill="#2D5972" d="M46.319,50.704l-0.631-0.272c-0.36-0.186-0.586-0.555-0.586-0.963V14.271l0.362-0.368
	c2.618-2.28,7.124-1.785,11.894-1.263c4.638,0.509,9.434,1.034,12.723-0.839l0.501-0.285l0.582,0.289
	c0.332,0.193,0.538,0.552,0.538,0.937v35.342l-0.543,0.361c-3.728,2.164-8.747,1.644-13.608,1.141
	c-4.339-0.448-8.44-0.874-10.733,0.763L46.319,50.704z M51.895,47.181c1.836,0,3.824,0.206,5.861,0.417
	c4.327,0.447,8.794,0.91,11.945-0.638V14.184c-3.692,1.418-8.373,0.905-12.563,0.446c-4.103-0.451-7.99-0.876-10.037,0.53v32.775
	C48.498,47.372,50.125,47.181,51.895,47.181"/>
<path fill="#2D5972" d="M46.026,50.56c-0.221,0-0.439-0.068-0.628-0.203c-2.292-1.645-6.397-1.219-10.745-0.77
	c-4.88,0.505-9.924,1.027-13.658-1.17l-0.492-0.289V10.842l1.51,0.895c3.291,1.951,8.142,1.418,12.833,0.905
	c4.795-0.526,9.323-1.022,11.921,1.286l0.336,0.299v35.867l-0.584,0.347C46.362,50.521,46.194,50.56,46.026,50.56 M22.503,46.96
	c3.148,1.548,7.617,1.085,11.944,0.638c4.001-0.414,7.815-0.81,10.656,0.338V15.161c-2.048-1.408-5.937-0.981-10.039-0.532
	c-4.19,0.46-8.869,0.973-12.561-0.445V46.96z"/>
<path fill="#2D5972" d="M46.317,55.412l-0.632-0.274c-0.358-0.187-0.583-0.556-0.583-0.963c0-0.528,0.41-0.962,0.932-0.996
	c2.904-1.787,7.194-1.344,11.723-0.873c4.452,0.459,9.052,0.937,12.215-0.778c0.182-0.195,0.441-0.317,0.73-0.317
	c0.553,0,1,0.448,1,1c0,0.36-0.238,0.771-0.551,0.948c-3.72,2.159-8.74,1.64-13.601,1.136c-4.338-0.449-8.44-0.875-10.733,0.764
	L46.317,55.412z"/>
<path fill="#2D5972" d="M46.026,55.267c-0.223,0-0.444-0.069-0.633-0.207c-2.287-1.642-6.395-1.215-10.739-0.766
	c-4.881,0.504-9.926,1.028-13.659-1.169c-0.476-0.28-0.634-0.894-0.354-1.37c0.279-0.476,0.891-0.634,1.369-0.354
	c3.166,1.865,7.88,1.376,12.438,0.904c4.539-0.472,8.839-0.916,11.75,0.888c0.508,0.048,0.904,0.475,0.904,0.996
	c0,0.376-0.252,0.788-0.586,0.96C46.36,55.228,46.194,55.267,46.026,55.267"/>
<polyline fill="#2D5972" points="33.318,60.102 33.318,53.635 35.318,53.635 35.318,62.296 "/>
<path fill="#2D5972" d="M27.287,61.715v-8.08h2v6.467"/>
<path fill="#2D5972" d="M39.149,25.696H28.288c-0.553,0-1-0.448-1-1s0.447-1,1-1h10.861c0.553,0,1,0.448,1,1
	S39.702,25.696,39.149,25.696"/>
<path fill="#2D5972" d="M39.149,31.515H28.288c-0.553,0-1-0.448-1-1c0-0.552,0.447-1,1-1h10.861c0.553,0,1,0.448,1,1
	C40.149,31.067,39.702,31.515,39.149,31.515"/>
<path fill="#2D5972" d="M37.545,37.449h-7.484c-0.553,0-1-0.448-1-1s0.447-1,1-1h7.484c0.553,0,1,0.448,1,1
	S38.098,37.449,37.545,37.449"/>
<path fill="#2D5972" d="M63.833,25.696h-10.86c-0.554,0-1-0.448-1-1s0.446-1,1-1h10.86c0.553,0,1,0.448,1,1
	S64.385,25.696,63.833,25.696"/>
<path fill="#2D5972" d="M63.833,31.515h-10.86c-0.554,0-1-0.448-1-1c0-0.552,0.446-1,1-1h10.86c0.553,0,1,0.448,1,1
	C64.833,31.067,64.385,31.515,63.833,31.515"/>
<path fill="#2D5972" d="M62.229,37.449h-7.484c-0.553,0-1-0.448-1-1s0.447-1,1-1h7.484c0.553,0,1,0.448,1,1
	S62.782,37.449,62.229,37.449"/>
</svg>
