<?xml version="1.0" encoding="UTF-8" standalone="no"?>
<!-- Created with Inkscape (http://www.inkscape.org/) -->

<svg
   xmlns:dc="http://purl.org/dc/elements/1.1/"
   xmlns:cc="http://creativecommons.org/ns#"
   xmlns:rdf="http://www.w3.org/1999/02/22-rdf-syntax-ns#"
   xmlns:svg="http://www.w3.org/2000/svg"
   xmlns="http://www.w3.org/2000/svg"
   xmlns:sodipodi="http://sodipodi.sourceforge.net/DTD/sodipodi-0.dtd"
   xmlns:inkscape="http://www.inkscape.org/namespaces/inkscape"
   width="48.341984mm"
   height="10.987218mm"
   viewBox="0 0 48.341984 10.987218"
   version="1.1"
   id="svg7004"
   inkscape:version="0.92.3 (unknown)"
   sodipodi:docname="logo.svg">
  <defs
     id="defs6998" />
  <sodipodi:namedview
     id="base"
     pagecolor="#ffffff"
     bordercolor="#666666"
     borderopacity="1.0"
     inkscape:pageopacity="0.0"
     inkscape:pageshadow="2"
     inkscape:zoom="0.35"
     inkscape:cx="1122.7835"
     inkscape:cy="-459.23675"
     inkscape:document-units="mm"
     inkscape:current-layer="layer1"
     showgrid="false"
     fit-margin-top="0"
     fit-margin-left="0"
     fit-margin-right="0"
     fit-margin-bottom="0"
     inkscape:window-width="1853"
     inkscape:window-height="1025"
     inkscape:window-x="67"
     inkscape:window-y="27"
     inkscape:window-maximized="1" />
  <metadata
     id="metadata7001">
    <rdf:RDF>
      <cc:Work
         rdf:about="">
        <dc:format>image/svg+xml</dc:format>
        <dc:type
           rdf:resource="http://purl.org/dc/dcmitype/StillImage" />
        <dc:title></dc:title>
      </cc:Work>
    </rdf:RDF>
  </metadata>
  <g
     inkscape:label="Layer 1"
     inkscape:groupmode="layer"
     id="layer1"
     transform="translate(191.23647,-16.339724)">
    <g
       id="g6581"
       transform="matrix(0.35277777,0,0,-0.35277777,-177.01303,24.780522)">
      <path
         d="M 0,0 H -1.231 V -4.557 H 0 c 1.595,0 2.405,0.862 2.405,2.279 C 2.405,-0.86 1.595,0 0,0 m 0,0.675 c 2.085,0 3.122,-1.248 3.122,-2.953 0,-1.704 -1.037,-2.953 -3.122,-2.953 h -1.94 v 5.906 z"
         style="fill:#04678d;fill-opacity:1;fill-rule:nonzero;stroke:none"
         id="path6583"
         inkscape:connector-curvature="0" />
    </g>
    <g
       id="g6585"
       transform="matrix(0.35277777,0,0,-0.35277777,-174.26662,25.387547)">
      <path
         d="m 0,0 c -0.827,0 -1.484,-0.549 -1.484,-1.485 0,-0.937 0.657,-1.486 1.484,-1.486 0.827,0 1.485,0.549 1.485,1.486 C 1.485,-0.549 0.827,0 0,0 m 0,0.641 c 1.105,0 2.16,-0.743 2.16,-2.126 0,-1.384 -1.055,-2.127 -2.16,-2.127 -1.097,0 -2.16,0.743 -2.16,2.127 0,1.383 1.063,2.126 2.16,2.126"
         style="fill:#04678d;fill-opacity:1;fill-rule:nonzero;stroke:none"
         id="path6587"
         inkscape:connector-curvature="0" />
    </g>
    <g
       id="g6589"
       transform="matrix(0.35277777,0,0,-0.35277777,-171.8623,25.161557)">
      <path
         d="m 0,0 c 0.455,0 0.902,-0.102 1.249,-0.329 v -0.658 c -0.304,0.236 -0.734,0.363 -1.165,0.363 -0.784,0 -1.603,-0.439 -1.603,-1.502 0,-1.038 0.793,-1.502 1.586,-1.502 0.439,0 0.886,0.126 1.224,0.329 V -3.975 C 0.911,-4.16 0.48,-4.253 -0.025,-4.253 c -1.064,0 -2.169,0.667 -2.169,2.109 C -2.194,-0.666 -1.055,0 0,0"
         style="fill:#04678d;fill-opacity:1;fill-rule:nonzero;stroke:none"
         id="path6591"
         inkscape:connector-curvature="0" />
    </g>
    <g
       id="g6593"
       transform="matrix(0.35277777,0,0,-0.35277777,-169.83587,25.38169)">
      <path
         d="M 0,0 C -0.692,0 -1.334,-0.414 -1.384,-1.207 H 1.24 C 1.299,-0.776 1.029,0 0,0 m -0.043,0.624 c 1.562,0 2.135,-1.274 1.882,-2.422 h -3.223 c 0.084,-0.851 0.852,-1.206 1.67,-1.206 0.498,0 0.987,0.135 1.334,0.329 V -3.333 C 1.248,-3.527 0.717,-3.629 0.186,-3.629 c -1.199,0 -2.246,0.684 -2.246,2.127 0,1.417 1.055,2.126 2.017,2.126"
         style="fill:#04678d;fill-opacity:1;fill-rule:nonzero;stroke:none"
         id="path6595"
         inkscape:connector-curvature="0" />
    </g>
    <g
       id="g6597"
       transform="matrix(0.35277777,0,0,-0.35277777,-167.47942,25.161557)">
      <path
         d="M 0,0 C 0.971,0 1.687,-0.666 1.687,-1.653 V -4.151 H 1.013 v 2.413 c 0,0.759 -0.464,1.114 -1.088,1.114 -0.6,0 -1.047,-0.405 -1.317,-0.811 v -2.716 h -0.675 v 4.049 h 0.608 V -0.7 C -1.189,-0.346 -0.649,0 0,0"
         style="fill:#04678d;fill-opacity:1;fill-rule:nonzero;stroke:none"
         id="path6599"
         inkscape:connector-curvature="0" />
    </g>
    <g
       id="g6601"
       transform="matrix(0.35277777,0,0,-0.35277777,-165.19395,25.38169)">
      <path
         d="m 0,0 c -0.785,0 -1.426,-0.574 -1.426,-1.502 0,-0.929 0.641,-1.502 1.426,-1.502 0.726,0 1.266,0.473 1.493,0.995 v 1.013 C 1.266,-0.473 0.726,0 0,0 M 2.168,2.379 V -3.527 H 1.561 v 0.674 C 1.198,-3.266 0.7,-3.629 -0.076,-3.629 c -1.156,0 -2.026,0.911 -2.026,2.127 0,1.215 0.87,2.126 2.026,2.126 0.776,0 1.274,-0.362 1.569,-0.709 v 2.464 z"
         style="fill:#04678d;fill-opacity:1;fill-rule:nonzero;stroke:none"
         id="path6603"
         inkscape:connector-curvature="0" />
    </g>
    <g
       id="g6605"
       transform="matrix(0.35277777,0,0,-0.35277777,-162.70041,25.387547)">
      <path
         d="m 0,0 c -0.827,0 -1.484,-0.549 -1.484,-1.485 0,-0.937 0.657,-1.486 1.484,-1.486 0.827,0 1.485,0.549 1.485,1.486 C 1.485,-0.549 0.827,0 0,0 m 0,0.641 c 1.105,0 2.16,-0.743 2.16,-2.126 0,-1.384 -1.055,-2.127 -2.16,-2.127 -1.097,0 -2.16,0.743 -2.16,2.127 0,1.383 1.063,2.126 2.16,2.126"
         style="fill:#04678d;fill-opacity:1;fill-rule:nonzero;stroke:none"
         id="path6607"
         inkscape:connector-curvature="0" />
    </g>
    <g
       id="g6609"
       transform="matrix(0.35277777,0,0,-0.35277777,-158.96316,25.38169)">
      <path
         d="m 0,0 c -0.785,0 -1.426,-0.574 -1.426,-1.502 0,-0.929 0.641,-1.502 1.426,-1.502 0.726,0 1.266,0.473 1.493,0.995 v 1.013 C 1.266,-0.473 0.726,0 0,0 M 2.168,2.379 V -3.527 H 1.561 v 0.674 C 1.198,-3.266 0.7,-3.629 -0.076,-3.629 c -1.156,0 -2.026,0.911 -2.026,2.127 0,1.215 0.87,2.126 2.026,2.126 0.776,0 1.274,-0.362 1.569,-0.709 v 2.464 z"
         style="fill:#04678d;fill-opacity:1;fill-rule:nonzero;stroke:none"
         id="path6611"
         inkscape:connector-curvature="0" />
    </g>
    <path
       d="m -157.12734,25.197364 h 0.23813 v 1.42875 h -0.23813 z m 0.11889,-0.303742 c -0.0832,0 -0.15452,-0.0508 -0.15452,-0.152047 0,-0.09807 0.0713,-0.151694 0.15452,-0.151694 0.0833,0 0.15522,0.05362 0.15522,0.151694 0,0.101247 -0.072,0.152047 -0.15522,0.152047"
       style="fill:#04678d;fill-opacity:1;fill-rule:nonzero;stroke:none;stroke-width:0.35277775"
       id="path6613"
       inkscape:connector-curvature="0" />
    <g
       id="g6615"
       transform="matrix(0.35277777,0,0,-0.35277777,-155.35682,25.161557)">
      <path
         d="m 0,0 c 0.54,0 1.055,-0.144 1.435,-0.346 v -0.641 c -0.338,0.219 -0.904,0.38 -1.393,0.38 -0.438,0 -0.903,-0.144 -0.903,-0.54 0,-0.878 2.574,-0.506 2.574,-1.966 0,-0.844 -0.793,-1.14 -1.671,-1.14 -0.574,0 -1.189,0.152 -1.569,0.397 v 0.658 c 0.413,-0.279 1.029,-0.43 1.535,-0.43 0.574,0 1.03,0.093 1.03,0.498 0,0.852 -2.583,0.515 -2.583,1.966 C -1.545,-0.329 -0.76,0 0,0"
         style="fill:#04678d;fill-opacity:1;fill-rule:nonzero;stroke:none"
         id="path6617"
         inkscape:connector-curvature="0" />
    </g>
    <g
       id="g6619"
       transform="matrix(0.35277777,0,0,-0.35277777,-153.13096,25.161557)">
      <path
         d="m 0,0 c 0.455,0 0.902,-0.102 1.249,-0.329 v -0.658 c -0.304,0.236 -0.734,0.363 -1.165,0.363 -0.784,0 -1.603,-0.439 -1.603,-1.502 0,-1.038 0.793,-1.502 1.586,-1.502 0.439,0 0.886,0.126 1.224,0.329 V -3.975 C 0.911,-4.16 0.48,-4.253 -0.025,-4.253 c -1.064,0 -2.169,0.667 -2.169,2.109 C -2.194,-0.666 -1.055,0 0,0"
         style="fill:#04678d;fill-opacity:1;fill-rule:nonzero;stroke:none"
         id="path6621"
         inkscape:connector-curvature="0" />
    </g>
    <path
       d="m -151.70867,25.197364 h 0.23812 v 1.42875 h -0.23812 z m 0.11853,-0.303742 c -0.0833,0 -0.15451,-0.0508 -0.15451,-0.152047 0,-0.09807 0.0713,-0.151694 0.15451,-0.151694 0.0836,0 0.15523,0.05362 0.15523,0.151694 0,0.101247 -0.0716,0.152047 -0.15523,0.152047"
       style="fill:#04678d;fill-opacity:1;fill-rule:nonzero;stroke:none;stroke-width:0.35277775"
       id="path6623"
       inkscape:connector-curvature="0" />
    <g
       id="g6625"
       transform="matrix(0.35277777,0,0,-0.35277777,-150.40004,26.626078)">
      <path
         d="M 0,0 V 4.05 H 0.608 V 3.511 c 0.219,0.235 0.701,0.64 1.384,0.64 0.608,0 1.055,-0.261 1.299,-0.683 0.363,0.371 0.861,0.683 1.477,0.683 1.004,0 1.544,-0.709 1.544,-1.653 V 0 H 5.637 V 2.515 C 5.637,3.131 5.282,3.527 4.692,3.527 4.144,3.527 3.738,3.147 3.511,2.86 3.527,2.742 3.536,2.624 3.536,2.498 V 0 H 2.861 v 2.515 c 0,0.616 -0.354,1.012 -0.945,1.012 -0.6,0 -1.021,-0.447 -1.24,-0.734 L 0.676,0 Z"
         style="fill:#04678d;fill-opacity:1;fill-rule:nonzero;stroke:none"
         id="path6627"
         inkscape:connector-curvature="0" />
    </g>
    <g
       id="g6629"
       transform="matrix(0.35277777,0,0,-0.35277777,-145.81979,25.197399)">
      <path
         d="m 0,0 v -4.05 h -0.607 v 0.599 c -0.271,-0.354 -0.811,-0.7 -1.46,-0.7 -1.055,0 -1.688,0.667 -1.688,1.654 V 0 h 0.675 v -2.413 c 0,-0.759 0.38,-1.113 1.088,-1.113 0.599,0 1.047,0.404 1.316,0.809 V 0 Z"
         style="fill:#04678d;fill-opacity:1;fill-rule:nonzero;stroke:none"
         id="path6631"
         inkscape:connector-curvature="0" />
    </g>
    <g
       id="g6633"
       transform="matrix(0.35277777,0,0,-0.35277777,-144.2936,25.161557)">
      <path
         d="m 0,0 c 0.54,0 1.055,-0.144 1.435,-0.346 v -0.641 c -0.338,0.219 -0.904,0.38 -1.393,0.38 -0.438,0 -0.903,-0.144 -0.903,-0.54 0,-0.878 2.574,-0.506 2.574,-1.966 0,-0.844 -0.793,-1.14 -1.671,-1.14 -0.574,0 -1.189,0.152 -1.569,0.397 v 0.658 c 0.413,-0.279 1.029,-0.43 1.535,-0.43 0.574,0 1.029,0.093 1.029,0.498 0,0.852 -2.582,0.515 -2.582,1.966 C -1.545,-0.329 -0.76,0 0,0"
         style="fill:#04678d;fill-opacity:1;fill-rule:nonzero;stroke:none"
         id="path6635"
         inkscape:connector-curvature="0" />
    </g>
    <g
       id="g6637"
       transform="matrix(0.35277777,0,0,-0.35277777,-176.14142,22.601837)">
      <path
         d="m 0,0 c 2.329,0 3.801,1.45 3.801,3.912 v 8.965 H 6.746 V 3.912 c 0,-4.044 -2.571,-6.549 -6.746,-6.549 -4.197,0 -6.835,2.505 -6.835,6.549 v 8.965 H -3.89 V 3.912 C -3.89,1.473 -2.33,0 0,0"
         style="fill:#04678d;fill-opacity:1;fill-rule:nonzero;stroke:none"
         id="path6639"
         inkscape:connector-curvature="0" />
    </g>
    <g
       id="g6641"
       transform="matrix(0.35277777,0,0,-0.35277777,-171.61458,18.059153)">
      <path
         d="M 0,0 7.933,-10.525 V 0 h 2.856 V -15.382 H 7.998 L 0.087,-4.878 V -15.382 H -2.791 V 0 Z"
         style="fill:#04678d;fill-opacity:1;fill-rule:nonzero;stroke:none"
         id="path6643"
         inkscape:connector-curvature="0" />
    </g>
    <path
       d="m -165.4984,23.485686 h -1.03893 v -5.426427 h 1.03893 z"
       style="fill:#04678d;fill-opacity:1;fill-rule:nonzero;stroke:none;stroke-width:0.35277775"
       id="path6645"
       inkscape:connector-curvature="0" />
    <g
       id="g6647"
       transform="matrix(0.35277777,0,0,-0.35277777,-163.76217,18.059153)">
      <path
         d="M 0,0 4.526,-12.107 9.097,0 H 12.13 L 5.977,-15.382 H 2.922 L -3.165,0 Z"
         style="fill:#04678d;fill-opacity:1;fill-rule:nonzero;stroke:none"
         id="path6649"
         inkscape:connector-curvature="0" />
    </g>
    <g
       id="g6651"
       transform="matrix(0.35277777,0,0,-0.35277777,-154.87866,18.059153)">
      <path
         d="m 0,0 v -2.57 h -8.328 v -3.802 h 7.471 v -2.571 h -7.471 v -3.868 h 8.592 v -2.571 H -11.273 V 0 Z"
         style="fill:#04678d;fill-opacity:1;fill-rule:nonzero;stroke:none"
         id="path6653"
         inkscape:connector-curvature="0" />
    </g>
    <g
       id="g6655"
       transform="matrix(0.35277777,0,0,-0.35277777,-152.75508,20.973697)">
      <path
         d="M 0,0 H 3.473 C 5.67,0 6.9,0.944 6.9,2.878 6.9,4.769 5.67,5.691 3.473,5.691 H 0 Z M 6.681,-7.12 4.022,-2.571 C 3.847,-2.594 3.67,-2.594 3.473,-2.594 H 0 V -7.12 H -2.944 V 8.262 h 6.417 c 3.977,0 6.241,-1.911 6.241,-5.296 0,-2.417 -1.077,-4.153 -3.055,-4.988 l 3.384,-5.098 z"
         style="fill:#04678d;fill-opacity:1;fill-rule:nonzero;stroke:none"
         id="path6657"
         inkscape:connector-curvature="0" />
    </g>
    <g
       id="g6659"
       transform="matrix(0.35277777,0,0,-0.35277777,-147.61571,20.772155)">
      <path
         d="m 0,0 c 0,-2.901 2.396,-5.187 5.23,-5.187 2.813,0 5.142,2.286 5.142,5.187 0,2.9 -2.329,5.142 -5.142,5.142 C 2.374,5.142 0,2.9 0,0 m 13.383,0 c 0,-4.417 -3.56,-7.823 -8.196,-7.823 -4.637,0 -8.197,3.406 -8.197,7.823 0,4.438 3.56,7.779 8.197,7.779 4.636,0 8.196,-3.362 8.196,-7.779"
         style="fill:#04678d;fill-opacity:1;fill-rule:nonzero;stroke:none"
         id="path6661"
         inkscape:connector-curvature="0" />
    </g>
    <g
       id="g6663"
       transform="matrix(0.35277777,0,0,-0.35277777,-183.54288,18.158036)">
      <path
         d="m 0,0 c -1.544,-1.312 -4.995,-4.397 -8.612,-9.171 -1.513,-1.996 -3.841,-5.105 -5.956,-9.701 -0.557,-1.208 -0.97,-2.24 -1.248,-2.975 0.363,0.652 0.898,1.596 1.562,2.723 2.048,3.478 3.77,6.401 6.226,9.643 0.676,0.894 3.67,4.795 8.227,9.119 C 1.534,0.903 3.198,2.391 3.142,2.456 3.083,2.523 1.249,1.062 0,0"
         style="fill:#04678d;fill-opacity:1;fill-rule:nonzero;stroke:none"
         id="path6665"
         inkscape:connector-curvature="0" />
    </g>
    <g
       id="g6667"
       transform="matrix(0.35277777,0,0,-0.35277777,-180.79989,16.604968)">
      <path
         d="m 0,0 c -1.371,1.854 -6.862,-0.289 -7.172,-0.412 -0.781,-0.313 -1.418,-0.65 -1.889,-0.926 h -16.967 v -15.908 c 0,-2.215 0.757,-4.255 2.023,-5.88 0.338,2.052 0.56,3.004 0.861,4.012 0.248,0.826 0.487,1.48 0.632,1.865 0.062,-0.285 0.196,-0.731 0.506,-1.199 0.358,-0.538 0.784,-0.857 1.043,-1.021 -0.176,0.46 -0.348,0.976 -0.497,1.545 -0.187,0.717 -0.304,1.381 -0.375,1.97 0.751,1.735 1.881,3.889 3.589,6.165 1.785,2.377 3.662,4.169 5.215,5.454 -0.209,-0.453 -0.434,-1.06 -0.564,-1.797 -0.086,-0.486 -0.112,-0.926 -0.11,-1.3 0.368,0.831 0.762,1.464 1.046,1.879 0.37,0.542 1.949,2.756 5.068,4.326 0.744,0.375 1.384,0.617 1.787,0.757 -0.292,-0.398 -0.583,-0.796 -0.874,-1.193 0.353,0.369 1.105,1.052 2.301,1.43 0.971,0.305 3.089,0.681 3.804,-0.178 1.109,-1.333 -1.165,-5.632 -4.674,-6.829 -0.3,-0.103 -0.569,-0.168 -0.788,-0.213 0.284,-0.016 0.683,-0.011 1.145,0.088 0.476,0.1 0.846,0.262 1.097,0.394 -0.382,-0.458 -1.313,-1.376 -2.134,-2.163 v -8.112 c 0,-5.773 -4.705,-10.469 -10.487,-10.469 -2.141,0 -4.133,0.645 -5.794,1.748 -1.142,-1.19 -2.045,-2.213 -2.662,-2.933 0.163,1.156 0.304,2.119 0.407,2.812 0.101,0.681 0.192,1.279 0.276,1.821 -1.686,1.859 -2.714,4.322 -2.714,7.021 v 15.908 h -0.063 -0.158 -2.462 v -15.909 c 0,-5.46 3.231,-8.753 4.337,-9.751 0.029,-0.026 0.058,-0.053 0.079,-0.071 l -0.423,-3.324 2.145,2.031 c 1.15,-0.73 3.538,-2.03 6.895,-2.031 7.409,-10e-4 13.306,5.885 13.306,13.146 v 10.376 c 0.666,0.45 1.694,1.27 2.462,2.577 C -0.506,-3.822 0.941,-1.273 0,0"
         style="fill:#04678d;fill-opacity:1;fill-rule:nonzero;stroke:none"
         id="path6669"
         inkscape:connector-curvature="0" />
    </g>
    <g
       id="g6671"
       transform="matrix(0.35277777,0,0,-0.35277777,-186.54184,23.785583)">
      <path
         d="m 0,0 c -1.821,-1.883 -3.613,-3.534 -5.312,-4.975 1.495,-0.956 3.27,-1.514 5.174,-1.514 5.301,0 9.614,4.305 9.614,9.597 v 7.284 C 9.399,10.32 9.326,10.252 9.262,10.191 6.424,7.865 3.523,6.56 1.41,5.816 2.014,5.812 2.748,5.854 3.571,6.004 4.396,6.153 5.102,6.374 5.666,6.59 4.083,4.513 2.207,2.28 0,0"
         style="fill:#04678d;fill-opacity:1;fill-rule:nonzero;stroke:none"
         id="path6673"
         inkscape:connector-curvature="0" />
    </g>
  </g>
</svg>
