<?xml version="1.0" encoding="utf-8"?>
<!-- Generator: Adobe Illustrator 15.1.0, SVG Export Plug-In  -->
<!DOCTYPE svg PUBLIC "-//W3C//DTD SVG 1.1//EN" "http://www.w3.org/Graphics/SVG/1.1/DTD/svg11.dtd" [
	<!ENTITY ns_flows "http://ns.adobe.com/Flows/1.0/">
]>
<svg version="1.1"
	 xmlns="http://www.w3.org/2000/svg" xmlns:xlink="http://www.w3.org/1999/xlink" xmlns:a="http://ns.adobe.com/AdobeSVGViewerExtensions/3.0/"
	 x="0px" y="0px" width="66px" height="62px" viewBox="0 0 66 62" enable-background="new 0 0 66 62" xml:space="preserve">
<defs>
</defs>
<path fill="#F2F4F4" d="M56.574,28.288c0,15.623-12.664,28.288-28.287,28.288C12.665,56.576,0,43.911,0,28.288S12.665,0,28.287,0
	C43.91,0,56.574,12.665,56.574,28.288"/>
<path fill="#2D5972" d="M55.751,61.615c-0.23,0-0.464-0.056-0.679-0.169L40.83,53.958l-14.24,7.488
	c-0.496,0.259-1.084,0.217-1.537-0.112c-0.45-0.329-0.673-0.875-0.577-1.426l2.719-15.858L15.672,32.82
	c-0.399-0.392-0.542-0.964-0.367-1.496c0.173-0.531,0.623-0.911,1.178-0.991l15.921-2.314l7.121-14.428
	c0.247-0.501,0.748-0.813,1.306-0.813c0.561,0,1.062,0.312,1.309,0.813l7.121,14.428l15.922,2.314
	c0.553,0.08,1.004,0.46,1.177,0.991c0.173,0.532,0.032,1.104-0.369,1.496L54.469,44.05l2.72,15.859
	c0.093,0.552-0.129,1.098-0.581,1.426C56.353,61.521,56.053,61.614,55.751,61.615 M40.831,51.888c0.233,0,0.464,0.057,0.676,0.166
	l13.524,7.111l-2.583-15.058c-0.081-0.472,0.076-0.952,0.417-1.287l10.942-10.666L48.69,29.958c-0.477-0.069-0.888-0.368-1.1-0.8
	l-6.76-13.697L34.07,29.16c-0.211,0.43-0.623,0.729-1.1,0.798l-15.115,2.196l10.938,10.663c0.343,0.334,0.5,0.816,0.419,1.29
	l-2.582,15.057l13.521-7.108C40.365,51.944,40.6,51.888,40.831,51.888 M64.895,32.313L64.895,32.313L64.895,32.313z M16.771,32.312
	l-0.002,0.001C16.77,32.313,16.77,32.312,16.771,32.312 M32.277,28.274c-0.001,0.001-0.001,0.002-0.001,0.002L32.277,28.274z
	 M49.385,28.273v0.002C49.385,28.274,49.385,28.273,49.385,28.273"/>
</svg>
