<?xml version="1.0" encoding="utf-8"?>
<!-- Generator: Adobe Illustrator 15.1.0, SVG Export Plug-In  -->
<!DOCTYPE svg PUBLIC "-//W3C//DTD SVG 1.1//EN" "http://www.w3.org/Graphics/SVG/1.1/DTD/svg11.dtd" [
	<!ENTITY ns_flows "http://ns.adobe.com/Flows/1.0/">
]>
<svg version="1.1"
	 xmlns="http://www.w3.org/2000/svg" xmlns:xlink="http://www.w3.org/1999/xlink" xmlns:a="http://ns.adobe.com/AdobeSVGViewerExtensions/3.0/"
	 x="0px" y="0px" width="65px" height="61px" viewBox="0 0 65 61" enable-background="new 0 0 65 61" xml:space="preserve">
<defs>
</defs>
<path fill="#F2F4F4" d="M28.287,0C43.91,0,56.574,12.664,56.574,28.287"/>
<path fill="#F2F4F4" d="M56.574,28.287c0,15.623-12.664,28.288-28.287,28.288C12.665,56.575,0,43.91,0,28.287S12.665,0,28.287,0"/>
<path fill="#2D5972" d="M39.537,61.191c-1.184,0-2.39-0.086-3.585-0.255c-0.407-0.055-0.751-0.334-0.892-0.729l-1.331-3.742
	c-1.673-0.467-3.27-1.129-4.769-1.976l-3.591,1.707c-0.382,0.181-0.822,0.132-1.154-0.124c-1.909-1.435-3.615-3.14-5.06-5.061
	c-0.248-0.333-0.293-0.771-0.115-1.144l1.707-3.591c-0.854-1.514-1.514-3.111-1.977-4.77l-3.743-1.331
	c-0.391-0.141-0.668-0.48-0.727-0.889c-0.169-1.206-0.255-2.413-0.255-3.588s0.086-2.381,0.254-3.585
	c0.06-0.411,0.337-0.751,0.725-0.89l3.746-1.332c0.463-1.663,1.126-3.265,1.977-4.771l-1.707-3.591
	c-0.178-0.374-0.133-0.811,0.112-1.141c1.447-1.924,3.153-3.629,5.071-5.072c0.323-0.247,0.764-0.296,1.144-0.116l3.593,1.707
	c1.498-0.845,3.1-1.509,4.769-1.975l1.331-3.743c0.139-0.388,0.479-0.667,0.887-0.728c2.409-0.338,4.772-0.338,7.176,0
	c0.413,0.061,0.753,0.34,0.89,0.729l1.331,3.742c1.665,0.464,3.265,1.127,4.77,1.975l3.591-1.707
	c0.377-0.177,0.813-0.133,1.143,0.116c1.923,1.446,3.628,3.151,5.07,5.069c0.246,0.312,0.296,0.769,0.114,1.146l-1.705,3.588
	c0.847,1.5,1.511,3.103,1.975,4.771l3.744,1.331c0.387,0.136,0.668,0.476,0.726,0.887c0.17,1.2,0.256,2.406,0.256,3.589
	s-0.086,2.39-0.255,3.585c-0.059,0.414-0.34,0.756-0.731,0.893l-3.739,1.33c-0.462,1.662-1.126,3.264-1.975,4.77l1.707,3.59
	c0.182,0.378,0.134,0.823-0.125,1.157c-1.435,1.905-3.14,3.61-5.06,5.056c-0.333,0.25-0.771,0.293-1.143,0.116l-3.593-1.707
	c-1.506,0.849-3.104,1.511-4.77,1.976l-1.331,3.742c-0.139,0.395-0.483,0.674-0.897,0.729
	C41.925,61.105,40.718,61.191,39.537,61.191 M42.13,59.537c-0.001,0.001-0.001,0.002-0.001,0.002L42.13,59.537z M36.944,59.536
	l0.001,0.002C36.945,59.537,36.944,59.537,36.944,59.536 M36.763,59.025c1.864,0.221,3.693,0.22,5.548,0l1.486-4.174l0.586-0.199
	c1.805-0.46,3.529-1.174,5.126-2.123l0.463-0.274l0.581,0.23l3.517,1.671c1.458-1.149,2.774-2.465,3.923-3.922l-1.902-4.003
	l0.273-0.556c0.95-1.601,1.664-3.324,2.125-5.126l0.132-0.52l0.567-0.249l3.673-1.306c0.11-0.928,0.166-1.859,0.166-2.774
	s-0.056-1.846-0.166-2.774l-4.172-1.483l-0.2-0.585c-0.461-1.808-1.175-3.532-2.123-5.129l-0.269-0.452l0.215-0.576l1.681-3.532
	c-1.154-1.465-2.469-2.777-3.923-3.924l-4.007,1.905l-0.557-0.28c-1.594-0.945-3.318-1.66-5.121-2.119l-0.517-0.133l-0.251-0.57
	l-1.307-3.67c-1.857-0.221-3.685-0.222-5.548,0l-1.488,4.182l-0.597,0.193c-1.794,0.457-3.517,1.172-5.113,2.119l-0.463,0.275
	l-0.581-0.23l-3.517-1.672c-1.461,1.153-2.775,2.467-3.922,3.922l1.906,4.014l-0.287,0.56c-0.942,1.586-1.655,3.311-2.115,5.113
	l-0.13,0.512l-0.563,0.253l-3.68,1.309c-0.111,0.933-0.166,1.863-0.166,2.774c0,0.91,0.055,1.841,0.167,2.774l4.171,1.484l0.2,0.584
	c0.461,1.808,1.174,3.531,2.123,5.129l0.27,0.457l-0.22,0.576l-1.676,3.528c1.147,1.457,2.465,2.772,3.922,3.922l4-1.901l0.552,0.27
	c1.604,0.953,3.328,1.667,5.133,2.128l0.517,0.131l0.251,0.566L36.763,59.025z M42.843,58.955c-0.003,0.001-0.007,0.001-0.011,0.003
	C42.836,58.956,42.84,58.956,42.843,58.955 M36.224,58.954c0.004,0.001,0.009,0.002,0.013,0.002
	C36.232,58.955,36.228,58.955,36.224,58.954 M25.411,54.471c0.006,0.004,0.012,0.008,0.017,0.013
	C25.423,54.479,25.417,54.475,25.411,54.471 M58.225,50.725l0.003,0.006L58.225,50.725z M58.318,49.811
	c-0.006,0.007-0.011,0.013-0.016,0.02C58.308,49.824,58.313,49.817,58.318,49.811 M63.375,38.292l-0.01,0.004L63.375,38.292z
	 M63.371,33.108l0.009,0.003L63.371,33.108z M58.308,21.577c0.008,0.012,0.017,0.022,0.025,0.032
	C58.324,21.6,58.315,21.589,58.308,21.577 M58.226,20.676l-0.003,0.005L58.226,20.676z M25.438,16.911
	c-0.006,0.004-0.012,0.01-0.018,0.014C25.426,16.921,25.432,16.915,25.438,16.911 M42.129,11.863c0,0.001,0.001,0.001,0.001,0.002
	L42.129,11.863z M36.945,11.862l-0.001,0.002C36.945,11.863,36.945,11.862,36.945,11.862"/>
<path fill="#2D5972" d="M39.537,47.951c-6.756,0-12.25-5.495-12.25-12.25s5.494-12.25,12.25-12.25c6.754,0,12.25,5.495,12.25,12.25
	S46.291,47.951,39.537,47.951 M39.537,25.451c-5.652,0-10.25,4.599-10.25,10.25c0,5.652,4.598,10.25,10.25,10.25
	c5.651,0,10.25-4.598,10.25-10.25C49.787,30.05,45.188,25.451,39.537,25.451"/>
</svg>
