<?xml version="1.0" encoding="utf-8"?>
<!-- Generator: Adobe Illustrator 15.1.0, SVG Export Plug-In  -->
<!DOCTYPE svg PUBLIC "-//W3C//DTD SVG 1.1//EN" "http://www.w3.org/Graphics/SVG/1.1/DTD/svg11.dtd" [
	<!ENTITY ns_flows "http://ns.adobe.com/Flows/1.0/">
]>
<svg version="1.1"
	 xmlns="http://www.w3.org/2000/svg" xmlns:xlink="http://www.w3.org/1999/xlink" xmlns:a="http://ns.adobe.com/AdobeSVGViewerExtensions/3.0/"
	 x="0px" y="0px" width="71px" height="60px" viewBox="0 0 71 60" enable-background="new 0 0 71 60" xml:space="preserve">
<defs>
</defs>
<path fill="#F2F4F4" d="M28.288,0c15.623,0,28.287,12.665,28.287,28.288"/>
<path fill="#F2F4F4" d="M56.575,28.288c0,15.623-12.664,28.288-28.287,28.288C12.665,56.576,0,43.911,0,28.288S12.665,0,28.288,0"/>
<path fill="#2D5972" d="M42.625,42.983c-0.36,0-0.717-0.1-1.033-0.291l-7.651-4.648c-0.455-0.275-0.776-0.714-0.903-1.231
	c-0.127-0.519-0.044-1.056,0.233-1.511l12.604-20.747c0.274-0.456,0.713-0.776,1.23-0.903c0.516-0.126,1.057-0.044,1.512,0.233
	l7.65,4.647c0.456,0.277,0.777,0.714,0.904,1.232s0.044,1.056-0.234,1.512L44.334,42.022c-0.275,0.455-0.713,0.775-1.231,0.902
	C42.945,42.964,42.784,42.983,42.625,42.983 M42.631,40.983l-0.521,0.854L42.631,40.983C42.631,40.983,42.631,40.983,42.631,40.983
	 M47.579,15.593L34.98,36.339l7.649,4.643l12.6-20.744L47.579,15.593z"/>
<path fill="#2D5972" d="M57.397,15.782c-0.178,0-0.356-0.047-0.52-0.146l-5.756-3.497c-0.473-0.286-0.622-0.901-0.336-1.373
	c0.287-0.472,0.902-0.623,1.375-0.336l5.757,3.498c0.471,0.286,0.622,0.9,0.334,1.373C58.063,15.611,57.735,15.782,57.397,15.782"/>
<path fill="#2D5972" d="M35.289,45.688c-0.177,0-0.356-0.047-0.519-0.146c-0.471-0.285-0.622-0.9-0.335-1.372l3.104-5.109
	c0.288-0.472,0.902-0.622,1.374-0.335c0.473,0.286,0.623,0.901,0.336,1.373l-3.104,5.109C35.956,45.518,35.627,45.688,35.289,45.688
	"/>
<path fill="#2D5972" d="M70.141,61.118H21.636c-0.553,0-1-0.447-1-1c0-0.551,0.447-1,1-1h48.505c0.554,0,1,0.449,1,1
	C71.141,60.671,70.695,61.118,70.141,61.118"/>
<path fill="#2D5972" d="M41.542,55.319H25.376c-0.553,0-1-0.447-1-1c0-0.551,0.447-1,1-1h16.166c0.553,0,1,0.449,1,1
	C42.542,54.872,42.094,55.319,41.542,55.319"/>
<path fill="#2D5972" d="M63.231,61.124c-0.205,0-0.414-0.063-0.594-0.195c-0.443-0.328-0.538-0.955-0.209-1.399
	c5.77-7.8,7.571-13.916,5.51-18.698c-2.037-4.725-7.524-7.68-16.774-9.033c-0.548-0.079-0.925-0.587-0.845-1.133
	c0.078-0.547,0.586-0.931,1.133-0.845c9.994,1.461,15.988,4.804,18.322,10.219c2.368,5.493,0.491,12.257-5.737,20.681
	C63.839,60.984,63.539,61.124,63.231,61.124"/>
</svg>
