<?xml version="1.0" encoding="utf-8"?>
<!-- Generator: Adobe Illustrator 15.1.0, SVG Export Plug-In  -->
<!DOCTYPE svg PUBLIC "-//W3C//DTD SVG 1.1//EN" "http://www.w3.org/Graphics/SVG/1.1/DTD/svg11.dtd" [
	<!ENTITY ns_flows "http://ns.adobe.com/Flows/1.0/">
]>
<svg version="1.1"
	 xmlns="http://www.w3.org/2000/svg" xmlns:xlink="http://www.w3.org/1999/xlink" xmlns:a="http://ns.adobe.com/AdobeSVGViewerExtensions/3.0/"
	 x="0px" y="0px" width="68px" height="61px" viewBox="0 0 68 61" enable-background="new 0 0 68 61" xml:space="preserve">
<defs>
</defs>
<path fill="#F2F4F4" d="M56.574,28.287c0,15.623-12.664,28.288-28.287,28.288C12.665,56.575,0,43.91,0,28.287S12.665,0,28.287,0
	C43.91,0,56.574,12.664,56.574,28.287"/>
<path fill="#2D5972" d="M42.229,61.409c-14.115,0-25.6-11.484-25.6-25.6c0-14.114,11.484-25.599,25.6-25.599
	c14.114,0,25.6,11.484,25.6,25.599C67.828,49.925,56.343,61.409,42.229,61.409 M42.229,12.211c-13.014,0-23.6,10.586-23.6,23.599
	c0,13.014,10.586,23.6,23.6,23.6c13.013,0,23.6-10.586,23.6-23.6C65.828,22.797,55.241,12.211,42.229,12.211"/>
<path fill="#2D5972" d="M35.156,50.605l-0.616-0.277c-0.355-0.187-0.576-0.553-0.576-0.954V21.646l1.105-0.635l0.579,0.341
	L55.956,35.15l0.036,0.595c0,0.359-0.178,0.693-0.476,0.895L35.156,50.605z M35.964,23.985v23.641l17.315-11.877L35.964,23.985z
	 M54.395,36.507c0,0,0,0.001,0.002,0.001L54.395,36.507z"/>
</svg>
