<svg width="159" height="144" xmlns="http://www.w3.org/2000/svg" xmlns:xlink="http://www.w3.org/1999/xlink" overflow="hidden"><defs><clipPath id="clip0"><rect x="152" y="96" width="159" height="144"/></clipPath></defs><g clip-path="url(#clip0)" transform="translate(-152 -96)"><path d="M105.232 57.996C104.634 58.0527 104.549 58.5485 104.592 58.8319 105.345 58.8178 105.986 58.9453 106.512 59.2571 106.811 59.4129 107.124 59.2429 107.166 59.0728 107.294 58.6619 107.152 58.251 106.768 58.1235 106.228 57.9534 105.702 57.9534 105.232 57.996ZM77.3379 47.3546 81.9466 47.3546 81.9466 52.4557 87.0671 52.4557 87.0671 57.0465 81.9466 57.0465 81.9466 62.1476 77.3379 62.1476 77.3379 57.0465 72.2171 57.0465 72.2171 52.4557 77.3379 52.4557 77.3379 47.3546ZM93.696 53.5892C93.9232 54.0001 94.2795 54.3261 94.8056 54.5669 95.36 54.3118 95.7014 53.9718 95.9153 53.5892 94.9188 54.1134 94.6633 54.156 93.696 53.5892ZM93.2548 56.8624C94.0656 56.324 95.4741 56.3664 96.3415 56.8624 95.3034 56.8624 94.2795 56.8624 93.2548 56.8624ZM92.558 52.3706C94.0514 52.3706 95.5449 52.3706 97.0241 52.3706 96.6404 53.3058 96.0718 54.1418 95.1469 54.7795 96.0718 55.4312 96.6404 56.2531 97.0241 57.1883 95.5307 57.1883 94.0373 57.1883 92.558 57.1883 92.9559 56.2106 93.5819 55.4029 94.4502 54.7795 93.5819 54.156 92.9559 53.3483 92.558 52.3706ZM91.3634 52.3706 91.3634 57.2025 92.0602 57.2025 92.0602 52.3706 91.3634 52.3706ZM90.7798 58.7611 98.7881 58.7611 98.7881 57.8684 90.7798 57.8684 90.7798 58.7611ZM97.5361 52.3706 97.5361 57.2025 98.2337 57.2025 98.2337 52.3706 97.5361 52.3706ZM90.7798 51.648 98.7881 51.648 98.7881 50.7553 90.7798 50.7553 90.7798 51.648ZM79.6707 69.1332 79.6423 69.1332 79.628 69.1332 79.6138 69.1332 79.5996 69.1332 79.5853 69.1332 79.5711 69.1332 79.5569 69.1332 79.5427 69.1332 79.5285 69.1332 79.5142 69.1332 79.5 69.1332 79.4858 69.1332 79.4715 69.1332 79.4573 69.1332 79.4431 69.1332 79.4289 69.1332 79.372 69.119C79.1728 69.0765 79.0021 68.9774 78.8599 68.8498 78.675 68.6656 78.5612 68.4105 78.5612 68.1413 78.5612 67.858 78.675 67.617 78.8599 67.4328 79.0448 67.2487 79.3009 67.1353 79.5711 67.1353 79.8556 67.1353 80.0975 67.2487 80.2823 67.4328 80.4672 67.617 80.581 67.8721 80.581 68.1413 80.581 68.4247 80.4672 68.6656 80.2823 68.8498 80.1116 68.9915 79.8983 69.0907 79.6707 69.1332ZM77.7077 69.5158C77.7647 69.6008 77.8357 69.6858 77.9211 69.7566 78.2625 70.0968 78.7034 70.3235 79.2013 70.3943L79.2439 70.3943 79.2582 70.3943 79.2724 70.3943 79.2866 70.3943 79.3009 70.3943 79.3151 70.3943 79.3435 70.3943 79.372 70.3943 79.4004 70.3943 79.4147 70.3943 79.4289 70.3943 79.4431 70.3943 79.4573 70.3943 79.4715 70.3943 79.4858 70.3943 79.5 70.3943 79.5285 70.3943 79.5569 70.3943 79.5853 70.3943 79.6138 70.3943 79.628 70.3943 79.6423 70.3943 79.6565 70.3943 79.6707 70.3943 79.6849 70.3943 79.6991 70.3943 79.7134 70.3943 79.7418 70.3943 79.7703 70.3943 79.7987 70.3943 79.8129 70.3943 79.8272 70.3943 79.8414 70.3943 79.8556 70.3943 79.8699 70.3943 79.8841 70.3943 79.9267 70.3943C80.4246 70.3235 80.8656 70.0825 81.207 69.7566 81.2781 69.6858 81.3491 69.6008 81.4203 69.5158 81.4914 69.6292 81.5199 69.7566 81.5199 69.8842 81.5199 70.1676 81.3349 70.4368 81.0362 70.6352 80.6664 70.8902 80.1543 71.0461 79.5853 71.0461 79.0021 71.0461 78.4901 70.8902 78.1344 70.6352 77.8357 70.4226 77.6509 70.1534 77.6509 69.8842 77.6082 69.7566 77.6366 69.6292 77.7077 69.5158ZM78.6608 77.3515 78.6608 77.479 77.2952 77.479 77.2952 78.981 78.675 78.981 78.675 79.732 80.4815 79.732 80.4815 78.981 81.847 78.981 81.847 77.479 80.4815 77.479 80.4815 76.5581 81.6052 76.5581 81.6052 75.0986 80.4815 75.0986 80.4815 72.4913C80.9935 72.3781 81.4772 72.1938 81.9039 71.8963 82.5724 71.4287 83.0419 70.7202 83.0419 69.8842 83.0419 69.4166 82.8996 68.9774 82.6294 68.5948 82.4871 68.3822 82.3022 68.198 82.103 68.0279 82.0746 67.3904 81.8186 66.7811 81.3491 66.3276 80.8656 65.8459 80.2254 65.5767 79.5427 65.5767 78.8599 65.5767 78.2198 65.8459 77.7362 66.3276 77.281 66.7811 77.0108 67.3904 76.9823 68.0279 76.7832 68.198 76.6124 68.3822 76.456 68.5948 76.2 68.9774 76.0435 69.4166 76.0435 69.8842 76.0435 70.7202 76.5129 71.4287 77.1814 71.8963 77.6082 72.1938 78.1202 72.4064 78.6466 72.5056L78.6466 75.0986 77.5939 75.0986 77.5939 76.5581 78.6466 76.5581 78.6608 77.3515ZM60.7096 55.2187 67.2528 55.2187 67.2528 58.3927 64.8205 58.3927 64.8205 56.9758C64.8205 56.4939 64.4506 56.1114 63.9954 56.1114 63.5402 56.1114 63.1705 56.4939 63.1705 56.9758L63.1705 58.3927 60.7096 58.3927 60.7096 55.2187ZM60.0411 51.1237 61.8617 51.1237 61.8617 53.2349 63.0709 53.2349 63.0709 51.1237 64.8916 51.1237 64.8916 53.2349 66.1006 53.2349 66.1006 51.1237 67.9214 51.1237 67.9214 53.7876 67.9214 54.5811 67.2386 54.5811 60.6811 54.5811 60.0411 54.5811 60.0411 53.7876 60.0411 51.1237ZM82.7858 37.6768C82.288 37.4076 81.7759 37.1951 81.2354 37.0676 80.6948 36.94 80.1543 36.8692 79.5996 36.8692 79.0733 36.8692 78.3905 36.8975 77.8785 37.0676 77.6793 37.1384 77.3663 37.2801 77.3663 37.5352 77.3663 37.8044 77.7219 37.9035 77.9211 37.9602 78.106 38.0028 78.2909 38.0311 78.4758 38.0452 78.6892 38.0736 78.9168 38.0877 79.1301 38.0877 79.372 38.1019 79.628 38.1019 79.8699 38.116 80.1401 38.1303 80.4246 38.1444 80.6948 38.1727 81.207 38.2153 81.719 38.2861 82.2168 38.4137 82.6009 38.4986 82.9849 38.6403 83.326 38.8387 83.6107 39.0088 83.8529 39.2355 84.0094 39.5331 84.1659 39.8306 84.2367 40.1706 84.2367 40.5107 84.2367 41.375 83.8238 42.0269 83.0846 42.4803 82.16 43.047 80.8656 43.1746 79.7987 43.1746 78.931 43.1746 78.0491 43.0754 77.2099 42.8487 76.3991 42.622 75.631 42.2535 74.934 41.7718L74.8344 41.701 75.9439 40.3407 76.0292 40.3832C76.6267 40.7375 77.2525 41.035 77.9068 41.2334 78.547 41.4176 79.2013 41.5026 79.8699 41.5026 80.3961 41.5026 81.0647 41.4601 81.5483 41.2334 81.8186 41.1058 82.0889 40.9075 82.0889 40.5958 82.0889 40.4824 82.0604 40.3832 81.9608 40.3123 81.8328 40.2132 81.6621 40.1565 81.5057 40.1282 81.2496 40.0715 80.9794 40.0573 80.7233 40.0431 80.3677 40.029 80.012 40.0007 79.6565 39.9864 79.0306 39.9581 78.3763 39.9156 77.7504 39.8023 77.281 39.7172 76.7973 39.6039 76.3848 39.3913 76.0577 39.2355 75.7448 39.0088 75.5456 38.697 75.3465 38.3995 75.2611 38.0594 75.2611 37.691 75.2611 36.8833 75.6737 36.2882 76.3706 35.8773 77.2525 35.3389 78.4901 35.2255 79.5 35.2255 81.022 35.2255 82.6152 35.4806 83.9095 36.3165L84.0094 36.3874 82.8428 37.7335 82.7858 37.6768ZM65.8019 19.058C74.5215 22.1753 84.1943 22.1753 92.9134 19.058 92.3732 18.8738 91.8471 18.6897 91.306 18.5196 87.3093 19.6248 83.3118 20.2057 79.3293 20.22 75.3323 20.2341 71.3495 19.6673 67.3809 18.5337 66.8545 18.6897 66.3282 18.8596 65.8019 19.058ZM94.3927 15.7707C94.5068 15.8132 95.047 16.0682 95.1752 16.1108 94.9047 17.0034 94.2795 18.137 93.9948 18.5479 93.5395 18.3638 93.7526 18.4487 93.298 18.2787 84.2225 14.9488 74.5215 14.9488 65.4463 18.2787 64.9911 18.4487 65.2045 18.3638 64.7493 18.5479 64.4506 18.137 63.8248 17.0034 63.5687 16.1108 63.6825 16.0682 64.223 15.8132 64.3511 15.7707 73.9099 11.9166 84.8053 11.9166 94.3927 15.7707ZM64.8489 16.5501 65.0765 17.1877C69.799 15.5298 74.5499 14.7222 79.3151 14.7222 84.0802 14.7363 88.8735 15.5723 93.6818 17.1877L93.8949 16.5501C89.0159 14.9064 84.1659 14.0703 79.3151 14.0562 74.4788 14.042 69.6567 14.8497 64.8489 16.5501ZM60.2544 7.18396C60.6527 7.18396 60.9941 7.50986 60.9941 7.92077 60.9941 8.31752 60.6669 8.65759 60.2544 8.65759 59.8562 8.65759 59.5148 8.33168 59.5148 7.92077 59.529 7.50986 59.8562 7.18396 60.2544 7.18396ZM69.2158 4.06666C69.6852 4.06666 70.0692 4.44924 70.0692 4.91683 70.0692 5.38442 69.6852 5.767 69.2158 5.767 68.7464 5.767 68.3623 5.38442 68.3623 4.91683 68.3766 4.44924 68.7464 4.06666 69.2158 4.06666ZM79.372 0.736816C79.8556 0.736816 80.2396 1.11939 80.2396 1.60116 80.2396 2.06876 79.8556 2.4655 79.372 2.4655 78.8884 2.4655 78.5043 2.08293 78.5043 1.60116 78.5043 1.13356 78.8884 0.736816 79.372 0.736816ZM89.557 4.06666C89.0874 4.06666 88.7029 4.44924 88.7029 4.91683 88.7029 5.38442 89.0874 5.767 89.557 5.767 90.0256 5.767 90.4102 5.38442 90.4102 4.91683 90.4102 4.44924 90.0256 4.06666 89.557 4.06666ZM98.5184 7.18396C98.1197 7.18396 97.7783 7.50986 97.7783 7.92077 97.7783 8.31752 98.1055 8.65759 98.5184 8.65759 98.9163 8.65759 99.2576 8.33168 99.2576 7.92077 99.2576 7.50986 98.9305 7.18396 98.5184 7.18396ZM94.948 14.6513 96.2849 11.0381C94.9621 12.0016 93.5678 12.9226 92.0177 13.7303 92.3166 13.8153 92.6287 13.9145 92.9276 13.9995 93.6394 13.6027 94.3503 13.1777 94.9904 12.6393L94.3078 14.4388 94.948 14.6513ZM89.2864 12.9793C89.7135 13.0927 90.1538 13.206 90.5809 13.3194 89.6843 11.7041 89.0159 9.69201 88.5322 7.87827 87.5083 9.22441 86.0998 10.6555 84.5073 12.0016 84.9476 12.0724 85.3747 12.1433 85.8159 12.2141 86.7541 11.5624 87.5649 10.7122 88.1343 9.84784 88.3191 10.868 88.8169 12.115 89.2864 12.9793ZM76.0435 11.7891C77.3663 10.0462 78.5185 7.9066 79.3293 5.95121 80.2396 7.73657 81.3349 10.0178 82.8996 11.8174 82.3733 11.7608 81.8328 11.7182 81.3065 11.6899 80.4672 10.6413 79.7987 9.15349 79.3862 8.06247 78.988 9.32356 78.2482 10.6838 77.5513 11.6757 77.0534 11.7041 76.5414 11.7324 76.0435 11.7891ZM69.4149 12.9652C69.8559 12.115 70.4106 10.8822 70.624 9.862 71.193 10.7122 72.2171 11.5198 73.1133 12.1858 73.5258 12.115 73.9382 12.0583 74.3366 11.9874 72.6154 10.6555 71.1361 9.25272 70.1688 7.89244 69.6994 9.70616 69.0167 11.6899 68.1347 13.3052 68.5615 13.1918 68.9882 13.0785 69.4149 12.9652ZM63.711 14.6796C63.9386 14.5946 64.1804 14.5238 64.4079 14.4388 64.1662 13.8437 63.8959 13.2627 63.6683 12.6676 64.3083 13.206 65.0623 13.6027 65.7735 13.9995 66.1433 13.8861 66.5131 13.7728 66.8972 13.6594 65.3468 12.8518 63.5972 12.0016 62.2743 11.0381 62.7295 12.2567 63.2415 13.4611 63.711 14.6796ZM101.847 29.8128 56.7979 29.8128 56.8264 74.135C56.8264 74.886 56.9686 75.5378 57.3669 76.1755 58.9031 78.6977 63.8532 80.7239 66.4847 81.7583 70.4106 83.3027 75.4034 84.8186 79.4004 87.3126 83.3976 84.8327 88.3899 83.3168 92.3166 81.7725 95.3034 80.5964 101.989 78.2017 101.975 74.1634L101.847 29.8128ZM104.549 52.3565C104.207 52.3565 103.938 52.6257 103.938 52.9657 103.938 53.2916 104.193 53.5467 104.506 53.575 104.52 53.575 104.535 53.575 104.549 53.575 104.891 53.575 105.161 53.3058 105.161 52.9657 105.161 52.6257 104.891 52.3565 104.549 52.3565ZM54.1522 52.3565C53.8108 52.3565 53.5405 52.6257 53.5405 52.9657 53.5405 53.3058 53.8108 53.575 54.1522 53.575 54.4935 53.575 54.7638 53.3058 54.7638 52.9657 54.7638 52.6257 54.4793 52.3565 54.1522 52.3565ZM100.267 26.4262C99.9261 26.4262 99.6555 26.6954 99.6555 27.0355 99.6555 27.3756 99.9261 27.6448 100.267 27.6448 100.609 27.6448 100.879 27.3756 100.879 27.0355 100.879 26.6954 100.609 26.4262 100.267 26.4262ZM57.7794 26.4262C57.438 26.4262 57.1677 26.6954 57.1677 27.0355 57.1677 27.3756 57.438 27.6448 57.7794 27.6448 58.1207 27.6448 58.391 27.3756 58.391 27.0355 58.391 26.6954 58.1207 26.4262 57.7794 26.4262ZM63.8532 26.4262C63.5118 26.4262 63.2415 26.6954 63.2415 27.0355 63.2415 27.3756 63.5118 27.6448 63.8532 27.6448 64.1945 27.6448 64.4649 27.3756 64.4649 27.0355 64.4649 26.6954 64.1945 26.4262 63.8532 26.4262ZM69.927 26.4262C69.5856 26.4262 69.3153 26.6954 69.3153 27.0355 69.3153 27.3756 69.5856 27.6448 69.927 27.6448 70.2683 27.6448 70.5386 27.3756 70.5386 27.0355 70.5386 26.6954 70.2542 26.4262 69.927 26.4262ZM75.9866 26.4262C75.6452 26.4262 75.3749 26.6954 75.3749 27.0355 75.3749 27.3756 75.6452 27.6448 75.9866 27.6448 76.328 27.6448 76.5982 27.3756 76.5982 27.0355 76.5982 26.6954 76.328 26.4262 75.9866 26.4262ZM82.0604 26.4262C81.719 26.4262 81.4487 26.6954 81.4487 27.0355 81.4487 27.3756 81.719 27.6448 82.0604 27.6448 82.4018 27.6448 82.672 27.3756 82.672 27.0355 82.672 26.6954 82.4018 26.4262 82.0604 26.4262ZM88.1343 26.4262C87.793 26.4262 87.5224 26.6954 87.5224 27.0355 87.5224 27.3756 87.793 27.6448 88.1343 27.6448 88.4756 27.6448 88.7461 27.3756 88.7461 27.0355 88.7461 26.6954 88.4756 26.4262 88.1343 26.4262ZM94.2079 26.4262C93.8666 26.4262 93.5961 26.6954 93.5961 27.0355 93.5961 27.3756 93.8666 27.6448 94.2079 27.6448 94.5492 27.6448 94.8198 27.3756 94.8198 27.0355 94.8198 26.6954 94.5351 26.4262 94.2079 26.4262ZM105.73 25.3635 102.274 28.7925 56.4992 28.7925 53.0427 25.3635 105.73 25.3635ZM74.2939 87.0721C74.6353 87.0721 74.9056 87.341 74.9056 87.6814 74.9056 88.0211 74.6353 88.2908 74.2939 88.2908 73.9525 88.2908 73.6823 88.0211 73.6823 87.6814 73.6823 87.3551 73.9667 87.0721 74.2939 87.0721ZM68.1774 84.6912C68.5188 84.6912 68.7891 84.9609 68.7891 85.3006 68.7891 85.6411 68.5188 85.91 68.1774 85.91 67.836 85.91 67.5658 85.6411 67.5658 85.3006 67.5515 84.9751 67.836 84.6912 68.1774 84.6912ZM62.6868 82.3676C63.0282 82.3676 63.2985 82.6368 63.2985 82.9769 63.2985 83.3168 63.0282 83.5865 62.6868 83.5865 62.3454 83.5865 62.0752 83.3168 62.0752 82.9769 62.0752 82.6368 62.3454 82.3676 62.6868 82.3676ZM57.7225 79.6896C58.0639 79.6896 58.3341 79.9588 58.3341 80.2988 58.3341 80.6389 58.0639 80.9081 57.7225 80.9081 57.3811 80.9081 57.1108 80.6389 57.1108 80.2988 57.1108 79.9729 57.3811 79.6896 57.7225 79.6896ZM54.1664 75.3961C53.825 75.3961 53.5548 75.6654 53.5548 76.0054 53.5548 76.3455 53.825 76.6147 54.1664 76.6147 54.5078 76.6147 54.7781 76.3455 54.7781 76.0054 54.7781 75.6654 54.5078 75.3961 54.1664 75.3961ZM54.1664 69.7C53.825 69.7 53.5548 69.9692 53.5548 70.3093 53.5548 70.6494 53.825 70.9186 54.1664 70.9186 54.5078 70.9186 54.7781 70.6494 54.7781 70.3093 54.7781 69.9692 54.5078 69.7 54.1664 69.7ZM54.1664 46.9437C53.825 46.9437 53.5548 47.2129 53.5548 47.553 53.5548 47.893 53.825 48.1623 54.1664 48.1623 54.5078 48.1623 54.7781 47.893 54.7781 47.553 54.7781 47.2129 54.5078 46.9437 54.1664 46.9437ZM54.1664 41.2475C53.825 41.2475 53.5548 41.5167 53.5548 41.8569 53.5548 42.1969 53.825 42.4662 54.1664 42.4662 54.5078 42.4662 54.7781 42.1969 54.7781 41.8569 54.7781 41.5167 54.5078 41.2475 54.1664 41.2475ZM54.1664 35.5656C53.825 35.5656 53.5548 35.8348 53.5548 36.1748 53.5548 36.5149 53.825 36.7841 54.1664 36.7841 54.5078 36.7841 54.7781 36.5149 54.7781 36.1748 54.7781 35.8348 54.5078 35.5656 54.1664 35.5656ZM54.1664 29.8694C53.825 29.8694 53.5548 30.1387 53.5548 30.4787 53.5548 30.8188 53.825 31.088 54.1664 31.088 54.5078 31.088 54.7781 30.8188 54.7781 30.4787 54.7781 30.1387 54.5078 29.8694 54.1664 29.8694ZM84.3932 87.0721C84.7345 87.0721 85.0051 87.341 85.0051 87.6814 85.0051 88.0211 84.7345 88.2908 84.3932 88.2908 84.0519 88.2908 83.7813 88.0211 83.7813 87.6814 83.7813 87.3551 84.0519 87.0721 84.3932 87.0721ZM90.5243 84.6912C90.8656 84.6912 91.1353 84.9609 91.1353 85.3006 91.1353 85.6411 90.8656 85.91 90.5243 85.91 90.1821 85.91 89.9124 85.6411 89.9124 85.3006 89.9124 84.9751 90.1821 84.6912 90.5243 84.6912ZM96.0144 82.3676C96.3557 82.3676 96.6262 82.6368 96.6262 82.9769 96.6262 83.3168 96.3557 83.5865 96.0144 83.5865 95.673 83.5865 95.4025 83.3168 95.4025 82.9769 95.4025 82.6368 95.673 82.3676 96.0144 82.3676ZM100.964 79.6896C101.306 79.6896 101.576 79.9588 101.576 80.2988 101.576 80.6389 101.306 80.9081 100.964 80.9081 100.623 80.9081 100.353 80.6389 100.353 80.2988 100.353 79.9729 100.637 79.6896 100.964 79.6896ZM104.535 75.3961C104.876 75.3961 105.146 75.6654 105.146 76.0054 105.146 76.3455 104.876 76.6147 104.535 76.6147 104.193 76.6147 103.924 76.3455 103.924 76.0054 103.924 75.6654 104.193 75.3961 104.535 75.3961ZM104.535 69.7C104.876 69.7 105.146 69.9692 105.146 70.3093 105.146 70.6494 104.876 70.9186 104.535 70.9186 104.193 70.9186 103.924 70.6494 103.924 70.3093 103.924 69.9692 104.193 69.7 104.535 69.7ZM104.535 46.9437C104.876 46.9437 105.146 47.2129 105.146 47.553 105.146 47.893 104.876 48.1623 104.535 48.1623 104.193 48.1623 103.924 47.893 103.924 47.553 103.924 47.2129 104.193 46.9437 104.535 46.9437ZM104.535 41.2475C104.876 41.2475 105.146 41.5167 105.146 41.8569 105.146 42.1969 104.876 42.4662 104.535 42.4662 104.193 42.4662 103.924 42.1969 103.924 41.8569 103.924 41.5167 104.193 41.2475 104.535 41.2475ZM104.535 35.5656C104.876 35.5656 105.146 35.8348 105.146 36.1748 105.146 36.5149 104.876 36.7841 104.535 36.7841 104.193 36.7841 103.924 36.5149 103.924 36.1748 103.924 35.8348 104.193 35.5656 104.535 35.5656ZM104.535 29.8694C104.876 29.8694 105.146 30.1387 105.146 30.4787 105.146 30.8188 104.876 31.088 104.535 31.088 104.193 31.088 103.924 30.8188 103.924 30.4787 103.924 30.1387 104.193 29.8694 104.535 29.8694ZM79.8556 92.3008 79.8556 88.0918C80.8229 87.4966 81.847 86.973 82.8711 86.491 86.0714 85.0034 89.4005 83.8979 92.672 82.6084 95.5881 81.4607 100.595 79.4061 102.288 76.6289 102.771 75.8354 102.956 75.0278 102.956 74.1067L102.828 29.4443 106.256 26.0436 106.341 57.4291C106.114 57.4008 105.887 57.3724 105.644 57.33 104.421 57.1458 103.625 57.5142 103.952 59.0445 103.411 60.0647 103.567 60.9574 104.392 61.7509 103.681 62.4594 103.795 63.352 104.378 64.0321 104.108 64.103 103.909 64.3439 103.909 64.6273 103.909 64.9673 104.179 65.2366 104.52 65.2366 104.862 65.2366 105.132 64.9673 105.132 64.6273 105.345 64.7406 105.574 64.8256 105.815 64.8965 106 64.939 106.185 64.9673 106.356 64.9816L106.384 74.0925C106.384 75.637 106.029 77.0681 105.232 78.4001 103.027 82.0417 97.75 84.295 93.9374 85.7967 90.7515 87.0579 87.4375 88.1484 84.3366 89.5944 82.8143 90.3028 81.1927 91.1669 79.8556 92.3008ZM52.3883 25.9869C52.3883 33.3126 52.3883 39.788 52.4026 46.0935L52.4026 49.0408 52.4168 57.4434C52.7297 57.4008 53.0427 57.3583 53.3556 57.3158 54.5789 57.1316 55.3755 57.5 55.0483 59.0303 55.5888 60.0506 55.4324 60.9432 54.6073 61.7367 55.347 62.4735 55.1906 63.4371 54.5363 64.1172 54.6927 64.2305 54.7781 64.4006 54.7781 64.6131 54.7781 64.9532 54.5078 65.2224 54.1664 65.2224 53.8819 65.2224 53.6401 65.024 53.569 64.7548 53.441 64.8115 53.313 64.854 53.1849 64.8823 52.9146 64.9532 52.6586 64.9816 52.4168 64.9673L52.4168 74.05C52.4168 75.6087 52.7724 77.0257 53.5832 78.3576 55.8022 82.0133 61.0368 84.2525 64.8773 85.7543 68.0636 87.0155 71.3921 88.1201 74.4788 89.5803 76.015 90.2887 77.6366 91.1669 78.9737 92.3008L78.9737 88.0918C77.9922 87.4825 76.9823 86.9588 75.9439 86.4769 72.7577 84.9893 69.4007 83.8837 66.1149 82.5801 63.2131 81.4465 58.2345 79.3778 56.5419 76.6147 56.0582 75.807 55.8591 74.9994 55.8591 74.05L55.8306 29.3876 52.3883 25.9869ZM116.569 41.6018C116.611 40.8933 116.839 40.369 117.166 40.3407 118.134 39.9581 118.716 39.7172 119.741 38.7963 119.599 38.3144 120.125 38.0311 121.235 38.0594 123.055 38.116 124.876 38.2577 126.455 39.0088 126.939 38.7396 127.436 38.5412 127.92 38.3853 128.517 38.3711 128.773 39.4905 128.432 40.2699 128.047 40.369 127.564 40.4399 127.095 40.4966 127.123 40.2556 127.095 40.029 127.038 39.788 127.294 39.5188 127.664 39.3205 128.033 39.1505 127.507 39.1221 127.024 39.2638 126.582 39.4764 126.881 41.1909 125.374 42.707 123.866 43.2454 123.994 43.7556 124.079 44.2657 124.151 44.7757 123.681 44.4215 123.154 44.0815 122.443 43.8405 122.6 44.8324 121.675 45.4276 119.712 45.6543 118.745 45.7535 118.475 45.9377 117.807 46.2069 117.209 46.2494 116.882 46.0935 116.583 45.8951 116.484 45.6685 116.469 45.4559 116.498 45.2292 116.54 44.8466 117.408 45.1016 118.461 45.4984 118.774 45.4559 119.257 45.2859 119.399 45.1158 117.863 44.5065 116.938 44.3081 115.531 44.2514 115.531 43.8831 115.63 42.9054 115.8 42.4095 115.886 42.1827 116.498 42.1827 116.569 41.6018ZM119.769 40.5815C119.798 40.7091 120.253 40.6524 120.324 40.5532 120.665 40.0856 121.121 39.7739 121.775 39.6889 121.875 39.6747 121.931 39.4338 121.775 39.3347 121.205 39.3913 120.637 39.4622 120.111 39.6039 119.94 39.6464 119.798 39.7597 119.784 39.9581 119.741 40.1706 119.755 40.4116 119.769 40.5815ZM119.428 45.1725C120.679 45.4701 121.405 43.5855 120.139 43.3588 120.424 43.9256 120.21 44.7333 119.428 45.1725ZM121.205 43.9256C121.86 43.7556 121.889 42.4519 121.903 42.4236 121.889 42.3245 121.476 42.1119 121.391 42.1969 121.405 42.7211 121.334 43.3871 121.205 43.9256ZM122.756 37.5776C122.742 36.3165 123.908 35.6222 126.327 35.523 124.89 36.019 124.093 36.8408 124.193 37.7618 123.824 37.6202 123.354 37.5493 122.756 37.5776ZM125.957 38.3711C127.024 36.2457 129.982 36.7274 130.893 35.4522 129.058 36.3732 126.768 35.1971 124.918 37.8185 125.26 37.9461 125.615 38.1303 125.957 38.3711ZM128.83 38.3995C129.996 37.5493 130.85 37.1384 133.41 36.8975 132.543 35.8773 130.167 36.2741 127.294 37.8468 128.204 37.6768 128.745 37.8468 128.83 38.3995ZM135.758 39.7597C133.453 39.0371 131.305 39.0655 128.986 39.944 129.058 39.6464 129.029 39.2072 128.986 38.9379 132.23 36.7274 134.307 37.5352 135.758 39.7597ZM133.595 40.2273C136.696 41.7293 140.892 45.5268 139.826 49.0408 139.371 45.8668 135.174 41.0208 133.595 40.2273ZM136.611 55.8988C137.607 47.8647 134.335 40.1565 128.83 41.2475 135.416 36.7558 142.116 52.7391 136.611 55.8988ZM124.705 43.8689C126.739 47.7939 126.626 51.0671 122.486 54.7228 128.603 52.569 128.872 47.2555 125.587 43.8689 126.739 43.1604 127.451 42.2252 127.92 41.1058 127.607 41.0491 127.436 40.95 127.123 40.9075 126.995 41.5167 126.327 43.0329 124.705 43.8689ZM117.195 53.1358C123.794 55.3462 127.095 49.055 123.325 44.9883 122.671 45.5834 122.016 45.9235 121.305 46.051 125.701 49.0408 123.055 53.9435 117.195 53.1358ZM130.893 59.0161C134.321 53.5184 133.751 45.8951 128.36 43.0329 128.019 43.3305 127.593 43.5997 127.066 43.8264 131.661 46.4336 132.358 51.8322 130.893 59.0161ZM133.51 59.2712C136.824 55.4029 137.209 46.7169 131.063 41.9986 130.309 42.0127 129.57 42.0127 128.816 42.0269 133.609 45.881 134.406 49.6643 133.51 59.2712ZM118.845 58.0527C118.105 59.1154 118.403 60.0222 118.802 60.4473 118.816 59.5404 119.57 58.5911 121.562 57.3867 124.591 55.5729 127.863 55.7004 129.655 53.1074 130.978 51.2087 130.338 48.4173 128.091 45.1583 129.285 47.1562 129.442 50.146 128.091 51.8463 125.886 54.6377 120.58 55.5446 118.845 58.0527ZM119.086 54.3827C120.609 54.3827 121.533 54.0851 122.642 53.49 121.419 54.7511 119.399 55.8138 118.617 56.9191 117.465 58.5485 117.522 59.6397 116.669 61.014 116.484 58.9594 115.928 56.9332 119.086 54.3827ZM117.564 54.9495C116.982 55.5021 116.554 56.083 116.27 56.6923 115.417 56.1539 114.848 55.4596 114.463 54.6377 115.402 54.9636 116.398 55.1479 117.564 54.9495ZM119.143 61.3683C119.812 58.8178 122.728 57.0608 127.237 55.743 127.294 57.6134 126.313 59.4413 124.122 61.1841 124.876 61.2408 125.63 61.2974 126.383 61.3683 124.023 63.0261 121.548 64.4714 118.83 65.4916 119.471 64.9249 119.784 64.3156 120.182 63.5929 120.324 63.3379 120.153 63.2953 119.983 63.4937 118.631 65.1091 117.295 66.101 115.587 65.3499 115.986 64.9816 116.199 64.5281 116.142 64.1597 114.89 64.8965 114.008 64.9957 112.87 64.6415 113.141 64.4006 113.255 64.3014 113.183 64.0321 110.381 64.514 110.395 63.5645 108.788 63.4512 108.944 62.8844 114.022 64.2872 117.365 63.5929 117.337 63.8055 117.351 63.9755 117.408 64.1314 118.93 63.4795 120.068 62.4027 121.49 61.595 120.537 61.7084 118.987 62.7427 117.934 62.9694 117.777 62.7853 117.578 62.6152 117.309 62.431 117.237 62.5727 117.195 62.7286 117.181 62.8703 115.445 62.9836 109.044 62.1051 108.333 62.2893 108.119 62.346 108.02 62.7427 107.949 62.9128 107.252 64.7123 104.094 63.6355 104.933 62.5161 105.218 62.1618 106.37 62.261 107.067 62.2893 107.195 62.1618 107.223 62.0059 106.939 61.8925 105.943 61.6942 104.137 61.3258 104.421 59.8946 104.649 58.7895 106.825 59.4413 107.166 60.9149 107.465 60.2914 109.101 60.9716 111.163 61.2408 112.828 61.4675 114.819 61.2833 116.284 61.0424 116.44 61.5525 116.611 61.8642 116.725 62.1476 117.152 61.6376 117.536 61.0424 117.891 60.3198 118.12 60.8157 118.574 61.2408 119.143 61.3683ZM126.383 60.0647C128.83 58.8319 130.238 56.664 130.694 53.6601 130.167 54.496 129.584 55.077 128.887 55.6013 128.147 56.1397 127.891 56.6782 127.749 57.2875 127.521 58.2935 127.038 59.2004 126.383 60.0647ZM146.795 73.044C143.51 75.3253 138.716 76.2038 136.056 75.9346 136.141 76.5722 136.141 76.4305 136.042 77.0114 144.975 76.0054 149.996 73.0299 150.053 70.1251 150.081 68.7223 149.555 66.5686 147.649 65.9025 149.47 67.6454 150.408 70.5218 146.795 73.044ZM149.171 59.3846C146.496 59.1437 148.132 56.4798 146.994 55.4171 146.526 54.992 146.781 54.5811 147.279 54.3544 147.763 54.1418 148.744 54.0851 149.398 54.3827 148.943 54.5103 148.986 54.8503 149.114 54.9636 150.337 56.0689 149.527 58.2793 150.195 59.0728 149.228 59.0303 149.214 57.5142 149.029 56.4373 148.886 55.6013 148.489 55.3745 147.791 55.4596 149.37 56.2814 147.947 58.081 149.171 59.3846ZM125.032 65.3358C125.089 64.5423 124.663 64.3864 124.008 64.5423 122.6 64.8682 121.291 65.6475 120.537 66.3559 119.57 67.2628 119.897 68.1272 120.58 67.9571 121.263 67.7871 123.396 67.0361 123.354 66.1576 123.724 66.5827 123.724 67.1211 122.785 67.773 121.946 68.3539 121.149 68.7648 120.665 69.2466 119.997 69.8984 119.983 70.2668 120.068 70.6635 120.253 71.5137 120.964 71.5704 121.562 71.457 122.315 71.3295 122.913 70.9894 123.453 70.5077 123.824 70.1818 124.037 69.8275 123.994 69.3599 124.619 69.7425 124.378 70.5501 123.78 71.032 123.198 71.4995 122.628 71.9246 122.06 72.3922 121.803 72.7323 121.817 73.2565 122.102 73.6674 122.401 74.0926 122.614 74.1209 123.24 74.1634 123.624 74.1917 123.965 74.2626 124.306 74.291 124.591 74.3193 124.605 74.5035 124.364 74.6168 123.866 74.8436 123.724 75.2403 123.652 75.6795 123.539 76.4163 124.037 77.635 123.965 78.5418 123.652 82.8919 123.794 84.7903 126 89.3106 126.554 90.4585 128.005 90.4302 129.428 89.4379 131.163 88.2333 131.718 86.3212 131.078 83.997 130.722 82.6793 131.163 81.7299 131.917 80.894 133.709 78.9385 134.747 77.0257 133.965 74.9994 133.339 73.4124 132.386 73.4408 131.391 73.7524 130.281 74.7586 130.025 76.3739 130.124 77.975 129.043 75.6512 129.243 73.9084 131.148 72.2221 131.461 71.4145 130.253 70.4651 129.669 71.202 129.185 71.8112 128.332 72.3072 127.664 72.2788 128.531 71.3436 129.371 69.8984 129.086 69.1757 128.418 67.5037 128.147 65.7467 129.171 63.6779 129.727 62.7711 128.986 62.4877 127.706 62.8844 126.383 63.3096 125.459 64.1597 125.032 65.3358ZM125.018 83.2602C124.563 82.1125 124.748 81.4748 124.961 80.8656 125.374 79.6612 126.056 78.5135 126.213 77.1248 127.252 79.1086 125.729 81.4324 125.018 83.2602ZM131.291 89.1124C131.618 90.2462 131.376 91.266 130.395 91.7197 130.21 91.7197 128.958 90.9547 129.527 90.7416 130.338 90.3878 130.835 89.7642 131.291 89.1124ZM132.159 90.983C132.884 92.4706 131.348 97.2173 130.181 98.1663 130.054 98.3228 129.954 98.5492 130.11 98.6341 131.148 99.1444 132.671 98.3652 133.126 96.9625 133.41 96.0835 133.155 95.0495 133.354 94.1422 133.468 93.6327 134.093 93.2922 134.15 92.7678 134.179 92.5413 134.122 92.3857 133.936 92.3432 133.268 92.2292 133.197 91.082 132.543 90.7982 132.386 90.6283 132.087 90.6991 132.159 90.983ZM126.483 100.561C126.839 100.25 127.635 99.4982 127.308 99.0029 127.066 98.6341 126.512 98.6624 126.241 98.8464 125.687 99.2152 125.374 99.7538 125.416 100.377 125.43 100.703 126.085 100.83 126.483 100.561ZM128.93 100.561C127.208 101.128 127.152 98.6483 128.93 98.62 129.57 98.6341 129.954 99.2859 129.727 100.009 129.598 100.406 129.243 100.462 128.93 100.561ZM131.148 99.3708C131.476 99.1161 131.803 99.1869 132.045 99.4699 132.244 99.7113 132.358 99.9802 132.372 100.25 132.386 100.533 132.272 100.674 132.102 100.717 131.632 100.816 131.206 100.83 130.864 100.703 130.622 100.604 130.566 100.377 130.608 100.192 130.694 99.867 130.864 99.584 131.148 99.3708ZM115.758 86.9164C115.516 86.7033 115.516 86.4202 115.786 86.4061 115.986 86.3919 117.095 87.5391 119.513 87.2702 119.613 87.256 119.698 87.3551 119.726 87.5532 119.798 88.0635 120.125 88.205 120.737 88.6729 121.05 88.9143 120.907 89.2398 120.097 89.6935 119.968 89.8492 120.025 90.0897 120.452 89.9199 120.651 89.8492 120.793 89.7784 120.964 89.7076 121.121 89.6935 121.305 89.8067 121.191 89.9765 120.523 91.0679 119.726 92.3715 119.3 93.5469 119.058 94.0431 118.688 94.3553 118.048 94.5251 117.849 94.5817 117.65 94.61 117.465 94.3977 117.095 93.9582 116.54 94.0006 115.957 94.1139 115.829 94.1705 115.715 93.7884 115.957 93.6751 117.422 93.0092 118.447 91.6631 119.2 89.9341 119.3 89.7218 119.272 89.5087 119.115 89.4238 118.304 88.9568 116.455 87.5108 115.758 86.9164ZM112.785 95.8429C112.729 95.6023 113.425 94.3553 114.208 94.3553 114.89 94.3553 113.937 95.8995 113.909 95.9136 113.468 96.2541 112.842 96.0693 112.785 95.8429ZM116.782 96.1967C117.422 96.24 117.835 96.041 117.636 95.6023 117.309 94.8789 116.825 94.6383 116.384 94.6383 114.919 94.6525 114.136 96.2824 115.218 96.2108 115.758 96.2108 116.27 96.1967 116.782 96.1967ZM110.722 95.4599C110.68 95.276 111.32 94.2845 112.045 94.2845 112.685 94.2845 111.789 95.5024 111.761 95.5165 111.362 95.7863 110.766 95.6447 110.722 95.4599ZM42.4313 41.6018C42.3887 40.8933 42.1611 40.369 41.8339 40.3407 40.8666 39.9581 40.2834 39.7172 39.2593 38.7963 39.4015 38.3144 38.8752 38.0311 37.7657 38.0594 35.945 38.116 34.1242 38.2577 32.5454 39.0088 32.0617 38.7396 31.5639 38.5412 31.0803 38.3853 30.4828 38.3711 30.2268 39.4905 30.5682 40.2699 30.9522 40.369 31.4359 40.4399 31.9052 40.4966 31.8768 40.2556 31.9052 40.029 31.9622 39.788 31.7061 39.5188 31.3363 39.3205 30.9665 39.1505 31.4927 39.1221 31.9764 39.2638 32.4174 39.4764 32.1187 41.1909 33.6264 42.707 35.1342 43.2454 35.0061 43.7556 34.9208 44.2657 34.8497 44.7757 35.3191 44.4215 35.8454 44.0815 36.5566 43.8405 36.4002 44.8324 37.3247 45.4276 39.2877 45.6543 40.255 45.7535 40.5253 45.9377 41.1937 46.2069 41.777 46.2494 42.1184 46.0935 42.417 45.8951 42.5166 45.6685 42.5308 45.4559 42.5024 45.2292 42.4597 44.8466 41.5921 45.1016 40.5394 45.4984 40.2265 45.4559 39.7429 45.2859 39.6007 45.1158 41.1369 44.5065 42.0615 44.3081 43.4697 44.2514 43.4697 43.8831 43.3701 42.9054 43.1994 42.4095 43.1283 42.1827 42.5024 42.1827 42.4313 41.6018ZM39.2308 40.5815C39.2023 40.7091 38.7472 40.6524 38.676 40.5532 38.3347 40.0856 37.8795 39.7739 37.2251 39.6889 37.1256 39.6747 37.0687 39.4338 37.2251 39.3347 37.7941 39.3913 38.3631 39.4622 38.8894 39.6039 39.0601 39.6464 39.2023 39.7597 39.2166 39.9581 39.2593 40.1706 39.2593 40.4116 39.2308 40.5815ZM39.5864 45.1725C38.3347 45.4701 37.6092 43.5855 38.8752 43.3588 38.5765 43.9256 38.8041 44.7333 39.5864 45.1725ZM37.8084 43.9256C37.1541 43.7556 37.1256 42.4519 37.1114 42.4236 37.1256 42.3245 37.5382 42.1119 37.6235 42.1969 37.595 42.7211 37.6803 43.3871 37.8084 43.9256ZM36.2579 37.5776C36.2721 36.3165 35.1057 35.6222 32.6876 35.523 34.1242 36.019 34.9208 36.8408 34.8213 37.7618 35.1911 37.6202 35.6605 37.5493 36.2579 37.5776ZM33.0432 38.3711C31.9764 36.2457 29.0177 36.7274 28.1074 35.4522 29.9423 36.3732 32.2325 35.1971 34.0816 37.8185 33.7402 37.9461 33.3988 38.1303 33.0432 38.3711ZM30.1841 38.3995C29.0177 37.5493 28.1642 37.1384 25.6038 36.8975 26.4716 35.8773 28.847 36.2741 31.7203 37.8468 30.7958 37.6768 30.2694 37.8468 30.1841 38.3995ZM23.2426 39.7597C25.547 39.0371 27.6949 39.0655 30.0135 39.944 29.9423 39.6464 29.9708 39.2072 30.0135 38.9379 26.7845 36.7274 24.6935 37.5352 23.2426 39.7597ZM25.4189 40.2273C22.318 41.7293 18.1218 45.5268 19.1886 49.0408 19.6296 45.8668 23.8259 41.0208 25.4189 40.2273ZM22.3891 55.8988C21.3935 47.8647 24.6651 40.1565 30.1699 41.2475 23.584 36.7558 16.8843 52.7391 22.3891 55.8988ZM34.295 43.8689C32.2609 47.7939 32.3746 51.0671 36.514 54.7228 30.3975 52.569 30.1273 47.2555 33.4131 43.8689 32.2609 43.1604 31.5497 42.2252 31.0803 41.1058 31.3932 41.0491 31.5639 40.95 31.8768 40.9075 32.019 41.5167 32.6876 43.0329 34.295 43.8689ZM41.8054 53.1358C35.2053 55.3462 31.9052 49.055 35.6747 44.9883 36.329 45.5834 36.9834 45.9235 37.6946 46.051 33.2993 49.0408 35.9592 53.9435 41.8054 53.1358ZM28.1216 59.0161C24.6935 53.5184 25.2625 45.8951 30.6535 43.0329 30.9949 43.3305 31.4216 43.5997 31.9479 43.8264 27.3393 46.4336 26.6422 51.8322 28.1216 59.0161ZM25.49 59.2712C22.1758 55.4029 21.7917 46.7169 27.9366 41.9986 28.6906 42.0127 29.4302 42.0127 30.1841 42.0269 25.3905 45.881 24.594 49.6643 25.49 59.2712ZM40.1696 58.0527C40.9093 59.1154 40.6106 60.0222 40.2123 60.4473 40.198 59.5404 39.4442 58.5911 37.4527 57.3867 34.423 55.5729 31.1513 55.7004 29.3591 53.1074 28.0362 51.2087 28.6764 48.4173 30.9238 45.1583 29.7289 47.1562 29.5725 50.146 30.9238 51.8463 33.1144 54.6377 38.4201 55.5446 40.1696 58.0527ZM39.9136 54.3827C38.3916 54.3827 37.467 54.0851 36.3575 53.49 37.5808 54.7511 39.6007 55.8138 40.383 56.9191 41.5351 58.5485 41.4783 59.6397 42.3317 61.014 42.5308 58.9594 43.0856 56.9332 39.9136 54.3827ZM41.4356 54.9495C42.0188 55.5021 42.4455 56.083 42.73 56.6923 43.5835 56.1539 44.1525 55.4596 44.5365 54.6377 43.612 54.9636 42.6162 55.1479 41.4356 54.9495ZM39.8567 61.3683C40.4256 61.2408 40.8808 60.8157 41.1369 60.3339 41.4925 61.0566 41.8765 61.6517 42.3032 62.1618 42.4313 61.8784 42.602 61.5666 42.7442 61.0566 44.2093 61.2974 46.2007 61.4816 47.865 61.255 49.9275 60.9716 51.5491 60.3056 51.8621 60.9291 52.2034 59.4696 54.3797 58.8036 54.6073 59.9089 54.8919 61.3258 53.0854 61.6942 52.0897 61.9068 51.8051 62.0201 51.8194 62.176 51.9616 62.3035 52.6586 62.2751 53.8108 62.176 54.0953 62.5302 54.9345 63.6496 51.7625 64.7265 51.0797 62.927 51.0086 62.7569 50.8948 62.346 50.6815 62.2893 49.956 62.1051 43.5692 62.9978 41.8339 62.8703 41.8197 62.7286 41.777 62.5727 41.7059 62.431 41.4356 62.6152 41.2364 62.7853 41.0799 62.9694 40.0274 62.7569 38.4769 61.7084 37.5239 61.595 38.9606 62.4027 40.0985 63.4795 41.6063 64.1314 41.6632 63.9755 41.6774 63.8055 41.6489 63.5929 44.9917 64.2872 50.0698 62.8844 50.2263 63.4512 48.6189 63.5788 48.6189 64.5281 45.8309 64.0321 45.7456 64.3014 45.8593 64.4006 46.1439 64.6415 45.0201 64.9957 44.124 64.8965 42.8722 64.1597 42.8154 64.5281 43.0287 64.9816 43.427 65.3499 41.7201 66.101 40.383 65.1091 39.0317 63.4937 38.861 63.2812 38.6903 63.3379 38.8325 63.5929 39.2308 64.3156 39.5437 64.9249 40.1839 65.4916 37.467 64.4714 34.992 63.0403 32.6307 61.3683 33.3846 61.3116 34.1385 61.255 34.8923 61.1841 32.7018 59.427 31.7203 57.6134 31.7773 55.743 36.2721 57.0608 39.2023 58.8178 39.8567 61.3683ZM53.7824 58.0384C54.3797 58.0951 54.4651 58.5911 54.4225 58.8745 53.6686 58.8603 53.0284 58.9878 52.5021 59.2995 52.2034 59.4554 51.8905 59.2854 51.8478 59.1154 51.7198 58.7044 51.8621 58.2935 52.2461 58.1659 52.7724 57.996 53.2987 57.996 53.7824 58.0384ZM32.6165 60.0647C30.1699 58.8319 28.7617 56.664 28.3065 53.6601 28.8328 54.496 29.416 55.077 30.113 55.6013 30.8527 56.1397 31.1087 56.6782 31.2509 57.2875 31.4785 58.2935 31.9622 59.2004 32.6165 60.0647ZM12.2187 73.044C15.5046 75.3253 20.2981 76.2038 22.9581 75.9346 22.8728 76.5722 22.8728 76.4305 22.9723 77.0114 14.0395 76.0054 9.01821 73.0299 8.96136 70.1251 8.93289 68.7223 9.45917 66.5686 11.3653 65.9025 9.54458 67.6454 8.59149 70.5218 12.2187 73.044ZM9.82903 59.3846C12.5032 59.1437 10.8674 56.4798 12.0053 55.4171 12.4748 54.992 12.2187 54.5811 11.7209 54.3544 11.2372 54.1418 10.2558 54.0851 9.60144 54.3827 10.0566 54.5103 10.0139 54.8503 9.88597 54.9636 8.66267 56.0689 9.4734 58.2793 8.80485 59.0728 9.77217 59.0303 9.78633 57.5142 9.9713 56.4373 10.1136 55.6013 10.5118 55.3745 11.2088 55.4596 9.64414 56.2814 11.0666 58.081 9.82903 59.3846ZM33.982 65.3358C33.5553 64.1597 32.6307 63.3096 31.3221 62.8986 30.0418 62.5018 29.3022 62.7853 29.857 63.6921 30.8811 65.7467 30.6251 67.5179 29.9423 69.1899 29.6578 69.8984 30.497 71.3436 31.3647 72.2931 30.6962 72.3214 29.8427 71.8112 29.3591 71.2161 28.7759 70.4793 27.5669 71.4145 27.8798 72.2364 29.7859 73.9225 29.985 75.6654 28.904 77.9892 29.0035 76.3739 28.7474 74.7727 27.6379 73.7667 26.6422 73.4408 25.675 73.4265 25.0633 75.0135 24.2668 77.0398 25.3194 78.9385 27.1117 80.9081 27.8655 81.7441 28.3207 82.6935 27.9509 84.0111 27.3108 86.3495 27.8655 88.2483 29.6009 89.4521 31.0092 90.4302 32.46 90.4727 33.029 89.3247 35.2337 84.8044 35.376 82.906 35.0631 78.556 34.992 77.6491 35.4898 76.4163 35.376 75.6937 35.3049 75.2545 35.1626 74.8577 34.6647 74.631 34.423 74.5176 34.4372 74.3334 34.7217 74.3051 35.0773 74.2767 35.4045 74.2059 35.7885 74.1776 36.4144 74.135 36.6278 74.1067 36.9265 73.6816 37.1968 73.2849 37.2109 72.7607 36.9692 72.4064 36.4144 71.9388 35.8454 71.5137 35.248 71.0461 34.6506 70.5785 34.4088 69.7709 35.0346 69.3741 34.9778 69.8417 35.2053 70.1959 35.5751 70.5218 36.1156 71.0177 36.7131 71.3436 37.467 71.4712 38.0644 71.5704 38.7756 71.5279 38.9606 70.6777 39.0459 70.2809 39.0174 69.9126 38.3631 69.2607 37.8795 68.7931 37.0687 68.3681 36.2437 67.7871 35.3049 67.1353 35.3049 66.5969 35.6747 66.1718 35.6321 67.0503 37.7799 67.8013 38.4484 67.9713 39.1312 68.1413 39.4584 67.277 38.4912 66.3702 37.7373 65.6617 36.4286 64.8682 35.0204 64.5564 34.3518 64.4006 33.9109 64.5423 33.982 65.3358ZM33.982 83.2602C33.2708 81.4182 31.7488 79.1086 32.8014 77.139 32.9436 78.5276 33.6264 79.6612 34.0531 80.8797 34.2523 81.4891 34.4372 82.1125 33.982 83.2602ZM27.7233 89.1124C28.1785 89.7642 28.6764 90.3878 29.4729 90.7416 30.0418 90.9547 28.7902 91.7197 28.6052 91.7197 27.6379 91.266 27.3961 90.2462 27.7233 89.1124ZM26.8556 90.983C26.9267 90.6991 26.628 90.6283 26.4857 90.7982 25.8173 91.082 25.7603 92.2292 25.0918 92.3432 24.9069 92.3715 24.85 92.5413 24.8784 92.7678 24.9353 93.2781 25.5612 93.6327 25.675 94.1422 25.8741 95.0354 25.6038 96.0835 25.9026 96.9625 26.3578 98.3511 27.8655 99.1444 28.9181 98.6341 29.0888 98.5492 28.9893 98.3228 28.847 98.1663 27.6522 97.2173 26.1302 92.4706 26.8556 90.983ZM32.5312 100.561C32.1755 100.25 31.3789 99.4982 31.7061 99.0029 31.9479 98.6341 32.5027 98.6624 32.773 98.8464 33.3277 99.2152 33.6407 99.7538 33.5979 100.377 33.5695 100.703 32.9294 100.83 32.5312 100.561ZM30.0846 100.561C31.8057 101.128 31.8626 98.6483 30.0846 98.62 29.4445 98.6341 29.0604 99.2859 29.288 100.009 29.4018 100.406 29.7574 100.462 30.0846 100.561ZM27.8655 99.3708C28.15 99.584 28.3207 99.867 28.4061 100.192 28.4488 100.377 28.3918 100.604 28.15 100.703 27.8087 100.83 27.3961 100.816 26.9125 100.717 26.7418 100.689 26.628 100.533 26.6422 100.25 26.6565 99.9802 26.7703 99.7113 26.9694 99.4699 27.2112 99.1869 27.5384 99.1161 27.8655 99.3708ZM43.2563 86.9164C42.5451 87.5108 40.7102 88.9568 39.9136 89.3955 39.7429 89.4804 39.7287 89.6935 39.8283 89.9058 40.5821 91.6348 41.6063 92.9809 43.0714 93.6468 43.3132 93.7601 43.1994 94.1422 43.0714 94.0855 42.474 93.9723 41.9192 93.9299 41.5636 94.3694 41.3787 94.5958 41.1796 94.5534 40.9804 94.4968 40.3403 94.327 39.9847 94.0148 39.7287 93.5186 39.3161 92.3432 38.5196 91.0396 37.8368 89.9482 37.723 89.7784 37.8937 89.6652 38.0644 89.6793 38.2351 89.7501 38.3774 89.8209 38.5765 89.8916 39.0032 90.0473 39.0601 89.8067 38.9321 89.6652 38.1071 89.2115 37.9791 88.8852 38.292 88.6446 38.9036 88.1767 39.2308 88.0352 39.302 87.5249 39.3304 87.341 39.4158 87.2419 39.5153 87.2419 41.9335 87.5249 43.043 86.3636 43.2421 86.3778 43.4982 86.4202 43.4982 86.7033 43.2563 86.9164ZM46.215 95.8429C46.2718 95.6023 45.5749 94.3553 44.7925 94.3553 44.1098 94.3553 45.0628 95.8995 45.0912 95.9136 45.5322 96.2541 46.1723 96.0693 46.215 95.8429ZM42.2179 96.1967C41.5778 96.24 41.1654 96.041 41.3645 95.6023 41.6916 94.8789 42.1753 94.6383 42.6162 94.6383 44.0813 94.6525 44.8636 96.2824 43.7826 96.2108 43.2563 96.2108 42.7442 96.1967 42.2179 96.1967ZM48.2775 95.4599C48.3202 95.276 47.6801 94.2845 46.9546 94.2845 46.3145 94.2845 47.2107 95.5024 47.2392 95.5165 47.6516 95.7863 48.2349 95.6447 48.2775 95.4599ZM138.673 99.1161 138.133 103.636C139.172 103.381 140.451 103.48 141.845 103.58 143.524 103.707 145.358 103.849 146.767 103.324 145.274 102.687 143.865 101.936 142.998 100.618L142.556 99.9519 143.254 99.569C144.178 99.0595 145.017 98.4501 145.786 97.77 146.056 97.5286 146.312 97.288 146.554 97.0474 144.69 97.189 143.14 96.8485 141.547 96.5088 140.266 96.225 138.972 95.9419 137.493 95.9278 136.696 95.9136 136.184 96.0268 135.871 96.1967 135.772 96.2541 135.714 96.2966 135.7 96.339L135.7 96.4098C135.729 96.4805 135.786 96.5654 135.885 96.6362 136.056 96.7777 136.44 96.9201 136.81 97.0616 137.891 97.472 138.986 97.8974 138.673 99.1161ZM118.688 100.178C121.334 101.227 124.093 101.992 126.995 102.446 123.979 102.914 119.314 101.553 118.688 100.178ZM120.665 102.021C121.035 103.31 124.306 104.202 126.469 103.608 124.435 103.296 122.514 102.757 120.665 102.021ZM111.789 98.8747C111.732 98.3369 111.633 97.8408 111.248 97.5428 110.736 97.1324 109.812 96.8909 108.504 96.9908 106.796 97.1324 105.459 97.0333 104.578 96.9201 104.065 96.8485 103.795 96.806 103.795 96.806 103.795 96.6504 104.179 96.4664 104.876 96.2683 105.872 95.9844 107.352 95.8004 109.172 95.7721L109.457 95.7721C109.67 96.4522 111.049 96.4664 111.718 96.2966 111.647 96.6787 112.984 97.0333 113.909 96.5796 113.923 96.7494 114.606 96.8768 115.26 96.707 117.052 97.2597 118.461 97.954 120.111 98.6907 121.263 99.2152 122.415 99.7396 123.595 100.178 123.738 100.236 124.292 100.434 124.42 100.476 124.478 101.142 126.099 101.425 127.024 101.114 127.322 101.241 128.005 101.355 128.802 101.227 129.683 101.298 129.826 101.284 130.694 101.241 132.827 101.156 134.889 100.759 136.838 100.335L136.27 105.011 136.099 106.371C134.193 107.009 132.187 107.419 130.167 107.561 128.091 107.717 125.985 107.59 123.923 107.136 122.472 106.824 120.765 105.988 119.072 105.181 116.341 103.863 113.667 102.559 111.761 103.253L111.761 98.8747 111.789 98.8747ZM20.3551 99.1161 20.8956 103.636C19.8572 103.381 18.577 103.48 17.1831 103.58 15.5046 103.707 13.6696 103.849 12.2614 103.324 13.755 102.687 15.1632 101.936 16.0309 100.618L16.4718 99.9519 15.7748 99.569C14.8503 99.0453 14.011 98.4501 13.2429 97.77 12.9727 97.5286 12.7166 97.288 12.4748 97.0474 14.3381 97.189 15.8886 96.8485 17.4818 96.5088 18.7619 96.225 20.0564 95.9419 21.5357 95.9278 22.3323 95.9136 22.8443 96.0268 23.1573 96.1967 23.2569 96.2541 23.3137 96.2966 23.328 96.339L23.328 96.4098C23.2995 96.4805 23.2426 96.5654 23.1431 96.6362 22.9723 96.7777 22.5883 96.9201 22.2185 97.0616 21.1374 97.472 20.0422 97.8974 20.3551 99.1161ZM40.9661 100.178C38.3204 101.227 35.5609 101.992 32.6592 102.446 35.6747 102.914 40.3261 101.553 40.9661 100.178ZM38.989 102.021C38.6192 103.31 35.3475 104.202 33.1855 103.608 35.2053 103.296 37.1398 102.757 38.989 102.021ZM47.0684 98.8747 47.0684 103.253C45.1482 102.573 42.4882 103.863 39.7571 105.181 38.0787 105.988 36.3717 106.824 34.9066 107.136 32.8441 107.59 30.7389 107.703 28.6621 107.561 26.628 107.419 24.6366 107.009 22.7305 106.371L22.5599 105.011 21.9909 100.335C23.9397 100.759 26.0022 101.156 28.1358 101.241 28.975 101.284 29.8285 101.27 30.6962 101.199 31.3221 101.312 32.0617 101.213 32.6307 101.1 33.8255 101.27 34.551 101.001 34.7359 100.363 34.9066 100.307 35.0773 100.236 35.2622 100.178 36.4428 99.7255 37.595 99.2152 38.7472 98.6907 40.3972 97.9398 42.0757 97.189 43.8822 96.6221 44.4085 96.5654 44.9348 96.4805 45.3473 96.3673 46.0301 96.5088 47.1254 96.5654 47.424 96.339 48.2206 96.339 49.0883 96.4522 49.2874 95.7721 49.4155 95.7721 49.5435 95.7721 49.6715 95.7721 51.5064 95.8146 52.9716 95.9844 53.9673 96.2683 54.6643 96.4664 55.0483 96.6504 55.0483 96.806 55.0483 96.806 54.7781 96.8485 54.266 96.9201 53.384 97.0333 52.0469 97.1324 50.3401 96.9908 49.0314 96.8768 48.1068 97.1182 47.5948 97.5428 47.2249 97.8408 47.1396 98.3369 47.0684 98.8747ZM100.823 109.757C105.702 108.978 109.628 108.326 110.395 107.263 110.395 105.011 110.381 102.828 110.324 100.561 109.897 100.802 109.371 101.001 108.773 101.171 104.819 102.234 100.139 102.985 95.3883 103.494 85.204 104.571 73.6111 104.571 63.4264 103.494 58.6755 102.999 53.9957 102.234 50.0413 101.171 49.4297 101.015 48.9176 100.802 48.4908 100.561 48.4482 102.828 48.4197 105.011 48.4197 107.263 49.1879 108.326 53.1138 108.978 57.9927 109.757 71.9042 111.953 86.9106 111.953 100.823 109.757ZM107.28 104.557 107.679 104.018C107.252 103.82 106.697 103.792 106.014 103.934 105.502 104.033 105.104 104.202 104.833 104.416 104.564 104.642 104.436 104.883 104.436 105.166 104.436 105.308 104.464 105.421 104.535 105.52 104.606 105.606 104.705 105.677 104.848 105.719 104.99 105.762 105.161 105.776 105.36 105.776 105.574 105.776 105.815 105.747 106.085 105.705 106.242 105.677 106.37 105.663 106.498 105.648 106.612 105.634 106.726 105.62 106.811 105.62 106.896 105.62 106.953 105.634 107.01 105.663 107.053 105.691 107.081 105.733 107.081 105.79 107.081 105.903 107.01 106.016 106.854 106.13 106.697 106.229 106.483 106.314 106.185 106.371 105.915 106.428 105.658 106.442 105.417 106.413 105.175 106.385 104.933 106.329 104.677 106.229L104.307 106.767C104.578 106.91 104.862 106.98 105.161 107.009 105.459 107.037 105.787 107.009 106.142 106.938 106.683 106.824 107.095 106.654 107.38 106.428 107.665 106.2 107.806 105.917 107.806 105.606 107.806 105.464 107.778 105.35 107.721 105.265 107.665 105.181 107.593 105.11 107.479 105.067 107.366 105.025 107.238 104.997 107.067 104.982 106.896 104.982 106.711 104.982 106.483 105.011 106.37 105.025 106.27 105.039 106.17 105.053 106.071 105.067 105.971 105.082 105.887 105.096 105.801 105.11 105.716 105.124 105.63 105.124 105.545 105.138 105.474 105.138 105.417 105.138 105.246 105.138 105.175 105.082 105.175 104.982 105.175 104.883 105.246 104.798 105.403 104.713 105.559 104.628 105.772 104.557 106.071 104.5 106.299 104.458 106.512 104.444 106.711 104.444 106.882 104.444 107.081 104.486 107.28 104.557ZM103.511 107.348 104.207 107.235 102.686 104.6 101.832 104.741 100.31 107.873 101.007 107.76 101.335 107.079 103.169 106.781 103.511 107.348ZM102.259 105.195 102.885 106.272 101.633 106.47 102.259 105.195ZM99.3142 105.691 99.3142 108.028 98.6175 108.128 98.6175 105.79 97.2522 105.988 97.2522 105.435 100.68 104.94 100.68 105.492 99.3142 105.691ZM96.0285 108.44 96.0285 105.564 96.7261 105.478 96.7261 108.355 96.0285 108.44ZM92.6146 108.822 92.6146 105.946 93.3122 105.875 93.3122 108.212 95.5307 108 95.5307 108.553 92.6146 108.822ZM91.4625 108.908 91.1353 108.312 89.2864 108.468 88.9593 109.12 88.2483 109.176 89.7842 106.172 90.6516 106.101 92.1884 108.85 91.4625 108.908ZM90.1971 106.668 90.8364 107.802 89.5711 107.901 90.1971 106.668ZM87.8637 108.242C87.8637 108.397 87.8213 108.539 87.7355 108.666 87.6506 108.793 87.5366 108.922 87.3942 109.021 87.2377 109.12 87.0671 109.205 86.8398 109.261 86.6267 109.332 86.3845 109.36 86.1147 109.375 85.8442 109.389 85.6019 109.375 85.3888 109.332 85.1757 109.29 84.9909 109.233 84.8344 109.148 84.6779 109.063 84.5639 108.964 84.4931 108.836 84.4074 108.709 84.3649 108.567 84.3649 108.426L84.3649 106.513 85.0617 106.47 85.0617 108.284C85.0617 108.468 85.1474 108.595 85.3322 108.694 85.517 108.793 85.7726 108.836 86.0998 108.822 86.4419 108.808 86.6975 108.737 86.8681 108.609 87.0529 108.496 87.1387 108.341 87.1387 108.17L87.1387 106.357 87.8354 106.314 87.8354 108.242 87.8637 108.242ZM82.2595 109.445C82.16 109.459 82.0746 109.474 81.9892 109.488 81.9039 109.502 81.8043 109.502 81.719 109.502 81.4203 109.502 81.15 109.474 80.894 109.389 80.638 109.304 80.4246 109.191 80.2396 109.049 80.069 108.922 79.9552 108.765 79.8699 108.581 79.7845 108.411 79.7418 108.212 79.7418 108 79.7418 107.576 79.9125 107.221 80.2396 106.952 80.4246 106.796 80.638 106.682 80.894 106.583 81.15 106.498 81.4203 106.456 81.7048 106.442 81.9892 106.442 82.2595 106.47 82.5156 106.555 82.7716 106.64 82.9849 106.753 83.1699 106.895 83.5116 107.164 83.6681 107.518 83.6681 107.929 83.6681 108.198 83.5965 108.454 83.4542 108.666 83.3118 108.878 83.113 109.063 82.8285 109.205L83.2125 109.602 82.6009 109.8 82.2595 109.445ZM82.4302 108.793 82.0746 108.426 81.4487 108.609 81.7759 108.95 81.719 108.95C81.5341 108.95 81.3491 108.936 81.207 108.893 81.0505 108.85 80.9224 108.779 80.8229 108.694 80.7091 108.609 80.638 108.51 80.581 108.397 80.5242 108.284 80.4957 108.142 80.4957 108 80.4957 107.859 80.5242 107.731 80.581 107.604 80.638 107.49 80.7233 107.377 80.8371 107.292 80.9509 107.207 81.0789 107.136 81.2354 107.079 81.3919 107.023 81.5625 107.009 81.7475 106.995 81.9324 106.995 82.103 107.009 82.2595 107.065 82.416 107.108 82.544 107.178 82.6578 107.263 82.7716 107.348 82.8428 107.447 82.9138 107.561 82.9708 107.675 82.9992 107.816 82.9992 107.958 82.9992 108.142 82.9565 108.298 82.8711 108.44 82.7432 108.581 82.6152 108.694 82.4302 108.793ZM76.7405 107.094 76.7405 109.431 76.0435 109.417 76.0435 107.079 74.6637 107.051 74.6637 106.498 78.1202 106.583 78.1202 107.136 76.7405 107.094ZM71.0649 109.205 71.0649 106.329 74.1943 106.498 74.1943 107.051 71.7619 106.924 71.7619 107.518 73.4547 107.604 73.4547 108.156 71.7619 108.071 71.7619 108.709 74.3081 108.85 74.3081 109.403 71.0649 109.205ZM68.2628 109.021 68.2628 106.98 68.2485 106.98 66.8687 108.51 65.489 106.725 65.4748 106.725 65.4748 108.765 64.7778 108.694 64.7778 105.818 65.6028 105.889 66.8687 107.532 68.1347 106.115 68.9597 106.186 68.9597 109.063 68.2628 109.021ZM60.8945 108.242 60.8945 105.365 64.0097 105.747 64.0097 106.3 61.5915 106.002 61.5915 106.597 63.27 106.81 63.27 107.362 61.5915 107.15 61.5915 107.788 64.1235 108.099 64.1235 108.652 60.8945 108.242ZM58.3768 104.968C58.6471 105.011 58.8889 105.082 59.0881 105.181 59.3014 105.28 59.4863 105.407 59.6286 105.564 59.785 105.719 59.8988 105.889 59.97 106.087 60.0553 106.286 60.0838 106.484 60.0838 106.711 60.0838 107.136 59.913 107.462 59.5716 107.675 59.4294 107.774 59.2587 107.83 59.0596 107.859 58.8605 107.887 58.6613 107.887 58.4479 107.859L56.4281 107.532 56.4281 104.656 58.3768 104.968ZM58.4195 107.306 57.1535 107.108 57.1535 105.322 58.4195 105.52C58.5617 105.549 58.6897 105.592 58.8035 105.648 58.9173 105.719 59.0169 105.79 59.1022 105.889 59.1876 105.988 59.2587 106.087 59.3014 106.215 59.344 106.329 59.3725 106.456 59.3725 106.583 59.3725 106.767 59.3156 106.924 59.2019 107.051 59.1165 107.15 59.0027 107.221 58.8605 107.263 58.7182 107.32 58.5759 107.32 58.4195 107.306ZM54.8634 107.263 55.5603 107.377 55.5603 104.5 54.8634 104.387 54.8634 107.263ZM51.8905 104.331 54.2802 104.826 54.2802 104.288 51.2077 103.651 51.2077 106.527 51.8905 106.668 51.8905 105.478 53.5405 105.818 53.5405 105.28 51.8905 104.94 51.8905 104.331ZM108.446 53.5184 108.46 59.8663C110.168 60.674 111.918 61.1841 113.823 60.8582 113.183 59.5687 112.33 59.2571 111.163 58.5485 111.448 58.4352 111.732 58.2652 111.96 57.9676 111.675 57.0324 109.94 55.0629 108.446 53.5184ZM50.2974 59.9797 50.2974 53.7876C48.8749 55.2895 47.3245 57.0749 47.0542 57.9818 47.2818 58.2793 47.5663 58.4352 47.8508 58.5627 46.6702 59.2571 45.831 59.5687 45.1908 60.8724 46.9973 61.17 48.6758 60.7165 50.2974 59.9797ZM125.032 99.2293C124.748 99.1444 124.449 99.0453 124.165 98.9321 123.013 98.4926 121.889 97.9823 120.765 97.472 120.011 97.1324 119.257 96.7919 118.489 96.4664 119.186 95.7438 119.94 94.426 120.097 93.944 120.651 92.4989 121.277 91.0962 122.102 89.6935 122.714 88.6446 122.671 87.8937 122.016 87.4825 121.562 87.0721 121.533 86.7174 121.974 86.4202 122.486 86.1505 122.984 85.8816 123.439 85.4846 123.937 87.2985 124.876 90.2887 126.909 90.7982 128.716 91.2518 130.096 92.0593 130.978 92.881 131.632 93.845 130.978 96.0693 128.816 98.0247 128.56 98.252 128.276 98.3228 128.033 98.3511 127.308 98.436 127.208 97.9257 126.341 98.1804 125.928 98.2945 125.388 98.6624 125.032 99.2293ZM134.008 96.9908 133.751 99.569 133.368 99.6264C133.311 99.2718 133.183 98.9321 133.041 98.6624 133.368 98.1238 133.695 97.5569 134.008 96.9908ZM24.0534 95.1628C23.4275 93.8308 22.9581 92.4564 22.7305 91.0254 22.6737 90.6425 22.8017 90.4868 23.015 90.6425 24.4517 91.8895 25.5327 90.8406 26.2866 88.0211 26.7845 86.1505 25.9168 84.6629 23.9112 83.3027 23.6978 83.1611 23.7121 83.0902 23.897 82.991 24.1103 82.8776 24.3379 82.7218 24.4659 82.5376 24.1672 82.0417 23.9397 81.5174 23.7262 81.0215 23.3707 80.1713 23.4986 78.9669 23.4133 78.7685 23.2284 78.2301 23.0577 78.0033 22.6737 77.8758 19.1745 77.1531 14.7933 76.0763 12.1761 74.7302 10.9101 74.0784 8.79062 72.5764 8.43507 70.3943 7.4678 64.5423 16.1731 64.3439 16.927 60.4756 17.311 58.5202 15.9028 56.1539 13.4136 55.5163 12.7166 55.3321 12.3325 55.9414 12.617 56.7632 13.3567 58.8603 12.1618 60.759 10.5971 61.0566 8.33551 61.4816 6.85615 60.3906 5.64707 58.5769 5.56173 58.3786 5.78932 58.2652 5.93157 58.3786 6.72813 58.9594 7.58159 59.3279 7.9372 58.9878 8.34966 58.5911 8.6342 57.6984 8.42084 56.2814 7.90875 52.8666 10.3411 52.7391 13.3282 53.7451 18.449 55.4738 19.9568 60.3622 16.8417 63.6355 15.5046 65.0382 13.57 65.945 12.2899 67.0645 11.1661 68.0422 10.5545 69.204 11.4506 70.6635 12.9584 73.1007 16.8985 75.1552 23.0577 74.5601 23.6124 71.8254 26.756 71.1453 26.9694 67.8297 27.197 64.3297 23.7262 61.2691 22.9723 57.4717 22.7732 57.9534 22.4888 58.3502 21.9766 58.3786 21.5499 56.3381 18.2783 54.3969 19.6154 49.7493 19.2029 50.1886 18.9042 50.6278 18.6766 50.9395 17.4675 48.8282 17.6809 44.9033 21.8344 41.8569 21.3508 41.8569 20.9525 41.956 20.5827 42.0836 21.2938 40.3549 22.3038 38.782 24.6651 37.8752 24.4802 37.7477 24.2526 37.6343 23.9538 37.5635 24.5797 36.2457 25.5327 35.5514 26.9267 35.6648 26.7845 35.2113 26.7276 34.3895 26.8271 33.8794 30.3406 35.6505 31.2225 34.5454 33.8398 34.6304 35.9165 34.7012 37.5808 35.4947 37.1683 37.1384 38.0075 37.11 40.0274 37.2234 40.198 37.8044 40.2692 38.0736 40.2977 38.4986 40.2407 38.8529 41.4213 39.2355 42.0046 39.6464 43.1283 40.0998 43.4412 40.114 43.7258 40.2556 43.8822 40.5107 44.2378 41.035 44.4227 42.4662 44.0813 42.4803 44.1951 43.0187 44.3231 43.5289 44.3231 44.0815 44.3374 44.5491 44.0955 44.7616 43.5692 44.7474 43.6546 45.3709 43.7541 45.9944 43.8396 46.6037 43.6688 47.1421 42.9576 47.9072 42.474 47.8081 41.1226 47.7231 38.3204 46.9012 37.5523 48.304 37.0118 49.2958 37.9222 50.8828 39.4584 51.1804 39.3161 51.5913 39.0601 51.9597 38.3489 52.1722 39.6291 52.6541 41.3075 52.7107 42.73 52.1439 42.4882 52.9233 42.1184 53.6601 41.3502 54.2694 42.1041 54.4677 42.858 54.3969 43.612 54.1844 44.5507 53.0224 48.1779 49.8627 49.1168 48.6866 49.4012 48.3182 49.1452 47.7655 49.4297 47.1421 49.6288 46.7028 49.9133 46.306 50.2831 45.9944L50.2689 23.9182 108.361 23.9323 108.418 45.7818 108.518 45.8526C108.973 46.1785 109.329 46.632 109.57 47.1562 109.855 47.7797 109.598 48.3323 109.883 48.7007 110.822 49.8627 114.449 53.0224 115.388 54.1985 116.142 54.4111 116.896 54.4819 117.65 54.2835 116.882 53.6742 116.512 52.9374 116.27 52.1581 117.678 52.7249 119.357 52.6682 120.651 52.1865 119.94 51.9739 119.698 51.6055 119.541 51.1946 121.078 50.897 121.988 49.31 121.448 48.3181 120.679 46.9153 117.877 47.7372 116.526 47.8222 116.043 47.9356 115.331 47.1562 115.16 46.6178 115.246 45.9944 115.346 45.3709 115.431 44.7616 114.905 44.7757 114.662 44.5632 114.676 44.0956 114.676 43.543 114.805 43.047 114.919 42.4945 114.563 42.4803 114.762 41.0491 115.118 40.5249 115.288 40.284 115.559 40.1423 115.872 40.114 116.996 39.6747 117.578 39.2496 118.759 38.8671 118.702 38.5128 118.731 38.0736 118.802 37.8185 118.959 37.2376 120.978 37.1242 121.831 37.1526 121.419 35.5089 123.083 34.7012 125.16 34.6445 127.764 34.5595 128.659 35.6505 132.173 33.8936 132.258 34.4037 132.216 35.2255 132.073 35.6789 133.468 35.5797 134.435 36.2741 135.046 37.5776 134.747 37.6485 134.52 37.7618 134.335 37.8894 136.696 38.7963 137.721 40.369 138.417 42.0977 138.048 41.9702 137.663 41.8852 137.165 41.871 141.319 44.9174 141.532 48.8424 140.324 50.9537 140.096 50.6419 139.797 50.1886 139.385 49.7634 140.736 54.4252 137.464 56.3523 137.023 58.3927 136.511 58.3643 136.226 57.9676 135.999 57.4575 135.245 61.2691 131.774 64.3297 132.002 67.8154 132.216 71.1311 135.359 71.8112 135.914 74.5459 142.073 75.1411 146.013 73.0865 147.521 70.6494 148.417 69.1899 147.805 68.0279 146.682 67.0503 145.416 65.945 143.467 65.0382 142.13 63.6212 139.015 60.3339 140.509 55.4596 145.643 53.7309 148.63 52.7249 151.062 52.8524 150.551 56.2673 150.337 57.6701 150.622 58.5769 151.034 58.9736 151.39 59.2995 152.244 58.9453 153.04 58.3643 153.196 58.251 153.424 58.3643 153.324 58.5627 152.116 60.3765 150.622 61.4675 148.374 61.0424 146.809 60.7448 145.615 58.8462 146.355 56.749 146.639 55.9414 146.255 55.3321 145.558 55.5021 143.068 56.1397 141.661 58.506 142.044 60.4615 142.799 64.3297 151.518 64.5423 150.536 70.3801 150.181 72.5623 148.061 74.0642 146.795 74.716 144.192 76.0621 139.797 77.139 136.298 77.8616 135.928 77.975 135.744 78.2017 135.558 78.7544 135.487 78.9527 135.601 80.1571 135.245 81.0073 135.032 81.5032 134.819 82.0133 134.506 82.5234 134.634 82.7076 134.861 82.8635 135.074 82.9769 135.26 83.076 135.274 83.1468 135.06 83.2885 133.055 84.6488 132.173 86.1364 132.685 88.0069 133.438 90.8406 134.52 91.8895 135.957 90.6283 136.17 90.4727 136.298 90.6283 136.241 91.0113 136.013 92.414 135.558 93.7459 134.961 95.0495 135.473 94.7515 136.256 94.5675 137.336 94.5817 138.986 94.61 140.366 94.908 141.689 95.1911 143.68 95.6306 145.587 96.041 148.118 95.3892L150.238 94.8364 148.901 96.5513C148.204 97.4437 147.45 98.2662 146.596 99.017 145.97 99.569 145.288 100.093 144.563 100.547 146.198 102.134 147.279 102.474 149.669 103.508 147.393 106.428 145.145 106.186 141.632 105.917 139.997 105.79 138.517 105.691 137.834 106.158L137.621 107.844 137.564 108.298 137.137 108.454C134.975 109.219 132.699 109.701 130.381 109.871 128.161 110.026 125.914 109.899 123.709 109.417 122.088 109.063 120.296 108.198 118.532 107.348 115.744 106.002 113.056 104.699 111.846 105.818L111.846 107.986 111.846 108.156 111.761 108.312C110.965 109.913 106.612 111.104 101.092 111.968 87.3376 114.15 71.4633 114.15 57.7083 111.968 52.1892 111.089 47.8365 109.913 47.04 108.312L46.9546 108.156 46.9546 107.986 46.9546 105.847C45.7456 104.713 43.0572 106.031 40.2692 107.377 38.5054 108.227 36.7131 109.091 35.0915 109.445 32.8868 109.927 30.6393 110.055 28.4203 109.899 26.1017 109.729 23.8259 109.233 21.6637 108.482L21.237 108.326 21.18 107.873 20.9667 106.186C20.284 105.705 18.8046 105.818 17.1688 105.946 13.6554 106.215 11.408 106.456 9.13201 103.536 11.536 102.503 12.6028 102.162 14.2386 100.575 13.5132 100.122 12.8304 99.5981 12.2045 99.0453 11.3653 98.2945 10.5971 97.472 9.90012 96.5796L8.56311 94.8647 10.6825 95.4175C13.2144 96.0693 15.1205 95.6589 17.1119 95.2194 18.449 94.9222 19.8146 94.6241 21.4646 94.61 22.5456 94.5958 23.328 94.794 23.84 95.0778 23.9538 95.092 24.0107 95.1203 24.0534 95.1628ZM25.6323 99.6547C25.4616 99.6264 25.3051 99.5981 25.1345 99.584L24.85 96.7494C25.2056 97.4012 25.5754 98.0531 25.9737 98.6907 25.8172 98.9463 25.6892 99.2859 25.6323 99.6547ZM40.4826 96.4381C39.686 96.7777 38.9036 97.1182 38.1355 97.472 36.9976 97.9823 35.8739 98.4926 34.7359 98.9321 34.4799 99.0312 34.2238 99.1161 33.9536 99.201 33.6122 98.6483 33.0717 98.2945 32.6733 98.1804 31.8057 97.9257 31.6919 98.436 30.9807 98.3511 30.7531 98.3228 30.4544 98.252 30.1983 98.0247 28.0362 96.0835 27.3819 93.8591 28.0362 92.881 28.9181 92.0593 30.2979 91.2518 32.1044 90.7982 34.1385 90.2887 35.0773 87.2985 35.5751 85.4846 36.0303 85.8675 36.5282 86.1505 37.0403 86.4202 37.4812 86.7174 37.4385 87.0721 36.9976 87.4825 36.3432 87.8937 36.2864 88.6587 36.9122 89.6935 37.7373 91.0962 38.3631 92.4989 38.9179 93.944 39.0601 94.426 39.7998 95.7014 40.4826 96.4381ZM56.5703 96.9625 56.5703 101.015C65.0054 103.665 94.5209 103.324 102.316 101.199L102.316 96.9625 102.344 96.9625 102.344 96.9342C102.359 96.041 103.127 95.3892 104.506 94.9929 105.63 94.6666 107.223 94.4826 109.186 94.426 109.642 94.4119 110.096 94.426 110.537 94.4402 111.192 93.7318 112.344 93.2073 113.524 93.7601 113.951 93.3913 114.706 93.3347 115.302 93.6751 116.227 92.881 117.265 91.8895 117.65 90.9264 118.062 89.8775 117.877 89.2681 117.166 88.8427 116.241 88.2333 114.819 87.44 114.449 86.8307 113.539 84.762 113.496 79.7887 113.866 78.7544 113.909 78.641 113.994 78.6126 114.08 78.726 114.478 79.2077 115.061 79.4061 115.545 79.1936 117.323 78.4285 118.788 77.1107 120.878 76.8839 122.244 76.7422 122.728 76.1755 122.486 75.382 122.144 74.3051 120.808 73.8233 119.499 72.9448 117.522 71.6129 116.043 68.113 115.232 65.945 112.6 65.5483 110.054 64.0321 108.46 64.0321L108.49 74.9994C108.418 89.3106 83.0134 89.1266 79.3862 97.104 75.759 89.1266 50.3543 89.3106 50.2831 74.9994L50.2689 64.0464C48.6758 64.1739 46.2292 65.5767 43.7258 65.945 42.9149 68.113 41.4356 71.5987 39.4584 72.9448 38.1498 73.8233 36.8127 74.3051 36.4713 75.382 36.2294 76.1755 36.7131 76.7422 38.0787 76.8839 40.1696 77.0965 41.6347 78.4142 43.4127 79.1936 43.9106 79.4061 44.4939 79.222 44.8779 78.726 44.9632 78.6126 45.0486 78.6268 45.0912 78.7544 45.4611 79.8028 45.4326 84.762 44.508 86.8307 44.1382 87.44 42.7158 88.2333 41.7912 88.8427 41.0658 89.2681 40.8808 89.8775 41.3075 90.9264 41.6916 91.8895 42.73 92.881 43.6546 93.6751 44.252 93.3347 45.0059 93.3913 45.4326 93.7601 46.6132 93.2073 47.7654 93.7318 48.4197 94.426 48.818 94.4119 49.2306 94.3977 49.6573 94.4119 51.6202 94.4543 53.2276 94.6525 54.3371 94.9788 55.7026 95.375 56.4707 96.0268 56.4992 96.9201L56.4992 96.9484 56.5703 96.9484 56.5703 96.9625ZM63.8959 19.0439C63.2273 18.052 62.7437 16.961 62.3454 15.8274 62.6583 15.6857 62.9571 15.5298 63.27 15.3881L60.9514 9.81946C60.8377 9.84784 60.7096 9.862 60.5958 9.862 59.6854 9.862 58.9316 9.12519 58.9316 8.20417 58.9316 7.29732 59.6712 6.54633 60.5958 6.54633 61.5204 6.54633 62.2601 7.28315 62.2601 8.20417 62.2601 8.6859 62.0467 9.12519 61.7196 9.42271 63.4264 10.7546 65.2614 11.9733 67.2955 12.9652 68.2343 11.2506 68.9882 9.29526 69.614 7.15562 68.5615 7.15562 67.6938 6.29128 67.6938 5.24273 67.6938 4.18002 68.5472 3.32984 69.614 3.32984 70.6809 3.32984 71.5343 4.19419 71.5343 5.24273 71.5343 5.99372 71.0934 6.65969 70.4533 6.97142 71.6909 8.65759 73.0563 10.1029 74.6921 11.0664 76.84 8.95511 78.1487 6.50382 78.8457 3.8116 78.0206 3.58489 77.4233 2.83391 77.4233 1.94122 77.4233 0.864344 78.3052 0 79.372 0 80.453 0 81.3207 0.878513 81.3207 1.94122 81.3207 2.83391 80.7233 3.58489 79.8983 3.8116 80.5953 6.50382 81.9039 8.95511 84.0519 11.0664 85.6877 10.0887 87.0529 8.64344 88.2908 6.95725 87.6648 6.64552 87.2377 5.99372 87.2377 5.2569 87.2377 4.19419 88.0918 3.34401 89.1582 3.34401 90.2254 3.34401 91.0787 4.20836 91.0787 5.2569 91.0787 6.31962 90.2254 7.16979 89.1582 7.16979L89.1299 7.16979C89.7559 9.32356 90.5093 11.2648 91.4483 12.9793 93.497 11.9733 95.3317 10.7546 97.0533 9.40856 96.7261 9.11103 96.5263 8.67174 96.5263 8.20417 96.5263 7.29732 97.2664 6.54633 98.1904 6.54633 99.1011 6.54633 99.8553 7.28315 99.8553 8.20417 99.8553 9.11103 99.1153 9.862 98.1904 9.862 98.0489 9.862 97.9207 9.84784 97.7925 9.81946L95.4741 15.3881C95.7871 15.5298 96.086 15.6857 96.399 15.8274 96.086 17.131 95.5165 18.2645 94.7199 19.2281 85.6735 24.2724 67.8929 22.6429 63.8959 19.0439ZM13.5843 138.975C13.5843 136.991 12.2329 135.645 9.21742 134.909L6.2445 134.171C4.70826 133.789 3.61299 133.335 3.61299 132.499 3.61299 131.664 4.76516 130.984 7.05529 130.984 9.38808 130.984 11.6924 131.692 12.4748 133.633L12.4748 129.878C11.2799 129.368 9.21742 129 7.16909 129 3.48497 129 0.170693 130.189 0.170693 133.151 0.170693 134.909 1.39399 136.255 4.26731 136.977L7.19753 137.714C8.60573 138.054 9.84327 138.55 9.84327 139.47 9.84327 140.689 7.83763 141.086 6.08803 141.086 3.54187 141.086 0.995706 140.08 0 137.629L0 141.979C1.43666 142.659 3.71256 143.141 6.14493 143.141 10.3553 143.141 13.5843 141.894 13.5843 138.975ZM43.612 129.255 37.7515 129.255C37.7515 129.255 38.8752 129.311 38.8752 130.445 38.8752 130.77 38.7756 131.182 38.548 131.692L35.248 138.961 31.9622 131.876C31.6919 131.323 31.6208 130.87 31.6208 130.53 31.6208 129.339 32.7871 129.269 32.7871 129.269L26.6992 129.269C26.6992 129.269 27.9509 129.453 27.9509 130.742 27.9509 131.097 27.8655 131.535 27.6237 132.074L24.4659 138.975 21.2085 131.706C20.9667 131.182 20.8387 130.77 20.8387 130.445 20.8387 129.382 21.8913 129.283 21.8913 129.283L14.9356 129.283C14.9356 129.283 16.3153 129.41 17.4533 131.876L22.5456 142.886 25.3336 142.886 29.3307 134.129 33.3846 142.886 36.1726 142.886 41.0942 132.003C42.2606 129.382 43.612 129.255 43.612 129.255ZM51.4069 142.858C51.4069 142.858 50.1125 142.8 50.1125 140.689L50.1125 131.565C50.1125 129.438 51.4069 129.255 51.4069 129.255L45.1908 129.255C45.1908 129.255 46.5279 129.438 46.5279 131.565L46.5279 140.689C46.5279 142.786 45.1908 142.858 45.1908 142.858L51.4069 142.858ZM69.4149 133.279 69.1447 129.255 53.7681 129.255 53.4552 133.279C53.9815 131.621 54.8349 131.153 56.8406 131.153L59.6286 131.153 59.6286 140.534C59.6286 142.858 58.32 142.858 58.32 142.858L64.5929 142.858C64.5929 142.858 63.2558 142.843 63.2558 140.534L63.2558 131.153 66.058 131.153C68.1631 131.153 68.9171 131.763 69.4149 133.279ZM86.541 138.011C85.5736 139.91 84.5922 140.931 82.4586 140.931L76.9254 140.931 85.8442 129.24 71.7335 129.24 71.7335 133.676C72.1887 132.159 72.9283 131.139 75.4034 131.139L80.197 131.139 71.2499 142.843 85.9865 142.843 86.541 138.011ZM104.137 139.202C104.137 137.487 102.786 135.787 100.367 135.589 102.23 135.305 103.326 133.874 103.326 132.485 103.326 130.899 101.917 129.255 98.6891 129.255L88.5605 129.255C88.5605 129.255 90.0548 129.339 90.0548 131.621L90.0548 140.42C90.0548 142.772 88.7603 142.858 88.7603 142.858L99.1727 142.858C102.586 142.858 104.137 141.044 104.137 139.202ZM99.5423 132.911C99.5423 133.987 98.9305 134.951 97.2805 134.951L93.6252 134.951 93.6252 131.153C94.4069 131.153 97.2381 131.153 97.2381 131.153 98.888 131.153 99.5423 132.032 99.5423 132.911ZM100.353 139.003C100.353 140.08 99.7554 140.945 97.6501 140.945L93.6252 140.945 93.6252 136.792 97.3513 136.792C99.514 136.792 100.353 137.615 100.353 139.003ZM121.362 138.55C120.537 140.08 119.399 140.945 117.309 140.945L111.732 140.945 111.732 136.963 116.554 136.963C118.503 136.963 118.631 138.11 118.631 138.11L118.631 133.888C118.631 133.888 118.489 135.05 116.54 135.05L111.747 135.05 111.747 131.168 116.982 131.168C119.015 131.168 119.954 131.947 120.239 133.378L120.239 129.269 106.498 129.269C106.498 129.269 108.133 129.354 108.133 131.55L108.133 140.378C108.133 142.786 106.726 142.872 106.726 142.872L120.523 142.872 121.362 138.55ZM140.565 142.858C140.465 142.843 138.972 142.616 137.735 141.228L135.032 138.139C134.349 137.359 134.064 137.204 133.652 137.062L133.936 137.062C136.127 137.062 138.318 135.73 138.318 133.307 138.318 131.125 136.27 129.269 132.315 129.269L123.368 129.269C123.368 129.269 124.904 129.396 124.904 131.664L124.904 140.562C124.904 142.829 123.567 142.872 123.567 142.872L129.641 142.872C129.641 142.872 128.304 142.829 128.304 140.562L128.304 137.587 129.755 137.587C130.367 137.587 130.821 137.955 131.533 138.833L134.819 142.872 140.565 142.872 140.565 142.858ZM134.69 133.335C134.69 134.724 133.667 135.688 131.76 135.688L128.318 135.688 128.318 131.153 131.661 131.153C133.496 131.153 134.69 131.975 134.69 133.335ZM159 136.736 152.684 136.736C152.684 136.736 154.135 136.835 154.135 138.72L154.135 140.831C153.438 141.03 152.385 141.171 151.632 141.171 148.275 141.171 145.871 139.23 145.871 136.07 145.871 132.499 148.83 130.984 151.803 130.984 154.32 130.984 156.866 132.06 157.606 133.987L157.606 129.765C156.013 129.17 153.95 128.943 152.186 128.943 145.786 128.943 142.073 132.33 142.073 136.396 142.073 139.853 144.904 143.183 150.793 143.183 152.656 143.183 155.857 142.957 157.606 142.362L157.606 138.663C157.591 136.792 159 136.736 159 136.736Z" fill="#4B4037" fill-rule="evenodd" transform="matrix(1 0 0 1.0057 152 96)"/></g></svg>