<?xml version="1.0" encoding="utf-8"?>
<!-- Generator: Adobe Illustrator 25.2.1, SVG Export Plug-In . SVG Version: 6.00 Build 0)  -->
<svg version="1.1" id="Слой_1" xmlns="http://www.w3.org/2000/svg" xmlns:xlink="http://www.w3.org/1999/xlink" x="0px" y="0px"
	 viewBox="0 0 138.05 138.03" style="enable-background:new 0 0 138.05 138.03;" xml:space="preserve">
<style type="text/css">
	.st0{fill:none;}
	.st1{fill:none;stroke:#231F20;stroke-width:3.6;}
	.st2{fill:url(#SVGID_1_);}
	.st3{fill:url(#SVGID_2_);}
	.st4{fill:none;stroke:#090000;stroke-width:2;}
	.st5{fill:url(#SVGID_3_);}
	.st6{display:none;fill:url(#SVGID_4_);}
	.st7{fill:none;stroke:#090000;}
	.st8{fill:#2F4342;}
	.st9{fill:#404040;}
</style>
<pattern  x="-250.68" y="-171.03" width="72" height="72" patternUnits="userSpaceOnUse" id="Unnamed_Pattern_5" viewBox="20 -72 72 72" style="overflow:visible;">
	<g>
		<rect x="20" y="-72" class="st0" width="72" height="72"/>
		<line class="st1" x1="19.75" y1="-3.6" x2="92.25" y2="-3.6"/>
		<line class="st1" x1="19.75" y1="-18" x2="92.25" y2="-18"/>
		<line class="st1" x1="19.75" y1="-32.4" x2="92.25" y2="-32.4"/>
		<line class="st1" x1="19.75" y1="-46.8" x2="92.25" y2="-46.8"/>
		<line class="st1" x1="19.75" y1="-61.2" x2="92.25" y2="-61.2"/>
		<line class="st1" x1="0" y1="-61.2" x2="14" y2="-61.2"/>
		<line class="st1" x1="19.75" y1="-10.8" x2="92.25" y2="-10.8"/>
		<line class="st1" x1="19.75" y1="-25.2" x2="92.25" y2="-25.2"/>
		<line class="st1" x1="19.75" y1="-39.6" x2="92.25" y2="-39.6"/>
		<line class="st1" x1="19.75" y1="-54" x2="92.25" y2="-54"/>
		<line class="st1" x1="19.75" y1="-68.4" x2="92.25" y2="-68.4"/>
		<line class="st1" x1="0" y1="-68.4" x2="14" y2="-68.4"/>
	</g>
</pattern>
<g>
	<linearGradient id="SVGID_1_" gradientUnits="userSpaceOnUse" x1="0" y1="69.0146" x2="138.0455" y2="69.0146">
		<stop  offset="0" style="stop-color:#DBB154"/>
		<stop  offset="0.0859" style="stop-color:#F8E28F"/>
		<stop  offset="0.3313" style="stop-color:#B58A21"/>
		<stop  offset="0.4172" style="stop-color:#C89629"/>
		<stop  offset="0.6074" style="stop-color:#F8E28F"/>
		<stop  offset="0.6786" style="stop-color:#EED27B"/>
		<stop  offset="0.7914" style="stop-color:#DBB154"/>
		<stop  offset="1" style="stop-color:#D49961"/>
	</linearGradient>
	<path class="st2" d="M69.1,138.03c-4.17,0-8.39-0.38-12.53-1.14c-18.13-3.33-33.88-13.51-44.34-28.68S-2.17,74.69,1.15,56.56
		C7.16,23.79,35.67,0,68.94,0c4.17,0,8.39,0.38,12.53,1.14c18.13,3.33,33.88,13.51,44.35,28.68c10.47,15.17,14.4,33.51,11.07,51.64
		C130.88,114.24,102.37,138.03,69.1,138.03L69.1,138.03z"/>
	<linearGradient id="SVGID_2_" gradientUnits="userSpaceOnUse" x1="3.0074" y1="69.0149" x2="135.0378" y2="69.0149">
		<stop  offset="0" style="stop-color:#D9D7C5"/>
		<stop  offset="0.2941" style="stop-color:#F1EDE3"/>
		<stop  offset="0.4142" style="stop-color:#EBE7DC"/>
		<stop  offset="0.5881" style="stop-color:#D9D6C9"/>
		<stop  offset="0.7485" style="stop-color:#C4C2B1"/>
		<stop  offset="0.9816" style="stop-color:#DAD7C5"/>
	</linearGradient>
	<path class="st3" d="M133.94,80.93c-6.58,35.85-40.98,59.59-76.83,53.01C21.26,127.36-2.48,92.96,4.1,57.11
		C10.68,21.25,45.08-2.48,80.93,4.1C116.79,10.67,140.52,45.07,133.94,80.93z"/>
	<path class="st4" d="M69.1,131.26c-3.76,0-7.57-0.35-11.31-1.03c-16.35-3-30.55-12.19-39.99-25.87
		C8.36,90.67,4.81,74.14,7.81,57.79C13.23,28.23,38.94,6.77,68.94,6.77c3.77,0,7.57,0.35,11.31,1.03
		c16.35,3,30.55,12.19,39.99,25.87c9.44,13.68,12.99,30.22,9.99,46.57C124.81,109.8,99.1,131.26,69.1,131.26L69.1,131.26z"/>
</g>
<g>
	<linearGradient id="SVGID_3_" gradientUnits="userSpaceOnUse" x1="34.6605" y1="69.0156" x2="103.3848" y2="69.0156">
		<stop  offset="0" style="stop-color:#DBB154"/>
		<stop  offset="0.0859" style="stop-color:#F8E28F"/>
		<stop  offset="0.3313" style="stop-color:#B58A21"/>
		<stop  offset="0.4172" style="stop-color:#C89629"/>
		<stop  offset="0.6074" style="stop-color:#F8E28F"/>
		<stop  offset="0.6786" style="stop-color:#EED27B"/>
		<stop  offset="0.7914" style="stop-color:#DBB154"/>
		<stop  offset="1" style="stop-color:#D49961"/>
	</linearGradient>
	<path class="st5" d="M102.81,75.21c-3.42,18.66-21.33,31.02-39.99,27.59c-18.66-3.42-31.02-21.33-27.59-39.99
		c3.42-18.66,21.33-31.02,39.99-27.59C93.88,38.65,106.24,56.55,102.81,75.21z"/>
	<pattern  id="SVGID_4_" xlink:href="#Unnamed_Pattern_5" patternTransform="matrix(0.4561 0 0 0.4561 -4043.2002 -4216.3101)">
	</pattern>
	<path class="st6" d="M102.81,75.21c-3.42,18.66-21.33,31.02-39.99,27.59c-18.66-3.42-31.02-21.33-27.59-39.99
		c3.42-18.66,21.33-31.02,39.99-27.59C93.88,38.65,106.24,56.55,102.81,75.21z"/>
	<path class="st7" d="M69.06,100.38c-1.9,0-3.81-0.18-5.7-0.52c-8.24-1.51-15.39-6.14-20.15-13.03c-4.76-6.89-6.54-15.23-5.03-23.47
		c2.73-14.89,15.69-25.7,30.8-25.7c1.9,0,3.81,0.18,5.7,0.52c17.01,3.12,28.3,19.5,25.18,36.5
		C97.13,89.57,84.18,100.38,69.06,100.38L69.06,100.38z"/>
</g>
<g>
	<path class="st8" d="M30.36,97.16c0,0.69-0.56,1.26-1.26,1.26c-0.7,0-1.26-0.56-1.26-1.26c0-0.7,0.56-1.26,1.26-1.26
		C29.79,95.9,30.36,96.46,30.36,97.16z"/>
	<path class="st8" d="M112.2,97.16c0,0.69-0.56,1.26-1.26,1.26c-0.7,0-1.26-0.56-1.26-1.26c0-0.7,0.56-1.26,1.26-1.26
		C111.64,95.9,112.2,96.46,112.2,97.16z"/>
</g>
<path class="st9" d="M51.93,61.21c0.76,0,1.37-0.61,1.37-1.37h0c0-4.46,1.81-8.48,4.74-11.41c2.93-2.93,6.95-4.73,11.4-4.73
	c4.45,0,8.48,1.81,11.41,4.73c2.93,2.93,4.73,6.96,4.73,11.41v8.75c0,0.76,0.61,1.37,1.37,1.37c0.76,0,1.37-0.61,1.37-1.37l0-8.75
	c0-5.2-2.12-9.93-5.53-13.34c-3.41-3.42-8.14-5.54-13.34-5.53c-5.2,0-9.93,2.12-13.34,5.53c-3.41,3.41-5.54,8.14-5.54,13.34
	C50.56,60.6,51.18,61.21,51.93,61.21z M68.56,76.1c4.09-4.19,6.62-9.93,6.62-16.25c0-1.58-0.65-3.03-1.68-4.06
	c-1.04-1.04-2.48-1.68-4.06-1.68c-1.58,0-3.03,0.64-4.06,1.68c-1.04,1.04-1.68,2.48-1.68,4.06c0,1.64-0.33,3.18-0.92,4.58
	c-0.59,1.4-1.45,2.67-2.53,3.74c-1.07,1.07-2.34,1.93-3.74,2.52c-1.4,0.59-2.94,0.92-4.58,0.92c-0.76,0-1.37,0.61-1.37,1.37
	c0,0.76,0.61,1.37,1.37,1.37c2,0,3.91-0.4,5.64-1.14c1.73-0.73,3.29-1.79,4.61-3.11c1.31-1.32,2.38-2.88,3.11-4.61
	c0.73-1.73,1.14-3.64,1.14-5.64c0-0.84,0.33-1.58,0.88-2.13c0.55-0.55,1.29-0.88,2.13-0.88c0.83,0,1.58,0.33,2.13,0.88
	c0.55,0.55,0.88,1.29,0.88,2.13c0,5.58-2.23,10.63-5.84,14.34c-3.62,3.7-8.61,6.04-14.16,6.17c-0.76,0.02-1.35,0.65-1.33,1.4
	c0.02,0.76,0.65,1.35,1.4,1.33C58.8,82.94,64.47,80.28,68.56,76.1z M51.93,78.72c5.21,0,9.94-2.11,13.35-5.53
	c3.41-3.41,5.53-8.14,5.53-13.35c0-0.76-0.61-1.37-1.37-1.37c-0.76,0-1.37,0.61-1.37,1.37c0,4.46-1.8,8.49-4.73,11.41
	c-2.93,2.92-6.95,4.73-11.41,4.73c-0.76,0-1.37,0.61-1.37,1.37C50.57,78.11,51.18,78.72,51.93,78.72L51.93,78.72z M88.32,72.98
	c0-0.76-0.61-1.37-1.37-1.37l0,0c-0.81,0-1.55-0.31-2.14-0.89c-0.56-0.56-0.87-1.31-0.87-2.12v-8.75c0-0.03,0-0.05,0-0.08
	c-0.02-3.97-1.64-7.57-4.25-10.17c-2.62-2.62-6.25-4.25-10.25-4.25c-3.99,0-7.63,1.63-10.25,4.25c-2.62,2.62-4.25,6.25-4.25,10.25
	c0,0.81-0.31,1.56-0.87,2.12c-0.59,0.58-1.33,0.89-2.14,0.89c-0.76,0-1.37,0.61-1.37,1.37c0,0.76,0.61,1.37,1.37,1.37
	c1.53,0,2.99-0.61,4.07-1.69c1.07-1.08,1.67-2.53,1.67-4.06c0-3.24,1.32-6.18,3.45-8.31c2.14-2.13,5.07-3.45,8.31-3.45
	c3.24,0,6.18,1.32,8.31,3.45c2.13,2.14,3.45,5.07,3.45,8.31c0,0,0,0,0,0v8.75c0,1.52,0.6,2.98,1.67,4.05
	c1.09,1.09,2.55,1.7,4.07,1.69C87.7,74.34,88.32,73.73,88.32,72.98z M76.83,68.6c0,1.63,0.39,3.2,1.11,4.62
	c1.77,0.14,3.46,0.67,4.96,1.56c-0.42-0.28-0.82-0.6-1.18-0.96c-1.39-1.4-2.15-3.24-2.16-5.22v-8.75c0,0,0,0,0-0.01
	c0-2.79-1.14-5.32-2.97-7.15c-1.83-1.83-4.37-2.97-7.15-2.97c-2.79,0-5.33,1.14-7.15,2.97c-1.83,1.83-2.97,4.37-2.97,7.15
	c0,1.98-0.77,3.82-2.16,5.22c-1.41,1.4-3.25,2.16-5.23,2.17c-0.76,0-1.37,0.61-1.37,1.37c0,0.76,0.61,1.37,1.37,1.37
	c2.69,0,5.25-1.06,7.16-2.97c1.9-1.91,2.96-4.46,2.96-7.15c0-2.04,0.83-3.88,2.17-5.22c1.34-1.34,3.18-2.17,5.22-2.17
	c2.04,0,3.88,0.83,5.22,2.17c1.34,1.34,2.17,3.18,2.17,5.22v0V68.6z M86.95,75.99L86.95,75.99c-1.34,0-2.61-0.35-3.73-1.01
	c0.71,0.45,1.37,0.98,1.98,1.59c0.66,0.66,1.23,1.38,1.7,2.15c0.02,0,0.03,0,0.05,0c0.75,0,1.37-0.61,1.37-1.37
	C88.32,76.6,87.7,75.99,86.95,75.99z M74.08,71.58c-0.71,0.25-1.09,1.02-0.85,1.74c0.05,0.15,0.11,0.29,0.16,0.44
	c0.88-0.29,1.79-0.47,2.73-0.54c-0.11-0.26-0.22-0.52-0.31-0.79C75.58,71.71,74.8,71.33,74.08,71.58z M61.83,92.01
	c-0.72,0.22-1.13,0.99-0.9,1.71c0.22,0.72,0.99,1.13,1.71,0.9c1.96-0.6,3.85-1.37,5.65-2.28c-0.61-0.7-1.13-1.47-1.55-2.28
	C65.16,90.83,63.52,91.49,61.83,92.01z M65.49,85.78c-2.59,1.36-5.42,2.35-8.39,2.88c-0.74,0.13-1.24,0.84-1.1,1.59
	c0.13,0.74,0.84,1.24,1.59,1.1c3-0.54,5.85-1.49,8.5-2.8C65.77,87.66,65.57,86.73,65.49,85.78z M65.26,84.04
	c0.07-0.04,0.15-0.07,0.22-0.11c0.08-1.12,0.32-2.22,0.7-3.25c-0.77,0.25-1.52,0.57-2.24,0.97c-2.96,1.64-6.29,2.69-9.83,3
	c-0.75,0.07-1.31,0.73-1.24,1.48c0.07,0.75,0.73,1.31,1.48,1.24l0,0C58.27,87.03,61.97,85.86,65.26,84.04z M84.04,77.73
	c1.79,1.79,2.91,4.28,2.91,7.02c0,2.74-1.11,5.23-2.91,7.02c-1.79,1.79-4.28,2.91-7.02,2.91h0c-2.74,0-5.23-1.11-7.02-2.91
	c-1.79-1.79-2.91-4.28-2.91-7.02c0-2.74,1.11-5.23,2.91-7.02c1.79-1.79,4.28-2.91,7.02-2.91h0C79.76,74.82,82.25,75.94,84.04,77.73z
	 M78.57,84.24c1.4-0.81,2.04-2.67,1.13-4.24c-1.19-2.07-4.18-2.07-5.37,0c-0.9,1.57-0.27,3.43,1.13,4.24l-1.38,6.06
	c-0.09,0.39,0.21,0.76,0.6,0.76h4.66c0.4,0,0.69-0.37,0.6-0.76L78.57,84.24z"/>
<g>
	<path d="M21.2,46.25l1.79-3.46l1.04,0.54l-1.36,2.63l3.18,1.65l1.26-2.43l1.02,0.53l-1.26,2.43l4.33,2.25l-0.43,0.83L21.2,46.25z"
		/>
	<path d="M25.33,39.14l8.95,6.01l-0.52,0.77l-8.95-6.01L25.33,39.14z"/>
	<path d="M35.63,43.16l-8.08-7.14l0.67-0.76l5.62,1.88c1.3,0.44,2.43,0.87,3.49,1.35l0-0.03c-1.14-0.89-2.13-1.74-3.39-2.85
		l-3.38-2.99l0.58-0.66l8.08,7.14L38.6,39.8l-5.62-1.9c-1.23-0.42-2.48-0.87-3.59-1.37l-0.01,0.03c1.05,0.86,2.04,1.7,3.38,2.89
		l3.46,3.05L35.63,43.16z"/>
	<path d="M44.93,33.74c-0.19,0.43-0.61,1.23-1.38,1.84c-0.86,0.68-1.82,0.9-3,0.55c-1.04-0.32-2.23-1.21-3.27-2.54
		c-1.98-2.54-2.27-5.3-0.36-6.79c0.66-0.52,1.34-0.71,1.72-0.72l0.52,1.03c-0.46,0.04-0.97,0.17-1.54,0.62
		c-1.38,1.09-1.28,3.08,0.39,5.2c1.69,2.15,3.55,2.74,4.88,1.7c0.48-0.38,0.73-0.74,0.8-0.99l-1.99-2.53l-1.15,0.91l-0.69-0.88
		l1.87-1.47L44.93,33.74z"/>
	<path d="M47.92,26.76l-2.46,1.35l1.88,3.41l2.74-1.51l0.56,1.02l-3.56,1.96l-5.2-9.45l3.42-1.88l0.56,1.02l-2.6,1.43l1.65,2.99
		l2.46-1.35L47.92,26.76z"/>
	<path d="M48.75,20.25c0.39-0.3,1-0.61,1.6-0.83c0.93-0.35,1.63-0.31,2.26,0.1c0.51,0.32,0.95,0.94,1.24,1.73
		c0.49,1.34,0.26,2.43-0.33,3.05l0.02,0.04c0.62,0.08,1.2,0.68,1.75,1.67c0.74,1.33,1.26,2.25,1.55,2.58l-0.91,0.33
		c-0.21-0.24-0.69-1.06-1.34-2.25c-0.72-1.32-1.27-1.71-2.08-1.46l-0.82,0.31l1.62,4.38l-0.88,0.32L48.75,20.25z M51.32,24.53
		l0.89-0.33c0.93-0.35,1.25-1.33,0.82-2.49c-0.48-1.31-1.33-1.64-2.26-1.31c-0.42,0.16-0.7,0.33-0.82,0.44L51.32,24.53z"/>
	<path d="M56.49,17.71c0.42-0.2,0.98-0.41,1.71-0.56c0.9-0.18,1.63,0,2.16,0.48c0.49,0.42,0.88,1.15,1.07,2.09
		c0.19,0.96,0.15,1.75-0.09,2.37c-0.33,0.87-1.04,1.42-1.93,1.59c-0.27,0.06-0.53,0.09-0.75,0.05l0.85,4.24l-0.91,0.18L56.49,17.71z
		 M58.43,22.62c0.22,0.04,0.47,0.02,0.78-0.04c1.1-0.22,1.62-1.16,1.32-2.62c-0.28-1.4-1.08-1.94-2.09-1.74
		c-0.4,0.08-0.7,0.19-0.84,0.28L58.43,22.62z"/>
	<path d="M64.44,16.44c0.46-0.17,1.14-0.28,1.78-0.31c1-0.05,1.65,0.2,2.13,0.78c0.39,0.46,0.62,1.19,0.66,2.02
		c0.06,1.42-0.49,2.39-1.24,2.81l0,0.05c0.57,0.26,0.94,1.02,1.16,2.13c0.3,1.49,0.52,2.52,0.69,2.93l-0.96,0.04
		c-0.13-0.3-0.33-1.22-0.6-2.55c-0.28-1.48-0.69-2.02-1.54-2.03l-0.88,0.04l0.21,4.67l-0.93,0.04L64.44,16.44z M65.6,21.3l0.95-0.04
		c1-0.05,1.59-0.89,1.54-2.12c-0.06-1.39-0.76-1.97-1.75-1.94c-0.45,0.02-0.77,0.1-0.92,0.17L65.6,21.3z"/>
	<path d="M73.26,16.32l-0.78,10.75l-0.93-0.07l0.78-10.75L73.26,16.32z"/>
	<path d="M74.87,27.26l2.2-10.56l1,0.21l1.15,5.82c0.27,1.35,0.44,2.54,0.55,3.7l0.02-0.01c0.21-1.43,0.46-2.72,0.8-4.36l0.92-4.42
		l0.86,0.18l-2.2,10.56l-0.92-0.19l-1.13-5.83c-0.25-1.28-0.47-2.58-0.59-3.8l-0.03,0.01c-0.23,1.34-0.47,2.62-0.84,4.37l-0.94,4.51
		L74.87,27.26z"/>
	<path d="M87.19,20.66l-2.05-0.8l0.43-1.1l4.98,1.94l-0.43,1.1L88.07,21l-3.48,8.95l-0.88-0.34L87.19,20.66z"/>
	<path d="M96.82,24.09l0.77,0.52l-5.35,7.99l2.56,1.72l-0.65,0.97l-3.34-2.24L96.82,24.09z"/>
	<path d="M103.55,36.26c-2.52,2.73-4.96,3.15-6.32,1.9c-1.4-1.29-0.89-3.82,1.33-6.22c2.32-2.52,4.89-3.19,6.31-1.88
		C106.31,31.38,105.72,33.91,103.55,36.26z M99.31,32.58c-1.56,1.69-2.35,3.78-1.27,4.77c1.09,1,3.08,0.08,4.74-1.72
		c1.46-1.57,2.42-3.73,1.28-4.78C102.93,29.8,100.92,30.84,99.31,32.58z"/>
	<path d="M104.35,45.57c-0.41-0.12-1.03-0.51-1.56-1.21c-1.23-1.62-0.62-4.01,2.19-6.14c2.69-2.04,5.44-2.2,6.79-0.41
		c0.54,0.72,0.66,1.35,0.65,1.66l-1.04,0.51c-0.01-0.44-0.16-0.96-0.52-1.43c-1.02-1.35-2.99-1.27-5.25,0.44
		c-2.1,1.59-2.84,3.43-1.78,4.83c0.34,0.45,0.83,0.81,1.28,0.94L104.35,45.57z"/>
	<path d="M114.57,42.35l0.44,0.82l-4.59,2.44l0.01,0.03c0.46-0.03,0.89-0.03,1.28-0.04l4.61,0.05l0.54,1.02l-5.27-0.16l-4.16,5.4
		l-0.52-0.98l3.56-4.59l-1.37-0.05l-3.63,1.93l-0.44-0.82L114.57,42.35z"/>
</g>
<g>
	<path d="M29.4,103.66c0.24,0.22,0.45,0.34,0.61,0.37c0.28,0.05,0.57-0.08,0.88-0.39l5.08-5.2c0.31-0.31,0.43-0.6,0.38-0.86
		c-0.03-0.16-0.16-0.37-0.39-0.63l0.27-0.27l2.65,2.59c0.51,0.5,0.86,0.99,1.06,1.46c0.37,0.9,0.19,1.71-0.52,2.44
		c-0.43,0.44-0.91,0.67-1.42,0.68s-0.95-0.1-1.32-0.33l-0.1,0.1c0.24,0.39,0.39,0.79,0.45,1.2c0.11,0.8-0.15,1.52-0.77,2.16
		c-0.58,0.59-1.27,0.86-2.07,0.8c-0.8-0.06-1.56-0.45-2.29-1.16l-2.76-2.7L29.4,103.66z M31.89,105.49
		c-0.08,0.22-0.02,0.43,0.18,0.62c0.4,0.4,0.82,0.54,1.26,0.42c0.43-0.12,0.9-0.43,1.4-0.94c0.74-0.76,1.06-1.44,0.94-2.05
		c-0.07-0.37-0.34-0.77-0.82-1.22l-2.62,2.68C32.04,105.21,31.93,105.37,31.89,105.49z M36.55,102.73c0.39-0.04,0.86-0.33,1.4-0.89
		c0.4-0.41,0.68-0.81,0.83-1.21c0.15-0.4,0.06-0.76-0.28-1.09c-0.18-0.17-0.34-0.26-0.48-0.25c-0.14,0.01-0.31,0.11-0.5,0.3
		l-2.35,2.41C35.69,102.53,36.15,102.77,36.55,102.73z"/>
	<path d="M36.99,110.58c0.28,0.19,0.51,0.29,0.69,0.29c0.29,0.01,0.56-0.16,0.81-0.53l4.18-5.94c0.25-0.36,0.33-0.67,0.23-0.92
		c-0.06-0.16-0.23-0.35-0.52-0.57l0.22-0.31l3.43,2.41l-0.22,0.31c-0.32-0.2-0.56-0.3-0.72-0.31c-0.28-0.01-0.55,0.17-0.8,0.53
		l-4.18,5.95c-0.24,0.34-0.33,0.63-0.25,0.85c0.07,0.22,0.26,0.44,0.57,0.66l-0.22,0.31l-3.43-2.41L36.99,110.58z"/>
	<path d="M53.17,110.06c0.32,1.25,0.15,2.6-0.51,4.03c-0.67,1.43-1.58,2.42-2.75,2.98c-1.14,0.55-2.26,0.56-3.35,0.05
		c-1.16-0.54-1.88-1.47-2.16-2.78c-0.26-1.23-0.09-2.49,0.52-3.78c0.66-1.43,1.57-2.43,2.71-3.01c1.16-0.59,2.3-0.62,3.44-0.09
		C52.15,107.97,52.86,108.83,53.17,110.06z M49.29,115.63c0.47-0.58,0.95-1.4,1.44-2.45c0.67-1.45,1.01-2.62,1.01-3.51
		c0-0.9-0.3-1.48-0.89-1.76c-0.82-0.38-1.67-0.03-2.55,1.05c-0.46,0.58-0.94,1.38-1.42,2.42c-0.49,1.06-0.81,1.95-0.95,2.68
		c-0.26,1.35,0.02,2.21,0.84,2.6C47.58,117.04,48.42,116.7,49.29,115.63z"/>
	<path d="M53.96,119.51c0.45,0.08,0.76,0.04,0.93-0.13s0.29-0.45,0.37-0.84l1.32-7c0.08-0.4,0.05-0.68-0.08-0.83
		c-0.13-0.16-0.39-0.29-0.77-0.4l0.07-0.37l2.97,0.56l1.03,7.26l0.1,0.02l3.6-6.39l2.97,0.56l-0.07,0.37c-0.41-0.04-0.7,0-0.87,0.12
		c-0.17,0.12-0.31,0.46-0.42,1.03L63.87,120c-0.1,0.54-0.1,0.91,0.02,1.11c0.11,0.2,0.37,0.34,0.76,0.44l-0.07,0.37l-3.92-0.74
		l0.07-0.37c0.35,0.05,0.63,0.03,0.83-0.07s0.34-0.37,0.43-0.82l1.36-7.2l-0.09-0.02l-4.53,8.12l-0.32-0.06l-1.31-9.04l-0.05-0.01
		l-1.26,6.66c-0.09,0.49-0.09,0.86,0.02,1.12c0.1,0.25,0.4,0.44,0.9,0.56l-0.07,0.37l-2.76-0.52L53.96,119.51z"/>
	<path d="M67.89,121.96l-0.02-0.38c0.34-0.03,0.58-0.1,0.72-0.21c0.22-0.17,0.31-0.46,0.3-0.89l-0.32-7.26
		c-0.02-0.44-0.15-0.72-0.38-0.86c-0.14-0.09-0.38-0.13-0.73-0.14l-0.02-0.38l6.91-0.3l0.13,3.02l-0.29,0.01
		c-0.19-0.96-0.48-1.61-0.86-1.95c-0.38-0.34-1.05-0.49-2.02-0.45c-0.37,0.02-0.6,0.07-0.69,0.17s-0.14,0.29-0.12,0.57l0.15,3.47
		c0.68-0.02,1.14-0.2,1.37-0.53c0.23-0.33,0.39-0.92,0.48-1.78l0.3-0.01l0.22,5.06l-0.3,0.01c-0.12-0.85-0.32-1.44-0.6-1.78
		c-0.28-0.34-0.76-0.49-1.44-0.46l0.16,3.63c0.01,0.32,0.09,0.53,0.22,0.64s0.41,0.15,0.81,0.14c0.76-0.03,1.38-0.25,1.85-0.64
		s0.87-1.11,1.2-2.14l0.33-0.01l-0.35,3.14L67.89,121.96z"/>
	<path d="M76.16,111.33l7.02-1.72l0.73,2.94l-0.34,0.08c-0.37-1.02-0.86-1.66-1.47-1.9c-0.34-0.13-0.81-0.14-1.39-0.01l1.89,7.67
		c0.13,0.54,0.29,0.87,0.49,1.01c0.19,0.14,0.53,0.15,1,0.03l0.09,0.37l-4.15,1.02l-0.09-0.37c0.46-0.11,0.74-0.27,0.84-0.49
		c0.11-0.21,0.09-0.59-0.04-1.12l-1.88-7.67c-0.56,0.16-0.97,0.38-1.23,0.66c-0.46,0.52-0.6,1.31-0.42,2.37l-0.33,0.08L76.16,111.33
		z"/>
	<path d="M88.56,118.06c0.36-0.2,0.56-0.4,0.63-0.62s-0.03-0.57-0.27-1.07l-2.87-5.98c-0.25-0.52-0.49-0.82-0.73-0.9
		c-0.16-0.05-0.43-0.01-0.82,0.12l-0.17-0.34l3.48-1.67c0.72-0.35,1.35-0.53,1.89-0.56c1.05-0.03,1.81,0.45,2.29,1.45
		c0.35,0.74,0.4,1.42,0.15,2.06c-0.19,0.48-0.46,0.86-0.81,1.13l4.14,2.75c0.11,0.08,0.21,0.12,0.29,0.12
		c0.08,0,0.18-0.02,0.28-0.06l0.15,0.32l-2.26,1.08l-4.55-3.02l0,0l1.27,2.65c0.23,0.48,0.44,0.77,0.65,0.87
		c0.21,0.1,0.5,0.07,0.89-0.09l0.16,0.34l-3.66,1.75L88.56,118.06z M90.53,111.34c0.19-0.38,0.08-1-0.33-1.85
		c-0.25-0.52-0.51-0.91-0.77-1.16c-0.45-0.42-0.94-0.5-1.47-0.25c-0.29,0.14-0.46,0.27-0.5,0.41c-0.05,0.13-0.02,0.3,0.08,0.51
		l1.65,3.44C89.9,112.09,90.34,111.72,90.53,111.34z"/>
	<path d="M98.29,112.95c0.27-0.2,0.44-0.39,0.51-0.55c0.11-0.27,0.03-0.58-0.22-0.94l-4.2-5.93c-0.25-0.36-0.52-0.54-0.79-0.53
		c-0.17,0.01-0.4,0.11-0.71,0.3l-0.22-0.31l3.42-2.42l0.22,0.31c-0.29,0.23-0.47,0.42-0.54,0.58c-0.1,0.26-0.03,0.57,0.23,0.93
		l4.2,5.93c0.24,0.34,0.48,0.52,0.72,0.53c0.24,0.01,0.5-0.1,0.81-0.31l0.22,0.31l-3.42,2.42L98.29,112.95z"/>
	<path d="M101.43,97.84c0.53-0.2,0.81-0.32,0.85-0.36c0.11-0.11,0.14-0.25,0.1-0.41c-0.04-0.17-0.11-0.32-0.2-0.45l0.24-0.24
		l2.48,2.48l-0.22,0.21c-0.74-0.33-1.38-0.55-1.9-0.65c-0.97-0.18-1.71-0.02-2.21,0.49c-0.57,0.57-0.67,1.28-0.29,2.13
		c0.37,0.85,1.08,1.79,2.11,2.83c0.76,0.76,1.45,1.32,2.08,1.67c1.18,0.66,2.12,0.63,2.84-0.08c0.44-0.43,0.69-0.99,0.76-1.67
		c0.04-0.39,0.01-0.93-0.08-1.61l0.51,0.01c0.13,0.79,0.17,1.42,0.13,1.88c-0.08,0.82-0.39,1.5-0.94,2.04
		c-0.84,0.84-1.85,1.23-3.04,1.17c-1.31-0.06-2.55-0.67-3.71-1.84c-1.15-1.15-1.78-2.39-1.9-3.7c-0.1-1.23,0.25-2.26,1.07-3.08
		C100.46,98.31,100.9,98.04,101.43,97.84z"/>
</g>
</svg>
