<?xml version="1.0" encoding="utf-8"?>
<!-- Generator: Adobe Illustrator 25.2.1, SVG Export Plug-In . SVG Version: 6.00 Build 0)  -->
<svg version="1.1" id="Слой_1" xmlns="http://www.w3.org/2000/svg" xmlns:xlink="http://www.w3.org/1999/xlink" x="0px" y="0px"
	 viewBox="0 0 175.25 193.18" style="enable-background:new 0 0 175.25 193.18;" xml:space="preserve">
<style type="text/css">
	.st0{fill:url(#SVGID_1_);}
	.st1{fill:url(#SVGID_2_);}
	.st2{fill:url(#SVGID_3_);}
	.st3{fill:url(#SVGID_4_);}
	.st4{fill:url(#SVGID_5_);}
	.st5{fill:url(#SVGID_6_);}
	.st6{fill:url(#SVGID_7_);}
	.st7{fill:url(#SVGID_8_);}
	.st8{fill:#C4C3AC;}
	.st9{fill:url(#SVGID_9_);}
	.st10{fill:url(#SVGID_10_);}
	.st11{fill:url(#SVGID_11_);}
	.st12{fill:url(#SVGID_12_);}
	.st13{fill:#090000;}
	.st14{fill:url(#SVGID_13_);}
	.st15{fill:url(#SVGID_14_);}
	.st16{fill:url(#SVGID_15_);}
	.st17{fill:url(#SVGID_16_);}
	.st18{fill:url(#SVGID_17_);}
	.st19{fill:url(#SVGID_18_);}
	.st20{fill:url(#SVGID_19_);}
	.st21{fill:url(#SVGID_20_);}
	.st22{fill:url(#SVGID_21_);}
	.st23{fill:url(#SVGID_22_);}
	.st24{fill:url(#SVGID_23_);}
	.st25{fill:url(#SVGID_24_);}
	.st26{fill:url(#SVGID_25_);}
	.st27{fill:url(#SVGID_26_);}
	.st28{fill:url(#SVGID_27_);}
	.st29{fill:url(#SVGID_28_);}
	.st30{fill:url(#SVGID_29_);}
	.st31{fill:url(#SVGID_30_);}
	.st32{fill:url(#SVGID_31_);}
	.st33{fill:url(#SVGID_32_);}
	.st34{fill:url(#SVGID_33_);}
	.st35{fill:url(#SVGID_34_);}
	.st36{fill:url(#SVGID_35_);}
	.st37{fill:url(#SVGID_36_);}
	.st38{fill:url(#SVGID_37_);}
	.st39{fill:url(#SVGID_38_);}
</style>
<g>
	<linearGradient id="SVGID_1_" gradientUnits="userSpaceOnUse" x1="80.5789" y1="184.1844" x2="60.5791" y2="133.8513">
		<stop  offset="0" style="stop-color:#DBB154"/>
		<stop  offset="0.0859" style="stop-color:#F8E28F"/>
		<stop  offset="0.1656" style="stop-color:#8E5421"/>
		<stop  offset="0.2883" style="stop-color:#C67C23"/>
		<stop  offset="0.4724" style="stop-color:#F8E28F"/>
		<stop  offset="0.5697" style="stop-color:#EED27B"/>
		<stop  offset="0.7239" style="stop-color:#DBB154"/>
		<stop  offset="1" style="stop-color:#D49961"/>
	</linearGradient>
	<polygon class="st0" points="101.55,106.57 61.56,193.18 48.14,174.27 25.78,176.66 65.77,90.05 	"/>
	<linearGradient id="SVGID_2_" gradientUnits="userSpaceOnUse" x1="41.3063" y1="188.1776" x2="63.2896" y2="142.3788">
		<stop  offset="0" style="stop-color:#DBB154"/>
		<stop  offset="0.42" style="stop-color:#F8E28F"/>
		<stop  offset="0.5065" style="stop-color:#F5DE8A"/>
		<stop  offset="0.6126" style="stop-color:#EED17B"/>
		<stop  offset="0.7284" style="stop-color:#E2BD62"/>
		<stop  offset="0.7821" style="stop-color:#DBB154"/>
		<stop  offset="1" style="stop-color:#8E5421"/>
	</linearGradient>
	<polygon class="st1" points="48.7,173.02 27.72,175.26 66.35,91.62 99.98,107.15 61.34,190.83 	"/>
</g>
<linearGradient id="SVGID_3_" gradientUnits="userSpaceOnUse" x1="26.2588" y1="175.5692" x2="43.5919" y2="143.2352">
	<stop  offset="0" style="stop-color:#090000"/>
	<stop  offset="0.1876" style="stop-color:#413C39"/>
	<stop  offset="0.335" style="stop-color:#4B4543"/>
	<stop  offset="0.5395" style="stop-color:#605857"/>
	<stop  offset="0.7914" style="stop-color:#261811"/>
</linearGradient>
<polygon class="st2" points="29.96,176.21 69.05,91.56 67.6,90.89 28.12,176.41 "/>
<linearGradient id="SVGID_4_" gradientUnits="userSpaceOnUse" x1="58.2471" y1="189.4769" x2="78.9139" y2="148.8101">
	<stop  offset="0" style="stop-color:#090000"/>
	<stop  offset="0.1876" style="stop-color:#413C39"/>
	<stop  offset="0.335" style="stop-color:#4B4543"/>
	<stop  offset="0.5395" style="stop-color:#605857"/>
	<stop  offset="0.7914" style="stop-color:#261811"/>
</linearGradient>
<polygon class="st3" points="60.21,191.28 99.72,105.72 98.27,105.05 59.15,189.78 "/>
<g>
	<linearGradient id="SVGID_5_" gradientUnits="userSpaceOnUse" x1="71.4444" y1="141.6142" x2="147.2149" y2="141.6142">
		<stop  offset="0" style="stop-color:#DBB154"/>
		<stop  offset="0.0859" style="stop-color:#F8E28F"/>
		<stop  offset="0.1656" style="stop-color:#8E5421"/>
		<stop  offset="0.2883" style="stop-color:#C67C23"/>
		<stop  offset="0.4724" style="stop-color:#F8E28F"/>
		<stop  offset="0.5697" style="stop-color:#EED27B"/>
		<stop  offset="0.7239" style="stop-color:#DBB154"/>
		<stop  offset="1" style="stop-color:#D49961"/>
	</linearGradient>
	<polygon class="st4" points="71.44,106.57 111.43,193.18 124.86,174.27 147.21,176.66 107.22,90.05 	"/>
	<linearGradient id="SVGID_6_" gradientUnits="userSpaceOnUse" x1="135.5347" y1="188.0259" x2="108.5163" y2="140.1005">
		<stop  offset="0" style="stop-color:#DBB154"/>
		<stop  offset="0.2766" style="stop-color:#F8E28F"/>
		<stop  offset="0.3722" style="stop-color:#F2D883"/>
		<stop  offset="0.5455" style="stop-color:#E2BD62"/>
		<stop  offset="0.6135" style="stop-color:#DBB154"/>
		<stop  offset="1" style="stop-color:#8E5421"/>
	</linearGradient>
	<polygon class="st5" points="73.01,107.15 106.65,91.62 145.27,175.26 124.29,173.02 111.65,190.83 	"/>
</g>
<linearGradient id="SVGID_7_" gradientUnits="userSpaceOnUse" x1="148.6705" y1="182.95" x2="131.6707" y2="148.6173">
	<stop  offset="0" style="stop-color:#1A0000"/>
	<stop  offset="0.1876" style="stop-color:#56504B"/>
	<stop  offset="0.3663" style="stop-color:#5F5855"/>
	<stop  offset="0.5395" style="stop-color:#6D6463"/>
	<stop  offset="0.7914" style="stop-color:#3B261B"/>
</linearGradient>
<polygon class="st6" points="143.03,176.21 103.94,91.56 105.4,90.89 144.88,176.41 "/>
<linearGradient id="SVGID_8_" gradientUnits="userSpaceOnUse" x1="110.4222" y1="198.7225" x2="95.7562" y2="154.3895">
	<stop  offset="0" style="stop-color:#1A0000"/>
	<stop  offset="0.1876" style="stop-color:#56504B"/>
	<stop  offset="0.3663" style="stop-color:#5F5855"/>
	<stop  offset="0.5395" style="stop-color:#6D6463"/>
	<stop  offset="0.7914" style="stop-color:#3B261B"/>
</linearGradient>
<polygon class="st7" points="112.78,191.28 73.28,105.72 74.72,105.05 113.85,189.78 "/>
<g>
	<path class="st8" d="M88.4,1.95c-25.01,0-44.91,5.12-57.2,9.42c-4.36,1.52-8.55,3.21-12.46,5.02l-1.66,0.77l-0.1,1.83
		c-0.05,1.12-0.25,2.23-0.59,3.32c-0.65,2.12-1.77,4-3.3,5.58l-1.07,1.1l0.25,1.51c1.19,7.16-0.73,14.94-3.37,24.36
		c-0.26,0.95-0.57,1.99-0.89,3.12c-2.34,8.11-5.88,20.37-6.05,32.09c-0.25,16.45,6.15,22.48,10.98,25.59
		c8.76,5.63,21.81,11.46,34.42,17.1c17.69,7.91,30.88,14,39.41,20.47l1.83,1.39l1.83-1.39c8.53-6.46,21.72-12.56,39.41-20.47
		c12.62-5.64,25.67-11.47,34.42-17.1c4.83-3.1,11.23-9.14,10.98-25.59c-0.17-11.72-3.71-23.98-6.05-32.09
		c-0.32-1.12-0.62-2.17-0.89-3.12c-2.64-9.43-4.56-17.2-3.37-24.36l0.26-1.51l-1.07-1.1c-1.55-1.58-2.66-3.45-3.31-5.58
		c-0.33-1.07-0.53-2.17-0.59-3.28l-0.1-1.83l-1.66-0.76c-3.97-1.83-8.22-3.52-12.62-5.05C133.44,7.08,113.43,1.95,88.4,1.95
		L88.4,1.95z"/>
	<linearGradient id="SVGID_9_" gradientUnits="userSpaceOnUse" x1="0" y1="76.3296" x2="173.2971" y2="76.3296">
		<stop  offset="0" style="stop-color:#DBB154"/>
		<stop  offset="0.0859" style="stop-color:#F8E28F"/>
		<stop  offset="0.3313" style="stop-color:#B58A21"/>
		<stop  offset="0.4172" style="stop-color:#C89629"/>
		<stop  offset="0.6074" style="stop-color:#F8E28F"/>
		<stop  offset="0.6786" style="stop-color:#EED27B"/>
		<stop  offset="0.7914" style="stop-color:#DBB154"/>
		<stop  offset="1" style="stop-color:#D49961"/>
	</linearGradient>
	<path class="st9" d="M86.45,0c-25.01,0-44.91,5.12-57.2,9.42c-4.36,1.52-8.54,3.21-12.46,5.02l-1.66,0.77l-0.1,1.83
		c-0.05,1.12-0.25,2.23-0.59,3.32c-0.65,2.12-1.77,4-3.3,5.58l-1.07,1.1l0.25,1.51c1.19,7.16-0.73,14.94-3.37,24.36
		c-0.26,0.95-0.57,1.99-0.89,3.12C3.71,64.13,0.18,76.4,0.01,88.11c-0.25,16.45,6.15,22.48,10.98,25.59
		c8.76,5.63,21.81,11.46,34.42,17.1c17.69,7.91,30.88,14,39.41,20.47l1.83,1.39l1.83-1.39c8.53-6.46,21.72-12.56,39.41-20.47
		c12.62-5.64,25.67-11.47,34.42-17.1c4.83-3.1,11.23-9.14,10.98-25.59c-0.17-11.72-3.71-23.98-6.05-32.09
		c-0.32-1.12-0.62-2.17-0.89-3.12c-2.64-9.43-4.56-17.2-3.37-24.36l0.26-1.51l-1.07-1.1c-1.55-1.58-2.66-3.45-3.31-5.58
		c-0.33-1.07-0.53-2.17-0.59-3.28l-0.1-1.83l-1.66-0.76c-3.97-1.83-8.22-3.52-12.62-5.05C131.49,5.13,111.48,0,86.45,0L86.45,0z"/>
	<linearGradient id="SVGID_10_" gradientUnits="userSpaceOnUse" x1="4.1419" y1="75.8035" x2="169.1552" y2="75.8035">
		<stop  offset="0" style="stop-color:#D9D7C5"/>
		<stop  offset="0.2941" style="stop-color:#F1EDE3"/>
		<stop  offset="0.4142" style="stop-color:#EBE7DC"/>
		<stop  offset="0.5881" style="stop-color:#D9D6C9"/>
		<stop  offset="0.7485" style="stop-color:#C4C2B1"/>
		<stop  offset="0.9816" style="stop-color:#DAD7C5"/>
	</linearGradient>
	<path class="st10" d="M86.65,147.46c-8.89-6.54-22.05-12.63-39.55-20.45c-12.48-5.58-25.38-11.34-33.87-16.8
		c-4.34-2.79-9.29-7.81-9.08-22.04c0.16-11.17,3.61-23.11,5.89-31l0.16-0.54c0.27-0.93,0.52-1.81,0.75-2.61
		c2.71-9.69,4.7-17.76,3.55-25.6c1.81-1.98,3.12-4.27,3.91-6.84c0.37-1.18,0.61-2.4,0.72-3.64c3.66-1.67,7.52-3.21,11.49-4.6
		c11.99-4.19,31.4-9.18,55.84-9.18c24.44,0,43.99,5,56.08,9.2c4.08,1.42,8,2.98,11.66,4.63c0.11,1.21,0.35,2.42,0.72,3.6
		c0.79,2.57,2.1,4.86,3.91,6.83c-1.15,7.85,0.84,15.92,3.55,25.62l0.9,3.14c2.29,7.93,5.73,19.86,5.89,31.01
		c0.21,14.23-4.74,19.25-9.08,22.04c-8.48,5.46-21.36,11.21-33.82,16.78C108.69,134.84,95.52,140.93,86.65,147.46L86.65,147.46z"/>
	<linearGradient id="SVGID_11_" gradientUnits="userSpaceOnUse" x1="5.7985" y1="75.61" x2="167.4985" y2="75.61">
		<stop  offset="0" style="stop-color:#090000"/>
		<stop  offset="0.1876" style="stop-color:#413C39"/>
		<stop  offset="0.335" style="stop-color:#4B4543"/>
		<stop  offset="0.5395" style="stop-color:#605857"/>
		<stop  offset="0.7914" style="stop-color:#261811"/>
	</linearGradient>
	<path class="st11" d="M86.65,145.42c-8.99-6.37-21.91-12.34-38.87-19.92c-12.43-5.55-25.27-11.29-33.65-16.68
		c-2.56-1.64-8.54-5.49-8.32-20.62c0.16-10.95,3.57-22.76,5.82-30.57l0.16-0.55c0.27-0.94,0.52-1.82,0.75-2.63
		c2.68-9.57,4.67-17.61,3.7-25.52c1.71-2.02,2.97-4.33,3.75-6.88c0.3-0.98,0.53-1.98,0.67-3.01c3.36-1.5,6.88-2.89,10.5-4.16
		C43.02,10.74,62.25,5.8,86.45,5.8c24.21,0,43.56,4.95,55.53,9.1c3.72,1.29,7.3,2.7,10.67,4.2c0.14,1,0.37,1.99,0.67,2.96
		c0.78,2.55,2.04,4.86,3.75,6.87c-0.97,7.92,1.02,15.96,3.7,25.53l0.9,3.15c2.27,7.85,5.67,19.65,5.83,30.58
		c0.23,15.14-5.76,18.98-8.32,20.62c-8.38,5.39-21.2,11.12-33.6,16.66C108.55,133.09,95.62,139.06,86.65,145.42L86.65,145.42z"/>
	<linearGradient id="SVGID_12_" gradientUnits="userSpaceOnUse" x1="7.3128" y1="75.4438" x2="165.9843" y2="75.4438">
		<stop  offset="0" style="stop-color:#D9D7C5"/>
		<stop  offset="0.2941" style="stop-color:#F1EDE3"/>
		<stop  offset="0.4142" style="stop-color:#EBE7DC"/>
		<stop  offset="0.5881" style="stop-color:#D9D6C9"/>
		<stop  offset="0.7485" style="stop-color:#C4C2B1"/>
		<stop  offset="0.9816" style="stop-color:#DAD7C5"/>
	</linearGradient>
	<path class="st12" d="M86.65,143.58c-9.06-6.23-21.76-12.08-38.26-19.45c-12.38-5.53-25.16-11.24-33.45-16.57
		c-2.34-1.51-7.83-5.04-7.62-19.33c0.16-10.75,3.53-22.44,5.76-30.17l0.16-0.55c0.27-0.94,0.53-1.82,0.75-2.64
		c2.65-9.47,4.64-17.49,3.82-25.46c1.63-2.05,2.84-4.36,3.62-6.9c0.24-0.78,0.44-1.59,0.59-2.4c3.1-1.36,6.32-2.62,9.63-3.78
		c11.76-4.11,30.8-9.01,54.79-9.01c24,0,43.18,4.91,55.04,9.02c3.4,1.18,6.69,2.47,9.8,3.82c0.15,0.79,0.34,1.58,0.58,2.35
		c0.78,2.53,1.99,4.84,3.62,6.89c-0.82,7.98,1.16,16,3.82,25.48l0.9,3.16c2.24,7.78,5.61,19.46,5.77,30.18
		c0.22,14.29-5.28,17.82-7.62,19.33c-8.28,5.33-21.05,11.03-33.4,16.55C108.4,131.5,95.69,137.36,86.65,143.58L86.65,143.58z"/>
</g>
<g>
	<polygon class="st13" points="86.65,103.73 87.9,106.27 90.7,106.68 88.68,108.65 89.15,111.44 86.65,110.13 84.14,111.44 
		84.62,108.65 82.59,106.68 85.4,106.27 	"/>
	<g>
		<polygon class="st13" points="97.75,104.97 98.6,106.69 100.51,106.97 99.13,108.31 99.45,110.21 97.75,109.31 96.05,110.21 
			96.37,108.31 94.99,106.97 96.9,106.69 		"/>
		<polygon class="st13" points="75.55,104.97 76.4,106.69 78.3,106.97 76.93,108.31 77.25,110.21 75.55,109.31 73.84,110.21 
			74.17,108.31 72.79,106.97 74.7,106.69 		"/>
	</g>
</g>
<g>
	<linearGradient id="SVGID_13_" gradientUnits="userSpaceOnUse" x1="86.6484" y1="-1.6697" x2="86.6484" y2="84.7105">
		<stop  offset="0" style="stop-color:#3A3A3A"/>
		<stop  offset="0.0859" style="stop-color:#666666"/>
		<stop  offset="0.3313" style="stop-color:#121212"/>
		<stop  offset="0.4172" style="stop-color:#202020"/>
		<stop  offset="0.6074" style="stop-color:#666666"/>
		<stop  offset="0.6993" style="stop-color:#525252"/>
		<stop  offset="0.7914" style="stop-color:#3A3A3A"/>
		<stop  offset="1" style="stop-color:#2C2C2C"/>
	</linearGradient>
	<path class="st14" d="M97.09,41.04c0-0.48-0.39-0.87-0.87-0.87H77.08c-0.48,0-0.87,0.39-0.87,0.87l0,0c0,0.48,0.39,0.87,0.87,0.87
		h19.14C96.7,41.9,97.09,41.51,97.09,41.04L97.09,41.04z"/>
	<linearGradient id="SVGID_14_" gradientUnits="userSpaceOnUse" x1="86.6485" y1="-1.6631" x2="86.6485" y2="84.7026">
		<stop  offset="0" style="stop-color:#3A3A3A"/>
		<stop  offset="0.0859" style="stop-color:#666666"/>
		<stop  offset="0.3313" style="stop-color:#121212"/>
		<stop  offset="0.4172" style="stop-color:#202020"/>
		<stop  offset="0.6074" style="stop-color:#666666"/>
		<stop  offset="0.6993" style="stop-color:#525252"/>
		<stop  offset="0.7914" style="stop-color:#3A3A3A"/>
		<stop  offset="1" style="stop-color:#2C2C2C"/>
	</linearGradient>
	<path class="st15" d="M102.62,27.3l-0.43-1.88l-2.38,5.55c-0.18-0.67-0.7-0.55-0.76,0.36c-0.72-1.06-2.07-0.28-1.51,0.87
		c-0.94-0.46-1.27,0.12-0.41,0.71c-1.28,0.09-1.28,1.66,0,1.75c-0.51,0.34-0.61,0.69-0.4,0.82c-0.48,0.32-1.01,0.55-1.57,0.61
		c-0.61-0.5-0.94-1.2-1.1-1.97c0.24,0.05,0.42-0.26,0.3-0.86c0.96,0.83,2.07-0.27,1.23-1.24c1.03,0.2,1.2-0.45,0.21-0.8
		c1.2-0.42,0.8-1.92-0.45-1.69c0.59-0.69,0.31-1.14-0.29-0.79l2.24-5.61l-1.63,1.03l0.67-4.46l-1.65,4.2l-0.9-1.7l-0.86,5.98
		c-0.35-0.6-0.82-0.35-0.65,0.54c-0.96-0.83-2.07,0.27-1.24,1.24c-1.03-0.2-1.2,0.46-0.21,0.8c-1.2,0.42-0.8,1.92,0.45,1.69
		c-0.41,0.47-0.4,0.83-0.17,0.9c-0.41,0.47-0.91,0.84-1.48,1.04c-0.66-0.33-1.13-0.9-1.47-1.57c0.24-0.01,0.34-0.36,0.07-0.91
		c1.15,0.55,1.93-0.8,0.87-1.51c1.04-0.07,1.04-0.75,0-0.82c1.05-0.72,0.27-2.07-0.87-1.51c0.4-0.82,0.01-1.18-0.49-0.69l0.71-6
		l-1.31,1.41l-0.5-4.48l-0.5,4.48l-1.31-1.41l0.71,5.99c-0.49-0.49-0.88-0.12-0.48,0.69c-1.15-0.55-1.93,0.79-0.88,1.51
		c-1.04,0.08-1.04,0.75,0,0.83c-1.05,0.72-0.28,2.07,0.87,1.51c-0.27,0.56-0.18,0.9,0.07,0.91c-0.34,0.67-0.81,1.24-1.47,1.57
		c-0.57-0.2-1.06-0.57-1.48-1.04c0.23-0.07,0.23-0.43-0.17-0.9c1.25,0.24,1.66-1.27,0.45-1.69c0.99-0.34,0.81-1-0.21-0.8
		c0.83-0.96-0.27-2.07-1.24-1.24c0.17-0.89-0.3-1.14-0.65-0.54L79.5,22.2l-0.9,1.7l-1.65-4.2l0.67,4.46L76,23.14l2.24,5.61
		c-0.6-0.34-0.88,0.11-0.29,0.79c-1.25-0.24-1.65,1.27-0.45,1.69c-0.99,0.34-0.81,1,0.21,0.8c-0.83,0.96,0.27,2.07,1.24,1.24
		c-0.12,0.61,0.06,0.91,0.3,0.86c-0.16,0.77-0.49,1.47-1.1,1.97c-0.56-0.07-1.08-0.29-1.57-0.61c0.2-0.13,0.11-0.48-0.4-0.82
		c1.27-0.09,1.27-1.66,0-1.75c0.86-0.58,0.53-1.17-0.41-0.71c0.56-1.15-0.8-1.93-1.51-0.87c-0.06-0.91-0.58-1.02-0.76-0.36
		l-2.38-5.55l-0.43,1.88L68,23.67l0.03,0.08l5.28,9.15c0,0,0,0,0.01-0.01c0.44-0.25,1.05-0.02,1.36,0.52
		c0.31,0.54,0.21,1.19-0.23,1.44c0,0,0,0-0.01,0l1.92,3.32c-0.1,0.16-0.16,0.36-0.16,0.58c0,0.56,0.39,1.01,0.87,1.01h19.14
		c0.48,0,0.87-0.45,0.87-1.01c0-0.22-0.06-0.42-0.16-0.58l1.92-3.32c0,0-0.01,0-0.01,0c-0.44-0.25-0.54-0.9-0.23-1.44
		c0.31-0.54,0.92-0.78,1.36-0.52c0,0,0.01,0,0.01,0.01l5.28-9.15l0.03-0.08L102.62,27.3z M92.41,30.85
		c0.16-0.61,0.69-0.99,1.18-0.86c0.49,0.13,0.75,0.73,0.59,1.33c-0.16,0.61-0.69,0.99-1.18,0.86
		C92.51,32.05,92.25,31.46,92.41,30.85z M86.65,28.94c0.5,0,0.92,0.51,0.92,1.13c0,0.63-0.41,1.13-0.92,1.13
		c-0.51,0-0.92-0.51-0.92-1.13C85.73,29.45,86.14,28.94,86.65,28.94z M79.12,31.32c-0.16-0.6,0.1-1.2,0.59-1.33
		c0.49-0.13,1.02,0.25,1.18,0.86c0.16,0.61-0.1,1.2-0.59,1.33C79.81,32.31,79.28,31.93,79.12,31.32z"/>
</g>
<g>
	<g>
		<polygon class="st13" points="40.44,37.92 50.38,38.1 60.32,38.28 60.32,37.92 60.32,37.55 50.38,37.74 		"/>
		<circle class="st13" cx="65.32" cy="37.92" r="1.62"/>
	</g>
	<g>
		<polygon class="st13" points="132.86,37.92 122.92,38.1 112.98,38.28 112.98,37.92 112.98,37.55 122.92,37.74 		"/>
		<circle class="st13" cx="107.98" cy="37.92" r="1.62"/>
	</g>
</g>
<g>
	<g>
		<polygon class="st13" points="40.44,107.59 50.38,107.77 60.32,107.95 60.32,107.59 60.32,107.22 50.38,107.41 		"/>
		<circle class="st13" cx="65.32" cy="107.59" r="1.62"/>
	</g>
	<g>
		<polygon class="st13" points="132.86,107.59 122.92,107.77 112.98,107.95 112.98,107.59 112.98,107.22 122.92,107.41 		"/>
		<circle class="st13" cx="107.98" cy="107.59" r="1.62"/>
	</g>
</g>
<g>
	<path d="M46.86,83.95c0.84,0.45,1.36,1.24,1.55,2.36h-1.15c-0.14-0.63-0.42-1.09-0.85-1.37s-0.98-0.43-1.64-0.43
		c-0.78,0-1.44,0.3-1.97,0.9s-0.8,1.49-0.8,2.67c0,1.02,0.22,1.86,0.66,2.5c0.44,0.64,1.16,0.96,2.15,0.96
		c0.76,0,1.39-0.23,1.89-0.68s0.76-1.18,0.77-2.19h-2.7V87.7h3.78v4.61h-0.75l-0.28-1.11c-0.39,0.43-0.73,0.73-1.03,0.9
		c-0.5,0.29-1.14,0.43-1.92,0.43c-1,0-1.87-0.33-2.59-0.99c-0.79-0.83-1.18-1.96-1.18-3.41c0-1.44,0.38-2.59,1.15-3.44
		c0.73-0.81,1.68-1.22,2.84-1.22C45.59,83.48,46.28,83.64,46.86,83.95z"/>
	<path d="M54.12,83.7v5.32c0,0.62,0.12,1.14,0.35,1.56c0.35,0.62,0.94,0.94,1.77,0.94c1,0,1.67-0.34,2.03-1.01
		c0.19-0.37,0.29-0.86,0.29-1.48V83.7h1.18v4.83c0,1.06-0.14,1.87-0.43,2.44c-0.53,1.04-1.52,1.56-2.98,1.56s-2.45-0.52-2.97-1.56
		c-0.29-0.57-0.43-1.38-0.43-2.44V83.7H54.12z"/>
	<path d="M66.43,83.7h1.32l3.12,8.61h-1.28l-0.87-2.58h-3.4l-0.93,2.58h-1.2L66.43,83.7z M68.34,88.78l-1.31-3.8l-1.39,3.8H68.34z"
		/>
	<path d="M74.47,83.7h3.91c0.64,0,1.18,0.1,1.59,0.29c0.79,0.37,1.19,1.04,1.19,2.03c0,0.52-0.11,0.94-0.32,1.27
		s-0.51,0.59-0.89,0.79c0.34,0.14,0.59,0.32,0.76,0.54S80.98,89.2,81,89.7l0.04,1.15c0.01,0.33,0.04,0.57,0.08,0.73
		c0.07,0.27,0.2,0.45,0.38,0.53v0.19h-1.43c-0.04-0.07-0.07-0.17-0.09-0.29s-0.04-0.34-0.06-0.68l-0.07-1.44
		c-0.03-0.56-0.23-0.94-0.61-1.13c-0.22-0.11-0.56-0.16-1.02-0.16h-2.58v3.69h-1.17V83.7z M78.26,87.65c0.53,0,0.95-0.11,1.26-0.33
		s0.46-0.61,0.46-1.18c0-0.61-0.22-1.03-0.65-1.25c-0.23-0.12-0.54-0.18-0.93-0.18h-2.77v2.94H78.26z"/>
	<path d="M87.9,83.7h1.32l3.12,8.61h-1.28l-0.87-2.58h-3.4l-0.93,2.58h-1.2L87.9,83.7z M89.82,88.78l-1.31-3.8l-1.39,3.8H89.82z"/>
	<path d="M95.8,83.7h1.37l4.29,6.95V83.7h1.11v8.61h-1.31l-4.36-6.95v6.95H95.8V83.7z"/>
	<path d="M113.12,83.7v1.03h-2.9v7.58h-1.18v-7.58h-2.9V83.7H113.12z"/>
	<path d="M116.71,83.7h6.25v1.05h-5.11v2.61h4.72v1h-4.72v2.92h5.2v1.03h-6.33V83.7z"/>
	<path d="M127.11,83.7h6.25v1.05h-5.11v2.61h4.72v1h-4.72v2.92h5.2v1.03h-6.33V83.7z"/>
</g>
<linearGradient id="SVGID_15_" gradientUnits="userSpaceOnUse" x1="21.7618" y1="63.4569" x2="136.2735" y2="53.7319">
	<stop  offset="0" style="stop-color:#DBB154"/>
	<stop  offset="0.0859" style="stop-color:#E1C781"/>
	<stop  offset="0.1656" style="stop-color:#8E5421"/>
	<stop  offset="0.2883" style="stop-color:#C67C23"/>
	<stop  offset="0.4724" style="stop-color:#E1C781"/>
	<stop  offset="0.5956" style="stop-color:#DEBD6D"/>
	<stop  offset="0.7239" style="stop-color:#DBB154"/>
	<stop  offset="1" style="stop-color:#D49961"/>
</linearGradient>
<path class="st16" d="M30.65,53.41h3.52v14.53h6.75v3.18H30.65V53.41z"/>
<linearGradient id="SVGID_16_" gradientUnits="userSpaceOnUse" x1="19.5626" y1="64.5491" x2="152.031" y2="53.2991">
	<stop  offset="0" style="stop-color:#DBB154"/>
	<stop  offset="0.0859" style="stop-color:#E1C781"/>
	<stop  offset="0.1656" style="stop-color:#8E5421"/>
	<stop  offset="0.2883" style="stop-color:#C67C23"/>
	<stop  offset="0.4724" style="stop-color:#E1C781"/>
	<stop  offset="0.5956" style="stop-color:#DEBD6D"/>
	<stop  offset="0.7239" style="stop-color:#DBB154"/>
	<stop  offset="1" style="stop-color:#D49961"/>
</linearGradient>
<path class="st17" d="M48.19,71.12H44.7V53.41h3.49V71.12z"/>
<linearGradient id="SVGID_17_" gradientUnits="userSpaceOnUse" x1="19.6197" y1="65.2218" x2="152.0882" y2="53.9718">
	<stop  offset="0" style="stop-color:#DBB154"/>
	<stop  offset="0.0859" style="stop-color:#E1C781"/>
	<stop  offset="0.1656" style="stop-color:#8E5421"/>
	<stop  offset="0.2883" style="stop-color:#C67C23"/>
	<stop  offset="0.4724" style="stop-color:#E1C781"/>
	<stop  offset="0.5956" style="stop-color:#DEBD6D"/>
	<stop  offset="0.7239" style="stop-color:#DBB154"/>
	<stop  offset="1" style="stop-color:#D49961"/>
</linearGradient>
<path class="st18" d="M52.54,53.43h12v3.11h-8.5v4.07h7.46v3.08h-7.46v7.43h-3.49V53.43z"/>
<linearGradient id="SVGID_18_" gradientUnits="userSpaceOnUse" x1="19.7623" y1="66.9016" x2="152.2308" y2="55.6516">
	<stop  offset="0" style="stop-color:#DBB154"/>
	<stop  offset="0.0859" style="stop-color:#E1C781"/>
	<stop  offset="0.1656" style="stop-color:#8E5421"/>
	<stop  offset="0.2883" style="stop-color:#C67C23"/>
	<stop  offset="0.4724" style="stop-color:#E1C781"/>
	<stop  offset="0.5956" style="stop-color:#DEBD6D"/>
	<stop  offset="0.7239" style="stop-color:#DBB154"/>
	<stop  offset="1" style="stop-color:#D49961"/>
</linearGradient>
<path class="st19" d="M80.31,56.55h-8.9v3.76h8.17v3.08h-8.17v4.55h9.32v3.18H67.97V53.41h12.34V56.55z"/>
<linearGradient id="SVGID_19_" gradientUnits="userSpaceOnUse" x1="19.8559" y1="68.0029" x2="152.3244" y2="56.753">
	<stop  offset="0" style="stop-color:#DBB154"/>
	<stop  offset="0.0859" style="stop-color:#E1C781"/>
	<stop  offset="0.1656" style="stop-color:#8E5421"/>
	<stop  offset="0.2883" style="stop-color:#C67C23"/>
	<stop  offset="0.4724" style="stop-color:#E1C781"/>
	<stop  offset="0.5956" style="stop-color:#DEBD6D"/>
	<stop  offset="0.7239" style="stop-color:#DBB154"/>
	<stop  offset="1" style="stop-color:#D49961"/>
</linearGradient>
<path class="st20" d="M96.74,53.41v3.14h-5.03v14.58h-3.54V56.55h-5.06v-3.14H96.74z"/>
<linearGradient id="SVGID_20_" gradientUnits="userSpaceOnUse" x1="19.9554" y1="69.1751" x2="152.4239" y2="57.9251">
	<stop  offset="0" style="stop-color:#DBB154"/>
	<stop  offset="0.0859" style="stop-color:#E1C781"/>
	<stop  offset="0.1656" style="stop-color:#8E5421"/>
	<stop  offset="0.2883" style="stop-color:#C67C23"/>
	<stop  offset="0.4724" style="stop-color:#E1C781"/>
	<stop  offset="0.5956" style="stop-color:#DEBD6D"/>
	<stop  offset="0.7239" style="stop-color:#DBB154"/>
	<stop  offset="1" style="stop-color:#D49961"/>
</linearGradient>
<path class="st21" d="M103.06,71.12h-3.49V53.41h3.49V71.12z"/>
<linearGradient id="SVGID_21_" gradientUnits="userSpaceOnUse" x1="20.0569" y1="70.3699" x2="152.5254" y2="59.1199">
	<stop  offset="0" style="stop-color:#DBB154"/>
	<stop  offset="0.0859" style="stop-color:#E1C781"/>
	<stop  offset="0.1656" style="stop-color:#8E5421"/>
	<stop  offset="0.2883" style="stop-color:#C67C23"/>
	<stop  offset="0.4724" style="stop-color:#E1C781"/>
	<stop  offset="0.5956" style="stop-color:#DEBD6D"/>
	<stop  offset="0.7239" style="stop-color:#DBB154"/>
	<stop  offset="1" style="stop-color:#D49961"/>
</linearGradient>
<path class="st22" d="M118.56,53.41h5.06v17.71h-3.28V59.14c0-0.34,0-0.83,0.01-1.45c0.01-0.62,0.01-1.1,0.01-1.44l-3.19,14.87
	h-3.42l-3.17-14.87c0,0.34,0,0.82,0.01,1.44c0.01,0.62,0.01,1.1,0.01,1.45v11.98h-3.28V53.41h5.12l3.06,13.93L118.56,53.41z"/>
<linearGradient id="SVGID_22_" gradientUnits="userSpaceOnUse" x1="20.1924" y1="71.9656" x2="152.6609" y2="60.7156">
	<stop  offset="0" style="stop-color:#DBB154"/>
	<stop  offset="0.0859" style="stop-color:#E1C781"/>
	<stop  offset="0.1656" style="stop-color:#8E5421"/>
	<stop  offset="0.2883" style="stop-color:#C67C23"/>
	<stop  offset="0.4724" style="stop-color:#E1C781"/>
	<stop  offset="0.5956" style="stop-color:#DEBD6D"/>
	<stop  offset="0.7239" style="stop-color:#DBB154"/>
	<stop  offset="1" style="stop-color:#D49961"/>
</linearGradient>
<path class="st23" d="M140.37,56.55h-8.9v3.76h8.17v3.08h-8.17v4.55h9.32v3.18h-12.75V53.41h12.34V56.55z"/>
<linearGradient id="SVGID_23_" gradientUnits="userSpaceOnUse" x1="22.7618" y1="63.4569" x2="137.2735" y2="53.7319">
	<stop  offset="0" style="stop-color:#D9D7C5"/>
	<stop  offset="0.2941" style="stop-color:#F1EDE3"/>
	<stop  offset="0.4142" style="stop-color:#EBE7DC"/>
	<stop  offset="0.5881" style="stop-color:#D9D6C9"/>
	<stop  offset="0.7485" style="stop-color:#C4C2B1"/>
	<stop  offset="0.9816" style="stop-color:#DAD7C5"/>
</linearGradient>
<path class="st24" d="M31.65,53.41h3.52v14.53h6.75v3.18H31.65V53.41z"/>
<linearGradient id="SVGID_24_" gradientUnits="userSpaceOnUse" x1="20.5626" y1="64.5491" x2="153.031" y2="53.2991">
	<stop  offset="0" style="stop-color:#D9D7C5"/>
	<stop  offset="0.2941" style="stop-color:#F1EDE3"/>
	<stop  offset="0.4142" style="stop-color:#EBE7DC"/>
	<stop  offset="0.5881" style="stop-color:#D9D6C9"/>
	<stop  offset="0.7485" style="stop-color:#C4C2B1"/>
	<stop  offset="0.9816" style="stop-color:#DAD7C5"/>
</linearGradient>
<path class="st25" d="M49.19,71.12H45.7V53.41h3.49V71.12z"/>
<linearGradient id="SVGID_25_" gradientUnits="userSpaceOnUse" x1="20.6197" y1="65.2218" x2="153.0882" y2="53.9718">
	<stop  offset="0" style="stop-color:#D9D7C5"/>
	<stop  offset="0.2941" style="stop-color:#F1EDE3"/>
	<stop  offset="0.4142" style="stop-color:#EBE7DC"/>
	<stop  offset="0.5881" style="stop-color:#D9D6C9"/>
	<stop  offset="0.7485" style="stop-color:#C4C2B1"/>
	<stop  offset="0.9816" style="stop-color:#DAD7C5"/>
</linearGradient>
<path class="st26" d="M53.54,53.43h12v3.11h-8.5v4.07h7.46v3.08h-7.46v7.43h-3.49V53.43z"/>
<linearGradient id="SVGID_26_" gradientUnits="userSpaceOnUse" x1="20.7623" y1="66.9016" x2="153.2308" y2="55.6516">
	<stop  offset="0" style="stop-color:#D9D7C5"/>
	<stop  offset="0.2941" style="stop-color:#F1EDE3"/>
	<stop  offset="0.4142" style="stop-color:#EBE7DC"/>
	<stop  offset="0.5881" style="stop-color:#D9D6C9"/>
	<stop  offset="0.7485" style="stop-color:#C4C2B1"/>
	<stop  offset="0.9816" style="stop-color:#DAD7C5"/>
</linearGradient>
<path class="st27" d="M81.31,56.55h-8.9v3.76h8.17v3.08h-8.17v4.55h9.32v3.18H68.97V53.41h12.34V56.55z"/>
<linearGradient id="SVGID_27_" gradientUnits="userSpaceOnUse" x1="20.8559" y1="68.0029" x2="153.3244" y2="56.753">
	<stop  offset="0" style="stop-color:#D9D7C5"/>
	<stop  offset="0.2941" style="stop-color:#F1EDE3"/>
	<stop  offset="0.4142" style="stop-color:#EBE7DC"/>
	<stop  offset="0.5881" style="stop-color:#D9D6C9"/>
	<stop  offset="0.7485" style="stop-color:#C4C2B1"/>
	<stop  offset="0.9816" style="stop-color:#DAD7C5"/>
</linearGradient>
<path class="st28" d="M97.74,53.41v3.14h-5.03v14.58h-3.54V56.55h-5.06v-3.14H97.74z"/>
<linearGradient id="SVGID_28_" gradientUnits="userSpaceOnUse" x1="20.9554" y1="69.1751" x2="153.4239" y2="57.9251">
	<stop  offset="0" style="stop-color:#D9D7C5"/>
	<stop  offset="0.2941" style="stop-color:#F1EDE3"/>
	<stop  offset="0.4142" style="stop-color:#EBE7DC"/>
	<stop  offset="0.5881" style="stop-color:#D9D6C9"/>
	<stop  offset="0.7485" style="stop-color:#C4C2B1"/>
	<stop  offset="0.9816" style="stop-color:#DAD7C5"/>
</linearGradient>
<path class="st29" d="M104.06,71.12h-3.49V53.41h3.49V71.12z"/>
<linearGradient id="SVGID_29_" gradientUnits="userSpaceOnUse" x1="21.0569" y1="70.3699" x2="153.5254" y2="59.1199">
	<stop  offset="0" style="stop-color:#D9D7C5"/>
	<stop  offset="0.2941" style="stop-color:#F1EDE3"/>
	<stop  offset="0.4142" style="stop-color:#EBE7DC"/>
	<stop  offset="0.5881" style="stop-color:#D9D6C9"/>
	<stop  offset="0.7485" style="stop-color:#C4C2B1"/>
	<stop  offset="0.9816" style="stop-color:#DAD7C5"/>
</linearGradient>
<path class="st30" d="M119.56,53.41h5.06v17.71h-3.28V59.14c0-0.34,0-0.83,0.01-1.45c0.01-0.62,0.01-1.1,0.01-1.44l-3.19,14.87
	h-3.42l-3.17-14.87c0,0.34,0,0.82,0.01,1.44c0.01,0.62,0.01,1.1,0.01,1.45v11.98h-3.28V53.41h5.12l3.06,13.93L119.56,53.41z"/>
<linearGradient id="SVGID_30_" gradientUnits="userSpaceOnUse" x1="21.1924" y1="71.9656" x2="153.6609" y2="60.7156">
	<stop  offset="0" style="stop-color:#D9D7C5"/>
	<stop  offset="0.2941" style="stop-color:#F1EDE3"/>
	<stop  offset="0.4142" style="stop-color:#EBE7DC"/>
	<stop  offset="0.5881" style="stop-color:#D9D6C9"/>
	<stop  offset="0.7485" style="stop-color:#C4C2B1"/>
	<stop  offset="0.9816" style="stop-color:#DAD7C5"/>
</linearGradient>
<path class="st31" d="M141.37,56.55h-8.9v3.76h8.17v3.08h-8.17v4.55h9.32v3.18h-12.75V53.41h12.34V56.55z"/>
<linearGradient id="SVGID_31_" gradientUnits="userSpaceOnUse" x1="152.1011" y1="67.6826" x2="17.6638" y2="61.4951">
	<stop  offset="0" style="stop-color:#090000"/>
	<stop  offset="0.1876" style="stop-color:#45403C"/>
	<stop  offset="0.335" style="stop-color:#4F4946"/>
	<stop  offset="0.5395" style="stop-color:#645C5B"/>
	<stop  offset="0.7914" style="stop-color:#2A1B13"/>
</linearGradient>
<path class="st32" d="M32.65,53.41h3.52v14.53h6.75v3.18H32.65V53.41z"/>
<linearGradient id="SVGID_32_" gradientUnits="userSpaceOnUse" x1="152.1307" y1="67.0379" x2="17.6935" y2="60.8505">
	<stop  offset="0" style="stop-color:#090000"/>
	<stop  offset="0.1876" style="stop-color:#45403C"/>
	<stop  offset="0.335" style="stop-color:#4F4946"/>
	<stop  offset="0.5395" style="stop-color:#645C5B"/>
	<stop  offset="0.7914" style="stop-color:#2A1B13"/>
</linearGradient>
<path class="st33" d="M50.19,71.12H46.7V53.41h3.49V71.12z"/>
<linearGradient id="SVGID_33_" gradientUnits="userSpaceOnUse" x1="152.1557" y1="66.495" x2="17.7185" y2="60.3075">
	<stop  offset="0" style="stop-color:#090000"/>
	<stop  offset="0.1876" style="stop-color:#45403C"/>
	<stop  offset="0.335" style="stop-color:#4F4946"/>
	<stop  offset="0.5395" style="stop-color:#645C5B"/>
	<stop  offset="0.7914" style="stop-color:#2A1B13"/>
</linearGradient>
<path class="st34" d="M54.54,53.43h12v3.11h-8.5v4.07h7.46v3.08h-7.46v7.43h-3.49V53.43z"/>
<linearGradient id="SVGID_34_" gradientUnits="userSpaceOnUse" x1="152.1893" y1="65.766" x2="17.752" y2="59.5785">
	<stop  offset="0" style="stop-color:#090000"/>
	<stop  offset="0.1876" style="stop-color:#45403C"/>
	<stop  offset="0.335" style="stop-color:#4F4946"/>
	<stop  offset="0.5395" style="stop-color:#645C5B"/>
	<stop  offset="0.7914" style="stop-color:#2A1B13"/>
</linearGradient>
<path class="st35" d="M82.31,56.55h-8.9v3.76h8.17v3.08h-8.17v4.55h9.32v3.18H69.97V53.41h12.34V56.55z"/>
<linearGradient id="SVGID_35_" gradientUnits="userSpaceOnUse" x1="152.228" y1="64.9249" x2="17.7908" y2="58.7374">
	<stop  offset="0" style="stop-color:#090000"/>
	<stop  offset="0.1876" style="stop-color:#45403C"/>
	<stop  offset="0.335" style="stop-color:#4F4946"/>
	<stop  offset="0.5395" style="stop-color:#645C5B"/>
	<stop  offset="0.7914" style="stop-color:#2A1B13"/>
</linearGradient>
<path class="st36" d="M98.74,53.41v3.14h-5.03v14.58h-3.54V56.55h-5.06v-3.14H98.74z"/>
<linearGradient id="SVGID_36_" gradientUnits="userSpaceOnUse" x1="152.2467" y1="64.5181" x2="17.8095" y2="58.3307">
	<stop  offset="0" style="stop-color:#090000"/>
	<stop  offset="0.1876" style="stop-color:#45403C"/>
	<stop  offset="0.335" style="stop-color:#4F4946"/>
	<stop  offset="0.5395" style="stop-color:#645C5B"/>
	<stop  offset="0.7914" style="stop-color:#2A1B13"/>
</linearGradient>
<path class="st37" d="M105.06,71.12h-3.49V53.41h3.49V71.12z"/>
<linearGradient id="SVGID_37_" gradientUnits="userSpaceOnUse" x1="152.2767" y1="63.8674" x2="17.8394" y2="57.6799">
	<stop  offset="0" style="stop-color:#090000"/>
	<stop  offset="0.1876" style="stop-color:#45403C"/>
	<stop  offset="0.335" style="stop-color:#4F4946"/>
	<stop  offset="0.5395" style="stop-color:#645C5B"/>
	<stop  offset="0.7914" style="stop-color:#2A1B13"/>
</linearGradient>
<path class="st38" d="M120.56,53.41h5.06v17.71h-3.28V59.14c0-0.34,0-0.83,0.01-1.45c0.01-0.62,0.01-1.1,0.01-1.44l-3.19,14.87
	h-3.42l-3.17-14.87c0,0.34,0,0.82,0.01,1.44c0.01,0.62,0.01,1.1,0.01,1.45v11.98h-3.28V53.41h5.12l3.06,13.93L120.56,53.41z"/>
<linearGradient id="SVGID_38_" gradientUnits="userSpaceOnUse" x1="152.3162" y1="63.0076" x2="17.879" y2="56.8201">
	<stop  offset="0" style="stop-color:#090000"/>
	<stop  offset="0.1876" style="stop-color:#45403C"/>
	<stop  offset="0.335" style="stop-color:#4F4946"/>
	<stop  offset="0.5395" style="stop-color:#645C5B"/>
	<stop  offset="0.7914" style="stop-color:#2A1B13"/>
</linearGradient>
<path class="st39" d="M142.37,56.55h-8.9v3.76h8.17v3.08h-8.17v4.55h9.32v3.18h-12.75V53.41h12.34V56.55z"/>
</svg>
