<?xml version="1.0" encoding="utf-8"?>
<!-- Generator: Adobe Illustrator 25.2.1, SVG Export Plug-In . SVG Version: 6.00 Build 0)  -->
<svg version="1.1" id="Слой_1" xmlns="http://www.w3.org/2000/svg" xmlns:xlink="http://www.w3.org/1999/xlink" x="0px" y="0px"
	 viewBox="0 0 420 420" style="enable-background:new 0 0 420 420;" xml:space="preserve">
<style type="text/css">
	.st0{fill:#CCCCCC;}
	.st1{fill:url(#SVGID_1_);}
	.st2{fill:#FAF2E6;}
	.st3{fill:url(#SVGID_2_);}
	.st4{fill:url(#SVGID_3_);}
	.st5{fill:url(#SVGID_4_);}
	.st6{fill:url(#SVGID_5_);}
	.st7{fill:url(#SVGID_6_);}
	.st8{fill:url(#SVGID_7_);}
	.st9{fill:url(#SVGID_8_);}
	.st10{fill:url(#SVGID_9_);}
	.st11{fill:url(#SVGID_10_);}
	.st12{fill:url(#SVGID_11_);}
	.st13{fill:url(#SVGID_12_);}
	.st14{fill:url(#SVGID_13_);}
	.st15{fill:url(#SVGID_14_);}
	.st16{fill:url(#SVGID_15_);}
	.st17{fill:url(#SVGID_16_);}
	.st18{fill:url(#SVGID_17_);}
	.st19{fill:url(#SVGID_18_);}
	.st20{fill:url(#SVGID_19_);}
	.st21{fill:#090000;}
	.st22{fill:url(#SVGID_20_);}
	.st23{fill:url(#SVGID_21_);}
	.st24{fill:url(#SVGID_22_);}
	.st25{fill:url(#SVGID_23_);}
	.st26{fill:url(#SVGID_24_);}
	.st27{fill:url(#SVGID_25_);}
	.st28{fill:url(#SVGID_26_);}
	.st29{fill:url(#SVGID_27_);}
	.st30{fill:url(#SVGID_28_);}
	.st31{fill:url(#SVGID_29_);}
	.st32{fill:url(#SVGID_30_);}
	.st33{fill:url(#SVGID_31_);}
	.st34{fill:url(#SVGID_32_);}
	.st35{fill:url(#SVGID_33_);}
	.st36{fill:url(#SVGID_34_);}
	.st37{fill:url(#SVGID_35_);}
	.st38{fill:url(#SVGID_36_);}
	.st39{fill:url(#SVGID_37_);}
	.st40{fill:url(#SVGID_38_);}
	.st41{fill:url(#SVGID_39_);}
	.st42{fill:url(#SVGID_40_);}
	.st43{fill:url(#SVGID_41_);}
	.st44{fill:url(#SVGID_42_);}
	.st45{fill:url(#SVGID_43_);}
	.st46{fill:url(#SVGID_44_);}
	.st47{fill:url(#SVGID_45_);}
	.st48{fill:url(#SVGID_46_);}
	.st49{fill:url(#SVGID_47_);}
	.st50{fill:url(#SVGID_48_);}
	.st51{fill:url(#SVGID_49_);}
	.st52{fill:url(#SVGID_50_);}
	.st53{fill:url(#SVGID_51_);}
	.st54{fill:url(#SVGID_52_);}
	.st55{fill:url(#SVGID_53_);}
	.st56{fill:url(#SVGID_54_);}
	.st57{fill:url(#SVGID_55_);}
	.st58{fill:url(#SVGID_56_);}
	.st59{fill:url(#SVGID_57_);}
	.st60{fill:url(#SVGID_58_);}
	.st61{fill:url(#SVGID_59_);}
	.st62{fill:url(#SVGID_60_);}
	.st63{fill:url(#SVGID_61_);}
</style>
<g>
	<path class="st0" d="M5.81,146.18c0-9.69,8.28-19.66,18.39-22.17l170.81-42.33c10.12-2.5,26.66-2.5,36.77,0l170.82,42.33
		c10.11,2.51,18.39,12.48,18.39,22.17v130.16c0,9.69-8.28,19.66-18.39,22.17l-170.82,42.32c-10.11,2.51-26.66,2.51-36.77,0
		L24.2,298.51C14.09,296,5.81,286.03,5.81,276.34V146.18z"/>
	<linearGradient id="SVGID_1_" gradientUnits="userSpaceOnUse" x1="1" y1="206.4488" x2="416.1897" y2="206.4488">
		<stop  offset="0" style="stop-color:#090000"/>
		<stop  offset="0.1876" style="stop-color:#45403C"/>
		<stop  offset="0.335" style="stop-color:#4F4946"/>
		<stop  offset="0.5395" style="stop-color:#645C5B"/>
		<stop  offset="0.7914" style="stop-color:#2A1B13"/>
	</linearGradient>
	<path class="st1" d="M1,141.37c0-9.69,8.28-19.66,18.39-22.17L190.2,76.87c10.12-2.5,26.66-2.5,36.77,0L397.8,119.2
		c10.11,2.51,18.39,12.48,18.39,22.17v130.16c0,9.68-8.28,19.66-18.39,22.17l-170.82,42.32c-10.11,2.51-26.66,2.51-36.77,0
		L19.39,293.7C9.28,291.19,1,281.22,1,271.53V141.37z"/>
	<path class="st2" d="M208.59,327.69c-6.07,0-11.88-0.58-15.93-1.58L21.84,283.78c-5.56-1.38-10.63-7.22-10.63-12.25V141.37
		c0-5.03,5.07-10.87,10.64-12.26l170.81-42.33c4.05-1,9.86-1.58,15.93-1.58c6.07,0,11.88,0.57,15.93,1.58l170.82,42.33
		c5.56,1.38,10.63,7.22,10.63,12.25v130.16c0,5.03-5.07,10.87-10.63,12.25l-170.82,42.33C220.47,327.11,214.66,327.69,208.59,327.69
		L208.59,327.69z"/>
	<linearGradient id="SVGID_2_" gradientUnits="userSpaceOnUse" x1="15.298" y1="206.449" x2="401.8916" y2="206.449">
		<stop  offset="0" style="stop-color:#DBB154"/>
		<stop  offset="0.0859" style="stop-color:#F8E28F"/>
		<stop  offset="0.3313" style="stop-color:#B58A21"/>
		<stop  offset="0.4172" style="stop-color:#C89629"/>
		<stop  offset="0.6074" style="stop-color:#F8E28F"/>
		<stop  offset="0.6786" style="stop-color:#EED27B"/>
		<stop  offset="0.7914" style="stop-color:#DBB154"/>
		<stop  offset="1" style="stop-color:#D49961"/>
	</linearGradient>
	<path class="st3" d="M208.59,323.6c-5.76,0-11.21-0.53-14.95-1.46L22.83,279.82c-3.98-0.99-7.53-5.46-7.53-8.29V141.37
		c0-2.83,3.55-7.3,7.53-8.29l170.81-42.33c3.74-0.92,9.19-1.46,14.95-1.46s11.21,0.53,14.95,1.46l170.82,42.33
		c3.98,0.99,7.53,5.46,7.53,8.29v130.16c0,2.83-3.54,7.3-7.53,8.29l-170.82,42.32C219.79,323.07,214.35,323.6,208.59,323.6
		L208.59,323.6z"/>
	<linearGradient id="SVGID_3_" gradientUnits="userSpaceOnUse" x1="19.0288" y1="206.449" x2="398.1611" y2="206.449">
		<stop  offset="0" style="stop-color:#D9D7C5"/>
		<stop  offset="0.2941" style="stop-color:#F1EDE3"/>
		<stop  offset="0.4142" style="stop-color:#EBE7DC"/>
		<stop  offset="0.5881" style="stop-color:#D9D6C9"/>
		<stop  offset="0.7485" style="stop-color:#C4C2B1"/>
		<stop  offset="0.9816" style="stop-color:#DAD7C5"/>
	</linearGradient>
	<path class="st4" d="M208.59,319.87c-5.39,0-10.64-0.5-14.05-1.35L23.73,276.19c-2.38-0.59-4.58-3.49-4.7-4.72l0-130.11
		c0.12-1.18,2.32-4.08,4.7-4.67l170.81-42.33c3.41-0.84,8.66-1.35,14.05-1.35c5.39,0,10.64,0.5,14.06,1.35l170.82,42.33
		c2.38,0.59,4.58,3.49,4.69,4.72l0,130.11c-0.12,1.18-2.32,4.07-4.7,4.66l-170.82,42.32C219.23,319.37,213.98,319.87,208.59,319.87
		L208.59,319.87z"/>
</g>
<g>
	<linearGradient id="SVGID_4_" gradientUnits="userSpaceOnUse" x1="98.7144" y1="115.978" x2="318.4753" y2="115.978">
		<stop  offset="0" style="stop-color:#090000"/>
		<stop  offset="0.1876" style="stop-color:#413C39"/>
		<stop  offset="0.335" style="stop-color:#4B4543"/>
		<stop  offset="0.5395" style="stop-color:#605857"/>
		<stop  offset="0.7914" style="stop-color:#261811"/>
	</linearGradient>
	<path class="st5" d="M193.25,108.85c3.69-0.77,9.43-1.23,15.35-1.23c5.92,0,11.66,0.46,15.35,1.23l94.53,19.71l-96.34-23.87
		c-3.26-0.81-8.32-1.29-13.55-1.29s-10.29,0.48-13.54,1.28l-96.34,23.87L193.25,108.85z"/>
</g>
<g>
	<g>
		
			<linearGradient id="SVGID_5_" gradientUnits="userSpaceOnUse" x1="144.5359" y1="162.3229" x2="275.5422" y2="162.3229" gradientTransform="matrix(1 0 0 1 -1.6504 0)">
			<stop  offset="0" style="stop-color:#DBB154"/>
			<stop  offset="0.0859" style="stop-color:#E1C781"/>
			<stop  offset="0.1656" style="stop-color:#8E5421"/>
			<stop  offset="0.2883" style="stop-color:#C67C23"/>
			<stop  offset="0.4724" style="stop-color:#E1C781"/>
			<stop  offset="0.5956" style="stop-color:#DEBD6D"/>
			<stop  offset="0.7239" style="stop-color:#DBB154"/>
			<stop  offset="1" style="stop-color:#D49961"/>
		</linearGradient>
		<path class="st6" d="M154.9,179.09l5.35-0.02l0.02,3.53l-14.69,0.07l-0.02-3.53l5.35-0.02l-0.16-33.87l-7.86,0.04l-0.02-3.24
			l11.84-0.05L154.9,179.09z"/>
		
			<linearGradient id="SVGID_6_" gradientUnits="userSpaceOnUse" x1="144.5351" y1="162.0391" x2="275.5434" y2="162.0391" gradientTransform="matrix(1 0 0 1 -1.6504 0)">
			<stop  offset="0" style="stop-color:#DBB154"/>
			<stop  offset="0.0859" style="stop-color:#E1C781"/>
			<stop  offset="0.1656" style="stop-color:#8E5421"/>
			<stop  offset="0.2883" style="stop-color:#C67C23"/>
			<stop  offset="0.4724" style="stop-color:#E1C781"/>
			<stop  offset="0.5956" style="stop-color:#DEBD6D"/>
			<stop  offset="0.7239" style="stop-color:#DBB154"/>
			<stop  offset="1" style="stop-color:#D49961"/>
		</linearGradient>
		<path class="st7" d="M194.52,168.32c0.02,3.98-0.82,7.23-3.54,10.26c-2.72,2.91-6.53,4.7-10.57,4.72
			c-3.76,0.02-7.35-1.5-10.04-4.11c-3.15-3.06-4.19-6.47-4.21-10.74l-0.06-12.69c-0.02-3.98,0.82-7.23,3.6-10.21
			c2.72-2.97,6.52-4.76,10.51-4.77c3.76-0.02,7.41,1.5,10.04,4.11c3.15,3.06,4.19,6.47,4.21,10.74L194.52,168.32z M170.21,168.43
			c0.02,2.73,0.37,5.01,2.08,7.22c1.89,2.55,4.97,3.96,8.1,3.94c3.24-0.02,6.43-1.57,8.29-4.19c1.53-2.23,1.8-4.39,1.79-7.07
			l-0.06-12.64c-0.01-2.73-0.31-5.01-2.03-7.22c-1.89-2.55-4.97-3.96-8.16-3.95c-3.19,0.02-6.37,1.57-8.23,4.25
			c-1.53,2.17-1.86,4.34-1.84,7.01L170.21,168.43z"/>
		
			<linearGradient id="SVGID_7_" gradientUnits="userSpaceOnUse" x1="144.5346" y1="161.8837" x2="275.5424" y2="161.8837" gradientTransform="matrix(1 0 0 1 -1.6504 0)">
			<stop  offset="0" style="stop-color:#DBB154"/>
			<stop  offset="0.0859" style="stop-color:#E1C781"/>
			<stop  offset="0.1656" style="stop-color:#8E5421"/>
			<stop  offset="0.2883" style="stop-color:#C67C23"/>
			<stop  offset="0.4724" style="stop-color:#E1C781"/>
			<stop  offset="0.5956" style="stop-color:#DEBD6D"/>
			<stop  offset="0.7239" style="stop-color:#DBB154"/>
			<stop  offset="1" style="stop-color:#D49961"/>
		</linearGradient>
		<path class="st8" d="M227.53,168.17c0.02,3.98-0.82,7.23-3.54,10.26c-2.72,2.92-6.52,4.7-10.57,4.72
			c-3.76,0.02-7.35-1.5-10.04-4.11c-3.15-3.06-4.19-6.47-4.21-10.74l-0.06-12.69c-0.02-3.98,0.82-7.23,3.59-10.21
			c2.72-2.97,6.52-4.76,10.51-4.77c3.76-0.02,7.41,1.5,10.04,4.11c3.14,3.06,4.19,6.47,4.21,10.74L227.53,168.17z M203.23,168.28
			c0.01,2.73,0.37,5.01,2.08,7.22c1.89,2.55,4.97,3.96,8.1,3.95c3.24-0.02,6.43-1.57,8.29-4.19c1.53-2.23,1.8-4.39,1.79-7.07
			l-0.06-12.64c-0.01-2.73-0.31-5.01-2.03-7.22c-1.89-2.55-4.97-3.96-8.16-3.95c-3.19,0.02-6.37,1.57-8.24,4.25
			c-1.53,2.17-1.86,4.34-1.84,7.01L203.23,168.28z"/>
		
			<linearGradient id="SVGID_8_" gradientUnits="userSpaceOnUse" x1="144.5356" y1="161.7821" x2="275.541" y2="161.7821" gradientTransform="matrix(1 0 0 1 -1.6504 0)">
			<stop  offset="0" style="stop-color:#DBB154"/>
			<stop  offset="0.0859" style="stop-color:#E1C781"/>
			<stop  offset="0.1656" style="stop-color:#8E5421"/>
			<stop  offset="0.2883" style="stop-color:#C67C23"/>
			<stop  offset="0.4724" style="stop-color:#E1C781"/>
			<stop  offset="0.5956" style="stop-color:#DEBD6D"/>
			<stop  offset="0.7239" style="stop-color:#DBB154"/>
			<stop  offset="1" style="stop-color:#D49961"/>
		</linearGradient>
		<path class="st9" d="M232,149.98c-0.02-5.18,4.34-9.24,9.41-9.27c5.12-0.02,9.36,4.23,9.38,9.35c0.02,5.24-4.11,9.47-9.35,9.49
			C236.08,159.59,232.02,155.22,232,149.98z M247.54,150.02c-0.02-3.24-2.82-6.02-6.06-6.01c-3.3,0.02-6.19,2.59-6.18,5.95
			c0.02,3.47,2.65,6.31,6.18,6.29C244.89,156.24,247.55,153.44,247.54,150.02z M242.45,182.21l17.85-40.73l3.24-0.02l-17.8,40.73
			L242.45,182.21z M255.05,173.27c-0.02-5.18,4.34-9.24,9.41-9.27c5.18-0.02,9.41,4.17,9.44,9.35c0.02,5.18-4.11,9.47-9.35,9.49
			C259.19,182.87,255.07,178.51,255.05,173.27z M270.59,173.31c-0.02-3.3-2.76-6.02-6.06-6.01c-3.3,0.02-6.13,2.59-6.12,5.95
			c0.02,3.47,2.65,6.25,6.12,6.23C267.94,179.47,270.61,176.73,270.59,173.31z"/>
	</g>
	<g>
		
			<linearGradient id="SVGID_9_" gradientUnits="userSpaceOnUse" x1="145.3141" y1="162.3229" x2="276.319" y2="162.3229" gradientTransform="matrix(1 0 0 1 -0.8252 0)">
			<stop  offset="0" style="stop-color:#D9D7C5"/>
			<stop  offset="0.2941" style="stop-color:#F1EDE3"/>
			<stop  offset="0.4142" style="stop-color:#EBE7DC"/>
			<stop  offset="0.5881" style="stop-color:#D9D6C9"/>
			<stop  offset="0.7485" style="stop-color:#C4C2B1"/>
			<stop  offset="0.9816" style="stop-color:#DAD7C5"/>
		</linearGradient>
		<path class="st10" d="M156.5,179.09l5.35-0.02l0.02,3.53l-14.69,0.07l-0.02-3.53l5.35-0.02l-0.16-33.87l-7.86,0.04l-0.02-3.24
			l11.84-0.05L156.5,179.09z"/>
		
			<linearGradient id="SVGID_10_" gradientUnits="userSpaceOnUse" x1="145.3133" y1="162.0391" x2="276.3217" y2="162.0391" gradientTransform="matrix(1 0 0 1 -0.8252 0)">
			<stop  offset="0" style="stop-color:#D9D7C5"/>
			<stop  offset="0.2941" style="stop-color:#F1EDE3"/>
			<stop  offset="0.4142" style="stop-color:#EBE7DC"/>
			<stop  offset="0.5881" style="stop-color:#D9D6C9"/>
			<stop  offset="0.7485" style="stop-color:#C4C2B1"/>
			<stop  offset="0.9816" style="stop-color:#DAD7C5"/>
		</linearGradient>
		<path class="st11" d="M196.13,168.32c0.02,3.98-0.82,7.23-3.54,10.26c-2.72,2.91-6.53,4.7-10.57,4.72
			c-3.76,0.02-7.35-1.5-10.04-4.11c-3.15-3.06-4.19-6.47-4.21-10.74l-0.06-12.69c-0.02-3.98,0.82-7.23,3.6-10.21
			c2.72-2.97,6.52-4.76,10.51-4.77c3.76-0.02,7.41,1.5,10.04,4.11c3.15,3.06,4.19,6.47,4.21,10.74L196.13,168.32z M171.82,168.43
			c0.02,2.73,0.37,5.01,2.08,7.22c1.89,2.55,4.97,3.96,8.1,3.94c3.24-0.02,6.43-1.57,8.29-4.19c1.53-2.23,1.8-4.39,1.79-7.07
			l-0.06-12.64c-0.01-2.73-0.31-5.01-2.03-7.22c-1.89-2.55-4.97-3.96-8.16-3.95c-3.19,0.02-6.37,1.57-8.23,4.25
			c-1.53,2.17-1.86,4.34-1.84,7.01L171.82,168.43z"/>
		
			<linearGradient id="SVGID_11_" gradientUnits="userSpaceOnUse" x1="145.3129" y1="161.8837" x2="276.3207" y2="161.8837" gradientTransform="matrix(1 0 0 1 -0.8252 0)">
			<stop  offset="0" style="stop-color:#D9D7C5"/>
			<stop  offset="0.2941" style="stop-color:#F1EDE3"/>
			<stop  offset="0.4142" style="stop-color:#EBE7DC"/>
			<stop  offset="0.5881" style="stop-color:#D9D6C9"/>
			<stop  offset="0.7485" style="stop-color:#C4C2B1"/>
			<stop  offset="0.9816" style="stop-color:#DAD7C5"/>
		</linearGradient>
		<path class="st12" d="M229.14,168.17c0.02,3.98-0.82,7.23-3.54,10.26c-2.72,2.92-6.52,4.7-10.57,4.72
			c-3.76,0.02-7.35-1.5-10.04-4.11c-3.15-3.06-4.19-6.47-4.21-10.74l-0.06-12.69c-0.02-3.98,0.82-7.23,3.59-10.21
			c2.72-2.97,6.52-4.76,10.51-4.77c3.76-0.02,7.41,1.5,10.04,4.11c3.14,3.06,4.19,6.47,4.21,10.74L229.14,168.17z M204.83,168.28
			c0.01,2.73,0.37,5.01,2.08,7.22c1.89,2.55,4.97,3.96,8.1,3.95c3.24-0.02,6.43-1.57,8.29-4.19c1.53-2.23,1.8-4.39,1.79-7.07
			l-0.06-12.64c-0.01-2.73-0.31-5.01-2.03-7.22c-1.89-2.55-4.97-3.96-8.16-3.95c-3.19,0.02-6.37,1.57-8.24,4.25
			c-1.53,2.17-1.86,4.34-1.84,7.01L204.83,168.28z"/>
		
			<linearGradient id="SVGID_12_" gradientUnits="userSpaceOnUse" x1="145.3138" y1="161.7821" x2="276.3193" y2="161.7821" gradientTransform="matrix(1 0 0 1 -0.8252 0)">
			<stop  offset="0" style="stop-color:#D9D7C5"/>
			<stop  offset="0.2941" style="stop-color:#F1EDE3"/>
			<stop  offset="0.4142" style="stop-color:#EBE7DC"/>
			<stop  offset="0.5881" style="stop-color:#D9D6C9"/>
			<stop  offset="0.7485" style="stop-color:#C4C2B1"/>
			<stop  offset="0.9816" style="stop-color:#DAD7C5"/>
		</linearGradient>
		<path class="st13" d="M233.6,149.98c-0.02-5.18,4.34-9.24,9.41-9.27c5.12-0.02,9.36,4.23,9.38,9.35c0.02,5.24-4.11,9.47-9.35,9.49
			C237.69,159.59,233.62,155.22,233.6,149.98z M249.14,150.02c-0.02-3.24-2.82-6.02-6.06-6.01c-3.3,0.02-6.19,2.59-6.18,5.95
			c0.02,3.47,2.65,6.31,6.18,6.29C246.5,156.24,249.16,153.44,249.14,150.02z M244.06,182.21l17.85-40.73l3.24-0.02l-17.8,40.73
			L244.06,182.21z M256.65,173.27c-0.02-5.18,4.34-9.24,9.41-9.27c5.18-0.02,9.41,4.17,9.44,9.35c0.02,5.18-4.11,9.47-9.35,9.49
			C260.8,182.87,256.68,178.51,256.65,173.27z M272.19,173.31c-0.02-3.3-2.76-6.02-6.06-6.01c-3.3,0.02-6.13,2.59-6.12,5.95
			c0.02,3.47,2.65,6.25,6.12,6.23C269.55,179.47,272.21,176.73,272.19,173.31z"/>
	</g>
	<g>
		<linearGradient id="SVGID_13_" gradientUnits="userSpaceOnUse" x1="146.0924" y1="162.3229" x2="277.0972" y2="162.3229">
			<stop  offset="0" style="stop-color:#090000"/>
			<stop  offset="0.1876" style="stop-color:#45403C"/>
			<stop  offset="0.335" style="stop-color:#4F4946"/>
			<stop  offset="0.5395" style="stop-color:#645C5B"/>
			<stop  offset="0.7914" style="stop-color:#2A1B13"/>
		</linearGradient>
		<path class="st14" d="M158.11,179.09l5.35-0.02l0.02,3.53l-14.69,0.07l-0.02-3.53l5.35-0.02l-0.16-33.87l-7.86,0.04l-0.02-3.24
			l11.84-0.05L158.11,179.09z"/>
		<linearGradient id="SVGID_14_" gradientUnits="userSpaceOnUse" x1="146.0917" y1="162.0391" x2="277.0993" y2="162.0391">
			<stop  offset="0" style="stop-color:#090000"/>
			<stop  offset="0.1876" style="stop-color:#45403C"/>
			<stop  offset="0.335" style="stop-color:#4F4946"/>
			<stop  offset="0.5395" style="stop-color:#645C5B"/>
			<stop  offset="0.7914" style="stop-color:#2A1B13"/>
		</linearGradient>
		<path class="st15" d="M197.73,168.32c0.02,3.98-0.82,7.23-3.54,10.26c-2.72,2.91-6.53,4.7-10.57,4.72
			c-3.76,0.02-7.35-1.5-10.04-4.11c-3.15-3.06-4.19-6.47-4.21-10.74l-0.06-12.69c-0.02-3.98,0.82-7.23,3.6-10.21
			c2.72-2.97,6.52-4.76,10.51-4.77c3.76-0.02,7.41,1.5,10.04,4.11c3.15,3.06,4.19,6.47,4.21,10.74L197.73,168.32z M173.42,168.43
			c0.02,2.73,0.37,5.01,2.08,7.22c1.89,2.55,4.97,3.96,8.1,3.94c3.24-0.02,6.43-1.57,8.29-4.19c1.53-2.23,1.8-4.39,1.79-7.07
			l-0.06-12.64c-0.01-2.73-0.31-5.01-2.03-7.22c-1.89-2.55-4.97-3.96-8.16-3.95c-3.19,0.02-6.37,1.57-8.23,4.25
			c-1.53,2.17-1.86,4.34-1.84,7.01L173.42,168.43z"/>
		<linearGradient id="SVGID_15_" gradientUnits="userSpaceOnUse" x1="146.0911" y1="161.8837" x2="277.0989" y2="161.8837">
			<stop  offset="0" style="stop-color:#090000"/>
			<stop  offset="0.1876" style="stop-color:#45403C"/>
			<stop  offset="0.335" style="stop-color:#4F4946"/>
			<stop  offset="0.5395" style="stop-color:#645C5B"/>
			<stop  offset="0.7914" style="stop-color:#2A1B13"/>
		</linearGradient>
		<path class="st16" d="M230.74,168.17c0.02,3.98-0.82,7.23-3.54,10.26c-2.72,2.92-6.52,4.7-10.57,4.72
			c-3.76,0.02-7.35-1.5-10.04-4.11c-3.15-3.06-4.19-6.47-4.21-10.74l-0.06-12.69c-0.02-3.98,0.82-7.23,3.59-10.21
			c2.72-2.97,6.52-4.76,10.51-4.77c3.76-0.02,7.41,1.5,10.04,4.11c3.14,3.06,4.19,6.47,4.21,10.74L230.74,168.17z M206.43,168.28
			c0.01,2.73,0.37,5.01,2.08,7.22c1.89,2.55,4.97,3.96,8.1,3.95c3.24-0.02,6.43-1.57,8.29-4.19c1.53-2.23,1.8-4.39,1.79-7.07
			l-0.06-12.64c-0.01-2.73-0.31-5.01-2.03-7.22c-1.89-2.55-4.97-3.96-8.16-3.95c-3.19,0.02-6.37,1.57-8.24,4.25
			c-1.53,2.17-1.86,4.34-1.84,7.01L206.43,168.28z"/>
		<linearGradient id="SVGID_16_" gradientUnits="userSpaceOnUse" x1="146.0921" y1="161.7821" x2="277.0975" y2="161.7821">
			<stop  offset="0" style="stop-color:#090000"/>
			<stop  offset="0.1876" style="stop-color:#45403C"/>
			<stop  offset="0.335" style="stop-color:#4F4946"/>
			<stop  offset="0.5395" style="stop-color:#645C5B"/>
			<stop  offset="0.7914" style="stop-color:#2A1B13"/>
		</linearGradient>
		<path class="st17" d="M235.2,149.98c-0.02-5.18,4.34-9.24,9.41-9.27c5.12-0.02,9.36,4.23,9.38,9.35c0.02,5.24-4.11,9.47-9.35,9.49
			C239.29,159.59,235.23,155.22,235.2,149.98z M250.75,150.02c-0.02-3.24-2.82-6.02-6.06-6.01c-3.3,0.02-6.19,2.59-6.18,5.95
			c0.02,3.47,2.65,6.31,6.18,6.29C248.1,156.24,250.76,153.44,250.75,150.02z M245.66,182.21l17.85-40.73l3.24-0.02l-17.8,40.73
			L245.66,182.21z M258.25,173.27c-0.02-5.18,4.34-9.24,9.41-9.27c5.18-0.02,9.41,4.17,9.44,9.35c0.02,5.18-4.11,9.47-9.35,9.49
			C262.4,182.87,258.28,178.51,258.25,173.27z M273.8,173.31c-0.02-3.3-2.76-6.02-6.06-6.01c-3.3,0.02-6.13,2.59-6.12,5.95
			c0.02,3.47,2.65,6.25,6.12,6.23C271.15,179.47,273.81,176.73,273.8,173.31z"/>
	</g>
</g>
<g>
	<linearGradient id="SVGID_17_" gradientUnits="userSpaceOnUse" x1="60.3288" y1="314.734" x2="130.3162" y2="314.734">
		<stop  offset="0" style="stop-color:#DBB154"/>
		<stop  offset="0.0859" style="stop-color:#E1C781"/>
		<stop  offset="0.1656" style="stop-color:#8E5421"/>
		<stop  offset="0.2883" style="stop-color:#C67C23"/>
		<stop  offset="0.4724" style="stop-color:#E1C781"/>
		<stop  offset="0.5956" style="stop-color:#DEBD6D"/>
		<stop  offset="0.7239" style="stop-color:#DBB154"/>
		<stop  offset="1" style="stop-color:#D49961"/>
	</linearGradient>
	<path class="st18" d="M84.11,318.56c-0.41,10.84-0.42,21.61-0.04,32.3c15.05-6.8,30.52-12.3,46.25-16.51
		c-4.97-18.58-9.95-37.15-14.92-55.72c-18.73,5.02-37.14,11.57-55.07,19.66C68.57,304.8,76.5,311.56,84.11,318.56z"/>
	<g>
		<linearGradient id="SVGID_18_" gradientUnits="userSpaceOnUse" x1="63.4807" y1="292.2832" x2="116.9404" y2="292.2832">
			<stop  offset="0" style="stop-color:#C1BFAF"/>
			<stop  offset="0.2941" style="stop-color:#D6D3CA"/>
			<stop  offset="0.4193" style="stop-color:#D0CDC3"/>
			<stop  offset="0.6006" style="stop-color:#BFBCB0"/>
			<stop  offset="0.7485" style="stop-color:#ACAA9B"/>
			<stop  offset="0.9816" style="stop-color:#C2BFAF"/>
		</linearGradient>
		<path class="st19" d="M116.32,282.08c0.2,0.77,0.41,1.54,0.62,2.31c-17.45,4.67-34.63,10.71-51.38,18.1
			c-0.69-0.57-1.38-1.13-2.08-1.69C80.7,293.13,98.37,286.89,116.32,282.08z"/>
		<linearGradient id="SVGID_19_" gradientUnits="userSpaceOnUse" x1="83.8888" y1="337.7733" x2="129.3902" y2="337.7733">
			<stop  offset="0" style="stop-color:#C1BFAF"/>
			<stop  offset="0.2941" style="stop-color:#D6D3CA"/>
			<stop  offset="0.4193" style="stop-color:#D0CDC3"/>
			<stop  offset="0.6006" style="stop-color:#BFBCB0"/>
			<stop  offset="0.7485" style="stop-color:#ACAA9B"/>
			<stop  offset="0.9816" style="stop-color:#C2BFAF"/>
		</linearGradient>
		<path class="st20" d="M129.39,330.88c-15.44,4.14-30.64,9.5-45.44,16.1c-0.02-0.86-0.04-1.72-0.06-2.59
			c14.63-6.46,29.64-11.74,44.88-15.82C128.98,329.34,129.18,330.11,129.39,330.88z"/>
	</g>
	<path class="st21" d="M96.66,329.69c4.05-4.14,8.24-8.2,12.58-12.17c4.34-3.97,8.83-7.84,13.46-11.62
		c1.27,4.73,2.53,9.46,3.8,14.19c1.27,4.73,2.53,9.46,3.8,14.19c-5.43-1.08-10.95-2.01-16.56-2.78
		C108.13,330.73,102.44,330.13,96.66,329.69z"/>
	<linearGradient id="SVGID_20_" gradientUnits="userSpaceOnUse" x1="286.8736" y1="314.734" x2="356.8609" y2="314.734">
		<stop  offset="0" style="stop-color:#DBB154"/>
		<stop  offset="0.0859" style="stop-color:#E1C781"/>
		<stop  offset="0.1656" style="stop-color:#8E5421"/>
		<stop  offset="0.2883" style="stop-color:#C67C23"/>
		<stop  offset="0.4724" style="stop-color:#E1C781"/>
		<stop  offset="0.5956" style="stop-color:#DEBD6D"/>
		<stop  offset="0.7239" style="stop-color:#DBB154"/>
		<stop  offset="1" style="stop-color:#D49961"/>
	</linearGradient>
	<path class="st22" d="M333.08,318.56c0.4,10.84,0.42,21.61,0.04,32.29c-15.05-6.8-30.52-12.3-46.25-16.51
		c4.97-18.58,9.95-37.15,14.92-55.72c18.73,5.02,37.14,11.57,55.07,19.66C348.62,304.8,340.69,311.57,333.08,318.56z"/>
	<g>
		<linearGradient id="SVGID_21_" gradientUnits="userSpaceOnUse" x1="300.2495" y1="292.2832" x2="353.7092" y2="292.2832">
			<stop  offset="0" style="stop-color:#C1BFAF"/>
			<stop  offset="0.2941" style="stop-color:#D6D3CA"/>
			<stop  offset="0.4193" style="stop-color:#D0CDC3"/>
			<stop  offset="0.6006" style="stop-color:#BFBCB0"/>
			<stop  offset="0.7485" style="stop-color:#ACAA9B"/>
			<stop  offset="0.9816" style="stop-color:#C2BFAF"/>
		</linearGradient>
		<path class="st23" d="M300.87,282.08c-0.2,0.77-0.41,1.54-0.62,2.31c17.45,4.67,34.63,10.71,51.38,18.1
			c0.69-0.57,1.38-1.13,2.08-1.69C336.49,293.13,318.82,286.89,300.87,282.08z"/>
		<linearGradient id="SVGID_22_" gradientUnits="userSpaceOnUse" x1="287.7996" y1="337.7723" x2="333.3029" y2="337.7723">
			<stop  offset="0" style="stop-color:#C1BFAF"/>
			<stop  offset="0.2941" style="stop-color:#D6D3CA"/>
			<stop  offset="0.4193" style="stop-color:#D0CDC3"/>
			<stop  offset="0.6006" style="stop-color:#BFBCB0"/>
			<stop  offset="0.7485" style="stop-color:#ACAA9B"/>
			<stop  offset="0.9816" style="stop-color:#C2BFAF"/>
		</linearGradient>
		<path class="st24" d="M287.8,330.88c15.44,4.14,30.64,9.5,45.44,16.1c0.02-0.86,0.04-1.72,0.06-2.58
			c-14.63-6.46-29.64-11.74-44.88-15.82C288.21,329.34,288.01,330.11,287.8,330.88z"/>
	</g>
	<path class="st21" d="M320.53,329.69c-4.05-4.14-8.24-8.2-12.58-12.17c-4.34-3.97-8.83-7.84-13.46-11.62
		c-1.27,4.73-2.53,9.46-3.8,14.19c-1.27,4.73-2.53,9.46-3.8,14.19c5.43-1.08,10.95-2.01,16.56-2.78
		C309.06,330.73,314.75,330.13,320.53,329.69z"/>
	<linearGradient id="SVGID_23_" gradientUnits="userSpaceOnUse" x1="76.35" y1="290.6992" x2="340.7241" y2="290.6992">
		<stop  offset="0" style="stop-color:#DBB154"/>
		<stop  offset="0.0859" style="stop-color:#F8E28F"/>
		<stop  offset="0.3313" style="stop-color:#B58A21"/>
		<stop  offset="0.4172" style="stop-color:#C89629"/>
		<stop  offset="0.6074" style="stop-color:#F8E28F"/>
		<stop  offset="0.6786" style="stop-color:#EED27B"/>
		<stop  offset="0.7914" style="stop-color:#DBB154"/>
		<stop  offset="1" style="stop-color:#D49961"/>
	</linearGradient>
	<path class="st25" d="M330.86,301.92c-3.49,9.26-6.97,18.52-10.46,27.78c-72.08-27.14-151.63-27.13-223.71,0.04
		c-6.78-17.99-13.56-35.99-20.34-53.98c85.18-32.11,179.19-32.12,264.37-0.04C337.44,284.45,334.15,293.18,330.86,301.92z"/>
	<g>
		<linearGradient id="SVGID_24_" gradientUnits="userSpaceOnUse" x1="77.6155" y1="268.2986" x2="339.4605" y2="268.2986">
			<stop  offset="0" style="stop-color:#D9D7C5"/>
			<stop  offset="0.2941" style="stop-color:#F1EDE3"/>
			<stop  offset="0.4142" style="stop-color:#EBE7DC"/>
			<stop  offset="0.5881" style="stop-color:#D9D6C9"/>
			<stop  offset="0.7485" style="stop-color:#C4C2B1"/>
			<stop  offset="0.9816" style="stop-color:#DAD7C5"/>
		</linearGradient>
		<path class="st26" d="M77.62,279.11c0.28,0.75,0.56,1.49,0.84,2.24c83.82-31.6,176.33-31.61,260.16-0.04
			c0.28-0.75,0.56-1.49,0.84-2.24C255.09,247.3,161.98,247.31,77.62,279.11z"/>
		<linearGradient id="SVGID_25_" gradientUnits="userSpaceOnUse" x1="94.5872" y1="314.8786" x2="322.5039" y2="314.8786">
			<stop  offset="0" style="stop-color:#D9D7C5"/>
			<stop  offset="0.2941" style="stop-color:#F1EDE3"/>
			<stop  offset="0.4142" style="stop-color:#EBE7DC"/>
			<stop  offset="0.5881" style="stop-color:#D9D6C9"/>
			<stop  offset="0.7485" style="stop-color:#C4C2B1"/>
			<stop  offset="0.9816" style="stop-color:#DAD7C5"/>
		</linearGradient>
		<path class="st27" d="M95.43,326.38c72.89-27.48,153.34-27.49,226.23-0.04c0.28-0.74,0.56-1.49,0.84-2.24
			c-73.44-27.66-154.48-27.64-227.92,0.04C94.87,324.89,95.15,325.64,95.43,326.38z"/>
	</g>
	<g>
		<path class="st21" d="M122.33,298.36c-0.88,1.77-2.72,2.93-4.58,3.45c-4.73,1.33-8.57-1.12-9.68-4.72
			c-1.24-3.99,0.34-8.3,5.62-9.78c3.62-1.01,6.93-0.41,8.36,2.7c-0.73,0.19-1.46,0.38-2.19,0.57c-0.99-1.99-3.25-2.41-5.73-1.72
			c-4.02,1.13-4.81,4.56-3.93,7.49c0.86,2.87,3.57,4.91,7.12,3.92c3.31-0.92,4.73-3.41,3.95-5.93c-1.73,0.46-3.46,0.92-5.19,1.41
			c-0.14-0.52-0.29-1.03-0.43-1.55c2.38-0.67,4.77-1.31,7.16-1.92c0.63,2.44,1.25,4.89,1.88,7.33c-0.45,0.12-0.9,0.23-1.35,0.35
			C123,299.41,122.67,298.88,122.33,298.36z"/>
		<path class="st21" d="M144.22,289.91c0.68,3.58-1.28,5.87-5.31,6.71c-4.15,0.88-6.98-0.2-7.86-3.93
			c-0.69-2.98-1.38-5.96-2.08-8.94c0.74-0.17,1.49-0.34,2.23-0.51c0.67,2.99,1.35,5.97,2.02,8.96c0.57,2.5,2.47,3.46,5.35,2.85
			c2.74-0.58,3.95-2.2,3.46-4.71c-0.59-3-1.19-6-1.78-9.01c0.75-0.15,1.5-0.29,2.24-0.44C143.07,283.9,143.65,286.9,144.22,289.91z"
			/>
		<path class="st21" d="M155.42,278.67c0.83-0.13,1.66-0.25,2.5-0.37c2.9,4.42,5.71,8.87,8.44,13.36c-0.8,0.1-1.6,0.2-2.4,0.31
			c-0.79-1.35-1.58-2.7-2.38-4.04c-2.33,0.32-4.65,0.67-6.97,1.04c-0.39,1.52-0.77,3.05-1.14,4.57c-0.74,0.12-1.48,0.25-2.23,0.38
			C152.55,288.82,153.94,283.74,155.42,278.67z M155.05,287.26c1.87-0.3,3.74-0.57,5.61-0.84c-1.23-2.08-2.48-4.16-3.75-6.23
			c-0.02,0-0.03,0-0.05,0.01C156.24,282.55,155.64,284.91,155.05,287.26z"/>
		<path class="st21" d="M170.98,276.64c2.67-0.29,5.35-0.54,8.02-0.77c3.23-0.27,5.29,1.05,5.45,3.36c0.12,1.75-0.65,3.21-2.65,3.85
			c0,0.01,0,0.03,0,0.04c1.97,0.17,2.43,1.39,2.71,2.77c0.21,1.38,0.26,2.99,1.24,3.89c-0.81,0.05-1.62,0.11-2.43,0.17
			c-0.66-0.54-0.44-2.11-0.87-3.49c-0.36-1.36-0.83-2.54-2.98-2.36c-1.81,0.15-3.61,0.32-5.41,0.5c0.2,2.04,0.41,4.07,0.62,6.11
			c-0.72,0.07-1.45,0.15-2.17,0.23C172,286.17,171.49,281.41,170.98,276.64z M178.55,282.56c2.06-0.18,3.83-0.78,3.68-2.87
			c-0.11-1.42-1.09-2.38-3.21-2.21c-1.87,0.16-3.74,0.33-5.61,0.52c0.17,1.66,0.33,3.32,0.5,4.99
			C175.46,282.84,177,282.7,178.55,282.56z"/>
		<path class="st21" d="M196.77,274.83c0.84-0.03,1.68-0.05,2.52-0.08c2.35,4.73,4.62,9.49,6.79,14.26
			c-0.8,0.01-1.61,0.02-2.41,0.03c-0.62-1.43-1.24-2.87-1.88-4.3c-2.34,0.05-4.68,0.12-7.03,0.21c-0.56,1.47-1.12,2.93-1.66,4.4
			c-0.75,0.03-1.5,0.07-2.25,0.11C192.73,284.57,194.7,279.69,196.77,274.83z M195.39,283.32c1.89-0.07,3.77-0.13,5.66-0.17
			c-0.98-2.21-1.97-4.42-2.99-6.63c-0.02,0-0.03,0-0.05,0C197.12,278.78,196.25,281.05,195.39,283.32z"/>
		<path class="st21" d="M212.4,274.65c0.81,0.01,1.61,0.02,2.42,0.03c2.94,3.94,5.77,7.91,8.5,11.92c0.02,0,0.03,0,0.05,0
			c0.17-3.88,0.34-7.76,0.5-11.65c0.72,0.03,1.44,0.06,2.16,0.1c-0.24,4.79-0.47,9.57-0.71,14.35c-0.8-0.04-1.59-0.08-2.39-0.11
			c-2.69-3.96-5.48-7.89-8.37-11.79c-0.02,0-0.03,0-0.05,0c-0.07,3.84-0.13,7.69-0.2,11.53c-0.69-0.01-1.38-0.02-2.07-0.03
			C212.29,284.23,212.35,279.44,212.4,274.65z"/>
		<path class="st21" d="M238.22,277.49c-1.89-0.16-3.78-0.31-5.66-0.43c0.04-0.54,0.07-1.07,0.11-1.61c4.55,0.31,9.1,0.71,13.64,1.2
			c-0.06,0.54-0.12,1.07-0.17,1.6c-1.88-0.2-3.77-0.39-5.65-0.56c-0.39,4.24-0.77,8.47-1.16,12.71c-0.73-0.07-1.45-0.13-2.18-0.19
			C237.5,285.97,237.86,281.73,238.22,277.49z"/>
		<path class="st21" d="M252.95,277.43c3.91,0.5,7.82,1.06,11.72,1.69c-0.09,0.53-0.17,1.06-0.26,1.59
			c-3.13-0.51-6.27-0.97-9.42-1.39c-0.2,1.51-0.4,3.02-0.61,4.53c2.89,0.39,5.78,0.81,8.66,1.27c-0.09,0.53-0.17,1.06-0.25,1.59
			c-2.87-0.46-5.74-0.88-8.62-1.26c-0.22,1.64-0.44,3.28-0.66,4.93c3.07,0.41,6.13,0.86,9.19,1.35c-0.09,0.53-0.17,1.06-0.26,1.59
			c-3.76-0.61-7.53-1.15-11.31-1.63C251.74,286.94,252.34,282.19,252.95,277.43z"/>
		<path class="st21" d="M272.19,280.42c3.89,0.72,7.77,1.5,11.63,2.34c-0.12,0.52-0.23,1.05-0.34,1.57
			c-3.11-0.68-6.23-1.32-9.35-1.91c-0.28,1.5-0.57,2.99-0.85,4.49c2.87,0.55,5.74,1.13,8.6,1.75c-0.11,0.52-0.23,1.05-0.34,1.57
			c-2.85-0.62-5.7-1.2-8.56-1.74c-0.31,1.63-0.62,3.26-0.93,4.88c3.05,0.58,6.09,1.2,9.12,1.87c-0.12,0.52-0.23,1.05-0.35,1.57
			c-3.73-0.82-7.47-1.57-11.23-2.26C270.46,289.84,271.32,285.13,272.19,280.42z"/>
		<path class="st21" d="M291.28,284.48c1.91,0.46,3.83,0.94,5.74,1.44c5.15,1.34,7.4,4.34,6.12,8.76c-1.33,4.63-4.41,6.54-9.73,5.16
			c-1.83-0.48-3.66-0.94-5.5-1.38C289.03,293.79,290.15,289.13,291.28,284.48z M290.43,297.41c1.19,0.3,2.38,0.6,3.56,0.91
			c1.46,0.37,5.48,1.09,6.91-4c0.92-3.29,0.02-5.71-4.06-6.78c-1.24-0.32-2.48-0.64-3.73-0.95
			C292.22,290.19,291.32,293.8,290.43,297.41z"/>
	</g>
</g>
<g>
	<polygon class="st21" points="108.85,156.87 111.32,164.46 119.3,164.46 112.84,169.16 115.31,176.75 108.85,172.06 102.39,176.75 
		104.86,169.16 98.4,164.46 106.38,164.46 	"/>
	<polygon class="st21" points="308.34,156.87 310.81,164.46 318.79,164.46 312.33,169.16 314.8,176.75 308.34,172.06 301.88,176.75 
		304.35,169.16 297.89,164.46 305.87,164.46 	"/>
</g>
<g>
	<g>
		<linearGradient id="SVGID_26_" gradientUnits="userSpaceOnUse" x1="40.2834" y1="217.4559" x2="376.5947" y2="220.932">
			<stop  offset="0" style="stop-color:#DBB154"/>
			<stop  offset="0.0859" style="stop-color:#E1C781"/>
			<stop  offset="0.1656" style="stop-color:#8E5421"/>
			<stop  offset="0.2883" style="stop-color:#C67C23"/>
			<stop  offset="0.4724" style="stop-color:#E1C781"/>
			<stop  offset="0.5956" style="stop-color:#DEBD6D"/>
			<stop  offset="0.7239" style="stop-color:#DBB154"/>
			<stop  offset="1" style="stop-color:#D49961"/>
		</linearGradient>
		<path class="st28" d="M58.06,235.37h-7.38v-35.53h7.38V235.37z"/>
		<linearGradient id="SVGID_27_" gradientUnits="userSpaceOnUse" x1="40.2863" y1="217.173" x2="376.5976" y2="220.6491">
			<stop  offset="0" style="stop-color:#DBB154"/>
			<stop  offset="0.0859" style="stop-color:#E1C781"/>
			<stop  offset="0.1656" style="stop-color:#8E5421"/>
			<stop  offset="0.2883" style="stop-color:#C67C23"/>
			<stop  offset="0.4724" style="stop-color:#E1C781"/>
			<stop  offset="0.5956" style="stop-color:#DEBD6D"/>
			<stop  offset="0.7239" style="stop-color:#DBB154"/>
			<stop  offset="1" style="stop-color:#D49961"/>
		</linearGradient>
		<path class="st29" d="M67.35,199.84h7.78l14.1,24.77v-24.77h6.92v35.53h-7.42l-14.46-25.21v25.21h-6.92V199.84z"/>
		<linearGradient id="SVGID_28_" gradientUnits="userSpaceOnUse" x1="40.2909" y1="216.7309" x2="376.6021" y2="220.207">
			<stop  offset="0" style="stop-color:#DBB154"/>
			<stop  offset="0.0859" style="stop-color:#E1C781"/>
			<stop  offset="0.1656" style="stop-color:#8E5421"/>
			<stop  offset="0.2883" style="stop-color:#C67C23"/>
			<stop  offset="0.4724" style="stop-color:#E1C781"/>
			<stop  offset="0.5956" style="stop-color:#DEBD6D"/>
			<stop  offset="0.7239" style="stop-color:#DBB154"/>
			<stop  offset="1" style="stop-color:#D49961"/>
		</linearGradient>
		<path class="st30" d="M126.38,199.84h7.71l-12.11,35.53h-7.01l-12.01-35.53h7.93l7.71,26.97L126.38,199.84z"/>
		<linearGradient id="SVGID_29_" gradientUnits="userSpaceOnUse" x1="40.293" y1="216.529" x2="376.6042" y2="220.0051">
			<stop  offset="0" style="stop-color:#DBB154"/>
			<stop  offset="0.0859" style="stop-color:#E1C781"/>
			<stop  offset="0.1656" style="stop-color:#8E5421"/>
			<stop  offset="0.2883" style="stop-color:#C67C23"/>
			<stop  offset="0.4724" style="stop-color:#E1C781"/>
			<stop  offset="0.5956" style="stop-color:#DEBD6D"/>
			<stop  offset="0.7239" style="stop-color:#DBB154"/>
			<stop  offset="1" style="stop-color:#D49961"/>
		</linearGradient>
		<path class="st31" d="M147.75,235.37h-7.38v-35.53h7.38V235.37z"/>
		<linearGradient id="SVGID_30_" gradientUnits="userSpaceOnUse" x1="40.2964" y1="216.1995" x2="376.6076" y2="219.6756">
			<stop  offset="0" style="stop-color:#DBB154"/>
			<stop  offset="0.0859" style="stop-color:#E1C781"/>
			<stop  offset="0.1656" style="stop-color:#8E5421"/>
			<stop  offset="0.2883" style="stop-color:#C67C23"/>
			<stop  offset="0.4724" style="stop-color:#E1C781"/>
			<stop  offset="0.5956" style="stop-color:#DEBD6D"/>
			<stop  offset="0.7239" style="stop-color:#DBB154"/>
			<stop  offset="1" style="stop-color:#D49961"/>
		</linearGradient>
		<path class="st32" d="M162.51,224.4c0.23,1.62,0.68,2.84,1.35,3.64c1.23,1.46,3.34,2.19,6.32,2.19c1.79,0,3.24-0.19,4.36-0.58
			c2.12-0.74,3.18-2.11,3.18-4.12c0-1.17-0.52-2.08-1.56-2.72c-1.04-0.63-2.68-1.18-4.93-1.66l-3.85-0.84
			c-3.78-0.84-6.38-1.74-7.79-2.72c-2.39-1.64-3.59-4.2-3.59-7.69c0-3.18,1.17-5.83,3.51-7.93c2.34-2.11,5.78-3.16,10.32-3.16
			c3.79,0,7.02,0.99,9.7,2.98c2.68,1.99,4.08,4.87,4.21,8.64h-7.14c-0.13-2.14-1.09-3.66-2.86-4.56c-1.19-0.59-2.66-0.89-4.42-0.89
			c-1.96,0-3.53,0.39-4.7,1.16c-1.17,0.77-1.75,1.85-1.75,3.23c0,1.27,0.58,2.22,1.73,2.84c0.74,0.42,2.32,0.91,4.72,1.47l6.23,1.47
			c2.73,0.64,4.78,1.5,6.14,2.58c2.12,1.67,3.18,4.09,3.18,7.25c0,3.25-1.26,5.94-3.76,8.09c-2.51,2.14-6.05,3.22-10.63,3.22
			c-4.68,0-8.36-1.06-11.04-3.17c-2.68-2.11-4.02-5.02-4.02-8.71H162.51z"/>
		<linearGradient id="SVGID_31_" gradientUnits="userSpaceOnUse" x1="40.2985" y1="215.996" x2="376.6097" y2="219.4721">
			<stop  offset="0" style="stop-color:#DBB154"/>
			<stop  offset="0.0859" style="stop-color:#E1C781"/>
			<stop  offset="0.1656" style="stop-color:#8E5421"/>
			<stop  offset="0.2883" style="stop-color:#C67C23"/>
			<stop  offset="0.4724" style="stop-color:#E1C781"/>
			<stop  offset="0.5956" style="stop-color:#DEBD6D"/>
			<stop  offset="0.7239" style="stop-color:#DBB154"/>
			<stop  offset="1" style="stop-color:#D49961"/>
		</linearGradient>
		<path class="st33" d="M199.33,235.37h-7.38v-35.53h7.38V235.37z"/>
		<linearGradient id="SVGID_32_" gradientUnits="userSpaceOnUse" x1="40.3008" y1="215.7707" x2="376.6121" y2="219.2467">
			<stop  offset="0" style="stop-color:#DBB154"/>
			<stop  offset="0.0859" style="stop-color:#E1C781"/>
			<stop  offset="0.1656" style="stop-color:#8E5421"/>
			<stop  offset="0.2883" style="stop-color:#C67C23"/>
			<stop  offset="0.4724" style="stop-color:#E1C781"/>
			<stop  offset="0.5956" style="stop-color:#DEBD6D"/>
			<stop  offset="0.7239" style="stop-color:#DBB154"/>
			<stop  offset="1" style="stop-color:#D49961"/>
		</linearGradient>
		<path class="st34" d="M235.23,203.62c1.09,1.51,1.63,3.32,1.63,5.42c0,2.17-0.55,3.91-1.64,5.23c-0.61,0.74-1.52,1.42-2.71,2.02
			c1.81,0.66,3.18,1.7,4.1,3.13c0.92,1.43,1.38,3.17,1.38,5.21c0,2.11-0.53,3.99-1.58,5.66c-0.67,1.11-1.51,2.04-2.52,2.8
			c-1.13,0.87-2.47,1.46-4.01,1.78c-1.54,0.32-3.21,0.48-5.02,0.48h-16.01v-35.53h17.17C230.36,199.9,233.43,201.16,235.23,203.62z
			 M215.94,206.01v7.83h8.63c1.54,0,2.8-0.29,3.76-0.88c0.96-0.59,1.44-1.63,1.44-3.12c0-1.66-0.64-2.75-1.91-3.28
			c-1.1-0.37-2.5-0.56-4.2-0.56H215.94z M215.94,219.72v9.47h8.63c1.54,0,2.74-0.21,3.6-0.63c1.56-0.77,2.33-2.25,2.33-4.44
			c0-1.85-0.75-3.12-2.26-3.81c-0.84-0.39-2.03-0.59-3.55-0.6H215.94z"/>
		<linearGradient id="SVGID_33_" gradientUnits="userSpaceOnUse" x1="40.3043" y1="215.4348" x2="376.6155" y2="218.9109">
			<stop  offset="0" style="stop-color:#DBB154"/>
			<stop  offset="0.0859" style="stop-color:#E1C781"/>
			<stop  offset="0.1656" style="stop-color:#8E5421"/>
			<stop  offset="0.2883" style="stop-color:#C67C23"/>
			<stop  offset="0.4724" style="stop-color:#E1C781"/>
			<stop  offset="0.5956" style="stop-color:#DEBD6D"/>
			<stop  offset="0.7239" style="stop-color:#DBB154"/>
			<stop  offset="1" style="stop-color:#D49961"/>
		</linearGradient>
		<path class="st35" d="M253.63,235.37h-7.38v-35.53h7.38V235.37z"/>
		<linearGradient id="SVGID_34_" gradientUnits="userSpaceOnUse" x1="40.3061" y1="215.2611" x2="376.6173" y2="218.7372">
			<stop  offset="0" style="stop-color:#DBB154"/>
			<stop  offset="0.0859" style="stop-color:#E1C781"/>
			<stop  offset="0.1656" style="stop-color:#8E5421"/>
			<stop  offset="0.2883" style="stop-color:#C67C23"/>
			<stop  offset="0.4724" style="stop-color:#E1C781"/>
			<stop  offset="0.5956" style="stop-color:#DEBD6D"/>
			<stop  offset="0.7239" style="stop-color:#DBB154"/>
			<stop  offset="1" style="stop-color:#D49961"/>
		</linearGradient>
		<path class="st36" d="M263.04,199.84h7.42v29.14h17.74v6.39h-25.16V199.84z"/>
		<linearGradient id="SVGID_35_" gradientUnits="userSpaceOnUse" x1="40.3095" y1="214.9305" x2="376.6208" y2="218.4065">
			<stop  offset="0" style="stop-color:#DBB154"/>
			<stop  offset="0.0859" style="stop-color:#E1C781"/>
			<stop  offset="0.1656" style="stop-color:#8E5421"/>
			<stop  offset="0.2883" style="stop-color:#C67C23"/>
			<stop  offset="0.4724" style="stop-color:#E1C781"/>
			<stop  offset="0.5956" style="stop-color:#DEBD6D"/>
			<stop  offset="0.7239" style="stop-color:#DBB154"/>
			<stop  offset="1" style="stop-color:#D49961"/>
		</linearGradient>
		<path class="st37" d="M302.43,235.37h-7.38v-35.53h7.38V235.37z"/>
		<linearGradient id="SVGID_36_" gradientUnits="userSpaceOnUse" x1="40.3127" y1="214.6218" x2="376.624" y2="218.0979">
			<stop  offset="0" style="stop-color:#DBB154"/>
			<stop  offset="0.0859" style="stop-color:#E1C781"/>
			<stop  offset="0.1656" style="stop-color:#8E5421"/>
			<stop  offset="0.2883" style="stop-color:#C67C23"/>
			<stop  offset="0.4724" style="stop-color:#E1C781"/>
			<stop  offset="0.5956" style="stop-color:#DEBD6D"/>
			<stop  offset="0.7239" style="stop-color:#DBB154"/>
			<stop  offset="1" style="stop-color:#D49961"/>
		</linearGradient>
		<path class="st38" d="M337.65,199.84v6.29h-10.63v29.24h-7.47v-29.24h-10.68v-6.29H337.65z"/>
		<linearGradient id="SVGID_37_" gradientUnits="userSpaceOnUse" x1="40.3164" y1="214.2613" x2="376.6277" y2="217.7374">
			<stop  offset="0" style="stop-color:#DBB154"/>
			<stop  offset="0.0859" style="stop-color:#E1C781"/>
			<stop  offset="0.1656" style="stop-color:#8E5421"/>
			<stop  offset="0.2883" style="stop-color:#C67C23"/>
			<stop  offset="0.4724" style="stop-color:#E1C781"/>
			<stop  offset="0.5956" style="stop-color:#DEBD6D"/>
			<stop  offset="0.7239" style="stop-color:#DBB154"/>
			<stop  offset="1" style="stop-color:#D49961"/>
		</linearGradient>
		<path class="st39" d="M364.73,199.84h8.41l-11.88,22.21v13.32h-7.42v-13.32l-12.29-22.21h8.75l7.38,15.47L364.73,199.84z"/>
	</g>
	<g>
		<linearGradient id="SVGID_38_" gradientUnits="userSpaceOnUse" x1="372.5352" y1="213.3752" x2="46.6522" y2="217.7203">
			<stop  offset="0" style="stop-color:#D9D7C5"/>
			<stop  offset="0.2941" style="stop-color:#F1EDE3"/>
			<stop  offset="0.4142" style="stop-color:#EBE7DC"/>
			<stop  offset="0.5881" style="stop-color:#D9D6C9"/>
			<stop  offset="0.7485" style="stop-color:#C4C2B1"/>
			<stop  offset="0.9816" style="stop-color:#DAD7C5"/>
		</linearGradient>
		<path class="st40" d="M59.24,235.37h-7.38v-35.53h7.38V235.37z"/>
		<linearGradient id="SVGID_39_" gradientUnits="userSpaceOnUse" x1="372.5401" y1="213.7402" x2="46.6571" y2="218.0853">
			<stop  offset="0" style="stop-color:#D9D7C5"/>
			<stop  offset="0.2941" style="stop-color:#F1EDE3"/>
			<stop  offset="0.4142" style="stop-color:#EBE7DC"/>
			<stop  offset="0.5881" style="stop-color:#D9D6C9"/>
			<stop  offset="0.7485" style="stop-color:#C4C2B1"/>
			<stop  offset="0.9816" style="stop-color:#DAD7C5"/>
		</linearGradient>
		<path class="st41" d="M68.53,199.84h7.78l14.1,24.77v-24.77h6.92v35.53h-7.42l-14.46-25.21v25.21h-6.92V199.84z"/>
		<linearGradient id="SVGID_40_" gradientUnits="userSpaceOnUse" x1="372.5455" y1="214.1496" x2="46.6625" y2="218.4947">
			<stop  offset="0" style="stop-color:#D9D7C5"/>
			<stop  offset="0.2941" style="stop-color:#F1EDE3"/>
			<stop  offset="0.4142" style="stop-color:#EBE7DC"/>
			<stop  offset="0.5881" style="stop-color:#D9D6C9"/>
			<stop  offset="0.7485" style="stop-color:#C4C2B1"/>
			<stop  offset="0.9816" style="stop-color:#DAD7C5"/>
		</linearGradient>
		<path class="st42" d="M127.56,199.84h7.71l-12.11,35.53h-7.01l-12.01-35.53h7.93l7.71,26.97L127.56,199.84z"/>
		<linearGradient id="SVGID_41_" gradientUnits="userSpaceOnUse" x1="372.5511" y1="214.5708" x2="46.6681" y2="218.916">
			<stop  offset="0" style="stop-color:#D9D7C5"/>
			<stop  offset="0.2941" style="stop-color:#F1EDE3"/>
			<stop  offset="0.4142" style="stop-color:#EBE7DC"/>
			<stop  offset="0.5881" style="stop-color:#D9D6C9"/>
			<stop  offset="0.7485" style="stop-color:#C4C2B1"/>
			<stop  offset="0.9816" style="stop-color:#DAD7C5"/>
		</linearGradient>
		<path class="st43" d="M148.93,235.37h-7.38v-35.53h7.38V235.37z"/>
		<linearGradient id="SVGID_42_" gradientUnits="userSpaceOnUse" x1="372.555" y1="214.8587" x2="46.672" y2="219.2038">
			<stop  offset="0" style="stop-color:#D9D7C5"/>
			<stop  offset="0.2941" style="stop-color:#F1EDE3"/>
			<stop  offset="0.4142" style="stop-color:#EBE7DC"/>
			<stop  offset="0.5881" style="stop-color:#D9D6C9"/>
			<stop  offset="0.7485" style="stop-color:#C4C2B1"/>
			<stop  offset="0.9816" style="stop-color:#DAD7C5"/>
		</linearGradient>
		<path class="st44" d="M163.69,224.4c0.23,1.62,0.68,2.84,1.35,3.64c1.23,1.46,3.34,2.19,6.32,2.19c1.79,0,3.24-0.19,4.36-0.58
			c2.12-0.74,3.18-2.11,3.18-4.12c0-1.17-0.52-2.08-1.56-2.72c-1.04-0.63-2.68-1.18-4.93-1.66l-3.85-0.84
			c-3.78-0.84-6.38-1.74-7.79-2.72c-2.39-1.64-3.59-4.2-3.59-7.69c0-3.18,1.17-5.83,3.51-7.93c2.34-2.11,5.78-3.16,10.32-3.16
			c3.79,0,7.02,0.99,9.7,2.98c2.68,1.99,4.08,4.87,4.21,8.64h-7.14c-0.13-2.14-1.09-3.66-2.86-4.56c-1.19-0.59-2.66-0.89-4.42-0.89
			c-1.96,0-3.53,0.39-4.7,1.16c-1.17,0.77-1.75,1.85-1.75,3.23c0,1.27,0.58,2.22,1.73,2.84c0.74,0.42,2.32,0.91,4.72,1.47l6.23,1.47
			c2.73,0.64,4.78,1.5,6.14,2.58c2.12,1.67,3.18,4.09,3.18,7.25c0,3.25-1.26,5.94-3.76,8.09c-2.51,2.14-6.05,3.22-10.63,3.22
			c-4.68,0-8.36-1.06-11.04-3.17c-2.68-2.11-4.02-5.02-4.02-8.71H163.69z"/>
		<linearGradient id="SVGID_43_" gradientUnits="userSpaceOnUse" x1="372.5603" y1="215.2584" x2="46.6773" y2="219.6035">
			<stop  offset="0" style="stop-color:#D9D7C5"/>
			<stop  offset="0.2941" style="stop-color:#F1EDE3"/>
			<stop  offset="0.4142" style="stop-color:#EBE7DC"/>
			<stop  offset="0.5881" style="stop-color:#D9D6C9"/>
			<stop  offset="0.7485" style="stop-color:#C4C2B1"/>
			<stop  offset="0.9816" style="stop-color:#DAD7C5"/>
		</linearGradient>
		<path class="st45" d="M200.51,235.37h-7.38v-35.53h7.38V235.37z"/>
		<linearGradient id="SVGID_44_" gradientUnits="userSpaceOnUse" x1="372.5641" y1="215.5426" x2="46.6811" y2="219.8877">
			<stop  offset="0" style="stop-color:#D9D7C5"/>
			<stop  offset="0.2941" style="stop-color:#F1EDE3"/>
			<stop  offset="0.4142" style="stop-color:#EBE7DC"/>
			<stop  offset="0.5881" style="stop-color:#D9D6C9"/>
			<stop  offset="0.7485" style="stop-color:#C4C2B1"/>
			<stop  offset="0.9816" style="stop-color:#DAD7C5"/>
		</linearGradient>
		<path class="st46" d="M236.41,203.62c1.09,1.51,1.63,3.32,1.63,5.42c0,2.17-0.55,3.91-1.64,5.23c-0.61,0.74-1.52,1.42-2.71,2.02
			c1.81,0.66,3.18,1.7,4.1,3.13c0.92,1.43,1.38,3.17,1.38,5.21c0,2.11-0.53,3.99-1.58,5.66c-0.67,1.11-1.51,2.04-2.52,2.8
			c-1.13,0.87-2.47,1.46-4.01,1.78c-1.54,0.32-3.21,0.48-5.02,0.48h-16.01v-35.53h17.17C231.54,199.9,234.61,201.16,236.41,203.62z
			 M217.13,206.01v7.83h8.63c1.54,0,2.8-0.29,3.76-0.88c0.96-0.59,1.44-1.63,1.44-3.12c0-1.66-0.64-2.75-1.91-3.28
			c-1.1-0.37-2.5-0.56-4.2-0.56H217.13z M217.13,219.72v9.47h8.63c1.54,0,2.74-0.21,3.6-0.63c1.56-0.77,2.33-2.25,2.33-4.44
			c0-1.85-0.75-3.12-2.26-3.81c-0.84-0.39-2.03-0.59-3.55-0.6H217.13z"/>
		<linearGradient id="SVGID_45_" gradientUnits="userSpaceOnUse" x1="372.57" y1="215.9822" x2="46.687" y2="220.3273">
			<stop  offset="0" style="stop-color:#D9D7C5"/>
			<stop  offset="0.2941" style="stop-color:#F1EDE3"/>
			<stop  offset="0.4142" style="stop-color:#EBE7DC"/>
			<stop  offset="0.5881" style="stop-color:#D9D6C9"/>
			<stop  offset="0.7485" style="stop-color:#C4C2B1"/>
			<stop  offset="0.9816" style="stop-color:#DAD7C5"/>
		</linearGradient>
		<path class="st47" d="M254.81,235.37h-7.38v-35.53h7.38V235.37z"/>
		<linearGradient id="SVGID_46_" gradientUnits="userSpaceOnUse" x1="372.5745" y1="216.3246" x2="46.6915" y2="220.6697">
			<stop  offset="0" style="stop-color:#D9D7C5"/>
			<stop  offset="0.2941" style="stop-color:#F1EDE3"/>
			<stop  offset="0.4142" style="stop-color:#EBE7DC"/>
			<stop  offset="0.5881" style="stop-color:#D9D6C9"/>
			<stop  offset="0.7485" style="stop-color:#C4C2B1"/>
			<stop  offset="0.9816" style="stop-color:#DAD7C5"/>
		</linearGradient>
		<path class="st48" d="M264.22,199.84h7.42v29.14h17.74v6.39h-25.16V199.84z"/>
		<linearGradient id="SVGID_47_" gradientUnits="userSpaceOnUse" x1="372.5786" y1="216.6328" x2="46.6956" y2="220.9779">
			<stop  offset="0" style="stop-color:#D9D7C5"/>
			<stop  offset="0.2941" style="stop-color:#F1EDE3"/>
			<stop  offset="0.4142" style="stop-color:#EBE7DC"/>
			<stop  offset="0.5881" style="stop-color:#D9D6C9"/>
			<stop  offset="0.7485" style="stop-color:#C4C2B1"/>
			<stop  offset="0.9816" style="stop-color:#DAD7C5"/>
		</linearGradient>
		<path class="st49" d="M303.61,235.37h-7.38v-35.53h7.38V235.37z"/>
		<linearGradient id="SVGID_48_" gradientUnits="userSpaceOnUse" x1="372.5821" y1="216.8889" x2="46.699" y2="221.234">
			<stop  offset="0" style="stop-color:#D9D7C5"/>
			<stop  offset="0.2941" style="stop-color:#F1EDE3"/>
			<stop  offset="0.4142" style="stop-color:#EBE7DC"/>
			<stop  offset="0.5881" style="stop-color:#D9D6C9"/>
			<stop  offset="0.7485" style="stop-color:#C4C2B1"/>
			<stop  offset="0.9816" style="stop-color:#DAD7C5"/>
		</linearGradient>
		<path class="st50" d="M338.83,199.84v6.29H328.2v29.24h-7.47v-29.24h-10.68v-6.29H338.83z"/>
		<linearGradient id="SVGID_49_" gradientUnits="userSpaceOnUse" x1="372.588" y1="217.3348" x2="46.705" y2="221.6799">
			<stop  offset="0" style="stop-color:#D9D7C5"/>
			<stop  offset="0.2941" style="stop-color:#F1EDE3"/>
			<stop  offset="0.4142" style="stop-color:#EBE7DC"/>
			<stop  offset="0.5881" style="stop-color:#D9D6C9"/>
			<stop  offset="0.7485" style="stop-color:#C4C2B1"/>
			<stop  offset="0.9816" style="stop-color:#DAD7C5"/>
		</linearGradient>
		<path class="st51" d="M365.91,199.84h8.41l-11.88,22.21v13.32h-7.42v-13.32l-12.29-22.21h8.75l7.38,15.47L365.91,199.84z"/>
	</g>
	<g>
		<linearGradient id="SVGID_50_" gradientUnits="userSpaceOnUse" x1="381.4678" y1="234.4811" x2="30.3832" y2="216.2316">
			<stop  offset="0" style="stop-color:#090000"/>
			<stop  offset="0.1876" style="stop-color:#45403C"/>
			<stop  offset="0.335" style="stop-color:#4F4946"/>
			<stop  offset="0.5395" style="stop-color:#645C5B"/>
			<stop  offset="0.7914" style="stop-color:#2A1B13"/>
		</linearGradient>
		<path class="st52" d="M60.43,235.37h-7.38v-35.53h7.38V235.37z"/>
		<linearGradient id="SVGID_51_" gradientUnits="userSpaceOnUse" x1="381.5416" y1="233.0618" x2="30.4569" y2="214.8124">
			<stop  offset="0" style="stop-color:#090000"/>
			<stop  offset="0.1876" style="stop-color:#45403C"/>
			<stop  offset="0.335" style="stop-color:#4F4946"/>
			<stop  offset="0.5395" style="stop-color:#645C5B"/>
			<stop  offset="0.7914" style="stop-color:#2A1B13"/>
		</linearGradient>
		<path class="st53" d="M69.71,199.84h7.78l14.1,24.77v-24.77h6.92v35.53h-7.42l-14.46-25.21v25.21h-6.92V199.84z"/>
		<linearGradient id="SVGID_52_" gradientUnits="userSpaceOnUse" x1="381.6568" y1="230.8444" x2="30.5722" y2="212.595">
			<stop  offset="0" style="stop-color:#090000"/>
			<stop  offset="0.1876" style="stop-color:#45403C"/>
			<stop  offset="0.335" style="stop-color:#4F4946"/>
			<stop  offset="0.5395" style="stop-color:#645C5B"/>
			<stop  offset="0.7914" style="stop-color:#2A1B13"/>
		</linearGradient>
		<path class="st54" d="M128.74,199.84h7.71l-12.11,35.53h-7.01l-12.01-35.53h7.93l7.71,26.97L128.74,199.84z"/>
		<linearGradient id="SVGID_53_" gradientUnits="userSpaceOnUse" x1="381.7095" y1="229.8315" x2="30.6248" y2="211.5821">
			<stop  offset="0" style="stop-color:#090000"/>
			<stop  offset="0.1876" style="stop-color:#45403C"/>
			<stop  offset="0.335" style="stop-color:#4F4946"/>
			<stop  offset="0.5395" style="stop-color:#645C5B"/>
			<stop  offset="0.7914" style="stop-color:#2A1B13"/>
		</linearGradient>
		<path class="st55" d="M150.12,235.37h-7.38v-35.53h7.38V235.37z"/>
		<linearGradient id="SVGID_54_" gradientUnits="userSpaceOnUse" x1="381.7826" y1="228.4246" x2="30.698" y2="210.1751">
			<stop  offset="0" style="stop-color:#090000"/>
			<stop  offset="0.1876" style="stop-color:#45403C"/>
			<stop  offset="0.335" style="stop-color:#4F4946"/>
			<stop  offset="0.5395" style="stop-color:#645C5B"/>
			<stop  offset="0.7914" style="stop-color:#2A1B13"/>
		</linearGradient>
		<path class="st56" d="M164.88,224.4c0.23,1.62,0.68,2.84,1.35,3.64c1.23,1.46,3.34,2.19,6.32,2.19c1.79,0,3.24-0.19,4.36-0.58
			c2.12-0.74,3.18-2.11,3.18-4.12c0-1.17-0.52-2.08-1.56-2.72c-1.04-0.63-2.68-1.18-4.93-1.66l-3.85-0.84
			c-3.78-0.84-6.38-1.74-7.79-2.72c-2.39-1.64-3.59-4.2-3.59-7.69c0-3.18,1.17-5.83,3.51-7.93c2.34-2.11,5.78-3.16,10.32-3.16
			c3.79,0,7.02,0.99,9.7,2.98c2.68,1.99,4.08,4.87,4.21,8.64h-7.14c-0.13-2.14-1.09-3.66-2.86-4.56c-1.19-0.59-2.66-0.89-4.42-0.89
			c-1.96,0-3.53,0.39-4.7,1.16c-1.17,0.77-1.75,1.85-1.75,3.23c0,1.27,0.58,2.22,1.73,2.84c0.74,0.42,2.32,0.91,4.72,1.47l6.23,1.47
			c2.73,0.64,4.78,1.5,6.14,2.58c2.12,1.67,3.18,4.09,3.18,7.25c0,3.25-1.26,5.94-3.76,8.09c-2.51,2.14-6.05,3.22-10.63,3.22
			c-4.68,0-8.36-1.06-11.04-3.17c-2.68-2.11-4.02-5.02-4.02-8.71H164.88z"/>
		<linearGradient id="SVGID_55_" gradientUnits="userSpaceOnUse" x1="381.8484" y1="227.1579" x2="30.7638" y2="208.9084">
			<stop  offset="0" style="stop-color:#090000"/>
			<stop  offset="0.1876" style="stop-color:#45403C"/>
			<stop  offset="0.335" style="stop-color:#4F4946"/>
			<stop  offset="0.5395" style="stop-color:#645C5B"/>
			<stop  offset="0.7914" style="stop-color:#2A1B13"/>
		</linearGradient>
		<path class="st57" d="M201.69,235.37h-7.38v-35.53h7.38V235.37z"/>
		<linearGradient id="SVGID_56_" gradientUnits="userSpaceOnUse" x1="381.9076" y1="226.02" x2="30.823" y2="207.7706">
			<stop  offset="0" style="stop-color:#090000"/>
			<stop  offset="0.1876" style="stop-color:#45403C"/>
			<stop  offset="0.335" style="stop-color:#4F4946"/>
			<stop  offset="0.5395" style="stop-color:#645C5B"/>
			<stop  offset="0.7914" style="stop-color:#2A1B13"/>
		</linearGradient>
		<path class="st58" d="M237.6,203.62c1.09,1.51,1.63,3.32,1.63,5.42c0,2.17-0.55,3.91-1.64,5.23c-0.61,0.74-1.52,1.42-2.71,2.02
			c1.81,0.66,3.18,1.7,4.1,3.13c0.92,1.43,1.38,3.17,1.38,5.21c0,2.11-0.53,3.99-1.58,5.66c-0.67,1.11-1.51,2.04-2.52,2.8
			c-1.13,0.87-2.47,1.46-4.01,1.78c-1.54,0.32-3.21,0.48-5.02,0.48h-16.01v-35.53h17.17C232.72,199.9,235.79,201.16,237.6,203.62z
			 M218.31,206.01v7.83h8.63c1.54,0,2.8-0.29,3.76-0.88c0.96-0.59,1.44-1.63,1.44-3.12c0-1.66-0.64-2.75-1.91-3.28
			c-1.1-0.37-2.5-0.56-4.2-0.56H218.31z M218.31,219.72v9.47h8.63c1.54,0,2.74-0.21,3.6-0.63c1.56-0.77,2.33-2.25,2.33-4.44
			c0-1.85-0.75-3.12-2.26-3.81c-0.84-0.39-2.03-0.59-3.55-0.6H218.31z"/>
		<linearGradient id="SVGID_57_" gradientUnits="userSpaceOnUse" x1="381.9948" y1="224.343" x2="30.9101" y2="206.0936">
			<stop  offset="0" style="stop-color:#090000"/>
			<stop  offset="0.1876" style="stop-color:#45403C"/>
			<stop  offset="0.335" style="stop-color:#4F4946"/>
			<stop  offset="0.5395" style="stop-color:#645C5B"/>
			<stop  offset="0.7914" style="stop-color:#2A1B13"/>
		</linearGradient>
		<path class="st59" d="M255.99,235.37h-7.38v-35.53h7.38V235.37z"/>
		<linearGradient id="SVGID_58_" gradientUnits="userSpaceOnUse" x1="382.0401" y1="223.4716" x2="30.9554" y2="205.2222">
			<stop  offset="0" style="stop-color:#090000"/>
			<stop  offset="0.1876" style="stop-color:#45403C"/>
			<stop  offset="0.335" style="stop-color:#4F4946"/>
			<stop  offset="0.5395" style="stop-color:#645C5B"/>
			<stop  offset="0.7914" style="stop-color:#2A1B13"/>
		</linearGradient>
		<path class="st60" d="M265.4,199.84h7.42v29.14h17.74v6.39H265.4V199.84z"/>
		<linearGradient id="SVGID_59_" gradientUnits="userSpaceOnUse" x1="382.1263" y1="221.8131" x2="31.0416" y2="203.5636">
			<stop  offset="0" style="stop-color:#090000"/>
			<stop  offset="0.1876" style="stop-color:#45403C"/>
			<stop  offset="0.335" style="stop-color:#4F4946"/>
			<stop  offset="0.5395" style="stop-color:#645C5B"/>
			<stop  offset="0.7914" style="stop-color:#2A1B13"/>
		</linearGradient>
		<path class="st61" d="M304.79,235.37h-7.38v-35.53h7.38V235.37z"/>
		<linearGradient id="SVGID_60_" gradientUnits="userSpaceOnUse" x1="382.2067" y1="220.2651" x2="31.1221" y2="202.0157">
			<stop  offset="0" style="stop-color:#090000"/>
			<stop  offset="0.1876" style="stop-color:#45403C"/>
			<stop  offset="0.335" style="stop-color:#4F4946"/>
			<stop  offset="0.5395" style="stop-color:#645C5B"/>
			<stop  offset="0.7914" style="stop-color:#2A1B13"/>
		</linearGradient>
		<path class="st62" d="M340.02,199.84v6.29h-10.63v29.24h-7.47v-29.24h-10.68v-6.29H340.02z"/>
		<linearGradient id="SVGID_61_" gradientUnits="userSpaceOnUse" x1="382.3008" y1="218.4566" x2="31.2161" y2="200.2072">
			<stop  offset="0" style="stop-color:#090000"/>
			<stop  offset="0.1876" style="stop-color:#45403C"/>
			<stop  offset="0.335" style="stop-color:#4F4946"/>
			<stop  offset="0.5395" style="stop-color:#645C5B"/>
			<stop  offset="0.7914" style="stop-color:#2A1B13"/>
		</linearGradient>
		<path class="st63" d="M367.09,199.84h8.41l-11.88,22.21v13.32h-7.42v-13.32l-12.29-22.21h8.75l7.38,15.47L367.09,199.84z"/>
	</g>
</g>
</svg>
