<svg width="191" height="172" viewBox="0 0 191 172" fill="none" xmlns="http://www.w3.org/2000/svg">
<path fill-rule="evenodd" clip-rule="evenodd" d="M126.411 69.6681C125.693 69.7362 125.59 70.3319 125.642 70.6723C126.547 70.6553 127.316 70.8085 127.948 71.183C128.307 71.3702 128.683 71.166 128.734 70.9617C128.888 70.4681 128.717 69.9745 128.256 69.8213C127.607 69.617 126.975 69.617 126.411 69.6681ZM92.9028 56.8851H98.439V63.0128H104.59V68.5276H98.439V74.6553H92.9028V68.5276H86.7514V63.0128H92.9028V56.8851ZM112.553 64.3745C112.826 64.8681 113.254 65.2596 113.886 65.5489C114.552 65.2425 114.962 64.834 115.219 64.3745C114.022 65.0042 113.715 65.0553 112.553 64.3745ZM112.023 68.3064C112.997 67.6596 114.689 67.7106 115.731 68.3064C114.484 68.3064 113.254 68.3064 112.023 68.3064ZM111.186 62.9106C112.98 62.9106 114.774 62.9106 116.551 62.9106C116.09 64.034 115.407 65.0383 114.296 65.8043C115.407 66.5872 116.09 67.5745 116.551 68.6979C114.757 68.6979 112.963 68.6979 111.186 68.6979C111.664 67.5234 112.416 66.5532 113.459 65.8043C112.416 65.0553 111.664 64.0851 111.186 62.9106ZM109.751 62.9106V68.7149H110.588V62.9106H109.751ZM109.05 70.5872H118.67V69.5149H109.05V70.5872ZM117.166 62.9106V68.7149H118.004V62.9106H117.166ZM109.05 62.0426H118.67V60.9702H109.05V62.0426ZM95.705 83.0468H95.6709H95.6538H95.6367H95.6196H95.6025H95.5854H95.5683H95.5513H95.5342H95.5171H95.5H95.4829H95.4658H95.4487H95.4316H95.4146L95.3462 83.0298C95.107 82.9787 94.9019 82.8596 94.7311 82.7064C94.5089 82.4851 94.3722 82.1787 94.3722 81.8553C94.3722 81.5149 94.5089 81.2255 94.7311 81.0042C94.9532 80.783 95.2608 80.6468 95.5854 80.6468C95.9272 80.6468 96.2177 80.783 96.4398 81.0042C96.6619 81.2255 96.7986 81.5319 96.7986 81.8553C96.7986 82.1957 96.6619 82.4851 96.4398 82.7064C96.2347 82.8766 95.9784 82.9957 95.705 83.0468ZM93.347 83.5064C93.4154 83.6085 93.5008 83.7106 93.6033 83.7957C94.0134 84.2043 94.5431 84.4766 95.1412 84.5617H95.1924H95.2095H95.2266H95.2437H95.2608H95.2779H95.312H95.3462H95.3804H95.3975H95.4146H95.4316H95.4487H95.4658H95.4829H95.5H95.5342H95.5683H95.6025H95.6367H95.6538H95.6709H95.688H95.705H95.7221H95.7392H95.7563H95.7905H95.8247H95.8588H95.8759H95.893H95.9101H95.9272H95.9443H95.9614H96.0126C96.6107 84.4766 97.1404 84.1872 97.5505 83.7957C97.6359 83.7106 97.7213 83.6085 97.8068 83.5064C97.8922 83.6426 97.9264 83.7957 97.9264 83.9489C97.9264 84.2894 97.7042 84.6128 97.3454 84.8511C96.9011 85.1574 96.286 85.3447 95.6025 85.3447C94.9019 85.3447 94.2868 85.1574 93.8596 84.8511C93.5008 84.5957 93.2787 84.2723 93.2787 83.9489C93.2274 83.7957 93.2616 83.6426 93.347 83.5064ZM94.4919 92.9191V93.0723H92.8515V94.8766H94.5089V95.7787H96.679V94.8766H98.3194V93.0723H96.679V91.966H98.0289V90.2128H96.679V87.0808C97.2941 86.9447 97.8751 86.7234 98.3877 86.366C99.1908 85.8043 99.7547 84.9532 99.7547 83.9489C99.7547 83.3872 99.5838 82.8596 99.2592 82.4C99.0883 82.1447 98.8662 81.9234 98.6269 81.7191C98.5928 80.9532 98.2852 80.2213 97.7213 79.6766C97.1404 79.0979 96.3714 78.7745 95.5513 78.7745C94.7311 78.7745 93.9622 79.0979 93.3812 79.6766C92.8344 80.2213 92.5098 80.9532 92.4756 81.7191C92.2364 81.9234 92.0313 82.1447 91.8434 82.4C91.5358 82.8596 91.3478 83.3872 91.3478 83.9489C91.3478 84.9532 91.9117 85.8043 92.7148 86.366C93.2274 86.7234 93.8425 86.9787 94.4748 87.0979V90.2128H93.2103V91.966H94.4748L94.4919 92.9191ZM72.9279 66.3319H80.788V70.1447H77.8661V68.4426C77.8661 67.8638 77.4218 67.4043 76.875 67.4043C76.3282 67.4043 75.884 67.8638 75.884 68.4426V70.1447H72.9279V66.3319ZM72.1248 61.4128H74.3119V63.9489H75.7644V61.4128H77.9515V63.9489H79.4039V61.4128H81.5911V64.6128V65.566H80.7709H72.8937H72.1248V64.6128V61.4128ZM99.4471 45.2596C98.8491 44.9362 98.2339 44.6809 97.5846 44.5277C96.9353 44.3745 96.286 44.2894 95.6196 44.2894C94.9874 44.2894 94.1672 44.3234 93.5521 44.5277C93.3129 44.6128 92.9369 44.783 92.9369 45.0894C92.9369 45.4128 93.3641 45.5319 93.6033 45.6C93.8255 45.6511 94.0476 45.6851 94.2697 45.7021C94.526 45.7362 94.7994 45.7532 95.0557 45.7532C95.3462 45.7702 95.6538 45.7702 95.9443 45.7872C96.2689 45.8043 96.6107 45.8213 96.9353 45.8553C97.5505 45.9064 98.1656 45.9915 98.7636 46.1447C99.225 46.2468 99.6863 46.417 100.096 46.6553C100.438 46.8596 100.729 47.1319 100.917 47.4894C101.105 47.8468 101.19 48.2553 101.19 48.6638C101.19 49.7021 100.694 50.4851 99.806 51.0298C98.6953 51.7106 97.1404 51.8638 95.8588 51.8638C94.8165 51.8638 93.7571 51.7447 92.749 51.4723C91.775 51.2 90.8523 50.7574 90.015 50.1787L89.8954 50.0936L91.2282 48.4596L91.3307 48.5106C92.0484 48.9362 92.8002 49.2936 93.5862 49.5319C94.3552 49.7532 95.1412 49.8553 95.9443 49.8553C96.5765 49.8553 97.3796 49.8043 97.9605 49.5319C98.2852 49.3787 98.6099 49.1404 98.6099 48.766C98.6099 48.6298 98.5757 48.5106 98.4561 48.4255C98.3023 48.3064 98.0972 48.2383 97.9093 48.2043C97.6017 48.1362 97.2771 48.1191 96.9695 48.1021C96.5423 48.0851 96.1151 48.0511 95.688 48.034C94.9361 48 94.1501 47.9489 93.3983 47.8128C92.8344 47.7106 92.2534 47.5745 91.7579 47.3191C91.3649 47.1319 90.989 46.8596 90.7498 46.4851C90.5106 46.1277 90.408 45.7191 90.408 45.2766C90.408 44.3064 90.9036 43.5915 91.7408 43.0979C92.8002 42.4511 94.2868 42.3149 95.5 42.3149C97.3283 42.3149 99.2421 42.6213 100.797 43.6255L100.917 43.7106L99.5155 45.3277L99.4471 45.2596ZM79.0451 22.8936C89.5195 26.6383 101.139 26.6383 111.613 22.8936C110.964 22.6723 110.332 22.4511 109.682 22.2468C104.881 23.5745 100.079 24.2723 95.295 24.2894C90.4935 24.3064 85.7091 23.6255 80.9418 22.2638C80.3095 22.4511 79.6773 22.6553 79.0451 22.8936ZM113.39 18.9447C113.527 18.9957 114.176 19.3021 114.33 19.3532C114.005 20.4255 113.254 21.7872 112.912 22.2808C112.365 22.0596 112.621 22.1617 112.075 21.9574C101.173 17.9574 89.5195 17.9574 78.6179 21.9574C78.0711 22.1617 78.3274 22.0596 77.7806 22.2808C77.4218 21.7872 76.67 20.4255 76.3624 19.3532C76.4991 19.3021 77.1484 18.9957 77.3022 18.9447C88.7848 14.3149 101.873 14.3149 113.39 18.9447ZM77.9002 19.8809L78.1736 20.6468C83.8466 18.6553 89.5537 17.6851 95.2779 17.6851C101.002 17.7021 106.76 18.7064 112.536 20.6468L112.792 19.8809C106.931 17.9064 101.105 16.9021 95.2779 16.8851C89.4682 16.8681 83.6757 17.8383 77.9002 19.8809ZM72.3811 8.62979C72.8595 8.62979 73.2696 9.02128 73.2696 9.51489C73.2696 9.99149 72.8766 10.4 72.3811 10.4C71.9027 10.4 71.4926 10.0085 71.4926 9.51489C71.5097 9.02128 71.9027 8.62979 72.3811 8.62979ZM83.146 4.88511C83.7099 4.88511 84.1712 5.34468 84.1712 5.90638C84.1712 6.46808 83.7099 6.92766 83.146 6.92766C82.5821 6.92766 82.1208 6.46808 82.1208 5.90638C82.1379 5.34468 82.5821 4.88511 83.146 4.88511ZM95.3462 0.885106C95.9272 0.885106 96.3885 1.34468 96.3885 1.9234C96.3885 2.48511 95.9272 2.9617 95.3462 2.9617C94.7653 2.9617 94.3039 2.50213 94.3039 1.9234C94.3039 1.3617 94.7653 0.885106 95.3462 0.885106ZM107.581 4.88511C107.017 4.88511 106.555 5.34468 106.555 5.90638C106.555 6.46808 107.017 6.92766 107.581 6.92766C108.144 6.92766 108.606 6.46808 108.606 5.90638C108.606 5.34468 108.144 4.88511 107.581 4.88511ZM118.346 8.62979C117.867 8.62979 117.457 9.02128 117.457 9.51489C117.457 9.99149 117.85 10.4 118.346 10.4C118.824 10.4 119.234 10.0085 119.234 9.51489C119.234 9.02128 118.841 8.62979 118.346 8.62979ZM114.057 17.6L115.663 13.2596C114.074 14.417 112.399 15.5234 110.537 16.4936C110.896 16.5957 111.271 16.7149 111.63 16.817C112.485 16.3404 113.339 15.8298 114.108 15.183L113.288 17.3447L114.057 17.6ZM107.256 15.5915C107.769 15.7277 108.298 15.8638 108.811 16C107.734 14.0596 106.931 11.6426 106.35 9.46383C105.12 11.0809 103.428 12.8 101.515 14.417C102.044 14.5021 102.557 14.5872 103.087 14.6723C104.214 13.8894 105.188 12.8681 105.872 11.8298C106.094 13.0553 106.692 14.5532 107.256 15.5915ZM91.3478 14.1617C92.9369 12.0681 94.321 9.49787 95.295 7.14894C96.3885 9.29362 97.7042 12.034 99.5838 14.1957C98.9516 14.1277 98.3023 14.0766 97.6701 14.0426C96.6619 12.783 95.8588 10.9957 95.3633 9.68511C94.8849 11.2 93.9963 12.834 93.1591 14.0255C92.561 14.0596 91.9459 14.0936 91.3478 14.1617ZM83.3852 15.5745C83.9149 14.5532 84.5813 13.0723 84.8376 11.8468C85.5211 12.8681 86.7514 13.8383 87.8279 14.6383C88.3234 14.5532 88.8189 14.4851 89.2974 14.4C87.2298 12.8 85.4528 11.1149 84.2908 9.48085C83.727 11.6596 82.9068 14.0426 81.8474 15.983C82.36 15.8468 82.8726 15.7106 83.3852 15.5745ZM76.5333 17.634C76.8067 17.5319 77.0972 17.4468 77.3705 17.3447C77.0801 16.6298 76.7554 15.9319 76.482 15.217C77.2509 15.8638 78.1566 16.3404 79.0109 16.817C79.4552 16.6808 79.8994 16.5447 80.3608 16.4085C78.4983 15.4383 76.3966 14.417 74.8075 13.2596C75.3543 14.7234 75.9694 16.1702 76.5333 17.634ZM122.344 35.8128H68.2289L68.2631 89.0553C68.2631 89.9574 68.434 90.7404 68.9124 91.5064C70.7578 94.5362 76.7041 96.9702 79.8653 98.2128C84.5813 100.068 90.5789 101.889 95.3804 104.885C100.182 101.906 106.179 100.085 110.896 98.2298C114.484 96.817 122.515 93.9404 122.498 89.0894L122.344 35.8128ZM125.59 62.8936C125.18 62.8936 124.856 63.217 124.856 63.6255C124.856 64.017 125.163 64.3234 125.539 64.3574C125.556 64.3574 125.573 64.3574 125.59 64.3574C126.001 64.3574 126.325 64.034 126.325 63.6255C126.325 63.217 126.001 62.8936 125.59 62.8936ZM65.0507 62.8936C64.6406 62.8936 64.316 63.217 64.316 63.6255C64.316 64.034 64.6406 64.3574 65.0507 64.3574C65.4608 64.3574 65.7855 64.034 65.7855 63.6255C65.7855 63.217 65.4437 62.8936 65.0507 62.8936ZM120.447 31.7447C120.037 31.7447 119.712 32.0681 119.712 32.4766C119.712 32.8851 120.037 33.2085 120.447 33.2085C120.857 33.2085 121.182 32.8851 121.182 32.4766C121.182 32.0681 120.857 31.7447 120.447 31.7447ZM69.4079 31.7447C68.9978 31.7447 68.6732 32.0681 68.6732 32.4766C68.6732 32.8851 68.9978 33.2085 69.4079 33.2085C69.818 33.2085 70.1427 32.8851 70.1427 32.4766C70.1427 32.0681 69.818 31.7447 69.4079 31.7447ZM76.7041 31.7447C76.2941 31.7447 75.9694 32.0681 75.9694 32.4766C75.9694 32.8851 76.2941 33.2085 76.7041 33.2085C77.1142 33.2085 77.4389 32.8851 77.4389 32.4766C77.4389 32.0681 77.1142 31.7447 76.7041 31.7447ZM84.0004 31.7447C83.5903 31.7447 83.2656 32.0681 83.2656 32.4766C83.2656 32.8851 83.5903 33.2085 84.0004 33.2085C84.4104 33.2085 84.7351 32.8851 84.7351 32.4766C84.7351 32.0681 84.3934 31.7447 84.0004 31.7447ZM91.2795 31.7447C90.8694 31.7447 90.5447 32.0681 90.5447 32.4766C90.5447 32.8851 90.8694 33.2085 91.2795 33.2085C91.6896 33.2085 92.0142 32.8851 92.0142 32.4766C92.0142 32.0681 91.6896 31.7447 91.2795 31.7447ZM98.5757 31.7447C98.1656 31.7447 97.8409 32.0681 97.8409 32.4766C97.8409 32.8851 98.1656 33.2085 98.5757 33.2085C98.9858 33.2085 99.3104 32.8851 99.3104 32.4766C99.3104 32.0681 98.9858 31.7447 98.5757 31.7447ZM105.872 31.7447C105.462 31.7447 105.137 32.0681 105.137 32.4766C105.137 32.8851 105.462 33.2085 105.872 33.2085C106.282 33.2085 106.607 32.8851 106.607 32.4766C106.607 32.0681 106.282 31.7447 105.872 31.7447ZM113.168 31.7447C112.758 31.7447 112.433 32.0681 112.433 32.4766C112.433 32.8851 112.758 33.2085 113.168 33.2085C113.578 33.2085 113.903 32.8851 113.903 32.4766C113.903 32.0681 113.561 31.7447 113.168 31.7447ZM127.009 30.4681L122.857 34.5872H67.8701L63.7179 30.4681H127.009ZM89.2461 104.596C89.6562 104.596 89.9809 104.919 89.9809 105.328C89.9809 105.736 89.6562 106.06 89.2461 106.06C88.836 106.06 88.5114 105.736 88.5114 105.328C88.5114 104.936 88.8531 104.596 89.2461 104.596ZM81.8986 101.736C82.3087 101.736 82.6334 102.06 82.6334 102.468C82.6334 102.877 82.3087 103.2 81.8986 103.2C81.4885 103.2 81.1639 102.877 81.1639 102.468C81.1468 102.077 81.4885 101.736 81.8986 101.736ZM75.303 98.9447C75.7131 98.9447 76.0378 99.2681 76.0378 99.6766C76.0378 100.085 75.7131 100.409 75.303 100.409C74.8929 100.409 74.5683 100.085 74.5683 99.6766C74.5683 99.2681 74.8929 98.9447 75.303 98.9447ZM69.3396 95.7277C69.7497 95.7277 70.0743 96.0511 70.0743 96.4596C70.0743 96.8681 69.7497 97.1915 69.3396 97.1915C68.9295 97.1915 68.6048 96.8681 68.6048 96.4596C68.6048 96.0681 68.9295 95.7277 69.3396 95.7277ZM65.0678 90.5702C64.6577 90.5702 64.3331 90.8936 64.3331 91.3021C64.3331 91.7106 64.6577 92.034 65.0678 92.034C65.4779 92.034 65.8026 91.7106 65.8026 91.3021C65.8026 90.8936 65.4779 90.5702 65.0678 90.5702ZM65.0678 83.7277C64.6577 83.7277 64.3331 84.0511 64.3331 84.4596C64.3331 84.8681 64.6577 85.1915 65.0678 85.1915C65.4779 85.1915 65.8026 84.8681 65.8026 84.4596C65.8026 84.0511 65.4779 83.7277 65.0678 83.7277ZM65.0678 56.3915C64.6577 56.3915 64.3331 56.7149 64.3331 57.1234C64.3331 57.5319 64.6577 57.8553 65.0678 57.8553C65.4779 57.8553 65.8026 57.5319 65.8026 57.1234C65.8026 56.7149 65.4779 56.3915 65.0678 56.3915ZM65.0678 49.5489C64.6577 49.5489 64.3331 49.8723 64.3331 50.2809C64.3331 50.6894 64.6577 51.0128 65.0678 51.0128C65.4779 51.0128 65.8026 50.6894 65.8026 50.2809C65.8026 49.8723 65.4779 49.5489 65.0678 49.5489ZM65.0678 42.7234C64.6577 42.7234 64.3331 43.0468 64.3331 43.4553C64.3331 43.8638 64.6577 44.1872 65.0678 44.1872C65.4779 44.1872 65.8026 43.8638 65.8026 43.4553C65.8026 43.0468 65.4779 42.7234 65.0678 42.7234ZM65.0678 35.8809C64.6577 35.8809 64.3331 36.2043 64.3331 36.6128C64.3331 37.0213 64.6577 37.3447 65.0678 37.3447C65.4779 37.3447 65.8026 37.0213 65.8026 36.6128C65.8026 36.2043 65.4779 35.8809 65.0678 35.8809ZM101.378 104.596C101.788 104.596 102.113 104.919 102.113 105.328C102.113 105.736 101.788 106.06 101.378 106.06C100.968 106.06 100.643 105.736 100.643 105.328C100.643 104.936 100.968 104.596 101.378 104.596ZM108.743 101.736C109.153 101.736 109.477 102.06 109.477 102.468C109.477 102.877 109.153 103.2 108.743 103.2C108.332 103.2 108.008 102.877 108.008 102.468C108.008 102.077 108.332 101.736 108.743 101.736ZM115.338 98.9447C115.748 98.9447 116.073 99.2681 116.073 99.6766C116.073 100.085 115.748 100.409 115.338 100.409C114.928 100.409 114.603 100.085 114.603 99.6766C114.603 99.2681 114.928 98.9447 115.338 98.9447ZM121.284 95.7277C121.695 95.7277 122.019 96.0511 122.019 96.4596C122.019 96.8681 121.695 97.1915 121.284 97.1915C120.874 97.1915 120.55 96.8681 120.55 96.4596C120.55 96.0681 120.891 95.7277 121.284 95.7277ZM125.573 90.5702C125.983 90.5702 126.308 90.8936 126.308 91.3021C126.308 91.7106 125.983 92.034 125.573 92.034C125.163 92.034 124.839 91.7106 124.839 91.3021C124.839 90.8936 125.163 90.5702 125.573 90.5702ZM125.573 83.7277C125.983 83.7277 126.308 84.0511 126.308 84.4596C126.308 84.8681 125.983 85.1915 125.573 85.1915C125.163 85.1915 124.839 84.8681 124.839 84.4596C124.839 84.0511 125.163 83.7277 125.573 83.7277ZM125.573 56.3915C125.983 56.3915 126.308 56.7149 126.308 57.1234C126.308 57.5319 125.983 57.8553 125.573 57.8553C125.163 57.8553 124.839 57.5319 124.839 57.1234C124.839 56.7149 125.163 56.3915 125.573 56.3915ZM125.573 49.5489C125.983 49.5489 126.308 49.8723 126.308 50.2809C126.308 50.6894 125.983 51.0128 125.573 51.0128C125.163 51.0128 124.839 50.6894 124.839 50.2809C124.839 49.8723 125.163 49.5489 125.573 49.5489ZM125.573 42.7234C125.983 42.7234 126.308 43.0468 126.308 43.4553C126.308 43.8638 125.983 44.1872 125.573 44.1872C125.163 44.1872 124.839 43.8638 124.839 43.4553C124.839 43.0468 125.163 42.7234 125.573 42.7234ZM125.573 35.8809C125.983 35.8809 126.308 36.2043 126.308 36.6128C126.308 37.0213 125.983 37.3447 125.573 37.3447C125.163 37.3447 124.839 37.0213 124.839 36.6128C124.839 36.2043 125.163 35.8809 125.573 35.8809ZM95.9272 110.877V105.821C97.0891 105.106 98.3194 104.477 99.5496 103.898C103.394 102.111 107.393 100.783 111.323 99.234C114.826 97.8553 120.84 95.3872 122.874 92.0511C123.455 91.0979 123.677 90.1277 123.677 89.0213L123.523 35.3702L127.641 31.2851L127.743 68.9872C127.47 68.9532 127.197 68.9191 126.906 68.8681C125.437 68.6468 124.48 69.0894 124.873 70.9277C124.223 72.1532 124.411 73.2255 125.402 74.1787C124.548 75.0298 124.685 76.1021 125.385 76.9191C125.061 77.0042 124.822 77.2936 124.822 77.634C124.822 78.0425 125.146 78.366 125.556 78.366C125.966 78.366 126.291 78.0425 126.291 77.634C126.547 77.7702 126.821 77.8723 127.111 77.9574C127.333 78.0085 127.555 78.0425 127.761 78.0596L127.795 89.0042C127.795 90.8596 127.368 92.5787 126.411 94.1787C123.762 98.5532 117.423 101.26 112.843 103.064C109.016 104.579 105.035 105.889 101.31 107.626C99.4813 108.477 97.5334 109.515 95.9272 110.877ZM62.9319 31.217C62.9319 40.017 62.9319 47.7957 62.949 55.3702V58.9106L62.9661 69.0043C63.342 68.9532 63.7179 68.9021 64.0938 68.8511C65.5633 68.6298 66.5202 69.0723 66.1272 70.9106C66.7765 72.1362 66.5886 73.2085 65.5975 74.1617C66.486 75.0468 66.2981 76.2043 65.5121 77.0213C65.7 77.1574 65.8026 77.3617 65.8026 77.617C65.8026 78.0255 65.4779 78.3489 65.0678 78.3489C64.7261 78.3489 64.4356 78.1106 64.3502 77.7872C64.1964 77.8553 64.0426 77.9064 63.8888 77.9404C63.5641 78.0255 63.2566 78.0596 62.9661 78.0425V88.9532C62.9661 90.8255 63.3933 92.5277 64.3672 94.1277C67.0328 98.5191 73.3209 101.209 77.9344 103.013C81.7619 104.528 85.7603 105.855 89.4682 107.609C91.3136 108.46 93.2616 109.515 94.8678 110.877V105.821C93.6888 105.089 92.4756 104.46 91.2282 103.881C87.4007 102.094 83.3681 100.766 79.421 99.2C75.9352 97.8383 69.9547 95.3532 67.9214 92.034C67.3404 91.0638 67.1012 90.0936 67.1012 88.9532L67.067 35.3021L62.9319 31.217ZM140.029 49.9745C140.08 49.1234 140.354 48.4936 140.747 48.4596C141.909 48 142.609 47.7106 143.84 46.6043C143.669 46.0255 144.301 45.6851 145.634 45.7192C147.821 45.7872 150.008 45.9574 151.905 46.8596C152.486 46.5362 153.084 46.2979 153.665 46.1106C154.382 46.0936 154.69 47.4383 154.28 48.3745C153.818 48.4936 153.237 48.5787 152.674 48.6468C152.708 48.3574 152.674 48.0851 152.605 47.7957C152.913 47.4723 153.357 47.234 153.801 47.0298C153.169 46.9957 152.588 47.166 152.058 47.4213C152.417 49.4809 150.606 51.3021 148.795 51.9489C148.949 52.5617 149.051 53.1745 149.137 53.7872C148.573 53.3617 147.94 52.9532 147.086 52.6638C147.274 53.8553 146.163 54.5702 143.805 54.8426C142.643 54.9617 142.319 55.183 141.516 55.5064C140.798 55.5574 140.405 55.3702 140.046 55.1319C139.927 54.8596 139.909 54.6043 139.944 54.3319C139.995 53.8723 141.037 54.1787 142.302 54.6553C142.678 54.6043 143.259 54.4 143.429 54.1957C141.584 53.4638 140.473 53.2255 138.782 53.1574C138.782 52.7149 138.901 51.5404 139.106 50.9447C139.209 50.6723 139.944 50.6723 140.029 49.9745ZM143.874 48.7489C143.908 48.9021 144.455 48.834 144.54 48.7149C144.95 48.1532 145.497 47.7787 146.283 47.6766C146.403 47.6596 146.471 47.3702 146.283 47.2511C145.599 47.3191 144.916 47.4043 144.284 47.5745C144.079 47.6255 143.908 47.7617 143.891 48C143.84 48.2553 143.857 48.5447 143.874 48.7489ZM143.464 54.2638C144.967 54.6213 145.839 52.3574 144.318 52.0851C144.66 52.766 144.403 53.7362 143.464 54.2638ZM145.599 52.766C146.385 52.5617 146.42 50.9957 146.437 50.9617C146.42 50.8426 145.924 50.5872 145.822 50.6894C145.839 51.3191 145.753 52.1191 145.599 52.766ZM147.462 45.1404C147.445 43.6255 148.846 42.7915 151.751 42.6723C150.025 43.2681 149.068 44.2553 149.188 45.3617C148.744 45.1915 148.18 45.1064 147.462 45.1404ZM151.307 46.0936C152.588 43.5404 156.142 44.1191 157.236 42.5872C155.032 43.6936 152.281 42.2808 150.059 45.4298C150.469 45.583 150.896 45.8043 151.307 46.0936ZM154.758 46.1277C156.159 45.1064 157.185 44.6128 160.26 44.3234C159.218 43.0979 156.364 43.5745 152.913 45.4638C154.006 45.2596 154.656 45.4638 154.758 46.1277ZM163.08 47.7617C160.312 46.8936 157.731 46.9277 154.946 47.983C155.032 47.6255 154.997 47.0979 154.946 46.7745C158.842 44.1191 161.337 45.0894 163.08 47.7617ZM160.482 48.3234C164.207 50.1277 169.248 54.6894 167.967 58.9106C167.42 55.0979 162.379 49.2766 160.482 48.3234ZM164.105 67.1489C165.301 57.4979 161.371 48.2383 154.758 49.5489C162.67 44.1532 170.718 63.3532 164.105 67.1489ZM149.803 52.6979C152.246 57.4128 152.11 61.3447 147.137 65.7362C154.485 63.1489 154.809 56.766 150.862 52.6979C152.246 51.8468 153.101 50.7234 153.665 49.3787C153.289 49.3106 153.084 49.1915 152.708 49.1404C152.554 49.8723 151.751 51.6936 149.803 52.6979ZM140.781 63.8298C148.709 66.4851 152.674 58.9277 148.145 54.0426C147.359 54.7574 146.573 55.166 145.719 55.3191C150.999 58.9106 147.821 64.8 140.781 63.8298ZM157.236 70.8936C161.354 64.2894 160.67 55.1319 154.194 51.6936C153.784 52.0511 153.272 52.3745 152.639 52.6468C158.159 55.7787 158.996 62.2638 157.236 70.8936ZM160.38 71.2C164.361 66.5532 164.823 56.1191 157.441 50.4511C156.535 50.4681 155.647 50.4681 154.741 50.4851C160.499 55.1149 161.456 59.6596 160.38 71.2ZM142.763 69.7362C141.874 71.0128 142.233 72.1021 142.712 72.6128C142.729 71.5234 143.634 70.383 146.027 68.9362C149.666 66.7574 153.596 66.9106 155.749 63.7957C157.338 61.5149 156.569 58.1617 153.87 54.2468C155.305 56.6468 155.493 60.2383 153.87 62.2808C151.221 65.634 144.848 66.7234 142.763 69.7362ZM143.053 65.3277C144.882 65.3277 145.992 64.9702 147.325 64.2553C145.856 65.7702 143.429 67.0468 142.49 68.3745C141.106 70.3319 141.174 71.6426 140.149 73.2936C139.927 70.8255 139.26 68.3915 143.053 65.3277ZM141.225 66.0085C140.525 66.6723 140.012 67.3702 139.67 68.1021C138.645 67.4553 137.962 66.6213 137.5 65.634C138.628 66.0255 139.824 66.2468 141.225 66.0085ZM143.122 73.7191C143.925 70.6553 147.428 68.5447 152.844 66.9617C152.913 69.2085 151.734 71.4043 149.102 73.4979C150.008 73.566 150.914 73.634 151.819 73.7191C148.983 75.7106 146.01 77.4468 142.746 78.6723C143.515 77.9915 143.891 77.2596 144.369 76.3915C144.54 76.0851 144.335 76.034 144.13 76.2723C142.507 78.2128 140.901 79.4043 138.85 78.5021C139.329 78.0596 139.585 77.5149 139.516 77.0723C138.013 77.9574 136.953 78.0766 135.586 77.6511C135.911 77.3617 136.048 77.2425 135.962 76.9191C132.596 77.4979 132.613 76.3574 130.682 76.2213C130.87 75.5404 136.97 77.2255 140.986 76.3915C140.952 76.6468 140.969 76.8511 141.037 77.0383C142.866 76.2553 144.233 74.9617 145.941 73.9915C144.796 74.1277 142.934 75.3702 141.669 75.6425C141.481 75.4213 141.242 75.217 140.918 74.9957C140.832 75.166 140.781 75.3532 140.764 75.5234C138.679 75.6596 130.99 74.6042 130.136 74.8255C129.879 74.8936 129.76 75.3702 129.674 75.5745C128.837 77.7362 125.044 76.4426 126.052 75.0979C126.394 74.6723 127.778 74.7915 128.615 74.8255C128.769 74.6723 128.803 74.4851 128.461 74.3489C127.265 74.1106 125.095 73.6681 125.437 71.9489C125.71 70.6213 128.324 71.4043 128.734 73.1745C129.093 72.4255 131.058 73.2426 133.536 73.566C135.535 73.8383 137.927 73.617 139.687 73.3277C139.875 73.9404 140.08 74.3149 140.217 74.6553C140.73 74.0426 141.191 73.3277 141.618 72.4596C141.892 73.0553 142.438 73.566 143.122 73.7191ZM151.819 72.1532C154.758 70.6723 156.45 68.0681 156.997 64.4596C156.364 65.4638 155.664 66.1617 154.827 66.7915C153.938 67.4383 153.63 68.0851 153.46 68.817C153.186 70.0255 152.605 71.1149 151.819 72.1532ZM176.339 87.7447C172.392 90.4851 166.634 91.5404 163.438 91.217C163.541 91.983 163.541 91.8128 163.421 92.5106C174.152 91.3021 180.184 87.7277 180.252 84.2383C180.286 82.5532 179.654 79.966 177.364 79.1659C179.552 81.2596 180.679 84.7149 176.339 87.7447ZM179.193 71.3362C175.98 71.0468 177.945 67.8468 176.578 66.5702C176.015 66.0596 176.322 65.566 176.92 65.2936C177.501 65.0383 178.68 64.9702 179.466 65.3277C178.919 65.4809 178.971 65.8894 179.124 66.0255C180.594 67.3532 179.62 70.0085 180.423 70.9617C179.261 70.9106 179.244 69.0894 179.022 67.7957C178.851 66.7915 178.373 66.5191 177.535 66.6213C179.432 67.6085 177.723 69.7702 179.193 71.3362ZM150.196 78.4851C150.264 77.5319 149.752 77.3447 148.966 77.5319C147.274 77.9234 145.702 78.8596 144.796 79.7106C143.634 80.8 144.027 81.8383 144.848 81.634C145.668 81.4298 148.231 80.5276 148.18 79.4723C148.624 79.983 148.624 80.6298 147.496 81.4128C146.488 82.1106 145.531 82.6042 144.95 83.183C144.147 83.966 144.13 84.4085 144.233 84.8851C144.455 85.9064 145.309 85.9745 146.027 85.8383C146.932 85.6851 147.65 85.2766 148.299 84.6979C148.744 84.3064 149 83.8808 148.949 83.3191C149.7 83.7787 149.41 84.7489 148.692 85.3277C147.992 85.8894 147.308 86.4 146.625 86.9617C146.317 87.3702 146.334 88 146.676 88.4936C147.035 89.0043 147.291 89.0383 148.043 89.0894C148.504 89.1234 148.914 89.2085 149.324 89.2426C149.666 89.2766 149.683 89.4979 149.393 89.634C148.795 89.9064 148.624 90.383 148.538 90.9106C148.402 91.7957 149 93.2596 148.914 94.3489C148.538 99.5745 148.709 101.855 151.358 107.285C152.024 108.664 153.767 108.63 155.476 107.438C157.56 105.991 158.227 103.694 157.458 100.902C157.031 99.3191 157.56 98.1787 158.466 97.1745C160.619 94.8255 161.866 92.5277 160.927 90.0936C160.175 88.1872 159.03 88.2213 157.834 88.5957C156.501 89.8043 156.194 91.7447 156.313 93.6681C155.014 90.8766 155.254 88.783 157.543 86.7574C157.919 85.7872 156.467 84.6468 155.766 85.5319C155.185 86.2638 154.16 86.8596 153.357 86.8255C154.399 85.7021 155.408 83.966 155.066 83.0979C154.263 81.0894 153.938 78.9787 155.168 76.4936C155.835 75.4043 154.946 75.0638 153.408 75.5404C151.819 76.0511 150.709 77.0723 150.196 78.4851ZM150.179 100.017C149.632 98.6383 149.854 97.8723 150.11 97.1404C150.606 95.6936 151.426 94.3149 151.614 92.6468C152.862 95.0298 151.033 97.8213 150.179 100.017ZM157.714 107.047C158.107 108.409 157.817 109.634 156.638 110.179C156.416 110.179 154.912 109.26 155.595 109.004C156.569 108.579 157.167 107.83 157.714 107.047ZM158.757 109.294C159.628 111.081 157.783 116.783 156.381 117.923C156.228 118.111 156.108 118.383 156.296 118.485C157.543 119.098 159.372 118.162 159.919 116.477C160.26 115.421 159.953 114.179 160.192 113.089C160.329 112.477 161.08 112.068 161.149 111.438C161.183 111.166 161.115 110.979 160.892 110.928C160.089 110.791 160.004 109.413 159.218 109.072C159.03 108.868 158.671 108.953 158.757 109.294ZM151.939 120.8C152.366 120.426 153.323 119.523 152.93 118.928C152.639 118.485 151.973 118.519 151.648 118.74C150.982 119.183 150.606 119.83 150.657 120.579C150.674 120.97 151.46 121.123 151.939 120.8ZM154.878 120.8C152.81 121.481 152.742 118.502 154.878 118.468C155.647 118.485 156.108 119.268 155.835 120.136C155.681 120.613 155.254 120.681 154.878 120.8ZM157.543 119.37C157.936 119.064 158.329 119.149 158.62 119.489C158.859 119.779 158.996 120.102 159.013 120.426C159.03 120.766 158.893 120.936 158.688 120.987C158.124 121.106 157.612 121.123 157.202 120.97C156.911 120.851 156.843 120.579 156.894 120.357C156.997 119.966 157.202 119.626 157.543 119.37ZM139.055 104.409C138.765 104.153 138.765 103.813 139.089 103.796C139.329 103.779 140.661 105.157 143.566 104.834C143.686 104.817 143.788 104.936 143.822 105.174C143.908 105.787 144.301 105.957 145.036 106.519C145.412 106.809 145.241 107.2 144.267 107.745C144.113 107.932 144.181 108.221 144.694 108.017C144.933 107.932 145.104 107.847 145.309 107.762C145.497 107.745 145.719 107.881 145.582 108.085C144.779 109.396 143.822 110.962 143.31 112.374C143.019 112.97 142.575 113.345 141.806 113.549C141.567 113.617 141.328 113.651 141.106 113.396C140.661 112.868 139.995 112.919 139.294 113.055C139.141 113.123 139.004 112.664 139.294 112.528C141.054 111.728 142.285 110.111 143.19 108.034C143.31 107.779 143.276 107.523 143.088 107.421C142.114 106.86 139.892 105.123 139.055 104.409ZM135.484 115.132C135.416 114.843 136.253 113.345 137.193 113.345C138.013 113.345 136.868 115.2 136.834 115.217C136.304 115.626 135.552 115.404 135.484 115.132ZM140.285 115.557C141.054 115.609 141.55 115.37 141.311 114.843C140.918 113.974 140.337 113.685 139.807 113.685C138.047 113.702 137.107 115.66 138.406 115.574C139.055 115.574 139.67 115.557 140.285 115.557ZM133.006 114.672C132.955 114.451 133.724 113.26 134.595 113.26C135.364 113.26 134.288 114.723 134.254 114.74C133.775 115.064 133.058 114.894 133.006 114.672ZM50.9709 49.9745C50.9197 49.1234 50.6463 48.4936 50.2533 48.4596C49.0913 48 48.3908 47.7106 47.1605 46.6043C47.3314 46.0255 46.6991 45.6851 45.3663 45.7192C43.1792 45.7872 40.992 45.9574 39.0954 46.8596C38.5144 46.5362 37.9164 46.2979 37.3354 46.1106C36.6177 46.0936 36.3102 47.4383 36.7203 48.3745C37.1816 48.4936 37.7626 48.5787 38.3264 48.6468C38.2923 48.3574 38.3264 48.0851 38.3948 47.7957C38.0872 47.4723 37.643 47.234 37.1987 47.0298C37.8309 46.9957 38.4119 47.166 38.9416 47.4213C38.5828 49.4809 40.394 51.3021 42.2052 51.9489C42.0514 52.5617 41.9489 53.1745 41.8635 53.7872C42.4274 53.3617 43.0596 52.9532 43.9139 52.6638C43.726 53.8553 44.8366 54.5702 47.1947 54.8426C48.3566 54.9617 48.6813 55.183 49.4843 55.5064C50.1849 55.5574 50.595 55.3702 50.9538 55.1319C51.0734 54.8596 51.0905 54.6043 51.0564 54.3319C51.0051 53.8723 49.9628 54.1787 48.6983 54.6553C48.3224 54.6043 47.7415 54.4 47.5706 54.1957C49.416 53.4638 50.5267 53.2255 52.2183 53.1574C52.2183 52.7149 52.0987 51.5404 51.8936 50.9447C51.8082 50.6723 51.0564 50.6723 50.9709 49.9745ZM47.1263 48.7489C47.0921 48.9021 46.5454 48.834 46.4599 48.7149C46.0498 48.1532 45.503 47.7787 44.717 47.6766C44.5974 47.6596 44.5291 47.3702 44.717 47.2511C45.4005 47.3191 46.084 47.4043 46.7162 47.5745C46.9213 47.6255 47.0921 47.7617 47.1092 48C47.1605 48.2553 47.1605 48.5447 47.1263 48.7489ZM47.5535 54.2638C46.0498 54.6213 45.1784 52.3574 46.6991 52.0851C46.3403 52.766 46.6137 53.7362 47.5535 54.2638ZM45.4176 52.766C44.6316 52.5617 44.5974 50.9957 44.5803 50.9617C44.5974 50.8426 45.093 50.5872 45.1955 50.6894C45.1613 51.3191 45.2638 52.1191 45.4176 52.766ZM43.5551 45.1404C43.5722 43.6255 42.171 42.7915 39.2662 42.6723C40.992 43.2681 41.9489 44.2553 41.8293 45.3617C42.2736 45.1915 42.8374 45.1064 43.5551 45.1404ZM39.6934 46.0936C38.4119 43.5404 34.8578 44.1191 33.7642 42.5872C35.9684 43.6936 38.7195 42.2808 40.9408 45.4298C40.5307 45.583 40.1206 45.8043 39.6934 46.0936ZM36.2589 46.1277C34.8578 45.1064 33.8325 44.6128 30.7568 44.3234C31.7992 43.0979 34.6527 43.5745 38.1043 45.4638C36.9937 45.2596 36.3614 45.4638 36.2589 46.1277ZM27.9204 47.7617C30.6885 46.8936 33.2687 46.9277 36.0539 47.983C35.9684 47.6255 36.0026 47.0979 36.0539 46.7745C32.1751 44.1191 29.6633 45.0894 27.9204 47.7617ZM30.5347 48.3234C26.8097 50.1277 21.769 54.6894 23.0505 58.9106C23.5802 55.0979 28.621 49.2766 30.5347 48.3234ZM26.8951 67.1489C25.6991 57.4979 29.6291 48.2383 36.2418 49.5489C28.3305 44.1532 20.2824 63.3532 26.8951 67.1489ZM41.1971 52.6979C38.7536 57.4128 38.8903 61.3447 43.8627 65.7362C36.5152 63.1489 36.1906 56.766 40.1377 52.6979C38.7536 51.8468 37.8993 50.7234 37.3354 49.3787C37.7113 49.3106 37.9164 49.1915 38.2923 49.1404C38.4631 49.8723 39.2662 51.6936 41.1971 52.6979ZM50.2191 63.8298C42.2907 66.4851 38.3264 58.9277 42.8545 54.0426C43.6405 54.7574 44.4266 55.166 45.2809 55.3191C40.001 58.9106 43.1963 64.8 50.2191 63.8298ZM33.7813 70.8936C29.6633 64.2894 30.3468 55.1319 36.8228 51.6936C37.2329 52.0511 37.7455 52.3745 38.3777 52.6468C32.8415 55.7787 32.0042 62.2638 33.7813 70.8936ZM30.6201 71.2C26.6388 66.5532 26.1775 56.1191 33.5591 50.4511C34.4648 50.4681 35.3533 50.4681 36.2589 50.4851C30.5005 55.1149 29.5437 59.6596 30.6201 71.2ZM48.2541 69.7362C49.1426 71.0128 48.7838 72.1021 48.3053 72.6128C48.2882 71.5234 47.3826 70.383 44.9904 68.9362C41.3509 66.7574 37.4208 66.9106 35.2678 63.7957C33.6787 61.5149 34.4477 58.1617 37.1474 54.2468C35.7121 56.6468 35.5242 60.2383 37.1474 62.2808C39.7789 65.634 46.1524 66.7234 48.2541 69.7362ZM47.9465 65.3277C46.1182 65.3277 45.0075 64.9702 43.6747 64.2553C45.1442 65.7702 47.5706 67.0468 48.5104 68.3745C49.8944 70.3319 49.8261 71.6426 50.8513 73.2936C51.0905 70.8255 51.7569 68.3915 47.9465 65.3277ZM49.7748 66.0085C50.4754 66.6723 50.988 67.3702 51.3298 68.1021C52.355 67.4553 53.0385 66.6213 53.4998 65.634C52.3892 66.0255 51.1931 66.2468 49.7748 66.0085ZM47.8782 73.7191C48.5616 73.566 49.1084 73.0553 49.416 72.4766C49.8432 73.3447 50.3045 74.0596 50.8171 74.6723C50.9709 74.3319 51.176 73.9574 51.3468 73.3447C53.1068 73.634 55.499 73.8553 57.4982 73.583C59.9758 73.2426 61.9238 72.4426 62.2997 73.1915C62.7098 71.4383 65.3241 70.6383 65.5975 71.966C65.9393 73.6681 63.7692 74.1106 62.5731 74.366C62.2313 74.5021 62.2484 74.6894 62.4193 74.8426C63.2566 74.8085 64.6406 74.6894 64.9824 75.1149C65.9905 76.4596 62.1801 77.7532 61.3599 75.5915C61.2745 75.3872 61.1378 74.8936 60.8815 74.8255C60.01 74.6042 52.3379 75.6766 50.2533 75.5234C50.2362 75.3532 50.1849 75.166 50.0995 74.9957C49.7748 75.217 49.5356 75.4213 49.3476 75.6425C48.0832 75.3872 46.2207 74.1277 45.0759 73.9915C46.8017 74.9617 48.1686 76.2553 49.9799 77.0383C50.0482 76.8511 50.0653 76.6468 50.0311 76.3915C54.0466 77.2255 60.1467 75.5404 60.3347 76.2213C58.4038 76.3745 58.4038 77.5149 55.0547 76.9191C54.9522 77.2425 55.0889 77.3617 55.4307 77.6511C54.0808 78.0766 53.0043 77.9574 51.5006 77.0723C51.4323 77.5149 51.6886 78.0596 52.167 78.5021C50.1166 79.4043 48.5104 78.2128 46.8871 76.2723C46.6821 76.017 46.477 76.0851 46.6479 76.3915C47.1263 77.2596 47.5022 77.9915 48.2712 78.6723C45.0075 77.4468 42.0344 75.7277 39.1979 73.7191C40.1035 73.6511 41.0091 73.583 41.9147 73.4979C39.2833 71.3872 38.1043 69.2085 38.1727 66.9617C43.5722 68.5447 47.0921 70.6553 47.8782 73.7191ZM64.6065 69.7191C65.3241 69.7872 65.4266 70.383 65.3754 70.7234C64.4698 70.7064 63.7008 70.8596 63.0686 71.234C62.7098 71.4213 62.3339 71.217 62.2826 71.0128C62.1288 70.5191 62.2997 70.0255 62.761 69.8723C63.3933 69.6681 64.0255 69.6681 64.6065 69.7191ZM39.1808 72.1532C36.2418 70.6723 34.5502 68.0681 34.0034 64.4596C34.6356 65.4638 35.3362 66.1617 36.1735 66.7915C37.062 67.4383 37.3696 68.0851 37.5404 68.817C37.8138 70.0255 38.3948 71.1149 39.1808 72.1532ZM14.6778 87.7447C18.625 90.4851 24.3833 91.5404 27.5786 91.217C27.4761 91.983 27.4761 91.8128 27.5957 92.5106C16.865 91.3021 10.8332 87.7277 10.7649 84.2383C10.7307 82.5532 11.3629 79.966 13.6526 79.1659C11.4655 81.2596 10.3206 84.7149 14.6778 87.7447ZM11.8072 71.3362C15.0196 71.0468 13.0546 67.8468 14.4215 66.5702C14.9854 66.0596 14.6778 65.566 14.0798 65.2936C13.4988 65.0383 12.3198 64.9702 11.5338 65.3277C12.0806 65.4809 12.0293 65.8894 11.8756 66.0255C10.4061 67.3532 11.38 70.0085 10.5769 70.9617C11.7389 70.9106 11.7559 69.0894 11.9781 67.7957C12.149 66.7915 12.6274 66.5191 13.4647 66.6213C11.5851 67.6085 13.2938 69.7702 11.8072 71.3362ZM40.8212 78.4851C40.3086 77.0723 39.1979 76.0511 37.6259 75.5574C36.088 75.0808 35.1995 75.4213 35.8659 76.5106C37.0962 78.9787 36.7886 81.1064 35.9684 83.1149C35.6267 83.966 36.6348 85.7021 37.6771 86.8426C36.874 86.8766 35.8488 86.2638 35.2678 85.5489C34.5673 84.6638 33.1149 85.7872 33.4908 86.7745C35.7805 88.8 36.0197 90.8936 34.7211 93.6851C34.8407 91.7447 34.5331 89.8213 33.2003 88.6128C32.0042 88.2213 30.8423 88.2042 30.1075 90.1106C29.1507 92.5447 30.4151 94.8255 32.5681 97.1915C33.4737 98.1957 34.0205 99.3362 33.5762 100.919C32.8073 103.728 33.4737 106.009 35.5583 107.455C37.25 108.63 38.9928 108.681 39.6763 107.302C42.3248 101.872 42.4957 99.5915 42.1198 94.366C42.0344 93.2766 42.6324 91.7957 42.4957 90.9277C42.4103 90.4 42.2394 89.9234 41.6413 89.6511C41.3509 89.5149 41.368 89.2936 41.7097 89.2596C42.1369 89.2255 42.5299 89.1404 42.9912 89.1064C43.7431 89.0553 43.9994 89.0213 44.3582 88.5106C44.6829 88.034 44.6999 87.4043 44.4095 86.9787C43.7431 86.417 43.0596 85.9064 42.3419 85.3447C41.6243 84.783 41.3338 83.8128 42.0856 83.3362C42.0173 83.8979 42.2907 84.3234 42.7349 84.7149C43.3842 85.3106 44.1019 85.7021 45.0075 85.8553C45.7252 85.9745 46.5795 85.9234 46.8017 84.9021C46.9042 84.4255 46.87 83.983 46.084 83.2C45.503 82.6383 44.5291 82.1277 43.538 81.4298C42.4103 80.6468 42.4103 80 42.8545 79.4894C42.8033 80.5447 45.3834 81.4468 46.1865 81.6511C47.0067 81.8553 47.3997 80.817 46.2378 79.7277C45.3322 78.8766 43.7602 77.9234 42.0685 77.5489C41.2654 77.3617 40.7357 77.5319 40.8212 78.4851ZM40.8212 100.017C39.9668 97.8042 38.1385 95.0298 39.4029 92.6638C39.5738 94.3319 40.394 95.6936 40.9066 97.1574C41.1458 97.8894 41.368 98.6383 40.8212 100.017ZM33.3028 107.047C33.8496 107.83 34.4477 108.579 35.4045 109.004C36.088 109.26 34.5844 110.179 34.3622 110.179C33.2003 109.634 32.9098 108.409 33.3028 107.047ZM32.2605 109.294C32.3459 108.953 31.9871 108.868 31.8162 109.072C31.0132 109.413 30.9448 110.791 30.1417 110.928C29.9196 110.962 29.8512 111.166 29.8854 111.438C29.9537 112.051 30.7056 112.477 30.8423 113.089C31.0815 114.162 30.7568 115.421 31.1157 116.477C31.6625 118.145 33.4737 119.098 34.7381 118.485C34.9432 118.383 34.8236 118.111 34.6527 117.923C33.2174 116.783 31.3891 111.081 32.2605 109.294ZM39.0783 120.8C38.6511 120.426 37.6942 119.523 38.0872 118.928C38.3777 118.485 39.0441 118.519 39.3688 118.74C40.0352 119.183 40.4111 119.83 40.3598 120.579C40.3256 120.97 39.5567 121.123 39.0783 120.8ZM36.1393 120.8C38.2068 121.481 38.2752 118.502 36.1393 118.468C35.3704 118.485 34.909 119.268 35.1824 120.136C35.3191 120.613 35.7463 120.681 36.1393 120.8ZM33.4737 119.37C33.8154 119.626 34.0205 119.966 34.123 120.357C34.1743 120.579 34.1059 120.851 33.8154 120.97C33.4054 121.123 32.9098 121.106 32.3289 120.987C32.1238 120.953 31.9871 120.766 32.0042 120.426C32.0213 120.102 32.158 119.779 32.3972 119.489C32.6877 119.149 33.0807 119.064 33.4737 119.37ZM51.962 104.409C51.1076 105.123 48.9034 106.86 47.9465 107.387C47.7415 107.489 47.7244 107.745 47.844 108C48.7496 110.077 49.9799 111.694 51.7398 112.494C52.0303 112.63 51.8936 113.089 51.7398 113.021C51.0222 112.885 50.3558 112.834 49.9286 113.362C49.7065 113.634 49.4673 113.583 49.228 113.515C48.4591 113.311 48.0319 112.936 47.7244 112.34C47.2288 110.928 46.272 109.362 45.4518 108.051C45.3151 107.847 45.5201 107.711 45.7252 107.728C45.9302 107.813 46.1011 107.898 46.3403 107.983C46.8529 108.17 46.9213 107.881 46.7675 107.711C45.7764 107.166 45.6227 106.774 45.9986 106.485C46.7333 105.923 47.1263 105.753 47.2118 105.14C47.2459 104.919 47.3485 104.8 47.4681 104.8C50.3729 105.14 51.7057 103.745 51.9449 103.762C52.2525 103.813 52.2525 104.153 51.962 104.409ZM55.5161 115.132C55.5844 114.843 54.7472 113.345 53.8074 113.345C52.9872 113.345 54.132 115.2 54.1662 115.217C54.6959 115.626 55.4648 115.404 55.5161 115.132ZM50.7146 115.557C49.9457 115.609 49.4502 115.37 49.6894 114.843C50.0824 113.974 50.6634 113.685 51.1931 113.685C52.953 113.702 53.8928 115.66 52.5942 115.574C51.962 115.574 51.3468 115.557 50.7146 115.557ZM57.9937 114.672C58.045 114.451 57.2761 113.26 56.4046 113.26C55.6357 113.26 56.7122 114.723 56.7464 114.74C57.2419 115.064 57.9425 114.894 57.9937 114.672ZM166.582 119.064L165.933 124.494C167.181 124.187 168.718 124.306 170.393 124.426C172.409 124.579 174.613 124.749 176.305 124.119C174.511 123.353 172.819 122.451 171.777 120.868L171.247 120.068L172.085 119.608C173.195 118.996 174.203 118.264 175.126 117.447C175.451 117.157 175.758 116.868 176.049 116.579C173.81 116.749 171.948 116.34 170.034 115.932C168.496 115.591 166.941 115.251 165.164 115.234C164.207 115.217 163.592 115.353 163.216 115.557C163.097 115.626 163.028 115.677 163.011 115.728V115.813C163.045 115.898 163.114 116 163.233 116.085C163.438 116.255 163.9 116.426 164.344 116.596C165.643 117.089 166.958 117.6 166.582 119.064ZM142.575 120.34C145.753 121.6 149.068 122.519 152.554 123.064C148.931 123.626 143.327 121.991 142.575 120.34ZM144.95 122.553C145.394 124.102 149.324 125.174 151.922 124.46C149.478 124.085 147.171 123.438 144.95 122.553ZM134.288 118.774C134.219 118.128 134.1 117.532 133.638 117.174C133.023 116.681 131.913 116.391 130.341 116.511C128.29 116.681 126.684 116.562 125.625 116.426C125.009 116.34 124.685 116.289 124.685 116.289C124.685 116.102 125.146 115.881 125.983 115.643C127.18 115.302 128.957 115.081 131.144 115.047H131.486C131.742 115.864 133.399 115.881 134.202 115.677C134.117 116.136 135.723 116.562 136.834 116.017C136.851 116.221 137.671 116.374 138.457 116.17C140.61 116.834 142.302 117.668 144.284 118.553C145.668 119.183 147.052 119.813 148.47 120.34C148.641 120.409 149.307 120.647 149.461 120.698C149.53 121.498 151.477 121.838 152.588 121.464C152.947 121.617 153.767 121.753 154.724 121.6C155.783 121.685 155.954 121.668 156.997 121.617C159.56 121.515 162.037 121.038 164.378 120.528L163.695 126.145L163.49 127.779C161.2 128.545 158.791 129.038 156.364 129.209C153.87 129.396 151.341 129.243 148.863 128.698C147.12 128.323 145.07 127.319 143.036 126.349C139.756 124.766 136.543 123.2 134.254 124.034V118.774H134.288ZM24.4517 119.064L25.101 124.494C23.8536 124.187 22.3158 124.306 20.6413 124.426C18.625 124.579 16.4207 124.749 14.7291 124.119C16.5233 123.353 18.2149 122.451 19.2572 120.868L19.7869 120.068L18.9496 119.608C17.839 118.979 16.8308 118.264 15.9081 117.447C15.5835 117.157 15.2759 116.868 14.9854 116.579C17.2238 116.749 19.0863 116.34 21.0001 115.932C22.5379 115.591 24.0929 115.251 25.8699 115.234C26.8268 115.217 27.4419 115.353 27.8179 115.557C27.9375 115.626 28.0058 115.677 28.0229 115.728V115.813C27.9887 115.898 27.9204 116 27.8008 116.085C27.5957 116.255 27.1344 116.426 26.6901 116.596C25.3915 117.089 24.0758 117.6 24.4517 119.064ZM49.2109 120.34C46.0327 121.6 42.7178 122.519 39.2321 123.064C42.8545 123.626 48.442 121.991 49.2109 120.34ZM46.8358 122.553C46.3916 124.102 42.4615 125.174 39.8643 124.46C42.2907 124.085 44.6145 123.438 46.8358 122.553ZM56.5413 118.774V124.034C54.2346 123.217 51.0393 124.766 47.7585 126.349C45.7423 127.319 43.6918 128.323 41.9318 128.698C39.4542 129.243 36.9253 129.379 34.4306 129.209C31.9871 129.038 29.5949 128.545 27.3052 127.779L27.1002 126.145L26.4167 120.528C28.7577 121.038 31.2353 121.515 33.7984 121.617C34.8065 121.668 35.8317 121.651 36.874 121.566C37.6259 121.702 38.5144 121.583 39.1979 121.447C40.6332 121.651 41.5047 121.328 41.7268 120.562C41.9318 120.494 42.1369 120.409 42.359 120.34C43.7772 119.796 45.1613 119.183 46.5454 118.553C48.5275 117.651 50.5438 116.749 52.7138 116.068C53.346 116 53.9783 115.898 54.4738 115.762C55.294 115.932 56.6097 116 56.9685 115.728C57.9254 115.728 58.9677 115.864 59.2069 115.047C59.3607 115.047 59.5145 115.047 59.6683 115.047C61.8725 115.098 63.6325 115.302 64.8286 115.643C65.6659 115.881 66.1272 116.102 66.1272 116.289C66.1272 116.289 65.8026 116.34 65.1874 116.426C64.128 116.562 62.5218 116.681 60.4714 116.511C58.8994 116.374 57.7887 116.664 57.1736 117.174C56.7293 117.532 56.6268 118.128 56.5413 118.774ZM121.114 131.847C126.975 130.911 131.691 130.128 132.613 128.851C132.613 126.145 132.596 123.523 132.528 120.8C132.015 121.089 131.383 121.328 130.665 121.532C125.915 122.809 120.293 123.711 114.586 124.323C102.352 125.617 88.4259 125.617 76.1915 124.323C70.4844 123.728 64.8628 122.809 60.1125 121.532C59.3778 121.345 58.7627 121.089 58.25 120.8C58.1988 123.523 58.1646 126.145 58.1646 128.851C59.0873 130.128 63.8034 130.911 69.6642 131.847C86.3755 134.485 104.402 134.485 121.114 131.847ZM128.871 125.6L129.35 124.953C128.837 124.715 128.171 124.681 127.35 124.851C126.735 124.97 126.257 125.174 125.932 125.43C125.608 125.702 125.454 125.991 125.454 126.332C125.454 126.502 125.488 126.638 125.573 126.757C125.659 126.86 125.778 126.945 125.949 126.996C126.12 127.047 126.325 127.064 126.564 127.064C126.821 127.064 127.111 127.03 127.436 126.979C127.624 126.945 127.778 126.928 127.931 126.911C128.068 126.894 128.205 126.877 128.307 126.877C128.41 126.877 128.478 126.894 128.547 126.928C128.598 126.962 128.632 127.013 128.632 127.081C128.632 127.217 128.547 127.353 128.359 127.489C128.171 127.609 127.914 127.711 127.555 127.779C127.231 127.847 126.923 127.864 126.633 127.83C126.342 127.796 126.052 127.728 125.744 127.609L125.3 128.255C125.625 128.426 125.966 128.511 126.325 128.545C126.684 128.579 127.077 128.545 127.504 128.46C128.154 128.323 128.649 128.119 128.991 127.847C129.333 127.574 129.503 127.234 129.503 126.86C129.503 126.689 129.469 126.553 129.401 126.451C129.333 126.349 129.247 126.264 129.11 126.213C128.974 126.162 128.82 126.128 128.615 126.111C128.41 126.111 128.188 126.111 127.914 126.145C127.778 126.162 127.658 126.179 127.538 126.196C127.419 126.213 127.299 126.23 127.197 126.247C127.094 126.264 126.992 126.281 126.889 126.281C126.787 126.298 126.701 126.298 126.633 126.298C126.428 126.298 126.342 126.23 126.342 126.111C126.342 125.991 126.428 125.889 126.616 125.787C126.804 125.685 127.06 125.6 127.419 125.532C127.692 125.481 127.948 125.464 128.188 125.464C128.393 125.464 128.632 125.515 128.871 125.6ZM124.343 128.953L125.18 128.817L123.352 125.651L122.327 125.821L120.498 129.583L121.336 129.447L121.729 128.63L123.933 128.272L124.343 128.953ZM122.839 126.366L123.591 127.66L122.088 127.898L122.839 126.366ZM119.302 126.962V129.77L118.465 129.889V127.081L116.825 127.319V126.655L120.943 126.06V126.723L119.302 126.962ZM115.355 130.264V126.809L116.193 126.706V130.162L115.355 130.264ZM111.254 130.723V127.268L112.092 127.183V129.991L114.757 129.736V130.4L111.254 130.723ZM109.87 130.826L109.477 130.111L107.256 130.298L106.863 131.081L106.009 131.149L107.854 127.54L108.896 127.455L110.742 130.757L109.87 130.826ZM108.35 128.136L109.118 129.498L107.598 129.617L108.35 128.136ZM105.547 130.026C105.547 130.213 105.496 130.383 105.393 130.536C105.291 130.689 105.154 130.843 104.983 130.962C104.795 131.081 104.59 131.183 104.317 131.251C104.061 131.336 103.77 131.37 103.446 131.387C103.121 131.404 102.83 131.387 102.574 131.336C102.318 131.285 102.096 131.217 101.908 131.115C101.72 131.013 101.583 130.894 101.498 130.74C101.395 130.587 101.344 130.417 101.344 130.247V127.949L102.181 127.898V130.077C102.181 130.298 102.284 130.451 102.506 130.57C102.728 130.689 103.035 130.74 103.428 130.723C103.839 130.706 104.146 130.621 104.351 130.468C104.573 130.332 104.676 130.145 104.676 129.94V127.762L105.513 127.711V130.026H105.547ZM98.8149 131.472C98.6953 131.489 98.5928 131.506 98.4902 131.523C98.3877 131.54 98.2681 131.54 98.1656 131.54C97.8068 131.54 97.4821 131.506 97.1745 131.404C96.867 131.302 96.6107 131.166 96.3885 130.996C96.1835 130.843 96.0468 130.655 95.9443 130.434C95.8417 130.23 95.7905 129.991 95.7905 129.736C95.7905 129.226 95.9955 128.8 96.3885 128.477C96.6107 128.289 96.867 128.153 97.1745 128.034C97.4821 127.932 97.8068 127.881 98.1485 127.864C98.4902 127.864 98.8149 127.898 99.1225 128C99.43 128.102 99.6863 128.238 99.9085 128.409C100.319 128.732 100.507 129.157 100.507 129.651C100.507 129.974 100.421 130.281 100.25 130.536C100.079 130.791 99.8401 131.013 99.4984 131.183L99.9597 131.66L99.225 131.898L98.8149 131.472ZM99.0199 130.689L98.5928 130.247L97.8409 130.468L98.2339 130.877H98.1656C97.9435 130.877 97.7213 130.86 97.5505 130.809C97.3625 130.757 97.2087 130.672 97.0891 130.57C96.9524 130.468 96.867 130.349 96.7986 130.213C96.7303 130.077 96.6961 129.906 96.6961 129.736C96.6961 129.566 96.7303 129.413 96.7986 129.26C96.867 129.123 96.9695 128.987 97.1062 128.885C97.2429 128.783 97.3967 128.698 97.5846 128.63C97.7726 128.562 97.9776 128.545 98.1998 128.528C98.4219 128.528 98.6269 128.545 98.8149 128.613C99.0029 128.664 99.1566 128.749 99.2933 128.851C99.43 128.953 99.5155 129.072 99.6009 129.209C99.6693 129.345 99.7034 129.515 99.7034 129.685C99.7034 129.906 99.6522 130.094 99.5496 130.264C99.3959 130.434 99.2421 130.57 99.0199 130.689ZM92.1851 128.647V131.455L91.3478 131.438V128.63L89.6904 128.596V127.932L93.8425 128.034V128.698L92.1851 128.647ZM85.3673 131.183V127.728L89.1265 127.932V128.596L86.2046 128.443V129.157L88.238 129.26V129.923L86.2046 129.821V130.587L89.2632 130.757V131.421L85.3673 131.183ZM82.0012 130.962V128.511H81.9841L80.3266 130.349L78.6692 128.204H78.6521V130.655L77.8148 130.57V127.115L78.8059 127.2L80.3266 129.174L81.8474 127.472L82.8384 127.557V131.013L82.0012 130.962ZM73.15 130.026V126.57L76.8921 127.03V127.694L73.9873 127.336V128.051L76.0036 128.306V128.97L73.9873 128.715V129.481L77.0288 129.855V130.519L73.15 130.026ZM70.1256 126.094C70.4503 126.145 70.7407 126.23 70.98 126.349C71.2363 126.468 71.4584 126.621 71.6293 126.809C71.8172 126.996 71.9539 127.2 72.0394 127.438C72.1419 127.677 72.1761 127.915 72.1761 128.187C72.1761 128.698 71.971 129.089 71.5609 129.345C71.39 129.464 71.185 129.532 70.9458 129.566C70.7066 129.6 70.4673 129.6 70.211 129.566L67.7847 129.174V125.719L70.1256 126.094ZM70.1769 128.902L68.6561 128.664V126.519L70.1769 126.757C70.3477 126.791 70.5015 126.843 70.6382 126.911C70.7749 126.996 70.8945 127.081 70.997 127.2C71.0996 127.319 71.185 127.438 71.2363 127.591C71.2875 127.728 71.3217 127.881 71.3217 128.034C71.3217 128.255 71.2533 128.443 71.1167 128.596C71.0141 128.715 70.8774 128.8 70.7066 128.851C70.5357 128.919 70.3648 128.919 70.1769 128.902ZM65.9051 128.851L66.7423 128.987V125.532L65.9051 125.396V128.851ZM62.3339 125.328L65.2045 125.923V125.277L61.5137 124.511V127.966L62.3339 128.136V126.706L64.316 127.115V126.468L62.3339 126.06V125.328ZM130.272 64.2894L130.289 71.9149C132.34 72.8851 134.442 73.4979 136.731 73.1064C135.962 71.5574 134.937 71.183 133.536 70.3319C133.878 70.1957 134.219 69.9915 134.493 69.634C134.151 68.5106 132.066 66.1447 130.272 64.2894ZM60.4201 72.0511V64.6128C58.7114 66.417 56.8489 68.5617 56.5242 69.6511C56.7976 70.0085 57.1394 70.1957 57.4811 70.3489C56.0629 71.183 55.0548 71.5574 54.2858 73.1234C56.4559 73.4809 58.4722 72.9362 60.4201 72.0511ZM150.196 119.2C149.854 119.098 149.495 118.979 149.154 118.843C147.77 118.315 146.42 117.702 145.07 117.089C144.164 116.681 143.259 116.272 142.336 115.881C143.173 115.013 144.079 113.43 144.267 112.851C144.933 111.115 145.685 109.43 146.676 107.745C147.411 106.485 147.359 105.583 146.573 105.089C146.027 104.596 145.992 104.17 146.522 103.813C147.137 103.489 147.735 103.166 148.282 102.689C148.88 104.868 150.008 108.46 152.451 109.072C154.621 109.617 156.279 110.587 157.338 111.574C158.124 112.732 157.338 115.404 154.741 117.753C154.434 118.026 154.092 118.111 153.801 118.145C152.93 118.247 152.81 117.634 151.768 117.94C151.272 118.077 150.623 118.519 150.196 119.2ZM160.978 116.511L160.67 119.608L160.209 119.677C160.141 119.251 159.987 118.843 159.816 118.519C160.209 117.872 160.602 117.191 160.978 116.511ZM28.8943 114.315C28.1425 112.715 27.5786 111.064 27.3052 109.345C27.2369 108.885 27.3907 108.698 27.647 108.885C29.3728 110.383 30.6714 109.123 31.577 105.736C32.1751 103.489 31.1328 101.702 28.7235 100.068C28.4672 99.8979 28.4843 99.8128 28.7064 99.6936C28.9627 99.5574 29.2361 99.3702 29.3899 99.1489C29.031 98.5532 28.7577 97.9234 28.5013 97.3277C28.0742 96.3064 28.2279 94.8596 28.1254 94.6213C27.9033 93.9745 27.6982 93.7021 27.2369 93.5489C23.0335 92.6808 17.7706 91.3872 14.6266 89.7702C13.1058 88.9872 10.5598 87.183 10.1327 84.5617C8.97075 77.5319 19.4281 77.2936 20.3337 72.6468C20.795 70.2979 19.1034 67.4553 16.1132 66.6894C15.2759 66.4681 14.8145 67.2 15.1563 68.1872C16.0448 70.7064 14.6095 72.9872 12.7299 73.3447C10.0131 73.8553 8.236 72.5447 6.78359 70.366C6.68107 70.1277 6.95446 69.9915 7.12534 70.1277C8.08222 70.8255 9.10744 71.2681 9.53462 70.8596C10.0301 70.383 10.3719 69.3106 10.1156 67.6085C9.50045 63.5064 12.4223 63.3532 16.0106 64.5617C22.162 66.6383 23.9733 72.5106 20.2312 76.4426C18.625 78.1277 16.3011 79.217 14.7633 80.5617C13.4134 81.7362 12.6787 83.1319 13.7551 84.8851C15.5664 87.8128 20.2995 90.2808 27.6982 89.5659C28.3646 86.2808 32.1409 85.4638 32.3972 81.4809C32.6706 77.2766 28.5013 73.6 27.5957 69.0383C27.3565 69.617 27.0148 70.0936 26.3996 70.1277C25.887 67.6766 21.957 65.3447 23.5632 59.7617C23.0676 60.2894 22.7088 60.817 22.4354 61.1915C20.983 58.6553 21.2393 53.9404 26.2288 50.2809C25.6478 50.2809 25.1694 50.4 24.7251 50.5532C25.5794 48.4766 26.7926 46.5872 29.6291 45.4979C29.407 45.3447 29.1336 45.2085 28.7747 45.1234C29.5266 43.5404 30.6714 42.7064 32.3459 42.8426C32.1751 42.2979 32.1067 41.3106 32.2263 40.6979C36.4469 42.8255 37.5063 41.4979 40.6503 41.6C43.145 41.6851 45.1442 42.6383 44.6487 44.6128C45.6568 44.5787 48.0832 44.7149 48.2882 45.4128C48.3737 45.7362 48.4079 46.2468 48.3395 46.6723C49.7577 47.1319 50.4583 47.6255 51.8082 48.1702C52.1841 48.1872 52.5259 48.3574 52.7138 48.6638C53.141 49.2936 53.3631 51.0128 52.953 51.0298C53.0897 51.6766 53.2435 52.2894 53.2435 52.9532C53.2606 53.5149 52.9701 53.7702 52.3379 53.7532C52.4404 54.5021 52.56 55.2511 52.6626 55.983C52.4575 56.6298 51.6031 57.5489 51.0222 57.4298C49.3989 57.3277 46.0327 56.3404 45.11 58.0255C44.4607 59.217 45.5543 61.1234 47.3997 61.4809C47.2288 61.9745 46.9213 62.417 46.0669 62.6723C47.6048 63.2511 49.621 63.3191 51.3298 62.6383C51.0393 63.5745 50.595 64.4596 49.6723 65.1915C50.5779 65.4298 51.4835 65.3447 52.3892 65.0894C53.5169 63.6936 57.8741 59.8979 59.0019 58.4851C59.3436 58.0426 59.036 57.3787 59.3778 56.6298C59.617 56.1021 59.9588 55.6255 60.403 55.2511L60.3859 28.7319L130.17 28.7489L130.238 54.9957L130.358 55.0808C130.905 55.4723 131.332 56.017 131.622 56.6468C131.964 57.3957 131.656 58.0596 131.998 58.5021C133.126 59.8979 137.483 63.6936 138.611 65.1064C139.516 65.3617 140.422 65.4468 141.328 65.2085C140.405 64.4766 139.961 63.5915 139.67 62.6553C141.362 63.3362 143.378 63.2681 144.933 62.6894C144.079 62.434 143.788 61.9915 143.6 61.4979C145.446 61.1404 146.539 59.234 145.89 58.0425C144.967 56.3574 141.601 57.3447 139.978 57.4468C139.397 57.583 138.542 56.6468 138.337 56C138.44 55.2511 138.56 54.5021 138.662 53.7702C138.03 53.7872 137.739 53.5319 137.756 52.9702C137.756 52.3064 137.91 51.7106 138.047 51.0468C137.62 51.0298 137.859 49.3106 138.286 48.6809C138.491 48.3915 138.816 48.2213 139.192 48.1872C140.542 47.6596 141.242 47.1489 142.66 46.6894C142.592 46.2638 142.626 45.7362 142.712 45.4298C142.9 44.7319 145.326 44.5957 146.351 44.6298C145.856 42.6553 147.855 41.6851 150.35 41.617C153.477 41.5149 154.553 42.8255 158.774 40.7149C158.876 41.3277 158.825 42.3149 158.654 42.8596C160.329 42.7404 161.491 43.5745 162.225 45.1404C161.866 45.2255 161.593 45.3617 161.371 45.5149C164.207 46.6043 165.438 48.4936 166.275 50.5702C165.831 50.417 165.369 50.3149 164.771 50.2979C169.761 53.9574 170.017 58.6723 168.565 61.2085C168.291 60.834 167.932 60.2894 167.437 59.7787C169.06 65.3787 165.13 67.6936 164.6 70.1447C163.985 70.1106 163.643 69.634 163.37 69.0213C162.464 73.6 158.295 77.2766 158.569 81.4638C158.825 85.4468 162.601 86.2638 163.268 89.5489C170.666 90.2638 175.399 87.7957 177.211 84.8681C178.287 83.1149 177.552 81.7191 176.203 80.5447C174.682 79.217 172.341 78.1277 170.735 76.4255C166.993 72.4766 168.787 66.6213 174.955 64.5447C178.543 63.3362 181.465 63.4894 180.85 67.5915C180.594 69.2766 180.936 70.366 181.431 70.8425C181.858 71.234 182.884 70.8085 183.84 70.1106C184.028 69.9745 184.302 70.1106 184.182 70.3489C182.73 72.5277 180.936 73.8383 178.236 73.3277C176.356 72.9702 174.921 70.6894 175.81 68.1702C176.151 67.2 175.69 66.4681 174.853 66.6723C171.862 67.4383 170.171 70.2808 170.632 72.6298C171.538 77.2766 182.012 77.5319 180.833 84.5447C180.406 87.166 177.86 88.9702 176.339 89.7532C173.212 91.3702 167.932 92.6638 163.729 93.5319C163.285 93.6681 163.063 93.9404 162.84 94.6043C162.755 94.8426 162.892 96.2894 162.464 97.3106C162.208 97.9064 161.952 98.5191 161.576 99.1319C161.73 99.3532 162.003 99.5404 162.259 99.6766C162.482 99.7957 162.499 99.8808 162.242 100.051C159.833 101.685 158.774 103.472 159.389 105.719C160.294 109.123 161.593 110.383 163.319 108.868C163.575 108.681 163.729 108.868 163.661 109.328C163.387 111.013 162.84 112.613 162.123 114.179C162.738 113.821 163.678 113.6 164.976 113.617C166.958 113.651 168.616 114.009 170.205 114.349C172.597 114.877 174.887 115.37 177.928 114.587L180.474 113.923L178.868 115.983C178.031 117.055 177.125 118.043 176.1 118.945C175.348 119.608 174.528 120.238 173.657 120.783C175.622 122.689 176.92 123.098 179.791 124.34C177.057 127.847 174.357 127.557 170.137 127.234C168.172 127.081 166.395 126.962 165.574 127.523L165.318 129.549L165.25 130.094L164.737 130.281C162.14 131.2 159.406 131.779 156.621 131.983C153.955 132.17 151.255 132.017 148.607 131.438C146.659 131.013 144.506 129.974 142.387 128.953C139.038 127.336 135.809 125.77 134.356 127.115V129.719V129.923L134.254 130.111C133.297 132.034 128.068 133.464 121.438 134.502C104.915 137.123 85.8458 137.123 69.3225 134.502C62.6927 133.447 57.464 132.034 56.5072 130.111L56.4046 129.923V129.719V127.149C54.9522 125.787 51.7228 127.37 48.3737 128.987C46.2549 130.008 44.1019 131.047 42.154 131.472C39.5055 132.051 36.8057 132.204 34.1401 132.017C31.3549 131.813 28.621 131.217 26.0237 130.315L25.5111 130.128L25.4427 129.583L25.1864 127.557C24.3663 126.979 22.5892 127.115 20.6242 127.268C16.4037 127.591 13.7039 127.881 10.9699 124.374C13.8577 123.132 15.1392 122.723 17.1042 120.817C16.2328 120.272 15.4126 119.643 14.6608 118.979C13.6526 118.077 12.7299 117.089 11.8926 116.017L10.2865 113.957L12.8324 114.621C15.8739 115.404 18.1636 114.911 20.5558 114.383C22.162 114.026 23.8024 113.668 25.7845 113.651C27.0831 113.634 28.0229 113.872 28.638 114.213C28.7747 114.23 28.8431 114.264 28.8943 114.315ZM30.791 119.711C30.586 119.677 30.398 119.643 30.193 119.626L29.8512 116.221C30.2784 117.004 30.7227 117.787 31.2011 118.553C31.0131 118.86 30.8594 119.268 30.791 119.711ZM48.63 115.847C47.6731 116.255 46.7333 116.664 45.8106 117.089C44.4436 117.702 43.0938 118.315 41.7268 118.843C41.4192 118.962 41.1116 119.064 40.787 119.166C40.3769 118.502 39.7276 118.077 39.2491 117.94C38.2068 117.634 38.0701 118.247 37.2158 118.145C36.9424 118.111 36.5836 118.026 36.276 117.753C33.6787 115.421 32.8927 112.749 33.6787 111.574C34.7381 110.587 36.3956 109.617 38.5657 109.072C41.0091 108.46 42.1369 104.868 42.7349 102.689C43.2817 103.149 43.8798 103.489 44.4949 103.813C45.0246 104.17 44.9733 104.596 44.4436 105.089C43.6576 105.583 43.5893 106.502 44.3411 107.745C45.3322 109.43 46.084 111.115 46.7504 112.851C46.9213 113.43 47.8098 114.962 48.63 115.847ZM67.9555 116.477V121.345C78.0882 124.528 113.544 124.119 122.908 121.566V116.477H122.942V116.443C122.959 115.37 123.882 114.587 125.539 114.111C126.889 113.719 128.803 113.498 131.161 113.43C131.708 113.413 132.254 113.43 132.784 113.447C133.57 112.596 134.954 111.966 136.372 112.63C136.885 112.187 137.791 112.119 138.508 112.528C139.619 111.574 140.866 110.383 141.328 109.226C141.823 107.966 141.601 107.234 140.747 106.723C139.636 105.991 137.927 105.038 137.483 104.306C136.39 101.821 136.338 95.8468 136.783 94.6043C136.834 94.4681 136.936 94.434 137.039 94.5702C137.517 95.1489 138.218 95.3872 138.799 95.1319C140.935 94.2128 142.695 92.6298 145.206 92.3574C146.847 92.1872 147.428 91.5064 147.137 90.5532C146.727 89.2596 145.121 88.6808 143.549 87.6255C141.174 86.0255 139.397 81.8213 138.423 79.217C135.262 78.7404 132.203 76.9191 130.289 76.9191L130.324 90.0936C130.238 107.285 99.7205 107.064 95.3633 116.647C91.0061 107.064 60.4885 107.285 60.403 90.0936L60.3859 76.9362C58.4722 77.0894 55.5332 78.7745 52.5259 79.217C51.5519 81.8213 49.7748 86.0085 47.3997 87.6255C45.8277 88.6808 44.2215 89.2596 43.8114 90.5532C43.5209 91.5064 44.1019 92.1872 45.7423 92.3574C48.2541 92.6128 50.014 94.1957 52.1499 95.1319C52.748 95.3872 53.4486 95.166 53.9099 94.5702C54.0124 94.434 54.115 94.4511 54.1662 94.6043C54.6105 95.8638 54.5763 101.821 53.4656 104.306C53.0214 105.038 51.3127 105.991 50.202 106.723C49.3306 107.234 49.1084 107.966 49.621 109.226C50.0824 110.383 51.3298 111.574 52.4404 112.528C53.1581 112.119 54.0637 112.187 54.5763 112.63C55.9945 111.966 57.3786 112.596 58.1646 113.43C58.643 113.413 59.1386 113.396 59.6512 113.413C62.0092 113.464 63.9401 113.702 65.2729 114.094C66.9132 114.57 67.8359 115.353 67.8701 116.426V116.46H67.9555V116.477ZM76.7554 22.8766C75.9523 21.6851 75.3714 20.3745 74.8929 19.0128C75.2688 18.8426 75.6277 18.6553 76.0036 18.4851L73.2184 11.7957C73.0817 11.8298 72.9279 11.8468 72.7912 11.8468C71.6976 11.8468 70.792 10.9617 70.792 9.85532C70.792 8.76596 71.6805 7.86383 72.7912 7.86383C73.9019 7.86383 74.7904 8.74894 74.7904 9.85532C74.7904 10.434 74.5341 10.9617 74.1411 11.3191C76.1915 12.9191 78.3958 14.383 80.8392 15.5745C81.967 13.5149 82.8726 11.166 83.6244 8.59574C82.36 8.59574 81.3177 7.55745 81.3177 6.29787C81.3177 5.02128 82.3429 4 83.6244 4C84.906 4 85.9312 5.0383 85.9312 6.29787C85.9312 7.2 85.4015 8 84.6326 8.37447C86.1192 10.4 87.7595 12.1362 89.7245 13.2936C92.3047 10.7574 93.8767 7.81277 94.714 4.57872C93.7229 4.30638 93.0053 3.40426 93.0053 2.33191C93.0053 1.0383 94.0647 0 95.3462 0C96.6448 0 97.6871 1.05532 97.6871 2.33191C97.6871 3.40426 96.9695 4.30638 95.9784 4.57872C96.8157 7.81277 98.3877 10.7574 100.968 13.2936C102.933 12.1191 104.573 10.383 106.06 8.35745C105.308 7.98298 104.795 7.2 104.795 6.31489C104.795 5.0383 105.821 4.01702 107.102 4.01702C108.384 4.01702 109.409 5.05532 109.409 6.31489C109.409 7.59149 108.384 8.61277 107.102 8.61277H107.068C107.82 11.2 108.725 13.5319 109.853 15.5915C112.314 14.383 114.518 12.9191 116.586 11.3021C116.193 10.9447 115.953 10.417 115.953 9.85532C115.953 8.76596 116.842 7.86383 117.952 7.86383C119.046 7.86383 119.952 8.74894 119.952 9.85532C119.952 10.9447 119.063 11.8468 117.952 11.8468C117.782 11.8468 117.628 11.8298 117.474 11.7957L114.689 18.4851C115.065 18.6553 115.424 18.8426 115.8 19.0128C115.424 20.5787 114.74 21.9404 113.783 23.0979C102.916 29.1574 81.5569 27.2 76.7554 22.8766ZM16.3182 166.945C16.3182 164.562 14.6949 162.945 11.0725 162.06L7.50125 161.174C5.65584 160.715 4.34013 160.17 4.34013 159.166C4.34013 158.162 5.72419 157.345 8.47522 157.345C11.2775 157.345 14.0456 158.196 14.9854 160.528V156.017C13.5501 155.404 11.0725 154.962 8.61192 154.962C4.18635 154.962 0.205046 156.391 0.205046 159.949C0.205046 162.06 1.67454 163.677 5.12614 164.545L8.64609 165.43C10.3377 165.838 11.8243 166.434 11.8243 167.54C11.8243 169.004 9.41501 169.481 7.31329 169.481C4.2547 169.481 1.1961 168.272 0 165.328V170.553C1.7258 171.37 4.45974 171.949 7.38164 171.949C12.4394 171.949 16.3182 170.451 16.3182 166.945ZM52.3892 155.268H45.3493C45.3493 155.268 46.6991 155.336 46.6991 156.698C46.6991 157.089 46.5795 157.583 46.3061 158.196L42.3419 166.928L38.3948 158.417C38.0701 157.753 37.9847 157.209 37.9847 156.8C37.9847 155.37 39.3858 155.285 39.3858 155.285H32.0726C32.0726 155.285 33.5762 155.506 33.5762 157.055C33.5762 157.481 33.4737 158.008 33.1832 158.655L29.3899 166.945L25.4769 158.213C25.1864 157.583 25.0327 157.089 25.0327 156.698C25.0327 155.421 26.2971 155.302 26.2971 155.302H17.9415C17.9415 155.302 19.5989 155.455 20.9659 158.417L27.0831 171.643H30.4322L35.2337 161.123L40.1035 171.643H43.4526L49.3647 158.57C50.7659 155.421 52.3892 155.268 52.3892 155.268ZM61.7529 171.609C61.7529 171.609 60.198 171.54 60.198 169.004V158.043C60.198 155.489 61.7529 155.268 61.7529 155.268H54.2858C54.2858 155.268 55.892 155.489 55.892 158.043V169.004C55.892 171.523 54.2858 171.609 54.2858 171.609H61.7529ZM83.3852 160.102L83.0606 155.268H64.5894L64.2135 160.102C64.8457 158.111 65.8709 157.549 68.2802 157.549H71.6293V168.817C71.6293 171.609 70.0573 171.609 70.0573 171.609H77.5927C77.5927 171.609 75.9865 171.591 75.9865 168.817V157.549H79.3527C81.8815 157.549 82.7872 158.281 83.3852 160.102ZM103.958 165.787C102.796 168.068 101.617 169.294 99.0541 169.294H92.4072L103.121 155.251H86.1704V160.579C86.7172 158.757 87.6057 157.532 90.5789 157.532H96.3373L85.5895 171.591H103.292L103.958 165.787ZM125.095 167.217C125.095 165.157 123.472 163.115 120.567 162.877C122.805 162.536 124.121 160.817 124.121 159.149C124.121 157.243 122.429 155.268 118.551 155.268H106.384C106.384 155.268 108.179 155.37 108.179 158.111V168.681C108.179 171.506 106.624 171.609 106.624 171.609H119.132C123.232 171.609 125.095 169.43 125.095 167.217ZM119.576 159.66C119.576 160.953 118.841 162.111 116.859 162.111H112.468V157.549C113.407 157.549 116.808 157.549 116.808 157.549C118.79 157.549 119.576 158.604 119.576 159.66ZM120.55 166.979C120.55 168.272 119.832 169.311 117.303 169.311H112.468V164.323H116.944C119.542 164.323 120.55 165.311 120.55 166.979ZM145.787 166.434C144.796 168.272 143.429 169.311 140.918 169.311H134.219V164.528H140.012C142.353 164.528 142.507 165.906 142.507 165.906V160.834C142.507 160.834 142.336 162.23 139.995 162.23H134.237V157.566H140.525C142.968 157.566 144.096 158.502 144.438 160.221V155.285H127.931C127.931 155.285 129.896 155.387 129.896 158.026V168.63C129.896 171.523 128.205 171.626 128.205 171.626H144.779L145.787 166.434ZM168.855 171.609C168.735 171.591 166.941 171.319 165.455 169.651L162.208 165.94C161.388 165.004 161.046 164.817 160.551 164.647H160.892C163.524 164.647 166.155 163.047 166.155 160.136C166.155 157.515 163.695 155.285 158.945 155.285H148.197C148.197 155.285 150.042 155.438 150.042 158.162V168.851C150.042 171.574 148.436 171.626 148.436 171.626H155.732C155.732 171.626 154.126 171.574 154.126 168.851V165.277H155.869C156.604 165.277 157.15 165.719 158.005 166.774L161.952 171.626H168.855V171.609ZM161.798 160.17C161.798 161.838 160.568 162.996 158.278 162.996H154.143V157.549H158.159C160.363 157.549 161.798 158.536 161.798 160.17ZM191 164.255H183.413C183.413 164.255 185.156 164.374 185.156 166.638V169.174C184.319 169.413 183.054 169.583 182.149 169.583C178.116 169.583 175.229 167.251 175.229 163.455C175.229 159.166 178.783 157.345 182.354 157.345C185.378 157.345 188.437 158.638 189.325 160.953V155.881C187.412 155.166 184.934 154.894 182.815 154.894C175.126 154.894 170.666 158.962 170.666 163.847C170.666 168 174.067 172 181.141 172C183.379 172 187.224 171.728 189.325 171.013V166.57C189.308 164.323 191 164.255 191 164.255Z" fill="#C0AA78"/>
</svg>