<?xml version="1.0" encoding="utf-8"?>
<!-- Generator: Adobe Illustrator 25.2.1, SVG Export Plug-In . SVG Version: 6.00 Build 0)  -->
<svg version="1.1" id="Слой_1" xmlns="http://www.w3.org/2000/svg" xmlns:xlink="http://www.w3.org/1999/xlink" x="0px" y="0px"
	 viewBox="0 0 143.91 180.47" style="enable-background:new 0 0 143.91 180.47;" xml:space="preserve">
<style type="text/css">
	.st0{fill:none;}
	.st1{fill:none;stroke:#231F20;stroke-width:3.6;}
	.st2{fill:url(#SVGID_1_);}
	.st3{fill:url(#SVGID_2_);}
	.st4{fill:url(#SVGID_3_);}
	.st5{fill:url(#SVGID_4_);}
	.st6{fill:url(#SVGID_5_);}
	.st7{fill:url(#SVGID_6_);}
	.st8{fill:url(#SVGID_7_);}
	.st9{fill:url(#SVGID_8_);}
	.st10{fill:url(#SVGID_9_);}
	.st11{fill:url(#SVGID_10_);}
	.st12{fill:url(#SVGID_11_);}
	.st13{opacity:0.04;fill:url(#SVGID_12_);}
	.st14{fill:none;stroke:#090000;stroke-width:0.9849;stroke-linecap:round;stroke-linejoin:round;stroke-dasharray:0,1.9697;}
	.st15{fill:#090000;}
	.st16{fill:url(#SVGID_13_);}
	.st17{fill:#FFFFFF;}
</style>
<pattern  x="-247.75" y="-149.81" width="72" height="72" patternUnits="userSpaceOnUse" id="Unnamed_Pattern_5" viewBox="20 -72 72 72" style="overflow:visible;">
	<g>
		<rect x="20" y="-72" class="st0" width="72" height="72"/>
		<line class="st1" x1="19.75" y1="-3.6" x2="92.25" y2="-3.6"/>
		<line class="st1" x1="19.75" y1="-18" x2="92.25" y2="-18"/>
		<line class="st1" x1="19.75" y1="-32.4" x2="92.25" y2="-32.4"/>
		<line class="st1" x1="19.75" y1="-46.8" x2="92.25" y2="-46.8"/>
		<line class="st1" x1="19.75" y1="-61.2" x2="92.25" y2="-61.2"/>
		<line class="st1" x1="0" y1="-61.2" x2="14" y2="-61.2"/>
		<line class="st1" x1="19.75" y1="-10.8" x2="92.25" y2="-10.8"/>
		<line class="st1" x1="19.75" y1="-25.2" x2="92.25" y2="-25.2"/>
		<line class="st1" x1="19.75" y1="-39.6" x2="92.25" y2="-39.6"/>
		<line class="st1" x1="19.75" y1="-54" x2="92.25" y2="-54"/>
		<line class="st1" x1="19.75" y1="-68.4" x2="92.25" y2="-68.4"/>
		<line class="st1" x1="0" y1="-68.4" x2="14" y2="-68.4"/>
	</g>
</pattern>
<g>
	<linearGradient id="SVGID_1_" gradientUnits="userSpaceOnUse" x1="69.1548" y1="171.6608" x2="49.5697" y2="122.3716">
		<stop  offset="0" style="stop-color:#1A0000"/>
		<stop  offset="0.1876" style="stop-color:#56504B"/>
		<stop  offset="0.3663" style="stop-color:#5F5855"/>
		<stop  offset="0.5395" style="stop-color:#6D6463"/>
		<stop  offset="0.7914" style="stop-color:#3B261B"/>
	</linearGradient>
	<polygon class="st2" points="89.69,95.65 50.53,180.47 37.39,161.95 15.49,164.29 54.65,79.48 	"/>
	<linearGradient id="SVGID_2_" gradientUnits="userSpaceOnUse" x1="30.6973" y1="175.5699" x2="52.2242" y2="130.722">
		<stop  offset="0" style="stop-color:#090000"/>
		<stop  offset="0.1876" style="stop-color:#413C39"/>
		<stop  offset="0.335" style="stop-color:#4B4543"/>
		<stop  offset="0.5395" style="stop-color:#605857"/>
		<stop  offset="0.7914" style="stop-color:#261811"/>
	</linearGradient>
	<polygon class="st3" points="37.94,160.73 17.4,162.92 55.22,81.01 88.15,96.22 50.32,178.17 	"/>
</g>
<linearGradient id="SVGID_3_" gradientUnits="userSpaceOnUse" x1="15.9619" y1="163.2235" x2="32.9352" y2="131.5606">
	<stop  offset="0" style="stop-color:#DBB154"/>
	<stop  offset="0.0859" style="stop-color:#F8E28F"/>
	<stop  offset="0.3313" style="stop-color:#B58A21"/>
	<stop  offset="0.4172" style="stop-color:#C89629"/>
	<stop  offset="0.6074" style="stop-color:#F8E28F"/>
	<stop  offset="0.6786" style="stop-color:#EED27B"/>
	<stop  offset="0.7914" style="stop-color:#DBB154"/>
	<stop  offset="1" style="stop-color:#D49961"/>
</linearGradient>
<polygon class="st4" points="19.59,163.85 57.86,80.96 56.44,80.31 17.78,164.05 "/>
<linearGradient id="SVGID_4_" gradientUnits="userSpaceOnUse" x1="47.286" y1="176.8429" x2="67.5241" y2="137.0199">
	<stop  offset="0" style="stop-color:#DBB154"/>
	<stop  offset="0.0859" style="stop-color:#F8E28F"/>
	<stop  offset="0.3313" style="stop-color:#B58A21"/>
	<stop  offset="0.4172" style="stop-color:#C89629"/>
	<stop  offset="0.6074" style="stop-color:#F8E28F"/>
	<stop  offset="0.6786" style="stop-color:#EED27B"/>
	<stop  offset="0.7914" style="stop-color:#DBB154"/>
	<stop  offset="1" style="stop-color:#D49961"/>
</linearGradient>
<polygon class="st5" points="49.21,178.61 87.9,94.83 86.47,94.17 48.17,177.14 "/>
<g>
	<linearGradient id="SVGID_5_" gradientUnits="userSpaceOnUse" x1="60.2094" y1="129.9736" x2="134.4066" y2="129.9736">
		<stop  offset="0" style="stop-color:#090000"/>
		<stop  offset="0.1876" style="stop-color:#413C39"/>
		<stop  offset="0.335" style="stop-color:#4B4543"/>
		<stop  offset="0.5395" style="stop-color:#605857"/>
		<stop  offset="0.7914" style="stop-color:#261811"/>
	</linearGradient>
	<polygon class="st6" points="60.21,95.65 99.37,180.47 112.51,161.95 134.41,164.29 95.25,79.48 	"/>
	<linearGradient id="SVGID_6_" gradientUnits="userSpaceOnUse" x1="122.9691" y1="175.4211" x2="96.5116" y2="128.4908">
		<stop  offset="0" style="stop-color:#090000"/>
		<stop  offset="0.1876" style="stop-color:#45403C"/>
		<stop  offset="0.335" style="stop-color:#4F4946"/>
		<stop  offset="0.5395" style="stop-color:#645C5B"/>
		<stop  offset="0.7914" style="stop-color:#2A1B13"/>
	</linearGradient>
	<polygon class="st7" points="61.75,96.22 94.68,81.01 132.5,162.92 111.96,160.73 99.58,178.17 	"/>
</g>
<linearGradient id="SVGID_7_" gradientUnits="userSpaceOnUse" x1="135.8326" y1="170.4512" x2="119.1856" y2="136.831">
	<stop  offset="0" style="stop-color:#DBB154"/>
	<stop  offset="0.0859" style="stop-color:#F8E28F"/>
	<stop  offset="0.3313" style="stop-color:#B58A21"/>
	<stop  offset="0.4172" style="stop-color:#C89629"/>
	<stop  offset="0.6074" style="stop-color:#F8E28F"/>
	<stop  offset="0.6786" style="stop-color:#EED27B"/>
	<stop  offset="0.7914" style="stop-color:#DBB154"/>
	<stop  offset="1" style="stop-color:#D49961"/>
</linearGradient>
<polygon class="st8" points="130.31,163.85 92.03,80.96 93.46,80.31 132.12,164.05 "/>
<linearGradient id="SVGID_8_" gradientUnits="userSpaceOnUse" x1="98.3783" y1="185.8969" x2="84.0166" y2="142.4837">
	<stop  offset="0" style="stop-color:#DBB154"/>
	<stop  offset="0.0859" style="stop-color:#F8E28F"/>
	<stop  offset="0.3313" style="stop-color:#B58A21"/>
	<stop  offset="0.4172" style="stop-color:#C89629"/>
	<stop  offset="0.6074" style="stop-color:#F8E28F"/>
	<stop  offset="0.6786" style="stop-color:#EED27B"/>
	<stop  offset="0.7914" style="stop-color:#DBB154"/>
	<stop  offset="1" style="stop-color:#D49961"/>
</linearGradient>
<polygon class="st9" points="100.69,178.61 62,94.83 63.42,94.17 101.73,177.14 "/>
<g>
	<linearGradient id="SVGID_9_" gradientUnits="userSpaceOnUse" x1="0" y1="72.2444" x2="143.9131" y2="72.2444">
		<stop  offset="0" style="stop-color:#090000"/>
		<stop  offset="0.1876" style="stop-color:#45403C"/>
		<stop  offset="0.335" style="stop-color:#4F4946"/>
		<stop  offset="0.5395" style="stop-color:#645C5B"/>
		<stop  offset="0.7914" style="stop-color:#2A1B13"/>
	</linearGradient>
	<path class="st10" d="M69.16,144.48c-2.67-0.11-4.82-1.41-6.72-2.56c-1.08-0.66-2.2-1.34-2.99-1.48c-0.16-0.03-0.35-0.04-0.57-0.04
		c-0.77,0-1.74,0.18-2.76,0.37c-1.24,0.23-2.65,0.49-4.09,0.49c-1.13,0-2.15-0.15-3.11-0.47c-2.6-0.87-4.39-2.84-5.84-4.42
		c-0.83-0.91-1.69-1.85-2.36-2.19c-0.7-0.35-1.99-0.49-3.24-0.62c-2.22-0.23-4.74-0.49-6.94-2.04c-2.23-1.56-3.34-3.85-4.33-5.87
		c-0.54-1.12-1.11-2.27-1.66-2.79c-0.56-0.53-1.76-1.02-2.92-1.5c-2.07-0.85-4.41-1.81-6.1-3.92c-1.69-2.11-2.12-4.62-2.49-6.82
		c-0.21-1.23-0.43-2.5-0.82-3.17c-0.39-0.66-1.39-1.46-2.37-2.24c-1.75-1.4-3.74-2.98-4.77-5.49c-1.03-2.49-0.73-5.01-0.48-7.23
		c0.14-1.25,0.29-2.53,0.1-3.29c-0.18-0.73-0.92-1.78-1.63-2.79c-1.29-1.84-2.75-3.93-3.04-6.64c-0.28-2.67,0.71-4.99,1.59-7.04
		c0.5-1.16,1.01-2.36,1.04-3.15c0.03-0.73-0.38-1.94-0.77-3.1c-0.68-2.03-1.54-4.56-1.04-7.26c0.5-2.7,2.19-4.76,3.55-6.42
		c0.78-0.95,1.59-1.93,1.82-2.63c0.25-0.75,0.2-2.06,0.15-3.32c-0.09-2.23-0.19-4.75,1.02-7.15c1.23-2.44,3.34-3.87,5.2-5.13
		c1.02-0.7,2.08-1.42,2.51-2.03c0.45-0.64,0.76-1.89,1.07-3.11c0.55-2.17,1.17-4.62,3.01-6.59c1.86-1.98,4.28-2.76,6.41-3.44
		c1.19-0.38,2.41-0.77,3.01-1.25c0.6-0.48,1.25-1.59,1.89-2.67c1.13-1.93,2.42-4.12,4.75-5.49c2.33-1.37,4.86-1.44,7.1-1.5
		c1.25-0.03,2.54-0.07,3.26-0.36c0.7-0.29,1.64-1.17,2.54-2.02c1.64-1.54,3.49-3.28,6.13-3.95c0.72-0.18,1.5-0.28,2.3-0.28
		c1.77,0,3.44,0.44,4.92,0.84c1.14,0.3,2.21,0.59,3,0.59c0.08,0,0.17,0,0.25-0.01c0.74-0.08,1.88-0.65,2.98-1.21
		C69.64,1.1,71.81,0,74.4,0c0.12,0,0.23,0,0.35,0.01c2.67,0.11,4.82,1.41,6.72,2.56c1.08,0.66,2.2,1.34,2.99,1.48
		c0.16,0.03,0.35,0.04,0.57,0.04c0.77,0,1.74-0.18,2.76-0.37c1.24-0.23,2.65-0.49,4.08-0.49c1.13,0,2.15,0.16,3.11,0.48
		c2.6,0.87,4.39,2.84,5.84,4.42c0.83,0.91,1.69,1.85,2.36,2.19c0.7,0.35,1.99,0.49,3.24,0.62c2.22,0.23,4.74,0.49,6.94,2.04
		c2.23,1.56,3.35,3.85,4.33,5.87c0.54,1.12,1.11,2.27,1.66,2.79c0.56,0.53,1.76,1.02,2.92,1.5c2.07,0.85,4.41,1.81,6.1,3.92
		c1.69,2.11,2.12,4.62,2.49,6.82c0.21,1.23,0.43,2.5,0.82,3.17c0.39,0.66,1.39,1.46,2.37,2.24c1.75,1.4,3.74,2.98,4.77,5.49
		c1.03,2.5,0.73,5.01,0.48,7.23c-0.15,1.25-0.29,2.53-0.11,3.29c0.18,0.73,0.92,1.78,1.63,2.79c1.29,1.84,2.76,3.93,3.04,6.65
		c0.28,2.67-0.71,4.99-1.59,7.04c-0.49,1.16-1.01,2.36-1.04,3.15c-0.03,0.73,0.38,1.94,0.77,3.1c0.69,2.03,1.54,4.56,1.04,7.26
		c-0.5,2.7-2.19,4.76-3.55,6.42c-0.78,0.95-1.59,1.93-1.82,2.63c-0.25,0.75-0.2,2.06-0.15,3.32c0.09,2.23,0.19,4.75-1.02,7.15
		c-1.23,2.44-3.34,3.87-5.2,5.14c-1.03,0.7-2.09,1.41-2.52,2.03c-0.45,0.64-0.76,1.9-1.07,3.11c-0.55,2.17-1.17,4.62-3.01,6.59
		c-1.86,1.98-4.28,2.76-6.41,3.44c-1.19,0.38-2.41,0.78-3.01,1.25c-0.6,0.48-1.25,1.59-1.89,2.67c-1.13,1.93-2.42,4.12-4.75,5.49
		c-2.33,1.37-4.86,1.44-7.1,1.5c-1.25,0.04-2.54,0.07-3.26,0.36c-0.7,0.29-1.64,1.17-2.54,2.02c-1.64,1.54-3.49,3.28-6.13,3.95
		c-0.72,0.18-1.5,0.28-2.29,0.28c-1.77,0-3.44-0.45-4.92-0.84c-1.14-0.3-2.21-0.59-3-0.59c-0.09,0-0.17,0-0.25,0.01
		c-0.74,0.08-1.88,0.65-2.98,1.21c-1.92,0.97-4.09,2.07-6.68,2.07C69.51,144.49,69.27,144.49,69.16,144.48z"/>
	<linearGradient id="SVGID_10_" gradientUnits="userSpaceOnUse" x1="6.4372" y1="72.2436" x2="137.4633" y2="72.2436">
		<stop  offset="0" style="stop-color:#D9D7C5"/>
		<stop  offset="0.2941" style="stop-color:#F1EDE3"/>
		<stop  offset="0.4142" style="stop-color:#EBE7DC"/>
		<stop  offset="0.5881" style="stop-color:#D9D6C9"/>
		<stop  offset="0.7485" style="stop-color:#C4C2B1"/>
		<stop  offset="0.9816" style="stop-color:#DAD7C5"/>
	</linearGradient>
	<path class="st11" d="M72.03,137.76c-3.96,0-7.96-0.37-11.9-1.09c-17.21-3.16-32.16-12.83-42.09-27.23
		C8.11,95.04,4.37,77.63,7.53,60.43C13.24,29.31,40.3,6.73,71.88,6.73c3.96,0,7.96,0.37,11.89,1.09
		c35.52,6.52,59.12,40.72,52.61,76.25C130.67,115.18,103.61,137.76,72.03,137.76L72.03,137.76z"/>
	<linearGradient id="SVGID_11_" gradientUnits="userSpaceOnUse" x1="7.915" y1="72.2441" x2="135.9859" y2="72.2441">
		<stop  offset="0" style="stop-color:#DBB154"/>
		<stop  offset="0.0859" style="stop-color:#F8E28F"/>
		<stop  offset="0.3313" style="stop-color:#B58A21"/>
		<stop  offset="0.4172" style="stop-color:#C89629"/>
		<stop  offset="0.6074" style="stop-color:#F8E28F"/>
		<stop  offset="0.6786" style="stop-color:#EED27B"/>
		<stop  offset="0.7914" style="stop-color:#DBB154"/>
		<stop  offset="1" style="stop-color:#D49961"/>
	</linearGradient>
	<path class="st12" d="M72.03,136.28c-3.87,0-7.79-0.36-11.63-1.06c-16.82-3.09-31.43-12.54-41.14-26.61
		C9.55,94.53,5.9,77.51,8.98,60.69c5.58-30.41,32.03-52.48,62.9-52.48c3.87,0,7.78,0.36,11.63,1.06
		c34.72,6.37,57.79,39.8,51.42,74.53C129.35,114.21,102.9,136.28,72.03,136.28L72.03,136.28z"/>
	<pattern  id="SVGID_12_" xlink:href="#Unnamed_Pattern_5" patternTransform="matrix(0.4924 0 0 0.4924 -3836.8743 -3878.6467)">
	</pattern>
	<path class="st13" d="M72.03,136.28c-3.87,0-7.79-0.36-11.63-1.06c-16.82-3.09-31.43-12.54-41.14-26.61
		C9.55,94.53,5.9,77.51,8.98,60.69c5.58-30.41,32.03-52.48,62.9-52.48c3.87,0,7.78,0.36,11.63,1.06
		c34.72,6.37,57.79,39.8,51.42,74.53C129.35,114.21,102.9,136.28,72.03,136.28L72.03,136.28z"/>
	<path class="st14" d="M72.03,134.31c-3.75,0-7.55-0.35-11.27-1.03c-16.3-2.99-30.46-12.15-39.88-25.79
		c-9.41-13.64-12.95-30.13-9.96-46.44c5.41-29.48,31.04-50.87,60.96-50.87c3.75,0,7.55,0.35,11.27,1.03
		c33.65,6.18,56.01,38.58,49.84,72.23C127.58,112.92,101.95,134.31,72.03,134.31L72.03,134.31z"/>
</g>
<g>
	<path class="st15" d="M28.09,87.55l1.28-0.56l2.39,5.45l4.61-2.02l-2.39-5.45l1.26-0.55l2.95,6.72l-12.96,5.68l-2.95-6.73
		l1.28-0.56l2.39,5.45L30.48,93L28.09,87.55z"/>
	<path class="st15" d="M34.56,83.03l-7.71-3.93l-6.33,5.68l-0.23-1.71l5.3-4.62l-6.33-3.07l-0.23-1.7l7.6,3.82l6.41-5.82l0.23,1.74
		l-5.43,4.72l6.49,3.19L34.56,83.03z"/>
	<path class="st15" d="M21.39,62.16c-0.61,3.15,1.63,6.14,4.71,6.74c3.44,0.67,6.48-1.42,7.07-4.45c0.37-1.92-0.12-3.63-1.5-5.1
		l0.32-1.62c2.12,1.73,3.04,4.2,2.52,6.88c-0.8,4.12-4.55,6.54-8.7,5.73c-1.93-0.38-3.57-1.46-4.7-3.16
		c-1.07-1.59-1.43-3.38-1.06-5.3c0.54-2.75,2.37-4.79,5.1-5.6l-0.32,1.64C23.05,58.75,21.81,60.01,21.39,62.16z"/>
	<path class="st15" d="M33.42,46.35l1.21,0.68l-2.92,5.18l4.39,2.47l2.92-5.18l1.2,0.67l-3.61,6.4l-12.32-6.95l3.61-6.4l1.21,0.68
		l-2.92,5.18l4.32,2.43L33.42,46.35z"/>
	<path class="st15" d="M42.14,47.76l-10.27-9.74l0.96-1.01l9.27,8.79l3.42-3.61l1,0.95L42.14,47.76z"/>
	<path class="st15" d="M50.27,31.18l0.75,1.18l-5.03,3.19l2.7,4.25l5.03-3.19l0.74,1.16l-6.2,3.93l-7.58-11.95l6.2-3.93L47.62,27
		l-5.03,3.19l2.65,4.19L50.27,31.18z"/>
	<path class="st15" d="M62.12,20.39l1.33-0.35l3.65,13.67l-1.62,0.43L54.77,24.09l3.38,12.01l-1.33,0.36l-3.65-13.67l1.62-0.43
		l10.72,10.03L62.12,20.39z"/>
	<path class="st15" d="M71.69,33.73l0.11-12.76l-2.83-0.02l0.01-1.39l7.05,0.06l-0.01,1.39l-2.83-0.02l-0.11,12.76L71.69,33.73z"/>
	<path class="st15" d="M96.64,40.37c0.05,0.03,0.11,0.06,0.16,0.08l-0.57,1.09c-0.26-0.11-0.48-0.2-0.64-0.29
		c-0.76-0.39-1.54-1.18-2.07-2.19c-1.37,0.14-2.7-0.12-3.95-0.77c-3.55-1.84-4.93-6.14-2.96-9.92c0.91-1.75,2.44-3.02,4.36-3.61
		c1.84-0.57,3.65-0.42,5.38,0.48c3.6,1.87,5.03,6.04,2.97,9.99c-0.96,1.85-2.39,3.02-4.44,3.59C95.26,39.5,95.83,39.95,96.64,40.37z
		 M89.56,32.62c-0.71-0.37-1.48-0.52-2.42-0.56c0.05,2.27,1.29,4.17,3.11,5.11c0.79,0.41,1.67,0.59,2.69,0.61
		C92.19,35.22,91.58,33.67,89.56,32.62z M98.17,34.35c1.45-2.79,0.45-6.4-2.46-7.91c-2.84-1.48-6.39-0.13-7.78,2.55
		c-0.28,0.55-0.49,1.12-0.63,1.74c1.12,0.04,2.05,0.28,3.01,0.77c2.28,1.18,3.18,3.07,4.03,6.06
		C96.05,37.02,97.37,35.89,98.17,34.35z"/>
	<path class="st15" d="M108.43,34.08l-6.33,5.91c-0.07,0.07-0.15,0.14-0.22,0.2c-0.7,0.65-1.27,1.21-1.56,1.95
		c-0.43,1.08-0.21,2.29,0.63,3.19c1.51,1.62,3.25,1.27,5.42-0.75l6.34-5.91l0.94,1l-6.58,6.14c-2.66,2.49-4.97,2.67-7,0.49
		c-2.2-2.36-1.85-4.59,0.84-7.1l6.58-6.14L108.43,34.08z"/>
	<path class="st15" d="M103.94,49.76l15.13-1.17l0.72,1.51l-10.39,11.06l-0.64-1.35l3.27-3.45l-2.72-5.67l-4.73,0.4L103.94,49.76z
		 M118.22,49.88l-7.55,0.69l2.31,4.81L118.22,49.88z"/>
	<path class="st15" d="M109.4,62.63l13.92-2.54l0.25,1.37L111,63.75l0.89,4.89l-1.35,0.25L109.4,62.63z"/>
	<path class="st15" d="M110.53,71.54l14.15-0.02l0,1.39l-14.15,0.02L110.53,71.54z"/>
	<path class="st15" d="M110.11,78.06l12.58,2.14l0.48-2.79l1.37,0.23l-1.19,6.95l-1.37-0.24l0.47-2.79l-12.58-2.15L110.11,78.06z"/>
	<path class="st15" d="M107.25,87.86l0.54-1.26l4.8,2.03l9.99-0.68l-0.62,1.47l-8.17,0.47l5.33,6.23l-0.6,1.43l-6.48-7.67
		L107.25,87.86z"/>
</g>
<g>
	<path d="M103,71.69c0,17.15-13.9,31.04-31.05,31.04c-17.15,0-31.05-13.9-31.05-31.04c0-17.15,13.9-31.05,31.05-31.05
		C89.1,40.64,103,54.54,103,71.69z"/>
	<linearGradient id="SVGID_13_" gradientUnits="userSpaceOnUse" x1="41.3147" y1="71.6906" x2="102.5885" y2="71.6906">
		<stop  offset="0" style="stop-color:#090000"/>
		<stop  offset="0.1876" style="stop-color:#45403C"/>
		<stop  offset="0.335" style="stop-color:#4F4946"/>
		<stop  offset="0.5395" style="stop-color:#645C5B"/>
		<stop  offset="0.7914" style="stop-color:#2A1B13"/>
	</linearGradient>
	<path class="st16" d="M102.59,71.69c0,16.92-13.72,30.63-30.64,30.63S41.31,88.61,41.31,71.69c0-16.92,13.71-30.64,30.64-30.64
		S102.59,54.77,102.59,71.69z"/>
	<polygon class="st17" points="89.82,66.65 76.99,66.65 76.99,53.82 66.91,53.82 66.91,66.65 54.08,66.65 54.08,76.73 66.91,76.73 
		66.91,89.56 76.99,89.56 76.99,76.73 89.82,76.73 	"/>
</g>
<g>
	<path d="M42.74,110.11c-0.24,0.34-0.39,0.65-0.45,0.94c-0.1,0.54,0.1,1.01,0.61,1.4c0.23,0.18,0.46,0.3,0.72,0.36
		c0.49,0.12,0.89-0.03,1.22-0.45c0.25-0.31,0.35-0.6,0.3-0.85c-0.05-0.25-0.2-0.56-0.46-0.91l-0.47-0.65
		c-0.31-0.43-0.49-0.77-0.54-1.04c-0.09-0.46,0.05-0.94,0.42-1.42c0.41-0.52,0.88-0.83,1.42-0.95c0.54-0.11,1.07,0.03,1.58,0.43
		c0.47,0.37,0.76,0.83,0.86,1.38c0.1,0.55-0.1,1.15-0.6,1.79l-0.59-0.46c0.21-0.33,0.33-0.62,0.36-0.86
		c0.05-0.44-0.14-0.84-0.58-1.18c-0.35-0.28-0.68-0.38-0.99-0.31c-0.31,0.07-0.56,0.24-0.76,0.49c-0.22,0.28-0.29,0.56-0.21,0.84
		c0.05,0.18,0.24,0.5,0.57,0.95l0.48,0.68c0.23,0.33,0.37,0.63,0.41,0.92c0.07,0.49-0.09,1-0.5,1.51c-0.5,0.64-1.04,0.95-1.62,0.94
		c-0.58-0.01-1.11-0.2-1.59-0.58c-0.56-0.44-0.85-0.97-0.88-1.58c-0.03-0.61,0.2-1.23,0.7-1.85L42.74,110.11z"/>
	<path d="M50.65,109.82l-1.8,5.79l3.95-4.66l0.76,0.4l-1.61,5.9l3.76-4.77l0.77,0.41l-4.78,5.77l-0.74-0.39l1.64-6.01l-4.04,4.75
		l-0.74-0.39l2.06-7.21L50.65,109.82z"/>
	<path d="M58.18,113.36l0.76,0.27l-2.45,6.92l-0.76-0.27L58.18,113.36z"/>
	<path d="M60.45,119.29c-0.07,0.41-0.07,0.76,0,1.04c0.14,0.53,0.53,0.87,1.15,1.01c0.28,0.06,0.55,0.07,0.8,0.02
		c0.49-0.1,0.79-0.41,0.91-0.93c0.09-0.39,0.06-0.69-0.1-0.9c-0.16-0.21-0.42-0.41-0.8-0.63l-0.7-0.39
		c-0.46-0.25-0.77-0.49-0.94-0.71c-0.29-0.38-0.36-0.86-0.23-1.46c0.14-0.64,0.44-1.13,0.88-1.47c0.44-0.33,0.98-0.43,1.61-0.29
		c0.58,0.13,1.04,0.42,1.37,0.88c0.33,0.45,0.4,1.08,0.22,1.88l-0.73-0.16c0.05-0.39,0.03-0.7-0.04-0.94
		c-0.14-0.42-0.49-0.7-1.03-0.82c-0.44-0.1-0.78-0.05-1.03,0.15c-0.25,0.2-0.4,0.46-0.48,0.77c-0.08,0.35-0.02,0.63,0.17,0.85
		c0.13,0.14,0.43,0.34,0.92,0.62l0.73,0.4c0.35,0.2,0.61,0.41,0.77,0.65c0.28,0.41,0.34,0.94,0.2,1.58
		c-0.18,0.79-0.53,1.31-1.06,1.55c-0.53,0.24-1.09,0.29-1.68,0.16c-0.69-0.16-1.19-0.51-1.48-1.05c-0.29-0.54-0.35-1.2-0.17-1.97
		L60.45,119.29z"/>
	<path d="M67.34,120.54c-0.01,0.42,0.04,0.76,0.16,1.03c0.22,0.5,0.65,0.77,1.29,0.82c0.29,0.02,0.55-0.02,0.79-0.11
		c0.47-0.18,0.72-0.53,0.76-1.06c0.03-0.4-0.05-0.69-0.23-0.87c-0.19-0.18-0.48-0.34-0.89-0.49l-0.75-0.28
		c-0.49-0.18-0.84-0.36-1.03-0.55c-0.34-0.33-0.49-0.8-0.45-1.41c0.04-0.66,0.26-1.19,0.64-1.58c0.38-0.4,0.9-0.58,1.55-0.53
		c0.6,0.04,1.09,0.26,1.49,0.66c0.39,0.4,0.56,1,0.51,1.82l-0.75-0.05c-0.01-0.39-0.07-0.7-0.19-0.92c-0.21-0.4-0.59-0.61-1.14-0.65
		c-0.45-0.03-0.78,0.07-0.99,0.3c-0.21,0.23-0.33,0.51-0.35,0.84c-0.02,0.36,0.08,0.63,0.3,0.81c0.15,0.12,0.48,0.27,1,0.47
		l0.78,0.29c0.38,0.14,0.66,0.31,0.86,0.52c0.34,0.37,0.49,0.88,0.44,1.53c-0.05,0.81-0.32,1.38-0.81,1.69
		c-0.48,0.32-1.03,0.46-1.64,0.42c-0.71-0.05-1.25-0.32-1.62-0.81c-0.37-0.49-0.53-1.13-0.47-1.92L67.34,120.54z"/>
	<path d="M76.62,115.6l1.12-0.21l2.79,5.79l0.52-6.4l1.11-0.21l1.34,7.21l-0.75,0.14l-0.79-4.26c-0.03-0.15-0.07-0.39-0.13-0.73
		c-0.06-0.34-0.12-0.71-0.19-1.1l-0.52,6.39l-0.78,0.14l-2.79-5.78l0.04,0.22c0.03,0.18,0.09,0.45,0.16,0.81
		c0.07,0.36,0.13,0.63,0.16,0.8l0.79,4.26l-0.75,0.14L76.62,115.6z"/>
	<path d="M85.62,113.41l0.84-0.31l4.54,6.14l-0.82,0.3l-1.32-1.85l-2.18,0.81l0.17,2.28l-0.76,0.28L85.62,113.41z M88.34,117.02
		l-1.96-2.73l0.24,3.37L88.34,117.02z"/>
	<path d="M89.85,111.68l2.04-1.16c0.69-0.39,1.41-0.39,2.14,0.02c0.66,0.37,1.24,0.99,1.73,1.87c0.38,0.68,0.63,1.35,0.74,2.01
		c0.19,1.17-0.14,2-1.01,2.49l-2.03,1.15L89.85,111.68z M94.95,116.25c0.23-0.13,0.4-0.27,0.51-0.41c0.2-0.26,0.29-0.6,0.28-1.02
		c-0.01-0.33-0.1-0.72-0.27-1.15c-0.1-0.26-0.21-0.49-0.33-0.7c-0.45-0.79-0.92-1.34-1.41-1.63c-0.49-0.3-1.01-0.29-1.56,0.02
		l-1.2,0.68l2.78,4.9L94.95,116.25z"/>
	<path d="M95.61,108.2l3.33-2.66l0.56,0.7l-2.72,2.18l1.39,1.74l2.51-2.01l0.53,0.66l-2.51,2.01l1.55,1.94l2.77-2.21l0.55,0.68
		l-3.37,2.7L95.61,108.2z"/>
</g>
</svg>
