<?xml version="1.0" encoding="utf-8"?>
<!-- Svg Vector Icons : http://www.onlinewebfonts.com/icon -->
<!DOCTYPE svg PUBLIC "-//W3C//DTD SVG 1.1//EN" "http://www.w3.org/Graphics/SVG/1.1/DTD/svg11.dtd">
<svg version="1.1" xmlns="http://www.w3.org/2000/svg" xmlns:xlink="http://www.w3.org/1999/xlink" x="0px" y="0px" viewBox="0 0 1000 1000" enable-background="new 0 0 1000 1000" xml:space="preserve">
<metadata> Svg Vector Icons : http://www.onlinewebfonts.com/icon </metadata>
<g><g><path d="M500,10C229.4,10,10,229.4,10,500c0,270.6,219.4,490,490,490c270.6,0,490-219.4,490-490C990,229.4,770.6,10,500,10z M688.4,562.8c0,0,43.3,42.8,54,62.6c0.3,0.4,0.5,0.8,0.6,1c4.3,7.3,5.4,13,3.2,17.2c-3.6,7-15.8,10.5-20,10.8c0,0-74.4,0-76.6,0c-5.3,0-16.4-1.4-29.9-10.7c-10.4-7.2-20.6-19.1-30.5-30.7c-14.9-17.3-27.7-32.2-40.7-32.2c-1.6,0-3.3,0.3-4.8,0.8c-9.8,3.2-22.4,17.1-22.4,54.4c0,11.6-9.2,18.3-15.7,18.3c0,0-33.4,0-35.1,0c-11.9,0-74.2-4.2-129.3-62.3c-67.5-71.2-128.2-214-128.7-215.3c-3.8-9.2,4.1-14.2,12.7-14.2h77.3c10.3,0,13.7,6.3,16,11.8c2.8,6.5,12.9,32.3,29.5,61.3c26.9,47.3,43.4,66.5,56.6,66.5c2.5,0,4.8-0.7,7.1-1.8c17.3-9.6,14-71.1,13.3-83.9c0-2.4-0.1-27.5-8.9-39.6c-6.3-8.7-17.1-12-23.6-13.3c1.7-2.5,5.5-6.3,10.2-8.6c11.8-5.9,33.2-6.8,54.4-6.8h11.8c23,0.3,28.9,1.8,37.2,3.9c16.8,4,17.2,14.9,15.7,52.1c-0.5,10.6-0.9,22.5-0.9,36.6c0,3.1-0.2,6.3-0.2,9.8c-0.5,18.9-1.1,40.4,12.3,49.3c1.7,1.1,3.7,1.7,5.8,1.7c4.6,0,18.6,0,56.5-65c16.6-28.7,29.5-62.5,30.4-65c0.8-1.3,3-5.4,5.7-7c2.1-1.2,4.9-1.5,6.3-1.5h90.9c9.9,0,16.7,1.5,18,5.3c2.2,6.1-0.4,24.6-41.9,80.8c-7,9.3-13.2,17.4-18.5,24.4C648.5,522.9,648.5,525.4,688.4,562.8L688.4,562.8z"/></g></g>
</svg>