<svg width="78" height="87" viewBox="0 0 78 87" fill="none" xmlns="http://www.w3.org/2000/svg">
<path d="M7.86158 1.34284L8.09576 1.71083C13.571 6.40228 10.6844 10.3864 10.6844 10.3864C6.49955 8.39993 7.86317 1.34284 7.86158 1.34284ZM62.6074 52.0105C62.6074 52.0105 66.359 53.1017 67.2813 49.2578C67.2813 49.2578 64.6369 48.2606 62.6074 52.0105ZM54.2854 37.9792C54.2854 37.9792 56.127 35.7266 53.1337 32.5151C53.1337 32.5151 50.8381 35.819 54.2854 37.9792ZM67.9584 1.18036C67.9584 1.18036 64.5573 -0.102029 61.9479 4.72005C61.9479 4.72005 66.7731 6.12192 67.9584 1.18036ZM67.4932 12.1993C67.4932 12.1993 67.1714 10.1762 64.0809 10.2431C64.0809 10.2431 64.7404 12.999 67.4932 12.1993ZM63.2956 13.5119C63.2956 13.5119 64.7245 12.7011 63.8038 10.3992C63.8038 10.3992 61.9208 11.6704 63.2956 13.5119ZM58.448 58.4782C58.448 58.4782 59.1091 61.2325 61.8603 60.4344C61.8603 60.4344 61.5385 58.4097 58.448 58.4782ZM57.6642 61.7455C57.6642 61.7455 59.0932 60.9346 58.1708 58.6327C58.1708 58.6343 56.2879 59.9055 57.6642 61.7455ZM77.9609 34.3614C77.9609 34.3614 73.9848 32.9389 70.9325 38.2866C70.9325 38.2866 76.575 39.843 77.9609 34.3614ZM40.6587 31.5529C40.6587 31.5529 43.2904 32.3176 43.9372 29.6222C43.9372 29.6222 42.0829 28.9228 40.6587 31.5529ZM70.9293 38.9127C70.9277 38.9127 71.2862 43.3684 76.0159 42.8124C76.0159 42.8124 76.0222 39.5802 70.9293 38.9127ZM16.9753 25.458C16.9753 25.458 16.98 22.3516 12.338 21.7112C12.338 21.7112 12.6645 25.9933 16.9753 25.458ZM33.1301 71.9297C33.1301 71.9297 31.655 75.4646 35.2966 76.7852C35.2966 76.7852 36.5599 74.3192 33.1301 71.9297ZM19.7997 39.7968C19.7997 39.7968 21.9375 36.8848 18.0219 33.095C18.0219 33.095 15.387 37.3388 19.7997 39.7968ZM5.66162 20.8255C5.66162 20.8255 7.0125 18.1891 3.34376 15.6323C3.34376 15.6323 1.76668 19.4125 5.66162 20.8255ZM5.48002 21.1744C5.4816 21.1744 3.7468 19.0397 0.200735 21.1967C0.200735 21.1967 2.81967 23.9542 5.48002 21.1744ZM15.9446 65.2438C15.9446 65.2438 14.7705 67.1538 17.3847 69.2996C17.3847 69.2996 18.7993 66.5405 15.9446 65.2438ZM16.1023 64.9905C16.1023 64.9921 17.2843 66.7046 20.0864 65.2884C20.0864 65.2884 18.2736 63.0518 16.1023 64.9905ZM14.3452 45.4505C14.3452 45.4505 12.107 50.2216 17.0342 52.2527C17.0342 52.2527 18.9156 48.9392 14.3452 45.4505ZM9.99623 52.4263C9.99623 52.4263 13.2094 56.1157 16.7825 52.6923C16.7825 52.6923 14.6733 49.852 9.99623 52.4263ZM35.3683 83.6989C35.3683 83.6989 40.8085 84.6388 41.4967 79.0967C41.4967 79.0967 37.6256 78.1138 35.3683 83.6989ZM42.0096 79.2289C42.0096 79.2289 39.7236 82.1473 43.6217 86.1602C43.6217 86.1602 46.4589 81.8909 42.0096 79.2289ZM51.2316 51.7748C51.2316 51.7748 57.1831 50.0431 55.1473 44.1123C55.1457 44.1123 50.7585 45.0283 51.2316 51.7748ZM42.9415 19.8012C42.9415 19.8012 40.6301 21.8514 43.2235 25.7257C43.2251 25.7257 46.1913 22.6511 42.9415 19.8012ZM35.4368 57.7741C35.4368 57.7741 34.0971 61.035 38.6977 63.7017C38.6961 63.7017 40.1952 59.0628 35.4368 57.7741ZM6.13952 26.8997C6.13952 26.8997 4.6612 28.4656 6.69867 30.9954C6.69867 30.9954 8.57047 28.6791 6.13952 26.8997ZM47.0818 0.431638C46.9034 0.286672 46.6867 0.146482 46.4876 0.00470458L51.0452 0.00470498C51.1121 0.0843559 51.1599 0.186307 51.1615 0.315343L51.1663 0.315343C51.1663 0.903173 51.4865 1.35081 51.8465 1.77614C52.1858 2.039 52.5315 2.29866 52.8788 2.53124C53.3153 2.82276 53.2946 3.3389 53.054 3.66547C53.3296 3.96177 53.6084 4.26764 53.8458 4.5958C53.8633 4.59739 53.8824 4.60058 53.8999 4.60377L53.8999 4.60058C53.919 4.60376 53.935 4.60854 53.9525 4.61172C54.2631 4.6643 54.5547 4.74077 54.8669 4.83475C55.3528 4.97972 55.9135 4.88414 56.3564 5.0291C56.6622 5.12946 56.9872 5.22504 57.2947 5.34929C57.3616 5.30947 57.4333 5.2808 57.5097 5.26327L57.5193 5.25532C57.9016 4.8921 58.2935 4.57987 58.7571 4.32817C59.0056 4.19276 59.4022 4.23896 59.5568 4.10196C59.5472 3.46794 60.2019 3.07606 60.4536 2.54558C60.4775 2.4962 60.5524 2.53124 60.5396 2.58222C60.4552 2.91994 60.4313 3.23854 60.2481 3.546C60.1589 3.69733 60.084 3.84549 59.9948 3.98567C60.0315 3.99523 60.0697 4.00638 60.1048 4.02709C60.9108 4.49703 62.0419 4.88891 62.9547 4.95742C63.0455 4.96379 63.0471 5.10079 62.9547 5.0992C62.3525 5.08645 61.5576 4.79015 60.9857 4.9144C60.5922 5.00043 60.3007 5.02592 59.9773 4.93033C59.5998 5.24257 59.1601 5.43851 58.8001 5.7826C58.7602 5.82083 58.722 5.86066 58.6838 5.90049C58.7061 5.91323 58.7284 5.92756 58.7475 5.94191C58.8224 5.99607 58.8829 6.06138 58.9307 6.13306C59.3401 6.18085 59.5918 6.61735 59.8308 6.92002C59.9407 7.0602 59.9869 7.25615 59.9534 7.4266C59.9709 7.50147 59.9805 7.57794 59.9805 7.65759C60.1557 7.78025 60.3198 7.91566 60.4871 8.04469C60.5556 7.9746 60.6543 7.94115 60.785 7.98894C60.9968 8.06541 61.1912 8.16576 61.3696 8.28843C61.462 8.32666 61.5544 8.36648 61.6452 8.4079C61.8523 8.40472 62.0562 8.39516 62.2155 8.41746C62.3716 8.43817 62.4369 8.54331 62.4401 8.6596C62.6488 8.73288 62.8527 8.81412 63.0518 8.9097C63.2143 8.89059 63.3625 8.83483 63.568 8.83483C63.9965 8.83483 64.2976 9.07378 64.7612 8.99254C64.8567 8.97501 64.938 9.05786 64.9428 9.13911C65.306 9.17734 65.6692 9.2315 66.0292 9.26336C66.12 9.27132 66.12 9.39717 66.0292 9.40514C65.4589 9.45452 64.8822 9.56444 64.3103 9.574C64.0077 9.57877 63.6445 9.64886 63.3386 9.57718C63.2048 9.6409 63.0662 9.69507 62.9053 9.67914C62.2697 9.61542 61.7137 9.29203 61.1211 9.07697C61.0478 9.07697 60.9761 9.07697 60.9029 9.07538C60.7467 9.07379 60.5986 8.97661 60.4568 8.87466C60.4329 8.86032 60.4122 8.8444 60.3931 8.82687C60.3198 8.77271 60.2497 8.72013 60.1812 8.6819C59.8801 8.51145 59.3783 8.48277 59.133 8.23585L59.1282 8.22949C59.0645 8.23267 58.996 8.22311 58.9211 8.19125C58.5723 8.04629 58.2441 7.9061 57.9271 7.71335C57.6196 7.72449 57.3058 7.71972 56.9888 7.70061C56.9601 7.70698 56.9299 7.71175 56.898 7.71494L56.9028 7.75954C56.9378 8.02239 56.8422 8.23427 56.6638 8.34259C56.984 8.53853 57.3026 8.73288 57.6388 8.89855C57.6722 8.91448 57.6483 8.96387 57.6149 8.9559C57.1624 8.85554 56.753 8.6612 56.3691 8.41746C56.3325 8.41746 56.2942 8.41746 56.2528 8.41109C56.033 8.37922 55.9151 8.63889 55.8609 9.01325C55.8689 9.05308 55.8785 9.08971 55.8817 9.13113C55.8928 9.32548 55.9071 9.51983 55.9231 9.71259C55.931 9.73968 55.939 9.76516 55.9438 9.79383C56.1238 10.8962 56.2369 12.0018 56.6176 13.0579C56.7037 13.2969 56.5937 13.6139 56.4918 13.8449C56.5396 13.8736 56.5969 13.9198 56.667 13.9851C56.9442 14.2479 56.9107 14.678 56.667 14.9441L56.6479 14.9759C56.7419 15.3726 56.8231 15.7708 56.8868 16.1707C57.0493 16.5291 57.2357 16.8541 57.3201 16.9768C57.8251 17.7048 58.0259 17.8513 57.9605 18.8422C57.9287 19.352 57.7375 19.8283 57.6388 20.3237C57.6101 20.4671 57.6037 20.6136 57.6037 20.7602C57.6276 20.7873 57.6531 20.8112 57.6754 20.843C58.26 21.6571 58.3476 22.8773 58.8765 23.736C59.3114 24.0195 59.7304 24.3445 60.1382 24.5691C60.597 24.8208 61.059 25.106 61.4652 25.4501C61.7089 25.5058 61.9415 25.5154 62.1454 25.4548C62.4831 25.3545 62.7699 25.5265 62.9642 25.7878C63.3704 26.3326 64.116 26.6018 64.8153 27.161C64.9507 27.2709 65.0081 27.478 64.9874 27.6628C65.5816 27.889 66.1057 28.2426 66.6282 28.6887C67.3562 29.31 68.5701 29.3068 69.4542 29.5601C70.05 29.7321 70.6012 29.9822 71.1699 30.2275C71.2033 30.2419 71.1794 30.2944 71.146 30.2849C69.8254 29.9217 67.9297 29.4406 66.5581 29.5394C65.6532 29.6047 64.9444 28.6122 63.979 28.5803C63.5632 28.566 63.2127 28.0339 63.4756 27.6819C63.2653 27.5576 63.0359 27.47 62.7508 27.47C62.6408 27.47 62.5325 27.4397 62.4353 27.3904C62.4035 27.3951 62.3732 27.3967 62.3414 27.3951C62.2952 27.392 61.9686 27.3999 62.1231 27.3633C62.0928 27.3697 62.0642 27.3792 62.0339 27.3888L62.0052 27.4047C62.053 27.7759 62.155 28.112 62.3541 28.4481C62.5102 28.711 62.4879 29.1236 62.241 29.3291C62.1645 29.3944 62.0992 29.4613 62.0387 29.5298C62.1343 29.6971 62.2028 29.8675 62.2028 30.0459C62.2028 30.3789 62.1996 30.766 62.1534 31.1467C62.4768 31.6708 62.5261 32.3686 62.3844 33.0201C63.329 33.7019 64.3024 34.6561 64.1988 35.7999C65.0272 36.2683 65.6819 37.0058 66.4386 37.5618C67.1682 37.5857 67.8516 37.8008 68.5733 37.9186C69.4016 38.0541 70.1408 38.2277 70.821 38.7391C70.9644 38.8474 70.8433 39.072 70.6776 38.9844C69.991 38.6259 69.3363 38.5575 68.5733 38.6769C68.484 38.6897 68.3964 38.7136 68.3088 38.7406C68.7756 40.5264 68.911 42.4619 69.5896 44.1729C69.6183 44.2477 69.4956 44.2971 69.459 44.227C69.0384 43.4305 68.6609 42.6005 68.3566 41.7515C68.038 40.8594 67.8325 39.628 66.8098 39.3348C65.3522 38.9175 64.6114 37.3356 63.1809 36.8816C62.8432 36.7749 62.5405 36.3798 62.6854 36.0086C62.7508 35.8398 62.7603 35.6773 62.7316 35.5227C62.7093 35.5275 62.687 35.5307 62.6631 35.5307C62.6106 35.5307 62.5596 35.5259 62.5086 35.5196C62.3254 35.698 61.9957 35.7155 61.7806 35.5307C61.6834 35.5339 61.5958 35.5323 61.4795 35.5036C61.4015 35.4845 61.3298 35.4574 61.2565 35.4303C60.2832 36.6809 58.961 37.8916 58.7602 39.0593C58.577 40.1234 58.4353 41.1222 58.0705 42.129C57.908 42.5766 58.3811 43.1071 58.3365 43.5675C58.2712 44.2573 58.2489 44.9439 58.3381 45.6305C58.3445 45.6703 58.3206 45.6942 58.2903 45.7085C58.4608 46.3856 58.8399 46.7743 59.5599 47.1916C60.4919 47.7317 60.9937 49.0778 60.9076 50.1324C60.9124 50.1499 60.9172 50.1658 60.9204 50.1833C61.1673 50.3984 61.2167 50.7696 61.2071 51.1232C61.3043 51.2459 61.3983 51.3749 61.4843 51.5087C61.7774 51.6059 62.0403 51.7875 62.2553 52.0376C62.6456 52.4932 62.9308 53.1734 63.4644 53.4586C63.5202 53.4873 63.4804 53.5765 63.4214 53.5589C63.0455 53.4458 62.6185 53.2372 62.3366 52.9584C61.9558 52.5808 61.5464 52.0328 60.9427 52.1204L60.914 52.1204C60.7069 53.0986 60.1207 54.0544 59.5838 54.9337C59.5775 54.9624 59.5727 54.9847 59.5695 54.9974C59.4086 55.743 58.6694 56.4821 58.9068 57.2643C59.2015 58.2361 57.9382 58.1915 57.4285 58.518C57.3648 58.5594 57.309 58.4718 57.352 58.4193C58.1931 57.3965 58.9068 55.9772 59.2525 54.5434C59.2668 54.4606 59.2875 54.3778 59.3066 54.2949C59.4325 53.6975 59.4946 53.1017 59.4691 52.533C59.4628 52.3817 59.5966 52.2495 59.7431 52.2351C59.767 52.1555 59.7909 52.0758 59.8148 51.9962C59.7941 51.8385 59.7734 51.6792 59.7431 51.5231C59.7017 51.3144 59.8738 51.1742 60.0601 51.2236C60.0538 51.1678 60.0458 51.1152 60.0378 51.0611C59.8992 50.8938 59.7989 50.6915 59.7208 50.4016C59.6906 50.2901 59.7081 50.1578 59.7607 50.0431C59.7145 49.9794 59.6683 49.903 59.6141 49.7946C59.4914 49.5509 59.5583 49.3199 59.7033 49.1622C59.3959 48.6954 59.039 48.2685 58.6551 48.0853C58.1485 47.8432 57.849 47.66 57.5989 47.155C57.1831 46.3155 57.3663 44.9726 57.4269 43.9004C57.4078 43.8319 57.3855 43.765 57.3679 43.6981C57.2915 43.3971 57.0541 43.0498 56.9426 42.7105C56.7212 42.8044 56.4854 42.8666 56.256 42.9287C56.0011 42.9956 55.8068 43.2409 55.6204 43.4178C55.5615 43.4735 55.4754 43.3875 55.5312 43.3286C55.6523 43.2027 55.7717 43.0753 55.8976 42.9558C56.0075 42.8522 56.0712 42.7248 56.1652 42.6085C56.3643 42.3632 56.522 42.1752 56.8375 42.0796C56.8725 42.0685 56.906 42.0685 56.9378 42.0701C57.2198 40.9773 57.1513 39.7857 57.4635 38.7008C57.7917 37.5618 58.44 36.5184 58.9833 35.4702C59.3497 34.7629 59.8817 34.105 60.1175 33.3339C60.2927 32.762 60.3596 32.3686 60.6958 31.9257C60.6352 31.6708 60.6336 31.3936 60.6591 31.1117C60.6559 31.032 60.6559 30.9508 60.6623 30.8663C60.6671 30.8185 60.6782 30.7739 60.6942 30.7309C60.3469 30.6162 60.0713 30.2132 60.2115 29.8532C60.2529 29.7464 60.2943 29.6477 60.3341 29.5521C60.1733 29.2701 60.0283 28.9754 59.8674 28.6568C59.4675 27.8683 58.7602 27.016 58.2011 26.3214C57.4046 25.3322 56.4551 24.5675 55.5726 23.6961C55.5153 23.8347 55.4579 23.9733 55.4037 24.1087C54.9402 25.2653 54.4495 26.4473 53.567 27.3394C53.7104 27.8555 53.7199 28.3764 53.5495 28.9117C53.4316 29.2813 53.2739 29.6493 53.1799 30.0236C53.0317 30.6178 52.7322 30.7007 53.2388 30.8265C53.6052 30.9173 53.7279 31.5083 53.3503 31.6772C51.821 32.3638 50.142 32.8066 48.8676 33.9616C48.635 34.1719 48.1029 34.9604 47.7843 34.9604C47.034 34.9604 47.206 36.1504 47.2252 36.606C47.2283 36.6713 47.136 36.6777 47.1168 36.6203C46.8954 35.9688 46.9161 35.3921 47.0133 34.7167C47.0244 34.6482 47.1057 34.594 47.171 34.5972C47.8528 34.6306 48.3849 33.6924 48.8373 33.3355C49.1798 33.0647 49.5239 32.7971 49.8998 32.5709C50.6056 32.1471 51.3208 31.7377 52.0409 31.3379C51.9979 31.2598 51.9676 31.1722 51.9548 31.0702C51.7908 29.7703 52.6685 28.6616 52.3658 27.3697C52.3467 27.3792 52.3292 27.3904 52.3085 27.3999C52.2846 27.4127 52.2607 27.384 52.2798 27.3633C52.3053 27.3346 52.3276 27.3075 52.3515 27.2788C52.3197 27.0988 52.3627 26.8886 52.5044 26.7675C52.5952 26.6894 52.6797 26.6098 52.7625 26.5269C52.9839 25.8738 53.0078 25.149 53.3726 24.5213C53.8314 23.7312 54.2313 22.9172 54.6136 22.0872L54.6343 22.041C54.5738 21.5392 54.5499 21.0613 54.5897 20.5706C54.4511 20.2839 54.4623 19.9159 54.7363 19.5702L54.757 19.5463C54.8 19.3552 54.8462 19.1592 54.9003 18.9601C54.244 17.4754 54.0274 15.8999 53.9891 14.2559C53.293 13.4196 52.9521 11.9858 52.5522 11.1224C51.8911 9.69507 51.8019 8.12913 51.3495 6.63806C51.1966 6.55362 51.0787 6.41662 51.0277 6.23343C50.8318 5.52453 50.4463 4.90644 50.1038 4.26285C50.0607 4.25489 50.0193 4.24374 49.9795 4.22781C49.9652 4.33455 49.8298 4.39508 49.7262 4.31543C48.6939 3.50936 48.455 2.22697 47.7652 1.19788C47.5597 0.976453 47.3606 0.745465 47.1662 0.508107C47.1376 0.482618 47.1121 0.455533 47.0818 0.431638ZM62.2617 27.2964L62.2729 27.2996L62.2617 27.2964ZM6.06465 25.5982C6.52662 25.2764 6.24466 24.4449 6.2367 23.8538C6.23351 23.6404 6.43901 23.599 6.5776 23.6643C6.63336 23.6292 6.70823 23.6229 6.77514 23.6404C6.54256 23.411 6.47406 23.094 6.57601 22.6877C6.4645 22.1955 6.33387 21.7128 6.19369 21.2269C6.122 20.98 6.32272 20.6917 6.58876 20.7076C6.70505 20.714 6.85001 20.7044 6.99816 20.6933C6.99338 20.671 6.98701 20.6503 6.98223 20.628C6.90577 20.2998 7.13198 20.0226 7.46014 20.0003C7.63697 19.9892 7.79149 19.9812 7.94282 19.9828C8.0161 19.7518 8.21045 19.6005 8.45418 19.5941C9.17264 19.575 9.52469 19.0668 10.1046 19.0015C10.1412 18.6351 10.2432 18.3277 10.3817 17.9246C10.4152 17.8274 10.4948 17.7159 10.6064 17.7C11.2149 17.5072 11.5765 17.1217 11.696 16.5419C11.7995 16.2663 12.2281 16.1293 12.3842 16.4479C12.4192 16.424 12.4606 16.3953 12.5132 16.3587C12.6438 16.2997 12.7792 16.2519 12.9178 16.2169C13.1552 16.1388 13.4435 16.1723 13.6857 16.185C14.2305 16.2137 14.7466 16.416 15.2739 16.5228C14.9649 16.3826 14.702 16.1962 14.53 15.9031C14.2289 15.7454 13.9167 15.6131 13.6506 15.4937C13.4403 15.3981 13.332 15.0938 13.4021 14.8819C13.9103 13.3287 11.6434 12.5689 10.8039 11.4123C10.7704 11.4107 10.7338 11.4012 10.6988 11.3773C9.68877 10.7034 8.74252 9.94357 7.70228 9.3207L7.71662 9.29521C8.62942 9.88941 9.61231 10.3482 10.5952 10.8086C10.686 10.6286 10.9839 10.6349 11.0604 10.858C11.4411 11.9587 12.9385 12.4653 13.6331 13.3813C14.0473 13.9277 14.5332 14.1619 14.5332 14.721C15.0843 14.9998 15.6244 15.3375 16.0338 15.7836C16.4575 15.9206 16.9944 16.0353 17.219 16.0895C18.2815 16.3412 19.2899 16.6709 20.3891 16.776C20.8224 16.8175 21.2509 16.835 21.6731 16.8907C21.8021 16.604 22.0793 16.3921 22.4282 16.5084C23.0925 16.7299 23.5544 15.6179 23.846 15.1464C24.0945 14.7434 24.7205 14.2288 24.617 13.7397C24.5071 13.2188 24.9786 12.6469 25.4932 12.7553C25.5696 12.6342 25.6493 12.5211 25.7273 12.4144C25.8532 12.2439 25.9806 12.0734 26.1272 11.9285C26.1702 11.6975 26.2435 11.4585 26.3406 11.218C26.4235 10.7704 26.5047 10.3227 26.621 9.88623C26.6816 9.57558 26.903 9.44018 27.1403 9.43541C27.2025 9.29681 27.2694 9.16777 27.3458 9.0483C27.5641 8.25975 27.8572 7.50785 28.6011 7.36766C28.8783 7.01242 29.1953 6.69221 29.5617 6.46919C29.5681 6.38157 29.5745 6.29396 29.5824 6.19997C29.6063 5.93075 29.7816 5.70136 30.011 5.61215C30.0046 5.59622 29.9982 5.58029 29.995 5.56436C29.8835 5.01158 30.0142 4.34888 30.4714 3.96655C30.7087 3.76742 30.9763 3.64795 31.244 3.63839C31.2519 3.53644 31.2838 3.43766 31.3459 3.35005C31.4606 3.18915 31.5689 3.04579 31.6868 2.91675C31.7378 2.83232 31.8063 2.76382 31.8907 2.71603C31.9975 2.62363 32.1153 2.54239 32.2523 2.46593C32.3304 2.05971 32.7287 1.83828 33.0998 1.91952C33.3117 1.69331 33.5331 1.47985 33.8103 1.33169L33.8342 1.32213C33.7195 1.05928 33.6845 0.775722 33.7498 0.495357C33.6685 0.340832 33.6654 0.162418 33.7434 -7.25302e-05L40.3959 -7.19486e-05C40.3194 0.179944 40.184 0.337651 40.0215 0.455533C39.8272 0.595715 39.644 0.710415 39.4512 0.786885C39.3891 1.67579 39.4958 2.61726 39.327 3.47908L39.3716 3.50298C39.628 3.62087 39.7698 3.93788 39.7746 4.20392C39.7921 5.16451 39.8272 6.1028 40.004 7.04905C40.0582 7.3358 40.0295 7.69423 39.781 7.89495C39.722 7.94274 39.6695 7.99372 39.6137 8.0431C39.6217 8.11956 39.6201 8.19922 39.5994 8.27727C39.5372 8.51464 39.4942 8.76156 39.4624 9.01484C39.7316 9.4593 39.9403 9.9372 40.0598 10.4279C40.1219 10.6827 39.9785 10.952 39.738 11.0348C39.7396 11.0571 39.7411 11.0778 39.7427 11.1001C39.8495 11.1861 39.9371 11.3104 39.9562 11.4251C40.0167 11.7771 40.1267 12.091 40.2525 12.4255C40.3959 12.8046 40.1601 13.1153 39.8463 13.2411C39.953 13.6744 40.0709 14.0982 40.1952 14.5092C40.8499 15.2547 41.3597 16.1261 41.4998 17.007C42.1339 17.1775 42.6022 17.5439 42.8874 18.103C42.9734 18.1699 43.0594 18.2384 43.1486 18.3069C43.3302 18.4471 43.5023 18.5682 43.6791 18.6765C44.0232 18.7912 44.3689 18.9059 44.713 19.0206C44.7416 19.0302 44.7289 19.0764 44.7002 19.0668C44.4406 18.9808 44.1809 18.8932 43.9212 18.8072C44.0949 18.8932 44.2781 18.9665 44.4884 19.0142C44.8468 19.0955 45.1096 19.1974 45.4043 19.4173C45.4442 19.4476 45.4107 19.5081 45.3645 19.4858C44.568 19.1114 43.6632 19.4985 42.9017 19.121C42.2486 18.7976 41.6767 18.3993 41.1398 17.939C41.0634 17.931 40.9869 17.9182 40.912 17.8975C40.8579 17.8816 40.8053 17.8577 40.7559 17.8258C40.7352 17.8928 40.6986 17.9549 40.6571 18.017C40.6539 18.0903 40.6571 18.1636 40.6794 18.2432C40.8244 18.7705 40.4708 19.0875 40.1426 19.438C39.7539 19.8506 39.2855 20.2441 38.9016 20.6837C38.8889 20.7251 38.8777 20.7666 38.8634 20.808C38.8236 20.9195 38.7598 21.0119 38.6834 21.0868C38.2007 22.0824 37.4918 22.9745 37.3118 24.1119C37.2353 24.5914 36.7319 24.7667 36.3114 24.687C36.1393 24.8861 35.988 25.09 35.8653 25.3258C35.8988 25.4214 35.9274 25.5201 35.9529 25.6189C36.348 26.6018 36.3576 27.838 36.5742 28.9133C36.9422 29.1634 37.2114 29.5298 37.4026 29.9424C37.4727 29.9711 37.5444 29.9997 37.6176 30.022C37.8614 30.0969 38.078 30.1781 38.2676 30.3056C38.3488 30.2387 38.4954 30.2514 38.5416 30.3518C38.5814 30.4378 38.5703 30.5015 38.5942 30.5796L38.6053 30.5812C38.9399 30.6274 39.2792 30.9508 39.5882 31.0718C40.2509 31.3299 40.7097 31.8795 41.0411 32.4833C41.0618 32.5199 41.0108 32.547 40.9869 32.5151C40.6619 32.0675 39.6026 30.895 38.9319 31.2933C38.6483 31.4605 38.2612 31.4398 37.9347 31.5306C38.0987 31.9145 38.1991 32.3303 38.2692 32.7588C38.3138 32.8576 38.36 32.9548 38.4062 33.0551C38.5591 33.3801 38.6738 33.721 38.7535 34.0715L38.7933 34.105C39.1294 34.4984 39.2139 34.8457 39.2521 35.2615C39.4751 35.3937 39.6073 35.6852 39.5341 35.9385C39.4194 36.3384 39.4751 36.743 39.4512 37.1492C39.5261 37.2289 39.5595 37.3372 39.5579 37.4503C41.0012 38.1974 42.3856 39.4336 43.1199 40.8753C43.1582 40.947 43.0546 41.0075 43.0116 40.939C42.4206 40.0055 41.4696 39.3524 40.552 38.7598C40.4644 38.7024 40.3465 38.6228 40.2159 38.5351C39.9084 38.6052 39.5325 38.6164 39.2728 38.5033C39.1549 38.5128 39.0402 38.5097 38.9271 38.4953C38.8283 38.6658 38.6929 38.8155 38.5145 38.9414C38.3887 39.0306 38.2533 39.0401 38.1338 39.0003C38.035 39.0991 37.9299 39.1915 37.8088 39.2711L37.7881 39.2791C37.1413 40.888 36.5296 42.5034 36.9916 44.3704C37.0155 44.4692 36.8657 44.5106 36.8387 44.4118C36.5232 43.2744 36.4977 42.1258 36.7717 40.9725C37.0888 39.6439 37.8996 38.2755 37.9601 36.9055C37.9888 36.2667 38.0796 35.6008 38.0223 34.954C37.8486 34.4443 37.7148 33.8883 37.5507 33.3546C37.5029 33.3148 37.4727 33.2559 37.4838 33.1746L37.4838 33.1428C37.4711 33.1045 37.4583 33.0679 37.4456 33.0313C37.4281 33.0089 37.4074 32.9866 37.3803 32.9596C37.3628 32.9404 37.3421 32.9213 37.3229 32.9038C37.315 32.9022 37.3006 32.899 37.2783 32.8895C37.1636 32.8576 37.0633 32.7764 36.9884 32.6856C36.861 32.531 36.8116 32.3351 36.9199 32.1519C36.9406 32.1185 36.9677 32.085 36.9996 32.0563C36.9565 31.9878 36.9087 31.9225 36.8594 31.8572C36.8243 31.8429 36.7877 31.8269 36.7558 31.8062C36.4181 31.983 35.9689 31.913 35.8988 31.4398C35.894 31.3331 35.8749 31.2311 35.8446 31.1308C35.397 31.3761 34.7884 31.0161 34.7247 30.4521C34.7152 30.3693 34.6992 30.2881 34.6833 30.2052C34.6164 30.2243 34.5527 30.2435 34.481 30.2578C34.1688 30.3183 33.8693 30.2307 33.6622 30.0396L33.6287 30.0762C33.1779 30.5971 32.9979 31.2057 32.8481 31.8604C32.7844 32.1392 32.4881 32.3686 32.2014 32.3542C32.0691 32.3478 31.9385 32.3574 31.8095 32.3781C31.7856 32.4896 31.7665 32.5995 31.7569 32.7095C31.7362 32.9643 31.596 33.2065 31.33 33.2702C31.2057 33.3005 31.0847 33.3387 30.9636 33.3753C30.9365 33.4008 30.9062 33.4247 30.8728 33.447C30.4172 33.7401 30.1862 34.4984 30.105 35.2153C30.5813 35.9003 30.9731 36.6394 31.6135 37.1906C31.6406 37.2129 31.6183 37.2575 31.5865 37.2575L31.5578 37.256C31.7649 37.3866 31.9274 37.5666 32.0086 37.8103C32.9119 37.4806 33.4901 37.9394 34.062 38.6371C34.0779 38.6562 34.0556 38.6913 34.0333 38.6737C33.4917 38.258 32.8768 37.9394 32.2077 38.1831C32.1727 38.2245 32.1217 38.2516 32.0516 38.25C31.9879 38.2516 31.921 38.2834 31.8605 38.2994C31.733 38.3344 31.6279 38.2739 31.5546 38.1751C31.5419 38.1592 31.5259 38.148 31.5132 38.1337C32.066 40.3464 31.7697 42.6897 33.4614 44.5663C33.4965 44.6046 33.4503 44.6747 33.4041 44.6412C31.5546 43.2935 31.4495 41.1366 30.9206 39.0704C30.8218 38.6865 30.7613 38.105 30.4968 37.7737C30.4586 37.7434 30.4267 37.7116 30.4028 37.6765C30.3407 37.6239 30.2738 37.5777 30.1926 37.5507C30.0173 37.4933 29.78 37.4376 29.5362 37.3706C29.3435 37.4264 29.1268 37.4073 28.9197 37.291C28.8688 37.3213 28.8162 37.3468 28.7588 37.3659C28.5661 37.4551 28.3383 37.5013 28.128 37.4439C28.0436 37.42 27.9767 37.385 27.9241 37.342C27.5402 38.2309 26.8297 38.8745 26.1638 39.5435C26.1304 39.6184 26.1001 39.6933 26.0698 39.7697C26.0794 40.0087 26.081 40.2492 26.0316 40.4277C26.0061 40.52 25.9615 40.5933 25.9121 40.6618C25.9599 41.0203 25.9105 41.3468 25.7321 41.7116C25.7847 42.3026 25.7194 42.9558 25.3992 43.4432C25.67 43.824 25.9631 44.1697 26.1559 44.5998C26.5669 45.5158 25.979 46.6277 27.0798 47.2601C27.4796 47.4895 27.5832 47.9069 27.5163 48.3322C27.5513 48.4087 27.5864 48.4836 27.6214 48.56C27.8906 48.8085 27.9432 49.1303 27.862 49.4282C27.9639 49.5907 28.0484 49.7548 28.1057 49.9237C28.6983 50.22 29.0631 50.7377 29.0265 51.437C29.0711 51.5326 29.0997 51.6362 29.1141 51.7477C29.13 51.7556 29.1459 51.7668 29.1619 51.7748C29.6478 51.9261 29.995 52.4821 29.831 52.9727C30.1703 53.0874 30.4028 53.4554 30.4204 53.8154C30.5064 53.919 30.5669 54.04 30.6004 54.1691C30.7326 54.2535 30.8409 54.3841 30.8999 54.5705C30.9126 54.6151 30.9254 54.6549 30.9381 54.698C31.8684 55.2953 32.888 55.7382 33.9409 56.2002C34.2548 56.3372 35.7204 56.831 35.338 57.2197C35.5085 57.0445 36.1027 57.0493 36.3257 57.0062C36.9645 56.8852 37.5205 56.7514 38.129 56.4869C38.1465 56.479 38.1625 56.5044 38.1449 56.514C37.7276 56.7386 36.0278 57.6259 35.6582 57.2484C35.8303 57.4252 35.6582 57.7263 35.4177 57.661C34.2357 57.3424 32.9214 56.6876 31.8015 56.0982C31.8939 56.2846 31.9672 56.4885 32.05 56.6478C32.1122 56.7657 32.0357 56.8661 31.9401 56.8868L31.9592 56.9107C32.5343 57.5606 32.5901 58.4495 33.42 58.8876C33.788 59.082 33.8278 59.52 33.6749 59.8593C33.659 59.9008 33.6383 59.9406 33.6207 59.9804C33.7052 60.0824 33.7721 60.2034 33.8326 60.3484C34.3838 60.5953 34.7566 60.9936 34.8235 61.5241C34.8808 61.6037 34.9366 61.6834 34.9907 61.7598C35.5164 62.4942 35.8303 63.235 35.9067 64.0952C36.5678 64.4393 36.7192 65.102 37.2019 65.4907C37.9984 66.1311 38.7965 66.7938 39.3859 67.6365L39.3891 67.646C39.5739 67.7862 39.7364 67.9567 39.8734 68.1431C40.3576 68.3215 40.6508 68.8376 41.0028 69.2136C41.4473 69.6867 41.9188 70.1343 42.3441 70.625C42.5863 70.9038 42.7918 71.7481 43.2235 71.7752C44.1363 71.8325 44.9296 72.1336 45.8504 71.8994C45.93 71.8787 45.9619 71.9982 45.8838 72.0205C44.8659 72.3009 43.8973 71.9823 42.8682 71.9361C42.8364 71.9345 42.8045 71.9185 42.7886 71.8899C42.5257 71.3817 41.683 70.9054 40.8897 70.394C40.4596 71.4789 41.4505 72.8775 41.2179 74.042C41.1637 74.3081 41.5699 75.0106 41.6448 75.2671C41.8583 75.9919 42.1769 76.551 42.5735 77.1867C42.6564 77.3221 42.9782 78.0995 43.0594 78.1202C43.4688 78.2253 43.7779 78.4276 44.1172 78.6793C44.9503 79.2974 45.5509 80.1815 46.3458 80.8251C46.3681 80.8442 46.3394 80.8729 46.314 80.8522C45.288 80.3584 43.9929 78.5487 42.8332 78.708C42.685 78.7287 42.5688 78.6937 42.4827 78.5662C41.9873 77.835 41.382 77.1118 41.0283 76.3025C40.7575 75.6844 40.5982 75.095 40.2525 74.504C40.0948 74.2364 40.2668 73.7824 40.235 73.5275C40.1744 73.0368 40.0454 72.5796 39.9243 72.1033C39.7857 71.5601 39.7443 71.0631 39.7427 70.523C39.6376 70.3988 39.5388 70.2586 39.3381 70.1519C39.123 70.0388 38.9765 69.7233 39.0673 69.4876C39.3381 68.7866 38.5575 68.3247 38.0191 68.3932C37.6925 68.4346 37.4313 68.0905 37.4249 67.799C37.4233 67.74 37.4217 67.6795 37.4201 67.6206C36.8132 67.3274 36.246 66.9133 35.7395 66.4879C35.6168 66.3844 35.4957 66.1741 35.3747 65.9288C35.2775 65.9351 35.1787 65.9463 35.0847 65.959C35.0656 65.9941 35.0417 66.0259 35.0083 66.053C34.9143 66.1279 34.8203 66.1868 34.7263 66.2394C34.2357 66.6918 33.8135 67.2685 33.6128 67.9184C33.9903 68.1717 34.0891 68.519 34.1178 68.9906C34.1624 69.7361 34.0461 70.1455 34.704 70.6521C35.1437 70.9898 35.3508 71.3419 35.2249 71.8978C35.2122 71.9568 35.123 71.9313 35.1341 71.8723C35.3508 70.7461 34.1942 70.754 33.651 70.1487C33.3499 69.8126 33.1747 69.4095 33.1158 68.9858C33.0234 69.016 32.9214 69.024 32.8099 68.9953C32.7812 68.9874 32.7557 68.9794 32.7302 68.973L32.7287 68.9746C32.6187 69.6357 32.6697 70.2634 32.6203 70.9707C32.606 71.1889 32.6458 71.5633 32.4578 71.7481C32.512 71.6955 31.6789 72.2865 31.7442 72.2037C31.5626 72.4331 31.4781 72.5844 31.2169 72.7023C31.1452 72.7326 31.0416 72.6609 31.0974 72.5828C31.4431 72.1001 31.6677 71.9679 31.698 71.4327C31.7617 70.2905 31.5753 69.153 31.8254 68.0268C31.8955 67.7098 32.2954 67.5282 32.5837 67.6683C32.6124 67.6126 32.641 67.5568 32.6697 67.4995C32.7016 67.4246 32.7366 67.3497 32.7733 67.2749C32.9373 66.8989 33.0393 66.5102 32.9198 66.0801C32.8211 65.7233 33.1158 65.4493 33.4471 65.4636L33.4535 65.427C33.3738 65.2756 33.3754 65.0861 33.4758 64.9427C33.557 64.5683 33.71 64.1159 33.9186 63.8355C33.9314 63.818 33.9473 63.8037 33.9648 63.7893C33.9776 63.3736 33.9951 62.8972 33.6446 62.6025C33.5108 62.4894 33.4503 62.2887 33.4614 62.1087C33.3579 61.9813 33.2528 61.8538 33.146 61.7232C33.0266 61.5766 32.9198 61.4412 32.8306 61.3042C32.6171 61.0557 32.4499 60.8391 32.5263 60.8693C32.1042 60.7005 31.8621 60.2624 32.1042 59.8323C32.1249 59.7972 32.1424 59.7622 32.1615 59.7287C31.5132 59.1186 31.3141 58.2552 30.6227 57.5925C30.3104 57.2914 30.1161 56.9919 29.9775 56.6781C29.8963 56.6303 29.8166 56.5793 29.7449 56.522C29.3753 56.2304 29.1794 55.9262 28.9213 55.5773C28.8512 55.5311 28.7811 55.4801 28.7142 55.4228C28.5581 55.2874 28.4721 55.0914 28.4498 54.8859C28.3271 54.6438 28.2252 54.3921 28.093 54.1547C28.0069 54.0544 27.9368 53.9445 27.8827 53.8282C27.5975 53.4203 27.263 53.0922 26.8982 52.7322C25.8819 51.7286 25.3243 50.2184 24.9292 48.8372C24.3717 48.6365 24.077 48.1873 23.9256 47.6472C23.4557 48.0917 22.887 48.4915 22.4138 48.4915C22.1351 48.4915 22.1414 48.2128 21.9614 48.5648C21.8706 48.7464 21.8005 48.9806 21.6556 49.1272C21.3417 49.441 20.8909 49.707 20.4974 49.9253C20.4831 49.9746 20.4704 50.0224 20.4608 50.0734C20.4289 50.2455 20.2394 50.4462 20.0625 50.4717C19.7423 50.5163 19.4715 50.7218 19.2405 51.0053C18.9777 51.4609 18.761 51.9468 18.5555 52.3849C18.4679 52.5729 18.3851 52.7927 18.3007 53.0221C18.272 53.1113 18.2449 53.1957 18.221 53.2706C18.0697 53.739 17.9502 54.2073 17.8419 54.6772C17.8466 54.9066 17.8482 55.1472 17.8403 55.3925C18.0665 55.88 18.2768 56.3754 18.5173 56.8565C18.7324 57.2866 18.9809 57.6912 19.1784 58.123C19.3345 58.1373 19.462 58.201 19.556 58.3428C19.6515 58.4862 19.9877 58.526 20.1374 58.6933C20.1613 58.7203 20.1725 58.757 20.1772 58.7952C21.928 59.391 23.6628 59.9948 25.4581 60.4966C25.5075 60.5109 25.4868 60.5858 25.4374 60.573C23.6198 60.1318 21.5504 59.8131 19.7854 59.0278C19.6659 59.0437 19.5496 59.0453 19.4269 59.0405C19.411 59.0756 19.3982 59.1122 19.3807 59.1489C19.3074 59.3018 19.1641 59.3671 19.0159 59.3687C18.855 59.536 18.6671 59.6873 18.5141 59.8386C18.1525 60.2003 17.9135 60.7132 17.8578 61.2262C17.8546 61.2564 17.81 61.258 17.81 61.2262C17.802 60.6845 18.0649 60.2082 18.135 59.6809C18.1875 59.297 18.2067 58.8685 18.3978 58.5292C18.1923 57.9222 17.9104 57.336 17.6427 56.7577C17.5822 56.9473 17.5089 57.1305 17.4117 57.2978C17.1855 57.6833 16.9386 57.8107 16.8446 58.303C16.8319 58.3746 16.7714 58.4416 16.7108 58.4766C16.1341 58.8159 16.4448 58.6295 16.4703 59.2476C16.491 59.7494 15.9908 60.1732 15.6499 60.4472C14.9139 61.0398 15.2898 62.1947 15.1258 63.0088C15.7359 63.8913 15.2723 65.3967 15.0477 66.3557C14.8024 67.4023 14.4487 68.7691 13.383 69.2661C13.3081 69.3028 13.1918 69.2215 13.254 69.1371C14.0775 68.0331 14.6224 67.0901 14.5507 65.6516C14.5236 65.1036 14.3197 64.4457 14.3245 63.8467C14.2926 63.8562 14.2623 63.8642 14.2289 63.8706C12.596 64.1956 10.9632 64.3979 9.32079 64.6543C9.21246 64.6719 9.16467 64.5189 9.27459 64.4871C10.7258 64.0665 13.0532 64.3501 14.0839 63.0645C14.5618 62.4671 13.8051 61.2516 14.2209 60.5412C14.7036 59.7208 15.9621 60.1811 15.7279 58.6455C15.7088 58.518 15.7407 58.4113 15.8522 58.3396C16.303 58.0497 16.5913 57.1608 16.5292 56.6287C16.4703 56.1173 16.7443 55.6203 17.0135 55.1567C17.0422 54.9911 17.082 54.8222 17.1266 54.6549L17.125 54.6502C17.0724 54.0257 17.4659 53.4904 17.6013 52.8899C17.7128 52.3992 17.8498 51.9261 18.0808 51.4769C18.1844 51.2745 18.2911 51.1009 18.3978 50.94C18.5699 50.5163 18.7722 50.1212 19.0255 49.8265C19.1529 49.6767 19.282 49.5573 19.454 49.4697C19.4333 49.4521 19.4317 49.4107 19.4683 49.3263C19.7232 48.7496 20.1215 48.259 20.5835 47.8288C21.2286 47.2283 21.8419 47.018 22.0984 46.1578C22.0538 45.9921 22.057 45.8041 22.1398 45.6113C22.2115 45.4457 22.2848 45.2864 22.3629 45.1319C22.4855 44.8244 22.5636 44.5154 22.5843 44.149C22.597 43.9275 22.6878 43.7491 22.8217 43.6185C22.734 43.4353 22.7101 43.2154 22.7914 42.9701C22.8806 42.7009 22.9873 42.4476 23.0574 42.172C23.0925 42.0334 23.161 41.9187 23.2502 41.8216C23.204 41.6622 23.1801 41.5029 23.1801 41.342C23.102 40.896 23.0399 40.4516 23.0128 39.9959C22.9937 39.6726 23.204 39.3428 23.4764 39.1867C23.9798 38.8968 24.1486 37.5013 24.3844 36.9692C24.4943 36.7175 24.6839 36.5773 24.8958 36.5184C24.8878 36.477 24.8814 36.4339 24.8814 36.3909C24.8767 35.9991 24.9945 35.5992 25.3179 35.3762C25.4199 35.2169 25.5234 35.0592 25.6222 34.8999C25.4326 34.8935 25.2494 34.7979 25.1522 34.6243C24.6839 33.7816 24.1678 33.2224 23.2884 32.8035C23.1068 32.7174 22.9905 32.4848 22.9937 32.2905C22.9985 32.0308 23.0208 31.8078 23.0702 31.5832C22.9778 31.4812 22.8854 31.3777 22.7946 31.2726C22.5508 31.0479 22.3485 30.7994 22.1876 30.5302C21.8053 30.0364 20.9371 28.7492 20.4688 27.5178C20.3859 27.556 20.2903 27.615 20.1852 27.6898L20.1756 27.7217C20.147 28.1104 19.814 28.4274 19.4126 28.335C19.1418 28.5835 18.8757 28.8336 18.6655 29.0232C18.9793 29.4055 18.898 30.1176 18.8518 30.5668C18.7897 31.1802 18.6543 31.5736 18.221 32.0038L18.1876 32.0276C18.178 32.6266 17.8371 32.9866 17.3273 33.3658C15.9127 34.4172 14.9888 36.2396 15.7996 37.9505C15.8139 37.9808 15.7757 38.0174 15.7502 37.9887C14.9649 37.1365 15.113 36.0962 15.5638 35.0831C15.8394 34.4618 16.1278 33.8134 16.6487 33.353C17.1903 32.8735 17.493 32.4705 17.6842 31.7536C17.7112 31.6533 17.7766 31.5991 17.8498 31.5816C17.9454 31.2582 17.912 30.7246 17.8881 30.4314C17.8849 30.3948 17.8769 30.3566 17.8689 30.3199C17.6762 30.3613 17.4548 30.3088 17.313 30.1797C16.894 30.6608 16.3205 31.0352 15.7024 31.1387C15.6801 31.2487 15.6546 31.3586 15.6212 31.4669C15.5877 31.5975 15.4667 31.6676 15.344 31.674C14.9888 32.1328 14.3006 32.453 13.829 32.5693C12.69 32.8496 11.6418 31.6135 10.4869 31.7138C10.3626 31.725 10.3371 31.5227 10.4582 31.4972C11.4315 31.298 11.9859 31.8014 12.9067 31.9321C13.8083 32.0595 14.2623 31.3188 14.9011 30.8711C14.9027 30.8329 14.9075 30.7899 14.9139 30.7421C14.9426 30.5127 15.0859 30.3151 15.3392 30.3167C15.8665 30.3199 16.5149 29.9026 16.569 29.3402C16.6025 28.9866 16.9036 28.6998 17.2413 28.7412C17.2429 28.7158 17.2461 28.6903 17.2477 28.6648C17.1027 28.0801 17.5838 27.7743 18.0187 27.8061C18.1509 27.6134 18.2688 27.4174 18.3198 27.2103C18.4074 26.8535 18.8614 26.5843 19.2182 26.7101C19.1991 26.5795 19.2198 26.4409 19.2995 26.3151C19.4126 26.1382 19.5241 25.9614 19.6372 25.7846C19.7073 25.6731 19.7949 25.5998 19.8905 25.5504C19.9367 24.9674 20.3684 24.4719 20.6759 23.8204C20.7539 23.6531 20.9307 23.54 21.1203 23.4986C21.1601 23.3202 21.2 23.1418 21.2382 22.9633C21.2414 22.7626 21.2812 22.5746 21.3577 22.3883C21.4023 22.1636 21.4421 21.9406 21.474 21.7208C21.4771 21.6921 21.4867 21.665 21.4947 21.638C21.3991 21.5472 21.3417 21.4197 21.3609 21.2556C21.3672 21.2062 21.3768 21.1585 21.3847 21.1091L21.38 21.1091C21.3847 21.082 21.3927 21.0549 21.3975 21.0278C21.4373 20.7937 21.4915 20.5658 21.5536 20.338C21.6301 20.0338 21.7145 19.7311 21.8069 19.4284C21.8865 19.1226 21.9471 18.8119 21.9742 18.4933L21.9566 18.4917C21.8818 18.4774 21.7718 18.4615 21.6524 18.4376C20.9546 18.6001 20.2282 18.5124 19.5368 18.2703C19.5305 18.2894 19.5273 18.3101 19.5209 18.3292C19.4588 18.5555 19.1529 18.5889 19.0334 18.393C18.8072 18.0202 18.4408 17.9405 18.0521 17.9055C17.8036 17.982 17.5838 18.1126 17.3002 18.1237C16.8271 18.1429 16.3524 18.0951 15.8793 18.0775C14.8088 18.0361 13.6347 17.931 12.5753 18.119C12.4718 18.1365 12.2727 18.162 12.0799 18.2114C12.3268 18.6526 12.1006 19.1114 12.0146 19.5845C11.8967 20.2409 11.9015 20.7666 12.1325 21.4197C12.1452 21.4532 12.0895 21.4771 12.0751 21.4436C11.876 20.9928 11.2308 20.1198 10.9919 19.344C10.9297 19.3536 10.8692 19.3631 10.8071 19.3743C10.7912 19.4491 10.772 19.5145 10.7465 19.5559C10.4821 20.0067 9.89905 20.2488 9.46097 20.4814C9.01652 20.7172 8.85085 20.475 8.73615 20.7347C8.64375 20.9418 8.39364 20.9832 8.1993 20.953C8.14036 20.9498 8.08141 20.953 8.02247 20.953L8.02884 20.9944C8.07982 21.3639 7.83291 21.6252 7.45695 21.5663C7.34862 21.5487 7.22278 21.544 7.09215 21.5408C7.2626 22.3707 7.3996 23.2087 7.18932 24.0402C7.16224 24.1517 7.06507 24.2027 6.95993 24.2155C6.91214 24.2202 6.86275 24.2266 6.81337 24.233L6.79266 24.2298C6.76877 24.2633 6.73691 24.2999 6.69389 24.3461C6.70186 24.7826 6.72575 25.2127 6.79107 25.6587C6.80859 25.7766 6.76399 25.8802 6.64451 25.9184C6.49636 25.9789 6.34662 26.0395 6.19847 26.1C6.19528 27.3489 3.9523 26.5285 3.89654 28.077C3.89495 28.1056 3.86947 28.1279 3.84079 28.12C3.39155 28.1518 2.94233 28.1837 2.49309 28.2155C2.47558 28.2251 2.45964 28.198 2.47716 28.1885C2.76072 28.0228 3.08888 27.8316 3.43935 27.924C3.92522 28.0531 3.79141 27.5449 3.95708 27.3346C4.40632 26.7643 5.86552 26.8503 5.53099 25.928L5.53577 25.9296C5.44337 25.6285 5.86074 25.4134 6.06465 25.5982ZM40.133 17.0548C40.1458 17.0692 40.1553 17.0851 40.1601 17.1058L40.1904 17.1185C40.1776 17.0947 40.1649 17.0724 40.1521 17.0501L40.133 17.0548ZM35.859 7.80574C35.8733 7.8376 35.886 7.86946 35.9004 7.90132L35.902 7.89495C35.8908 7.86627 35.8781 7.836 35.8669 7.80574L35.8605 7.79937L35.859 7.80574ZM27.7186 36.4865L27.6915 36.4993L27.6788 36.5311L27.7106 36.5391C27.7122 36.5216 27.717 36.504 27.7186 36.4865ZM35.4607 11.5462L35.475 11.5318L35.4703 11.5286L35.4607 11.5462ZM21.8069 26.1621C21.9566 26.7898 22.1175 27.4222 22.6703 27.6675C22.8471 27.7456 23.0017 28.01 22.9778 28.2028C22.8981 28.8687 22.9602 29.4485 23.2422 29.9344C23.3442 30.0714 23.4477 30.2068 23.5528 30.339C23.7026 30.492 23.881 30.6338 24.0961 30.7612C24.2665 30.8616 24.4035 31.0798 24.3987 31.2901C25.1618 32.0436 26.03 32.6266 27.0671 32.9516C27.1483 32.8608 27.2407 32.778 27.3442 32.7079C27.4016 32.5549 27.4828 32.41 27.6007 32.2778C27.7027 32.1631 27.8237 32.093 27.9528 32.0531C27.9496 31.7584 28.1854 31.5577 28.4594 31.5099C28.4785 31.486 28.4976 31.4637 28.5183 31.4414C28.6441 30.9571 28.7668 30.4697 29.0743 30.0698C29.2814 29.8006 29.5601 29.6971 29.8166 29.721C29.8182 29.6142 29.8564 29.5123 29.9186 29.4231C29.8787 29.1666 29.9154 28.9101 30.1018 28.668C30.3789 28.3063 30.6721 28.241 30.8855 27.8141C31.1532 27.282 31.5594 26.6831 32.0453 26.1669C31.8859 25.7687 32.3097 25.2063 32.7669 25.3752C32.7924 25.3847 32.8147 25.3959 32.8402 25.4055C32.8434 25.3768 32.8434 25.3497 32.8497 25.3194C32.9533 24.8463 33.119 24.4241 33.3675 24.037C33.6494 23.5321 33.9776 23.0526 34.2181 22.5316C34.2468 22.3707 34.2787 22.2083 34.3105 22.0474C34.344 21.8753 34.4252 21.7463 34.5304 21.6555C34.6068 21.4898 34.7199 21.3767 34.8522 21.3082C34.8569 21.2732 34.8601 21.2381 34.8633 21.2031C34.8776 21.0071 34.8904 20.8112 34.8968 20.6152C34.9 20.526 34.9175 20.448 34.9414 20.3747C34.9302 20.3142 34.9223 20.252 34.9238 20.1851C34.9461 19.5049 35.2504 18.8486 35.389 18.1859C35.4065 18.103 35.4495 17.9198 35.5005 17.6889C35.475 17.598 35.4416 17.5136 35.3954 17.4372L35.3906 17.4244C35.3747 17.3989 35.3587 17.3718 35.3444 17.3416C34.9223 16.4447 34.8601 15.7278 35.1931 14.7752C35.2536 14.6 35.3699 14.4423 35.5164 14.3244C35.5499 14.173 35.6057 14.0249 35.6853 13.8768C35.6025 13.3909 35.5228 12.9034 35.448 12.4144C35.3157 12.2662 35.2472 12.0543 35.2998 11.817C35.3333 11.664 35.3587 11.5031 35.3779 11.3391L35.3492 11.3821C35.2966 11.4569 35.1883 11.3932 35.2265 11.3104C35.3938 10.9488 35.4145 10.5043 35.3428 10.1108C34.9939 9.96747 34.7805 9.74126 34.6737 9.4561C34.5702 9.66161 34.242 9.74285 34.0509 9.56762C33.9473 9.58196 33.8406 9.56762 33.7434 9.50868C33.5252 9.37645 33.3117 9.24742 33.1014 9.11042C32.923 9.21715 32.7462 9.32229 32.5805 9.40991C32.4802 9.50549 32.3607 9.58036 32.2253 9.63134C32.1408 9.76197 32.0277 9.8703 31.8955 9.95313C31.9083 10.0344 31.9019 10.1204 31.8652 10.2096C31.6741 10.67 31.3953 11.0013 31.0034 11.269C30.8314 11.7278 30.3471 12.04 29.8485 11.9699C29.968 12.4367 29.7242 12.862 29.3515 13.1264C28.6856 13.598 28.1169 14.0106 27.6214 14.6701C27.3219 15.0683 27.4589 15.4889 27.2184 15.8983C26.8966 16.4479 26.3645 16.7155 26.0889 17.3575C25.8946 17.8099 25.6843 18.0919 25.3115 18.4089C25.2781 18.4376 25.2431 18.4583 25.208 18.4806C25.1889 18.5841 25.1443 18.6861 25.0837 18.7689C25.0264 18.8852 24.9292 18.9744 24.7986 19.0095C24.7253 19.0827 24.6441 19.1465 24.5596 19.2038C24.6457 19.4396 24.6122 19.72 24.3892 19.9637C23.7679 20.6439 23.7233 21.716 23.4095 22.5476L23.3983 22.5715C23.3728 22.6463 23.3474 22.7196 23.3171 22.7929C23.3027 23.5687 22.9077 24.4194 22.3788 25.1936C22.2306 25.5472 22.0411 25.8754 21.8069 26.1621Z" fill="#FFC8AB"/>
</svg>
