<svg width="15" height="15" viewBox="0 0 15 15" fill="none" xmlns="http://www.w3.org/2000/svg">
<path d="M9.15207 7.50058L14.7604 1.89207C14.9146 1.73768 14.9998 1.5317 15 1.31207C15 1.09231 14.9149 0.886094 14.7604 0.731949L14.2689 0.24061C14.1144 0.0858543 13.9084 0.00109863 13.6885 0.00109863C13.469 0.00109863 13.263 0.0858543 13.1085 0.24061L7.50024 5.84875L1.89171 0.24061C1.73744 0.0858543 1.53134 0.00109863 1.31159 0.00109863C1.09207 0.00109863 0.885976 0.0858543 0.731707 0.24061L0.24 0.731949C-0.08 1.05195 -0.08 1.57243 0.24 1.89207L5.84841 7.50058L0.24 13.1088C0.0856098 13.2635 0.000609756 13.4694 0.000609756 13.6891C0.000609756 13.9087 0.0856098 14.1147 0.24 14.2692L0.731585 14.7605C0.885854 14.9152 1.09207 15.0001 1.31146 15.0001C1.53122 15.0001 1.73732 14.9152 1.89159 14.7605L7.50012 9.15228L13.1084 14.7605C13.2629 14.9152 13.4689 15.0001 13.6884 15.0001H13.6887C13.9083 15.0001 14.1143 14.9152 14.2688 14.7605L14.7602 14.2692C14.9145 14.1148 14.9996 13.9087 14.9996 13.6891C14.9996 13.4694 14.9145 13.2635 14.7602 13.109L9.15207 7.50058Z" fill="#FDB054"/>
</svg>
