<svg width="40" height="40" viewBox="0 0 40 40" fill="none" xmlns="http://www.w3.org/2000/svg">
<path fill-rule="evenodd" clip-rule="evenodd" d="M20 40C31.0457 40 40 31.0457 40 20C40 8.9543 31.0457 0 20 0C8.9543 0 0 8.9543 0 20C0 31.0457 8.9543 40 20 40ZM14.8721 19.9952C14.8721 17.1619 17.1679 14.8635 20.0037 14.8635C22.8371 14.8635 25.1354 17.1594 25.1354 19.9952C25.1354 22.8285 22.8396 25.1269 20.0037 25.1269C17.1704 25.1269 14.8721 22.831 14.8721 19.9952ZM16.6729 19.9952C16.6729 21.8352 18.1629 23.326 20.0037 23.326C21.8446 23.326 23.3354 21.8352 23.3346 19.9952C23.3346 18.1552 21.8437 16.6644 20.0037 16.6644C18.1637 16.6644 16.6729 18.1552 16.6729 19.9952ZM24.1235 10.0628C22.2835 9.97699 17.726 9.98116 15.8844 10.0628C14.266 10.1387 12.8385 10.5295 11.6877 11.6803C9.9666 13.4014 9.98247 15.6577 10.0048 18.8366C10.0075 19.2102 10.0102 19.5965 10.0102 19.9962C10.0102 20.3701 10.0082 20.7315 10.0063 21.0809L10.0062 21.0813C9.98804 24.3671 9.97566 26.6 11.6877 28.312C13.4119 30.0355 15.6931 30.0185 18.8361 29.9952C19.2127 29.9924 19.6017 29.9895 20.0035 29.9895H20.0578C23.8694 29.9895 25.1933 29.9895 26.5494 29.4645C28.4019 28.7453 29.8002 27.0895 29.9369 24.1153C30.0235 22.2745 30.0185 17.7178 29.9369 15.8762C29.7719 12.3653 27.8877 10.2362 24.1235 10.0628ZM27.036 27.0395C25.8749 28.2007 24.2995 28.197 20.8969 28.1892C20.6048 28.1885 20.2993 28.1878 19.9794 28.1878L19.407 28.1881C15.6563 28.1908 14.0844 28.1919 12.9227 27.027C11.7141 25.8241 11.7341 23.994 11.7631 21.3378V21.3377C11.7678 20.908 11.7727 20.4566 11.7727 19.9828C11.7727 19.581 11.7691 19.189 11.7656 18.808C11.729 14.8233 11.7035 12.0422 15.921 11.8262L15.9688 11.8245C16.9927 11.7883 17.3357 11.7762 19.9677 11.7762L20.0052 11.8012C20.3857 11.8012 20.7592 11.7977 21.1242 11.7944C25.0191 11.7588 27.9481 11.732 28.1394 15.9562C28.1869 17.0103 28.1977 17.327 28.1977 19.9953C28.1976 20.2353 28.1979 20.4669 28.1981 20.6907C28.2015 24.308 28.203 25.867 27.036 27.0395ZM26.538 14.6611C26.538 15.3234 26.0011 15.8602 25.3388 15.8602C24.6765 15.8602 24.1396 15.3234 24.1396 14.6611C24.1396 13.9988 24.6765 13.4619 25.3388 13.4619C26.0011 13.4619 26.538 13.9988 26.538 14.6611Z" fill="#FFEDC0"/>
</svg>
