<svg width="40" height="40" viewBox="0 0 40 40" fill="none" xmlns="http://www.w3.org/2000/svg">
<path fill-rule="evenodd" clip-rule="evenodd" d="M39.025 20.1412C39.0254 20.0942 39.0255 20.0471 39.0255 20C39.0255 19.9529 39.0254 19.9058 39.025 19.8588V20.1412ZM39.0244 19.7857C38.913 8.90929 30.332 0.113932 19.7208 0C19.9857 8.85686 20.2088 12.8997 23.275 16.1426C26.4388 19.2856 30.3832 19.5 39.0244 19.7857ZM19.3026 1.02755e-05C8.69188 0.114459 0.111411 8.9096 0 19.7857C8.64051 19.5142 12.5847 19.2855 15.7485 16.1426C18.8147 12.8997 19.0239 8.85687 19.3026 1.02755e-05ZM39.0244 20.2143C30.3832 20.4858 26.4388 20.7144 23.275 23.8574C20.2088 27.1003 19.9996 31.1431 19.7208 40C30.332 39.8861 38.913 31.0907 39.0244 20.2143ZM19.3026 40C19.0379 31.1431 18.8147 27.1003 15.7485 23.8574C12.5847 20.7145 8.64051 20.5001 2.6662e-08 20.2144C0.111413 31.0904 8.69188 39.8855 19.3026 40Z" fill="#FFEDC0"/>
</svg>
