<svg width="186" height="155" viewBox="0 0 186 155" fill="none" xmlns="http://www.w3.org/2000/svg">
<path d="M176.015 0H9.9854C4.47061 0 0 4.47715 0 10V145C0 150.523 4.47061 155 9.9854 155H176.015C181.529 155 186 150.523 186 145V10C186 4.47715 181.529 0 176.015 0Z" fill="#FFD5A8"/>
<path d="M149.963 52.8853L122.329 25.2073C121.009 23.8833 119.248 23.1532 117.375 23.1532C115.898 23.1532 114.462 23.6219 113.272 24.4828L112.506 24.9197L76.949 29.8102C76.1347 29.8404 75.3458 29.9695 74.5918 30.1832L73.344 29.0102C73.2928 28.9621 73.2404 28.9148 73.1871 28.8691C71.9183 27.7775 70.298 27.1765 68.624 27.1765C66.7514 27.1765 64.9912 27.9066 63.6688 29.2326L36.0385 56.907C33.5681 59.383 33.3118 63.3403 35.4407 66.1131C35.5141 66.208 35.5908 66.301 35.6707 66.3904L47.5268 79.6261C47.9109 81.227 48.4377 82.8768 49.0959 84.5674C46.2203 88.031 46.4014 93.1936 49.6461 96.4395C49.6516 96.445 49.6572 96.4502 49.6628 96.4557L49.7013 96.4939C51.3296 98.1162 53.4803 99.0196 55.772 99.0601C55.7295 99.4148 55.7001 99.7719 55.7001 100.135C55.7001 102.487 56.6145 104.699 58.2754 106.366L58.3108 106.402C58.3163 106.407 58.3215 106.413 58.3271 106.418C59.9943 108.085 62.2109 109.004 64.5689 109.004C64.8422 109.004 65.1124 108.989 65.3813 108.965C65.4075 108.994 65.4357 109.024 65.4623 109.054C65.4576 109.174 65.4449 109.292 65.4449 109.412C65.4449 111.766 66.3597 113.978 68.021 115.644L68.0575 115.682C68.0627 115.687 68.0675 115.691 68.0726 115.697C69.7395 117.363 71.9561 118.282 74.3141 118.282C74.3201 118.282 74.3256 118.281 74.3316 118.281L75.173 119.122C75.2707 121.33 76.1665 123.394 77.7395 124.967C77.7495 124.976 77.7598 124.987 77.7697 124.997L77.8003 125.027C79.3702 126.588 81.4264 127.477 83.6251 127.574L85.951 129.9C87.851 131.8 90.383 132.847 93.0803 132.847C96.1844 132.847 99.0691 131.451 100.995 129.018C102.042 127.695 102.701 126.177 102.982 124.604L104.443 126.065C106.372 127.995 109.037 129.102 111.754 129.102C113.998 129.102 116.192 128.343 117.933 126.964C119.868 125.434 121.165 123.253 121.6 120.852C123.465 122.448 125.877 123.351 128.33 123.351C130.573 123.351 132.768 122.592 134.509 121.214C136.765 119.428 138.155 116.757 138.321 113.887C138.476 111.219 137.568 108.606 135.817 106.623C137.437 106.337 138.972 105.657 140.26 104.638C142.516 102.852 143.906 100.181 144.072 97.311C144.239 94.4354 143.171 91.6225 141.142 89.5938L137.395 85.8466C137.532 85.7107 137.663 85.5685 137.783 85.4152C144.8 76.474 148.578 69.8222 149.972 63.937C150.081 63.7447 150.177 63.5445 150.259 63.338L151.033 61.3883C152.631 58.6807 152.23 55.1575 149.963 52.8853ZM55.9305 94.3011C54.8917 94.3011 53.8533 93.9046 53.06 93.1122L53.0171 93.0696C51.4325 91.4846 51.4325 88.9141 53.0171 87.3295L56.1927 84.1539C56.9852 83.361 58.0236 82.9646 59.0627 82.9646C60.1019 82.9646 61.1407 83.361 61.934 84.1539L61.9757 84.1964C63.5615 85.7814 63.5615 88.352 61.9757 89.937L58.801 93.1122C58.0081 93.9043 56.9693 94.3011 55.9305 94.3011ZM67.4398 103.048C66.6469 103.841 65.6081 104.237 64.5689 104.237C63.5301 104.237 62.4914 103.841 61.6981 103.048L61.656 103.005C60.0706 101.42 60.0706 98.8499 61.656 97.2645L69.1686 89.7519C69.9619 88.959 71.0007 88.5625 72.0399 88.5625C73.0791 88.5625 74.1179 88.959 74.9108 89.7519L74.9533 89.794C76.5383 91.3794 76.5383 93.9499 74.9533 95.5345L67.4398 103.048ZM77.1842 112.326C76.3921 113.118 75.3533 113.514 74.3141 113.514C73.2749 113.514 72.2361 113.118 71.4436 112.326L71.4007 112.283C69.8153 110.698 69.8153 108.127 71.4007 106.542L76.2626 101.679C77.0555 100.887 78.0939 100.491 79.1331 100.491C80.1719 100.491 81.2107 100.887 82.004 101.679L82.0469 101.722C83.6315 103.307 83.6315 105.878 82.0469 107.463L77.1842 112.326ZM84.0231 122.826C82.9844 122.826 81.946 122.43 81.1531 121.637L81.1102 121.595C79.5244 120.01 79.5244 117.439 81.1102 115.854L83.3216 113.642C84.1145 112.85 85.1533 112.454 86.1925 112.454C87.2313 112.454 88.2705 112.85 89.0634 113.642L89.1059 113.685C90.6905 115.271 90.6905 117.841 89.1059 119.426L86.894 121.637C86.1007 122.43 85.0619 122.826 84.0231 122.826ZM97.2577 126.06C96.1915 127.407 94.6363 128.08 93.0807 128.08C91.7182 128.08 90.3556 127.563 89.322 126.53L88.9112 126.119C89.3927 125.797 89.8459 125.427 90.2642 125.008L92.4753 122.797C94.0325 121.24 94.8774 119.24 95.0252 117.198L96.7254 118.898C98.652 120.824 98.9484 123.924 97.2577 126.06ZM137.772 92.964C139.986 95.1774 139.829 98.8992 137.302 100.9C136.355 101.649 135.22 102.008 134.081 102.008C132.65 102.008 131.213 101.44 130.14 100.367L110.867 81.0939C110.366 80.5934 109.711 80.3432 109.055 80.3432C108.4 80.3432 107.743 80.5934 107.243 81.0939C106.23 82.1069 106.23 83.7495 107.243 84.7621L132.021 109.54C134.234 111.753 134.077 115.475 131.551 117.475C130.604 118.224 129.469 118.583 128.33 118.583C126.898 118.583 125.462 118.016 124.389 116.943L99.7278 92.2819C99.2209 91.775 98.5563 91.5212 97.8913 91.5212C97.2267 91.5212 96.5621 91.775 96.0549 92.2819C95.0554 93.2814 95.0554 94.9017 96.0549 95.9008L115.445 115.291C117.658 117.504 117.502 121.226 114.975 123.226C114.028 123.975 112.893 124.334 111.754 124.334C110.323 124.334 108.886 123.767 107.813 122.694L87.7763 102.656C87.4235 101.078 86.643 99.5765 85.4175 98.3506L85.3742 98.3073C83.991 96.9249 82.2284 96.0672 80.324 95.8118C80.7026 94.8191 80.9088 93.7585 80.9088 92.6641C80.9088 90.3068 79.9907 88.0898 78.3239 86.423C78.3191 86.4182 78.3144 86.4134 78.3096 86.4087L78.2723 86.3717C76.6062 84.7097 74.3928 83.7948 72.0395 83.7948C70.4803 83.7948 68.9867 84.204 67.6694 84.9583C67.2924 83.4158 66.5123 81.9969 65.3638 80.8429L65.3352 80.8139C65.3249 80.8036 65.3146 80.7928 65.3042 80.7825C63.637 79.1153 61.4204 78.1968 59.0623 78.1968C56.7039 78.1968 54.4873 79.1157 52.8205 80.7837L52.8066 80.7976C52.4987 79.8395 52.2373 78.89 52.0335 77.9529C51.9616 77.6252 51.8238 77.317 51.6192 77.0508L39.2216 63.2096C38.54 62.3222 38.621 61.0669 39.4111 60.2748L67.0442 32.5985C67.4783 32.1631 68.05 31.9434 68.6244 31.9434C69.1412 31.9434 69.6588 32.1218 70.0787 32.4829L70.2976 32.6882C68.4472 34.5088 67.2964 37.0381 67.2964 39.8323C67.2964 45.3512 71.7761 49.8424 77.2903 49.8619L94.8933 50.0851L137.772 92.964ZM146.778 59.1864L145.828 61.5794C145.623 61.8455 145.485 62.1534 145.414 62.4815C144.071 68.6431 139.338 75.7117 134.033 82.4716C127.284 75.7224 96.9197 45.3432 96.9197 45.3432L77.326 45.0945C74.4317 45.0945 72.0633 42.7262 72.0633 39.8319C72.0633 36.9375 74.4317 34.5696 77.326 34.5696L114.064 29.5166C114.068 29.5162 114.072 29.5143 114.075 29.5119L115.92 28.4592C116.34 28.0981 116.858 27.9197 117.375 27.9197C117.948 27.9197 118.521 28.1398 118.955 28.5748L146.588 56.2511C147.378 57.0436 147.459 58.2989 146.778 59.1864Z" fill="#FB7542"/>
</svg>
