<?xml version="1.0" standalone="no"?>
<!DOCTYPE svg PUBLIC "-//W3C//DTD SVG 1.1//EN" "http://www.w3.org/Graphics/SVG/1.1/DTD/svg11.dtd" >
<svg>
<metadata>
Created by FontForge 20120731 at Fri May  8 04:48:13 2020
 By ffonts
</metadata>
<defs>
<font id="Icegirl-Regular" horiz-adv-x="250" >
  <font-face 
    font-family="Icegirl"
    font-weight="400"
    font-stretch="normal"
    units-per-em="1000"
    panose-1="2 0 5 3 0 0 0 0 0 0"
    ascent="800"
    descent="-200"
    x-height="472"
    cap-height="656"
    bbox="33 -61 591 690"
    underline-thickness="50"
    underline-position="-100"
    unicode-range="U+000D-0323"
  />
<missing-glyph horiz-adv-x="364" 
d="M33 0v666h265v-666h-265zM66 33h199v600h-199v-600z" />
    <glyph glyph-name=".notdef" horiz-adv-x="364" 
d="M33 0v666h265v-666h-265zM66 33h199v600h-199v-600z" />
    <glyph glyph-name=".null" 
 />
    <glyph glyph-name=".null" 
 />
    <glyph glyph-name="nonmarkingreturn" horiz-adv-x="333" 
 />
    <glyph glyph-name="CR" unicode="&#xd;" 
 />
    <glyph glyph-name="space" unicode=" " 
 />
    <glyph glyph-name="exclam" unicode="!" horiz-adv-x="218" 
d="M78 204q10 5 25 5t36 -7q8 -3 9.5 -8t1.5 -27q0 -31 4 -33q3 -2 3 -8q0 -21 -10 -31q-17 -20 -46 -20q-13 0 -24 6q-27 14 -27 61q0 48 28 62zM86 639q10 7 26 7q19 0 32 -10q17 -11 20.5 -39t3.5 -151q0 -127 -3.5 -153.5t-23.5 -38.5q-14 -8 -28 -8q-13 0 -26 6
q-21 10 -24.5 35.5t-3.5 158.5v33q0 106 3.5 127t23.5 33z" />
    <glyph glyph-name="plus" unicode="+" horiz-adv-x="510" 
d="M230 554q10 5 21 5q24 0 41 -17l14 -14q0 -20 1 -60.5t1 -60.5l21 -3q33 -3 52 -3q40 0 62 -19q13 -12 13 -33q0 -29 -22 -45q-11 -9 -40 -9h-30l-56 1v-62q0 -52 -5 -70t-21 -28q-13 -8 -29 -8t-29 8q-16 10 -21 28.5t-5 71.5v63l-54 2q-54 3 -65 10q-25 16 -25 46
q0 15 8 28q11 16 25 20.5t57 4.5h54l1 56q1 46 6.5 62t24.5 26z" />
    <glyph glyph-name="comma" unicode="," horiz-adv-x="249" 
d="M90 176q0 25 15.5 41.5t40.5 16.5q18 0 35 -15q15 -24 16 -34v-13q-1 -104 -48 -148q-13 -12 -20 -15t-22 -3q-22 0 -37 15t-15 37q0 21 11 35q8 10 16 37t8 46z" />
    <glyph glyph-name="hyphen" unicode="-" horiz-adv-x="354" 
d="M72 342l14 11h182l14 -11q20 -17 20 -42t-20 -42l-14 -11h-182l-14 11q-20 17 -20 41q0 26 20 43z" />
    <glyph glyph-name="period" unicode="." horiz-adv-x="259" 
d="M117 211q8 3 25 3h3q27 0 44 -16t17 -38q0 -27 -26 -44q-16 -10 -51 -10q-54 0 -69 23q-6 9 -6 20q0 18 17 35.5t46 26.5z" />
    <glyph glyph-name="zero" unicode="0" horiz-adv-x="479" 
d="M286 517q-10 7 -28 9q-4 1 -11 1q-50 0 -74 -86q-8 -28 -8 -82q0 -104 22 -128q7 -7 25 -13t33 -6q2 0 4 0.5t3 0.5q55 11 66 128q1 7 1 22q0 45 -10.5 94.5t-22.5 59.5zM181 624q22 9 46 9q15 0 25 -1q40 -2 63 -9.5t44 -26.5q40 -35 60 -110q8 -32 8 -90q0 -68 -9 -105
q-32 -140 -120 -182q-31 -14 -66 -14q-34 0 -56 9t-46 34q-78 81 -78 241q0 94 33.5 157.5t95.5 87.5z" />
    <glyph glyph-name="one" unicode="1" horiz-adv-x="342" 
d="M125 568q79 30 110 30t43 -19q15 -23 15 -81q0 -3 -0.5 -8.5t-0.5 -7.5t-3.5 -46.5t-5.5 -74.5q-5 -84 -9 -173q-2 -69 -8 -88t-27 -28q-8 -4 -19 -4q-23 0 -42 22l-12 13l3 134q0 26 6 184l3 52l-17 -7q-37 -17 -59 -17q-19 0 -35 16q-13 13 -13 36q0 25 13.5 37.5
t57.5 29.5z" />
    <glyph glyph-name="two" unicode="2" horiz-adv-x="510" 
d="M218 618q5 1 18 1q46 0 75 -11q42 -17 66 -58q20 -34 20 -81q0 -116 -102 -227q-17 -19 -15 -21h2q4 0 64 6q47 5 55 5q13 0 24 -6q29 -16 29 -46q0 -16 -9 -29q-9 -14 -21 -19.5t-44 -8.5q-28 -3 -101 -11q-54 -6 -94 -6q-57 0 -81 12q-34 16 -34 47q0 6 1 9q2 11 15 26
t57 56q107 104 135 162q15 30 15 51q0 29 -29 38q-9 3 -20 3q-44 0 -98 -38q-18 -14 -41 -14q-39 0 -48 37q-3 9 -3 18q0 20 17.5 37t59.5 38q43 21 87 30z" />
    <glyph glyph-name="three" unicode="3" horiz-adv-x="475" 
d="M203 646q27 10 54 10q43 0 75 -27q37 -32 41 -98v-14q0 -75 -43 -128l-12 -16l20 -9q59 -30 76 -65q8 -16 8 -33q0 -48 -55 -100q-30 -27 -75 -43.5t-88 -16.5q-16 0 -31 3q-97 17 -103 94q-1 7 -1 17q0 14 10 25q16 20 42 20q35 0 50 -35q5 -13 22 -16q5 -1 15 -1
q53 0 89 36l12 13l-21 11q-23 11 -38 16q-38 12 -70 35.5t-34 40.5v7q0 18 10 29.5t39 25.5q55 28 72 76q4 12 4 23q0 21 -20 21q-13 0 -31 -9t-80 -59q-11 -8 -31 -8q-17 0 -29 6q-25 13 -25 48q0 13 6 24q10 19 58.5 52t83.5 45z" />
    <glyph glyph-name="four" unicode="4" horiz-adv-x="495" 
d="M275 407q0 57 -2 57q-1 0 -32.5 -42.5t-42.5 -59.5l-7 -12h84v57zM301 630q5 4 20 4q20 0 32 -6q18 -9 22.5 -29t4.5 -93q0 -86 2 -122q2 -24 4 -29t10 -5q13 0 29 -18t16 -32q0 -45 -45 -56l-12 -3v-51q0 -43 -5 -60t-21 -26q-11 -7 -26 -7q-16 0 -30.5 9t-20.5 24
t-6 62v48l-65 2q-76 3 -107.5 12t-42.5 31q-6 11 -6 25q0 70 160 255q25 27 27 35q2 7 17 16t26 9q10 0 17 5z" />
    <glyph glyph-name="five" unicode="5" horiz-adv-x="440" 
d="M107 623q13 7 112 7q98 0 113 -8q29 -15 29 -47q0 -16 -9 -31q-10 -15 -29 -19t-76 -4h-69l3 -40q2 -40 4 -42h1q1 0 33 6q20 5 46 5q59 0 90 -39t32 -113q0 -42 -13 -70q-24 -52 -79.5 -85t-114.5 -33q-27 0 -48 7q-35 10 -57 41.5t-22 71.5q0 23 12 36q15 18 38 18
q8 0 13 -1q13 -2 25.5 -13.5t14.5 -23.5q4 -19 9 -25t16 -6q17 0 40 12.5t39 31.5q23 24 23 45q0 19 -17 37q-7 9 -17 9q-11 0 -44 -13q-40 -14 -61 -14q-16 0 -27 9q-31 30 -42 170q-2 17 -2 44q0 60 34 77z" />
    <glyph glyph-name="six" unicode="6" horiz-adv-x="455" 
d="M267 320q-30 15 -63 15q-28 0 -40 -12q-2 -2 -2 -7q0 -22 21 -45q13 -14 32.5 -26.5t28.5 -12.5q12 0 25 11t21 29q7 18 7 22q0 12 -30 26zM266 658q12 6 24 6q19 0 35 -12.5t20 -31.5q0 -2 0.5 -5t0.5 -4q0 -26 -28 -48q-30 -24 -71 -65t-41 -48q0 -1 32 -6t74.5 -20
t61.5 -41q28 -36 28 -82v-14q-2 -41 -17 -68q-29 -56 -80 -81q-24 -12 -61 -12q-53 0 -108 43q-83 65 -83 167q0 83 57 167q28 43 77 91t79 64z" />
    <glyph glyph-name="seven" unicode="7" horiz-adv-x="455" 
d="M83 614q11 6 79 6h57q99 -1 126 -5.5t43 -20.5q12 -12 12 -24q0 -2 -0.5 -6.5t-0.5 -7.5q-2 -33 -37 -92.5t-127 -186.5q-57 -78 -57 -87q2 -24 -14.5 -40t-38.5 -16q-29 0 -44 25q-8 12 -8 27q0 11 1 18q2 40 23.5 77.5t88.5 119.5q86 105 86 116q0 1 -8 1q-10 0 -78 -2
q-58 -2 -65 -2q-25 0 -35.5 3.5t-19.5 14.5q-11 11 -11 34q0 33 28 48z" />
    <glyph glyph-name="eight" unicode="8" horiz-adv-x="424" 
d="M235 283q-41 51 -52 51q-2 0 -2 -1q-5 -7 -15.5 -37t-13.5 -44q-2 -10 -2 -15q0 -33 41 -33q15 0 23 2q51 9 51 26q0 13 -30 51zM212 496q-6 15 -12 15q-3 0 -9 -6q-6 -7 9 -21q11 -9 14 -9t3 4t-5 17zM176 612q7 1 20 1q48 0 83 -26q25 -19 42 -51q15 -28 15 -74
q0 -47 -16 -78q-3 -6 -3 -10q0 -9 17 -36q36 -62 36 -106q0 -26 -10 -46q-19 -42 -66.5 -67t-103.5 -25h-14q-59 3 -89 37q-35 41 -35 102q0 51 22 120q11 36 25 54q11 13 6 21q-31 44 -31 78q0 18 7 32q28 65 95 74z" />
    <glyph glyph-name="nine" unicode="9" horiz-adv-x="452" 
d="M249 507q-8 4 -18 4q-31 0 -49 -34q-8 -16 -8 -22q0 -7 11 -16l11 -10l46 7q26 4 34.5 6.5t8.5 8.5t-9 24q-12 24 -27 32zM225 620q16 2 24 2q125 0 148 -230q3 -27 3 -52q0 -89 -31.5 -153.5t-89.5 -92.5q-25 -12 -62 -12q-38 0 -66 14q-51 24 -82 87q-17 37 -17 59
q0 16 9 30q15 23 44 23q22 0 37 -16q7 -7 16 -29q21 -61 58 -61q24 0 44 26q24 30 30 91l3 28l-13 -3q-26 -6 -86 -6q-20 0 -26 1q-20 3 -54.5 28t-43.5 43t-9 41q0 30 16 64q21 43 64.5 78t83.5 40z" />
    <glyph glyph-name="colon" unicode=":" horiz-adv-x="219" 
d="M73 247q10 7 29 7q21 0 33 -9q12 -10 21.5 -29.5t9.5 -34.5q0 -23 -16 -37t-36 -14q-4 0 -14 2q-27 5 -41 37q-8 19 -8 34q0 28 22 44zM70 514q10 10 16 12.5t21 2.5t21 -2.5t16 -12.5q11 -11 13 -17.5t2 -30.5q0 -33 -7 -46q-6 -10 -19.5 -18t-25.5 -8t-25.5 8t-19.5 18
q-7 13 -7 46q0 24 2 30.5t13 17.5z" />
    <glyph glyph-name="semicolon" unicode=";" horiz-adv-x="260" 
d="M115 238q12 7 30 7q19 0 30 -7q23 -16 23 -45q0 -11 -10.5 -34t-23.5 -39q-8 -11 -25 -19t-31 -8q-23 0 -38.5 16.5t-15.5 41.5q0 17 17 35q17 19 24 31q8 14 20 21zM99 509q16 7 39 7q24 0 40 -7q28 -14 28 -46q0 -15 -8 -29q-16 -27 -59 -27q-30 0 -48.5 15.5
t-18.5 39.5q0 12 6 26q4 11 21 21z" />
    <glyph glyph-name="equal" unicode="=" horiz-adv-x="447" 
d="M75 356q10 7 26 7q4 0 30 -2q104 -7 128 -7q11 0 25 2q30 5 44 5q23 0 36 -13q16 -16 16 -36q0 -14 -5 -24q-7 -17 -18 -24q-29 -19 -100 -19q-46 0 -110 7.5t-73 13.5q-8 5 -16 20t-8 25q0 12 7.5 25.5t17.5 19.5zM95 496q10 2 131 2q104 0 126 -3.5t34 -22.5
q9 -15 9 -30q0 -32 -29 -46q-13 -6 -142 -6q-93 0 -113 1t-30 7q-25 15 -25 46q0 6 1 9q2 13 14.5 27t23.5 16z" />
    <glyph glyph-name="question" unicode="?" horiz-adv-x="371" 
d="M112 159q12 8 34 8q42 0 66 -24q14 -14 14 -32q0 -17 -10 -28q-24 -29 -73 -29q-18 0 -30 6q-26 14 -26 48q0 35 25 51zM139 639q26 8 53 8q42 0 69 -15q57 -31 57 -104q0 -2 -0.5 -7t-0.5 -7q-6 -77 -81 -160l-24 -26l-2 -50q-2 -44 -9 -60t-26 -23q-12 -5 -21 -5
q-19 0 -36 17t-17 54q0 8 2 42q4 45 14 71.5t33 49.5q59 62 59 98q0 20 -16 20q-14 0 -44 -15t-42 -15q-10 0 -22 6q-29 12 -29 45q0 28 18 44t65 32z" />
    <glyph glyph-name="at" unicode="@" horiz-adv-x="636" 
d="M317 391q-4 2 -13 2q-11 0 -20 -5.5t-9 -12.5q0 -8 11.5 -23t15.5 -15q7 0 17 38q4 14 -2 16zM184 440q0 2 -2 2t-2 -2t2 -2t2 2zM458 459q-19 38 -55.5 65.5t-81.5 29.5h-14q-20 0 -22 -1q-33 -12 -56 -34q-10 -9 -27.5 -36.5t-17.5 -33.5q0 -1 4.5 2.5t13.5 11.5
q20 19 44 26t69 7q36 0 48 -2.5t37 -14.5q31 -15 38.5 -29.5t10.5 -63.5l3 -46l9 17q9 18 9 44q0 33 -12 58zM264 658q28 6 46 6t41 -4q76 -11 136.5 -59t84.5 -115q10 -27 10 -71q0 -30 -6 -54q-19 -71 -81 -130q-37 -34 -67 -34t-50 33l-11 19l-18 -11q-23 -15 -54 -15
q-19 0 -32 6q-34 15 -60.5 54.5t-30.5 84.5l-3 32l-6 -42q-4 -28 -4 -56q0 -74 45 -96q21 -10 56 -10h27h28q35 0 47 -7q23 -14 23 -43q0 -2 -0.5 -5t-0.5 -5q-2 -26 -22 -36.5t-65 -10.5q-24 0 -38 1q-73 5 -115 25.5t-68 65.5q-25 41 -25 125q0 114 43 208q55 118 170 144
z" />
    <glyph glyph-name="A" unicode="A" horiz-adv-x="546" 
d="M310 400q0 1 -10 28t-11 27q-3 0 -16 -31l-14 -30h27q25 1 24 6zM270 649q13 7 29 7q29 0 42 -19q10 -13 18.5 -30.5t8.5 -24.5q0 -13 19 -75t41 -116q59 -152 64 -195v-7q0 -22 -16 -36.5t-37 -14.5q-20 0 -35 15q-11 10 -22 49q-23 85 -34 85h-1q-6 -2 -73 -2h-67
l-20 -43q-6 -12 -16.5 -34.5t-12.5 -28.5q-16 -36 -53 -36q-19 0 -33 12t-17 33v7q0 18 31 87q56 123 121 257q49 102 63 110z" />
    <glyph glyph-name="B" unicode="B" horiz-adv-x="491" 
d="M321 285q-15 9 -60 17.5t-78 8.5h-23v-18q0 -19 16 -34q29 -26 56 -26q2 0 5 0.5t5 0.5q26 4 54 20t28 26q0 4 -3 5zM261 504q-7 7 -17 7q-19 0 -50 -28q-17 -15 -24 -15q-8 0 3 -11q10 -10 22 -10q9 0 16 1q31 3 43 13q15 12 15 26q0 9 -8 17zM78 630q14 8 29 8
q16 0 27 -7q13 -7 13 -10q0 -1 7 -12l8 -10l30 14q29 14 60 14q44 0 73 -32q24 -25 35 -69q5 -16 5 -47q0 -21 -9 -52t-9 -36q0 -6 27 -19q65 -30 65 -85q0 -10 -1 -16q-5 -44 -52 -86.5t-103 -52.5q-18 -3 -47 -3q-40 0 -58 5q-10 4 -14 -8q-12 -29 -47 -29q-29 0 -45 22
q-9 12 -15.5 105t-6.5 210v23q1 111 5 136t23 37z" />
    <glyph glyph-name="C" unicode="C" horiz-adv-x="538" 
d="M117 524q69 92 199 92q25 0 63 -5.5t48 -10.5q27 -16 27 -49q0 -22 -13 -36q-12 -13 -26 -13q-12 0 -21 1q-48 3 -74 3q-46 0 -72 -13q-47 -24 -70 -69q-19 -35 -19 -86q0 -69 32 -99q7 -6 9 -5l4 -1q3 -1 9.5 -3t13.5 -5q34 -14 88 -14q39 0 74 7q30 6 45 6q19 0 33 -14
q17 -16 17 -37q0 -23 -19 -40q-15 -13 -58 -20q-48 -9 -103 -9q-31 0 -56 3q-93 8 -144 66.5t-51 155.5q0 3 0.5 10t0.5 11q4 94 63 174z" />
    <glyph glyph-name="D" unicode="D" horiz-adv-x="494" 
d="M304 498q-13 7 -32 7q-35 0 -90 -29l-21 -12v-91q0 -90 6 -92q3 -1 27 -20q36 -29 55 -29q10 0 27 10q32 22 50 67.5t18 93.5q0 75 -40 95zM74 652q14 8 30 8q19 0 34 -14q16 -13 18 -37l2 -23l16 7q57 25 113 25q34 0 57 -10q31 -14 55.5 -47t36.5 -77q8 -30 8 -78
q0 -60 -11 -102q-15 -61 -45.5 -107t-67.5 -64q-25 -12 -62 -12t-67 14q-20 10 -26 10q-3 0 -3 -2q0 -5 -14 -19t-33 -14q-34 0 -49 23q-5 9 -7 50t-6 225q-3 105 -3 153q0 54 4.5 68t19.5 23z" />
    <glyph glyph-name="E" unicode="E" horiz-adv-x="397" 
d="M58 640q17 20 41 20q15 0 52 -8q39 -9 92 -9q46 0 64 -5t28 -19q10 -17 10 -31q0 -32 -29 -47q-12 -7 -53 -7h-33l-71 2v-38q0 -33 3 -45q2 -7 60 -7q53 0 69.5 -3t28.5 -15q16 -16 16 -38q0 -28 -25 -44q-15 -9 -81 -9h-67v-108l74 -2q61 -1 77 -6t26 -26q7 -13 7 -24
q0 -13 -10 -26q-13 -19 -31.5 -22.5t-102.5 -3.5q-102 0 -116 7q-19 9 -23.5 33.5t-6.5 144.5q-1 46 -3.5 134t-2.5 100q-2 62 -2 65q0 25 9 37z" />
    <glyph glyph-name="F" unicode="F" horiz-adv-x="397" 
d="M86 648q12 8 42 8q25 0 44 -1q70 -2 111 -14q36 -10 48.5 -20.5t14.5 -33.5q0 -3 0.5 -7t0.5 -5q0 -11 -13 -25q-16 -19 -40 -19q-15 0 -42 6q-32 8 -65 12l-28 3v-141h70q59 0 78.5 -5t30.5 -22q9 -15 9 -30q0 -30 -29 -45q-15 -7 -86 -7h-73v-115q0 -113 -8 -129
q-7 -12 -21 -21.5t-27 -9.5q-27 0 -44 28q-6 11 -7.5 51.5t-1.5 225.5v263l11 22q11 22 25 31z" />
    <glyph glyph-name="G" unicode="G" horiz-adv-x="541" 
d="M244 610q14 6 22 6q9 0 24 -6q17 -6 77 -13q54 -7 70.5 -15t23.5 -30q3 -11 3 -17q0 -8 -4 -16q-15 -35 -54 -35q-6 0 -20 2q-8 1 -34 4t-38 4l-45 5l-28 -18q-19 -12 -25 -20t-17 -31q-31 -68 -38 -109q-2 -12 -2 -21q0 -50 18 -81q28 -49 71 -49q37 0 86 37
q16 13 31.5 32t15.5 27q0 1 -1 2q-4 4 -50 6q-74 3 -97 23q-17 15 -17 39q0 18 9 34q10 19 41 19q2 0 5 -0.5t4 -0.5q3 0 28.5 -3.5t42.5 -5.5q59 -7 81.5 -15t39.5 -26q22 -23 22 -63q0 -52 -33 -108q-59 -99 -187 -99h-16q-76 4 -126 45.5t-69 114.5q-6 22 -6 49
q0 20 1 32q1 38 16 108q4 26 27 72t42 67q16 17 42 32t40 15q5 0 24 7z" />
    <glyph glyph-name="H" unicode="H" horiz-adv-x="508" 
d="M358 617q15 28 49 28q14 0 27 -7q11 -7 14.5 -12t6.5 -24t3 -59q0 -54 -3 -180q0 -14 -1 -39q-4 -187 -11 -208q-4 -12 -20 -19q-3 -1 -4 -2q-9 -5 -22 -5q-22 0 -38 16l-14 12l-1 59l-2 60h-168l-5 -32q-14 -98 -56 -112q-16 -4 -17 -4q-7 0 -16 5q-30 14 -30 48
q0 19 4 40q5 33 5 224v192l13 14q17 17 38 17q12 0 23 -6q23 -13 28.5 -42.5t13.5 -178.5l4 -56h167l3 130q3 127 9 141z" />
    <glyph glyph-name="I" unicode="I" horiz-adv-x="314" 
d="M79 647q15 9 37 9q3 0 55 -4q50 -5 68 -18t18 -43q0 -34 -33 -47l-15 -6v-45q0 -11 1 -39t2 -72.5t2 -74.5q4 -141 9 -144q5 -2 20 -15q17 -16 17 -38q0 -28 -26 -45q-7 -4 -46 -8.5t-69 -4.5q-16 0 -26 2q-16 5 -26.5 19t-10.5 30q0 14 7 28q5 9 18 18t21 9q7 0 7 32
q0 2 -2 92q-6 269 -13 269q-8 0 -21 13t-17 26q-2 5 -2 14q0 29 25 43z" />
    <glyph glyph-name="J" unicode="J" horiz-adv-x="348" 
d="M212 638q12 8 29 8q32 0 46 -29q8 -17 10 -142v-54q0 -309 -68 -396q-22 -28 -58 -28q-41 0 -75 34q-30 29 -39 94q-3 24 -3 34q0 11 6 23q15 28 46 28q22 0 39.5 -16t17.5 -42q0 -13 3 -13q4 0 9 25q13 71 13 230v52v75q0 74 4 91t20 26z" />
    <glyph glyph-name="K" unicode="K" horiz-adv-x="466" 
d="M78 630q12 8 25 8q12 0 25 -7q20 -10 25.5 -29.5t5.5 -79.5q0 -71 3 -71q4 0 47 38q97 84 114 96t38 13h4q42 0 46 -39q0 -2 0.5 -5.5t0.5 -5.5q0 -19 -16.5 -38t-72.5 -67q-87 -74 -88 -75l-14 -11l29 -40q33 -43 87 -99q38 -39 49 -52.5t12 -24.5q0 -1 0.5 -4t0.5 -5
q0 -22 -15 -35t-40 -13q-17 0 -24.5 4t-32.5 28q-73 66 -112 118l-16 21v-75q0 -62 -4 -81.5t-20 -31.5q-12 -9 -31 -9q-15 0 -27 6q-15 8 -19 20q-8 24 -8 231v33q0 199 3 234t23 47q1 1 2 1z" />
    <glyph glyph-name="L" unicode="L" horiz-adv-x="430" 
d="M65 620q5 13 18.5 22t29.5 9q13 0 25 -6q21 -10 25 -40.5t4 -196.5v-201l27 -5q25 -5 82 -5q48 0 65.5 -5.5t27.5 -24.5q5 -9 5 -23q0 -17 -10 -32t-26 -20q-10 -3 -44 -3q-91 0 -149 12q-36 7 -50 15.5t-23 28.5q-16 39 -21 132q-1 11 -1 46q0 79 5 182t10 115z" />
    <glyph glyph-name="M" unicode="M" horiz-adv-x="641" 
d="M88 680q19 10 29 10q9 0 24 -6q17 -6 24 -21q7 -14 61 -149q91 -225 95 -225q3 0 30 51t45 91q23 52 49 118q30 77 31 79q6 12 22.5 23.5t30.5 14.5q3 1 9 1q30 0 45 -25q6 -10 7 -44.5t1 -215.5v-57q0 -152 -3 -180.5t-19 -39.5l-1 -1q-10 -7 -28 -7q-23 0 -34 10
q-17 13 -20.5 36t-3.5 116v115l-12 -26q-13 -27 -39 -71t-41 -64q-53 -70 -75 -75q-8 -2 -14 -2q-26 0 -38 17q-7 8 -58 127l-48 114l-2 -125q-1 -122 -8 -135q-14 -24 -47 -24q-20 0 -35 15l-15 15v253q0 189 1 223t8 42q7 10 29 22z" />
    <glyph glyph-name="N" unicode="N" horiz-adv-x="537" 
d="M388 640q14 24 45 24q13 0 25 -6l2 -1q15 -7 19 -20q8 -26 8 -242v-35q0 -185 -1.5 -224.5t-7.5 -50.5q-14 -25 -43 -25q-9 0 -14 2q-13 4 -26 17t-13 21q0 6 -6 6q-8 0 -40 42q-68 89 -160 219l-19 28l-2 -150q-3 -147 -8 -159q-14 -24 -47 -24q-20 0 -35 15l-15 15v519
l13 14q14 14 28 16q3 1 9 1q19 0 34.5 -12t18.5 -30q4 -19 15 -31q7 -7 110 -155l99 -139l1 176q1 123 2.5 151.5t7.5 37.5z" />
    <glyph glyph-name="O" unicode="O" horiz-adv-x="563" 
d="M288 520q-12 2 -44 7l-24 3l-14 -20q-28 -41 -38 -93q-5 -24 -5 -55q0 -59 23 -99q23 -44 65 -44q57 0 129 83q25 29 25 40q0 1 -0.5 3t-0.5 4q-7 60 -19 91q-11 30 -37 51t-60 29zM199 645q22 11 30 11t27 -8.5t19 -12.5q0 -6 68 -25q52 -15 95 -55q73 -68 73 -177
q0 -67 -33 -127q-25 -44 -72 -84t-88 -53q-29 -8 -55 -8q-40 0 -74 17q-40 20 -72.5 63.5t-50.5 100.5q-13 44 -13 100q0 42 8 76q32 125 138 182z" />
    <glyph glyph-name="P" unicode="P" horiz-adv-x="439" 
d="M226 509q-17 5 -48 10l-23 3v-145l12 -2h5q27 0 66 34.5t39 58.5q0 11 -15 23t-36 18zM78 645q19 7 24 7q8 0 24 -7t16 -11q0 -3 41 -8q180 -24 200 -126q3 -14 3 -26q0 -68 -67 -135q-58 -58 -131 -69l-33 -4v-83q0 -84 -4 -91q-11 -21 -45 -21q-14 0 -25 6q-1 1 -3 1
q-14 8 -18 22q-6 22 -7 210q-1 32 -1 50q-2 156 -2 174q0 51 3 73t7 26.5t18 11.5z" />
    <glyph glyph-name="Q" unicode="Q" horiz-adv-x="563" 
d="M274 519q-36 6 -43 6q-14 0 -33.5 -32t-28.5 -71q-6 -26 -6 -54q0 -47 14 -87.5t36 -54.5q14 -10 41 -10q11 0 15 1q21 5 21 10q0 6 -19 28q-34 40 -34 58q0 13 7 27q14 27 44 27q2 0 5 -0.5t5 -0.5q14 -2 22.5 -7.5t28.5 -27.5l31 -34l12 14q12 14 12 35q0 11 -7 48
q-13 59 -39.5 86.5t-83.5 38.5zM191 637q26 14 42 14q17 0 37 -17q11 -10 76 -29q55 -16 97 -58q61 -61 68 -155q0 -2 0.5 -7t0.5 -8q0 -41 -14 -84t-36 -72l-11 -15l18 -32q17 -32 17 -46q0 -23 -15 -40t-35 -17q-35 0 -55 36l-13 24l-29 -14q-28 -13 -73 -13q-32 0 -43 2
t-31 11q-63 30 -101 103t-38 163q0 21 1 32q5 59 34 116q14 28 44.5 59.5t58.5 46.5z" />
    <glyph glyph-name="R" unicode="R" horiz-adv-x="468" 
d="M261 466q24 20 24 33q0 17 -41 17q-25 0 -58 -6q-23 -5 -24 -9q0 -5 1 -8q2 -14 2 -43v-31l13 3q16 4 42.5 18t40.5 26zM79 636q19 7 22 7q9 0 23 -6.5t21 -14.5q6 -7 14 -7q7 0 23 3q24 2 55 2h22q43 -1 67 -9.5t42 -28.5q24 -27 24 -65q0 -67 -58 -131l-24 -25l20 -20
q34 -35 59 -96.5t25 -105.5q0 -20 -6 -32q-14 -27 -47 -27q-13 0 -25 6q-24 13 -28 58q-12 121 -107 148q-25 7 -25 3q0 -18 5 -93q3 -46 3 -71q0 -28 -4.5 -38.5t-16.5 -20.5q-11 -10 -33 -10q-18 0 -28 7q-13 8 -18.5 23.5t-7.5 50.5q-25 413 -25 434v6q0 40 28 53z" />
    <glyph glyph-name="S" unicode="S" horiz-adv-x="468" 
d="M218 647q26 8 57 8q30 0 50 -7q30 -10 59 -48.5t29 -67.5v-6q-3 -21 -17.5 -34.5t-34.5 -13.5q-7 0 -10 1q-26 4 -45 39q-18 31 -36 31q-10 0 -19 -4q-18 -7 -36 -26.5t-23 -38.5q-3 -10 -3 -20q0 -20 16 -37t58 -43q33 -20 65 -51t43 -54q13 -26 13 -52q0 -46 -40 -88
q-30 -32 -76 -49.5t-91 -17.5q-67 0 -96 36q-23 30 -27 106q-1 11 -1 28q0 27 6 38.5t22 19.5q12 6 23 6q12 0 24 -6q16 -8 23 -23t9 -49q3 -40 9 -43q1 -1 8 -1q16 0 46 5.5t37 9.5q10 6 10 19q0 19 -20.5 44t-51.5 41q-46 24 -76.5 60t-38.5 75q-3 15 -3 30q0 57 39 109
t99 74z" />
    <glyph glyph-name="T" unicode="T" horiz-adv-x="500" 
d="M80 618q7 5 33 6t139 1q159 0 171 -7q24 -16 24 -45q0 -15 -7 -26q-10 -17 -25.5 -21.5t-63.5 -4.5h-57v-384l-13 -16q-17 -18 -39 -18q-25 0 -43 22q-7 9 -8.5 35t-1.5 169v192h-50q-42 0 -56.5 6t-23.5 27q-4 9 -4 20q0 27 25 44z" />
    <glyph glyph-name="U" unicode="U" horiz-adv-x="514" 
d="M68 610q15 15 37 15q38 0 49 -29q5 -11 12 -73q28 -244 77 -291q9 -9 19 -9q14 0 29 17q23 24 40 69q25 69 25 190q0 62 4 80.5t21 29.5q11 7 28 7q21 0 31 -9q15 -11 19.5 -23t4.5 -43q0 -26 -1 -44q-4 -122 -21 -195q-21 -86 -67.5 -136t-111.5 -55h-12
q-43 0 -74.5 28.5t-58.5 92.5q-22 52 -40 141t-22 170l-3 51z" />
    <glyph glyph-name="V" unicode="V" horiz-adv-x="544" 
d="M490 612q0 -12 -81 -218t-81 -211q0 -15 -16.5 -28.5t-35.5 -13.5q-24 0 -40.5 19.5t-59.5 100.5q-47 88 -71.5 152.5t-42.5 149.5q-7 32 -7 42q0 9 4 17q14 32 49 32t47 -30q8 -22 14 -49q19 -91 68 -194l27 -57l23 60q62 168 101 248q8 17 23 25q14 7 28 7
q21 0 36 -14.5t15 -37.5z" />
    <glyph glyph-name="W" unicode="W" horiz-adv-x="630" 
d="M508 661q3 1 10 1q22 0 35 -9q16 -11 21 -33.5t6 -101.5v-45q0 -299 -102 -299q-63 0 -133 93l-25 34l-17 -27q-16 -26 -41 -52q-45 -48 -82 -48q-20 0 -35 11q-67 44 -89 307q-4 45 -4 81q0 34 6 49t22 23q13 6 23 6q11 0 25 -6q19 -9 24.5 -27.5t9.5 -84.5
q11 -223 24 -223q6 0 43 56q38 57 65 84q24 22 37 22h6q18 -1 27.5 -15.5t23.5 -58.5q13 -43 31 -62q12 -14 27.5 -25.5t21.5 -11.5q1 0 2 1q4 4 4 131q0 94 -2 122q-2 44 -2 48q0 19 4 28q12 25 34 32z" />
    <glyph glyph-name="X" unicode="X" horiz-adv-x="530" 
d="M351 635q10 6 25 6h9q23 -2 33.5 -13t11.5 -34q0 -2 0.5 -5t0.5 -4q0 -15 -43 -86l-9 -15l-52 -86l29 -40q49 -66 84 -122t35 -67q0 -13 -7 -27.5t-16 -20.5q-10 -7 -32 -7q-18 0 -27 6q-10 6 -45 59q-75 114 -83 114q-5 0 -37 -54t-32 -60q0 -11 -10.5 -25.5
t-22.5 -19.5q-8 -4 -20 -4q-20 0 -36 11.5t-16 27.5t29.5 85t54.5 112l15 27l-33 39q-20 24 -68 80l-34 40l2 24q2 26 16 37q13 12 34 12q18 0 28 -4q9 -6 62 -67l54 -63l43 68q44 68 57 76z" />
    <glyph glyph-name="Y" unicode="Y" horiz-adv-x="480" 
d="M347 657q13 8 27 8q19 0 34 -13t17 -33q0 -1 0.5 -4t0.5 -4q0 -16 -42 -110q-65 -147 -103 -276q-16 -54 -25.5 -74t-23.5 -30q-10 -7 -32 -7q-18 0 -28 6q-8 6 -16 21t-8 26q0 12 8 28q12 31 27 85l20 68l-20 20q-20 22 -42 56t-54 99t-32 77q0 23 15.5 39.5t36.5 16.5
q12 0 27.5 -10t20.5 -21q20 -45 53 -101.5t39 -56.5h1q3 3 40 86q31 70 38.5 83t20.5 21z" />
    <glyph glyph-name="Z" unicode="Z" horiz-adv-x="455" 
d="M69 533q-16 15 -16 35q0 22 16 39t40 17q1 0 4 -0.5t4 -0.5q25 -2 136 -4q115 0 123 -5q16 -9 20.5 -18t4.5 -30q0 -26 -4 -30q-5 -2 -32 -45q-7 -10 -101 -147l-73 -105l79 -1q78 -1 90 -9q23 -14 23 -46t-25 -45q-16 -8 -131 -8t-131 8q-12 6 -21.5 24t-9.5 34
q0 39 29 92.5t102 151.5l49 65l-72 6q-65 5 -78 8t-26 14z" />
    <glyph glyph-name="a" unicode="a" horiz-adv-x="478" 
d="M297 417q0 7 -8 7q-3 0 -33 -7q-65 -14 -88 -61q-6 -12 -6 -27q0 -36 26 -54q7 -6 16 -6q28 0 58 77q18 47 26 55q9 7 9 16zM346 538q14 8 28 8q12 0 25 -6q22 -11 25.5 -36t3.5 -167q0 -139 -3.5 -165.5t-23.5 -37.5q-12 -6 -26 -6q-30 0 -45 23q-7 10 -7 31v21l-21 -18
q-32 -29 -74 -29q-62 0 -114 57q-61 64 -61 141q0 12 1 18q17 124 202 155q25 5 40 5q10 0 19 -4q16 -5 16 -3q0 4 15 13z" />
    <glyph glyph-name="b" unicode="b" horiz-adv-x="433" 
d="M264 401q-8 5 -14 5q-9 0 -20 -7q-10 -6 -34 -33t-24 -32q0 -16 17.5 -52.5t24.5 -36.5q16 0 35.5 21t27.5 47q6 18 6 36q0 38 -19 52zM75 670q13 8 29 8q18 0 31 -10q16 -12 20 -31t4 -79v-72l25 15q35 22 69 22q39 0 70 -31q54 -54 58 -153q0 -3 0.5 -10t0.5 -11
q0 -97 -58 -149q-41 -38 -105 -38q-25 0 -45 7l-20 7l-12 -12q-16 -16 -39 -16q-29 0 -44 24q-6 11 -7.5 48t-1.5 206v52q0 154 3.5 183t20.5 40h1z" />
    <glyph glyph-name="c" unicode="c" horiz-adv-x="428" 
d="M171 492q21 6 54 6q58 0 91 -15q29 -14 29 -50q0 -24 -17 -38q-16 -13 -35 -13q-10 0 -25 3t-28 3q-33 0 -57 -24q-29 -29 -29 -74q0 -8 2 -24q6 -37 23.5 -61.5t37.5 -24.5q23 0 51 38q13 18 25 25t31 7q36 0 47 -33q3 -9 3 -18q0 -20 -16 -43q-65 -95 -138 -95
q-50 0 -93 46q-34 36 -54 92.5t-20 113.5q0 23 3 42q18 111 115 137z" />
    <glyph glyph-name="d" unicode="d" horiz-adv-x="445" 
d="M269 328q-12 23 -26 26q-32 -12 -55 -43t-23 -60q0 -17 8 -26q18 -23 54 -23h1q19 0 32 19.5t17 54.5q1 8 1 20q0 14 -9 32zM319 670q12 6 25 6q34 0 47 -32q4 -8 4 -69q0 -68 -4.5 -192.5t-8.5 -215.5l-5 -91q-2 -17 -14.5 -30.5t-28.5 -16.5q-3 -1 -9 -1
q-21 0 -37.5 16.5t-16.5 37.5v13h-41q-28 0 -39.5 2.5t-33.5 12.5q-103 50 -103 141q0 25 5 42q17 67 74.5 116.5t116.5 49.5h7l26 -2l3 46q2 50 2 87t6.5 53.5t24.5 26.5z" />
    <glyph glyph-name="e" unicode="e" horiz-adv-x="432" 
d="M263 382q-10 13 -26 13q-10 0 -21 -4q-13 -4 -27.5 -17t-14.5 -21q0 -1 2 -3q12 -7 65 -7q13 0 17 1q8 2 11 5t3 10q0 12 -9 23zM176 508q8 2 26 2h12q59 -4 111 -56.5t55 -112.5v-11q0 -35 -24 -58q-35 -33 -122 -33q-12 0 -36 2l-39 2q-1 0 -1 -3q0 -20 16 -38
q31 -36 74 -36q17 0 23.5 2.5t16.5 12.5q18 19 42 19q21 0 36 -15t15 -37q0 -18 -13 -37q-39 -52 -118 -52h-14q-42 1 -71 15q-79 37 -104 116q-9 30 -9 70q0 90 34 161q15 32 39 55t51 32z" />
    <glyph glyph-name="f" unicode="f" horiz-adv-x="449" 
d="M230 643q17 13 40 13q18 0 41 -9q22 -8 46 -24t31 -27q8 -11 8 -30q0 -20 -8 -31q-14 -22 -47 -22q-17 0 -31 9q-3 2 -10 7t-9 7q-6 4 -7.5 4.5t-3 -1t-4.5 -8.5q-17 -41 -17 -160q0 -69 2 -71q1 -1 31 2q20 2 23 2q11 0 25 -7q17 -7 23 -19q5 -12 5 -25q0 -36 -23 -48
q-7 -5 -46 -10l-38 -4l2 -51v-22q0 -28 -4.5 -40.5t-18.5 -21.5q-11 -7 -28 -7q-22 0 -36 12q-22 21 -22 80q0 35 -4 41.5t-29 6.5q-67 0 -67 57q0 18 15 33q10 10 16.5 12t30.5 2h33l2 83q6 214 79 267z" />
    <glyph glyph-name="g" unicode="g" horiz-adv-x="460" 
d="M243 358q0 5 -11 5q-26 0 -52 -14q-27 -14 -27 -44q0 -17 11 -29q11 -13 20 -13q7 0 23 13q15 13 25 45q2 7 5 16t4.5 14t1.5 7zM338 547q9 3 17 3q21 0 39 -22q16 -20 16 -127q0 -43 -3 -99q-11 -210 -44 -275q-11 -20 -41 -41.5t-64 -33.5q-36 -13 -73 -13
q-55 0 -76 28q-21 27 -21 55q0 23 14.5 38t39.5 15q19 0 37 -16q15 -14 26 -14q8 0 13 1q21 2 38 22q31 35 39 118l3 29l-25 -24q-42 -42 -90 -42q-43 0 -79 39q-51 56 -51 130v13q7 137 178 137h51l9 19q11 21 25 39t22 21z" />
    <glyph glyph-name="h" unicode="h" horiz-adv-x="417" 
d="M73 595q16 19 45 19q17 0 29 -9q25 -18 25 -75q0 -31 2 -67l3 -33l20 6q13 4 30 4q31 0 61 -16.5t49 -45.5q28 -42 28 -126q0 -38 -3 -93q-3 -47 -5 -57.5t-12 -20.5q-16 -17 -38 -17q-13 0 -23 5q-21 9 -26 23t-5 65v36v35q0 80 -13 98q-4 6 -11 6q-11 0 -21.5 -18
t-16.5 -48q-5 -30 -13 -38q-4 -4 -10 -46q-17 -135 -58 -135q-14 0 -33 14q-27 21 -27 49q0 14 6 33q8 25 8 232q0 149 1.5 181t7.5 39z" />
    <glyph glyph-name="i" unicode="i" horiz-adv-x="249" 
d="M91 475q16 15 35 15q36 0 49 -28q5 -12 13 -131q11 -184 11 -191q0 -16 -8 -27q-18 -23 -48 -23q-14 0 -27 8q-15 11 -19.5 33.5t-10.5 114.5q-9 146 -9 166l-2 48zM102 654q12 3 23 3q23 0 36 -12q15 -13 15 -46q0 -45 -24 -67q-15 -15 -37 -15q-15 0 -29 9
q-13 9 -22.5 30t-9.5 41q0 8 1 12q7 34 47 45z" />
    <glyph glyph-name="j" unicode="j" horiz-adv-x="339" 
d="M208 474q12 6 24 6q33 0 49 -33q8 -16 8 -136q0 -118 -9 -183.5t-31 -110.5q-27 -56 -73 -56q-14 0 -31 6q-81 28 -88 120q0 3 -0.5 8.5t-0.5 7.5q0 40 26 53q14 7 28 7q23 0 38.5 -18.5t16.5 -49.5v-13l6 15q15 41 15 151q0 61 -4 118q-3 47 -3 60q0 16 6 26q7 14 23 22
zM161 606q4 14 19.5 25t33.5 11q20 0 34 -14q9 -8 17.5 -31t8.5 -39q0 -21 -15 -35t-37 -14h-8q-20 2 -31 13.5t-19 37.5q-6 23 -6 30t3 16z" />
    <glyph glyph-name="k" unicode="k" horiz-adv-x="424" 
d="M75 653q12 7 30 7q20 0 35 -15l15 -15q1 -45 1 -134.5t1 -133.5l29 44q27 39 37.5 49t28.5 12h8q34 0 46 -29q5 -12 5 -20q0 -20 -33 -72q-11 -16 -39 -61l-9 -15l62 -41q49 -33 63 -47.5t14 -35.5q0 -13 -9 -27t-20 -18q-13 -5 -22 -5q-20 0 -74 34q-53 34 -70 46
l-19 13v-46q0 -44 -7 -57q-15 -23 -46 -23q-14 0 -26 6q-15 8 -19 18q-7 24 -7 219v55v57q0 164 3 194.5t20 39.5q1 1 2 1z" />
    <glyph glyph-name="l" unicode="l" horiz-adv-x="310" 
d="M69 634q11 25 46 25q32 0 44 -22q6 -11 6 -226q0 -216 5 -231q2 -10 4 -12t11 -2h9h4q38 0 50 -28q6 -14 6 -25q0 -32 -39 -51q-34 -16 -56 -16q-46 0 -71.5 56t-34.5 174q-3 39 -3 95q0 86 5.5 167t13.5 96z" />
    <glyph glyph-name="m" unicode="m" horiz-adv-x="617" 
d="M59 510q13 30 49 30q34 0 46 -31q6 -16 6 -50v-37l12 18q46 69 98 69h2q37 -1 64 -31l15 -17l22 12q28 16 54 16q53 0 89 -69t49 -197q0 -3 0.5 -7t0.5 -6q0 -38 -25 -55q-11 -7 -29 -7t-29 7q-14 9 -19.5 27t-7.5 59q-7 133 -33 133q-8 0 -22 -21t-20 -41
q-7 -23 -13 -38q-2 -4 -4.5 -11t-3.5 -10t-4 -7t-7.5 -6.5t-11.5 -5.5q-15 -5 -19 -5q-6 0 -20 6q-13 5 -17 9.5t-6 15.5q-1 10 -5.5 18.5t-4.5 24.5q0 21 -4 43l-3 20l-13 -29q-22 -49 -45 -142q-11 -49 -19.5 -66t-25.5 -26q-9 -5 -19 -5q-65 0 -81 300q-3 56 -3 74
q0 24 7 38z" />
    <glyph glyph-name="n" unicode="n" horiz-adv-x="427" 
d="M74 534q13 9 29 9q21 0 36.5 -14t15.5 -35v-14l19 17q22 21 48 21q37 0 80 -47q74 -80 74 -213q0 -31 -5 -69q-7 -51 -13 -64q-13 -28 -47 -28q-35 0 -49 29q-6 12 -6 22q0 6 8 54q3 18 3 46q0 56 -9 85q-16 52 -28 58h-1q-9 0 -18 -50t-11 -115q-2 -70 -7 -84
q-11 -36 -50 -36q-12 0 -27 5q-16 6 -22.5 10.5t-13 11t-9.5 25.5t-5 39t-5 66q-10 147 -10 202q0 36 5 48.5t18 20.5z" />
    <glyph glyph-name="o" unicode="o" horiz-adv-x="450" 
d="M274 405q-13 6 -23 6q-14 0 -23 -13q-13 -15 -24 -19q-15 -7 -26 -32.5t-11 -51.5q0 -19 7 -32q19 -33 47 -33h4q54 11 62 126l3 42zM191 514q16 5 47 5q42 0 73 -11q78 -30 85 -100q3 -27 3 -64q0 -53 -6 -77q-15 -62 -52.5 -97.5t-93.5 -40.5q-3 0 -8 -0.5t-8 -0.5
q-70 0 -127 51q-47 42 -51 109v10q0 86 81 174q22 23 31.5 30.5t25.5 11.5z" />
    <glyph glyph-name="p" unicode="p" horiz-adv-x="418" 
d="M264 359q-9 19 -25 19q-13 0 -35 -15q-42 -29 -42 -60q0 -13 6 -31q5 -17 12.5 -22t27.5 -5q14 0 20 3t17 14q27 29 27 64q0 17 -8 33zM88 517q14 7 19 7q2 0 16 -2q13 -2 26.5 -15t13.5 -22q0 -7 3 -7t36 12q24 9 38 9q9 0 29 -5q45 -12 71.5 -66t26.5 -121
q0 -98 -50 -145q-37 -35 -89 -35q-25 0 -46 7l-23 7q-1 0 -1 -58q0 -62 -4 -84.5t-17 -33.5q-14 -13 -35 -13q-37 0 -49 31q-3 9 -3 59q0 51 3 198q0 15 1 43q4 190 11 212q6 14 21 21q1 1 2 1z" />
    <glyph glyph-name="q" unicode="q" horiz-adv-x="422" 
d="M245 344q-37 41 -66 41q-10 0 -17 -8q-13 -14 -13 -41q0 -23 10 -45t27 -32q15 -9 26 -9q10 0 19 4q13 4 21 26q7 18 7 32q0 15 -14 32zM259 497q11 32 49 32t50 -32q5 -13 8 -206q1 -148 5 -238q1 -12 1 -28q0 -21 -6 -34q-15 -32 -47 -32q-12 0 -21 4q-21 9 -26.5 25.5
t-7.5 78.5q-2 69 -5 76q-5 2 -22 -3q-20 -5 -46 -5q-33 0 -50 7q-28 12 -51 42.5t-32 67.5q-5 23 -5 58q0 42 7 74q22 84 74 111q18 9 44 9q32 0 60 -14l15 -8z" />
    <glyph glyph-name="r" unicode="r" horiz-adv-x="370" 
d="M69 497q15 15 34 15q39 0 51 -32l6 -14l29 1h9q54 0 86.5 -34.5t32.5 -92.5q0 -41 -30 -54q-10 -5 -23 -5q-22 0 -37.5 16.5t-15.5 38.5q0 24 -15 13q-17 -14 -22 -131q-3 -67 -9 -84t-24 -38.5t-28 -23.5h-3q-12 0 -30.5 12.5t-22.5 23.5q-7 19 -7 263q0 61 2 83
q4 30 17 43z" />
    <glyph glyph-name="s" unicode="s" horiz-adv-x="409" 
d="M189 252q-29 14 -34 14h-1l4 -6q5 -7 5 -32t5 -30q12 -16 38 -16q1 0 3.5 0.5t3.5 0.5q10 2 20.5 10t10.5 13q0 8 -16.5 22t-38.5 24zM179 527q24 6 46 6q60 0 93 -36q30 -35 30 -69v-7q-3 -18 -18 -31.5t-32 -13.5t-31.5 9.5t-19.5 23.5t-11 17h-2q-1 1 -2 1
q-10 0 -29 -7.5t-28 -15.5l-14 -11l45 -24q152 -81 152 -161q0 -39 -39 -78t-89 -51q-17 -4 -38 -4q-42 0 -76.5 18.5t-52.5 51.5q-12 23 -12 54q0 40 15 62.5t41 24.5l16 1l-15 11q-56 44 -56 97q0 44 38 81q37 37 89 51z" />
    <glyph glyph-name="t" unicode="t" horiz-adv-x="352" 
d="M146 600q12 6 25 6q17 0 30 -9q16 -10 19.5 -34t3.5 -114v-111l17 2q1 0 4 0.5t4 0.5q29 0 43 -24q7 -11 7 -34q0 -16 -4 -24q-12 -21 -54 -29l-16 -3l-2 -56q-1 -48 -7 -63.5t-29 -23.5q-9 -4 -17 -4q-6 0 -17 4q-23 7 -29 22t-8 63q-1 38 -2.5 46.5t-7.5 8.5
q-20 0 -36 16t-16 38t15.5 38.5t36.5 16.5q7 0 8 14.5t1 100.5q0 96 4.5 118.5t26.5 33.5z" />
    <glyph glyph-name="u" unicode="u" horiz-adv-x="438" 
d="M83 473q16 8 23 8q8 0 22 -6q22 -9 26.5 -28t4.5 -99q0 -146 21 -146q6 0 12 6q22 21 61 127q28 75 46 106t35 31q14 0 33 -21q16 -16 18.5 -43.5t2.5 -156.5q0 -137 -7 -152q-13 -28 -46 -28q-19 0 -34.5 11.5t-19.5 31.5q-3 17 -7 17t-10 -7q-10 -10 -34 -21
q-29 -13 -61 -13q-23 0 -30.5 2t-19.5 12q-67 54 -67 269q0 54 5.5 72t25.5 28z" />
    <glyph glyph-name="v" unicode="v" horiz-adv-x="449" 
d="M317 505q6 2 22 2h2q27 0 41.5 -17t14.5 -47q0 -17 -4 -33q-25 -121 -41.5 -172t-40.5 -88q-13 -20 -23.5 -28t-27.5 -12q-3 -1 -10 -1q-35 0 -74 58t-89 186q-33 84 -33 95q0 10 10 25t21 20q8 4 22 4q24 0 37 -11q11 -11 55 -114q44 -105 47 -107q1 -1 6 15.5
t11.5 41.5t13 51.5t11 48.5t4.5 29q1 15 9 33t16 21z" />
    <glyph glyph-name="w" unicode="w" horiz-adv-x="552" 
d="M420 464q12 8 29 8q32 0 46 -29q6 -13 6 -29q0 -13 -1 -22q-10 -117 -39 -189t-71 -84q-10 -2 -16 -2q-25 0 -50.5 17.5t-44.5 46.5q-14 25 -18 25q-3 0 -21 -21q-21 -23 -41 -37q-28 -19 -51 -19q-79 0 -94 226q-1 10 -1 25q0 33 19 51q12 12 34 12q23 0 35 -12
q12 -11 16 -24.5t4 -44.5q0 -17 3 -65l3 -29l26 37q19 28 54 66q40 40 62 40q35 0 35 -80v-8v-20q0 -27 10 -44q12 -20 14 -20q8 0 16 51t8 99q0 58 28 75z" />
    <glyph glyph-name="x" unicode="x" horiz-adv-x="420" 
d="M288 530q11 7 26 7q29 0 45 -25q8 -12 8 -24q0 -8 -1 -13q-8 -49 -57 -128l-20 -33l20 -41q49 -97 49 -126q0 -23 -14 -36t-37 -13t-36 13t-30 53q-21 46 -22 46q-4 0 -42 -49q-29 -38 -42 -48t-33 -10q-50 0 -50 54q0 14 6.5 26t36.5 52q44 58 51 71l8 11l-48 64
q-48 62 -52 76q-1 4 -1 11q0 20 13.5 36t32.5 18q1 0 4 0.5t5 0.5q16 0 31 -13t41 -48q37 -48 39 -48q3 0 23.5 37t20.5 43q0 8 7.5 19.5t17.5 16.5z" />
    <glyph glyph-name="y" unicode="y" horiz-adv-x="416" 
d="M279 544q10 10 24 10q15 0 28 -9.5t17 -24.5q7 -23 12.5 -83t5.5 -111q0 -239 -119 -291q-17 -8 -56 -8q-72 0 -104 21q-22 13 -22 45q0 21 12 34q17 18 40 18q12 0 32 -5q21 -6 35 -6q23 0 38 16q23 23 31 65l3 15l-24 -19q-40 -33 -74 -33q-20 0 -37 12q-26 19 -44 83
t-21 150l-3 68l12 14q17 20 42 20q26 0 42 -19q6 -7 7.5 -22.5t3.5 -75.5q2 -89 7 -98q3 -8 5 -8q1 1 10 14q18 28 48 118q29 90 49 110z" />
    <glyph glyph-name="z" unicode="z" horiz-adv-x="451" 
d="M122 502q18 2 108 2q76 -1 93 -8q27 -12 27 -39q0 -42 -76 -157q-45 -67 -45 -69t9 -2q15 0 39.5 4.5t31.5 8.5q18 11 38 11q23 0 39 -17q12 -14 12 -37t-10 -34q-33 -47 -193 -47q-59 0 -79 5t-30 24q-8 14 -8 29q0 50 89 168q38 51 38 55h-5q-5 0 -45 -2q-18 -2 -41 -2
q-28 0 -44 16t-16 36q0 12 4 21q8 17 21.5 24.5t42.5 9.5z" />
    <glyph glyph-name="braceleft" unicode="{" horiz-adv-x="412" 
d="M174 601q22 24 38 30t58 6q24 0 31 -2t17 -10q13 -12 16 -35v-9q0 -45 -62 -50l-23 -1l-5 -24q-5 -27 -5 -124q0 -193 11 -256l2 -14l16 11q17 11 34 11q19 0 34 -11.5t19 -31.5q1 -3 1 -9q0 -21 -14 -43.5t-33 -30.5t-53 -8t-50 8q-17 8 -32.5 24t-21.5 31
q-4 9 -13 85.5t-10 104.5q0 8 -18 8q-27 0 -42 14.5t-15 40.5q0 20 15 35t34 15h19l1 48q3 134 51 187z" />
    <glyph glyph-name="asciitilde" unicode="~" horiz-adv-x="489" 
d="M349 438q17 11 33 11q22 0 37.5 -16t15.5 -41q0 -14 -12.5 -32t-30.5 -28q-18 -11 -53 -11q-29 0 -77 8q-33 6 -61 6q-41 0 -63 -12q-18 -9 -35 -9q-22 0 -36 14t-14 38q0 34 39 54q50 24 98 24q27 0 77 -8q48 -8 56 -8q12 0 26 10z" />
    <glyph glyph-name="nbsp" unicode="&#xa0;" 
 />
    <glyph glyph-name="dotbelowcomb" unicode="&#x323;" horiz-adv-x="245" 
d="M84 106q9 3 24 3q34 0 53 -11q30 -18 30 -48t-30 -42q-15 -6 -42 -6q-22 0 -33 4q-13 4 -22.5 19.5t-9.5 31.5q0 15 9 29.5t21 19.5z" />
  </font>
</defs>
</svg>
