<svg xmlns="http://www.w3.org/2000/svg" xmlns:xlink="http://www.w3.org/1999/xlink" width="1080" zoomAndPan="magnify" viewBox="0 0 810 809.999993" height="1080" preserveAspectRatio="xMidYMid meet" version="1.0"><rect x="-81" width="972" fill="#ffffff" y="-80.999999" height="971.999992" fill-opacity="1"/><rect x="-81" width="972" fill="#ebfdff" y="-80.999999" height="971.999992" fill-opacity="1"/><rect x="-81" width="972" fill="#ffffff" y="-80.999999" height="971.999992" fill-opacity="1"/><rect x="-81" width="972" fill="#ebfdff" y="-80.999999" height="971.999992" fill-opacity="1"/><path fill="#147e93" d="M 548.4375 800.832031 L 35.382812 800.832031 C 34.222656 800.832031 33.070312 800.773438 31.917969 800.660156 C 30.761719 800.542969 29.617188 800.371094 28.484375 800.144531 C 27.347656 799.917969 26.226562 799.636719 25.117188 799.296875 C 24.007812 798.960938 22.917969 798.570312 21.847656 798.125 C 20.777344 797.683594 19.734375 797.1875 18.710938 796.640625 C 17.691406 796.09375 16.699219 795.496094 15.734375 794.855469 C 14.773438 794.210938 13.84375 793.519531 12.949219 792.785156 C 12.050781 792.050781 11.195312 791.269531 10.375 790.453125 C 9.554688 789.632812 8.78125 788.773438 8.042969 787.878906 C 7.308594 786.984375 6.621094 786.054688 5.976562 785.089844 C 5.332031 784.125 4.738281 783.132812 4.191406 782.113281 C 3.644531 781.089844 3.148438 780.042969 2.703125 778.972656 C 2.261719 777.902344 1.871094 776.8125 1.53125 775.703125 C 1.195312 774.59375 0.914062 773.472656 0.6875 772.335938 C 0.460938 771.199219 0.289062 770.054688 0.175781 768.902344 C 0.0585938 767.746094 0 766.589844 0 765.433594 L 0 80.292969 C 0 79.132812 0.0585938 77.976562 0.175781 76.824219 C 0.289062 75.667969 0.460938 74.523438 0.6875 73.386719 C 0.914062 72.25 1.195312 71.128906 1.53125 70.019531 C 1.871094 68.910156 2.261719 67.820312 2.703125 66.75 C 3.148438 65.679688 3.644531 64.632812 4.191406 63.613281 C 4.738281 62.589844 5.332031 61.597656 5.976562 60.632812 C 6.621094 59.671875 7.308594 58.742188 8.042969 57.84375 C 8.78125 56.949219 9.554688 56.089844 10.375 55.273438 C 11.195312 54.453125 12.050781 53.675781 12.949219 52.9375 C 13.84375 52.203125 14.773438 51.515625 15.734375 50.871094 C 16.699219 50.226562 17.691406 49.628906 18.710938 49.082031 C 19.734375 48.535156 20.777344 48.039062 21.847656 47.597656 C 22.917969 47.152344 24.007812 46.761719 25.117188 46.425781 C 26.226562 46.085938 27.347656 45.804688 28.484375 45.578125 C 29.617188 45.351562 30.761719 45.179688 31.917969 45.066406 C 33.070312 44.949219 34.222656 44.890625 35.382812 44.890625 L 548.4375 44.890625 C 549.597656 44.890625 550.753906 44.949219 551.90625 45.066406 C 553.058594 45.179688 554.203125 45.351562 555.339844 45.578125 C 556.472656 45.804688 557.597656 46.085938 558.703125 46.425781 C 559.8125 46.761719 560.902344 47.152344 561.972656 47.597656 C 563.042969 48.042969 564.085938 48.535156 565.109375 49.082031 C 566.128906 49.628906 567.121094 50.226562 568.085938 50.871094 C 569.046875 51.515625 569.976562 52.203125 570.871094 52.941406 C 571.765625 53.675781 572.625 54.453125 573.441406 55.273438 C 574.261719 56.089844 575.039062 56.949219 575.773438 57.84375 C 576.507812 58.742188 577.199219 59.671875 577.839844 60.632812 C 578.484375 61.597656 579.082031 62.589844 579.625 63.613281 C 580.171875 64.632812 580.667969 65.679688 581.113281 66.75 C 581.554688 67.820312 581.945312 68.910156 582.28125 70.019531 C 582.621094 71.128906 582.902344 72.25 583.128906 73.386719 C 583.355469 74.523438 583.527344 75.667969 583.640625 76.824219 C 583.753906 77.976562 583.8125 79.132812 583.8125 80.292969 L 583.8125 524.632812 C 583.8125 525.746094 583.601562 526.820312 583.171875 527.847656 C 582.746094 528.878906 582.140625 529.789062 581.351562 530.574219 L 485.152344 626.832031 L 522.960938 664.703125 L 569.496094 618.140625 C 570.082031 617.550781 570.742188 617.0625 571.476562 616.667969 C 572.210938 616.277344 572.984375 616 573.800781 615.839844 C 574.613281 615.675781 575.4375 615.636719 576.261719 615.71875 C 577.089844 615.800781 577.886719 616 578.65625 616.320312 C 579.421875 616.636719 580.128906 617.0625 580.769531 617.589844 C 581.414062 618.117188 581.964844 618.726562 582.425781 619.417969 C 582.886719 620.109375 583.238281 620.855469 583.476562 621.648438 C 583.71875 622.445312 583.839844 623.261719 583.839844 624.089844 L 583.839844 765.433594 C 583.835938 766.589844 583.78125 767.75 583.664062 768.902344 C 583.550781 770.054688 583.378906 771.203125 583.152344 772.339844 C 582.925781 773.476562 582.644531 774.597656 582.304688 775.707031 C 581.96875 776.816406 581.578125 777.90625 581.132812 778.976562 C 580.691406 780.050781 580.195312 781.09375 579.648438 782.117188 C 579.101562 783.140625 578.503906 784.132812 577.863281 785.097656 C 577.21875 786.0625 576.527344 786.992188 575.792969 787.886719 C 575.054688 788.78125 574.277344 789.640625 573.460938 790.460938 C 572.640625 791.28125 571.78125 792.058594 570.886719 792.792969 C 569.988281 793.527344 569.058594 794.21875 568.097656 794.863281 C 567.132812 795.507812 566.140625 796.101562 565.117188 796.648438 C 564.097656 797.195312 563.050781 797.691406 561.980469 798.132812 C 560.910156 798.578125 559.820312 798.96875 558.710938 799.304688 C 557.601562 799.640625 556.476562 799.921875 555.339844 800.148438 C 554.207031 800.375 553.058594 800.546875 551.90625 800.660156 C 550.753906 800.773438 549.597656 800.832031 548.4375 800.832031 Z M 35.382812 61.6875 C 34.773438 61.6875 34.167969 61.71875 33.5625 61.777344 C 32.957031 61.839844 32.355469 61.929688 31.757812 62.046875 C 31.164062 62.167969 30.574219 62.316406 29.992188 62.492188 C 29.410156 62.667969 28.839844 62.875 28.277344 63.105469 C 27.714844 63.339844 27.164062 63.601562 26.628906 63.886719 C 26.09375 64.175781 25.570312 64.488281 25.066406 64.824219 C 24.558594 65.164062 24.070312 65.527344 23.601562 65.910156 C 23.132812 66.296875 22.679688 66.707031 22.25 67.136719 C 21.820312 67.566406 21.414062 68.015625 21.027344 68.488281 C 20.640625 68.957031 20.277344 69.445312 19.941406 69.953125 C 19.601562 70.457031 19.289062 70.980469 19.003906 71.515625 C 18.714844 72.050781 18.457031 72.601562 18.222656 73.164062 C 17.992188 73.726562 17.785156 74.296875 17.609375 74.878906 C 17.433594 75.464844 17.285156 76.050781 17.164062 76.648438 C 17.046875 77.246094 16.957031 77.847656 16.894531 78.453125 C 16.835938 79.058594 16.804688 79.664062 16.804688 80.273438 L 16.804688 765.414062 C 16.804688 766.023438 16.835938 766.632812 16.894531 767.238281 C 16.957031 767.84375 17.046875 768.445312 17.164062 769.039062 C 17.285156 769.636719 17.433594 770.226562 17.609375 770.808594 C 17.785156 771.390625 17.992188 771.964844 18.222656 772.527344 C 18.457031 773.089844 18.714844 773.636719 19.003906 774.175781 C 19.289062 774.710938 19.601562 775.230469 19.941406 775.738281 C 20.277344 776.242188 20.640625 776.730469 21.027344 777.203125 C 21.414062 777.671875 21.820312 778.125 22.25 778.554688 C 22.679688 778.984375 23.132812 779.390625 23.601562 779.777344 C 24.070312 780.164062 24.558594 780.527344 25.066406 780.863281 C 25.570312 781.203125 26.09375 781.515625 26.628906 781.804688 C 27.164062 782.089844 27.714844 782.351562 28.277344 782.582031 C 28.839844 782.816406 29.410156 783.023438 29.992188 783.199219 C 30.574219 783.375 31.164062 783.523438 31.757812 783.644531 C 32.355469 783.761719 32.957031 783.851562 33.5625 783.910156 C 34.167969 783.972656 34.773438 784.003906 35.382812 784.003906 L 548.4375 784.003906 C 549.046875 784.003906 549.652344 783.972656 550.257812 783.910156 C 550.863281 783.851562 551.464844 783.761719 552.0625 783.644531 C 552.65625 783.523438 553.246094 783.375 553.828125 783.199219 C 554.410156 783.019531 554.984375 782.816406 555.542969 782.582031 C 556.105469 782.351562 556.65625 782.089844 557.191406 781.804688 C 557.726562 781.515625 558.25 781.203125 558.753906 780.863281 C 559.261719 780.527344 559.746094 780.164062 560.21875 779.777344 C 560.6875 779.390625 561.136719 778.984375 561.566406 778.554688 C 561.996094 778.121094 562.40625 777.671875 562.792969 777.203125 C 563.175781 776.730469 563.539062 776.242188 563.875 775.738281 C 564.214844 775.230469 564.527344 774.710938 564.8125 774.171875 C 565.101562 773.636719 565.359375 773.085938 565.59375 772.523438 C 565.824219 771.964844 566.03125 771.390625 566.207031 770.808594 C 566.382812 770.226562 566.53125 769.636719 566.648438 769.039062 C 566.769531 768.445312 566.859375 767.84375 566.917969 767.238281 C 566.976562 766.632812 567.007812 766.023438 567.007812 765.414062 L 567.007812 644.359375 L 528.878906 682.535156 C 528.089844 683.324219 527.179688 683.929688 526.152344 684.359375 C 525.121094 684.785156 524.050781 684.996094 522.9375 684.996094 C 521.820312 685 520.75 684.785156 519.71875 684.359375 C 518.6875 683.933594 517.777344 683.324219 516.988281 682.535156 L 467.320312 632.765625 C 466.933594 632.375 466.585938 631.953125 466.277344 631.492188 C 465.972656 631.035156 465.714844 630.550781 465.503906 630.042969 C 465.292969 629.53125 465.132812 629.007812 465.027344 628.464844 C 464.917969 627.925781 464.867188 627.378906 464.867188 626.828125 C 464.867188 626.277344 464.917969 625.730469 465.027344 625.191406 C 465.132812 624.648438 465.292969 624.125 465.503906 623.613281 C 465.714844 623.105469 465.972656 622.621094 466.277344 622.160156 C 466.585938 621.703125 466.933594 621.277344 467.320312 620.886719 L 567.007812 521.152344 L 567.007812 80.273438 C 567.007812 79.664062 566.976562 79.058594 566.917969 78.453125 C 566.859375 77.847656 566.769531 77.246094 566.648438 76.648438 C 566.53125 76.054688 566.382812 75.464844 566.207031 74.882812 C 566.03125 74.300781 565.824219 73.726562 565.59375 73.164062 C 565.359375 72.601562 565.101562 72.054688 564.8125 71.515625 C 564.527344 70.980469 564.214844 70.457031 563.875 69.953125 C 563.539062 69.445312 563.175781 68.957031 562.792969 68.488281 C 562.40625 68.019531 561.996094 67.566406 561.566406 67.136719 C 561.136719 66.707031 560.6875 66.296875 560.21875 65.910156 C 559.746094 65.527344 559.261719 65.164062 558.753906 64.824219 C 558.25 64.488281 557.726562 64.175781 557.191406 63.886719 C 556.65625 63.601562 556.105469 63.339844 555.542969 63.105469 C 554.984375 62.875 554.410156 62.667969 553.828125 62.492188 C 553.246094 62.316406 552.65625 62.167969 552.0625 62.046875 C 551.464844 61.929688 550.863281 61.839844 550.257812 61.777344 C 549.652344 61.71875 549.046875 61.6875 548.4375 61.6875 Z M 575.410156 524.632812 Z M 575.410156 524.632812 " fill-opacity="1" fill-rule="nonzero"/><path fill="#147e93" d="M 102.199219 182.230469 C 101.085938 182.230469 100.011719 182.015625 98.984375 181.589844 C 97.957031 181.164062 97.046875 180.554688 96.257812 179.765625 L 81.285156 164.769531 C 80.882812 164.382812 80.523438 163.957031 80.207031 163.5 C 79.890625 163.039062 79.621094 162.554688 79.402344 162.039062 C 79.183594 161.527344 79.015625 161 78.898438 160.453125 C 78.785156 159.90625 78.726562 159.355469 78.722656 158.796875 C 78.714844 158.238281 78.765625 157.683594 78.871094 157.136719 C 78.976562 156.589844 79.136719 156.054688 79.347656 155.539062 C 79.558594 155.023438 79.816406 154.53125 80.125 154.066406 C 80.433594 153.601562 80.785156 153.171875 81.179688 152.777344 C 81.574219 152.382812 82.003906 152.03125 82.46875 151.722656 C 82.933594 151.414062 83.425781 151.152344 83.941406 150.941406 C 84.457031 150.730469 84.988281 150.574219 85.539062 150.46875 C 86.085938 150.363281 86.636719 150.3125 87.195312 150.316406 C 87.753906 150.320312 88.304688 150.382812 88.851562 150.496094 C 89.398438 150.609375 89.925781 150.777344 90.4375 151 C 90.953125 151.21875 91.4375 151.488281 91.898438 151.804688 C 92.355469 152.121094 92.777344 152.480469 93.167969 152.882812 L 102.199219 161.917969 L 125.195312 138.917969 C 125.589844 138.539062 126.015625 138.203125 126.472656 137.90625 C 126.929688 137.609375 127.414062 137.359375 127.921875 137.15625 C 128.425781 136.957031 128.949219 136.804688 129.484375 136.703125 C 130.019531 136.601562 130.5625 136.554688 131.105469 136.558594 C 131.652344 136.566406 132.191406 136.621094 132.726562 136.730469 C 133.261719 136.839844 133.78125 137.003906 134.285156 137.214844 C 134.785156 137.425781 135.265625 137.683594 135.71875 137.984375 C 136.171875 138.289062 136.589844 138.636719 136.976562 139.023438 C 137.363281 139.40625 137.707031 139.828125 138.011719 140.28125 C 138.316406 140.734375 138.570312 141.210938 138.78125 141.714844 C 138.992188 142.21875 139.15625 142.738281 139.265625 143.273438 C 139.375 143.808594 139.433594 144.347656 139.4375 144.894531 C 139.441406 145.4375 139.394531 145.980469 139.292969 146.515625 C 139.191406 147.054688 139.039062 147.574219 138.839844 148.082031 C 138.636719 148.589844 138.386719 149.070312 138.089844 149.53125 C 137.792969 149.988281 137.457031 150.414062 137.078125 150.804688 L 108.140625 179.765625 C 107.351562 180.554688 106.441406 181.164062 105.414062 181.589844 C 104.382812 182.015625 103.3125 182.230469 102.199219 182.230469 Z M 102.199219 182.230469 " fill-opacity="1" fill-rule="nonzero"/><path fill="#147e93" d="M 146.144531 211.964844 L 72.261719 211.964844 C 71.230469 211.964844 70.210938 211.863281 69.203125 211.660156 C 68.191406 211.460938 67.210938 211.164062 66.261719 210.769531 C 65.308594 210.375 64.40625 209.890625 63.550781 209.320312 C 62.695312 208.746094 61.902344 208.097656 61.175781 207.367188 C 60.445312 206.640625 59.796875 205.847656 59.222656 204.992188 C 58.652344 204.136719 58.167969 203.230469 57.773438 202.28125 C 57.378906 201.328125 57.078125 200.347656 56.878906 199.335938 C 56.675781 198.328125 56.574219 197.308594 56.574219 196.277344 L 56.574219 122.410156 C 56.578125 121.378906 56.679688 120.363281 56.882812 119.355469 C 57.085938 118.34375 57.386719 117.367188 57.78125 116.417969 C 58.179688 115.46875 58.664062 114.566406 59.234375 113.714844 C 59.808594 112.859375 60.457031 112.070312 61.1875 111.34375 C 61.914062 110.617188 62.707031 109.96875 63.5625 109.398438 C 64.417969 108.828125 65.320312 108.347656 66.269531 107.953125 C 67.21875 107.5625 68.199219 107.265625 69.207031 107.0625 C 70.214844 106.863281 71.234375 106.765625 72.261719 106.765625 L 146.203125 106.765625 C 147.230469 106.765625 148.25 106.867188 149.257812 107.066406 C 150.269531 107.269531 151.246094 107.566406 152.199219 107.960938 C 153.148438 108.355469 154.050781 108.839844 154.90625 109.410156 C 155.761719 109.984375 156.550781 110.632812 157.277344 111.359375 C 158.007812 112.089844 158.65625 112.878906 159.226562 113.734375 C 159.800781 114.589844 160.28125 115.496094 160.675781 116.445312 C 161.070312 117.394531 161.367188 118.375 161.570312 119.382812 C 161.773438 120.394531 161.871094 121.414062 161.875 122.441406 L 161.875 196.3125 C 161.871094 197.339844 161.765625 198.363281 161.5625 199.371094 C 161.359375 200.382812 161.058594 201.363281 160.660156 202.3125 C 160.265625 203.265625 159.777344 204.167969 159.203125 205.023438 C 158.628906 205.878906 157.976562 206.667969 157.246094 207.394531 C 156.515625 208.121094 155.722656 208.769531 154.863281 209.339844 C 154.007812 209.910156 153.101562 210.390625 152.148438 210.785156 C 151.199219 211.175781 150.214844 211.472656 149.207031 211.667969 C 148.195312 211.867188 147.175781 211.964844 146.144531 211.964844 Z M 73.363281 195.152344 L 145.011719 195.152344 L 145.011719 123.578125 L 73.363281 123.578125 Z M 73.363281 195.152344 " fill-opacity="1" fill-rule="nonzero"/><path fill="#147e93" d="M 518.855469 145.527344 L 210.230469 145.527344 C 209.679688 145.527344 209.132812 145.472656 208.589844 145.363281 C 208.050781 145.257812 207.523438 145.097656 207.015625 144.886719 C 206.503906 144.675781 206.019531 144.417969 205.5625 144.109375 C 205.101562 143.804688 204.679688 143.453125 204.289062 143.066406 C 203.898438 142.675781 203.550781 142.25 203.242188 141.789062 C 202.9375 141.332031 202.679688 140.847656 202.46875 140.335938 C 202.257812 139.828125 202.097656 139.300781 201.988281 138.761719 C 201.882812 138.21875 201.828125 137.671875 201.828125 137.121094 C 201.828125 136.566406 201.882812 136.019531 201.988281 135.480469 C 202.097656 134.9375 202.257812 134.414062 202.46875 133.902344 C 202.679688 133.394531 202.9375 132.910156 203.242188 132.449219 C 203.550781 131.992188 203.898438 131.566406 204.289062 131.175781 C 204.679688 130.785156 205.101562 130.4375 205.5625 130.128906 C 206.019531 129.824219 206.503906 129.566406 207.015625 129.351562 C 207.523438 129.140625 208.050781 128.984375 208.589844 128.875 C 209.132812 128.765625 209.679688 128.714844 210.230469 128.714844 L 518.855469 128.714844 C 519.40625 128.714844 519.953125 128.765625 520.492188 128.875 C 521.035156 128.984375 521.558594 129.140625 522.070312 129.351562 C 522.578125 129.566406 523.0625 129.824219 523.523438 130.128906 C 523.980469 130.4375 524.40625 130.785156 524.796875 131.175781 C 525.183594 131.566406 525.535156 131.992188 525.839844 132.449219 C 526.148438 132.910156 526.40625 133.394531 526.617188 133.902344 C 526.828125 134.414062 526.988281 134.9375 527.09375 135.480469 C 527.203125 136.019531 527.257812 136.566406 527.257812 137.121094 C 527.257812 137.671875 527.203125 138.21875 527.09375 138.761719 C 526.988281 139.300781 526.828125 139.828125 526.617188 140.335938 C 526.40625 140.847656 526.148438 141.332031 525.839844 141.789062 C 525.535156 142.25 525.183594 142.675781 524.796875 143.066406 C 524.40625 143.453125 523.980469 143.804688 523.523438 144.109375 C 523.0625 144.417969 522.578125 144.675781 522.070312 144.886719 C 521.558594 145.097656 521.035156 145.257812 520.492188 145.363281 C 519.953125 145.472656 519.40625 145.527344 518.855469 145.527344 Z M 518.855469 145.527344 " fill-opacity="1" fill-rule="nonzero"/><path fill="#147e93" d="M 518.855469 189.988281 L 210.230469 189.988281 C 209.679688 189.988281 209.132812 189.9375 208.589844 189.828125 C 208.050781 189.71875 207.523438 189.5625 207.015625 189.347656 C 206.503906 189.136719 206.019531 188.878906 205.5625 188.574219 C 205.101562 188.265625 204.679688 187.917969 204.289062 187.527344 C 203.898438 187.136719 203.550781 186.710938 203.242188 186.253906 C 202.9375 185.792969 202.679688 185.308594 202.46875 184.800781 C 202.257812 184.289062 202.097656 183.765625 201.988281 183.222656 C 201.882812 182.679688 201.828125 182.136719 201.828125 181.582031 C 201.828125 181.03125 201.882812 180.484375 201.988281 179.941406 C 202.097656 179.402344 202.257812 178.875 202.46875 178.367188 C 202.679688 177.855469 202.9375 177.371094 203.242188 176.914062 C 203.550781 176.453125 203.898438 176.027344 204.289062 175.636719 C 204.679688 175.25 205.101562 174.898438 205.5625 174.59375 C 206.019531 174.285156 206.503906 174.027344 207.015625 173.816406 C 207.523438 173.605469 208.050781 173.445312 208.589844 173.335938 C 209.132812 173.230469 209.679688 173.175781 210.230469 173.175781 L 518.855469 173.175781 C 519.40625 173.175781 519.953125 173.230469 520.492188 173.335938 C 521.035156 173.445312 521.558594 173.605469 522.070312 173.816406 C 522.578125 174.027344 523.0625 174.285156 523.523438 174.59375 C 523.980469 174.898438 524.40625 175.25 524.796875 175.636719 C 525.183594 176.027344 525.535156 176.453125 525.839844 176.914062 C 526.148438 177.371094 526.40625 177.855469 526.617188 178.367188 C 526.828125 178.875 526.988281 179.402344 527.09375 179.941406 C 527.203125 180.484375 527.257812 181.03125 527.257812 181.582031 C 527.257812 182.136719 527.203125 182.679688 527.09375 183.222656 C 526.988281 183.765625 526.828125 184.289062 526.617188 184.800781 C 526.40625 185.308594 526.148438 185.792969 525.839844 186.253906 C 525.535156 186.710938 525.183594 187.136719 524.796875 187.527344 C 524.40625 187.917969 523.980469 188.265625 523.523438 188.574219 C 523.0625 188.878906 522.578125 189.136719 522.070312 189.347656 C 521.558594 189.5625 521.035156 189.71875 520.492188 189.828125 C 519.953125 189.9375 519.40625 189.988281 518.855469 189.988281 Z M 518.855469 189.988281 " fill-opacity="1" fill-rule="nonzero"/><path fill="#147e93" d="M 102.199219 353.917969 C 101.085938 353.917969 100.011719 353.707031 98.984375 353.277344 C 97.957031 352.851562 97.046875 352.242188 96.257812 351.457031 L 81.285156 336.476562 C 80.882812 336.085938 80.523438 335.664062 80.207031 335.203125 C 79.890625 334.746094 79.621094 334.257812 79.402344 333.746094 C 79.183594 333.234375 79.015625 332.703125 78.898438 332.15625 C 78.785156 331.613281 78.726562 331.058594 78.722656 330.5 C 78.714844 329.941406 78.765625 329.390625 78.871094 328.84375 C 78.976562 328.292969 79.136719 327.761719 79.347656 327.246094 C 79.558594 326.726562 79.816406 326.238281 80.125 325.773438 C 80.433594 325.308594 80.789062 324.878906 81.183594 324.484375 C 81.574219 324.089844 82.003906 323.738281 82.46875 323.429688 C 82.933594 323.121094 83.425781 322.859375 83.941406 322.648438 C 84.457031 322.4375 84.988281 322.277344 85.539062 322.171875 C 86.085938 322.066406 86.636719 322.015625 87.195312 322.023438 C 87.753906 322.027344 88.304688 322.085938 88.851562 322.203125 C 89.398438 322.316406 89.925781 322.484375 90.4375 322.703125 C 90.953125 322.925781 91.4375 323.191406 91.898438 323.511719 C 92.355469 323.828125 92.777344 324.1875 93.167969 324.589844 L 102.199219 333.625 L 125.195312 310.589844 C 125.585938 310.199219 126.011719 309.851562 126.472656 309.546875 C 126.929688 309.238281 127.414062 308.980469 127.925781 308.769531 C 128.433594 308.558594 128.960938 308.398438 129.5 308.292969 C 130.042969 308.183594 130.589844 308.128906 131.140625 308.128906 C 131.691406 308.128906 132.238281 308.183594 132.78125 308.292969 C 133.320312 308.402344 133.847656 308.558594 134.355469 308.773438 C 134.867188 308.984375 135.351562 309.242188 135.808594 309.550781 C 136.269531 309.855469 136.691406 310.203125 137.082031 310.59375 C 137.472656 310.984375 137.820312 311.410156 138.128906 311.871094 C 138.433594 312.328125 138.691406 312.8125 138.902344 313.324219 C 139.113281 313.832031 139.273438 314.359375 139.382812 314.902344 C 139.488281 315.441406 139.542969 315.988281 139.542969 316.542969 C 139.542969 317.09375 139.488281 317.640625 139.378906 318.183594 C 139.273438 318.722656 139.113281 319.25 138.902344 319.757812 C 138.691406 320.269531 138.429688 320.753906 138.125 321.210938 C 137.816406 321.671875 137.46875 322.097656 137.078125 322.488281 L 108.140625 351.449219 C 107.351562 352.238281 106.445312 352.847656 105.414062 353.273438 C 104.386719 353.703125 103.3125 353.917969 102.199219 353.917969 Z M 102.199219 353.917969 " fill-opacity="1" fill-rule="nonzero"/><path fill="#147e93" d="M 146.144531 383.636719 L 72.261719 383.636719 C 71.230469 383.636719 70.210938 383.535156 69.203125 383.335938 C 68.195312 383.132812 67.214844 382.835938 66.261719 382.441406 C 65.3125 382.050781 64.40625 381.566406 63.550781 380.996094 C 62.695312 380.421875 61.902344 379.773438 61.175781 379.046875 C 60.445312 378.316406 59.796875 377.527344 59.222656 376.667969 C 58.652344 375.8125 58.167969 374.910156 57.773438 373.960938 C 57.378906 373.007812 57.078125 372.027344 56.878906 371.015625 C 56.675781 370.007812 56.574219 368.988281 56.574219 367.957031 L 56.574219 294.089844 C 56.574219 293.058594 56.675781 292.039062 56.878906 291.027344 C 57.078125 290.019531 57.378906 289.039062 57.773438 288.085938 C 58.167969 287.136719 58.652344 286.230469 59.222656 285.375 C 59.796875 284.519531 60.445312 283.726562 61.175781 283 C 61.902344 282.269531 62.695312 281.621094 63.550781 281.046875 C 64.40625 280.476562 65.308594 279.992188 66.261719 279.597656 C 67.210938 279.203125 68.191406 278.90625 69.203125 278.703125 C 70.210938 278.503906 71.230469 278.402344 72.261719 278.402344 L 146.203125 278.402344 C 147.230469 278.402344 148.25 278.503906 149.261719 278.707031 C 150.269531 278.910156 151.25 279.207031 152.199219 279.601562 C 153.148438 279.996094 154.050781 280.480469 154.90625 281.054688 C 155.761719 281.625 156.550781 282.277344 157.28125 283.003906 C 158.007812 283.734375 158.65625 284.523438 159.226562 285.378906 C 159.800781 286.234375 160.28125 287.140625 160.675781 288.089844 C 161.070312 289.042969 161.367188 290.019531 161.570312 291.03125 C 161.773438 292.039062 161.871094 293.058594 161.875 294.089844 L 161.875 367.957031 C 161.871094 368.988281 161.769531 370.011719 161.570312 371.023438 C 161.367188 372.035156 161.066406 373.015625 160.671875 373.96875 C 160.273438 374.921875 159.789062 375.824219 159.214844 376.683594 C 158.640625 377.539062 157.988281 378.332031 157.257812 379.058594 C 156.527344 379.789062 155.734375 380.4375 154.875 381.007812 C 154.015625 381.582031 153.109375 382.0625 152.15625 382.457031 C 151.203125 382.847656 150.21875 383.144531 149.207031 383.34375 C 148.195312 383.542969 147.175781 383.640625 146.144531 383.636719 Z M 73.363281 366.824219 L 145.011719 366.824219 L 145.011719 295.214844 L 73.363281 295.214844 Z M 73.363281 366.824219 " fill-opacity="1" fill-rule="nonzero"/><path fill="#147e93" d="M 518.855469 317.207031 L 210.230469 317.207031 C 209.679688 317.207031 209.132812 317.152344 208.589844 317.046875 C 208.050781 316.9375 207.523438 316.777344 207.015625 316.566406 C 206.503906 316.355469 206.019531 316.097656 205.5625 315.789062 C 205.101562 315.484375 204.679688 315.136719 204.289062 314.746094 C 203.898438 314.355469 203.550781 313.929688 203.242188 313.472656 C 202.9375 313.011719 202.679688 312.527344 202.46875 312.015625 C 202.257812 311.507812 202.097656 310.980469 201.988281 310.441406 C 201.882812 309.898438 201.828125 309.351562 201.828125 308.800781 C 201.828125 308.25 201.882812 307.703125 201.988281 307.160156 C 202.097656 306.617188 202.257812 306.09375 202.46875 305.582031 C 202.679688 305.074219 202.9375 304.589844 203.242188 304.128906 C 203.550781 303.671875 203.898438 303.246094 204.289062 302.855469 C 204.679688 302.464844 205.101562 302.117188 205.5625 301.8125 C 206.019531 301.503906 206.503906 301.246094 207.015625 301.035156 C 207.523438 300.824219 208.050781 300.664062 208.589844 300.554688 C 209.132812 300.449219 209.679688 300.394531 210.230469 300.394531 L 518.855469 300.394531 C 519.40625 300.394531 519.953125 300.449219 520.492188 300.554688 C 521.035156 300.664062 521.558594 300.824219 522.070312 301.035156 C 522.578125 301.246094 523.0625 301.503906 523.523438 301.8125 C 523.980469 302.117188 524.40625 302.464844 524.796875 302.855469 C 525.183594 303.246094 525.535156 303.671875 525.839844 304.128906 C 526.148438 304.589844 526.40625 305.074219 526.617188 305.582031 C 526.828125 306.09375 526.988281 306.617188 527.09375 307.160156 C 527.203125 307.703125 527.257812 308.25 527.257812 308.800781 C 527.257812 309.351562 527.203125 309.898438 527.09375 310.441406 C 526.988281 310.980469 526.828125 311.507812 526.617188 312.015625 C 526.40625 312.527344 526.148438 313.011719 525.839844 313.472656 C 525.535156 313.929688 525.183594 314.355469 524.796875 314.746094 C 524.40625 315.136719 523.980469 315.484375 523.523438 315.789062 C 523.0625 316.097656 522.578125 316.355469 522.070312 316.566406 C 521.558594 316.777344 521.035156 316.9375 520.492188 317.046875 C 519.953125 317.152344 519.40625 317.207031 518.855469 317.207031 Z M 518.855469 317.207031 " fill-opacity="1" fill-rule="nonzero"/><path fill="#147e93" d="M 518.855469 361.652344 L 210.230469 361.652344 C 209.679688 361.652344 209.132812 361.597656 208.589844 361.492188 C 208.050781 361.382812 207.523438 361.222656 207.015625 361.011719 C 206.503906 360.800781 206.019531 360.542969 205.5625 360.234375 C 205.101562 359.929688 204.679688 359.582031 204.289062 359.191406 C 203.898438 358.800781 203.550781 358.375 203.242188 357.917969 C 202.9375 357.457031 202.679688 356.972656 202.46875 356.464844 C 202.257812 355.953125 202.097656 355.429688 201.988281 354.886719 C 201.882812 354.34375 201.828125 353.796875 201.828125 353.246094 C 201.828125 352.695312 201.882812 352.148438 201.988281 351.605469 C 202.097656 351.066406 202.257812 350.539062 202.46875 350.027344 C 202.679688 349.519531 202.9375 349.035156 203.242188 348.574219 C 203.550781 348.117188 203.898438 347.691406 204.289062 347.300781 C 204.679688 346.910156 205.101562 346.5625 205.5625 346.257812 C 206.019531 345.949219 206.503906 345.691406 207.015625 345.480469 C 207.523438 345.269531 208.050781 345.109375 208.589844 345 C 209.132812 344.894531 209.679688 344.839844 210.230469 344.839844 L 518.855469 344.839844 C 519.40625 344.839844 519.953125 344.894531 520.492188 345 C 521.035156 345.109375 521.558594 345.269531 522.070312 345.480469 C 522.578125 345.691406 523.0625 345.949219 523.523438 346.257812 C 523.980469 346.5625 524.40625 346.910156 524.796875 347.300781 C 525.183594 347.691406 525.535156 348.117188 525.839844 348.574219 C 526.148438 349.035156 526.40625 349.519531 526.617188 350.027344 C 526.828125 350.539062 526.988281 351.066406 527.09375 351.605469 C 527.203125 352.148438 527.257812 352.695312 527.257812 353.246094 C 527.257812 353.796875 527.203125 354.34375 527.09375 354.886719 C 526.988281 355.429688 526.828125 355.953125 526.617188 356.464844 C 526.40625 356.972656 526.148438 357.457031 525.839844 357.917969 C 525.535156 358.375 525.183594 358.800781 524.796875 359.191406 C 524.40625 359.582031 523.980469 359.929688 523.523438 360.234375 C 523.0625 360.542969 522.578125 360.800781 522.070312 361.011719 C 521.558594 361.222656 521.035156 361.382812 520.492188 361.492188 C 519.953125 361.597656 519.40625 361.652344 518.855469 361.652344 Z M 518.855469 361.652344 " fill-opacity="1" fill-rule="nonzero"/><path fill="#147e93" d="M 102.199219 525.589844 C 101.085938 525.589844 100.011719 525.378906 98.984375 524.949219 C 97.957031 524.523438 97.046875 523.917969 96.257812 523.128906 L 81.285156 508.148438 C 80.882812 507.757812 80.523438 507.335938 80.207031 506.875 C 79.890625 506.417969 79.621094 505.929688 79.402344 505.417969 C 79.183594 504.90625 79.015625 504.375 78.898438 503.828125 C 78.785156 503.285156 78.726562 502.730469 78.722656 502.171875 C 78.714844 501.617188 78.765625 501.0625 78.871094 500.515625 C 78.976562 499.964844 79.136719 499.433594 79.347656 498.917969 C 79.558594 498.402344 79.816406 497.910156 80.125 497.445312 C 80.433594 496.980469 80.789062 496.550781 81.183594 496.15625 C 81.574219 495.761719 82.003906 495.410156 82.46875 495.101562 C 82.933594 494.792969 83.425781 494.53125 83.941406 494.320312 C 84.457031 494.109375 84.988281 493.949219 85.539062 493.84375 C 86.085938 493.738281 86.636719 493.6875 87.195312 493.695312 C 87.753906 493.699219 88.304688 493.757812 88.851562 493.875 C 89.398438 493.988281 89.925781 494.15625 90.4375 494.375 C 90.953125 494.597656 91.4375 494.867188 91.898438 495.183594 C 92.355469 495.5 92.777344 495.859375 93.167969 496.261719 L 102.199219 505.296875 L 125.195312 482.273438 C 125.589844 481.890625 126.015625 481.554688 126.472656 481.257812 C 126.929688 480.960938 127.414062 480.710938 127.921875 480.511719 C 128.425781 480.308594 128.949219 480.15625 129.484375 480.054688 C 130.019531 479.957031 130.5625 479.90625 131.109375 479.910156 C 131.652344 479.917969 132.191406 479.972656 132.726562 480.082031 C 133.261719 480.195312 133.78125 480.355469 134.285156 480.566406 C 134.785156 480.777344 135.265625 481.035156 135.71875 481.339844 C 136.171875 481.644531 136.589844 481.988281 136.976562 482.375 C 137.363281 482.761719 137.707031 483.179688 138.011719 483.632812 C 138.316406 484.085938 138.574219 484.5625 138.785156 485.066406 C 138.996094 485.570312 139.15625 486.089844 139.265625 486.625 C 139.375 487.160156 139.433594 487.699219 139.4375 488.246094 C 139.441406 488.792969 139.394531 489.332031 139.292969 489.867188 C 139.191406 490.40625 139.039062 490.925781 138.839844 491.433594 C 138.636719 491.941406 138.386719 492.421875 138.089844 492.882812 C 137.792969 493.339844 137.457031 493.765625 137.078125 494.160156 L 108.140625 523.128906 C 107.351562 523.917969 106.441406 524.523438 105.414062 524.949219 C 104.382812 525.378906 103.3125 525.589844 102.199219 525.589844 Z M 102.199219 525.589844 " fill-opacity="1" fill-rule="nonzero"/><path fill="#147e93" d="M 146.144531 555.316406 L 72.261719 555.316406 C 71.230469 555.316406 70.214844 555.214844 69.203125 555.015625 C 68.195312 554.8125 67.214844 554.515625 66.261719 554.121094 C 65.3125 553.726562 64.410156 553.246094 63.554688 552.671875 C 62.695312 552.101562 61.90625 551.449219 61.175781 550.722656 C 60.449219 549.996094 59.796875 549.203125 59.226562 548.347656 C 58.652344 547.492188 58.171875 546.589844 57.773438 545.636719 C 57.378906 544.6875 57.082031 543.707031 56.878906 542.699219 C 56.675781 541.6875 56.574219 540.667969 56.574219 539.636719 L 56.574219 465.769531 C 56.574219 464.738281 56.675781 463.71875 56.878906 462.710938 C 57.078125 461.699219 57.378906 460.71875 57.773438 459.765625 C 58.167969 458.816406 58.652344 457.910156 59.222656 457.054688 C 59.796875 456.199219 60.445312 455.40625 61.175781 454.679688 C 61.902344 453.949219 62.695312 453.300781 63.550781 452.726562 C 64.40625 452.15625 65.308594 451.671875 66.261719 451.277344 C 67.210938 450.882812 68.191406 450.585938 69.203125 450.386719 C 70.210938 450.183594 71.230469 450.082031 72.261719 450.082031 L 146.203125 450.082031 C 147.230469 450.085938 148.25 450.1875 149.261719 450.386719 C 150.269531 450.589844 151.25 450.886719 152.199219 451.285156 C 153.148438 451.679688 154.050781 452.160156 154.90625 452.734375 C 155.761719 453.308594 156.550781 453.957031 157.28125 454.683594 C 158.007812 455.414062 158.65625 456.203125 159.226562 457.0625 C 159.800781 457.917969 160.28125 458.820312 160.675781 459.769531 C 161.070312 460.722656 161.367188 461.703125 161.570312 462.710938 C 161.773438 463.71875 161.871094 464.738281 161.875 465.769531 L 161.875 539.636719 C 161.871094 540.667969 161.769531 541.691406 161.566406 542.703125 C 161.363281 543.714844 161.066406 544.695312 160.667969 545.648438 C 160.273438 546.601562 159.789062 547.503906 159.214844 548.359375 C 158.640625 549.21875 157.988281 550.011719 157.257812 550.738281 C 156.527344 551.464844 155.730469 552.117188 154.871094 552.6875 C 154.015625 553.257812 153.109375 553.742188 152.15625 554.132812 C 151.203125 554.527344 150.21875 554.824219 149.207031 555.019531 C 148.195312 555.21875 147.175781 555.320312 146.144531 555.316406 Z M 73.363281 538.503906 L 145.011719 538.503906 L 145.011719 466.894531 L 73.363281 466.894531 Z M 73.363281 538.503906 " fill-opacity="1" fill-rule="nonzero"/><path fill="#147e93" d="M 518.855469 488.878906 L 210.230469 488.878906 C 209.679688 488.878906 209.132812 488.824219 208.589844 488.71875 C 208.050781 488.609375 207.523438 488.449219 207.015625 488.238281 C 206.503906 488.027344 206.019531 487.769531 205.5625 487.460938 C 205.101562 487.15625 204.679688 486.808594 204.289062 486.417969 C 203.898438 486.027344 203.550781 485.601562 203.242188 485.144531 C 202.9375 484.683594 202.679688 484.199219 202.46875 483.691406 C 202.257812 483.179688 202.097656 482.652344 201.988281 482.113281 C 201.882812 481.570312 201.828125 481.023438 201.828125 480.472656 C 201.828125 479.921875 201.882812 479.375 201.988281 478.832031 C 202.097656 478.289062 202.257812 477.765625 202.46875 477.253906 C 202.679688 476.746094 202.9375 476.261719 203.242188 475.800781 C 203.550781 475.34375 203.898438 474.917969 204.289062 474.527344 C 204.679688 474.136719 205.101562 473.789062 205.5625 473.484375 C 206.019531 473.175781 206.503906 472.917969 207.015625 472.707031 C 207.523438 472.496094 208.050781 472.335938 208.589844 472.226562 C 209.132812 472.121094 209.679688 472.066406 210.230469 472.066406 L 518.855469 472.066406 C 519.40625 472.066406 519.953125 472.121094 520.492188 472.226562 C 521.035156 472.335938 521.558594 472.496094 522.070312 472.707031 C 522.578125 472.917969 523.0625 473.175781 523.523438 473.484375 C 523.980469 473.789062 524.40625 474.136719 524.796875 474.527344 C 525.183594 474.917969 525.535156 475.34375 525.839844 475.800781 C 526.148438 476.261719 526.40625 476.746094 526.617188 477.253906 C 526.828125 477.765625 526.988281 478.289062 527.09375 478.832031 C 527.203125 479.375 527.257812 479.921875 527.257812 480.472656 C 527.257812 481.023438 527.203125 481.570312 527.09375 482.113281 C 526.988281 482.652344 526.828125 483.179688 526.617188 483.691406 C 526.40625 484.199219 526.148438 484.683594 525.839844 485.144531 C 525.535156 485.601562 525.183594 486.027344 524.796875 486.417969 C 524.40625 486.808594 523.980469 487.15625 523.523438 487.460938 C 523.0625 487.769531 522.578125 488.027344 522.070312 488.238281 C 521.558594 488.449219 521.035156 488.609375 520.492188 488.71875 C 519.953125 488.824219 519.40625 488.878906 518.855469 488.878906 Z M 518.855469 488.878906 " fill-opacity="1" fill-rule="nonzero"/><path fill="#147e93" d="M 518.855469 533.332031 L 210.230469 533.332031 C 209.679688 533.332031 209.132812 533.28125 208.589844 533.171875 C 208.050781 533.0625 207.523438 532.90625 207.015625 532.695312 C 206.503906 532.480469 206.019531 532.222656 205.5625 531.917969 C 205.101562 531.609375 204.679688 531.261719 204.289062 530.871094 C 203.898438 530.480469 203.550781 530.054688 203.242188 529.597656 C 202.9375 529.136719 202.679688 528.652344 202.46875 528.144531 C 202.257812 527.632812 202.097656 527.109375 201.988281 526.566406 C 201.882812 526.023438 201.828125 525.480469 201.828125 524.925781 C 201.828125 524.375 201.882812 523.828125 201.988281 523.285156 C 202.097656 522.746094 202.257812 522.21875 202.46875 521.710938 C 202.679688 521.199219 202.9375 520.714844 203.242188 520.257812 C 203.550781 519.796875 203.898438 519.371094 204.289062 518.980469 C 204.679688 518.59375 205.101562 518.242188 205.5625 517.9375 C 206.019531 517.628906 206.503906 517.371094 207.015625 517.160156 C 207.523438 516.949219 208.050781 516.789062 208.589844 516.683594 C 209.132812 516.574219 209.679688 516.519531 210.230469 516.519531 L 518.855469 516.519531 C 519.40625 516.519531 519.953125 516.574219 520.492188 516.683594 C 521.035156 516.789062 521.558594 516.949219 522.070312 517.160156 C 522.578125 517.371094 523.0625 517.628906 523.523438 517.9375 C 523.980469 518.242188 524.40625 518.59375 524.796875 518.980469 C 525.183594 519.371094 525.535156 519.796875 525.839844 520.257812 C 526.148438 520.714844 526.40625 521.199219 526.617188 521.710938 C 526.828125 522.21875 526.988281 522.746094 527.09375 523.285156 C 527.203125 523.828125 527.257812 524.375 527.257812 524.925781 C 527.257812 525.480469 527.203125 526.023438 527.09375 526.566406 C 526.988281 527.109375 526.828125 527.632812 526.617188 528.144531 C 526.40625 528.652344 526.148438 529.136719 525.839844 529.597656 C 525.535156 530.054688 525.183594 530.480469 524.796875 530.871094 C 524.40625 531.261719 523.980469 531.609375 523.523438 531.917969 C 523.0625 532.222656 522.578125 532.480469 522.070312 532.695312 C 521.558594 532.90625 521.035156 533.0625 520.492188 533.171875 C 519.953125 533.28125 519.40625 533.332031 518.855469 533.332031 Z M 518.855469 533.332031 " fill-opacity="1" fill-rule="nonzero"/><path fill="#147e93" d="M 102.199219 697.269531 C 101.085938 697.269531 100.011719 697.058594 98.984375 696.628906 C 97.957031 696.203125 97.046875 695.597656 96.257812 694.808594 L 81.285156 679.828125 C 80.882812 679.441406 80.523438 679.015625 80.207031 678.558594 C 79.890625 678.097656 79.621094 677.613281 79.402344 677.097656 C 79.183594 676.585938 79.015625 676.054688 78.898438 675.511719 C 78.785156 674.964844 78.726562 674.410156 78.722656 673.855469 C 78.714844 673.296875 78.765625 672.742188 78.871094 672.195312 C 78.976562 671.644531 79.136719 671.113281 79.347656 670.597656 C 79.558594 670.082031 79.816406 669.589844 80.125 669.125 C 80.433594 668.660156 80.789062 668.230469 81.183594 667.835938 C 81.574219 667.441406 82.003906 667.089844 82.46875 666.78125 C 82.933594 666.472656 83.425781 666.210938 83.941406 666 C 84.457031 665.789062 84.988281 665.628906 85.539062 665.523438 C 86.085938 665.421875 86.636719 665.371094 87.195312 665.375 C 87.753906 665.378906 88.304688 665.4375 88.851562 665.554688 C 89.398438 665.667969 89.925781 665.835938 90.4375 666.058594 C 90.953125 666.277344 91.4375 666.546875 91.898438 666.863281 C 92.355469 667.179688 92.777344 667.539062 93.167969 667.941406 L 102.199219 676.976562 L 125.195312 653.953125 C 125.59375 653.59375 126.019531 653.273438 126.472656 652.996094 C 126.929688 652.714844 127.410156 652.484375 127.910156 652.296875 C 128.410156 652.109375 128.921875 651.972656 129.449219 651.882812 C 129.976562 651.792969 130.507812 651.753906 131.042969 651.765625 C 131.578125 651.777344 132.105469 651.839844 132.625 651.953125 C 133.148438 652.066406 133.65625 652.230469 134.148438 652.4375 C 134.640625 652.648438 135.105469 652.902344 135.550781 653.203125 C 135.992188 653.5 136.402344 653.839844 136.78125 654.214844 C 137.160156 654.59375 137.5 655.003906 137.800781 655.445312 C 138.101562 655.886719 138.355469 656.355469 138.566406 656.84375 C 138.777344 657.335938 138.941406 657.84375 139.054688 658.363281 C 139.171875 658.886719 139.234375 659.414062 139.25 659.949219 C 139.265625 660.484375 139.226562 661.015625 139.140625 661.542969 C 139.054688 662.070312 138.917969 662.585938 138.730469 663.085938 C 138.546875 663.585938 138.316406 664.066406 138.039062 664.523438 C 137.761719 664.980469 137.445312 665.410156 137.085938 665.804688 L 108.140625 694.808594 C 107.351562 695.597656 106.441406 696.203125 105.414062 696.632812 C 104.382812 697.058594 103.3125 697.269531 102.199219 697.269531 Z M 102.199219 697.269531 " fill-opacity="1" fill-rule="nonzero"/><path fill="#147e93" d="M 146.144531 726.996094 L 72.261719 726.996094 C 71.230469 726.996094 70.210938 726.894531 69.203125 726.695312 C 68.191406 726.492188 67.210938 726.195312 66.261719 725.800781 C 65.308594 725.40625 64.40625 724.921875 63.550781 724.351562 C 62.695312 723.777344 61.902344 723.128906 61.175781 722.402344 C 60.445312 721.671875 59.796875 720.878906 59.222656 720.023438 C 58.652344 719.167969 58.167969 718.265625 57.773438 717.3125 C 57.378906 716.363281 57.078125 715.378906 56.878906 714.371094 C 56.675781 713.359375 56.574219 712.339844 56.574219 711.308594 L 56.574219 637.449219 C 56.574219 636.417969 56.675781 635.398438 56.878906 634.390625 C 57.078125 633.378906 57.378906 632.398438 57.773438 631.449219 C 58.167969 630.496094 58.652344 629.59375 59.222656 628.734375 C 59.796875 627.878906 60.445312 627.085938 61.175781 626.359375 C 61.902344 625.632812 62.695312 624.980469 63.550781 624.410156 C 64.40625 623.835938 65.308594 623.351562 66.261719 622.960938 C 67.210938 622.566406 68.191406 622.265625 69.203125 622.066406 C 70.210938 621.863281 71.230469 621.761719 72.261719 621.761719 L 146.203125 621.761719 C 147.230469 621.765625 148.25 621.867188 149.261719 622.070312 C 150.269531 622.269531 151.25 622.570312 152.199219 622.964844 C 153.148438 623.359375 154.050781 623.84375 154.90625 624.414062 C 155.761719 624.988281 156.550781 625.636719 157.28125 626.367188 C 158.007812 627.09375 158.65625 627.886719 159.226562 628.742188 C 159.800781 629.597656 160.28125 630.5 160.675781 631.453125 C 161.070312 632.402344 161.367188 633.382812 161.570312 634.390625 C 161.773438 635.402344 161.871094 636.421875 161.875 637.449219 L 161.875 711.308594 C 161.871094 712.34375 161.769531 713.363281 161.570312 714.375 C 161.367188 715.386719 161.066406 716.371094 160.671875 717.324219 C 160.273438 718.273438 159.789062 719.179688 159.214844 720.039062 C 158.640625 720.894531 157.988281 721.6875 157.257812 722.414062 C 156.527344 723.144531 155.734375 723.792969 154.875 724.367188 C 154.015625 724.9375 153.109375 725.421875 152.15625 725.8125 C 151.203125 726.207031 150.222656 726.503906 149.210938 726.703125 C 148.199219 726.902344 147.175781 727 146.144531 726.996094 Z M 73.363281 710.183594 L 145.011719 710.183594 L 145.011719 638.574219 L 73.363281 638.574219 Z M 73.363281 710.183594 " fill-opacity="1" fill-rule="nonzero"/><path fill="#147e93" d="M 422.585938 660.558594 L 210.230469 660.558594 C 209.679688 660.558594 209.132812 660.503906 208.589844 660.398438 C 208.050781 660.289062 207.523438 660.128906 207.015625 659.917969 C 206.503906 659.707031 206.019531 659.449219 205.5625 659.144531 C 205.101562 658.835938 204.679688 658.488281 204.289062 658.097656 C 203.898438 657.707031 203.550781 657.28125 203.242188 656.824219 C 202.9375 656.363281 202.679688 655.878906 202.46875 655.371094 C 202.257812 654.859375 202.097656 654.335938 201.988281 653.792969 C 201.882812 653.25 201.828125 652.703125 201.828125 652.152344 C 201.828125 651.601562 201.882812 651.054688 201.988281 650.511719 C 202.097656 649.972656 202.257812 649.445312 202.46875 648.9375 C 202.679688 648.425781 202.9375 647.941406 203.242188 647.480469 C 203.550781 647.023438 203.898438 646.597656 204.289062 646.207031 C 204.679688 645.816406 205.101562 645.46875 205.5625 645.164062 C 206.019531 644.855469 206.503906 644.597656 207.015625 644.386719 C 207.523438 644.175781 208.050781 644.015625 208.589844 643.90625 C 209.132812 643.800781 209.679688 643.746094 210.230469 643.746094 L 422.585938 643.746094 C 423.136719 643.746094 423.683594 643.800781 424.226562 643.90625 C 424.765625 644.015625 425.292969 644.175781 425.800781 644.386719 C 426.3125 644.597656 426.796875 644.855469 427.253906 645.164062 C 427.714844 645.46875 428.136719 645.816406 428.527344 646.207031 C 428.917969 646.597656 429.265625 647.023438 429.574219 647.480469 C 429.878906 647.941406 430.136719 648.425781 430.347656 648.9375 C 430.558594 649.445312 430.71875 649.972656 430.828125 650.511719 C 430.933594 651.054688 430.988281 651.601562 430.988281 652.152344 C 430.988281 652.703125 430.933594 653.25 430.828125 653.792969 C 430.71875 654.335938 430.558594 654.859375 430.347656 655.371094 C 430.136719 655.878906 429.878906 656.363281 429.574219 656.824219 C 429.265625 657.28125 428.917969 657.707031 428.527344 658.097656 C 428.136719 658.488281 427.714844 658.835938 427.253906 659.144531 C 426.796875 659.449219 426.3125 659.707031 425.800781 659.917969 C 425.292969 660.128906 424.765625 660.289062 424.226562 660.398438 C 423.683594 660.503906 423.136719 660.558594 422.585938 660.558594 Z M 422.585938 660.558594 " fill-opacity="1" fill-rule="nonzero"/><path fill="#147e93" d="M 401.511719 705.003906 L 210.230469 705.003906 C 209.679688 705.003906 209.132812 704.953125 208.589844 704.84375 C 208.050781 704.734375 207.523438 704.578125 207.015625 704.367188 C 206.503906 704.152344 206.019531 703.894531 205.5625 703.589844 C 205.101562 703.28125 204.679688 702.933594 204.289062 702.542969 C 203.898438 702.152344 203.550781 701.726562 203.242188 701.269531 C 202.9375 700.808594 202.679688 700.324219 202.46875 699.816406 C 202.257812 699.304688 202.097656 698.78125 201.988281 698.238281 C 201.882812 697.699219 201.828125 697.152344 201.828125 696.597656 C 201.828125 696.046875 201.882812 695.5 201.988281 694.957031 C 202.097656 694.417969 202.257812 693.890625 202.46875 693.382812 C 202.679688 692.871094 202.9375 692.386719 203.242188 691.929688 C 203.550781 691.46875 203.898438 691.042969 204.289062 690.652344 C 204.679688 690.265625 205.101562 689.914062 205.5625 689.609375 C 206.019531 689.300781 206.503906 689.042969 207.015625 688.832031 C 207.523438 688.621094 208.050781 688.460938 208.589844 688.355469 C 209.132812 688.246094 209.679688 688.191406 210.230469 688.191406 L 401.511719 688.191406 C 402.066406 688.191406 402.609375 688.246094 403.152344 688.355469 C 403.691406 688.460938 404.21875 688.621094 404.726562 688.832031 C 405.238281 689.042969 405.722656 689.300781 406.179688 689.609375 C 406.640625 689.914062 407.0625 690.265625 407.453125 690.652344 C 407.84375 691.042969 408.191406 691.46875 408.5 691.929688 C 408.804688 692.386719 409.066406 692.871094 409.277344 693.382812 C 409.488281 693.890625 409.644531 694.417969 409.753906 694.957031 C 409.863281 695.5 409.914062 696.046875 409.914062 696.597656 C 409.914062 697.152344 409.863281 697.699219 409.753906 698.238281 C 409.644531 698.78125 409.488281 699.304688 409.277344 699.816406 C 409.066406 700.324219 408.804688 700.808594 408.5 701.269531 C 408.191406 701.726562 407.84375 702.152344 407.453125 702.542969 C 407.0625 702.933594 406.640625 703.28125 406.179688 703.589844 C 405.722656 703.894531 405.238281 704.152344 404.726562 704.367188 C 404.21875 704.578125 403.691406 704.734375 403.152344 704.84375 C 402.609375 704.953125 402.066406 705.003906 401.511719 705.003906 Z M 401.511719 705.003906 " fill-opacity="1" fill-rule="nonzero"/><path fill="#147e93" d="M 522.9375 684.996094 C 521.820312 685 520.75 684.785156 519.71875 684.359375 C 518.6875 683.933594 517.777344 683.324219 516.988281 682.535156 L 467.320312 632.765625 C 466.933594 632.375 466.585938 631.953125 466.277344 631.492188 C 465.972656 631.035156 465.714844 630.550781 465.503906 630.042969 C 465.292969 629.53125 465.132812 629.007812 465.027344 628.464844 C 464.917969 627.925781 464.867188 627.378906 464.867188 626.828125 C 464.867188 626.277344 464.917969 625.730469 465.027344 625.191406 C 465.132812 624.648438 465.292969 624.125 465.503906 623.613281 C 465.714844 623.105469 465.972656 622.621094 466.277344 622.160156 C 466.585938 621.703125 466.933594 621.277344 467.320312 620.886719 L 732.320312 355.761719 C 734.335938 353.730469 736.535156 351.917969 738.910156 350.324219 C 741.289062 348.730469 743.800781 347.386719 746.441406 346.289062 C 749.085938 345.195312 751.8125 344.367188 754.617188 343.8125 C 757.425781 343.257812 760.261719 342.984375 763.121094 342.992188 L 763.191406 342.992188 C 765.328125 342.996094 767.453125 343.15625 769.566406 343.472656 C 771.683594 343.792969 773.761719 344.265625 775.804688 344.890625 C 777.851562 345.511719 779.839844 346.285156 781.769531 347.203125 C 783.703125 348.121094 785.554688 349.175781 787.332031 350.367188 C 789.105469 351.558594 790.785156 352.875 792.367188 354.3125 C 793.949219 355.75 795.417969 357.296875 796.769531 358.953125 C 798.125 360.609375 799.351562 362.355469 800.449219 364.191406 C 801.542969 366.027344 802.5 367.933594 803.316406 369.910156 C 804.132812 371.886719 804.800781 373.914062 805.316406 375.988281 C 805.835938 378.0625 806.199219 380.167969 806.40625 382.296875 C 806.613281 384.425781 806.664062 386.558594 806.558594 388.691406 C 806.453125 390.828125 806.191406 392.945312 805.769531 395.042969 C 805.351562 397.140625 804.785156 399.199219 804.0625 401.210938 C 803.339844 403.226562 802.476562 405.175781 801.46875 407.0625 C 800.460938 408.949219 799.320312 410.75 798.046875 412.46875 C 796.773438 414.1875 795.378906 415.800781 793.867188 417.3125 L 528.878906 682.535156 C 528.089844 683.324219 527.179688 683.929688 526.152344 684.359375 C 525.121094 684.785156 524.050781 684.996094 522.9375 684.996094 Z M 485.125 626.832031 L 522.9375 664.703125 L 781.984375 405.453125 C 782.914062 404.523438 783.769531 403.53125 784.550781 402.476562 C 785.332031 401.421875 786.03125 400.316406 786.652344 399.160156 C 787.269531 398.003906 787.800781 396.804688 788.246094 395.570312 C 788.6875 394.332031 789.039062 393.070312 789.292969 391.785156 C 789.550781 390.496094 789.710938 389.199219 789.777344 387.886719 C 789.84375 386.574219 789.8125 385.265625 789.683594 383.960938 C 789.558594 382.652344 789.335938 381.363281 789.015625 380.089844 C 788.699219 378.816406 788.289062 377.570312 787.789062 376.355469 C 787.289062 375.144531 786.703125 373.972656 786.03125 372.847656 C 785.355469 371.71875 784.605469 370.648438 783.773438 369.632812 C 782.941406 368.617188 782.042969 367.664062 781.070312 366.78125 C 780.101562 365.898438 779.070312 365.089844 777.980469 364.359375 C 776.890625 363.628906 775.753906 362.980469 774.566406 362.417969 C 773.382812 361.855469 772.164062 361.378906 770.90625 360.996094 C 769.652344 360.613281 768.375 360.324219 767.078125 360.128906 C 765.78125 359.929688 764.476562 359.832031 763.164062 359.828125 C 761.40625 359.820312 759.667969 359.988281 757.941406 360.328125 C 756.21875 360.664062 754.542969 361.171875 752.921875 361.84375 C 751.296875 362.511719 749.753906 363.335938 748.292969 364.3125 C 746.832031 365.289062 745.484375 366.402344 744.242188 367.648438 Z M 485.125 626.832031 " fill-opacity="1" fill-rule="nonzero"/><path fill="#147e93" d="M 771.347656 436.457031 C 770.234375 436.457031 769.160156 436.246094 768.132812 435.820312 C 767.101562 435.390625 766.195312 434.785156 765.40625 433.992188 L 715.707031 384.273438 C 715.316406 383.886719 714.96875 383.460938 714.664062 383 C 714.355469 382.542969 714.097656 382.058594 713.886719 381.546875 C 713.675781 381.039062 713.515625 380.511719 713.410156 379.972656 C 713.300781 379.429688 713.246094 378.882812 713.246094 378.332031 C 713.246094 377.78125 713.300781 377.234375 713.410156 376.691406 C 713.515625 376.152344 713.675781 375.625 713.886719 375.117188 C 714.097656 374.605469 714.355469 374.121094 714.664062 373.660156 C 714.96875 373.203125 715.316406 372.777344 715.707031 372.386719 L 732.34375 355.742188 C 733.351562 354.734375 734.40625 353.777344 735.511719 352.871094 C 736.613281 351.964844 737.757812 351.117188 738.941406 350.324219 C 740.128906 349.53125 741.347656 348.800781 742.605469 348.125 C 743.863281 347.453125 745.152344 346.84375 746.46875 346.296875 C 747.785156 345.753906 749.128906 345.273438 750.492188 344.859375 C 751.855469 344.445312 753.238281 344.097656 754.636719 343.820312 C 756.035156 343.539062 757.445312 343.332031 758.863281 343.191406 C 760.285156 343.050781 761.707031 342.980469 763.132812 342.980469 C 764.558594 342.980469 765.980469 343.050781 767.398438 343.191406 C 768.820312 343.332031 770.226562 343.539062 771.625 343.816406 C 773.027344 344.097656 774.40625 344.441406 775.773438 344.855469 C 777.136719 345.269531 778.476562 345.75 779.796875 346.296875 C 781.113281 346.84375 782.398438 347.453125 783.65625 348.125 C 784.914062 348.796875 786.136719 349.527344 787.324219 350.320312 C 788.507812 351.113281 789.652344 351.964844 790.753906 352.867188 C 791.859375 353.773438 792.914062 354.730469 793.921875 355.738281 C 794.929688 356.746094 795.886719 357.804688 796.792969 358.90625 C 797.695312 360.007812 798.546875 361.152344 799.335938 362.339844 C 800.128906 363.527344 800.863281 364.75 801.535156 366.007812 C 802.207031 367.265625 802.816406 368.554688 803.363281 369.871094 C 803.90625 371.1875 804.386719 372.53125 804.800781 373.894531 C 805.214844 375.261719 805.5625 376.644531 805.839844 378.042969 C 806.117188 379.441406 806.328125 380.851562 806.46875 382.273438 C 806.605469 383.691406 806.675781 385.117188 806.675781 386.542969 C 806.675781 387.96875 806.609375 389.390625 806.46875 390.8125 C 806.328125 392.230469 806.117188 393.640625 805.839844 395.039062 C 805.5625 396.441406 805.21875 397.824219 804.804688 399.1875 C 804.390625 400.554688 803.910156 401.894531 803.363281 403.214844 C 802.816406 404.53125 802.210938 405.820312 801.535156 407.078125 C 800.863281 408.335938 800.132812 409.558594 799.339844 410.746094 C 798.546875 411.929688 797.699219 413.078125 796.796875 414.179688 C 795.890625 415.28125 794.933594 416.339844 793.925781 417.347656 L 777.289062 433.992188 C 776.503906 434.785156 775.59375 435.390625 774.566406 435.820312 C 773.535156 436.246094 772.464844 436.457031 771.347656 436.457031 Z M 733.539062 378.296875 L 771.347656 416.128906 L 782.042969 405.425781 C 782.660156 404.804688 783.242188 404.15625 783.796875 403.480469 C 784.347656 402.800781 784.863281 402.097656 785.347656 401.371094 C 785.832031 400.640625 786.277344 399.890625 786.6875 399.121094 C 787.097656 398.347656 787.464844 397.558594 787.796875 396.75 C 788.128906 395.941406 788.421875 395.117188 788.671875 394.28125 C 788.925781 393.445312 789.136719 392.597656 789.304688 391.738281 C 789.472656 390.882812 789.597656 390.019531 789.683594 389.148438 C 789.765625 388.277344 789.808594 387.40625 789.804688 386.53125 C 789.804688 385.660156 789.757812 384.785156 789.671875 383.917969 C 789.585938 383.046875 789.457031 382.183594 789.285156 381.328125 C 789.113281 380.46875 788.898438 379.625 788.644531 378.789062 C 788.390625 377.953125 788.09375 377.128906 787.761719 376.324219 C 787.425781 375.515625 787.050781 374.726562 786.640625 373.957031 C 786.226562 373.183594 785.777344 372.4375 785.292969 371.710938 C 784.804688 370.984375 784.285156 370.28125 783.730469 369.609375 C 783.179688 368.933594 782.589844 368.285156 781.972656 367.667969 C 781.355469 367.050781 780.710938 366.464844 780.035156 365.910156 C 779.359375 365.355469 778.660156 364.832031 777.933594 364.347656 C 777.207031 363.863281 776.457031 363.414062 775.6875 363 C 774.917969 362.585938 774.128906 362.214844 773.324219 361.878906 C 772.515625 361.542969 771.695312 361.25 770.859375 360.992188 C 770.023438 360.738281 769.175781 360.527344 768.320312 360.355469 C 767.464844 360.183594 766.601562 360.050781 765.734375 359.964844 C 764.863281 359.878906 763.992188 359.835938 763.117188 359.832031 C 762.246094 359.832031 761.375 359.871094 760.503906 359.957031 C 759.632812 360.039062 758.769531 360.164062 757.914062 360.335938 C 757.054688 360.503906 756.210938 360.710938 755.371094 360.964844 C 754.535156 361.214844 753.714844 361.507812 752.90625 361.839844 C 752.097656 362.171875 751.308594 362.542969 750.535156 362.953125 C 749.765625 363.363281 749.015625 363.808594 748.289062 364.292969 C 747.558594 364.773438 746.855469 365.292969 746.179688 365.84375 C 745.503906 366.398438 744.855469 366.980469 744.234375 367.597656 Z M 733.539062 378.296875 " fill-opacity="1" fill-rule="nonzero"/><path fill="#147e93" d="M 451.382812 706.847656 C 451.054688 706.847656 450.730469 706.828125 450.402344 706.789062 C 450.078125 706.75 449.757812 706.695312 449.4375 706.617188 C 449.121094 706.542969 448.808594 706.449219 448.5 706.335938 C 448.195312 706.222656 447.894531 706.09375 447.601562 705.945312 C 447.308594 705.796875 447.027344 705.632812 446.753906 705.453125 C 446.480469 705.273438 446.21875 705.078125 445.96875 704.867188 C 445.71875 704.65625 445.480469 704.429688 445.257812 704.191406 C 445.035156 703.953125 444.824219 703.703125 444.628906 703.441406 C 444.4375 703.175781 444.257812 702.902344 444.09375 702.621094 C 443.933594 702.335938 443.785156 702.042969 443.65625 701.742188 C 443.53125 701.441406 443.417969 701.132812 443.328125 700.820312 C 443.234375 700.503906 443.160156 700.1875 443.105469 699.863281 C 443.050781 699.542969 443.011719 699.21875 442.996094 698.890625 C 442.976562 698.5625 442.980469 698.238281 443 697.910156 C 443.019531 697.582031 443.058594 697.257812 443.117188 696.9375 C 443.175781 696.617188 443.253906 696.296875 443.347656 695.984375 L 465.195312 624.386719 C 465.300781 624.039062 465.429688 623.703125 465.578125 623.375 C 465.726562 623.046875 465.894531 622.726562 466.085938 622.421875 C 466.277344 622.113281 466.484375 621.820312 466.710938 621.539062 C 466.941406 621.257812 467.183594 620.996094 467.445312 620.746094 C 467.707031 620.5 467.984375 620.265625 468.277344 620.054688 C 468.566406 619.839844 468.871094 619.648438 469.1875 619.476562 C 469.503906 619.300781 469.832031 619.148438 470.167969 619.015625 C 470.503906 618.886719 470.847656 618.777344 471.195312 618.6875 C 471.546875 618.601562 471.902344 618.535156 472.257812 618.496094 C 472.617188 618.453125 472.976562 618.433594 473.339844 618.4375 C 473.699219 618.441406 474.058594 618.472656 474.414062 618.523438 C 474.773438 618.574219 475.125 618.644531 475.472656 618.742188 C 475.820312 618.839844 476.160156 618.957031 476.492188 619.097656 C 476.824219 619.238281 477.148438 619.398438 477.460938 619.582031 C 477.773438 619.761719 478.070312 619.964844 478.355469 620.183594 C 478.644531 620.402344 478.914062 620.640625 479.167969 620.898438 L 528.859375 670.621094 C 529.117188 670.878906 529.355469 671.148438 529.574219 671.433594 C 529.792969 671.71875 529.996094 672.019531 530.175781 672.332031 C 530.359375 672.644531 530.519531 672.964844 530.660156 673.296875 C 530.800781 673.632812 530.917969 673.972656 531.015625 674.320312 C 531.109375 674.667969 531.183594 675.019531 531.234375 675.378906 C 531.285156 675.734375 531.3125 676.09375 531.316406 676.457031 C 531.324219 676.816406 531.304688 677.175781 531.261719 677.535156 C 531.222656 677.894531 531.15625 678.25 531.070312 678.597656 C 530.980469 678.949219 530.871094 679.292969 530.742188 679.628906 C 530.609375 679.964844 530.457031 680.292969 530.28125 680.609375 C 530.109375 680.925781 529.914062 681.226562 529.703125 681.519531 C 529.488281 681.8125 529.257812 682.089844 529.011719 682.351562 C 528.761719 682.613281 528.5 682.855469 528.21875 683.085938 C 527.9375 683.3125 527.644531 683.523438 527.339844 683.710938 C 527.03125 683.902344 526.714844 684.070312 526.386719 684.21875 C 526.054688 684.371094 525.71875 684.496094 525.375 684.601562 L 453.820312 706.460938 C 453.023438 706.707031 452.210938 706.835938 451.382812 706.847656 Z M 477.195312 642.679688 L 464.035156 685.78125 L 507.117188 672.613281 Z M 477.195312 642.679688 " fill-opacity="1" fill-rule="nonzero"/></svg>