<svg xmlns="http://www.w3.org/2000/svg" xmlns:xlink="http://www.w3.org/1999/xlink" width="500" zoomAndPan="magnify" viewBox="0 0 375 374.999991" height="500" preserveAspectRatio="xMidYMid meet" version="1.0"><path fill="#206b91" d="M 216.90625 107.398438 C 228.71875 107.398438 238.328125 117.007812 238.328125 128.820312 C 238.328125 133.875 236.53125 138.78125 233.273438 142.636719 C 231.691406 144.511719 231.335938 147.132812 232.371094 149.359375 C 233.40625 151.585938 235.632812 153.007812 238.085938 153.007812 L 287.109375 153.007812 C 290.589844 153.007812 293.410156 150.1875 293.410156 146.707031 L 293.410156 19.714844 C 293.410156 8.84375 284.566406 0 273.695312 0 L 19.714844 0 C 8.84375 0 0 8.84375 0 19.714844 L 0 273.695312 C 0 284.566406 8.84375 293.414062 19.714844 293.414062 L 146.707031 293.414062 C 150.1875 293.414062 153.007812 290.589844 153.007812 287.109375 L 153.007812 248.898438 C 156.695312 250.234375 160.617188 250.933594 164.59375 250.933594 C 183.355469 250.933594 198.617188 235.671875 198.617188 216.910156 C 198.617188 198.148438 183.355469 182.882812 164.59375 182.882812 C 160.617188 182.882812 156.695312 183.582031 153.007812 184.917969 L 153.007812 153.011719 L 195.726562 153.011719 C 198.179688 153.011719 200.410156 151.585938 201.445312 149.363281 C 202.476562 147.136719 202.125 144.515625 200.542969 142.640625 C 197.28125 138.785156 195.488281 133.878906 195.488281 128.824219 C 195.488281 117.007812 205.097656 107.398438 216.90625 107.398438 Z M 19.714844 12.605469 L 140.402344 12.605469 L 140.402344 44.515625 C 136.714844 43.179688 132.796875 42.480469 128.820312 42.480469 C 110.058594 42.480469 94.792969 57.742188 94.792969 76.503906 C 94.792969 95.265625 110.058594 110.53125 128.820312 110.53125 C 132.796875 110.53125 136.714844 109.832031 140.402344 108.496094 L 140.402344 140.402344 L 97.683594 140.402344 C 95.230469 140.402344 93 141.828125 91.96875 144.050781 C 90.933594 146.277344 91.285156 148.898438 92.871094 150.773438 C 96.128906 154.628906 97.925781 159.535156 97.925781 164.589844 C 97.925781 176.402344 88.316406 186.011719 76.503906 186.011719 C 64.695312 186.011719 55.085938 176.402344 55.085938 164.59375 C 55.085938 159.539062 56.878906 154.628906 60.136719 150.773438 C 61.722656 148.902344 62.074219 146.277344 61.039062 144.054688 C 60.007812 141.828125 57.777344 140.402344 55.324219 140.402344 L 12.605469 140.402344 L 12.605469 19.714844 C 12.605469 15.792969 15.792969 12.605469 19.714844 12.605469 Z M 164.589844 195.488281 C 176.402344 195.488281 186.011719 205.097656 186.011719 216.90625 C 186.011719 228.71875 176.402344 238.328125 164.589844 238.328125 C 159.535156 238.328125 154.628906 236.53125 150.773438 233.273438 C 148.898438 231.691406 146.277344 231.335938 144.054688 232.371094 C 141.828125 233.402344 140.402344 235.632812 140.402344 238.085938 L 140.402344 280.804688 L 19.714844 280.804688 C 15.792969 280.804688 12.605469 277.617188 12.605469 273.695312 L 12.605469 153.007812 L 44.515625 153.007812 C 43.179688 156.695312 42.480469 160.617188 42.480469 164.59375 C 42.480469 183.355469 57.742188 198.617188 76.503906 198.617188 C 95.265625 198.617188 110.527344 183.351562 110.527344 164.59375 C 110.527344 160.617188 109.828125 156.695312 108.492188 153.007812 L 140.402344 153.007812 L 140.402344 195.726562 C 140.402344 198.179688 141.828125 200.414062 144.050781 201.445312 C 146.277344 202.476562 148.898438 202.125 150.773438 200.542969 C 154.628906 197.28125 159.535156 195.488281 164.589844 195.488281 Z M 182.882812 128.820312 C 182.882812 132.796875 183.582031 136.714844 184.917969 140.402344 L 153.007812 140.402344 L 153.007812 97.683594 C 153.007812 95.230469 151.585938 93 149.359375 91.96875 C 147.132812 90.933594 144.511719 91.289062 142.636719 92.871094 C 138.78125 96.128906 133.875 97.925781 128.820312 97.925781 C 117.007812 97.925781 107.398438 88.316406 107.398438 76.503906 C 107.398438 64.695312 117.007812 55.085938 128.820312 55.085938 C 133.875 55.085938 138.78125 56.878906 142.636719 60.136719 C 144.511719 61.722656 147.132812 62.074219 149.359375 61.042969 C 151.585938 60.007812 153.007812 57.777344 153.007812 55.324219 L 153.007812 12.605469 L 273.695312 12.605469 C 277.617188 12.605469 280.804688 15.792969 280.804688 19.714844 L 280.804688 140.402344 L 248.898438 140.402344 C 250.234375 136.714844 250.933594 132.796875 250.933594 128.820312 C 250.933594 110.058594 235.667969 94.792969 216.90625 94.792969 C 198.148438 94.792969 182.882812 110.058594 182.882812 128.820312 Z M 368.699219 221.992188 L 330.488281 221.992188 C 331.820312 218.304688 332.523438 214.386719 332.523438 210.410156 C 332.523438 191.648438 317.257812 176.382812 298.496094 176.382812 C 279.734375 176.382812 264.472656 191.648438 264.472656 210.410156 C 264.472656 214.386719 265.171875 218.304688 266.507812 221.992188 L 228.296875 221.992188 C 224.816406 221.992188 221.992188 224.8125 221.992188 228.292969 L 221.992188 277.316406 C 221.992188 279.769531 223.417969 282 225.640625 283.03125 C 227.867188 284.066406 230.488281 283.710938 232.363281 282.128906 C 236.21875 278.871094 241.125 277.074219 246.179688 277.074219 C 257.992188 277.074219 267.601562 286.683594 267.601562 298.496094 C 267.601562 310.308594 257.992188 319.917969 246.179688 319.917969 C 241.125 319.917969 236.21875 318.121094 232.363281 314.863281 C 230.488281 313.277344 227.867188 312.925781 225.640625 313.960938 C 223.417969 314.992188 221.992188 317.222656 221.992188 319.675781 L 221.992188 368.699219 C 221.992188 372.179688 224.816406 375 228.296875 375 L 355.285156 375 C 366.15625 375 375 366.15625 375 355.285156 L 375 228.292969 C 375 224.8125 372.179688 221.992188 368.699219 221.992188 Z M 362.394531 355.285156 C 362.394531 359.203125 359.203125 362.394531 355.285156 362.394531 L 234.597656 362.394531 L 234.597656 330.488281 C 238.285156 331.820312 242.203125 332.523438 246.179688 332.523438 C 264.941406 332.523438 280.207031 317.257812 280.207031 298.496094 C 280.207031 279.734375 264.941406 264.472656 246.179688 264.472656 C 242.203125 264.472656 238.285156 265.171875 234.597656 266.507812 L 234.597656 234.597656 L 277.316406 234.597656 C 279.769531 234.597656 282 233.175781 283.03125 230.949219 C 284.066406 228.722656 283.714844 226.101562 282.128906 224.226562 C 278.871094 220.371094 277.074219 215.464844 277.074219 210.410156 C 277.074219 198.597656 286.683594 188.988281 298.496094 188.988281 C 310.308594 188.988281 319.917969 198.597656 319.917969 210.410156 C 319.917969 215.464844 318.121094 220.371094 314.863281 224.226562 C 313.28125 226.101562 312.925781 228.726562 313.960938 230.949219 C 314.992188 233.175781 317.222656 234.597656 319.675781 234.597656 L 362.394531 234.597656 Z M 362.394531 355.285156 " fill-opacity="0.3" fill-rule="nonzero"/></svg>
