<?xml version="1.0" encoding="UTF-8" standalone="no"?>
<svg
   xmlns:dc="http://purl.org/dc/elements/1.1/"
   xmlns:cc="http://creativecommons.org/ns#"
   xmlns:rdf="http://www.w3.org/1999/02/22-rdf-syntax-ns#"
   xmlns:svg="http://www.w3.org/2000/svg"
   xmlns="http://www.w3.org/2000/svg"
   viewBox="0 0 1122.52 793.70135"
   height="793.70135"
   width="1122.52"
   xml:space="preserve"
   id="svg2"
   version="1.1"><metadata
     id="metadata8"><rdf:RDF><cc:Work
         rdf:about=""><dc:format>image/svg+xml</dc:format><dc:type
           rdf:resource="http://purl.org/dc/dcmitype/StillImage" /></cc:Work></rdf:RDF></metadata><defs
     id="defs6"><clipPath
       id="clipPath20"
       clipPathUnits="userSpaceOnUse"><path
         id="path18"
         d="M 0,595.276 H 841.89 V 0 H 0 Z" /></clipPath></defs><g
     transform="matrix(1.3333333,0,0,-1.3333333,0,793.70133)"
     id="g10"><path
       id="path12"
       style="fill:#206b91;fill-opacity:1;fill-rule:nonzero;stroke:none"
       d="M 0,0 H 841.89 V 297.638 H 0 Z" /><g
       id="g14"><g
         clip-path="url(#clipPath20)"
         id="g16"><g
           transform="translate(321.4971,103.8186)"
           id="g22"><path
             id="path24"
             style="fill:#ffffff;fill-opacity:1;fill-rule:nonzero;stroke:none"
             d="m 0,0 c 5.3,0 8.65,3.301 8.65,8.901 v 20.401 h 6.701 V 8.901 C 15.351,-0.3 9.5,-6 0,-6 -9.551,-6 -15.552,-0.3 -15.552,8.901 v 20.401 h 6.701 V 8.901 C -8.851,3.351 -5.301,0 0,0" /></g><g
           transform="translate(350.6963,133.1203)"
           id="g26"><path
             id="path28"
             style="fill:#ffffff;fill-opacity:1;fill-rule:nonzero;stroke:none"
             d="M 0,0 18.051,-23.951 V 0 h 6.5 V -35.002 H 18.2 L 0.199,-11.101 v -23.901 h -6.55 l 0,35.002 z" /></g><path
           id="path30"
           style="fill:#ffffff;fill-opacity:1;fill-rule:nonzero;stroke:none"
           d="m 390.146,98.118 h -6.7 v 35.002 h 6.7 z" /><g
           transform="translate(401.3447,133.1203)"
           id="g32"><path
             id="path34"
             style="fill:#ffffff;fill-opacity:1;fill-rule:nonzero;stroke:none"
             d="M 0,0 10.301,-27.551 20.701,0 h 6.901 L 13.601,-35.002 H 6.65 L -7.2,0 Z" /></g><g
           transform="translate(458.6455,133.1203)"
           id="g36"><path
             id="path38"
             style="fill:#ffffff;fill-opacity:1;fill-rule:nonzero;stroke:none"
             d="M 0,0 V -5.85 H -18.951 V -14.5 H -1.95 v -5.851 h -17.001 v -8.8 H 0.6 v -5.851 H -25.651 V 0 Z" /></g><g
           transform="translate(472.3437,114.3195)"
           id="g40"><path
             id="path42"
             style="fill:#ffffff;fill-opacity:1;fill-rule:nonzero;stroke:none"
             d="m 0,0 h 7.901 c 5,0 7.8,2.15 7.8,6.551 0,4.3 -2.8,6.4 -7.8,6.4 H 0 Z m 15.201,-16.201 -6.05,10.35 C 8.751,-5.9 8.351,-5.9 7.901,-5.9 H 0 V -16.201 H -6.7 V 18.801 H 7.901 c 9.05,0 14.201,-4.35 14.201,-12.051 0,-5.5 -2.451,-9.45 -6.951,-11.351 l 7.701,-11.6 z" /></g><g
           transform="translate(505.4932,115.6193)"
           id="g44"><path
             id="path46"
             style="fill:#ffffff;fill-opacity:1;fill-rule:nonzero;stroke:none"
             d="m 0,0 c 0,-6.6 5.451,-11.801 11.901,-11.801 6.401,0 11.701,5.201 11.701,11.801 0,6.601 -5.3,11.701 -11.701,11.701 C 5.4,11.701 0,6.601 0,0 m 30.452,0 c 0,-10.05 -8.1,-17.801 -18.651,-17.801 C 1.25,-17.801 -6.85,-10.05 -6.85,0 c 0,10.101 8.1,17.701 18.651,17.701 10.551,0 18.651,-7.65 18.651,-17.701" /></g><g
           transform="translate(316.7686,88.5285)"
           id="g48"><path
             id="path50"
             style="fill:#ffffff;fill-opacity:1;fill-rule:nonzero;stroke:none"
             d="m 0,0 c -2.795,0 -4.215,-2.146 -4.215,-4.578 0,-2.257 1.343,-4.498 4.215,-4.498 2.872,0 4.183,2.289 4.183,4.498 C 4.183,-2.321 2.856,-0.064 0,0 m 5.525,-4.578 c 0,-2.945 -1.81,-5.794 -5.541,-5.794 -3.762,0 -5.573,2.833 -5.573,5.794 0,3.266 2.139,5.858 5.589,5.858 3.699,0 5.525,-2.897 5.525,-5.858" /></g><g
           transform="translate(331.5781,86.2717)"
           id="g52"><path
             id="path54"
             style="fill:#ffffff;fill-opacity:1;fill-rule:nonzero;stroke:none"
             d="m 0,0 h 1.171 l 0.061,-1.232 c 0.688,1.023 1.562,1.423 2.608,1.423 1.92,0 3.278,-1.312 3.278,-3.697 V -7.892 H 5.822 v 4.371 c 0,1.584 -0.749,2.48 -2.232,2.48 -1.405,0 -2.326,-1.2 -2.326,-2.608 V -7.892 H 0 Z" /></g><path
           id="path56"
           style="fill:#ffffff;fill-opacity:1;fill-rule:nonzero;stroke:none"
           d="m 349.558,78.38 h -1.264 v 11.204 h 1.264 z" /><path
           id="path58"
           style="fill:#ffffff;fill-opacity:1;fill-rule:nonzero;stroke:none"
           d="m 359.296,86.272 h 1.28 V 78.38 h -1.28 z m 0.655,3.281 c 0.406,0 0.859,-0.288 0.859,-0.864 0,-0.577 -0.453,-0.833 -0.859,-0.833 -0.436,0 -0.843,0.272 -0.843,0.848 0,0.561 0.407,0.849 0.843,0.849" /><g
           transform="translate(370.3779,86.2717)"
           id="g60"><path
             id="path62"
             style="fill:#ffffff;fill-opacity:1;fill-rule:nonzero;stroke:none"
             d="m 0,0 h 1.17 l 0.062,-1.232 c 0.688,1.023 1.562,1.423 2.608,1.423 1.92,0 3.278,-1.312 3.278,-3.697 V -7.892 H 5.822 v 4.371 c 0,1.584 -0.749,2.48 -2.232,2.48 -1.405,0 -2.326,-1.2 -2.326,-2.608 V -7.892 H 0 Z" /></g><g
           transform="translate(393.1338,82.9738)"
           id="g64"><path
             id="path66"
             style="fill:#ffffff;fill-opacity:1;fill-rule:nonzero;stroke:none"
             d="M 0,0 C -0.047,1.521 -1.077,2.305 -2.592,2.305 -3.934,2.305 -5.089,1.537 -5.339,0 Z m 0.78,-3.377 c -0.811,-0.961 -2.138,-1.409 -3.341,-1.409 -2.387,0 -4.058,1.6 -4.058,4.178 0,2.384 1.671,4.097 3.996,4.097 2.357,0 4.152,-1.44 3.855,-4.577 h -6.571 c 0.141,-1.537 1.343,-2.481 2.81,-2.481 0.858,0 1.951,0.336 2.451,0.976 l 0.874,-0.784 z" /></g><g
           transform="translate(416.3867,79.677)"
           id="g68"><path
             id="path70"
             style="fill:#ffffff;fill-opacity:1;fill-rule:nonzero;stroke:none"
             d="m 0,0 h 5.947 v -1.297 h -7.32 V 9.907 H 0 Z" /></g><g
           transform="translate(437.0684,82.9738)"
           id="g72"><path
             id="path74"
             style="fill:#ffffff;fill-opacity:1;fill-rule:nonzero;stroke:none"
             d="M 0,0 C -0.047,1.521 -1.077,2.305 -2.592,2.305 -3.934,2.305 -5.089,1.537 -5.339,0 Z m 0.78,-3.377 c -0.811,-0.961 -2.138,-1.409 -3.341,-1.409 -2.387,0 -4.058,1.6 -4.058,4.178 0,2.384 1.671,4.097 3.996,4.097 2.357,0 4.152,-1.44 3.855,-4.577 h -6.571 c 0.141,-1.537 1.343,-2.481 2.81,-2.481 0.858,0 1.951,0.336 2.451,0.976 l 0.874,-0.784 z" /></g><g
           transform="translate(448.1162,82.2854)"
           id="g76"><path
             id="path78"
             style="fill:#ffffff;fill-opacity:1;fill-rule:nonzero;stroke:none"
             d="m 0,0 c 0,-1.744 1.249,-2.896 2.778,-2.896 3.732,0 3.747,5.841 0,5.826 C 1.249,2.93 0,1.857 0,0 m 5.588,-3.905 -0.03,1.392 c -0.61,-1.072 -1.781,-1.585 -2.842,-1.585 -2.216,0 -3.949,1.57 -3.949,4.146 0,2.674 1.78,4.13 3.964,4.13 1.218,0 2.264,-0.496 2.857,-1.616 l 0.016,1.44 h 1.249 v -7.907 z" /></g><g
           transform="translate(465.9092,85.1184)"
           id="g80"><path
             id="path82"
             style="fill:#ffffff;fill-opacity:1;fill-rule:nonzero;stroke:none"
             d="M 0,0 C 0.562,1.024 1.498,1.345 2.372,1.345 3.043,1.361 3.684,1.073 4.167,0.721 L 3.59,-0.399 C 3.168,-0.096 2.794,0.049 2.247,0.049 1.015,0.049 -0.016,-0.88 -0.016,-2.32 v -4.418 h -1.28 v 7.891 h 1.187 z" /></g><g
           transform="translate(478.7373,86.2717)"
           id="g84"><path
             id="path86"
             style="fill:#ffffff;fill-opacity:1;fill-rule:nonzero;stroke:none"
             d="m 0,0 h 1.17 l 0.062,-1.232 c 0.688,1.023 1.562,1.423 2.608,1.423 1.92,0 3.278,-1.312 3.278,-3.697 V -7.892 H 5.822 v 4.371 c 0,1.584 -0.749,2.48 -2.232,2.48 -1.405,0 -2.326,-1.2 -2.326,-2.608 V -7.892 H 0 Z" /></g><path
           id="path88"
           style="fill:#ffffff;fill-opacity:1;fill-rule:nonzero;stroke:none"
           d="m 495.359,86.272 h 1.28 V 78.38 h -1.28 z m 0.656,3.281 c 0.406,0 0.858,-0.288 0.858,-0.864 0,-0.577 -0.452,-0.833 -0.858,-0.833 -0.437,0 -0.843,0.272 -0.843,0.848 0,0.561 0.406,0.849 0.843,0.849" /><g
           transform="translate(506.4404,86.2717)"
           id="g90"><path
             id="path92"
             style="fill:#ffffff;fill-opacity:1;fill-rule:nonzero;stroke:none"
             d="m 0,0 h 1.17 l 0.062,-1.232 c 0.688,1.023 1.562,1.423 2.608,1.423 1.92,0 3.278,-1.312 3.278,-3.697 V -7.892 H 5.822 v 4.371 c 0,1.584 -0.749,2.48 -2.232,2.48 -1.405,0 -2.326,-1.2 -2.326,-2.608 V -7.892 H 0 Z" /></g><g
           transform="translate(526.6836,79.7883)"
           id="g94"><path
             id="path96"
             style="fill:#ffffff;fill-opacity:1;fill-rule:nonzero;stroke:none"
             d="m 0,0 c 1.64,0 2.778,1.217 2.778,2.754 0,1.792 -1.341,2.721 -2.794,2.721 C -1.389,5.475 -2.841,4.61 -2.841,2.77 -2.794,0.944 -1.545,0 0,0 m -2.778,-2.577 c 0,-1.536 1.342,-2.193 2.747,-2.193 1.327,0 2.717,0.481 2.717,1.874 0,1.28 -1.265,1.76 -2.702,1.76 -2.419,0 -4.074,1.424 -4.074,3.906 0,2.609 2.108,3.905 4.074,3.905 0.718,0 1.609,-0.192 2.186,-0.609 L 2.997,7.123 3.918,6.354 3.028,5.314 C 3.653,4.61 4.027,3.922 4.027,2.77 4.027,1.441 3.372,0.064 1.857,-0.448 3.372,-0.896 3.98,-1.729 3.98,-2.881 c 0,-2.144 -1.982,-3.089 -4.027,-3.089 -2.325,0 -4.012,1.265 -3.949,3.393 z" /></g><g
           transform="translate(436.5527,212.0915)"
           id="g98"><path
             id="path100"
             style="fill:#ffffff;fill-opacity:1;fill-rule:nonzero;stroke:none"
             d="m 0,0 c -3.513,-2.987 -11.365,-10.005 -19.597,-20.867 -3.442,-4.544 -8.74,-11.618 -13.553,-22.076 -1.266,-2.749 -2.206,-5.097 -2.84,-6.767 0.828,1.481 2.046,3.629 3.556,6.195 4.66,7.913 8.578,14.566 14.164,21.942 1.542,2.034 8.352,10.911 18.723,20.748 C 3.49,2.056 7.277,5.44 7.148,5.589 7.016,5.742 2.842,2.416 0,0" /></g><g
           transform="translate(454.2461,222.1086)"
           id="g102"><path
             id="path104"
             style="fill:#ffffff;fill-opacity:1;fill-rule:nonzero;stroke:none"
             d="m 0,0 c -3.119,4.217 -15.615,-0.657 -16.32,-0.938 -1.779,-0.709 -3.226,-1.476 -4.298,-2.106 h -38.61 v -36.199 c 0,-5.039 1.723,-9.68 4.606,-13.379 0.768,4.668 1.273,6.836 1.96,9.129 0.563,1.88 1.104,3.369 1.436,4.245 0.141,-0.649 0.445,-1.664 1.152,-2.729 0.813,-1.225 1.784,-1.948 2.373,-2.322 -0.401,1.045 -0.791,2.22 -1.13,3.515 -0.427,1.631 -0.692,3.141 -0.855,4.481 1.71,3.949 4.281,8.849 8.167,14.029 4.062,5.409 8.333,9.487 11.867,12.41 -0.477,-1.031 -0.988,-2.41 -1.283,-4.088 -0.195,-1.106 -0.254,-2.107 -0.251,-2.958 0.836,1.891 1.734,3.332 2.379,4.276 0.842,1.232 4.436,6.27 11.535,9.844 1.692,0.853 3.148,1.403 4.064,1.721 -0.662,-0.905 -1.325,-1.81 -1.988,-2.715 0.802,0.841 2.514,2.394 5.235,3.253 2.208,0.697 7.029,1.552 8.656,-0.404 2.524,-3.032 -2.652,-12.815 -10.635,-15.539 -0.683,-0.233 -1.296,-0.383 -1.794,-0.484 0.647,-0.036 1.556,-0.024 2.607,0.198 1.081,0.229 1.924,0.598 2.495,0.9 -0.868,-1.042 -2.987,-3.132 -4.856,-4.924 v -18.459 c 0,-13.135 -10.704,-23.82 -23.864,-23.82 -4.87,0 -9.402,1.466 -13.181,3.976 -2.598,-2.707 -4.654,-5.035 -6.06,-6.674 0.371,2.631 0.693,4.822 0.927,6.399 0.23,1.549 0.437,2.911 0.629,4.144 -3.837,4.229 -6.178,9.834 -6.178,15.975 v 36.199 h -0.141 -0.361 -5.6 v -36.2 c 0,-12.424 7.351,-19.916 9.868,-22.189 0.065,-0.059 0.132,-0.119 0.18,-0.162 l -0.963,-7.561 4.881,4.621 c 2.617,-1.662 8.051,-4.62 15.689,-4.621 16.861,-10e-4 30.277,13.391 30.277,29.912 v 23.611 c 1.516,1.022 3.855,2.889 5.603,5.862 C -1.151,-8.697 2.142,-2.896 0,0" /></g><g
           transform="translate(417.21,175.7927)"
           id="g106"><path
             id="path108"
             style="fill:#ffffff;fill-opacity:1;fill-rule:nonzero;stroke:none"
             d="m 0,0 c -4.146,-4.285 -8.224,-8.042 -12.088,-11.318 3.401,-2.178 7.441,-3.446 11.773,-3.446 12.062,0 21.877,9.796 21.877,21.837 V 23.647 C 21.388,23.483 21.222,23.328 21.074,23.191 14.616,17.899 8.016,14.927 3.207,13.236 c 1.373,-0.009 3.045,0.086 4.918,0.426 1.879,0.341 3.482,0.841 4.768,1.335 C 9.289,10.269 5.021,5.189 0,0" /></g><g
           transform="translate(321.4971,400.2756)"
           id="g110"><path
             id="path112"
             style="fill:#206b91;fill-opacity:1;fill-rule:nonzero;stroke:none"
             d="m 0,0 c 5.3,0 8.65,3.3 8.65,8.901 v 20.401 h 6.701 V 8.901 C 15.351,-0.3 9.5,-6 0,-6 -9.551,-6 -15.552,-0.3 -15.552,8.901 v 20.401 h 6.701 V 8.901 C -8.851,3.351 -5.301,0 0,0" /></g><g
           transform="translate(350.6963,429.5774)"
           id="g114"><path
             id="path116"
             style="fill:#206b91;fill-opacity:1;fill-rule:nonzero;stroke:none"
             d="M 0,0 18.051,-23.951 V 0 h 6.5 V -35.002 H 18.2 L 0.199,-11.101 v -23.901 h -6.55 l 0,35.002 z" /></g><path
           id="path118"
           style="fill:#206b91;fill-opacity:1;fill-rule:nonzero;stroke:none"
           d="m 390.146,394.575 h -6.7 v 35.002 h 6.7 z" /><g
           transform="translate(401.3447,429.5774)"
           id="g120"><path
             id="path122"
             style="fill:#206b91;fill-opacity:1;fill-rule:nonzero;stroke:none"
             d="M 0,0 10.301,-27.551 20.701,0 h 6.901 L 13.601,-35.002 H 6.65 L -7.2,0 Z" /></g><g
           transform="translate(458.6455,429.5774)"
           id="g124"><path
             id="path126"
             style="fill:#206b91;fill-opacity:1;fill-rule:nonzero;stroke:none"
             d="M 0,0 V -5.85 H -18.951 V -14.5 H -1.95 v -5.851 h -17.001 v -8.8 H 0.6 v -5.851 H -25.651 V 0 Z" /></g><g
           transform="translate(472.3437,410.7766)"
           id="g128"><path
             id="path130"
             style="fill:#206b91;fill-opacity:1;fill-rule:nonzero;stroke:none"
             d="m 0,0 h 7.901 c 5,0 7.8,2.15 7.8,6.55 0,4.301 -2.8,6.401 -7.8,6.401 H 0 Z m 15.201,-16.201 -6.05,10.35 C 8.751,-5.9 8.351,-5.9 7.901,-5.9 H 0 V -16.201 H -6.7 V 18.801 H 7.901 c 9.05,0 14.201,-4.35 14.201,-12.051 0,-5.5 -2.451,-9.45 -6.951,-11.351 l 7.701,-11.6 z" /></g><g
           transform="translate(505.4932,412.0764)"
           id="g132"><path
             id="path134"
             style="fill:#206b91;fill-opacity:1;fill-rule:nonzero;stroke:none"
             d="m 0,0 c 0,-6.6 5.451,-11.801 11.901,-11.801 6.401,0 11.701,5.201 11.701,11.801 0,6.601 -5.3,11.701 -11.701,11.701 C 5.4,11.701 0,6.601 0,0 m 30.452,0 c 0,-10.05 -8.1,-17.801 -18.651,-17.801 C 1.25,-17.801 -6.85,-10.05 -6.85,0 c 0,10.101 8.1,17.701 18.651,17.701 10.551,0 18.651,-7.65 18.651,-17.701" /></g><g
           transform="translate(316.7686,384.9856)"
           id="g136"><path
             id="path138"
             style="fill:#206b91;fill-opacity:1;fill-rule:nonzero;stroke:none"
             d="m 0,0 c -2.795,0 -4.215,-2.146 -4.215,-4.578 0,-2.257 1.343,-4.498 4.215,-4.498 2.872,0 4.183,2.289 4.183,4.498 C 4.183,-2.321 2.856,-0.064 0,0 m 5.525,-4.578 c 0,-2.945 -1.81,-5.794 -5.541,-5.794 -3.762,0 -5.573,2.833 -5.573,5.794 0,3.266 2.139,5.858 5.589,5.858 3.699,0 5.525,-2.897 5.525,-5.858" /></g><g
           transform="translate(331.5781,382.7287)"
           id="g140"><path
             id="path142"
             style="fill:#206b91;fill-opacity:1;fill-rule:nonzero;stroke:none"
             d="m 0,0 h 1.171 l 0.061,-1.232 c 0.688,1.023 1.562,1.423 2.608,1.423 1.92,0 3.278,-1.312 3.278,-3.697 V -7.892 H 5.822 v 4.371 c 0,1.584 -0.749,2.48 -2.232,2.48 -1.405,0 -2.326,-1.2 -2.326,-2.608 V -7.892 H 0 Z" /></g><path
           id="path144"
           style="fill:#206b91;fill-opacity:1;fill-rule:nonzero;stroke:none"
           d="m 349.558,374.837 h -1.264 v 11.204 h 1.264 z" /><path
           id="path146"
           style="fill:#206b91;fill-opacity:1;fill-rule:nonzero;stroke:none"
           d="m 359.296,382.729 h 1.28 v -7.892 h -1.28 z m 0.655,3.281 c 0.406,0 0.859,-0.288 0.859,-0.864 0,-0.577 -0.453,-0.833 -0.859,-0.833 -0.436,0 -0.843,0.272 -0.843,0.848 0,0.561 0.407,0.849 0.843,0.849" /><g
           transform="translate(370.3779,382.7287)"
           id="g148"><path
             id="path150"
             style="fill:#206b91;fill-opacity:1;fill-rule:nonzero;stroke:none"
             d="m 0,0 h 1.17 l 0.062,-1.232 c 0.688,1.023 1.562,1.423 2.608,1.423 1.92,0 3.278,-1.312 3.278,-3.697 V -7.892 H 5.822 v 4.371 c 0,1.584 -0.749,2.48 -2.232,2.48 -1.405,0 -2.326,-1.2 -2.326,-2.608 V -7.892 H 0 Z" /></g><g
           transform="translate(393.1338,379.4309)"
           id="g152"><path
             id="path154"
             style="fill:#206b91;fill-opacity:1;fill-rule:nonzero;stroke:none"
             d="M 0,0 C -0.047,1.521 -1.077,2.305 -2.592,2.305 -3.934,2.305 -5.089,1.537 -5.339,0 Z m 0.78,-3.377 c -0.811,-0.961 -2.138,-1.409 -3.341,-1.409 -2.387,0 -4.058,1.6 -4.058,4.178 0,2.384 1.671,4.097 3.996,4.097 2.357,0 4.152,-1.44 3.855,-4.577 h -6.571 c 0.141,-1.537 1.343,-2.481 2.81,-2.481 0.858,0 1.951,0.336 2.451,0.976 l 0.874,-0.784 z" /></g><g
           transform="translate(416.3867,376.134)"
           id="g156"><path
             id="path158"
             style="fill:#206b91;fill-opacity:1;fill-rule:nonzero;stroke:none"
             d="m 0,0 h 5.947 v -1.297 h -7.32 V 9.907 H 0 Z" /></g><g
           transform="translate(437.0684,379.4309)"
           id="g160"><path
             id="path162"
             style="fill:#206b91;fill-opacity:1;fill-rule:nonzero;stroke:none"
             d="M 0,0 C -0.047,1.521 -1.077,2.305 -2.592,2.305 -3.934,2.305 -5.089,1.537 -5.339,0 Z m 0.78,-3.377 c -0.811,-0.961 -2.138,-1.409 -3.341,-1.409 -2.387,0 -4.058,1.6 -4.058,4.178 0,2.384 1.671,4.097 3.996,4.097 2.357,0 4.152,-1.44 3.855,-4.577 h -6.571 c 0.141,-1.537 1.343,-2.481 2.81,-2.481 0.858,0 1.951,0.336 2.451,0.976 l 0.874,-0.784 z" /></g><g
           transform="translate(448.1162,378.7424)"
           id="g164"><path
             id="path166"
             style="fill:#206b91;fill-opacity:1;fill-rule:nonzero;stroke:none"
             d="m 0,0 c 0,-1.744 1.249,-2.896 2.778,-2.896 3.732,0 3.747,5.841 0,5.826 C 1.249,2.93 0,1.857 0,0 m 5.588,-3.905 -0.03,1.392 c -0.61,-1.072 -1.781,-1.585 -2.842,-1.585 -2.216,0 -3.949,1.57 -3.949,4.146 0,2.674 1.78,4.13 3.964,4.13 1.218,0 2.264,-0.496 2.857,-1.616 l 0.016,1.44 h 1.249 v -7.907 z" /></g><g
           transform="translate(465.9092,381.5754)"
           id="g168"><path
             id="path170"
             style="fill:#206b91;fill-opacity:1;fill-rule:nonzero;stroke:none"
             d="M 0,0 C 0.562,1.024 1.498,1.345 2.372,1.345 3.043,1.361 3.684,1.073 4.167,0.721 L 3.59,-0.399 C 3.168,-0.096 2.794,0.049 2.247,0.049 1.015,0.049 -0.016,-0.88 -0.016,-2.32 v -4.418 h -1.28 v 7.891 h 1.187 z" /></g><g
           transform="translate(478.7373,382.7287)"
           id="g172"><path
             id="path174"
             style="fill:#206b91;fill-opacity:1;fill-rule:nonzero;stroke:none"
             d="m 0,0 h 1.17 l 0.062,-1.232 c 0.688,1.023 1.562,1.423 2.608,1.423 1.92,0 3.278,-1.312 3.278,-3.697 V -7.892 H 5.822 v 4.371 c 0,1.584 -0.749,2.48 -2.232,2.48 -1.405,0 -2.326,-1.2 -2.326,-2.608 V -7.892 H 0 Z" /></g><path
           id="path176"
           style="fill:#206b91;fill-opacity:1;fill-rule:nonzero;stroke:none"
           d="m 495.359,382.729 h 1.28 v -7.892 h -1.28 z m 0.656,3.281 c 0.406,0 0.858,-0.288 0.858,-0.864 0,-0.577 -0.452,-0.833 -0.858,-0.833 -0.437,0 -0.843,0.272 -0.843,0.848 0,0.561 0.406,0.849 0.843,0.849" /><g
           transform="translate(506.4404,382.7287)"
           id="g178"><path
             id="path180"
             style="fill:#206b91;fill-opacity:1;fill-rule:nonzero;stroke:none"
             d="m 0,0 h 1.17 l 0.062,-1.232 c 0.688,1.023 1.562,1.423 2.608,1.423 1.92,0 3.278,-1.312 3.278,-3.697 V -7.892 H 5.822 v 4.371 c 0,1.584 -0.749,2.48 -2.232,2.48 -1.405,0 -2.326,-1.2 -2.326,-2.608 V -7.892 H 0 Z" /></g><g
           transform="translate(526.6836,376.2453)"
           id="g182"><path
             id="path184"
             style="fill:#206b91;fill-opacity:1;fill-rule:nonzero;stroke:none"
             d="m 0,0 c 1.64,0 2.778,1.217 2.778,2.754 0,1.792 -1.341,2.721 -2.794,2.721 C -1.389,5.475 -2.841,4.61 -2.841,2.77 -2.794,0.944 -1.545,0 0,0 m -2.778,-2.577 c 0,-1.536 1.342,-2.193 2.747,-2.193 1.327,0 2.717,0.481 2.717,1.874 0,1.28 -1.265,1.76 -2.702,1.76 -2.419,0 -4.074,1.424 -4.074,3.906 0,2.609 2.108,3.905 4.074,3.905 0.718,0 1.609,-0.192 2.186,-0.609 L 2.997,7.123 3.918,6.354 3.028,5.314 C 3.653,4.61 4.027,3.922 4.027,2.77 4.027,1.441 3.372,0.064 1.857,-0.448 3.372,-0.896 3.98,-1.729 3.98,-2.881 c 0,-2.144 -1.982,-3.089 -4.027,-3.089 -2.325,0 -4.012,1.265 -3.949,3.393 z" /></g><g
           transform="translate(436.5527,508.5481)"
           id="g186"><path
             id="path188"
             style="fill:#206b91;fill-opacity:1;fill-rule:nonzero;stroke:none"
             d="m 0,0 c -3.513,-2.987 -11.365,-10.005 -19.597,-20.867 -3.442,-4.543 -8.74,-11.618 -13.553,-22.076 -1.266,-2.749 -2.206,-5.097 -2.84,-6.767 0.828,1.481 2.046,3.63 3.556,6.195 4.66,7.913 8.578,14.566 14.164,21.942 1.542,2.034 8.352,10.911 18.723,20.748 C 3.49,2.056 7.277,5.44 7.148,5.589 7.016,5.742 2.842,2.417 0,0" /></g><g
           transform="translate(454.2461,518.5651)"
           id="g190"><path
             id="path192"
             style="fill:#206b91;fill-opacity:1;fill-rule:nonzero;stroke:none"
             d="m 0,0 c -3.119,4.217 -15.615,-0.657 -16.32,-0.938 -1.779,-0.709 -3.226,-1.476 -4.298,-2.106 h -38.61 v -36.199 c 0,-5.038 1.723,-9.68 4.606,-13.379 0.768,4.668 1.273,6.836 1.96,9.129 0.563,1.88 1.104,3.369 1.436,4.245 0.141,-0.649 0.445,-1.664 1.152,-2.729 0.813,-1.225 1.784,-1.948 2.373,-2.322 -0.401,1.045 -0.791,2.22 -1.13,3.516 -0.427,1.63 -0.692,3.14 -0.855,4.48 1.71,3.949 4.281,8.85 8.167,14.029 4.062,5.409 8.333,9.487 11.867,12.41 -0.477,-1.031 -0.988,-2.41 -1.283,-4.088 -0.195,-1.106 -0.254,-2.107 -0.251,-2.957 0.836,1.89 1.734,3.331 2.379,4.276 0.842,1.231 4.436,6.269 11.535,9.843 1.692,0.853 3.148,1.403 4.064,1.721 -0.662,-0.905 -1.325,-1.81 -1.988,-2.715 0.802,0.841 2.514,2.394 5.235,3.253 2.208,0.698 7.029,1.552 8.656,-0.403 2.524,-3.033 -2.652,-12.816 -10.635,-15.54 -0.683,-0.233 -1.296,-0.383 -1.794,-0.483 0.647,-0.037 1.556,-0.025 2.607,0.198 1.081,0.228 1.924,0.598 2.495,0.899 -0.868,-1.042 -2.987,-3.132 -4.856,-4.924 v -18.459 c 0,-13.134 -10.704,-23.82 -23.864,-23.82 -4.87,0 -9.402,1.466 -13.181,3.977 -2.598,-2.708 -4.654,-5.036 -6.06,-6.674 0.371,2.631 0.693,4.821 0.927,6.398 0.23,1.55 0.437,2.911 0.629,4.144 -3.837,4.229 -6.178,9.834 -6.178,15.975 v 36.199 h -0.141 -0.361 -5.6 v -36.2 c 0,-12.424 7.351,-19.917 9.868,-22.189 0.065,-0.059 0.132,-0.118 0.18,-0.162 l -0.963,-7.561 4.881,4.62 c 2.617,-1.661 8.051,-4.619 15.689,-4.62 16.861,-0.002 30.277,13.391 30.277,29.912 v 23.611 c 1.516,1.022 3.855,2.889 5.603,5.863 C -1.151,-8.697 2.142,-2.896 0,0" /></g><g
           transform="translate(417.21,472.2492)"
           id="g194"><path
             id="path196"
             style="fill:#206b91;fill-opacity:1;fill-rule:nonzero;stroke:none"
             d="m 0,0 c -4.146,-4.284 -8.224,-8.042 -12.088,-11.317 3.401,-2.178 7.441,-3.447 11.773,-3.447 12.062,0 21.877,9.796 21.877,21.837 V 23.647 C 21.388,23.484 21.222,23.328 21.074,23.192 14.616,17.899 8.016,14.927 3.207,13.236 c 1.373,-0.009 3.045,0.086 4.918,0.426 1.879,0.341 3.482,0.842 4.768,1.335 C 9.289,10.269 5.021,5.189 0,0" /></g></g></g></g></svg>