<?xml version="1.0" encoding="UTF-8" standalone="no"?>
<svg
   xmlns:dc="http://purl.org/dc/elements/1.1/"
   xmlns:cc="http://creativecommons.org/ns#"
   xmlns:rdf="http://www.w3.org/1999/02/22-rdf-syntax-ns#"
   xmlns:svg="http://www.w3.org/2000/svg"
   xmlns="http://www.w3.org/2000/svg"
   viewBox="0 0 1122.52 793.70135"
   height="793.70135"
   width="1122.52"
   xml:space="preserve"
   id="svg2"
   version="1.1"><metadata
     id="metadata8"><rdf:RDF><cc:Work
         rdf:about=""><dc:format>image/svg+xml</dc:format><dc:type
           rdf:resource="http://purl.org/dc/dcmitype/StillImage" /></cc:Work></rdf:RDF></metadata><defs
     id="defs6"><clipPath
       id="clipPath20"
       clipPathUnits="userSpaceOnUse"><path
         id="path18"
         d="M 0,595.276 H 841.89 V 0 H 0 Z" /></clipPath></defs><g
     transform="matrix(1.3333333,0,0,-1.3333333,0,793.70133)"
     id="g10"><path
       id="path12"
       style="fill:#206b91;fill-opacity:1;fill-rule:nonzero;stroke:none"
       d="M 0,0 H 841.89 V 297.638 H 0 Z" /><g
       id="g14"><g
         clip-path="url(#clipPath20)"
         id="g16"><g
           transform="translate(362.4023,143.8615)"
           id="g22"><path
             id="path24"
             style="fill:#ffffff;fill-opacity:1;fill-rule:nonzero;stroke:none"
             d="m 0,0 c 5.3,0 8.65,3.301 8.65,8.901 v 20.401 h 6.701 V 8.901 C 15.351,-0.3 9.5,-6 0,-6 -9.551,-6 -15.552,-0.3 -15.552,8.901 v 20.401 h 6.701 V 8.901 C -8.851,3.351 -5.301,0 0,0" /></g><g
           transform="translate(391.6016,173.1633)"
           id="g26"><path
             id="path28"
             style="fill:#ffffff;fill-opacity:1;fill-rule:nonzero;stroke:none"
             d="M 0,0 18.051,-23.951 V 0 h 6.5 V -35.002 H 18.2 L 0.199,-11.101 v -23.901 h -6.55 l 0,35.002 z" /></g><path
           id="path30"
           style="fill:#ffffff;fill-opacity:1;fill-rule:nonzero;stroke:none"
           d="m 431.051,138.161 h -6.7 v 35.002 h 6.7 z" /><g
           transform="translate(442.25,173.1633)"
           id="g32"><path
             id="path34"
             style="fill:#ffffff;fill-opacity:1;fill-rule:nonzero;stroke:none"
             d="M 0,0 10.301,-27.551 20.701,0 h 6.901 L 13.601,-35.002 H 6.65 L -7.2,0 Z" /></g><g
           transform="translate(499.5508,173.1633)"
           id="g36"><path
             id="path38"
             style="fill:#ffffff;fill-opacity:1;fill-rule:nonzero;stroke:none"
             d="M 0,0 V -5.85 H -18.951 V -14.5 H -1.95 v -5.851 h -17.001 v -8.8 H 0.6 v -5.851 H -25.651 V 0 Z" /></g><g
           transform="translate(513.249,154.3625)"
           id="g40"><path
             id="path42"
             style="fill:#ffffff;fill-opacity:1;fill-rule:nonzero;stroke:none"
             d="m 0,0 h 7.901 c 5,0 7.8,2.15 7.8,6.551 0,4.3 -2.8,6.4 -7.8,6.4 H 0 Z m 15.201,-16.201 -6.05,10.35 C 8.751,-5.9 8.351,-5.9 7.901,-5.9 H 0 V -16.201 H -6.7 V 18.801 H 7.901 c 9.05,0 14.201,-4.35 14.201,-12.051 0,-5.5 -2.451,-9.45 -6.951,-11.351 l 7.701,-11.6 z" /></g><g
           transform="translate(546.3984,155.6623)"
           id="g44"><path
             id="path46"
             style="fill:#ffffff;fill-opacity:1;fill-rule:nonzero;stroke:none"
             d="m 0,0 c 0,-6.6 5.451,-11.801 11.901,-11.801 6.401,0 11.701,5.201 11.701,11.801 0,6.601 -5.3,11.701 -11.701,11.701 C 5.4,11.701 0,6.601 0,0 m 30.452,0 c 0,-10.05 -8.1,-17.801 -18.651,-17.801 C 1.25,-17.801 -6.85,-10.05 -6.85,0 c 0,10.101 8.1,17.701 18.651,17.701 10.551,0 18.651,-7.65 18.651,-17.701" /></g><g
           transform="translate(357.4512,128.1272)"
           id="g48"><path
             id="path50"
             style="fill:#ffffff;fill-opacity:1;fill-rule:nonzero;stroke:none"
             d="m 0,0 c -2.801,0 -4.224,-2.15 -4.224,-4.588 0,-2.262 1.346,-4.508 4.224,-4.508 2.878,0 4.191,2.294 4.191,4.508 C 4.191,-2.326 2.863,-0.064 0,0 m 5.537,-4.588 c 0,-2.951 -1.814,-5.807 -5.553,-5.807 -3.77,0 -5.585,2.84 -5.585,5.807 0,3.273 2.143,5.871 5.601,5.871 3.707,0 5.537,-2.903 5.537,-5.871" /></g><g
           transform="translate(372.2925,125.8654)"
           id="g52"><path
             id="path54"
             style="fill:#ffffff;fill-opacity:1;fill-rule:nonzero;stroke:none"
             d="m 0,0 h 1.173 l 0.062,-1.235 c 0.689,1.026 1.565,1.427 2.613,1.427 1.924,0 3.285,-1.315 3.285,-3.706 V -7.908 H 5.834 v 4.379 c 0,1.588 -0.75,2.486 -2.236,2.486 -1.409,0 -2.332,-1.203 -2.332,-2.614 v -4.251 l -1.266,0 z" /></g><path
           id="path56"
           style="fill:#ffffff;fill-opacity:1;fill-rule:nonzero;stroke:none"
           d="m 390.31,117.957 h -1.266 v 11.228 h 1.266 z" /><path
           id="path58"
           style="fill:#ffffff;fill-opacity:1;fill-rule:nonzero;stroke:none"
           d="m 400.069,125.865 h 1.283 v -7.908 h -1.283 z m 0.657,3.289 c 0.407,0 0.86,-0.289 0.86,-0.867 0,-0.578 -0.453,-0.834 -0.86,-0.834 -0.437,0 -0.845,0.273 -0.845,0.85 0,0.562 0.408,0.851 0.845,0.851" /><g
           transform="translate(411.1748,125.8654)"
           id="g60"><path
             id="path62"
             style="fill:#ffffff;fill-opacity:1;fill-rule:nonzero;stroke:none"
             d="m 0,0 h 1.173 l 0.062,-1.235 c 0.689,1.026 1.565,1.427 2.613,1.427 1.924,0 3.286,-1.315 3.286,-3.706 V -7.908 H 5.835 v 4.379 c 0,1.588 -0.751,2.486 -2.237,2.486 -1.409,0 -2.331,-1.203 -2.331,-2.614 v -4.251 l -1.267,0 z" /></g><g
           transform="translate(433.9795,122.5607)"
           id="g64"><path
             id="path66"
             style="fill:#ffffff;fill-opacity:1;fill-rule:nonzero;stroke:none"
             d="M 0,0 C -0.047,1.523 -1.079,2.31 -2.598,2.31 -3.942,2.31 -5.1,1.54 -5.351,0 Z m 0.782,-3.384 c -0.813,-0.964 -2.143,-1.413 -3.348,-1.413 -2.393,0 -4.067,1.605 -4.067,4.188 0,2.389 1.674,4.106 4.004,4.106 2.362,0 4.161,-1.444 3.864,-4.587 h -6.586 c 0.142,-1.541 1.346,-2.487 2.816,-2.487 0.86,0 1.956,0.337 2.457,0.978 l 0.876,-0.785 z" /></g><g
           transform="translate(457.2822,119.257)"
           id="g68"><path
             id="path70"
             style="fill:#ffffff;fill-opacity:1;fill-rule:nonzero;stroke:none"
             d="M 0,0 H 5.96 V -1.3 H -1.376 V 9.928 l 1.376,0 z" /></g><g
           transform="translate(478.0078,122.5607)"
           id="g72"><path
             id="path74"
             style="fill:#ffffff;fill-opacity:1;fill-rule:nonzero;stroke:none"
             d="M 0,0 C -0.047,1.523 -1.079,2.31 -2.598,2.31 -3.942,2.31 -5.1,1.54 -5.351,0 Z m 0.782,-3.384 c -0.813,-0.964 -2.143,-1.413 -3.348,-1.413 -2.393,0 -4.067,1.605 -4.067,4.188 0,2.389 1.674,4.106 4.004,4.106 2.362,0 4.161,-1.444 3.864,-4.587 h -6.586 c 0.142,-1.541 1.346,-2.487 2.817,-2.487 0.859,0 1.955,0.337 2.456,0.978 l 0.876,-0.785 z" /></g><g
           transform="translate(489.0791,121.8703)"
           id="g76"><path
             id="path78"
             style="fill:#ffffff;fill-opacity:1;fill-rule:nonzero;stroke:none"
             d="m 0,0 c 0,-1.747 1.252,-2.902 2.784,-2.902 3.739,0 3.755,5.854 0,5.839 C 1.252,2.937 0,1.861 0,0 m 5.6,-3.913 -0.031,1.395 c -0.61,-1.074 -1.784,-1.588 -2.847,-1.588 -2.221,0 -3.957,1.573 -3.957,4.154 0,2.68 1.783,4.139 3.972,4.139 1.221,0 2.269,-0.498 2.863,-1.62 l 0.015,1.444 h 1.252 v -7.924 z" /></g><g
           transform="translate(506.9102,124.7102)"
           id="g80"><path
             id="path82"
             style="fill:#ffffff;fill-opacity:1;fill-rule:nonzero;stroke:none"
             d="M 0,0 C 0.562,1.026 1.501,1.348 2.377,1.348 3.05,1.364 3.691,1.075 4.176,0.722 L 3.598,-0.4 C 3.175,-0.097 2.8,0.049 2.252,0.049 c -1.235,0 -2.268,-0.931 -2.268,-2.374 v -4.428 h -1.283 v 7.908 h 1.19 z" /></g><g
           transform="translate(519.7656,125.8654)"
           id="g84"><path
             id="path86"
             style="fill:#ffffff;fill-opacity:1;fill-rule:nonzero;stroke:none"
             d="m 0,0 h 1.173 l 0.062,-1.235 c 0.689,1.026 1.565,1.427 2.614,1.427 1.923,0 3.285,-1.315 3.285,-3.706 V -7.908 H 5.835 v 4.379 c 0,1.588 -0.751,2.486 -2.237,2.486 -1.409,0 -2.331,-1.203 -2.331,-2.614 v -4.251 l -1.267,0 z" /></g><path
           id="path88"
           style="fill:#ffffff;fill-opacity:1;fill-rule:nonzero;stroke:none"
           d="m 536.424,125.865 h 1.282 v -7.908 h -1.282 z m 0.656,3.289 c 0.407,0 0.86,-0.289 0.86,-0.867 0,-0.578 -0.453,-0.834 -0.86,-0.834 -0.437,0 -0.845,0.273 -0.845,0.85 0,0.562 0.408,0.851 0.845,0.851" /><g
           transform="translate(547.5283,125.8654)"
           id="g90"><path
             id="path92"
             style="fill:#ffffff;fill-opacity:1;fill-rule:nonzero;stroke:none"
             d="m 0,0 h 1.172 l 0.062,-1.235 c 0.69,1.026 1.566,1.427 2.614,1.427 1.923,0 3.285,-1.315 3.285,-3.706 V -7.908 H 5.834 v 4.379 c 0,1.588 -0.75,2.486 -2.236,2.486 -1.409,0 -2.332,-1.203 -2.332,-2.614 v -4.251 l -1.266,0 z" /></g><g
           transform="translate(567.8145,119.3684)"
           id="g94"><path
             id="path96"
             style="fill:#ffffff;fill-opacity:1;fill-rule:nonzero;stroke:none"
             d="m 0,0 c 1.644,0 2.784,1.22 2.784,2.76 0,1.796 -1.345,2.726 -2.8,2.726 -1.376,0 -2.831,-0.866 -2.831,-2.711 C -2.8,0.946 -1.548,0 0,0 m -2.784,-2.583 c 0,-1.539 1.346,-2.196 2.753,-2.196 1.33,0 2.722,0.481 2.722,1.877 0,1.282 -1.267,1.763 -2.707,1.763 -2.423,0 -4.083,1.428 -4.083,3.914 0,2.616 2.113,3.914 4.083,3.914 0.72,0 1.612,-0.192 2.191,-0.61 L 3.004,7.139 3.927,6.368 3.035,5.326 C 3.661,4.62 4.036,3.931 4.036,2.775 c 0,-1.331 -0.657,-2.711 -2.175,-3.224 1.518,-0.448 2.128,-1.283 2.128,-2.438 0,-2.149 -1.987,-3.095 -4.036,-3.095 -2.33,0 -4.02,1.267 -3.958,3.399 z" /></g><g
           transform="translate(314.6631,172.5246)"
           id="g98"><path
             id="path100"
             style="fill:#ffffff;fill-opacity:1;fill-rule:nonzero;stroke:none"
             d="m 0,0 c -3.513,-2.987 -11.366,-10.005 -19.597,-20.867 -3.443,-4.543 -8.74,-11.618 -13.554,-22.075 -1.266,-2.75 -2.205,-5.098 -2.84,-6.768 0.829,1.481 2.047,3.63 3.557,6.195 4.66,7.912 8.578,14.567 14.165,21.942 1.541,2.034 8.351,10.911 18.722,20.748 C 3.49,2.056 7.277,5.44 7.148,5.589 7.016,5.742 2.842,2.416 0,0" /></g><g
           transform="translate(332.356,182.5412)"
           id="g102"><path
             id="path104"
             style="fill:#ffffff;fill-opacity:1;fill-rule:nonzero;stroke:none"
             d="m 0,0 c -3.119,4.218 -15.615,-0.656 -16.32,-0.937 -1.779,-0.71 -3.225,-1.476 -4.298,-2.107 h -38.609 v -36.198 c 0,-5.039 1.723,-9.681 4.605,-13.38 0.769,4.669 1.274,6.837 1.96,9.129 0.563,1.88 1.105,3.37 1.437,4.245 0.14,-0.649 0.444,-1.664 1.151,-2.729 0.813,-1.224 1.784,-1.948 2.373,-2.322 -0.401,1.046 -0.791,2.22 -1.13,3.516 -0.427,1.63 -0.691,3.14 -0.854,4.48 1.709,3.949 4.28,8.85 8.167,14.029 4.061,5.409 8.332,9.487 11.866,12.411 -0.477,-1.032 -0.987,-2.41 -1.283,-4.088 -0.194,-1.107 -0.254,-2.108 -0.25,-2.958 0.836,1.89 1.733,3.332 2.378,4.276 0.842,1.232 4.436,6.269 11.535,9.844 1.692,0.852 3.148,1.402 4.065,1.721 -0.663,-0.906 -1.326,-1.811 -1.989,-2.716 0.803,0.841 2.514,2.394 5.235,3.254 2.209,0.697 7.03,1.551 8.656,-0.404 2.524,-3.033 -2.652,-12.816 -10.635,-15.54 -0.683,-0.232 -1.296,-0.382 -1.793,-0.483 0.646,-0.037 1.556,-0.024 2.607,0.198 1.081,0.229 1.924,0.598 2.495,0.9 -0.869,-1.042 -2.988,-3.132 -4.856,-4.924 v -18.459 c 0,-13.135 -10.705,-23.821 -23.864,-23.821 -4.87,0 -9.402,1.466 -13.182,3.977 -2.597,-2.708 -4.653,-5.035 -6.059,-6.674 0.371,2.631 0.692,4.822 0.926,6.399 0.23,1.549 0.437,2.91 0.629,4.143 -3.837,4.229 -6.177,9.834 -6.177,15.976 v 36.198 h -0.142 -0.361 -5.599 v -36.2 c 0,-12.424 7.351,-19.916 9.867,-22.189 0.066,-0.059 0.132,-0.118 0.181,-0.162 l -0.964,-7.56 4.881,4.62 c 2.617,-1.662 8.051,-4.619 15.69,-4.62 16.86,-0.002 30.276,13.39 30.276,29.911 v 23.611 c 1.516,1.023 3.855,2.89 5.603,5.863 C -1.151,-8.696 2.142,-2.896 0,0" /></g><g
           transform="translate(295.3198,136.2258)"
           id="g106"><path
             id="path108"
             style="fill:#ffffff;fill-opacity:1;fill-rule:nonzero;stroke:none"
             d="m 0,0 c -4.146,-4.284 -8.223,-8.041 -12.088,-11.317 3.402,-2.178 7.441,-3.448 11.773,-3.448 12.063,0 21.877,9.796 21.877,21.838 V 23.646 C 21.388,23.483 21.222,23.328 21.075,23.191 14.617,17.898 8.016,14.927 3.208,13.235 c 1.373,-0.008 3.044,0.087 4.917,0.427 1.879,0.341 3.483,0.842 4.768,1.334 C 9.29,10.269 5.022,5.189 0,0" /></g><g
           transform="translate(362.4023,440.4035)"
           id="g110"><path
             id="path112"
             style="fill:#206b91;fill-opacity:1;fill-rule:nonzero;stroke:none"
             d="m 0,0 c 5.3,0 8.65,3.3 8.65,8.901 v 20.401 h 6.701 V 8.901 C 15.351,-0.3 9.5,-6 0,-6 -9.551,-6 -15.552,-0.3 -15.552,8.901 v 20.401 h 6.701 V 8.901 C -8.851,3.351 -5.301,0 0,0" /></g><g
           transform="translate(391.6016,469.7053)"
           id="g114"><path
             id="path116"
             style="fill:#206b91;fill-opacity:1;fill-rule:nonzero;stroke:none"
             d="M 0,0 18.051,-23.951 V 0 h 6.5 V -35.002 H 18.2 L 0.199,-11.101 v -23.901 h -6.55 l 0,35.002 z" /></g><path
           id="path118"
           style="fill:#206b91;fill-opacity:1;fill-rule:nonzero;stroke:none"
           d="m 431.051,434.703 h -6.7 v 35.002 h 6.7 z" /><g
           transform="translate(442.25,469.7053)"
           id="g120"><path
             id="path122"
             style="fill:#206b91;fill-opacity:1;fill-rule:nonzero;stroke:none"
             d="M 0,0 10.301,-27.551 20.701,0 h 6.901 L 13.601,-35.002 H 6.65 L -7.2,0 Z" /></g><g
           transform="translate(499.5508,469.7053)"
           id="g124"><path
             id="path126"
             style="fill:#206b91;fill-opacity:1;fill-rule:nonzero;stroke:none"
             d="M 0,0 V -5.85 H -18.951 V -14.5 H -1.95 v -5.851 h -17.001 v -8.8 H 0.6 v -5.851 H -25.651 V 0 Z" /></g><g
           transform="translate(513.249,450.9045)"
           id="g128"><path
             id="path130"
             style="fill:#206b91;fill-opacity:1;fill-rule:nonzero;stroke:none"
             d="m 0,0 h 7.901 c 5,0 7.8,2.15 7.8,6.55 0,4.301 -2.8,6.401 -7.8,6.401 H 0 Z m 15.201,-16.201 -6.05,10.35 C 8.751,-5.9 8.351,-5.9 7.901,-5.9 H 0 V -16.201 H -6.7 V 18.801 H 7.901 c 9.05,0 14.201,-4.35 14.201,-12.051 0,-5.5 -2.451,-9.45 -6.951,-11.351 l 7.701,-11.6 z" /></g><g
           transform="translate(546.3984,452.2043)"
           id="g132"><path
             id="path134"
             style="fill:#206b91;fill-opacity:1;fill-rule:nonzero;stroke:none"
             d="m 0,0 c 0,-6.6 5.451,-11.801 11.901,-11.801 6.401,0 11.701,5.201 11.701,11.801 0,6.601 -5.3,11.701 -11.701,11.701 C 5.4,11.701 0,6.601 0,0 m 30.452,0 c 0,-10.05 -8.1,-17.801 -18.651,-17.801 C 1.25,-17.801 -6.85,-10.05 -6.85,0 c 0,10.101 8.1,17.701 18.651,17.701 10.551,0 18.651,-7.65 18.651,-17.701" /></g><g
           transform="translate(357.4512,424.6692)"
           id="g136"><path
             id="path138"
             style="fill:#206b91;fill-opacity:1;fill-rule:nonzero;stroke:none"
             d="m 0,0 c -2.801,0 -4.224,-2.15 -4.224,-4.588 0,-2.262 1.346,-4.508 4.224,-4.508 2.878,0 4.191,2.294 4.191,4.508 C 4.191,-2.327 2.863,-0.065 0,0 m 5.537,-4.588 c 0,-2.952 -1.814,-5.807 -5.553,-5.807 -3.77,0 -5.585,2.84 -5.585,5.807 0,3.273 2.143,5.871 5.601,5.871 3.707,0 5.537,-2.904 5.537,-5.871" /></g><g
           transform="translate(372.2925,422.4074)"
           id="g140"><path
             id="path142"
             style="fill:#206b91;fill-opacity:1;fill-rule:nonzero;stroke:none"
             d="m 0,0 h 1.173 l 0.062,-1.235 c 0.689,1.026 1.565,1.427 2.613,1.427 1.924,0 3.285,-1.316 3.285,-3.706 V -7.909 H 5.834 v 4.38 c 0,1.587 -0.75,2.486 -2.236,2.486 -1.409,0 -2.332,-1.203 -2.332,-2.614 v -4.252 l -1.266,0 z" /></g><path
           id="path144"
           style="fill:#206b91;fill-opacity:1;fill-rule:nonzero;stroke:none"
           d="m 390.31,414.499 h -1.266 v 11.228 h 1.266 z" /><path
           id="path146"
           style="fill:#206b91;fill-opacity:1;fill-rule:nonzero;stroke:none"
           d="m 400.069,422.407 h 1.283 v -7.909 h -1.283 z m 0.657,3.289 c 0.407,0 0.86,-0.289 0.86,-0.867 0,-0.578 -0.453,-0.834 -0.86,-0.834 -0.437,0 -0.845,0.273 -0.845,0.85 0,0.562 0.408,0.851 0.845,0.851" /><g
           transform="translate(411.1748,422.4074)"
           id="g148"><path
             id="path150"
             style="fill:#206b91;fill-opacity:1;fill-rule:nonzero;stroke:none"
             d="m 0,0 h 1.173 l 0.062,-1.235 c 0.689,1.026 1.565,1.427 2.613,1.427 1.924,0 3.286,-1.316 3.286,-3.706 V -7.909 H 5.835 v 4.38 c 0,1.587 -0.751,2.486 -2.237,2.486 -1.409,0 -2.331,-1.203 -2.331,-2.614 v -4.252 l -1.267,0 z" /></g><g
           transform="translate(433.9795,419.1023)"
           id="g152"><path
             id="path154"
             style="fill:#206b91;fill-opacity:1;fill-rule:nonzero;stroke:none"
             d="M 0,0 C -0.047,1.524 -1.079,2.31 -2.598,2.31 -3.942,2.31 -5.1,1.541 -5.351,0 Z m 0.782,-3.384 c -0.813,-0.963 -2.143,-1.412 -3.348,-1.412 -2.393,0 -4.067,1.604 -4.067,4.187 0,2.389 1.674,4.106 4.004,4.106 2.362,0 4.161,-1.444 3.864,-4.587 h -6.586 c 0.142,-1.54 1.346,-2.487 2.816,-2.487 0.86,0 1.956,0.337 2.457,0.979 l 0.876,-0.786 z" /></g><g
           transform="translate(457.2822,415.7986)"
           id="g156"><path
             id="path158"
             style="fill:#206b91;fill-opacity:1;fill-rule:nonzero;stroke:none"
             d="M 0,0 H 5.96 V -1.3 H -1.376 V 9.928 l 1.376,0 z" /></g><g
           transform="translate(478.0078,419.1023)"
           id="g160"><path
             id="path162"
             style="fill:#206b91;fill-opacity:1;fill-rule:nonzero;stroke:none"
             d="M 0,0 C -0.047,1.524 -1.079,2.31 -2.598,2.31 -3.942,2.31 -5.1,1.541 -5.351,0 Z m 0.782,-3.384 c -0.813,-0.963 -2.143,-1.412 -3.348,-1.412 -2.393,0 -4.067,1.604 -4.067,4.187 0,2.389 1.674,4.106 4.004,4.106 2.362,0 4.161,-1.444 3.864,-4.587 h -6.586 c 0.142,-1.54 1.346,-2.487 2.817,-2.487 0.859,0 1.955,0.337 2.456,0.979 l 0.876,-0.786 z" /></g><g
           transform="translate(489.0791,418.4123)"
           id="g164"><path
             id="path166"
             style="fill:#206b91;fill-opacity:1;fill-rule:nonzero;stroke:none"
             d="m 0,0 c 0,-1.748 1.252,-2.902 2.784,-2.902 3.739,0 3.755,5.854 0,5.838 C 1.252,2.936 0,1.861 0,0 m 5.6,-3.914 -0.031,1.396 c -0.61,-1.074 -1.784,-1.588 -2.847,-1.588 -2.221,0 -3.957,1.572 -3.957,4.154 0,2.68 1.783,4.139 3.972,4.139 1.221,0 2.269,-0.498 2.863,-1.62 l 0.015,1.444 h 1.252 v -7.925 z" /></g><g
           transform="translate(506.9102,421.2517)"
           id="g168"><path
             id="path170"
             style="fill:#206b91;fill-opacity:1;fill-rule:nonzero;stroke:none"
             d="M 0,0 C 0.562,1.026 1.501,1.348 2.377,1.348 3.05,1.364 3.691,1.075 4.176,0.722 L 3.598,-0.4 C 3.175,-0.096 2.8,0.049 2.252,0.049 c -1.235,0 -2.268,-0.931 -2.268,-2.374 v -4.428 h -1.283 v 7.909 h 1.19 z" /></g><g
           transform="translate(519.7656,422.4074)"
           id="g172"><path
             id="path174"
             style="fill:#206b91;fill-opacity:1;fill-rule:nonzero;stroke:none"
             d="m 0,0 h 1.173 l 0.062,-1.235 c 0.689,1.026 1.565,1.427 2.614,1.427 1.923,0 3.285,-1.316 3.285,-3.706 V -7.909 H 5.835 v 4.38 c 0,1.587 -0.751,2.486 -2.237,2.486 -1.409,0 -2.331,-1.203 -2.331,-2.614 v -4.252 l -1.267,0 z" /></g><path
           id="path176"
           style="fill:#206b91;fill-opacity:1;fill-rule:nonzero;stroke:none"
           d="m 536.424,422.407 h 1.282 v -7.909 h -1.282 z m 0.656,3.289 c 0.407,0 0.86,-0.289 0.86,-0.867 0,-0.578 -0.453,-0.834 -0.86,-0.834 -0.437,0 -0.845,0.273 -0.845,0.85 0,0.562 0.408,0.851 0.845,0.851" /><g
           transform="translate(547.5283,422.4074)"
           id="g178"><path
             id="path180"
             style="fill:#206b91;fill-opacity:1;fill-rule:nonzero;stroke:none"
             d="m 0,0 h 1.172 l 0.062,-1.235 c 0.69,1.026 1.566,1.427 2.614,1.427 1.923,0 3.285,-1.316 3.285,-3.706 V -7.909 H 5.834 v 4.38 c 0,1.587 -0.75,2.486 -2.236,2.486 -1.409,0 -2.332,-1.203 -2.332,-2.614 v -4.252 l -1.266,0 z" /></g><g
           transform="translate(567.8145,415.9099)"
           id="g182"><path
             id="path184"
             style="fill:#206b91;fill-opacity:1;fill-rule:nonzero;stroke:none"
             d="m 0,0 c 1.644,0 2.784,1.22 2.784,2.76 0,1.796 -1.345,2.726 -2.8,2.726 -1.376,0 -2.831,-0.865 -2.831,-2.71 C -2.8,0.947 -1.548,0 0,0 m -2.784,-2.583 c 0,-1.539 1.346,-2.196 2.753,-2.196 1.33,0 2.722,0.481 2.722,1.877 0,1.282 -1.267,1.764 -2.707,1.764 -2.423,0 -4.083,1.427 -4.083,3.914 0,2.615 2.113,3.913 4.083,3.913 0.72,0 1.612,-0.191 2.191,-0.609 L 3.004,7.139 3.927,6.368 3.035,5.326 c 0.626,-0.705 1.001,-1.395 1.001,-2.55 0,-1.331 -0.657,-2.711 -2.175,-3.225 1.518,-0.448 2.128,-1.283 2.128,-2.438 0,-2.149 -1.987,-3.095 -4.036,-3.095 -2.33,0 -4.02,1.267 -3.958,3.399 z" /></g><g
           transform="translate(314.6631,469.0666)"
           id="g186"><path
             id="path188"
             style="fill:#206b91;fill-opacity:1;fill-rule:nonzero;stroke:none"
             d="m 0,0 c -3.513,-2.987 -11.366,-10.005 -19.597,-20.867 -3.443,-4.544 -8.74,-11.618 -13.554,-22.076 -1.266,-2.749 -2.205,-5.097 -2.84,-6.767 0.829,1.481 2.047,3.629 3.557,6.195 4.66,7.912 8.578,14.566 14.165,21.941 1.541,2.035 8.351,10.911 18.722,20.749 C 3.49,2.056 7.277,5.44 7.148,5.589 7.016,5.742 2.842,2.416 0,0" /></g><g
           transform="translate(332.356,479.0832)"
           id="g190"><path
             id="path192"
             style="fill:#206b91;fill-opacity:1;fill-rule:nonzero;stroke:none"
             d="m 0,0 c -3.119,4.217 -15.615,-0.657 -16.32,-0.938 -1.779,-0.709 -3.225,-1.476 -4.298,-2.106 h -38.609 v -36.199 c 0,-5.038 1.723,-9.68 4.605,-13.379 0.769,4.668 1.274,6.836 1.96,9.129 0.563,1.88 1.105,3.369 1.437,4.245 0.14,-0.649 0.444,-1.664 1.151,-2.729 0.813,-1.225 1.784,-1.948 2.373,-2.322 -0.401,1.046 -0.791,2.22 -1.13,3.516 -0.427,1.63 -0.691,3.14 -0.854,4.48 1.709,3.949 4.28,8.85 8.167,14.029 4.061,5.409 8.332,9.487 11.866,12.41 -0.477,-1.031 -0.987,-2.41 -1.283,-4.088 -0.194,-1.106 -0.254,-2.107 -0.25,-2.957 0.836,1.89 1.733,3.331 2.378,4.276 0.842,1.231 4.436,6.269 11.535,9.844 1.692,0.852 3.148,1.402 4.065,1.72 -0.663,-0.905 -1.326,-1.81 -1.989,-2.715 0.803,0.841 2.514,2.394 5.235,3.253 2.209,0.698 7.03,1.552 8.656,-0.403 2.524,-3.033 -2.652,-12.816 -10.635,-15.54 -0.683,-0.233 -1.296,-0.383 -1.793,-0.484 0.646,-0.036 1.556,-0.024 2.607,0.199 1.081,0.228 1.924,0.598 2.495,0.899 -0.869,-1.042 -2.988,-3.132 -4.856,-4.924 v -18.459 c 0,-13.134 -10.705,-23.82 -23.864,-23.82 -4.87,0 -9.402,1.466 -13.182,3.977 -2.597,-2.708 -4.653,-5.036 -6.059,-6.674 0.371,2.631 0.692,4.821 0.926,6.398 0.23,1.55 0.437,2.911 0.629,4.144 -3.837,4.229 -6.177,9.834 -6.177,15.975 v 36.199 h -0.142 -0.361 -5.599 v -36.2 c 0,-12.424 7.351,-19.916 9.867,-22.189 0.066,-0.059 0.132,-0.118 0.181,-0.162 l -0.964,-7.561 4.881,4.621 c 2.617,-1.662 8.051,-4.62 15.69,-4.621 16.86,-10e-4 30.276,13.391 30.276,29.912 v 23.611 c 1.516,1.022 3.855,2.889 5.603,5.863 C -1.151,-8.697 2.142,-2.896 0,0" /></g><g
           transform="translate(295.3198,432.7673)"
           id="g194"><path
             id="path196"
             style="fill:#206b91;fill-opacity:1;fill-rule:nonzero;stroke:none"
             d="m 0,0 c -4.146,-4.284 -8.223,-8.041 -12.088,-11.317 3.402,-2.178 7.441,-3.447 11.773,-3.447 12.063,0 21.877,9.796 21.877,21.837 V 23.647 C 21.388,23.484 21.222,23.329 21.075,23.192 14.617,17.899 8.016,14.927 3.208,13.236 c 1.373,-0.009 3.044,0.086 4.917,0.426 1.879,0.341 3.483,0.842 4.768,1.335 C 9.29,10.269 5.022,5.189 0,0" /></g></g></g></g></svg>