<svg xmlns="http://www.w3.org/2000/svg" xmlns:xlink="http://www.w3.org/1999/xlink" width="1080" zoomAndPan="magnify" viewBox="0 0 810 809.999993" height="1080" preserveAspectRatio="xMidYMid meet" version="1.0"><rect x="-81" width="972" fill="#ffffff" y="-80.999999" height="971.999992" fill-opacity="1"/><rect x="-81" width="972" fill="#ebfdff" y="-80.999999" height="971.999992" fill-opacity="1"/><rect x="-81" width="972" fill="#ffffff" y="-80.999999" height="971.999992" fill-opacity="1"/><rect x="-81" width="972" fill="#ebfdff" y="-80.999999" height="971.999992" fill-opacity="1"/><path fill="#147e93" d="M 449.714844 360.132812 C 445.996094 360.132812 442.289062 360.382812 438.601562 360.878906 C 434.914062 361.378906 431.273438 362.121094 427.6875 363.105469 C 424.097656 364.09375 420.59375 365.316406 417.167969 366.773438 C 413.742188 368.230469 410.433594 369.910156 407.234375 371.8125 C 404.035156 373.714844 400.980469 375.824219 398.066406 378.136719 C 395.152344 380.453125 392.40625 382.949219 389.828125 385.632812 C 387.25 388.316406 384.863281 391.15625 382.664062 394.160156 C 380.46875 397.164062 378.484375 400.300781 376.710938 403.570312 C 374.9375 406.839844 373.386719 410.214844 372.066406 413.695312 C 370.746094 417.171875 369.667969 420.722656 368.824219 424.347656 C 367.980469 427.96875 367.382812 431.632812 367.035156 435.335938 C 366.683594 439.039062 366.582031 442.75 366.734375 446.46875 C 366.882812 450.183594 367.277344 453.875 367.925781 457.539062 C 368.570312 461.203125 369.457031 464.808594 370.589844 468.351562 C 371.71875 471.894531 373.082031 475.347656 374.675781 478.710938 C 376.269531 482.070312 378.082031 485.3125 380.113281 488.429688 L 401.523438 474.484375 C 400.589844 473.046875 399.71875 471.570312 398.917969 470.054688 C 398.113281 468.539062 397.378906 466.988281 396.714844 465.40625 C 396.050781 463.828125 395.457031 462.21875 394.933594 460.582031 C 394.414062 458.949219 393.96875 457.296875 393.59375 455.621094 C 393.222656 453.945312 392.925781 452.257812 392.703125 450.558594 C 392.484375 448.855469 392.339844 447.148438 392.269531 445.433594 C 392.203125 443.722656 392.210938 442.007812 392.292969 440.292969 C 392.378906 438.582031 392.542969 436.875 392.777344 435.175781 C 393.015625 433.476562 393.332031 431.792969 393.71875 430.121094 C 394.109375 428.453125 394.570312 426.800781 395.105469 425.171875 C 395.644531 423.542969 396.253906 421.941406 396.933594 420.367188 C 397.613281 418.792969 398.363281 417.25 399.179688 415.742188 C 399.996094 414.234375 400.882812 412.765625 401.832031 411.339844 C 402.78125 409.910156 403.792969 408.527344 404.867188 407.1875 C 405.941406 405.851562 407.070312 404.5625 408.261719 403.324219 C 409.449219 402.089844 410.691406 400.90625 411.984375 399.78125 C 413.28125 398.65625 414.625 397.589844 416.011719 396.585938 C 417.402344 395.578125 418.835938 394.636719 420.3125 393.761719 C 421.785156 392.882812 423.296875 392.074219 424.84375 391.332031 C 426.390625 390.589844 427.96875 389.917969 429.574219 389.316406 C 431.183594 388.714844 432.8125 388.1875 434.46875 387.734375 C 436.121094 387.277344 437.792969 386.898438 439.480469 386.59375 C 441.171875 386.289062 442.871094 386.058594 444.578125 385.90625 C 446.289062 385.753906 448 385.675781 449.714844 385.675781 C 451.433594 385.675781 453.144531 385.753906 454.855469 385.90625 C 456.5625 386.058594 458.261719 386.289062 459.949219 386.59375 C 461.640625 386.898438 463.308594 387.277344 464.964844 387.734375 C 466.621094 388.1875 468.25 388.714844 469.859375 389.316406 C 471.464844 389.917969 473.042969 390.589844 474.589844 391.332031 C 476.136719 392.074219 477.648438 392.882812 479.121094 393.761719 C 480.597656 394.636719 482.027344 395.578125 483.417969 396.585938 C 484.808594 397.589844 486.152344 398.65625 487.445312 399.78125 C 488.742188 400.90625 489.984375 402.089844 491.171875 403.324219 C 492.359375 404.5625 493.492188 405.851562 494.566406 407.1875 C 495.640625 408.527344 496.652344 409.910156 497.601562 411.339844 C 498.550781 412.765625 499.433594 414.234375 500.253906 415.742188 C 501.070312 417.25 501.820312 418.792969 502.5 420.367188 C 503.179688 421.941406 503.789062 423.542969 504.324219 425.171875 C 504.863281 426.800781 505.324219 428.453125 505.714844 430.121094 C 506.101562 431.792969 506.414062 433.476562 506.652344 435.175781 C 506.890625 436.875 507.050781 438.582031 507.136719 440.292969 C 507.222656 442.007812 507.230469 443.722656 507.164062 445.433594 C 507.09375 447.148438 506.949219 448.855469 506.726562 450.558594 C 506.507812 452.257812 506.210938 453.945312 505.835938 455.621094 C 505.464844 457.296875 505.019531 458.949219 504.496094 460.582031 C 503.976562 462.21875 503.382812 463.824219 502.71875 465.40625 C 502.054688 466.988281 501.320312 468.539062 500.515625 470.054688 C 499.710938 471.570312 498.84375 473.046875 497.90625 474.484375 L 519.320312 488.429688 C 521.351562 485.3125 523.164062 482.070312 524.757812 478.710938 C 526.351562 475.347656 527.714844 471.894531 528.84375 468.351562 C 529.972656 464.808594 530.863281 461.203125 531.507812 457.539062 C 532.152344 453.875 532.550781 450.183594 532.699219 446.46875 C 532.847656 442.75 532.746094 439.039062 532.398438 435.335938 C 532.046875 431.632812 531.453125 427.96875 530.609375 424.347656 C 529.765625 420.722656 528.683594 417.171875 527.363281 413.695312 C 526.042969 410.214844 524.496094 406.839844 522.722656 403.570312 C 520.949219 400.300781 518.964844 397.164062 516.769531 394.160156 C 514.570312 391.160156 512.183594 388.316406 509.605469 385.632812 C 507.027344 382.949219 504.28125 380.453125 501.367188 378.140625 C 498.453125 375.824219 495.398438 373.71875 492.199219 371.816406 C 489 369.914062 485.691406 368.230469 482.265625 366.773438 C 478.84375 365.316406 475.335938 364.09375 471.746094 363.105469 C 468.160156 362.121094 464.519531 361.378906 460.832031 360.878906 C 457.144531 360.382812 453.4375 360.132812 449.714844 360.132812 Z M 449.714844 360.132812 " fill-opacity="1" fill-rule="nonzero"/><path fill="#147e93" d="M 175.03125 8.9375 C 172.777344 8.933594 170.527344 8.996094 168.28125 9.121094 C 166.03125 9.25 163.789062 9.445312 161.550781 9.703125 C 159.3125 9.964844 157.085938 10.289062 154.867188 10.679688 C 152.648438 11.070312 150.441406 11.527344 148.25 12.046875 C 146.058594 12.566406 143.882812 13.148438 141.726562 13.796875 C 139.570312 14.445312 137.433594 15.15625 135.316406 15.929688 C 133.203125 16.703125 131.113281 17.539062 129.046875 18.433594 C 126.980469 19.328125 124.941406 20.285156 122.929688 21.300781 C 120.917969 22.316406 118.941406 23.390625 116.992188 24.523438 C 115.046875 25.65625 113.132812 26.84375 111.257812 28.089844 C 109.378906 29.332031 107.542969 30.632812 105.742188 31.984375 C 103.941406 33.335938 102.179688 34.742188 100.460938 36.199219 C 98.742188 37.652344 97.070312 39.160156 95.4375 40.710938 C 93.808594 42.265625 92.226562 43.867188 90.691406 45.515625 C 89.15625 47.164062 87.667969 48.851562 86.234375 50.585938 C 84.796875 52.320312 83.414062 54.097656 82.082031 55.914062 C 80.75 57.730469 79.472656 59.582031 78.25 61.472656 C 77.027344 63.363281 75.859375 65.289062 74.75 67.25 C 73.640625 69.207031 72.589844 71.199219 71.597656 73.21875 C 70.601562 75.242188 69.671875 77.289062 68.796875 79.367188 C 67.925781 81.441406 67.117188 83.542969 66.367188 85.664062 C 65.617188 87.789062 64.933594 89.933594 64.308594 92.097656 C 63.6875 94.257812 63.128906 96.441406 62.632812 98.636719 C 62.136719 100.832031 61.707031 103.042969 61.34375 105.265625 C 60.980469 107.488281 60.679688 109.71875 60.445312 111.957031 C 60.214844 114.195312 60.046875 116.441406 59.945312 118.691406 C 59.84375 120.9375 59.808594 123.191406 59.835938 125.441406 C 59.867188 127.691406 59.964844 129.941406 60.128906 132.1875 C 60.289062 134.433594 60.519531 136.671875 60.8125 138.902344 C 61.109375 141.136719 61.46875 143.359375 61.894531 145.570312 C 62.320312 147.78125 62.808594 149.976562 63.363281 152.160156 C 63.917969 154.339844 64.535156 156.507812 65.21875 158.652344 C 65.898438 160.796875 66.640625 162.921875 67.449219 165.023438 C 68.253906 167.128906 69.121094 169.203125 70.050781 171.253906 C 70.980469 173.308594 71.96875 175.328125 73.015625 177.324219 C 74.0625 179.316406 75.167969 181.277344 76.332031 183.207031 C 77.492188 185.132812 78.710938 187.027344 79.988281 188.882812 C 81.261719 190.738281 82.589844 192.558594 83.96875 194.335938 C 85.351562 196.117188 86.78125 197.851562 88.265625 199.546875 C 89.746094 201.242188 91.28125 202.890625 92.859375 204.496094 C 94.441406 206.101562 96.066406 207.660156 97.738281 209.167969 C 99.410156 210.675781 101.125 212.136719 102.878906 213.542969 C 104.636719 214.953125 106.433594 216.308594 108.273438 217.613281 C 110.109375 218.914062 111.984375 220.164062 113.894531 221.355469 C 115.804688 222.546875 117.746094 223.683594 119.726562 224.761719 C 121.703125 225.839844 123.710938 226.863281 125.746094 227.820312 C 127.785156 228.78125 129.847656 229.683594 131.9375 230.523438 C 134.027344 231.363281 136.140625 232.140625 138.277344 232.855469 C 140.414062 233.570312 142.566406 234.222656 144.742188 234.8125 C 146.914062 235.398438 149.105469 235.925781 151.308594 236.386719 C 153.515625 236.84375 155.730469 237.242188 157.960938 237.570312 C 160.1875 237.898438 162.425781 238.164062 164.667969 238.363281 C 166.914062 238.5625 169.160156 238.695312 171.410156 238.761719 C 173.664062 238.828125 175.914062 238.828125 178.167969 238.761719 C 180.417969 238.695312 182.664062 238.566406 184.910156 238.367188 C 187.152344 238.167969 189.390625 237.90625 191.617188 237.578125 C 193.847656 237.246094 196.0625 236.851562 198.269531 236.394531 C 200.472656 235.933594 202.664062 235.410156 204.835938 234.824219 C 207.011719 234.234375 209.167969 233.582031 211.304688 232.871094 C 213.4375 232.15625 215.550781 231.378906 217.644531 230.539062 C 219.734375 229.699219 221.796875 228.800781 223.835938 227.839844 C 225.871094 226.882812 227.878906 225.863281 229.859375 224.785156 C 231.835938 223.707031 233.78125 222.570312 235.691406 221.378906 C 237.601562 220.1875 239.476562 218.941406 241.3125 217.636719 L 369.890625 362.242188 L 389.054688 345.253906 L 260.375 200.625 C 262.226562 198.578125 264 196.46875 265.699219 194.292969 C 267.398438 192.121094 269.015625 189.886719 270.554688 187.59375 C 272.089844 185.304688 273.542969 182.960938 274.914062 180.5625 C 276.28125 178.167969 277.5625 175.722656 278.753906 173.234375 C 279.945312 170.746094 281.046875 168.21875 282.054688 165.652344 C 283.066406 163.082031 283.980469 160.480469 284.800781 157.847656 C 285.625 155.214844 286.351562 152.554688 286.980469 149.867188 C 287.609375 147.179688 288.140625 144.476562 288.578125 141.75 C 289.011719 139.027344 289.347656 136.289062 289.585938 133.539062 C 289.820312 130.792969 289.960938 128.039062 289.996094 125.277344 C 290.035156 122.519531 289.976562 119.765625 289.816406 117.007812 C 289.652344 114.253906 289.394531 111.511719 289.035156 108.773438 C 288.675781 106.039062 288.21875 103.320312 287.664062 100.617188 C 287.109375 97.914062 286.460938 95.234375 285.710938 92.578125 C 284.960938 89.921875 284.121094 87.296875 283.183594 84.703125 C 282.246094 82.105469 281.214844 79.550781 280.09375 77.027344 C 278.96875 74.507812 277.757812 72.03125 276.457031 69.597656 C 275.15625 67.164062 273.769531 64.78125 272.296875 62.445312 C 270.824219 60.113281 269.265625 57.835938 267.628906 55.613281 C 265.992188 53.394531 264.277344 51.234375 262.484375 49.136719 C 260.691406 47.039062 258.824219 45.007812 256.882812 43.046875 C 254.945312 41.082031 252.9375 39.191406 250.859375 37.375 C 248.785156 35.554688 246.644531 33.816406 244.445312 32.152344 C 242.242188 30.488281 239.984375 28.90625 237.667969 27.402344 C 235.351562 25.902344 232.984375 24.488281 230.566406 23.15625 C 228.148438 21.828125 225.683594 20.585938 223.175781 19.433594 C 220.667969 18.28125 218.121094 17.21875 215.539062 16.25 C 212.953125 15.28125 210.339844 14.40625 207.691406 13.625 C 205.042969 12.84375 202.371094 12.160156 199.675781 11.570312 C 196.976562 10.984375 194.261719 10.496094 191.53125 10.101562 C 188.796875 9.710938 186.054688 9.417969 183.300781 9.222656 C 180.546875 9.027344 177.792969 8.933594 175.03125 8.9375 Z M 226.136719 192.835938 L 222.304688 196.285156 L 224.167969 198.378906 C 222.320312 199.613281 220.433594 200.777344 218.496094 201.871094 C 216.5625 202.960938 214.59375 203.980469 212.582031 204.925781 C 210.570312 205.867188 208.527344 206.734375 206.453125 207.523438 C 204.375 208.316406 202.273438 209.027344 200.144531 209.65625 C 198.015625 210.289062 195.863281 210.839844 193.691406 211.3125 C 191.523438 211.78125 189.335938 212.167969 187.136719 212.472656 C 184.9375 212.78125 182.726562 213.003906 180.511719 213.140625 C 178.292969 213.28125 176.074219 213.335938 173.851562 213.308594 C 171.632812 213.28125 169.414062 213.167969 167.203125 212.976562 C 164.988281 212.78125 162.789062 212.503906 160.59375 212.144531 C 158.402344 211.78125 156.230469 211.339844 154.070312 210.816406 C 151.910156 210.292969 149.777344 209.6875 147.664062 209.003906 C 145.550781 208.316406 143.464844 207.554688 141.410156 206.714844 C 139.355469 205.871094 137.332031 204.953125 135.347656 203.960938 C 133.359375 202.964844 131.414062 201.898438 129.507812 200.757812 C 127.601562 199.617188 125.742188 198.40625 123.925781 197.128906 L 123.925781 149.414062 C 123.925781 148.578125 123.96875 147.746094 124.050781 146.914062 C 124.132812 146.078125 124.253906 145.253906 124.417969 144.433594 C 124.582031 143.613281 124.785156 142.800781 125.027344 142 C 125.269531 141.203125 125.550781 140.414062 125.871094 139.640625 C 126.191406 138.867188 126.550781 138.113281 126.945312 137.375 C 127.339844 136.636719 127.769531 135.921875 128.234375 135.226562 C 128.699219 134.53125 129.195312 133.859375 129.726562 133.210938 C 130.257812 132.566406 130.820312 131.945312 131.410156 131.355469 C 132.003906 130.765625 132.621094 130.203125 133.269531 129.671875 C 133.917969 129.140625 134.585938 128.644531 135.285156 128.179688 C 135.980469 127.714844 136.695312 127.285156 137.433594 126.890625 C 138.171875 126.496094 138.929688 126.140625 139.699219 125.820312 C 140.472656 125.5 141.261719 125.21875 142.0625 124.972656 C 142.863281 124.730469 143.671875 124.527344 144.496094 124.363281 C 145.316406 124.203125 146.140625 124.078125 146.976562 123.996094 C 147.808594 123.914062 148.644531 123.875 149.480469 123.875 L 175.03125 123.875 C 173.984375 123.875 172.941406 123.824219 171.902344 123.722656 C 170.859375 123.617188 169.828125 123.464844 168.800781 123.261719 C 167.773438 123.058594 166.761719 122.804688 165.761719 122.5 C 164.757812 122.195312 163.773438 121.84375 162.808594 121.445312 C 161.84375 121.042969 160.898438 120.597656 159.976562 120.105469 C 159.050781 119.613281 158.15625 119.074219 157.285156 118.492188 C 156.417969 117.914062 155.578125 117.289062 154.769531 116.628906 C 153.960938 115.964844 153.1875 115.261719 152.445312 114.523438 C 151.707031 113.785156 151.003906 113.011719 150.339844 112.203125 C 149.679688 111.394531 149.054688 110.554688 148.472656 109.683594 C 147.894531 108.816406 147.355469 107.921875 146.863281 106.996094 C 146.371094 106.074219 145.921875 105.132812 145.523438 104.164062 C 145.121094 103.199219 144.769531 102.214844 144.464844 101.214844 C 144.164062 100.214844 143.910156 99.203125 143.707031 98.175781 C 143.5 97.152344 143.347656 96.117188 143.246094 95.078125 C 143.144531 94.035156 143.089844 92.992188 143.089844 91.949219 C 143.089844 90.902344 143.144531 89.859375 143.246094 88.816406 C 143.347656 87.777344 143.5 86.746094 143.707031 85.71875 C 143.910156 84.695312 144.164062 83.679688 144.464844 82.679688 C 144.769531 81.679688 145.121094 80.695312 145.523438 79.730469 C 145.921875 78.761719 146.371094 77.820312 146.863281 76.898438 C 147.355469 75.976562 147.894531 75.078125 148.472656 74.210938 C 149.054688 73.339844 149.679688 72.5 150.339844 71.691406 C 151.003906 70.886719 151.707031 70.109375 152.445312 69.371094 C 153.1875 68.632812 153.960938 67.929688 154.769531 67.269531 C 155.578125 66.605469 156.417969 65.980469 157.285156 65.402344 C 158.15625 64.820312 159.050781 64.285156 159.976562 63.789062 C 160.898438 63.296875 161.84375 62.851562 162.808594 62.449219 C 163.773438 62.050781 164.757812 61.699219 165.761719 61.394531 C 166.761719 61.09375 167.773438 60.839844 168.800781 60.632812 C 169.828125 60.429688 170.859375 60.277344 171.902344 60.175781 C 172.941406 60.070312 173.984375 60.019531 175.03125 60.019531 C 176.078125 60.019531 177.121094 60.070312 178.164062 60.175781 C 179.203125 60.277344 180.238281 60.429688 181.261719 60.632812 C 182.289062 60.839844 183.300781 61.09375 184.304688 61.394531 C 185.304688 61.699219 186.289062 62.050781 187.253906 62.449219 C 188.222656 62.851562 189.164062 63.296875 190.089844 63.789062 C 191.011719 64.285156 191.90625 64.820312 192.777344 65.402344 C 193.644531 65.980469 194.484375 66.605469 195.292969 67.269531 C 196.101562 67.929688 196.875 68.632812 197.617188 69.371094 C 198.355469 70.109375 199.058594 70.886719 199.722656 71.691406 C 200.386719 72.5 201.007812 73.339844 201.589844 74.210938 C 202.171875 75.078125 202.707031 75.976562 203.199219 76.898438 C 203.691406 77.820312 204.140625 78.761719 204.539062 79.730469 C 204.941406 80.695312 205.292969 81.679688 205.597656 82.679688 C 205.898438 83.679688 206.152344 84.695312 206.359375 85.71875 C 206.5625 86.746094 206.714844 87.777344 206.816406 88.816406 C 206.921875 89.859375 206.972656 90.902344 206.972656 91.949219 C 206.972656 92.992188 206.921875 94.035156 206.816406 95.078125 C 206.714844 96.117188 206.5625 97.152344 206.359375 98.175781 C 206.152344 99.203125 205.898438 100.214844 205.597656 101.214844 C 205.292969 102.214844 204.941406 103.199219 204.539062 104.164062 C 204.140625 105.132812 203.691406 106.074219 203.199219 106.996094 C 202.707031 107.921875 202.171875 108.816406 201.589844 109.683594 C 201.007812 110.554688 200.386719 111.394531 199.722656 112.203125 C 199.058594 113.011719 198.355469 113.785156 197.617188 114.523438 C 196.875 115.261719 196.101562 115.964844 195.292969 116.628906 C 194.484375 117.289062 193.644531 117.914062 192.777344 118.492188 C 191.90625 119.074219 191.011719 119.613281 190.089844 120.105469 C 189.164062 120.597656 188.222656 121.042969 187.253906 121.445312 C 186.289062 121.84375 185.304688 122.195312 184.304688 122.5 C 183.300781 122.804688 182.289062 123.058594 181.261719 123.261719 C 180.238281 123.464844 179.203125 123.617188 178.164062 123.722656 C 177.121094 123.824219 176.078125 123.875 175.03125 123.875 L 200.582031 123.875 C 201.421875 123.875 202.253906 123.914062 203.089844 123.996094 C 203.921875 124.078125 204.746094 124.203125 205.570312 124.363281 C 206.390625 124.527344 207.199219 124.730469 208 124.972656 C 208.800781 125.21875 209.589844 125.5 210.363281 125.820312 C 211.136719 126.140625 211.890625 126.496094 212.628906 126.890625 C 213.367188 127.285156 214.082031 127.714844 214.78125 128.179688 C 215.476562 128.644531 216.148438 129.140625 216.792969 129.671875 C 217.441406 130.203125 218.058594 130.765625 218.652344 131.355469 C 219.242188 131.945312 219.804688 132.566406 220.335938 133.210938 C 220.867188 133.859375 221.363281 134.53125 221.828125 135.226562 C 222.292969 135.921875 222.722656 136.636719 223.117188 137.375 C 223.511719 138.113281 223.871094 138.867188 224.191406 139.640625 C 224.511719 140.414062 224.792969 141.199219 225.035156 142 C 225.277344 142.800781 225.480469 143.613281 225.644531 144.433594 C 225.808594 145.253906 225.929688 146.078125 226.011719 146.914062 C 226.09375 147.746094 226.136719 148.578125 226.136719 149.414062 Z M 226.136719 192.835938 " fill-opacity="1" fill-rule="nonzero"/><path fill="#147e93" d="M 123.925781 724.75 C 126.234375 724.757812 128.535156 724.695312 130.835938 724.5625 C 133.136719 724.429688 135.433594 724.230469 137.722656 723.957031 C 140.011719 723.6875 142.289062 723.347656 144.558594 722.941406 C 146.828125 722.53125 149.082031 722.058594 151.324219 721.511719 C 153.5625 720.96875 155.785156 720.359375 157.988281 719.679688 C 160.191406 719.003906 162.371094 718.257812 164.527344 717.449219 C 166.6875 716.640625 168.820312 715.765625 170.925781 714.828125 C 173.03125 713.890625 175.105469 712.890625 177.152344 711.828125 C 179.195312 710.765625 181.207031 709.640625 183.183594 708.457031 C 185.160156 707.273438 187.101562 706.03125 189.003906 704.730469 C 190.90625 703.429688 192.769531 702.070312 194.589844 700.65625 C 196.410156 699.246094 198.183594 697.777344 199.917969 696.257812 C 201.648438 694.738281 203.335938 693.164062 204.972656 691.542969 C 206.609375 689.921875 208.195312 688.25 209.730469 686.535156 C 211.269531 684.816406 212.75 683.054688 214.183594 681.246094 C 215.613281 679.441406 216.988281 677.589844 218.304688 675.703125 C 219.625 673.8125 220.882812 671.882812 222.085938 669.917969 C 223.289062 667.953125 224.429688 665.953125 225.511719 663.917969 C 226.59375 661.882812 227.613281 659.816406 228.570312 657.722656 C 229.527344 655.625 230.421875 653.5 231.25 651.351562 C 232.078125 649.203125 232.839844 647.027344 233.539062 644.832031 C 234.238281 642.636719 234.867188 640.421875 235.433594 638.1875 C 235.996094 635.953125 236.492188 633.703125 236.921875 631.441406 C 237.351562 629.175781 237.710938 626.902344 238 624.617188 C 238.292969 622.328125 238.515625 620.039062 238.667969 617.738281 C 238.820312 615.4375 238.902344 613.136719 238.917969 610.832031 C 238.933594 608.53125 238.875 606.226562 238.75 603.925781 C 238.625 601.625 238.433594 599.332031 238.167969 597.042969 C 237.90625 594.753906 237.574219 592.472656 237.171875 590.203125 C 236.773438 587.933594 236.304688 585.679688 235.765625 583.441406 C 235.230469 581.199219 234.625 578.976562 233.953125 576.773438 C 233.285156 574.566406 232.546875 572.386719 231.746094 570.226562 L 347.800781 498.429688 L 334.347656 476.71875 L 220.285156 547.277344 C 218.933594 545.195312 217.519531 543.164062 216.039062 541.175781 C 214.558594 539.1875 213.015625 537.25 211.410156 535.363281 C 209.804688 533.476562 208.140625 531.640625 206.414062 529.859375 C 204.691406 528.082031 202.910156 526.359375 201.074219 524.691406 C 199.238281 523.027344 197.351562 521.421875 195.410156 519.878906 C 193.472656 518.335938 191.484375 516.859375 189.449219 515.445312 C 187.414062 514.03125 185.332031 512.683594 183.210938 511.402344 C 181.089844 510.121094 178.925781 508.910156 176.726562 507.769531 C 174.523438 506.632812 172.289062 505.5625 170.019531 504.566406 C 167.75 503.570312 165.449219 502.648438 163.121094 501.800781 C 160.789062 500.957031 158.433594 500.183594 156.054688 499.488281 C 153.675781 498.792969 151.277344 498.175781 148.855469 497.636719 C 146.4375 497.097656 144.003906 496.636719 141.554688 496.253906 C 139.105469 495.871094 136.644531 495.570312 134.175781 495.347656 C 131.707031 495.121094 129.234375 494.980469 126.753906 494.914062 C 124.277344 494.851562 121.800781 494.867188 119.320312 494.964844 C 116.84375 495.0625 114.375 495.238281 111.90625 495.496094 C 109.441406 495.753906 106.988281 496.089844 104.542969 496.503906 C 102.097656 496.917969 99.671875 497.414062 97.257812 497.984375 C 94.847656 498.558594 92.457031 499.207031 90.085938 499.933594 C 87.714844 500.660156 85.371094 501.460938 83.054688 502.339844 C 80.734375 503.21875 78.449219 504.171875 76.191406 505.199219 C 73.933594 506.222656 71.714844 507.320312 69.527344 508.492188 C 67.34375 509.660156 65.199219 510.902344 63.09375 512.210938 C 60.988281 513.519531 58.925781 514.894531 56.910156 516.335938 C 54.894531 517.777344 52.925781 519.28125 51.007812 520.851562 C 49.089844 522.421875 47.222656 524.050781 45.410156 525.738281 C 43.597656 527.429688 41.839844 529.175781 40.140625 530.976562 C 38.4375 532.78125 36.796875 534.636719 35.21875 536.546875 C 33.636719 538.457031 32.121094 540.414062 30.667969 542.421875 C 29.214844 544.429688 27.824219 546.480469 26.503906 548.578125 C 25.183594 550.675781 23.933594 552.8125 22.75 554.992188 C 21.566406 557.167969 20.457031 559.382812 19.417969 561.632812 C 18.378906 563.882812 17.414062 566.164062 16.519531 568.476562 C 15.628906 570.789062 14.8125 573.125 14.074219 575.492188 C 13.332031 577.855469 12.671875 580.242188 12.085938 582.652344 C 11.5 585.058594 10.992188 587.484375 10.5625 589.921875 C 10.132812 592.363281 9.78125 594.816406 9.511719 597.277344 C 9.242188 599.742188 9.050781 602.210938 8.941406 604.6875 C 8.832031 607.164062 8.800781 609.640625 8.851562 612.117188 C 8.898438 614.59375 9.027344 617.066406 9.238281 619.539062 C 9.449219 622.007812 9.738281 624.464844 10.105469 626.917969 C 10.476562 629.367188 10.921875 631.804688 11.449219 634.222656 C 11.976562 636.644531 12.582031 639.046875 13.261719 641.429688 C 13.945312 643.8125 14.703125 646.171875 15.535156 648.503906 C 16.371094 650.835938 17.28125 653.140625 18.265625 655.417969 C 19.246094 657.691406 20.304688 659.929688 21.433594 662.136719 C 22.5625 664.34375 23.757812 666.511719 25.027344 668.640625 C 26.296875 670.769531 27.632812 672.855469 29.035156 674.898438 C 30.441406 676.941406 31.910156 678.933594 33.441406 680.882812 C 34.976562 682.832031 36.570312 684.726562 38.226562 686.570312 C 39.878906 688.414062 41.59375 690.203125 43.363281 691.9375 C 45.136719 693.671875 46.960938 695.347656 48.839844 696.960938 C 50.722656 698.578125 52.652344 700.132812 54.632812 701.621094 C 56.609375 703.113281 58.636719 704.539062 60.710938 705.898438 C 62.78125 707.257812 64.898438 708.550781 67.050781 709.773438 C 69.207031 710.996094 71.402344 712.148438 73.632812 713.230469 C 75.863281 714.3125 78.125 715.320312 80.421875 716.253906 C 82.71875 717.191406 85.042969 718.050781 87.394531 718.835938 C 89.742188 719.621094 92.117188 720.328125 94.515625 720.957031 C 96.914062 721.589844 99.328125 722.144531 101.761719 722.617188 C 104.195312 723.09375 106.640625 723.488281 109.097656 723.808594 C 111.558594 724.125 114.023438 724.363281 116.496094 724.519531 C 118.972656 724.675781 121.449219 724.753906 123.925781 724.75 Z M 72.824219 635.355469 C 72.824219 634.519531 72.863281 633.683594 72.945312 632.851562 C 73.027344 632.019531 73.152344 631.195312 73.3125 630.375 C 73.476562 629.554688 73.679688 628.742188 73.921875 627.941406 C 74.167969 627.140625 74.449219 626.355469 74.769531 625.582031 C 75.089844 624.808594 75.445312 624.054688 75.839844 623.316406 C 76.234375 622.578125 76.664062 621.863281 77.128906 621.167969 C 77.59375 620.46875 78.09375 619.800781 78.625 619.152344 C 79.15625 618.507812 79.714844 617.886719 80.308594 617.296875 C 80.898438 616.703125 81.519531 616.144531 82.164062 615.613281 C 82.8125 615.082031 83.484375 614.585938 84.179688 614.121094 C 84.875 613.65625 85.59375 613.226562 86.332031 612.832031 C 87.066406 612.4375 87.824219 612.078125 88.597656 611.757812 C 89.371094 611.4375 90.15625 611.15625 90.957031 610.914062 C 91.757812 610.671875 92.570312 610.46875 93.390625 610.304688 C 94.210938 610.140625 95.039062 610.019531 95.871094 609.9375 C 96.703125 609.855469 97.539062 609.816406 98.375 609.816406 L 123.925781 609.816406 C 122.882812 609.816406 121.835938 609.761719 120.796875 609.660156 C 119.753906 609.558594 118.722656 609.40625 117.695312 609.203125 C 116.671875 608.996094 115.65625 608.742188 114.65625 608.441406 C 113.65625 608.136719 112.671875 607.785156 111.703125 607.382812 C 110.738281 606.984375 109.792969 606.539062 108.871094 606.042969 C 107.949219 605.550781 107.050781 605.015625 106.183594 604.433594 C 105.3125 603.851562 104.472656 603.230469 103.664062 602.566406 C 102.855469 601.90625 102.082031 601.203125 101.34375 600.464844 C 100.601562 599.722656 99.902344 598.949219 99.238281 598.140625 C 98.574219 597.332031 97.953125 596.496094 97.371094 595.625 C 96.789062 594.757812 96.25 593.859375 95.757812 592.9375 C 95.265625 592.015625 94.820312 591.070312 94.417969 590.105469 C 94.019531 589.140625 93.667969 588.15625 93.363281 587.15625 C 93.058594 586.15625 92.804688 585.140625 92.601562 584.117188 C 92.398438 583.089844 92.242188 582.058594 92.140625 581.015625 C 92.039062 579.976562 91.988281 578.933594 91.988281 577.886719 C 91.988281 576.84375 92.039062 575.800781 92.140625 574.757812 C 92.242188 573.71875 92.398438 572.683594 92.601562 571.660156 C 92.804688 570.632812 93.058594 569.621094 93.363281 568.621094 C 93.667969 567.621094 94.019531 566.636719 94.417969 565.671875 C 94.820312 564.703125 95.265625 563.761719 95.757812 562.835938 C 96.25 561.914062 96.789062 561.019531 97.371094 560.148438 C 97.953125 559.28125 98.574219 558.441406 99.238281 557.632812 C 99.902344 556.824219 100.601562 556.050781 101.34375 555.3125 C 102.082031 554.574219 102.855469 553.871094 103.664062 553.207031 C 104.472656 552.542969 105.3125 551.921875 106.183594 551.339844 C 107.050781 550.761719 107.949219 550.222656 108.871094 549.730469 C 109.792969 549.238281 110.738281 548.792969 111.703125 548.390625 C 112.671875 547.992188 113.65625 547.640625 114.65625 547.335938 C 115.65625 547.03125 116.671875 546.777344 117.695312 546.574219 C 118.722656 546.371094 119.753906 546.21875 120.796875 546.113281 C 121.835938 546.011719 122.882812 545.960938 123.925781 545.960938 C 124.972656 545.960938 126.015625 546.011719 127.058594 546.113281 C 128.097656 546.21875 129.132812 546.371094 130.160156 546.574219 C 131.183594 546.777344 132.199219 547.03125 133.199219 547.335938 C 134.199219 547.640625 135.183594 547.992188 136.148438 548.390625 C 137.117188 548.792969 138.0625 549.238281 138.984375 549.730469 C 139.90625 550.222656 140.800781 550.761719 141.671875 551.339844 C 142.542969 551.921875 143.382812 552.542969 144.191406 553.207031 C 145 553.871094 145.773438 554.574219 146.511719 555.3125 C 147.253906 556.050781 147.953125 556.824219 148.617188 557.632812 C 149.28125 558.441406 149.902344 559.28125 150.484375 560.148438 C 151.066406 561.019531 151.601562 561.914062 152.097656 562.835938 C 152.589844 563.757812 153.035156 564.703125 153.4375 565.667969 C 153.835938 566.636719 154.1875 567.621094 154.492188 568.621094 C 154.796875 569.621094 155.050781 570.632812 155.253906 571.660156 C 155.457031 572.683594 155.609375 573.71875 155.714844 574.757812 C 155.816406 575.800781 155.867188 576.84375 155.867188 577.886719 C 155.867188 578.933594 155.816406 579.976562 155.714844 581.015625 C 155.609375 582.058594 155.457031 583.089844 155.253906 584.117188 C 155.050781 585.140625 154.796875 586.15625 154.492188 587.15625 C 154.1875 588.15625 153.835938 589.140625 153.4375 590.105469 C 153.035156 591.070312 152.589844 592.015625 152.097656 592.9375 C 151.601562 593.859375 151.066406 594.757812 150.484375 595.625 C 149.902344 596.496094 149.28125 597.332031 148.617188 598.140625 C 147.953125 598.949219 147.253906 599.722656 146.511719 600.464844 C 145.773438 601.203125 145 601.90625 144.191406 602.566406 C 143.382812 603.230469 142.542969 603.851562 141.671875 604.433594 C 140.800781 605.015625 139.90625 605.550781 138.984375 606.042969 C 138.0625 606.539062 137.117188 606.984375 136.148438 607.382812 C 135.183594 607.785156 134.199219 608.136719 133.199219 608.441406 C 132.199219 608.742188 131.183594 608.996094 130.160156 609.203125 C 129.132812 609.40625 128.097656 609.558594 127.058594 609.660156 C 126.015625 609.761719 124.972656 609.816406 123.925781 609.816406 L 149.480469 609.816406 C 150.316406 609.816406 151.152344 609.855469 151.984375 609.9375 C 152.816406 610.019531 153.644531 610.140625 154.464844 610.304688 C 155.285156 610.46875 156.097656 610.671875 156.898438 610.914062 C 157.699219 611.15625 158.484375 611.4375 159.257812 611.757812 C 160.03125 612.078125 160.785156 612.4375 161.523438 612.832031 C 162.261719 613.226562 162.980469 613.65625 163.675781 614.121094 C 164.371094 614.585938 165.042969 615.082031 165.691406 615.613281 C 166.335938 616.144531 166.957031 616.703125 167.546875 617.296875 C 168.140625 617.886719 168.699219 618.507812 169.230469 619.152344 C 169.761719 619.800781 170.261719 620.46875 170.726562 621.167969 C 171.191406 621.863281 171.621094 622.578125 172.015625 623.316406 C 172.410156 624.054688 172.765625 624.808594 173.085938 625.582031 C 173.40625 626.355469 173.6875 627.140625 173.929688 627.941406 C 174.175781 628.742188 174.378906 629.554688 174.539062 630.375 C 174.703125 631.195312 174.828125 632.019531 174.910156 632.851562 C 174.992188 633.683594 175.03125 634.519531 175.03125 635.355469 L 175.03125 683.066406 C 173.175781 684.371094 171.269531 685.601562 169.316406 686.761719 C 167.367188 687.917969 165.375 689 163.339844 690.003906 C 161.304688 691.011719 159.234375 691.9375 157.128906 692.78125 C 155.023438 693.628906 152.890625 694.394531 150.726562 695.078125 C 148.5625 695.761719 146.375 696.363281 144.164062 696.878906 C 141.953125 697.394531 139.726562 697.824219 137.484375 698.171875 C 135.242188 698.515625 132.988281 698.777344 130.726562 698.949219 C 128.464844 699.125 126.195312 699.210938 123.925781 699.210938 C 121.65625 699.210938 119.390625 699.125 117.128906 698.949219 C 114.867188 698.777344 112.613281 698.515625 110.371094 698.171875 C 108.128906 697.824219 105.902344 697.394531 103.691406 696.878906 C 101.480469 696.363281 99.292969 695.761719 97.128906 695.078125 C 94.964844 694.394531 92.832031 693.628906 90.726562 692.78125 C 88.621094 691.9375 86.550781 691.011719 84.515625 690.003906 C 82.480469 689 80.488281 687.917969 78.535156 686.761719 C 76.585938 685.601562 74.679688 684.371094 72.824219 683.066406 Z M 72.824219 635.355469 " fill-opacity="1" fill-rule="nonzero"/><path fill="#147e93" d="M 686.074219 111.105469 C 683.433594 111.097656 680.796875 111.183594 678.164062 111.359375 C 675.53125 111.535156 672.910156 111.804688 670.292969 112.160156 C 667.679688 112.515625 665.082031 112.964844 662.496094 113.5 C 659.914062 114.035156 657.351562 114.660156 654.8125 115.375 C 652.269531 116.085938 649.757812 116.886719 647.273438 117.773438 C 644.789062 118.660156 642.335938 119.628906 639.917969 120.683594 C 637.5 121.738281 635.121094 122.875 632.78125 124.09375 C 630.441406 125.316406 628.144531 126.613281 625.894531 127.992188 C 623.644531 129.367188 621.445312 130.820312 619.292969 132.351562 C 617.144531 133.878906 615.050781 135.480469 613.011719 137.152344 C 610.972656 138.828125 608.992188 140.570312 607.070312 142.378906 C 605.152344 144.1875 603.296875 146.0625 601.507812 148 C 599.71875 149.9375 597.996094 151.933594 596.34375 153.992188 C 594.691406 156.046875 593.113281 158.160156 591.605469 160.324219 C 590.097656 162.488281 588.667969 164.703125 587.316406 166.96875 C 585.960938 169.230469 584.6875 171.539062 583.492188 173.890625 C 582.296875 176.242188 581.183594 178.632812 580.15625 181.0625 C 579.125 183.492188 578.179688 185.953125 577.320312 188.445312 C 576.460938 190.9375 575.6875 193.457031 575.003906 196.003906 C 574.316406 198.550781 573.71875 201.121094 573.210938 203.707031 C 572.699219 206.296875 572.28125 208.898438 571.953125 211.515625 C 571.625 214.132812 571.382812 216.757812 571.234375 219.390625 C 571.085938 222.023438 571.03125 224.660156 571.0625 227.296875 C 571.097656 229.933594 571.222656 232.566406 571.4375 235.195312 C 571.652344 237.824219 571.957031 240.445312 572.355469 243.050781 C 572.75 245.660156 573.234375 248.25 573.808594 250.824219 C 574.386719 253.398438 575.046875 255.949219 575.796875 258.476562 C 576.550781 261.007812 577.386719 263.507812 578.308594 265.976562 C 579.234375 268.449219 580.238281 270.882812 581.332031 273.285156 C 582.421875 275.6875 583.59375 278.046875 584.847656 280.371094 C 586.101562 282.691406 587.4375 284.964844 588.847656 287.191406 C 590.257812 289.421875 591.746094 291.597656 593.304688 293.726562 L 524.007812 357.195312 L 541.269531 376.019531 L 610.566406 312.5625 C 612.308594 314.082031 614.09375 315.542969 615.921875 316.953125 C 617.753906 318.363281 619.625 319.71875 621.535156 321.015625 C 623.445312 322.3125 625.394531 323.550781 627.382812 324.730469 C 629.367188 325.910156 631.386719 327.027344 633.441406 328.085938 C 635.496094 329.144531 637.578125 330.140625 639.691406 331.070312 C 641.804688 332.003906 643.945312 332.871094 646.113281 333.675781 C 648.277344 334.480469 650.464844 335.214844 652.675781 335.886719 C 654.886719 336.558594 657.117188 337.164062 659.363281 337.699219 C 661.609375 338.238281 663.871094 338.707031 666.144531 339.105469 C 668.421875 339.507812 670.707031 339.839844 673 340.101562 C 675.296875 340.367188 677.597656 340.558594 679.90625 340.683594 C 682.210938 340.808594 684.519531 340.863281 686.832031 340.847656 C 689.140625 340.832031 691.449219 340.746094 693.753906 340.59375 C 696.058594 340.441406 698.359375 340.214844 700.648438 339.921875 C 702.941406 339.632812 705.222656 339.269531 707.492188 338.839844 C 709.761719 338.410156 712.015625 337.910156 714.257812 337.34375 C 716.496094 336.777344 718.71875 336.144531 720.917969 335.445312 C 723.121094 334.746094 725.300781 333.980469 727.453125 333.148438 C 729.609375 332.316406 731.738281 331.421875 733.839844 330.460938 C 735.941406 329.503906 738.011719 328.480469 740.050781 327.398438 C 742.089844 326.3125 744.097656 325.167969 746.066406 323.960938 C 748.039062 322.757812 749.972656 321.492188 751.867188 320.171875 C 753.761719 318.847656 755.613281 317.472656 757.425781 316.039062 C 759.234375 314.605469 761 313.117188 762.722656 311.578125 C 764.445312 310.039062 766.117188 308.445312 767.746094 306.804688 C 769.371094 305.164062 770.945312 303.476562 772.46875 301.742188 C 773.992188 300.003906 775.460938 298.226562 776.878906 296.398438 C 778.296875 294.574219 779.65625 292.710938 780.957031 290.804688 C 782.261719 288.898438 783.507812 286.953125 784.695312 284.972656 C 785.882812 282.988281 787.007812 280.976562 788.070312 278.925781 C 789.136719 276.875 790.136719 274.796875 791.078125 272.6875 C 792.015625 270.578125 792.890625 268.441406 793.703125 266.277344 C 794.515625 264.117188 795.257812 261.929688 795.9375 259.722656 C 796.617188 257.515625 797.226562 255.289062 797.773438 253.046875 C 798.316406 250.800781 798.792969 248.542969 799.203125 246.269531 C 799.609375 244 799.949219 241.714844 800.21875 239.421875 C 800.492188 237.128906 800.691406 234.828125 800.824219 232.523438 C 800.957031 230.21875 801.015625 227.910156 801.011719 225.601562 C 801.003906 223.292969 800.925781 220.984375 800.777344 218.679688 C 800.632812 216.375 800.414062 214.078125 800.128906 211.789062 C 799.84375 209.496094 799.492188 207.214844 799.066406 204.945312 C 798.644531 202.675781 798.152344 200.417969 797.59375 198.179688 C 797.035156 195.9375 796.410156 193.714844 795.714844 191.511719 C 795.023438 189.3125 794.265625 187.128906 793.4375 184.972656 C 792.613281 182.816406 791.726562 180.6875 790.773438 178.582031 C 789.820312 176.480469 788.804688 174.40625 787.726562 172.363281 C 786.644531 170.320312 785.507812 168.3125 784.308594 166.339844 C 783.109375 164.367188 781.851562 162.429688 780.535156 160.53125 C 779.21875 158.632812 777.84375 156.777344 776.417969 154.964844 C 774.988281 153.148438 773.507812 151.378906 771.972656 149.652344 C 770.4375 147.925781 768.851562 146.246094 767.214844 144.617188 C 765.578125 142.988281 763.894531 141.40625 762.160156 139.878906 C 760.429688 138.351562 758.652344 136.875 756.832031 135.453125 C 755.011719 134.03125 753.148438 132.667969 751.246094 131.355469 C 749.34375 130.046875 747.402344 128.796875 745.421875 127.605469 C 743.445312 126.410156 741.433594 125.28125 739.386719 124.207031 C 737.335938 123.136719 735.261719 122.128906 733.152344 121.183594 C 731.042969 120.238281 728.910156 119.355469 726.75 118.539062 C 724.589844 117.722656 722.40625 116.96875 720.199219 116.285156 C 717.992188 115.597656 715.765625 114.980469 713.523438 114.429688 C 711.277344 113.875 709.019531 113.394531 706.75 112.976562 C 704.476562 112.5625 702.191406 112.214844 699.898438 111.9375 C 697.605469 111.660156 695.304688 111.453125 692.996094 111.3125 C 690.691406 111.171875 688.382812 111.105469 686.074219 111.105469 Z M 737.175781 299.292969 C 735.320312 300.597656 733.414062 301.828125 731.464844 302.984375 C 729.511719 304.144531 727.519531 305.226562 725.484375 306.230469 C 723.449219 307.234375 721.378906 308.160156 719.273438 309.007812 C 717.167969 309.855469 715.035156 310.621094 712.871094 311.304688 C 710.707031 311.988281 708.519531 312.589844 706.308594 313.105469 C 704.097656 313.621094 701.871094 314.050781 699.628906 314.398438 C 697.386719 314.742188 695.132812 315.003906 692.871094 315.175781 C 690.609375 315.347656 688.34375 315.4375 686.074219 315.4375 C 683.804688 315.4375 681.535156 315.347656 679.273438 315.175781 C 677.011719 315.003906 674.757812 314.742188 672.515625 314.398438 C 670.273438 314.050781 668.046875 313.621094 665.835938 313.105469 C 663.625 312.589844 661.4375 311.988281 659.273438 311.304688 C 657.109375 310.621094 654.976562 309.855469 652.871094 309.007812 C 650.765625 308.160156 648.695312 307.234375 646.660156 306.230469 C 644.625 305.226562 642.632812 304.144531 640.683594 302.984375 C 638.730469 301.828125 636.824219 300.597656 634.96875 299.292969 L 634.96875 251.582031 C 634.96875 250.746094 635.007812 249.910156 635.089844 249.078125 C 635.171875 248.246094 635.296875 247.417969 635.460938 246.597656 C 635.621094 245.777344 635.824219 244.96875 636.070312 244.167969 C 636.3125 243.367188 636.59375 242.582031 636.914062 241.808594 C 637.234375 241.035156 637.589844 240.28125 637.984375 239.542969 C 638.378906 238.804688 638.808594 238.085938 639.273438 237.390625 C 639.738281 236.695312 640.238281 236.023438 640.769531 235.378906 C 641.300781 234.730469 641.859375 234.113281 642.453125 233.523438 C 643.042969 232.929688 643.664062 232.367188 644.308594 231.839844 C 644.957031 231.308594 645.628906 230.808594 646.324219 230.34375 C 647.019531 229.878906 647.738281 229.449219 648.476562 229.054688 C 649.214844 228.664062 649.96875 228.304688 650.742188 227.984375 C 651.515625 227.664062 652.300781 227.382812 653.101562 227.140625 C 653.902344 226.898438 654.714844 226.695312 655.535156 226.53125 C 656.355469 226.367188 657.183594 226.246094 658.015625 226.164062 C 658.847656 226.082031 659.683594 226.039062 660.519531 226.039062 L 686.074219 226.039062 C 685.027344 226.039062 683.984375 225.988281 682.941406 225.886719 C 681.902344 225.785156 680.867188 225.632812 679.839844 225.425781 C 678.816406 225.222656 677.800781 224.96875 676.800781 224.664062 C 675.800781 224.363281 674.816406 224.011719 673.847656 223.609375 C 672.882812 223.210938 671.9375 222.761719 671.015625 222.269531 C 670.09375 221.777344 669.199219 221.242188 668.328125 220.660156 C 667.457031 220.078125 666.617188 219.457031 665.808594 218.792969 C 665 218.128906 664.226562 217.429688 663.488281 216.6875 C 662.746094 215.949219 662.046875 215.175781 661.382812 214.367188 C 660.71875 213.558594 660.097656 212.71875 659.515625 211.851562 C 658.933594 210.980469 658.398438 210.085938 657.902344 209.164062 C 657.410156 208.242188 656.964844 207.296875 656.5625 206.332031 C 656.164062 205.367188 655.8125 204.382812 655.507812 203.382812 C 655.203125 202.382812 654.949219 201.367188 654.746094 200.34375 C 654.542969 199.316406 654.390625 198.285156 654.285156 197.242188 C 654.183594 196.203125 654.132812 195.160156 654.132812 194.113281 C 654.132812 193.066406 654.183594 192.023438 654.285156 190.984375 C 654.390625 189.945312 654.542969 188.910156 654.746094 187.886719 C 654.949219 186.859375 655.203125 185.847656 655.507812 184.847656 C 655.8125 183.84375 656.164062 182.863281 656.5625 181.894531 C 656.964844 180.929688 657.410156 179.984375 657.902344 179.0625 C 658.398438 178.140625 658.933594 177.246094 659.515625 176.375 C 660.097656 175.507812 660.71875 174.667969 661.382812 173.859375 C 662.046875 173.050781 662.746094 172.277344 663.488281 171.539062 C 664.226562 170.796875 665 170.097656 665.808594 169.433594 C 666.617188 168.769531 667.457031 168.148438 668.328125 167.566406 C 669.199219 166.988281 670.09375 166.449219 671.015625 165.957031 C 671.9375 165.464844 672.882812 165.015625 673.847656 164.617188 C 674.816406 164.21875 675.800781 163.863281 676.800781 163.5625 C 677.800781 163.257812 678.816406 163.003906 679.839844 162.800781 C 680.867188 162.597656 681.902344 162.441406 682.941406 162.339844 C 683.984375 162.238281 685.027344 162.1875 686.074219 162.1875 C 687.117188 162.1875 688.164062 162.238281 689.203125 162.339844 C 690.246094 162.441406 691.277344 162.597656 692.304688 162.800781 C 693.328125 163.003906 694.34375 163.257812 695.34375 163.5625 C 696.34375 163.863281 697.328125 164.21875 698.296875 164.617188 C 699.261719 165.015625 700.207031 165.464844 701.128906 165.957031 C 702.050781 166.449219 702.949219 166.988281 703.816406 167.566406 C 704.6875 168.148438 705.527344 168.769531 706.335938 169.433594 C 707.144531 170.097656 707.917969 170.796875 708.65625 171.539062 C 709.398438 172.277344 710.097656 173.050781 710.761719 173.859375 C 711.425781 174.667969 712.046875 175.507812 712.628906 176.375 C 713.210938 177.246094 713.746094 178.140625 714.242188 179.0625 C 714.734375 179.984375 715.179688 180.929688 715.582031 181.894531 C 715.980469 182.863281 716.332031 183.84375 716.636719 184.847656 C 716.941406 185.847656 717.195312 186.859375 717.398438 187.886719 C 717.601562 188.910156 717.757812 189.945312 717.859375 190.984375 C 717.960938 192.023438 718.011719 193.066406 718.011719 194.113281 C 718.011719 195.160156 717.960938 196.203125 717.859375 197.242188 C 717.757812 198.285156 717.601562 199.316406 717.398438 200.34375 C 717.195312 201.367188 716.941406 202.382812 716.636719 203.382812 C 716.332031 204.382812 715.980469 205.367188 715.582031 206.332031 C 715.179688 207.296875 714.734375 208.242188 714.242188 209.164062 C 713.746094 210.085938 713.210938 210.980469 712.628906 211.851562 C 712.046875 212.71875 711.425781 213.558594 710.761719 214.367188 C 710.097656 215.175781 709.398438 215.949219 708.65625 216.6875 C 707.917969 217.429688 707.144531 218.128906 706.335938 218.792969 C 705.527344 219.457031 704.6875 220.078125 703.816406 220.660156 C 702.949219 221.242188 702.050781 221.777344 701.128906 222.269531 C 700.207031 222.761719 699.261719 223.210938 698.296875 223.609375 C 697.328125 224.011719 696.34375 224.363281 695.34375 224.664062 C 694.34375 224.96875 693.328125 225.222656 692.304688 225.425781 C 691.277344 225.632812 690.246094 225.785156 689.203125 225.886719 C 688.164062 225.988281 687.117188 226.039062 686.074219 226.039062 L 711.625 226.039062 C 712.460938 226.039062 713.296875 226.082031 714.128906 226.164062 C 714.960938 226.246094 715.789062 226.367188 716.609375 226.53125 C 717.429688 226.695312 718.242188 226.898438 719.042969 227.140625 C 719.84375 227.382812 720.628906 227.664062 721.402344 227.984375 C 722.175781 228.304688 722.933594 228.660156 723.667969 229.054688 C 724.40625 229.449219 725.125 229.878906 725.820312 230.34375 C 726.515625 230.808594 727.1875 231.308594 727.835938 231.839844 C 728.480469 232.367188 729.101562 232.929688 729.691406 233.523438 C 730.285156 234.113281 730.84375 234.730469 731.375 235.378906 C 731.90625 236.023438 732.40625 236.695312 732.871094 237.390625 C 733.335938 238.085938 733.765625 238.804688 734.160156 239.542969 C 734.554688 240.28125 734.910156 241.035156 735.230469 241.808594 C 735.550781 242.582031 735.832031 243.367188 736.078125 244.167969 C 736.320312 244.96875 736.523438 245.777344 736.6875 246.597656 C 736.847656 247.417969 736.972656 248.246094 737.054688 249.078125 C 737.136719 249.910156 737.175781 250.746094 737.175781 251.582031 Z M 737.175781 299.292969 " fill-opacity="1" fill-rule="nonzero"/><path fill="#147e93" d="M 524.722656 519.769531 C 524.109375 519.753906 523.496094 519.773438 522.882812 519.820312 C 522.273438 519.867188 521.664062 519.941406 521.058594 520.050781 C 520.453125 520.15625 519.855469 520.292969 519.261719 520.457031 C 518.671875 520.625 518.089844 520.820312 517.515625 521.042969 C 516.945312 521.265625 516.382812 521.515625 515.835938 521.792969 C 515.289062 522.070312 514.753906 522.375 514.238281 522.703125 C 513.71875 523.035156 513.21875 523.386719 512.734375 523.765625 C 512.253906 524.144531 511.789062 524.546875 511.34375 524.972656 C 510.902344 525.398438 510.480469 525.84375 510.078125 526.308594 C 509.679688 526.773438 509.304688 527.257812 508.949219 527.761719 C 508.597656 528.265625 508.269531 528.785156 507.96875 529.320312 C 507.667969 529.855469 507.394531 530.402344 507.144531 530.964844 C 506.898438 531.527344 506.679688 532.101562 506.488281 532.683594 C 506.296875 533.265625 506.136719 533.859375 506 534.457031 C 505.867188 535.058594 505.765625 535.660156 505.691406 536.273438 C 505.617188 536.882812 505.574219 537.492188 505.558594 538.105469 L 505.558594 524.683594 C 505.558594 524.058594 505.53125 523.429688 505.46875 522.808594 C 505.40625 522.183594 505.3125 521.5625 505.191406 520.949219 C 505.070312 520.332031 504.917969 519.722656 504.734375 519.125 C 504.550781 518.523438 504.339844 517.933594 504.101562 517.355469 C 503.859375 516.773438 503.59375 516.207031 503.296875 515.65625 C 503 515.101562 502.679688 514.5625 502.332031 514.042969 C 501.980469 513.519531 501.609375 513.015625 501.210938 512.53125 C 500.8125 512.046875 500.390625 511.582031 499.945312 511.140625 C 499.503906 510.695312 499.039062 510.273438 498.554688 509.875 C 498.066406 509.480469 497.566406 509.105469 497.042969 508.757812 C 496.519531 508.410156 495.984375 508.085938 495.429688 507.789062 C 494.875 507.496094 494.308594 507.226562 493.730469 506.988281 C 493.148438 506.746094 492.558594 506.535156 491.960938 506.355469 C 491.359375 506.171875 490.75 506.019531 490.132812 505.898438 C 489.519531 505.773438 488.898438 505.683594 488.273438 505.621094 C 487.648438 505.558594 487.023438 505.527344 486.394531 505.527344 C 485.769531 505.527344 485.140625 505.558594 484.519531 505.621094 C 483.894531 505.683594 483.273438 505.773438 482.65625 505.898438 C 482.042969 506.019531 481.433594 506.171875 480.832031 506.355469 C 480.230469 506.535156 479.640625 506.746094 479.0625 506.988281 C 478.480469 507.226562 477.914062 507.496094 477.363281 507.789062 C 476.808594 508.085938 476.269531 508.410156 475.75 508.757812 C 475.226562 509.105469 474.722656 509.480469 474.238281 509.878906 C 473.753906 510.273438 473.289062 510.695312 472.84375 511.140625 C 472.402344 511.582031 471.980469 512.046875 471.582031 512.53125 C 471.183594 513.015625 470.808594 513.519531 470.460938 514.042969 C 470.113281 514.5625 469.789062 515.101562 469.496094 515.65625 C 469.199219 516.207031 468.929688 516.773438 468.691406 517.355469 C 468.449219 517.933594 468.238281 518.523438 468.058594 519.125 C 467.875 519.722656 467.722656 520.332031 467.601562 520.949219 C 467.476562 521.5625 467.386719 522.183594 467.324219 522.808594 C 467.261719 523.429688 467.230469 524.058594 467.230469 524.683594 L 467.230469 436.757812 C 467.230469 436.128906 467.203125 435.503906 467.140625 434.878906 C 467.078125 434.257812 466.984375 433.636719 466.863281 433.019531 C 466.742188 432.40625 466.589844 431.796875 466.40625 431.199219 C 466.226562 430.597656 466.011719 430.007812 465.773438 429.425781 C 465.53125 428.847656 465.265625 428.28125 464.96875 427.726562 C 464.671875 427.175781 464.351562 426.636719 464.003906 426.117188 C 463.652344 425.59375 463.28125 425.089844 462.882812 424.605469 C 462.484375 424.121094 462.0625 423.65625 461.617188 423.210938 C 461.175781 422.769531 460.710938 422.347656 460.226562 421.949219 C 459.742188 421.550781 459.238281 421.179688 458.714844 420.832031 C 458.191406 420.480469 457.65625 420.160156 457.101562 419.863281 C 456.546875 419.566406 455.980469 419.300781 455.402344 419.058594 C 454.820312 418.820312 454.230469 418.609375 453.632812 418.425781 C 453.03125 418.246094 452.421875 418.09375 451.804688 417.96875 C 451.191406 417.847656 450.570312 417.753906 449.945312 417.695312 C 449.320312 417.632812 448.695312 417.601562 448.066406 417.601562 C 447.441406 417.601562 446.8125 417.632812 446.191406 417.695312 C 445.566406 417.753906 444.945312 417.847656 444.328125 417.96875 C 443.714844 418.09375 443.105469 418.246094 442.503906 418.425781 C 441.90625 418.609375 441.3125 418.820312 440.734375 419.058594 C 440.15625 419.300781 439.585938 419.566406 439.035156 419.863281 C 438.480469 420.160156 437.941406 420.480469 437.421875 420.832031 C 436.898438 421.179688 436.394531 421.550781 435.910156 421.949219 C 435.425781 422.347656 434.960938 422.769531 434.515625 423.210938 C 434.074219 423.65625 433.652344 424.121094 433.253906 424.605469 C 432.855469 425.089844 432.480469 425.59375 432.132812 426.117188 C 431.785156 426.636719 431.460938 427.175781 431.167969 427.726562 C 430.871094 428.28125 430.601562 428.847656 430.363281 429.425781 C 430.121094 430.007812 429.910156 430.597656 429.730469 431.199219 C 429.546875 431.796875 429.394531 432.40625 429.273438 433.019531 C 429.148438 433.636719 429.058594 434.257812 428.996094 434.878906 C 428.933594 435.503906 428.902344 436.128906 428.902344 436.757812 L 428.902344 609.164062 L 408.691406 586.304688 C 408.019531 585.765625 407.324219 585.261719 406.601562 584.792969 C 405.875 584.328125 405.128906 583.898438 404.363281 583.511719 C 403.59375 583.121094 402.808594 582.773438 402.003906 582.464844 C 401.199219 582.15625 400.378906 581.890625 399.546875 581.667969 C 398.714844 581.445312 397.875 581.265625 397.023438 581.132812 C 396.171875 580.996094 395.320312 580.90625 394.457031 580.859375 C 393.597656 580.8125 392.738281 580.8125 391.878906 580.855469 C 391.019531 580.898438 390.160156 580.984375 389.3125 581.117188 C 388.460938 581.246094 387.617188 581.421875 386.785156 581.640625 C 385.953125 581.863281 385.132812 582.125 384.328125 582.429688 C 383.519531 582.734375 382.734375 583.078125 381.964844 583.464844 C 381.195312 583.851562 380.445312 584.273438 379.71875 584.738281 C 378.996094 585.203125 378.296875 585.703125 377.621094 586.238281 C 376.949219 586.777344 376.304688 587.347656 375.691406 587.949219 C 375.074219 588.554688 374.496094 589.1875 373.945312 589.851562 C 373.398438 590.515625 372.886719 591.207031 372.410156 591.921875 C 371.054688 593.964844 370.027344 596.164062 369.328125 598.511719 C 368.632812 600.863281 368.296875 603.265625 368.320312 605.714844 C 368.328125 608.691406 368.847656 611.570312 369.882812 614.359375 C 370.917969 617.148438 372.402344 619.675781 374.335938 621.933594 L 419.207031 688.851562 C 425.71875 695.429688 433.214844 700.582031 441.691406 704.304688 L 441.691406 800.726562 L 543.902344 800.726562 L 543.902344 700.984375 C 546.800781 699.316406 549.582031 697.464844 552.238281 695.433594 C 554.898438 693.398438 557.410156 691.199219 559.78125 688.835938 C 562.148438 686.472656 564.355469 683.964844 566.394531 681.3125 C 568.433594 678.660156 570.289062 675.882812 571.964844 672.988281 C 573.640625 670.089844 575.117188 667.097656 576.398438 664.007812 C 577.683594 660.914062 578.757812 657.753906 579.621094 654.523438 C 580.488281 651.292969 581.140625 648.015625 581.578125 644.699219 C 582.011719 641.382812 582.230469 638.050781 582.230469 634.703125 L 582.230469 551.695312 C 582.230469 551.066406 582.199219 550.441406 582.136719 549.816406 C 582.074219 549.191406 581.984375 548.574219 581.859375 547.957031 C 581.738281 547.34375 581.585938 546.734375 581.402344 546.132812 C 581.222656 545.535156 581.011719 544.945312 580.769531 544.363281 C 580.53125 543.785156 580.261719 543.21875 579.964844 542.664062 C 579.671875 542.113281 579.347656 541.574219 579 541.050781 C 578.652344 540.53125 578.277344 540.027344 577.878906 539.542969 C 577.480469 539.058594 577.058594 538.59375 576.617188 538.148438 C 576.171875 537.707031 575.707031 537.285156 575.222656 536.886719 C 574.738281 536.488281 574.234375 536.117188 573.710938 535.765625 C 573.191406 535.417969 572.652344 535.097656 572.097656 534.800781 C 571.546875 534.503906 570.976562 534.238281 570.398438 533.996094 C 569.820312 533.757812 569.230469 533.546875 568.628906 533.363281 C 568.027344 533.179688 567.417969 533.03125 566.804688 532.90625 C 566.1875 532.785156 565.566406 532.691406 564.945312 532.632812 C 564.320312 532.570312 563.691406 532.539062 563.066406 532.539062 C 562.4375 532.539062 561.8125 532.570312 561.1875 532.632812 C 560.5625 532.691406 559.941406 532.785156 559.328125 532.90625 C 558.710938 533.03125 558.101562 533.179688 557.5 533.363281 C 556.902344 533.546875 556.3125 533.757812 555.730469 533.996094 C 555.152344 534.238281 554.585938 534.503906 554.03125 534.800781 C 553.476562 535.097656 552.941406 535.417969 552.417969 535.765625 C 551.894531 536.117188 551.390625 536.488281 550.90625 536.886719 C 550.421875 537.285156 549.957031 537.707031 549.515625 538.148438 C 549.070312 538.59375 548.648438 539.058594 548.25 539.542969 C 547.851562 540.027344 547.480469 540.53125 547.128906 541.050781 C 546.78125 541.574219 546.460938 542.113281 546.164062 542.664062 C 545.867188 543.21875 545.601562 543.785156 545.359375 544.363281 C 545.121094 544.945312 544.910156 545.535156 544.726562 546.132812 C 544.542969 546.734375 544.390625 547.34375 544.269531 547.957031 C 544.148438 548.574219 544.054688 549.191406 543.992188 549.816406 C 543.933594 550.441406 543.902344 551.066406 543.902344 551.695312 L 543.902344 538.105469 C 543.886719 537.492188 543.84375 536.878906 543.769531 536.269531 C 543.695312 535.660156 543.59375 535.054688 543.460938 534.457031 C 543.324219 533.855469 543.164062 533.265625 542.972656 532.679688 C 542.78125 532.097656 542.5625 531.523438 542.3125 530.960938 C 542.066406 530.398438 541.789062 529.851562 541.488281 529.316406 C 541.1875 528.78125 540.859375 528.261719 540.507812 527.757812 C 540.15625 527.253906 539.777344 526.769531 539.378906 526.304688 C 538.976562 525.839844 538.554688 525.394531 538.113281 524.96875 C 537.667969 524.542969 537.203125 524.140625 536.71875 523.761719 C 536.238281 523.382812 535.734375 523.027344 535.21875 522.699219 C 534.699219 522.367188 534.164062 522.066406 533.617188 521.789062 C 533.070312 521.511719 532.507812 521.261719 531.933594 521.039062 C 531.363281 520.816406 530.78125 520.621094 530.1875 520.457031 C 529.597656 520.289062 528.996094 520.15625 528.390625 520.046875 C 527.785156 519.941406 527.179688 519.863281 526.566406 519.816406 C 525.953125 519.769531 525.339844 519.753906 524.722656 519.769531 Z M 524.722656 519.769531 " fill-opacity="1" fill-rule="nonzero"/></svg>