<svg xmlns="http://www.w3.org/2000/svg" xmlns:xlink="http://www.w3.org/1999/xlink" width="1080" zoomAndPan="magnify" viewBox="0 0 810 809.999993" height="1080" preserveAspectRatio="xMidYMid meet" version="1.0"><defs><clipPath id="id1"><path d="M 2 532 L 367 532 L 367 808.761719 L 2 808.761719 Z M 2 532 " clip-rule="nonzero"/></clipPath><clipPath id="id2"><path d="M 399 512 L 810 512 L 810 808.761719 L 399 808.761719 Z M 399 512 " clip-rule="nonzero"/></clipPath><clipPath id="id3"><path d="M 348 1.011719 L 808 1.011719 L 808 386 L 348 386 Z M 348 1.011719 " clip-rule="nonzero"/></clipPath></defs><rect x="-81" width="972" fill="#ffffff" y="-80.999999" height="971.999992" fill-opacity="1"/><rect x="-81" width="972" fill="#ebfdff" y="-80.999999" height="971.999992" fill-opacity="1"/><rect x="-81" width="972" fill="#ffffff" y="-80.999999" height="971.999992" fill-opacity="1"/><rect x="-81" width="972" fill="#ebfdff" y="-80.999999" height="971.999992" fill-opacity="1"/><path fill="#147e93" d="M 183.984375 518.191406 C 249.253906 518.191406 302.085938 446.15625 302.085938 381.0625 C 302.085938 315.972656 249.253906 263.316406 183.984375 263.316406 C 118.710938 263.316406 65.882812 315.972656 65.882812 381.0625 C 65.882812 446.15625 118.710938 518.191406 183.984375 518.191406 Z M 183.984375 518.191406 " fill-opacity="1" fill-rule="nonzero"/><g clip-path="url(#id1)"><path fill="#147e93" d="M 346.191406 576.339844 C 346.191406 574.886719 346.03125 573.59375 346.03125 572.140625 C 345.867188 571.171875 345.867188 570.363281 345.707031 569.394531 C 345.707031 569.070312 345.546875 568.585938 345.546875 568.261719 C 345.382812 567.132812 345.058594 566 344.738281 564.871094 C 344.738281 564.871094 344.738281 564.710938 344.738281 564.710938 C 344.414062 563.417969 343.929688 562.285156 343.605469 561.15625 C 341.992188 556.957031 339.890625 553.242188 337.144531 549.6875 C 336.496094 548.878906 335.851562 548.074219 335.207031 547.425781 C 335.042969 547.265625 334.882812 547.105469 334.71875 546.941406 C 334.074219 546.296875 333.429688 545.488281 332.78125 544.84375 C 332.621094 544.84375 332.621094 544.679688 332.621094 544.679688 C 331.328125 543.550781 330.035156 542.417969 328.582031 541.289062 C 328.257812 541.128906 327.933594 540.804688 327.613281 540.644531 C 326.964844 540.320312 326.480469 539.835938 325.835938 539.511719 C 325.351562 539.1875 324.863281 538.867188 324.378906 538.542969 C 323.894531 538.21875 323.25 537.898438 322.765625 537.574219 C 322.117188 537.25 321.472656 536.929688 320.824219 536.605469 C 320.339844 536.445312 319.855469 536.121094 319.371094 535.960938 C 318.242188 535.472656 317.109375 535.152344 315.980469 534.667969 C 315.65625 534.503906 315.171875 534.503906 314.847656 534.34375 C 313.878906 534.019531 313.070312 533.859375 312.101562 533.699219 C 311.617188 533.535156 311.292969 533.535156 310.808594 533.375 C 310 533.214844 309.03125 533.050781 308.222656 533.050781 C 307.738281 533.050781 307.253906 532.890625 306.769531 532.890625 C 305.476562 532.730469 304.023438 532.730469 302.730469 532.730469 L 65.71875 532.730469 C 64.425781 532.730469 62.972656 532.730469 61.679688 532.890625 C 61.195312 532.890625 60.871094 533.050781 60.386719 533.050781 C 59.417969 533.214844 58.449219 533.375 57.640625 533.535156 C 57.15625 533.535156 56.671875 533.699219 56.347656 533.859375 C 55.378906 534.019531 54.570312 534.34375 53.601562 534.503906 C 53.277344 534.667969 52.792969 534.667969 52.472656 534.828125 C 51.339844 535.152344 50.046875 535.636719 49.078125 536.121094 C 48.59375 536.28125 48.109375 536.605469 47.625 536.765625 C 46.976562 537.089844 46.332031 537.414062 45.6875 537.734375 C 45.039062 538.058594 44.554688 538.382812 44.070312 538.703125 C 43.585938 539.027344 43.101562 539.351562 42.617188 539.675781 C 41.96875 539.996094 41.484375 540.480469 40.839844 540.804688 C 40.515625 540.964844 40.191406 541.289062 39.871094 541.449219 C 38.414062 542.417969 37.121094 543.550781 35.832031 544.84375 C 35.832031 544.84375 35.667969 545.003906 35.667969 545.003906 C 35.023438 545.648438 34.375 546.296875 33.730469 547.105469 C 33.570312 547.265625 33.40625 547.425781 33.246094 547.589844 C 32.597656 548.394531 31.953125 549.042969 31.304688 549.847656 C 28.722656 553.242188 26.460938 557.117188 24.84375 561.316406 C 24.359375 562.449219 24.035156 563.738281 23.714844 564.871094 C 23.714844 564.871094 23.714844 565.03125 23.714844 565.03125 C 23.390625 566.164062 23.066406 567.292969 22.90625 568.425781 C 22.742188 568.746094 22.742188 569.230469 22.742188 569.554688 C 22.582031 570.363281 22.421875 571.332031 22.421875 572.300781 C 22.257812 573.59375 22.257812 575.046875 22.257812 576.5 L 2.226562 778.398438 C 0.609375 794.710938 13.375 808.761719 29.691406 808.761719 L 339.082031 808.761719 C 355.398438 808.761719 368.164062 794.710938 366.546875 778.398438 Z M 346.191406 576.339844 " fill-opacity="1" fill-rule="nonzero"/></g><g clip-path="url(#id2)"><path fill="#147e93" d="M 688.21875 566.96875 L 556.0625 566.96875 L 414.210938 512.378906 L 474.308594 576.015625 C 430.203125 594.105469 399.183594 637.390625 399.183594 687.785156 C 399.183594 754.492188 453.46875 808.601562 520.355469 808.601562 L 688.21875 808.601562 C 755.105469 808.601562 809.390625 754.492188 809.390625 687.785156 C 809.390625 621.078125 755.105469 566.96875 688.21875 566.96875 Z M 688.21875 777.429688 L 522.132812 777.429688 C 472.53125 777.429688 431.171875 738.019531 430.6875 688.59375 C 430.363281 651.765625 452.335938 618.816406 486.425781 604.765625 C 487.074219 604.441406 487.71875 604.28125 488.367188 603.957031 C 500 598.304688 513.085938 597.011719 526.011719 597.980469 C 526.816406 597.980469 527.625 598.144531 528.433594 598.144531 L 686.765625 598.144531 C 735.878906 598.144531 777.078125 636.746094 778.207031 685.523438 C 779.179688 735.917969 738.464844 777.429688 688.21875 777.429688 Z M 688.21875 777.429688 " fill-opacity="1" fill-rule="nonzero"/></g><path fill="#147e93" d="M 718.753906 681.972656 C 718.753906 682.71875 718.71875 683.460938 718.644531 684.203125 C 718.570312 684.945312 718.460938 685.683594 718.3125 686.414062 C 718.167969 687.144531 717.984375 687.867188 717.765625 688.582031 C 717.546875 689.296875 717.296875 689.996094 717.007812 690.6875 C 716.71875 691.375 716.398438 692.050781 716.042969 692.707031 C 715.691406 693.363281 715.304688 694.003906 714.886719 694.625 C 714.46875 695.242188 714.023438 695.84375 713.546875 696.417969 C 713.070312 696.996094 712.566406 697.546875 712.035156 698.074219 C 711.503906 698.601562 710.945312 699.101562 710.367188 699.574219 C 709.785156 700.046875 709.183594 700.492188 708.558594 700.90625 C 707.933594 701.320312 707.289062 701.703125 706.625 702.054688 C 705.964844 702.40625 705.285156 702.726562 704.589844 703.011719 C 703.898438 703.296875 703.191406 703.546875 702.472656 703.765625 C 701.753906 703.980469 701.023438 704.160156 700.289062 704.308594 C 699.550781 704.453125 698.808594 704.5625 698.0625 704.636719 C 697.3125 704.707031 696.5625 704.746094 695.8125 704.746094 C 695.0625 704.746094 694.3125 704.707031 693.5625 704.636719 C 692.816406 704.5625 692.074219 704.453125 691.335938 704.308594 C 690.597656 704.160156 689.871094 703.980469 689.152344 703.765625 C 688.433594 703.546875 687.726562 703.296875 687.03125 703.011719 C 686.339844 702.726562 685.660156 702.40625 684.996094 702.054688 C 684.335938 701.703125 683.691406 701.320312 683.066406 700.90625 C 682.441406 700.492188 681.839844 700.046875 681.257812 699.574219 C 680.675781 699.101562 680.121094 698.601562 679.589844 698.074219 C 679.058594 697.546875 678.554688 696.996094 678.078125 696.417969 C 677.601562 695.84375 677.152344 695.242188 676.738281 694.625 C 676.320312 694.003906 675.933594 693.363281 675.578125 692.707031 C 675.226562 692.046875 674.902344 691.375 674.617188 690.6875 C 674.328125 689.996094 674.074219 689.296875 673.859375 688.582031 C 673.640625 687.867188 673.457031 687.144531 673.3125 686.414062 C 673.164062 685.683594 673.054688 684.945312 672.980469 684.203125 C 672.90625 683.460938 672.871094 682.71875 672.871094 681.972656 C 672.871094 681.226562 672.90625 680.480469 672.980469 679.738281 C 673.054688 678.996094 673.164062 678.257812 673.3125 677.527344 C 673.457031 676.796875 673.640625 676.074219 673.859375 675.359375 C 674.074219 674.644531 674.328125 673.945312 674.617188 673.253906 C 674.902344 672.566406 675.226562 671.894531 675.578125 671.234375 C 675.933594 670.578125 676.320312 669.9375 676.738281 669.320312 C 677.152344 668.699219 677.601562 668.101562 678.078125 667.523438 C 678.554688 666.945312 679.058594 666.394531 679.589844 665.867188 C 680.121094 665.339844 680.675781 664.839844 681.257812 664.367188 C 681.839844 663.894531 682.441406 663.449219 683.066406 663.035156 C 683.691406 662.621094 684.335938 662.238281 684.996094 661.886719 C 685.660156 661.535156 686.339844 661.214844 687.03125 660.929688 C 687.726562 660.644531 688.433594 660.394531 689.152344 660.179688 C 689.871094 659.960938 690.597656 659.78125 691.335938 659.632812 C 692.074219 659.488281 692.816406 659.378906 693.5625 659.308594 C 694.3125 659.234375 695.0625 659.195312 695.8125 659.195312 C 696.5625 659.195312 697.3125 659.234375 698.0625 659.308594 C 698.808594 659.378906 699.550781 659.488281 700.289062 659.632812 C 701.023438 659.78125 701.753906 659.960938 702.472656 660.175781 C 703.191406 660.394531 703.898438 660.644531 704.589844 660.929688 C 705.285156 661.214844 705.964844 661.535156 706.625 661.886719 C 707.289062 662.238281 707.933594 662.621094 708.558594 663.035156 C 709.183594 663.449219 709.785156 663.894531 710.367188 664.367188 C 710.945312 664.839844 711.503906 665.339844 712.035156 665.867188 C 712.566406 666.394531 713.070312 666.945312 713.546875 667.523438 C 714.023438 668.101562 714.46875 668.699219 714.886719 669.320312 C 715.304688 669.9375 715.691406 670.578125 716.042969 671.234375 C 716.398438 671.894531 716.71875 672.566406 717.007812 673.253906 C 717.296875 673.945312 717.546875 674.644531 717.765625 675.359375 C 717.984375 676.074219 718.167969 676.796875 718.3125 677.527344 C 718.460938 678.257812 718.570312 678.996094 718.644531 679.738281 C 718.71875 680.480469 718.753906 681.226562 718.753906 681.972656 Z M 718.753906 681.972656 " fill-opacity="1" fill-rule="nonzero"/><path fill="#147e93" d="M 627.308594 681.972656 C 627.308594 682.71875 627.273438 683.460938 627.199219 684.203125 C 627.125 684.945312 627.015625 685.683594 626.867188 686.414062 C 626.722656 687.144531 626.539062 687.867188 626.320312 688.582031 C 626.105469 689.296875 625.851562 689.996094 625.5625 690.6875 C 625.277344 691.375 624.953125 692.050781 624.601562 692.707031 C 624.246094 693.363281 623.859375 694.003906 623.441406 694.625 C 623.027344 695.242188 622.578125 695.84375 622.101562 696.417969 C 621.625 696.996094 621.121094 697.546875 620.589844 698.074219 C 620.058594 698.601562 619.503906 699.101562 618.921875 699.574219 C 618.339844 700.046875 617.738281 700.492188 617.113281 700.90625 C 616.488281 701.320312 615.84375 701.703125 615.183594 702.054688 C 614.519531 702.40625 613.839844 702.726562 613.148438 703.011719 C 612.453125 703.296875 611.746094 703.546875 611.027344 703.765625 C 610.308594 703.980469 609.582031 704.160156 608.84375 704.308594 C 608.105469 704.453125 607.363281 704.5625 606.617188 704.636719 C 605.867188 704.707031 605.117188 704.746094 604.367188 704.746094 C 603.617188 704.746094 602.867188 704.707031 602.117188 704.636719 C 601.371094 704.5625 600.628906 704.453125 599.890625 704.308594 C 599.15625 704.160156 598.425781 703.980469 597.707031 703.765625 C 596.988281 703.546875 596.28125 703.296875 595.589844 703.011719 C 594.894531 702.726562 594.214844 702.40625 593.554688 702.054688 C 592.890625 701.703125 592.246094 701.320312 591.621094 700.90625 C 590.996094 700.492188 590.394531 700.046875 589.8125 699.574219 C 589.234375 699.101562 588.675781 698.601562 588.144531 698.074219 C 587.613281 697.546875 587.109375 696.996094 586.632812 696.417969 C 586.15625 695.84375 585.710938 695.242188 585.292969 694.625 C 584.875 694.003906 584.488281 693.363281 584.136719 692.707031 C 583.78125 692.046875 583.460938 691.375 583.171875 690.6875 C 582.882812 689.996094 582.632812 689.296875 582.414062 688.582031 C 582.195312 687.867188 582.011719 687.144531 581.867188 686.414062 C 581.71875 685.683594 581.609375 684.945312 581.535156 684.203125 C 581.460938 683.460938 581.425781 682.71875 581.425781 681.972656 C 581.425781 681.226562 581.460938 680.480469 581.535156 679.738281 C 581.609375 678.996094 581.71875 678.257812 581.867188 677.527344 C 582.011719 676.796875 582.195312 676.074219 582.414062 675.359375 C 582.632812 674.644531 582.882812 673.945312 583.171875 673.253906 C 583.460938 672.566406 583.78125 671.894531 584.136719 671.234375 C 584.488281 670.578125 584.875 669.9375 585.292969 669.320312 C 585.710938 668.699219 586.15625 668.101562 586.632812 667.523438 C 587.109375 666.945312 587.613281 666.394531 588.144531 665.867188 C 588.675781 665.339844 589.234375 664.839844 589.8125 664.367188 C 590.394531 663.894531 590.996094 663.449219 591.621094 663.035156 C 592.246094 662.621094 592.890625 662.238281 593.554688 661.886719 C 594.214844 661.535156 594.894531 661.214844 595.589844 660.929688 C 596.28125 660.644531 596.988281 660.394531 597.707031 660.179688 C 598.425781 659.960938 599.15625 659.78125 599.890625 659.632812 C 600.628906 659.488281 601.371094 659.378906 602.117188 659.308594 C 602.867188 659.234375 603.617188 659.195312 604.367188 659.195312 C 605.117188 659.195312 605.867188 659.234375 606.617188 659.308594 C 607.363281 659.378906 608.105469 659.488281 608.84375 659.632812 C 609.582031 659.78125 610.308594 659.960938 611.027344 660.175781 C 611.746094 660.394531 612.453125 660.644531 613.148438 660.929688 C 613.839844 661.214844 614.519531 661.535156 615.183594 661.886719 C 615.84375 662.238281 616.488281 662.621094 617.113281 663.035156 C 617.738281 663.449219 618.339844 663.894531 618.921875 664.367188 C 619.503906 664.839844 620.058594 665.339844 620.589844 665.867188 C 621.121094 666.394531 621.625 666.945312 622.101562 667.523438 C 622.578125 668.101562 623.027344 668.699219 623.441406 669.320312 C 623.859375 669.9375 624.246094 670.578125 624.601562 671.234375 C 624.953125 671.894531 625.277344 672.566406 625.5625 673.253906 C 625.851562 673.945312 626.105469 674.644531 626.320312 675.359375 C 626.539062 676.074219 626.722656 676.796875 626.867188 677.527344 C 627.015625 678.257812 627.125 678.996094 627.199219 679.738281 C 627.273438 680.480469 627.308594 681.226562 627.308594 681.972656 Z M 627.308594 681.972656 " fill-opacity="1" fill-rule="nonzero"/><path fill="#147e93" d="M 535.867188 681.972656 C 535.867188 682.71875 535.828125 683.460938 535.753906 684.203125 C 535.679688 684.945312 535.570312 685.683594 535.425781 686.414062 C 535.277344 687.144531 535.09375 687.867188 534.878906 688.582031 C 534.660156 689.296875 534.40625 689.996094 534.117188 690.6875 C 533.832031 691.375 533.511719 692.050781 533.15625 692.707031 C 532.800781 693.363281 532.417969 694.003906 532 694.625 C 531.582031 695.242188 531.132812 695.84375 530.65625 696.417969 C 530.179688 696.996094 529.675781 697.546875 529.144531 698.074219 C 528.613281 698.601562 528.058594 699.101562 527.476562 699.574219 C 526.898438 700.046875 526.292969 700.492188 525.667969 700.90625 C 525.042969 701.320312 524.402344 701.703125 523.738281 702.054688 C 523.074219 702.40625 522.398438 702.726562 521.703125 703.011719 C 521.007812 703.296875 520.300781 703.546875 519.582031 703.765625 C 518.863281 703.980469 518.136719 704.160156 517.398438 704.308594 C 516.664062 704.453125 515.921875 704.5625 515.171875 704.636719 C 514.425781 704.707031 513.675781 704.746094 512.921875 704.746094 C 512.171875 704.746094 511.421875 704.707031 510.675781 704.636719 C 509.925781 704.5625 509.183594 704.453125 508.449219 704.308594 C 507.710938 704.160156 506.984375 703.980469 506.265625 703.765625 C 505.542969 703.546875 504.839844 703.296875 504.144531 703.011719 C 503.449219 702.726562 502.769531 702.40625 502.109375 702.054688 C 501.445312 701.703125 500.800781 701.320312 500.175781 700.90625 C 499.554688 700.492188 498.949219 700.046875 498.371094 699.574219 C 497.789062 699.101562 497.234375 698.601562 496.699219 698.074219 C 496.167969 697.546875 495.664062 696.996094 495.1875 696.417969 C 494.710938 695.84375 494.265625 695.242188 493.847656 694.625 C 493.429688 694.003906 493.042969 693.363281 492.691406 692.707031 C 492.335938 692.046875 492.015625 691.375 491.726562 690.6875 C 491.441406 689.996094 491.1875 689.296875 490.96875 688.582031 C 490.75 687.867188 490.570312 687.144531 490.421875 686.414062 C 490.277344 685.683594 490.164062 684.945312 490.09375 684.203125 C 490.019531 683.460938 489.980469 682.71875 489.980469 681.972656 C 489.980469 681.226562 490.019531 680.480469 490.09375 679.738281 C 490.164062 678.996094 490.277344 678.257812 490.421875 677.527344 C 490.570312 676.796875 490.75 676.074219 490.96875 675.359375 C 491.1875 674.644531 491.441406 673.945312 491.726562 673.253906 C 492.015625 672.566406 492.335938 671.894531 492.691406 671.234375 C 493.042969 670.578125 493.429688 669.9375 493.847656 669.320312 C 494.265625 668.699219 494.710938 668.101562 495.1875 667.523438 C 495.664062 666.945312 496.167969 666.394531 496.699219 665.867188 C 497.234375 665.339844 497.789062 664.839844 498.371094 664.367188 C 498.949219 663.894531 499.554688 663.449219 500.175781 663.035156 C 500.800781 662.621094 501.445312 662.238281 502.109375 661.886719 C 502.769531 661.535156 503.449219 661.214844 504.144531 660.929688 C 504.839844 660.644531 505.542969 660.394531 506.265625 660.179688 C 506.984375 659.960938 507.710938 659.78125 508.449219 659.632812 C 509.183594 659.488281 509.925781 659.378906 510.675781 659.308594 C 511.421875 659.234375 512.171875 659.195312 512.921875 659.195312 C 513.675781 659.195312 514.425781 659.234375 515.171875 659.308594 C 515.921875 659.378906 516.664062 659.488281 517.398438 659.632812 C 518.136719 659.78125 518.863281 659.960938 519.582031 660.175781 C 520.300781 660.394531 521.007812 660.644531 521.703125 660.929688 C 522.398438 661.214844 523.074219 661.535156 523.738281 661.886719 C 524.402344 662.238281 525.042969 662.621094 525.667969 663.035156 C 526.292969 663.449219 526.898438 663.894531 527.476562 664.367188 C 528.058594 664.839844 528.613281 665.339844 529.144531 665.867188 C 529.675781 666.394531 530.179688 666.945312 530.65625 667.523438 C 531.132812 668.101562 531.582031 668.699219 532 669.320312 C 532.417969 669.9375 532.800781 670.578125 533.15625 671.234375 C 533.511719 671.894531 533.832031 672.566406 534.117188 673.253906 C 534.40625 673.945312 534.660156 674.644531 534.878906 675.359375 C 535.09375 676.074219 535.277344 676.796875 535.425781 677.527344 C 535.570312 678.257812 535.679688 678.996094 535.753906 679.738281 C 535.828125 680.480469 535.867188 681.226562 535.867188 681.972656 Z M 535.867188 681.972656 " fill-opacity="1" fill-rule="nonzero"/><path fill="#147e93" d="M 408.394531 266.222656 L 441.191406 266.222656 L 441.191406 282.054688 L 408.394531 282.054688 Z M 408.394531 266.222656 " fill-opacity="1" fill-rule="nonzero"/><path fill="#147e93" d="M 452.175781 266.222656 L 484.972656 266.222656 L 484.972656 282.054688 L 452.175781 282.054688 Z M 452.175781 266.222656 " fill-opacity="1" fill-rule="nonzero"/><path fill="#147e93" d="M 495.960938 266.222656 L 528.757812 266.222656 L 528.757812 282.054688 L 495.960938 282.054688 Z M 495.960938 266.222656 " fill-opacity="1" fill-rule="nonzero"/><path fill="#147e93" d="M 539.742188 266.222656 L 572.539062 266.222656 L 572.539062 282.054688 L 539.742188 282.054688 Z M 539.742188 266.222656 " fill-opacity="1" fill-rule="nonzero"/><path fill="#147e93" d="M 583.527344 266.222656 L 616.324219 266.222656 L 616.324219 282.054688 L 583.527344 282.054688 Z M 583.527344 266.222656 " fill-opacity="1" fill-rule="nonzero"/><path fill="#147e93" d="M 627.308594 266.222656 L 660.105469 266.222656 L 660.105469 282.054688 L 627.308594 282.054688 Z M 627.308594 266.222656 " fill-opacity="1" fill-rule="nonzero"/><path fill="#147e93" d="M 671.09375 266.222656 L 703.890625 266.222656 L 703.890625 282.054688 L 671.09375 282.054688 Z M 671.09375 266.222656 " fill-opacity="1" fill-rule="nonzero"/><path fill="#147e93" d="M 714.875 266.222656 L 747.671875 266.222656 L 747.671875 282.054688 L 714.875 282.054688 Z M 714.875 266.222656 " fill-opacity="1" fill-rule="nonzero"/><path fill="#147e93" d="M 401.769531 295.296875 L 434.566406 295.296875 L 434.566406 311.125 L 401.769531 311.125 Z M 401.769531 295.296875 " fill-opacity="1" fill-rule="nonzero"/><path fill="#147e93" d="M 447.492188 295.296875 L 480.289062 295.296875 L 480.289062 311.125 L 447.492188 311.125 Z M 447.492188 295.296875 " fill-opacity="1" fill-rule="nonzero"/><path fill="#147e93" d="M 493.050781 295.296875 L 525.847656 295.296875 L 525.847656 311.125 L 493.050781 311.125 Z M 493.050781 295.296875 " fill-opacity="1" fill-rule="nonzero"/><path fill="#147e93" d="M 538.773438 295.296875 L 571.570312 295.296875 L 571.570312 311.125 L 538.773438 311.125 Z M 538.773438 295.296875 " fill-opacity="1" fill-rule="nonzero"/><path fill="#147e93" d="M 584.496094 295.296875 L 617.292969 295.296875 L 617.292969 311.125 L 584.496094 311.125 Z M 584.496094 295.296875 " fill-opacity="1" fill-rule="nonzero"/><path fill="#147e93" d="M 630.21875 295.296875 L 663.015625 295.296875 L 663.015625 311.125 L 630.21875 311.125 Z M 630.21875 295.296875 " fill-opacity="1" fill-rule="nonzero"/><path fill="#147e93" d="M 675.777344 295.296875 L 708.574219 295.296875 L 708.574219 311.125 L 675.777344 311.125 Z M 675.777344 295.296875 " fill-opacity="1" fill-rule="nonzero"/><path fill="#147e93" d="M 721.5 295.296875 L 754.296875 295.296875 L 754.296875 311.125 L 721.5 311.125 Z M 721.5 295.296875 " fill-opacity="1" fill-rule="nonzero"/><path fill="#147e93" d="M 395.144531 324.371094 L 427.941406 324.371094 L 427.941406 340.199219 L 395.144531 340.199219 Z M 395.144531 324.371094 " fill-opacity="1" fill-rule="nonzero"/><path fill="#147e93" d="M 442.644531 324.371094 L 475.441406 324.371094 L 475.441406 340.199219 L 442.644531 340.199219 Z M 442.644531 324.371094 " fill-opacity="1" fill-rule="nonzero"/><path fill="#147e93" d="M 490.304688 324.371094 L 665.761719 324.371094 L 665.761719 340.199219 L 490.304688 340.199219 Z M 490.304688 324.371094 " fill-opacity="1" fill-rule="nonzero"/><path fill="#147e93" d="M 680.625 324.371094 L 713.421875 324.371094 L 713.421875 340.199219 L 680.625 340.199219 Z M 680.625 324.371094 " fill-opacity="1" fill-rule="nonzero"/><path fill="#147e93" d="M 728.125 324.371094 L 760.921875 324.371094 L 760.921875 340.199219 L 728.125 340.199219 Z M 728.125 324.371094 " fill-opacity="1" fill-rule="nonzero"/><path fill="#147e93" d="M 620.363281 134.585938 C 644.597656 134.585938 664.308594 107.777344 664.308594 83.546875 C 664.308594 59.320312 644.597656 39.617188 620.363281 39.617188 C 596.128906 39.617188 576.417969 59.320312 576.417969 83.386719 C 576.417969 107.453125 595.964844 134.585938 620.363281 134.585938 Z M 620.363281 134.585938 " fill-opacity="1" fill-rule="nonzero"/><g clip-path="url(#id3)"><path fill="#147e93" d="M 779.015625 231.015625 L 779.015625 1.011719 L 377.050781 1.011719 L 377.050781 231.015625 L 348.453125 351.183594 L 348.453125 362.167969 C 348.453125 375.085938 358.953125 385.746094 372.042969 385.746094 L 784.023438 385.746094 C 796.949219 385.746094 807.613281 375.25 807.613281 362.167969 L 807.613281 351.183594 Z M 399.34375 23.140625 L 756.882812 23.140625 L 756.882812 226.492188 L 687.734375 226.492188 L 680.785156 156.070312 C 680.785156 155.585938 680.785156 155.101562 680.785156 154.617188 C 680.785156 154.292969 680.785156 153.96875 680.625 153.648438 C 680.625 153.484375 680.625 153.324219 680.625 153.164062 C 680.625 152.675781 680.464844 152.355469 680.300781 151.871094 C 680.300781 151.871094 680.300781 151.871094 680.300781 151.707031 C 680.140625 151.222656 679.980469 150.738281 679.816406 150.417969 C 679.171875 148.960938 678.363281 147.507812 677.394531 146.21875 C 677.230469 145.894531 676.910156 145.570312 676.746094 145.410156 C 676.746094 145.410156 676.585938 145.246094 676.585938 145.246094 C 676.425781 144.925781 676.101562 144.761719 675.777344 144.441406 C 675.777344 144.441406 675.777344 144.441406 675.617188 144.277344 C 675.132812 143.792969 674.648438 143.472656 674.164062 142.988281 C 674 142.824219 674 142.824219 673.839844 142.664062 C 673.679688 142.503906 673.355469 142.339844 673.191406 142.179688 C 673.03125 142.015625 672.871094 142.015625 672.546875 141.855469 C 672.386719 141.695312 672.0625 141.695312 671.902344 141.53125 C 671.738281 141.371094 671.417969 141.210938 671.09375 141.210938 C 670.929688 141.046875 670.769531 141.046875 670.609375 140.886719 C 670.125 140.726562 669.800781 140.5625 669.316406 140.402344 C 669.152344 140.402344 668.992188 140.402344 668.832031 140.242188 C 668.507812 140.078125 668.183594 140.078125 667.863281 139.917969 C 667.699219 139.917969 667.539062 139.917969 667.378906 139.757812 C 667.054688 139.757812 666.730469 139.59375 666.40625 139.59375 C 666.246094 139.59375 666.085938 139.59375 665.761719 139.59375 C 665.277344 139.59375 664.792969 139.433594 664.308594 139.433594 L 576.257812 139.433594 C 575.769531 139.433594 575.285156 139.433594 574.800781 139.59375 C 574.640625 139.59375 574.480469 139.59375 574.316406 139.59375 C 573.996094 139.59375 573.671875 139.757812 573.347656 139.757812 C 573.1875 139.757812 573.023438 139.757812 572.863281 139.917969 C 572.539062 140.078125 572.21875 140.078125 571.894531 140.242188 C 571.730469 140.242188 571.570312 140.402344 571.570312 140.402344 C 571.085938 140.5625 570.761719 140.726562 570.277344 140.886719 C 570.117188 140.886719 569.957031 141.046875 569.792969 141.210938 C 569.632812 141.371094 569.308594 141.371094 568.984375 141.53125 C 568.824219 141.695312 568.664062 141.695312 568.339844 141.855469 C 568.179688 142.015625 568.015625 142.015625 567.691406 142.179688 C 567.53125 142.339844 567.207031 142.503906 567.046875 142.664062 C 566.886719 142.824219 566.886719 142.824219 566.722656 142.988281 C 566.238281 143.308594 565.753906 143.792969 565.269531 144.277344 C 565.269531 144.277344 565.269531 144.277344 565.109375 144.441406 C 564.785156 144.761719 564.625 144.925781 564.300781 145.246094 C 564.300781 145.246094 564.140625 145.410156 564.140625 145.410156 C 563.976562 145.730469 563.652344 145.894531 563.492188 146.21875 C 562.523438 147.507812 561.714844 148.960938 561.070312 150.417969 C 560.90625 150.902344 560.746094 151.386719 560.585938 151.707031 C 560.585938 151.707031 560.585938 151.707031 560.585938 151.871094 C 560.421875 152.355469 560.421875 152.675781 560.261719 153.164062 C 560.261719 153.324219 560.261719 153.484375 560.261719 153.648438 C 560.261719 153.96875 560.101562 154.292969 560.101562 154.617188 C 560.101562 155.101562 560.101562 155.585938 560.101562 156.070312 L 553.152344 226.492188 L 399.507812 226.492188 Z M 377.535156 352.152344 L 395.304688 253.949219 L 760.921875 253.949219 L 778.695312 352.152344 Z M 377.535156 352.152344 " fill-opacity="1" fill-rule="nonzero"/></g><path fill="#147e93" d="M 421.964844 85.648438 C 421.964844 105.515625 438.121094 121.503906 457.992188 121.503906 L 505.492188 121.503906 L 509.046875 127.320312 L 523.910156 151.707031 L 522.132812 127.320312 L 521.488281 118.921875 C 534.574219 113.589844 543.78125 100.667969 543.78125 85.648438 C 543.78125 65.78125 527.625 49.789062 507.753906 49.789062 L 457.832031 49.789062 C 438.121094 49.789062 421.964844 65.941406 421.964844 85.648438 Z M 431.335938 85.648438 C 431.335938 70.949219 443.289062 58.996094 457.992188 58.996094 L 507.914062 58.996094 C 522.617188 58.996094 534.574219 70.949219 534.574219 85.648438 C 534.574219 96.46875 528.109375 106.160156 518.09375 110.199219 C 515.671875 111.167969 513.730469 113.265625 512.921875 115.691406 C 511.144531 113.589844 508.5625 112.296875 505.652344 112.296875 L 458.152344 112.296875 C 443.289062 112.296875 431.335938 100.347656 431.335938 85.648438 Z M 431.335938 85.648438 " fill-opacity="1" fill-rule="nonzero"/><path fill="#147e93" d="M 462.515625 87.425781 C 462.515625 91.140625 459.445312 94.207031 455.730469 94.207031 C 452.015625 94.207031 448.945312 91.140625 448.945312 87.425781 C 448.945312 83.710938 452.015625 80.640625 455.730469 80.640625 C 459.445312 80.640625 462.515625 83.710938 462.515625 87.425781 Z M 462.515625 87.425781 " fill-opacity="1" fill-rule="nonzero"/><path fill="#147e93" d="M 489.660156 87.425781 C 489.660156 91.140625 486.589844 94.207031 482.871094 94.207031 C 479.15625 94.207031 476.085938 91.140625 476.085938 87.425781 C 476.085938 83.710938 479.15625 80.640625 482.871094 80.640625 C 486.589844 80.640625 489.660156 83.710938 489.660156 87.425781 Z M 489.660156 87.425781 " fill-opacity="1" fill-rule="nonzero"/><path fill="#147e93" d="M 516.960938 87.425781 C 516.960938 91.140625 513.894531 94.207031 510.175781 94.207031 C 506.460938 94.207031 503.390625 91.140625 503.390625 87.425781 C 503.390625 83.710938 506.460938 80.640625 510.175781 80.640625 C 513.894531 80.640625 516.960938 83.710938 516.960938 87.425781 Z M 516.960938 87.425781 " fill-opacity="1" fill-rule="nonzero"/></svg>