<?xml version="1.0" standalone="no"?>
<!DOCTYPE svg PUBLIC "-//W3C//DTD SVG 20010904//EN"
 "http://www.w3.org/TR/2001/REC-SVG-20010904/DTD/svg10.dtd">
<svg version="1.0" xmlns="http://www.w3.org/2000/svg"
 width="1080.000000pt" height="1080.000000pt" viewBox="0 0 1080.000000 1080.000000"
 preserveAspectRatio="xMidYMid meet">

<g transform="translate(0.000000,1080.000000) scale(0.100000,-0.100000)"
fill="#000000" stroke="none">
<path d="M5080 10268 c-41 -21 -50 -33 -110 -149 l-65 -125 -120 38 c-131 41
-169 45 -218 24 -41 -18 -293 -272 -307 -309 -17 -46 -12 -77 30 -202 22 -65
40 -122 40 -126 0 -3 -17 -13 -37 -22 -26 -11 -85 -18 -183 -22 -574 -24
-1096 -218 -1530 -569 -111 -90 -271 -248 -363 -359 l-81 -98 -34 66 c-56 105
-67 109 -302 113 -187 3 -197 2 -240 -20 -41 -21 -50 -33 -107 -143 -34 -66
-63 -123 -65 -127 -2 -4 -59 11 -128 32 -132 42 -162 46 -207 30 -32 -13 -287
-262 -309 -302 -23 -43 -17 -96 26 -223 22 -66 37 -121 33 -123 -5 -2 -62 -31
-128 -65 -110 -57 -122 -66 -143 -107 -22 -43 -23 -53 -20 -246 l3 -201 27
-35 c20 -26 62 -54 147 -97 l120 -61 -40 -117 c-42 -125 -48 -178 -25 -221 17
-32 272 -285 303 -301 39 -20 96 -12 218 29 65 22 119 39 121 37 1 -1 29 -57
62 -124 87 -173 77 -167 327 -171 192 -3 202 -2 245 20 41 21 50 33 107 143
34 66 63 123 65 128 2 4 57 -11 123 -33 127 -43 180 -49 223 -26 32 17 285
272 301 303 19 38 12 94 -29 218 -22 66 -36 121 -32 123 4 2 61 31 127 65 165
86 160 75 160 337 0 262 4 253 -168 341 -67 34 -123 63 -124 64 -2 1 15 55 37
120 43 128 48 168 26 218 -14 33 -279 301 -305 309 -48 14 261 290 470 419
214 133 493 244 739 293 128 26 287 46 295 37 3 -2 5 -62 5 -132 l0 -128 32
-36 c20 -24 71 -57 142 -92 61 -30 113 -57 115 -59 1 -1 -15 -58 -38 -126 -46
-139 -48 -157 -22 -213 22 -47 263 -289 304 -304 47 -18 88 -13 212 29 65 22
119 39 121 37 1 -1 25 -48 53 -104 60 -121 99 -169 149 -183 20 -5 115 -10
210 -10 247 0 253 3 343 183 33 64 60 117 62 117 2 0 57 -18 122 -40 128 -43
171 -48 213 -26 15 8 91 79 168 158 174 176 171 167 114 341 -22 68 -40 128
-40 133 0 6 41 30 92 54 118 58 166 93 184 135 9 23 14 72 14 148 0 63 2 116
5 118 8 9 166 -11 293 -37 319 -64 633 -205 900 -406 89 -67 322 -282 322
-298 0 -4 -9 -11 -20 -16 -11 -5 -83 -72 -160 -148 -180 -179 -177 -171 -119
-353 23 -73 41 -135 38 -137 -2 -2 -47 -25 -99 -51 -52 -26 -110 -58 -128 -72
-58 -44 -62 -61 -62 -283 0 -263 -1 -260 180 -350 58 -29 107 -54 109 -56 3
-2 -15 -64 -38 -137 -59 -183 -59 -180 111 -353 72 -73 145 -140 163 -148 51
-25 101 -19 228 23 l117 40 59 -117 c61 -121 86 -153 134 -171 16 -7 107 -11
216 -11 253 0 252 -1 341 172 l65 125 115 -39 c121 -40 184 -47 228 -24 40 22
289 277 302 309 17 46 12 75 -31 205 -23 68 -39 125 -38 126 2 2 58 31 124 65
71 36 128 72 140 89 19 25 20 43 20 254 l0 227 -30 31 c-16 18 -79 57 -140 87
-60 30 -112 57 -114 59 -1 1 15 58 38 126 46 139 48 157 22 213 -22 47 -263
289 -304 304 -47 18 -88 13 -212 -29 -65 -22 -119 -39 -121 -37 -1 1 -25 48
-53 104 -60 121 -99 169 -149 183 -47 13 -366 13 -411 0 -47 -13 -78 -44 -113
-115 l-30 -59 -22 29 c-45 63 -144 174 -235 264 -191 189 -408 344 -651 465
-344 171 -668 254 -1065 271 -139 6 -215 24 -215 49 0 6 16 60 35 120 36 112
42 165 25 210 -13 35 -269 293 -303 305 -49 19 -100 12 -220 -28 l-117 -40
-59 117 c-61 121 -86 153 -134 171 -16 7 -107 11 -216 11 -174 0 -190 -2 -231
-22z m355 -409 c33 -64 67 -125 75 -134 23 -28 116 -65 163 -65 24 0 95 18
159 39 l115 39 45 -45 45 -45 -38 -117 c-43 -129 -47 -171 -22 -233 30 -79 56
-103 183 -168 l120 -61 0 -59 0 -60 -117 -59 c-65 -32 -128 -70 -140 -82 -28
-31 -63 -121 -63 -162 0 -18 18 -87 40 -152 l40 -120 -45 -45 -45 -44 -117 38
c-139 46 -180 48 -255 14 -66 -31 -93 -64 -158 -196 l-44 -92 -63 0 -63 0 -51
103 c-69 136 -81 152 -142 180 -88 41 -106 41 -241 -3 -68 -22 -129 -40 -137
-40 -8 0 -32 18 -54 40 l-39 40 42 130 c23 71 42 137 42 145 0 26 -37 123 -59
154 -14 19 -64 51 -141 91 l-120 61 0 62 0 63 110 54 c126 62 154 85 180 146
36 83 35 102 -11 243 l-43 131 39 40 c21 22 46 40 55 40 9 0 63 -16 120 -35
123 -41 176 -44 245 -11 65 30 96 67 159 193 l51 104 60 -3 60 -3 60 -116z
m-3525 -1759 c62 -126 83 -151 144 -178 81 -36 95 -36 228 7 69 23 131 41 139
41 8 0 33 -18 54 -40 l39 -40 -36 -113 c-20 -61 -39 -124 -42 -139 -9 -39 31
-153 65 -186 15 -15 78 -52 138 -82 l111 -54 0 -66 0 -66 -110 -54 c-124 -61
-149 -83 -181 -155 -31 -70 -28 -112 17 -247 l38 -118 -43 -44 -43 -44 -116
39 c-132 44 -186 48 -252 18 -68 -31 -87 -53 -151 -181 l-59 -118 -60 0 -60 0
-51 103 c-68 136 -91 165 -156 193 -74 33 -120 30 -255 -15 l-115 -39 -46 45
-45 46 39 115 c45 135 48 181 15 255 -28 65 -57 88 -193 156 l-103 51 0 60 0
60 118 59 c129 65 151 84 181 154 30 69 26 117 -18 249 l-39 116 44 43 44 43
118 -38 c135 -45 177 -48 247 -17 72 32 94 57 155 181 l54 110 66 0 66 0 54
-110z m7051 -11 c67 -132 88 -153 187 -185 l53 -17 135 44 135 43 46 -46 45
-46 -41 -123 c-22 -68 -41 -134 -41 -146 0 -31 37 -126 61 -156 10 -14 73 -53
139 -87 l120 -61 0 -62 0 -62 -127 -65 c-125 -64 -128 -66 -155 -120 -46 -92
-46 -108 3 -257 l43 -133 -39 -40 c-21 -22 -46 -40 -55 -40 -9 0 -63 16 -120
35 -117 39 -163 43 -234 18 -69 -25 -102 -64 -166 -192 l-55 -112 -60 3 -60 3
-61 120 c-66 127 -92 155 -163 180 -67 23 -106 19 -233 -24 l-116 -39 -46 47
-46 47 40 119 c44 132 48 165 23 227 -30 79 -56 103 -183 168 l-120 61 0 59 0
59 120 61 c127 65 153 89 183 168 25 62 21 95 -23 227 l-40 120 45 45 45 44
117 -38 c65 -22 136 -39 158 -39 43 1 128 33 159 61 10 9 45 70 77 135 l59
117 65 0 64 0 62 -121z"/>
<path d="M5225 9480 c-104 -22 -207 -80 -271 -154 -20 -22 -53 -75 -72 -116
-33 -67 -37 -85 -40 -172 -4 -78 0 -110 16 -165 80 -261 361 -400 622 -308
202 71 334 294 303 510 -39 269 -299 458 -558 405z m175 -333 c48 -32 74 -81
73 -138 -2 -160 -200 -216 -297 -85 -29 39 -29 133 0 173 55 74 155 97 224 50z"/>
<path d="M1720 7719 c-262 -38 -443 -283 -401 -542 42 -259 289 -440 543 -398
317 52 492 387 354 677 -88 185 -292 293 -496 263z m151 -332 c77 -52 101
-140 58 -217 -55 -98 -207 -107 -271 -17 -33 45 -36 125 -8 175 44 78 150 107
221 59z"/>
<path d="M8763 7719 c-131 -17 -278 -119 -341 -237 -102 -192 -77 -401 69
-556 295 -316 819 -109 819 324 0 135 -42 237 -139 335 -107 108 -249 155
-408 134z m141 -323 c18 -8 46 -31 62 -52 24 -31 29 -47 29 -95 0 -65 -18 -98
-75 -136 -45 -32 -124 -31 -171 0 -48 31 -83 105 -74 156 18 110 127 170 229
127z"/>
<path d="M5160 7250 l0 -320 155 0 155 0 0 320 0 320 -155 0 -155 0 0 -320z"/>
<path d="M5160 6605 l0 -155 155 0 155 0 0 155 0 155 -155 0 -155 0 0 -155z"/>
<path d="M3142 6442 c-16 -37 -46 -101 -65 -143 l-35 -76 285 -132 c157 -73
287 -130 290 -127 14 14 130 272 124 278 -5 5 -336 161 -507 238 l-62 28 -30
-66z"/>
<path d="M7165 6377 c-154 -72 -282 -132 -284 -134 -4 -3 114 -266 126 -282 2
-4 531 239 561 258 11 6 0 37 -48 142 -34 74 -65 137 -68 140 -4 3 -133 -53
-287 -124z"/>
<path d="M5160 6045 l0 -235 155 0 155 0 0 235 0 235 -155 0 -155 0 0 -235z"/>
<path d="M3854 6072 c-61 -130 -85 -184 -82 -187 12 -10 263 -125 273 -125 10
0 135 252 135 272 0 6 -51 31 -208 104 l-73 34 -45 -98z"/>
<path d="M6578 6102 l-138 -67 66 -141 66 -142 87 40 c47 22 111 52 143 66
l56 27 -66 143 c-36 78 -68 142 -71 141 -4 0 -68 -31 -143 -67z"/>
<path d="M4268 5821 l-66 -139 207 -96 c113 -53 211 -96 217 -96 13 0 140 267
131 276 -8 9 -406 194 -416 194 -4 0 -37 -63 -73 -139z"/>
<path d="M6070 5864 c-113 -53 -206 -97 -208 -98 -1 -2 28 -66 65 -143 l68
-141 207 97 c114 53 209 99 213 102 7 8 -121 279 -132 279 -4 0 -100 -43 -213
-96z"/>
<path d="M1760 5616 c-503 -151 -755 -815 -520 -1369 62 -144 192 -309 307
-388 24 -17 77 -46 116 -64 68 -31 108 -43 217 -64 29 -6 -134 -9 -455 -10
-550 -1 -574 -3 -679 -65 -107 -63 -200 -192 -225 -314 -8 -37 -11 -428 -11
-1289 0 -1230 0 -1237 21 -1279 11 -24 35 -52 53 -64 33 -20 43 -20 1363 -20
l1330 0 33 23 c18 12 43 35 54 50 21 28 21 32 24 1021 l2 992 28 32 c18 21 59
44 123 70 l96 40 94 -39 c57 -24 103 -50 116 -67 l22 -27 1 -965 c0 -628 4
-981 11 -1010 6 -25 20 -56 32 -68 51 -55 -29 -52 1404 -52 l1328 0 36 24 c73
50 69 -18 69 1078 l0 984 28 33 c18 22 56 45 119 71 l93 39 101 -42 c82 -34
106 -49 125 -77 l24 -35 0 -980 c0 -1093 -4 -1023 69 -1072 l34 -23 1331 0
c1310 0 1332 0 1364 20 18 11 41 34 52 52 20 32 20 53 20 1293 0 1363 2 1303
-55 1414 -35 69 -126 161 -193 195 -107 54 -125 56 -667 57 -324 1 -484 4
-455 10 25 5 69 14 98 20 78 16 217 89 297 156 134 113 248 301 302 498 26 92
28 115 27 275 0 145 -4 190 -21 261 -53 209 -125 341 -263 479 -153 153 -306
220 -505 220 -573 0 -956 -696 -730 -1327 19 -53 31 -100 27 -104 -4 -3 -225
-81 -492 -173 l-486 -167 -489 169 c-424 146 -490 172 -488 188 1 10 16 57 32
105 65 182 76 396 32 598 -76 345 -303 611 -592 691 -92 25 -244 27 -338 4
-279 -68 -518 -328 -601 -653 -56 -221 -40 -486 44 -693 14 -34 22 -65 18 -69
-4 -3 -226 -81 -494 -173 l-487 -167 -483 166 c-266 92 -488 170 -495 173 -8
5 -4 24 13 67 149 365 78 824 -171 1106 -106 119 -250 210 -386 243 -98 24
-255 21 -349 -8z m301 -306 c81 -28 123 -56 192 -128 62 -66 124 -183 153
-287 9 -33 18 -116 21 -185 5 -106 2 -139 -15 -208 -79 -311 -315 -506 -542
-448 -92 24 -154 62 -224 138 -116 125 -165 257 -173 464 -5 121 -3 151 16
224 82 326 329 511 572 430z m3413 -19 c139 -67 248 -216 297 -406 30 -118 30
-294 0 -399 -67 -240 -236 -418 -416 -441 -62 -7 -151 8 -205 35 -141 72 -271
263 -306 451 -19 100 -14 271 10 364 40 147 136 293 241 365 114 79 255 90
379 31z m3370 -4 c122 -61 218 -180 271 -337 48 -142 56 -323 20 -465 -26
-102 -98 -236 -163 -302 -180 -182 -404 -184 -582 -4 -110 111 -171 243 -193
412 -29 231 60 496 211 630 90 79 174 110 284 106 65 -3 89 -9 152 -40z
m-5598 -1617 l758 -260 1308 0 1308 0 627 216 c904 311 895 308 927 300 69
-17 97 -91 53 -140 -15 -18 -206 -101 -657 -287 -349 -144 -655 -271 -680
-281 -25 -11 -101 -43 -170 -72 l-125 -51 -75 -105 -75 -105 -3 -942 -2 -943
-1125 0 -1125 0 -2 938 -3 937 -61 90 c-34 50 -73 101 -87 113 -22 21 -294
142 -318 142 -5 0 -9 5 -9 10 0 6 -7 10 -16 10 -12 0 -1159 471 -1267 521 -28
13 -57 55 -57 82 0 35 59 85 102 86 9 1 357 -116 774 -259z m1611 225 c31 -31
35 -40 29 -68 -8 -40 -28 -58 -93 -85 -49 -21 -68 -22 -329 -22 -153 0 -275 3
-271 6 13 13 573 203 601 204 19 0 39 -11 63 -35z m1277 -62 c154 -53 285
-100 290 -105 6 -4 -114 -8 -266 -8 -257 0 -280 1 -325 21 -85 36 -113 83 -83
139 12 23 57 49 84 50 10 0 145 -43 300 -97z m-4064 -103 c0 -6 -23 -9 -52 -9
-45 1 -49 2 -23 9 44 11 75 11 75 0z m3180 0 c21 -7 19 -8 -17 -9 -24 -1 -43
4 -43 9 0 12 24 12 60 0z m190 0 c0 -5 -21 -9 -47 -9 -43 1 -45 2 -18 9 44 11
65 11 65 0z m3175 0 c27 -7 25 -8 -17 -9 -27 0 -48 4 -48 9 0 11 21 11 65 0z
m-5741 -496 c193 -81 353 -148 355 -150 3 -2 -7 -17 -21 -32 -44 -47 -117
-162 -128 -200 -6 -24 -10 -359 -10 -945 l0 -907 -1122 2 -1123 3 0 1140 c0
1276 -6 1173 72 1232 l36 28 751 5 c702 5 754 4 795 -13 24 -9 202 -83 395
-163z m6850 147 c24 -15 45 -40 57 -65 18 -39 19 -91 19 -1178 l0 -1138 -1125
0 -1125 0 -2 938 -3 938 -54 80 c-30 43 -63 89 -74 101 -11 13 -18 25 -15 28
3 3 181 79 396 168 l390 162 749 -5 748 -5 39 -24z"/>
<path d="M5960 1805 l0 -155 155 0 155 0 0 155 0 155 -155 0 -155 0 0 -155z"/>
<path d="M5480 1325 l0 -155 155 0 155 0 0 155 0 155 -155 0 -155 0 0 -155z"/>
<path d="M5960 1325 l0 -155 155 0 155 0 0 155 0 155 -155 0 -155 0 0 -155z"/>
<path d="M990 1805 l0 -155 160 0 160 0 0 155 0 155 -160 0 -160 0 0 -155z"/>
<path d="M990 1325 l0 -155 160 0 160 0 0 155 0 155 -160 0 -160 0 0 -155z"/>
<path d="M1470 1325 l0 -155 160 0 160 0 0 155 0 155 -160 0 -160 0 0 -155z"/>
<path d="M9320 1805 l0 -155 155 0 155 0 0 155 0 155 -155 0 -155 0 0 -155z"/>
<path d="M8840 1325 l0 -155 155 0 155 0 0 155 0 155 -155 0 -155 0 0 -155z"/>
<path d="M9320 1325 l0 -155 155 0 155 0 0 155 0 155 -155 0 -155 0 0 -155z"/>
</g>
</svg>
