<svg width="40" height="40" viewBox="0 0 40 40" fill="none" xmlns="http://www.w3.org/2000/svg">
<path fill-rule="evenodd" clip-rule="evenodd" d="M40 20C40 31.0457 31.0457 40 20 40C8.9543 40 0 31.0457 0 20C0 8.9543 8.9543 0 20 0C31.0457 0 40 8.9543 40 20ZM7 13.5C7 12.6716 7.67157 12 8.5 12H31.5C32.3284 12 33 12.6716 33 13.5C33 14.3284 32.3284 15 31.5 15H8.5C7.67157 15 7 14.3284 7 13.5ZM8.5 19C7.67157 19 7 19.6716 7 20.5C7 21.3284 7.67157 22 8.5 22H31.5C32.3284 22 33 21.3284 33 20.5C33 19.6716 32.3284 19 31.5 19H8.5ZM7 27.5C7 26.6716 7.67157 26 8.5 26H31.5C32.3284 26 33 26.6716 33 27.5C33 28.3284 32.3284 29 31.5 29H8.5C7.67157 29 7 28.3284 7 27.5Z" fill="#FFD5A8"/>
</svg>
