<svg width="78" height="86" viewBox="0 0 78 86" fill="none" xmlns="http://www.w3.org/2000/svg">
<path d="M70.2986 84.8173L70.0644 84.4493C64.5892 79.7579 67.4757 75.7737 67.4757 75.7737C71.6606 77.7602 70.297 84.8173 70.2986 84.8173ZM15.5528 34.1496C15.5528 34.1496 11.8012 33.0584 10.8788 36.9024C10.8788 36.9024 13.5233 37.8996 15.5528 34.1496ZM23.8747 48.181C23.8747 48.181 22.0332 50.4335 25.0265 53.645C25.0265 53.645 27.322 50.3411 23.8747 48.181ZM10.2018 84.9798C10.2018 84.9798 13.6029 86.2622 16.2123 81.4401C16.2123 81.4401 11.387 80.0382 10.2018 84.9798ZM10.667 73.9609C10.667 73.9609 10.9888 75.984 14.0792 75.9171C14.0792 75.9171 13.4197 73.1612 10.667 73.9609ZM14.8646 72.6482C14.8646 72.6482 13.4356 73.4591 14.3564 75.761C14.3564 75.761 16.2394 74.4897 14.8646 72.6482ZM19.7122 27.682C19.7122 27.682 19.051 24.9276 16.2999 25.7257C16.2999 25.7257 16.6217 27.7505 19.7122 27.682ZM20.4959 24.4147C20.4959 24.4147 19.067 25.2255 19.9893 27.5274C19.9893 27.5258 21.8723 26.2546 20.4959 24.4147ZM0.199219 51.7987C0.199219 51.7987 4.1754 53.2213 7.22763 47.8735C7.22763 47.8735 1.58515 46.3171 0.199219 51.7987ZM37.5014 54.6072C37.5014 54.6072 34.8698 53.8426 34.223 56.538C34.223 56.538 36.0773 57.2373 37.5014 54.6072ZM7.23082 47.2475C7.23241 47.2475 6.87398 42.7918 2.1443 43.3477C2.1443 43.3477 2.13793 46.58 7.23082 47.2475ZM61.1849 60.7021C61.1849 60.7021 61.1801 63.8085 65.8222 64.4489C65.8222 64.4489 65.4956 60.1669 61.1849 60.7021ZM45.0301 14.2305C45.0301 14.2305 46.5052 10.6956 42.8635 9.37494C42.8635 9.37494 41.6003 11.8409 45.0301 14.2305ZM58.3605 46.3633C58.3605 46.3633 56.2226 49.2754 60.1383 53.0652C60.1383 53.0652 62.7731 48.8214 58.3605 46.3633ZM72.4985 65.3346C72.4985 65.3346 71.1477 67.9711 74.8164 70.5279C74.8164 70.5279 76.3935 66.7477 72.4985 65.3346ZM72.6801 64.9858C72.6786 64.9858 74.4134 67.1204 77.9594 64.9635C77.9594 64.9635 75.3405 62.2059 72.6801 64.9858ZM62.2156 20.9164C62.2156 20.9164 63.3896 19.0064 60.7755 16.8606C60.7755 16.8606 59.3609 19.6197 62.2156 20.9164ZM62.0579 21.1697C62.0579 21.1681 60.8759 19.4556 58.0737 20.8718C58.0737 20.8718 59.8866 23.1084 62.0579 21.1697ZM63.815 40.7097C63.815 40.7097 66.0532 35.9386 61.126 33.9075C61.126 33.9075 59.2446 37.221 63.815 40.7097ZM68.1639 33.7338C68.1639 33.7338 64.9508 30.0444 61.3777 33.4678C61.3777 33.4678 63.4868 36.3082 68.1639 33.7338ZM42.7919 2.46122C42.7919 2.46122 37.3517 1.52134 36.6635 7.06346C36.6635 7.06346 40.5345 8.04636 42.7919 2.46122ZM36.1506 6.93124C36.1506 6.93124 38.4365 4.01282 34.5384 0C34.5384 0 31.7012 4.2693 36.1506 6.93124ZM26.9285 34.3854C26.9285 34.3854 20.977 36.117 23.0129 42.0478C23.0145 42.0478 27.4017 41.1318 26.9285 34.3854ZM35.2186 66.3589C35.2186 66.3589 37.5301 64.3087 34.9367 60.4345C34.9351 60.4345 31.9689 63.509 35.2186 66.3589ZM42.7234 28.3861C42.7234 28.3861 44.0631 25.1252 39.4624 22.4584C39.464 22.4584 37.965 27.0973 42.7234 28.3861ZM72.0206 59.2604C72.0206 59.2604 73.499 57.6945 71.4615 55.1648C71.4615 55.1648 69.5897 57.481 72.0206 59.2604ZM31.0784 85.7285C31.2568 85.8735 31.4734 86.0137 31.6726 86.1554H27.1149C27.048 86.0758 27.0002 85.9738 26.9986 85.8448H26.9939C26.9939 85.257 26.6737 84.8093 26.3136 84.384C25.9743 84.1212 25.6286 83.8615 25.2814 83.6289C24.8449 83.3374 24.8656 82.8213 25.1061 82.4947C24.8305 82.1984 24.5518 81.8925 24.3144 81.5644C24.2969 81.5628 24.2778 81.5596 24.2602 81.5564V81.5596C24.2411 81.5564 24.2252 81.5516 24.2077 81.5484C23.897 81.4959 23.6055 81.4194 23.2933 81.3254C22.8074 81.1804 22.2467 81.276 21.8038 81.1311C21.4979 81.0307 21.173 80.9351 20.8655 80.8109C20.7986 80.8507 20.7269 80.8794 20.6504 80.8969L20.6409 80.9048C20.2586 81.2681 19.8667 81.5803 19.4031 81.832C19.1546 81.9674 18.7579 81.9212 18.6034 82.0582C18.613 82.6922 17.9582 83.0841 17.7065 83.6146C17.6826 83.664 17.6078 83.6289 17.6205 83.5779C17.7049 83.2402 17.7288 82.9216 17.912 82.6142C18.0012 82.4628 18.0761 82.3147 18.1653 82.1745C18.1287 82.1649 18.0905 82.1538 18.0554 82.1331C17.2493 81.6631 16.1183 81.2712 15.2055 81.2027C15.1147 81.1964 15.1131 81.0594 15.2055 81.061C15.8077 81.0737 16.6026 81.37 17.1745 81.2458C17.5679 81.1597 17.8595 81.1342 18.1829 81.2298C18.5604 80.9176 19.0001 80.7216 19.3601 80.3776C19.3999 80.3393 19.4382 80.2995 19.4764 80.2597C19.4541 80.2469 19.4318 80.2326 19.4127 80.2182C19.3378 80.1641 19.2773 80.0988 19.2295 80.0271C18.8201 79.9793 18.5684 79.5428 18.3294 79.2401C18.2195 79.1 18.1733 78.904 18.2067 78.7336C18.1892 78.6587 18.1797 78.5822 18.1797 78.5026C18.0044 78.3799 17.8404 78.2445 17.6731 78.1155C17.6046 78.1856 17.5058 78.219 17.3752 78.1712C17.1633 78.0947 16.969 77.9944 16.7905 77.8717C16.6982 77.8335 16.6058 77.7937 16.515 77.7523C16.3079 77.7554 16.104 77.765 15.9447 77.7427C15.7885 77.722 15.7232 77.6168 15.72 77.5006C15.5114 77.4273 15.3074 77.346 15.1083 77.2505C14.9458 77.2696 14.7977 77.3253 14.5922 77.3253C14.1637 77.3253 13.8626 77.0864 13.399 77.1676C13.3034 77.1851 13.2222 77.1023 13.2174 77.021C12.8542 76.9828 12.491 76.9287 12.131 76.8968C12.0402 76.8888 12.0402 76.763 12.131 76.755C12.7013 76.7056 13.2779 76.5957 13.8498 76.5862C14.1525 76.5814 14.5157 76.5113 14.8216 76.583C14.9554 76.5193 15.094 76.4651 15.2549 76.481C15.8905 76.5447 16.4465 76.8681 17.0391 77.0832C17.1123 77.0832 17.184 77.0832 17.2573 77.0848C17.4134 77.0864 17.5616 77.1835 17.7034 77.2855C17.7272 77.2998 17.748 77.3158 17.7671 77.3333C17.8404 77.3874 17.9104 77.44 17.9789 77.4783C18.28 77.6487 18.7818 77.6774 19.0272 77.9243L19.0319 77.9307C19.0957 77.9275 19.1642 77.937 19.239 77.9689C19.5879 78.1139 19.9161 78.2541 20.2331 78.4468C20.5405 78.4357 20.8543 78.4404 21.1714 78.4595C21.2 78.4532 21.2303 78.4484 21.2622 78.4452L21.2574 78.4006C21.2223 78.1378 21.3179 77.9259 21.4963 77.8176C21.1761 77.6216 20.8575 77.4273 20.5214 77.2616C20.488 77.2457 20.5119 77.1963 20.5453 77.2043C20.9977 77.3046 21.4071 77.499 21.791 77.7427C21.8277 77.7427 21.8659 77.7427 21.9073 77.7491C22.1272 77.7809 22.2451 77.5213 22.2992 77.1469C22.2913 77.1071 22.2817 77.0704 22.2785 77.029C22.2674 76.8347 22.253 76.6403 22.2371 76.4476C22.2291 76.4205 22.2212 76.395 22.2164 76.3663C22.0364 75.2639 21.9233 74.1584 21.5425 73.1022C21.4565 72.8633 21.5664 72.5463 21.6684 72.3153C21.6206 72.2866 21.5632 72.2404 21.4932 72.1751C21.216 71.9122 21.2494 71.4821 21.4932 71.2161L21.5123 71.1842C21.4183 70.7876 21.337 70.3893 21.2733 69.9895C21.1108 69.631 20.9244 69.306 20.84 69.1834C20.335 68.4554 20.1343 68.3088 20.1996 67.318C20.2315 66.8082 20.4226 66.3319 20.5214 65.8364C20.5501 65.6931 20.5565 65.5465 20.5565 65.4C20.5326 65.3729 20.5071 65.349 20.4848 65.3171C19.9001 64.5031 19.8125 63.2828 19.2836 62.4242C18.8487 62.1406 18.4298 61.8157 18.022 61.591C17.5632 61.3393 17.1012 61.0542 16.695 60.7101C16.4512 60.6543 16.2187 60.6448 16.0147 60.7053C15.677 60.8057 15.3903 60.6336 15.1959 60.3724C14.7897 59.8276 14.0442 59.5583 13.3448 58.9992C13.2094 58.8893 13.1521 58.6822 13.1728 58.4974C12.5786 58.2712 12.0545 57.9175 11.532 57.4715C10.804 56.8502 9.59009 56.8534 8.70596 56.6001C8.11017 56.428 7.55898 56.1779 6.99027 55.9326C6.95682 55.9183 6.98072 55.8657 7.01417 55.8753C8.33478 56.2385 10.2305 56.7196 11.6021 56.6208C12.5069 56.5555 13.2158 57.5479 14.1812 57.5798C14.597 57.5941 14.9474 58.1262 14.6846 58.4783C14.8949 58.6025 15.1242 58.6901 15.4094 58.6901C15.5193 58.6901 15.6276 58.7204 15.7248 58.7698C15.7567 58.765 15.7869 58.7634 15.8188 58.765C15.865 58.7682 16.1916 58.7602 16.0371 58.7969C16.0673 58.7905 16.096 58.7809 16.1263 58.7714L16.1549 58.7555C16.1071 58.3843 16.0052 58.0482 15.8061 57.712C15.6499 57.4492 15.6722 57.0366 15.9192 56.8311C15.9956 56.7658 16.0609 56.6989 16.1215 56.6304C16.0259 56.4631 15.9574 56.2926 15.9574 56.1142C15.9574 55.7813 15.9606 55.3942 16.0068 55.0134C15.6834 54.4893 15.634 53.7916 15.7758 53.1401C14.8311 52.4582 13.8578 51.504 13.9613 50.3602C13.133 49.8919 12.4782 49.1543 11.7216 48.5983C10.9919 48.5744 10.3085 48.3594 9.5869 48.2415C8.75853 48.1061 8.01937 47.9325 7.33915 47.4211C7.19577 47.3128 7.31684 47.0882 7.48252 47.1758C8.16911 47.5342 8.82384 47.6027 9.5869 47.4832C9.67611 47.4705 9.76373 47.4466 9.85134 47.4195C9.38459 45.6337 9.24918 43.6982 8.57055 41.9873C8.54188 41.9124 8.66454 41.863 8.70118 41.9331C9.12174 42.7296 9.49928 43.5596 9.80355 44.4087C10.1222 45.3008 10.3277 46.5322 11.3504 46.8253C12.808 47.2427 13.5487 48.8246 14.9793 49.2786C15.317 49.3853 15.6197 49.7804 15.4747 50.1515C15.4094 50.3204 15.3998 50.4829 15.4285 50.6374C15.4508 50.6326 15.4731 50.6294 15.497 50.6294C15.5496 50.6294 15.6006 50.6342 15.6515 50.6406C15.8347 50.4622 16.1645 50.4447 16.3796 50.6294C16.4767 50.6263 16.5643 50.6279 16.6806 50.6565C16.7587 50.6756 16.8304 50.7027 16.9037 50.7298C17.877 49.4793 19.1992 48.2686 19.3999 47.1009C19.5831 46.0368 19.7249 45.0379 20.0897 44.0311C20.2522 43.5835 19.7791 43.053 19.8237 42.5926C19.889 41.9029 19.9113 41.2163 19.8221 40.5297C19.8157 40.4899 19.8396 40.466 19.8699 40.4516C19.6994 39.7746 19.3203 39.3859 18.6002 38.9685C17.6683 38.4285 17.1665 37.0824 17.2525 36.0278C17.2477 36.0103 17.243 35.9943 17.2398 35.9768C16.9929 35.7618 16.9435 35.3906 16.953 35.0369C16.8559 34.9143 16.7619 34.7852 16.6759 34.6514C16.3827 34.5543 16.1199 34.3727 15.9048 34.1225C15.5145 33.6669 15.2294 32.9867 14.6957 32.7016C14.64 32.6729 14.6798 32.5837 14.7387 32.6012C15.1147 32.7143 15.5416 32.923 15.8236 33.2018C16.2043 33.5793 16.6137 34.1273 17.2175 34.0397H17.2462C17.4532 33.0616 18.0395 32.1058 18.5763 31.2264C18.5827 31.1978 18.5875 31.1755 18.5907 31.1627C18.7516 30.4172 19.4907 29.678 19.2534 28.8958C18.9587 27.9241 20.2219 27.9687 20.7317 27.6421C20.7954 27.6007 20.8512 27.6883 20.8082 27.7409C19.967 28.7636 19.2534 30.183 18.9077 31.6167C18.8933 31.6996 18.8726 31.7824 18.8535 31.8652C18.7277 32.4626 18.6655 33.0584 18.691 33.6271C18.6974 33.7785 18.5636 33.9107 18.417 33.925C18.3931 34.0047 18.3692 34.0843 18.3453 34.164C18.366 34.3217 18.3868 34.481 18.417 34.6371C18.4584 34.8458 18.2864 34.986 18.1 34.9366C18.1064 34.9923 18.1144 35.0449 18.1223 35.0991C18.2609 35.2663 18.3613 35.4687 18.4393 35.7586C18.4696 35.8701 18.4521 36.0023 18.3995 36.117C18.4457 36.1807 18.4919 36.2572 18.5461 36.3655C18.6687 36.6093 18.6018 36.8402 18.4569 36.998C18.7643 37.4647 19.1211 37.8916 19.5051 38.0748C20.0116 38.317 20.3111 38.5002 20.5612 39.0052C20.977 39.8447 20.7938 41.1876 20.7333 42.2597C20.7524 42.3282 20.7747 42.3951 20.7922 42.462C20.8687 42.7631 21.106 43.1104 21.2176 43.4497C21.439 43.3557 21.6748 43.2936 21.9042 43.2314C22.159 43.1645 22.3534 42.9192 22.5398 42.7424C22.5987 42.6866 22.6847 42.7727 22.629 42.8316C22.5079 42.9574 22.3884 43.0849 22.2626 43.2044C22.1527 43.3079 22.0889 43.4354 21.995 43.5516C21.7958 43.797 21.6381 43.985 21.3227 44.0805C21.2877 44.0917 21.2542 44.0917 21.2223 44.0901C20.9404 45.1829 21.0089 46.3745 20.6966 47.4593C20.3685 48.5983 19.7201 49.6418 19.1769 50.69C18.8105 51.3973 18.2784 52.0552 18.0427 52.8262C17.8674 53.3981 17.8005 53.7916 17.4644 54.2345C17.5249 54.4893 17.5265 54.7665 17.501 55.0485C17.5042 55.1281 17.5042 55.2094 17.4979 55.2938C17.4931 55.3416 17.4819 55.3862 17.466 55.4292C17.8133 55.5439 18.0889 55.947 17.9487 56.307C17.9073 56.4137 17.8658 56.5125 17.826 56.6081C17.9869 56.89 18.1319 57.1847 18.2928 57.5033C18.6926 58.2919 19.3999 59.1442 19.9591 59.8387C20.7556 60.828 21.705 61.5926 22.5876 62.464C22.6449 62.3254 22.7023 62.1868 22.7564 62.0514C23.22 60.8949 23.7106 59.7129 24.5932 58.8208C24.4498 58.3046 24.4402 57.7837 24.6107 57.2485C24.7286 56.8789 24.8863 56.5109 24.9803 56.1365C25.1284 55.5423 25.4279 55.4595 24.9213 55.3336C24.5549 55.2428 24.4323 54.6518 24.8098 54.483C26.3391 53.7964 28.0182 53.3535 29.2926 52.1986C29.5252 51.9883 30.0572 51.1997 30.3758 51.1997C31.1262 51.1997 30.9541 50.0098 30.935 49.5542C30.9318 49.4888 31.0242 49.4825 31.0433 49.5398C31.2648 50.1914 31.244 50.768 31.1469 51.4435C31.1357 51.512 31.0545 51.5661 30.9892 51.563C30.3073 51.5295 29.7753 52.4678 29.3229 52.8246C28.9804 53.0954 28.6363 53.3631 28.2603 53.5893C27.5546 54.013 26.8393 54.4224 26.1193 54.8223C26.1623 54.9003 26.1926 54.988 26.2053 55.0899C26.3694 56.3898 25.4916 57.4986 25.7943 58.7905C25.8134 58.7809 25.831 58.7698 25.8517 58.7602C25.8756 58.7475 25.8995 58.7762 25.8803 58.7969C25.8548 58.8256 25.8325 58.8526 25.8087 58.8813C25.8405 59.0613 25.7975 59.2716 25.6557 59.3927C25.5649 59.4707 25.4805 59.5504 25.3977 59.6332C25.1762 60.2863 25.1523 61.0112 24.7875 61.6388C24.3287 62.429 23.9289 63.243 23.5466 64.073L23.5258 64.1192C23.5864 64.621 23.6103 65.0989 23.5705 65.5895C23.709 65.8763 23.6979 66.2443 23.4239 66.5899L23.4032 66.6138C23.3602 66.805 23.314 67.0009 23.2598 67.2001C23.9161 68.6848 24.1328 70.2603 24.171 71.9043C24.8672 72.7406 25.2081 74.1743 25.6079 75.0377C26.269 76.4651 26.3582 78.031 26.8107 79.5221C26.9636 79.6065 27.0815 79.7435 27.1325 79.9267C27.3284 80.6356 27.7139 81.2537 28.0564 81.8973C28.0994 81.9053 28.1408 81.9164 28.1807 81.9323C28.195 81.8256 28.3304 81.7651 28.434 81.8447C29.4662 82.6508 29.7052 83.9332 30.395 84.9623C30.6005 85.1837 30.7996 85.4147 30.9939 85.652C31.0226 85.6775 31.0481 85.7046 31.0784 85.7285ZM15.8985 58.8638L15.8873 58.8606L15.8985 58.8638ZM72.0955 60.5619C71.6335 60.8837 71.9155 61.7153 71.9235 62.3063C71.9267 62.5198 71.7212 62.5612 71.5826 62.4959C71.5268 62.5309 71.4519 62.5373 71.385 62.5198C71.6176 62.7492 71.6861 63.0662 71.5842 63.4724C71.6957 63.9646 71.8263 64.4473 71.9665 64.9332C72.0382 65.1801 71.8374 65.4685 71.5714 65.4525C71.4551 65.4462 71.3102 65.4557 71.162 65.4669C71.1668 65.4892 71.1732 65.5099 71.1779 65.5322C71.2544 65.8603 71.0282 66.1375 70.7 66.1598C70.5232 66.171 70.3687 66.1789 70.2173 66.1773C70.1441 66.4083 69.9497 66.5597 69.706 66.566C68.9875 66.5852 68.6355 67.0933 68.0556 67.1587C68.019 67.525 67.917 67.8325 67.7784 68.2355C67.745 68.3327 67.6653 68.4442 67.5538 68.4602C66.9453 68.6529 66.5837 69.0384 66.4642 69.6183C66.3606 69.8939 65.9321 70.0309 65.776 69.7123C65.7409 69.7362 65.6995 69.7648 65.647 69.8015C65.5163 69.8604 65.3809 69.9082 65.2423 69.9433C65.005 70.0213 64.7166 69.9879 64.4745 69.9751C63.9297 69.9464 63.4135 69.7441 62.8862 69.6374C63.1953 69.7776 63.4581 69.964 63.6302 70.2571C63.9313 70.4148 64.2435 70.547 64.5095 70.6665C64.7198 70.7621 64.8281 71.0663 64.758 71.2782C64.2499 72.8314 66.5167 73.5913 67.3563 74.7478C67.3897 74.7494 67.4264 74.759 67.4614 74.7829C68.4714 75.4567 69.4176 76.2166 70.4579 76.8395L70.4435 76.8649C69.5307 76.2707 68.5479 75.812 67.565 75.3516C67.4742 75.5316 67.1763 75.5252 67.0998 75.3022C66.7191 74.2014 65.2216 73.6948 64.5271 72.7788C64.1129 72.2324 63.627 71.9983 63.627 71.4391C63.0758 71.1603 62.5358 70.8226 62.1264 70.3766C61.7026 70.2396 61.1658 70.1249 60.9412 70.0707C59.8786 69.819 58.8702 69.4892 57.7711 69.3841C57.3378 69.3427 56.9092 69.3252 56.4871 69.2694C56.358 69.5562 56.0809 69.768 55.732 69.6517C55.0677 69.4303 54.6057 70.5422 54.3142 71.0138C54.0657 71.4168 53.4396 71.9313 53.5432 72.4204C53.6531 72.9413 53.1816 73.5132 52.667 73.4049C52.5905 73.526 52.5109 73.6391 52.4328 73.7458C52.307 73.9163 52.1795 74.0867 52.033 74.2317C51.99 74.4627 51.9167 74.7016 51.8195 74.9422C51.7367 75.3898 51.6554 75.8374 51.5391 76.2739C51.4786 76.5846 51.2572 76.72 51.0198 76.7247C50.9577 76.8633 50.8908 76.9924 50.8143 77.1119C50.5961 77.9004 50.303 78.6523 49.559 78.7925C49.2818 79.1477 48.9648 79.4679 48.5984 79.691C48.5921 79.7786 48.5857 79.8662 48.5777 79.9602C48.5538 80.2294 48.3786 80.4588 48.1492 80.548C48.1556 80.5639 48.1619 80.5799 48.1651 80.5958C48.2766 81.1486 48.146 81.8113 47.6888 82.1936C47.4515 82.3927 47.1838 82.5122 46.9162 82.5218C46.9082 82.6237 46.8764 82.7225 46.8142 82.8101C46.6996 82.971 46.5912 83.1144 46.4733 83.2434C46.4224 83.3278 46.3539 83.3963 46.2694 83.4441C46.1627 83.5365 46.0448 83.6178 45.9078 83.6942C45.8298 84.1004 45.4315 84.3219 45.0603 84.2406C44.8485 84.4668 44.627 84.6803 44.3498 84.8285L44.3259 84.838C44.4406 85.1009 44.4757 85.3844 44.4104 85.6648C44.4916 85.8193 44.4948 85.9977 44.4167 86.1602H37.7643C37.8407 85.9802 37.9762 85.8225 38.1386 85.7046C38.333 85.5644 38.5162 85.4497 38.7089 85.3733C38.7711 84.4844 38.6643 83.5429 38.8332 82.6811L38.7886 82.6572C38.5321 82.5393 38.3903 82.2223 38.3856 81.9562C38.368 80.9956 38.333 80.0574 38.1562 79.1111C38.102 78.8244 38.1307 78.4659 38.3792 78.2652C38.4381 78.2174 38.4907 78.1664 38.5465 78.1171C38.5385 78.0406 38.5401 77.9609 38.5608 77.8829C38.6229 77.6455 38.6659 77.3986 38.6978 77.1453C38.4286 76.7009 38.2199 76.223 38.1004 75.7323C38.0383 75.4774 38.1817 75.2082 38.4222 75.1254C38.4206 75.1031 38.419 75.0823 38.4174 75.06C38.3107 74.974 38.2231 74.8498 38.204 74.7351C38.1434 74.383 38.0335 74.0692 37.9077 73.7346C37.7643 73.3555 38.0001 73.0449 38.3139 72.919C38.2071 72.4857 38.0893 72.062 37.965 71.651C37.3103 70.9054 36.8005 70.0341 36.6603 69.1531C36.0263 68.9827 35.5579 68.6163 35.2728 68.0571C35.1868 67.9902 35.1007 67.9217 35.0115 67.8532C34.8299 67.713 34.6579 67.5919 34.4811 67.4836C34.137 67.3689 33.7913 67.2542 33.4472 67.1395C33.4185 67.13 33.4313 67.0838 33.4599 67.0933C33.7196 67.1794 33.9793 67.267 34.2389 67.353C34.0653 67.267 33.8821 67.1937 33.6718 67.1459C33.3134 67.0647 33.0505 66.9627 32.7558 66.7429C32.716 66.7126 32.7495 66.6521 32.7956 66.6744C33.5922 67.0487 34.497 66.6616 35.2585 67.0392C35.9116 67.3626 36.4835 67.7608 37.0203 68.2212C37.0968 68.2292 37.1733 68.2419 37.2481 68.2626C37.3023 68.2785 37.3549 68.3024 37.4043 68.3343C37.425 68.2674 37.4616 68.2053 37.503 68.1431C37.5062 68.0699 37.503 67.9966 37.4807 67.9169C37.3358 67.3896 37.6894 67.0726 38.0176 66.7222C38.4063 66.3096 38.8746 65.9161 39.2585 65.4764C39.2713 65.435 39.2824 65.3936 39.2968 65.3522C39.3366 65.2406 39.4003 65.1483 39.4768 65.0734C39.9595 64.0777 40.6684 63.1857 40.8484 62.0482C40.9248 61.5687 41.4282 61.3935 41.8488 61.4732C42.0208 61.274 42.1722 61.0701 42.2948 60.8344C42.2614 60.7388 42.2327 60.64 42.2072 60.5412C41.8122 59.5583 41.8026 58.3222 41.5859 57.2469C41.218 56.9968 40.9487 56.6304 40.7576 56.2178C40.6875 56.1891 40.6158 56.1604 40.5425 56.1381C40.2988 56.0633 40.0821 55.982 39.8926 55.8546C39.8113 55.9215 39.6648 55.9087 39.6186 55.8084C39.5787 55.7223 39.5899 55.6586 39.566 55.5806L39.5548 55.579C39.2203 55.5328 38.881 55.2094 38.5719 55.0883C37.9093 54.8302 37.4505 54.2807 37.1191 53.6769C37.0984 53.6403 37.1494 53.6132 37.1733 53.645C37.4983 54.0927 38.5576 55.2651 39.2283 54.8669C39.5118 54.6996 39.8989 54.7203 40.2255 54.6295C40.0614 54.2456 39.9611 53.8298 39.891 53.4013C39.8464 53.3025 39.8002 53.2054 39.754 53.105C39.601 52.78 39.4863 52.4391 39.4067 52.0887L39.3669 52.0552C39.0307 51.6617 38.9463 51.3144 38.9081 50.8987C38.6851 50.7664 38.5528 50.4749 38.6261 50.2216C38.7408 49.8218 38.6851 49.4172 38.7089 49.0109C38.6341 48.9313 38.6006 48.823 38.6022 48.7099C37.1589 47.9627 35.7746 46.7265 35.0402 45.2849C35.002 45.2132 35.1055 45.1526 35.1485 45.2211C35.7396 46.1546 36.6906 46.8078 37.6082 47.4004C37.6958 47.4577 37.8137 47.5374 37.9443 47.625C38.2518 47.5549 38.6277 47.5438 38.8874 47.6569C39.0052 47.6473 39.1199 47.6505 39.2331 47.6648C39.3318 47.4944 39.4672 47.3446 39.6456 47.2188C39.7715 47.1296 39.9069 47.12 40.0264 47.1598C40.1251 47.0611 40.2303 46.9687 40.3514 46.889L40.3721 46.8811C41.0188 45.2721 41.6306 43.6568 41.1686 41.7898C41.1447 41.691 41.2944 41.6496 41.3215 41.7483C41.6369 42.8858 41.6624 44.0343 41.3884 45.1877C41.0714 46.5163 40.2606 47.8847 40.2 49.2547C40.1713 49.8935 40.0805 50.5594 40.1379 51.2061C40.3115 51.7159 40.4453 52.2719 40.6094 52.8055C40.6572 52.8453 40.6875 52.9043 40.6763 52.9855V53.0174C40.6891 53.0556 40.7018 53.0923 40.7146 53.1289C40.7321 53.1512 40.7528 53.1735 40.7799 53.2006C40.7974 53.2197 40.8181 53.2388 40.8372 53.2563C40.8452 53.2579 40.8595 53.2611 40.8818 53.2707C40.9965 53.3025 41.0969 53.3838 41.1718 53.4746C41.2992 53.6291 41.3486 53.8251 41.2403 54.0082C41.2196 54.0417 41.1925 54.0752 41.1606 54.1038C41.2036 54.1723 41.2514 54.2376 41.3008 54.303C41.3358 54.3173 41.3725 54.3332 41.4043 54.3539C41.7421 54.1771 42.1913 54.2472 42.2614 54.7203C42.2662 54.8271 42.2853 54.929 42.3155 55.0294C42.7632 54.784 43.3717 55.1441 43.4354 55.708C43.445 55.7908 43.4609 55.8721 43.4769 55.9549C43.5438 55.9358 43.6075 55.9167 43.6792 55.9024C43.9914 55.8418 44.2909 55.9294 44.498 56.1206L44.5314 56.084C44.9823 55.563 45.1623 54.9545 45.312 54.2998C45.3757 54.021 45.6721 53.7916 45.9588 53.8059C46.091 53.8123 46.2216 53.8027 46.3507 53.782C46.3746 53.6705 46.3937 53.5606 46.4032 53.4507C46.424 53.1958 46.5641 52.9537 46.8302 52.8899C46.9544 52.8597 47.0755 52.8214 47.1966 52.7848C47.2237 52.7593 47.2539 52.7354 47.2874 52.7131C47.743 52.42 47.974 51.6617 48.0552 50.9449C47.5789 50.2599 47.187 49.5207 46.5466 48.9695C46.5195 48.9472 46.5418 48.9026 46.5737 48.9026L46.6024 48.9042C46.3953 48.7736 46.2328 48.5936 46.1516 48.3498C45.2483 48.6796 44.67 48.2208 44.0981 47.5231C44.0822 47.5039 44.1045 47.4689 44.1268 47.4864C44.6684 47.9022 45.2834 48.2208 45.9524 47.9771C45.9875 47.9356 46.0384 47.9086 46.1085 47.9102C46.1723 47.9086 46.2392 47.8767 46.2997 47.8608C46.4271 47.8257 46.5323 47.8863 46.6056 47.985C46.6183 48.001 46.6342 48.0121 46.647 48.0265C46.0942 45.8137 46.3905 43.4704 44.6987 41.5938C44.6637 41.5556 44.7099 41.4855 44.7561 41.519C46.6056 42.8666 46.7107 45.0236 47.2396 47.0897C47.3384 47.4737 47.3989 48.0551 47.6633 48.3865C47.7016 48.4167 47.7334 48.4486 47.7573 48.4836C47.8194 48.5362 47.8864 48.5824 47.9676 48.6095C48.1428 48.6668 48.3802 48.7226 48.6239 48.7895C48.8167 48.7338 49.0333 48.7529 49.2404 48.8692C49.2914 48.8389 49.344 48.8134 49.4013 48.7943C49.5941 48.7051 49.8219 48.6589 50.0322 48.7162C50.1166 48.7401 50.1835 48.7752 50.2361 48.8182C50.62 47.9293 51.3305 47.2857 51.9963 46.6166C52.0298 46.5418 52.0601 46.4669 52.0903 46.3904C52.0808 46.1515 52.0792 45.9109 52.1286 45.7325C52.1541 45.6401 52.1987 45.5668 52.248 45.4983C52.2002 45.1399 52.2496 44.8133 52.4281 44.4485C52.3755 43.8575 52.4408 43.2044 52.761 42.7169C52.4902 42.3362 52.1971 41.9905 52.0043 41.5604C51.5933 40.6444 52.1811 39.5325 51.0804 38.9C50.6805 38.6706 50.577 38.2533 50.6439 37.8279C50.6088 37.7515 50.5738 37.6766 50.5387 37.6001C50.2695 37.3516 50.2169 37.0298 50.2982 36.7319C50.1962 36.5694 50.1118 36.4053 50.0545 36.2365C49.4618 35.9402 49.097 35.4225 49.1337 34.7231C49.0891 34.6275 49.0604 34.524 49.0461 34.4125C49.0301 34.4045 49.0142 34.3934 48.9983 34.3854C48.5124 34.2341 48.1651 33.6781 48.3292 33.1874C47.9899 33.0727 47.7573 32.7048 47.7398 32.3447C47.6538 32.2412 47.5932 32.1201 47.5598 31.9911C47.4276 31.9067 47.3192 31.776 47.2603 31.5896C47.2476 31.545 47.2348 31.5052 47.2221 31.4622C46.2917 30.8648 45.2722 30.422 44.2192 29.96C43.9054 29.823 42.4398 29.3291 42.8221 28.9404C42.6517 29.1157 42.0575 29.1109 41.8345 29.1539C41.1957 29.275 40.6397 29.4088 40.0312 29.6732C40.0136 29.6812 39.9977 29.6557 40.0152 29.6462C40.4326 29.4215 42.1324 28.5342 42.5019 28.9118C42.3299 28.7349 42.5019 28.4339 42.7425 28.4992C43.9245 28.8178 45.2387 29.4725 46.3586 30.0619C46.2662 29.8755 46.193 29.6716 46.1101 29.5123C46.048 29.3945 46.1245 29.2941 46.22 29.2734L46.2009 29.2495C45.6259 28.5995 45.5701 27.7106 44.7401 27.2726C44.3721 27.0782 44.3323 26.6401 44.4852 26.3008C44.5012 26.2594 44.5219 26.2196 44.5394 26.1797C44.455 26.0778 44.3881 25.9567 44.3275 25.8117C43.7764 25.5648 43.4036 25.1666 43.3367 24.6361C43.2793 24.5564 43.2236 24.4768 43.1694 24.4003C42.6437 23.6659 42.3299 22.9252 42.2534 22.065C41.5923 21.7209 41.441 21.0582 40.9583 20.6695C40.1618 20.0291 39.3637 19.3664 38.7743 18.5237L38.7711 18.5141C38.5863 18.3739 38.4238 18.2035 38.2868 18.0171C37.8025 17.8387 37.5094 17.3225 37.1573 16.9466C36.7129 16.4734 36.2414 16.0258 35.816 15.5352C35.5739 15.2564 35.3684 14.4121 34.9367 14.385C34.0239 14.3276 33.2305 14.0266 32.3098 14.2607C32.2301 14.2814 32.1983 14.162 32.2763 14.1397C33.2943 13.8593 34.2628 14.1779 35.2919 14.2241C35.3238 14.2257 35.3556 14.2416 35.3716 14.2703C35.6344 14.7785 36.4771 15.2548 37.2704 15.7661C37.7006 14.6813 36.7097 13.2826 36.9423 12.1181C36.9964 11.8521 36.5902 11.1496 36.5154 10.8931C36.3019 10.1683 35.9833 9.60911 35.5866 8.9735C35.5038 8.83809 35.182 8.06069 35.1007 8.03999C34.6913 7.93485 34.3823 7.73253 34.043 7.48083C33.2098 6.86274 32.6093 5.97861 31.8143 5.33503C31.792 5.31592 31.8207 5.28724 31.8462 5.30795C32.8721 5.80179 34.1672 7.61146 35.327 7.45216C35.4751 7.43145 35.5914 7.4665 35.6774 7.59394C36.1729 8.32514 36.7782 9.04837 37.1319 9.85763C37.4027 10.4757 37.562 11.0651 37.9077 11.6561C38.0654 11.9238 37.8933 12.3778 37.9252 12.6327C37.9857 13.1233 38.1147 13.5805 38.2358 14.0568C38.3744 14.6001 38.4158 15.0971 38.4174 15.6371C38.5226 15.7614 38.6213 15.9016 38.8221 16.0083C39.0371 16.1214 39.1837 16.4368 39.0929 16.6726C38.8221 17.3735 39.6026 17.8355 40.1411 17.767C40.4676 17.7256 40.7289 18.0697 40.7353 18.3612C40.7369 18.4201 40.7385 18.4807 40.7401 18.5396C41.347 18.8327 41.9141 19.2469 42.4207 19.6722C42.5434 19.7758 42.6644 19.9861 42.7855 20.2314C42.8827 20.225 42.9814 20.2139 43.0754 20.2011C43.0945 20.1661 43.1184 20.1342 43.1519 20.1071C43.2459 20.0323 43.3399 19.9733 43.4338 19.9207C43.9245 19.4683 44.3467 18.8917 44.5474 18.2417C44.1698 17.9884 44.0711 17.6411 44.0424 17.1696C43.9978 16.4241 44.1141 16.0147 43.4562 15.5081C43.0165 15.1704 42.8094 14.8183 42.9352 14.2623C42.948 14.2034 43.0372 14.2289 43.026 14.2878C42.8094 15.4141 43.9659 15.4061 44.5091 16.0115C44.8102 16.3476 44.9855 16.7506 45.0444 17.1744C45.1368 17.1441 45.2387 17.1361 45.3503 17.1648C45.3789 17.1728 45.4044 17.1807 45.4299 17.1871L45.4315 17.1855C45.5414 16.5244 45.4904 15.8968 45.5398 15.1895C45.5542 14.9712 45.5143 14.5969 45.7023 14.4121C45.6482 14.4646 46.4813 13.8736 46.416 13.9565C46.5976 13.7271 46.682 13.5757 46.9433 13.4579C47.015 13.4276 47.1185 13.4993 47.0628 13.5773C46.7171 14.06 46.4925 14.1922 46.4622 14.7275C46.3985 15.8697 46.5849 17.0071 46.3347 18.1334C46.2647 18.4504 45.8648 18.632 45.5765 18.4918C45.5478 18.5476 45.5191 18.6033 45.4904 18.6607C45.4586 18.7355 45.4235 18.8104 45.3869 18.8853C45.2228 19.2612 45.1209 19.6499 45.2403 20.08C45.3391 20.4369 45.0444 20.7109 44.7131 20.6966L44.7067 20.7332C44.7863 20.8845 44.7847 21.0741 44.6844 21.2175C44.6031 21.5918 44.4502 22.0442 44.2415 22.3246C44.2288 22.3421 44.2128 22.3565 44.1953 22.3708C44.1826 22.7866 44.1651 23.2629 44.5155 23.5576C44.6493 23.6707 44.7099 23.8714 44.6987 24.0515C44.8023 24.1789 44.9074 24.3063 45.0141 24.437C45.1336 24.5835 45.2403 24.7189 45.3295 24.8559C45.543 25.1044 45.7103 25.3211 45.6338 25.2908C46.056 25.4597 46.2981 25.8978 46.056 26.3279C46.0353 26.3629 46.0177 26.398 45.9986 26.4314C46.647 27.0416 46.8461 27.905 47.5375 28.5677C47.8497 28.8688 48.0441 29.1682 48.1827 29.4821C48.2639 29.5299 48.3435 29.5808 48.4152 29.6382C48.7848 29.9297 48.9808 30.234 49.2388 30.5828C49.3089 30.629 49.379 30.68 49.4459 30.7374C49.602 30.8728 49.6881 31.0687 49.7104 31.2742C49.833 31.5164 49.935 31.7681 50.0672 32.0054C50.1532 32.1058 50.2233 32.2157 50.2775 32.332C50.5626 32.7398 50.8972 33.068 51.262 33.428C52.2783 34.4316 52.8359 35.9418 53.2309 37.3229C53.7885 37.5237 54.0832 37.9729 54.2345 38.5129C54.7045 38.0685 55.2732 37.6686 55.7463 37.6686C56.0251 37.6686 56.0187 37.9474 56.1987 37.5953C56.2895 37.4137 56.3596 37.1796 56.5046 37.033C56.8184 36.7192 57.2692 36.4531 57.6627 36.2349C57.6771 36.1855 57.6898 36.1377 57.6994 36.0867C57.7312 35.9147 57.9208 35.714 58.0976 35.6885C58.4178 35.6439 58.6886 35.4384 58.9196 35.1548C59.1825 34.6992 59.3991 34.2133 59.6046 33.7753C59.6922 33.5873 59.7751 33.3675 59.8595 33.1381C59.8882 33.0488 59.9153 32.9644 59.9392 32.8895C60.0905 32.4212 60.21 31.9529 60.3183 31.4829C60.3135 31.2535 60.3119 31.013 60.3199 30.7676C60.0937 30.2802 59.8834 29.7847 59.6429 29.3037C59.4278 28.8735 59.1793 28.4689 58.9817 28.0372C58.8256 28.0229 58.6982 27.9591 58.6042 27.8174C58.5086 27.674 58.1725 27.6342 58.0227 27.4669C57.9989 27.4398 57.9877 27.4032 57.9829 27.3649C56.2322 26.7692 54.4974 26.1654 52.7021 25.6636C52.6527 25.6493 52.6734 25.5744 52.7228 25.5871C54.5404 26.0284 56.6097 26.347 58.3748 27.1324C58.4943 27.1164 58.6106 27.1148 58.7332 27.1196C58.7492 27.0846 58.7619 27.0479 58.7794 27.0113C58.8527 26.8584 58.9961 26.7931 59.1442 26.7915C59.3051 26.6242 59.4931 26.4729 59.646 26.3215C60.0077 25.9599 60.2466 25.4469 60.3024 24.934C60.3056 24.9037 60.3502 24.9021 60.3502 24.934C60.3581 25.4756 60.0953 25.9519 60.0252 26.4792C59.9726 26.8631 59.9535 27.2917 59.7623 27.631C59.9678 28.2379 60.2498 28.8242 60.5174 29.4024C60.578 29.2129 60.6512 29.0297 60.7484 28.8624C60.9746 28.4769 61.2215 28.3494 61.3155 27.8572C61.3283 27.7855 61.3888 27.7186 61.4493 27.6835C62.026 27.3442 61.7154 27.5306 61.6899 26.9125C61.6692 26.4107 62.1694 25.987 62.5103 25.713C63.2463 25.1204 62.8703 23.9654 63.0344 23.1514C62.4243 22.2689 62.8878 20.7635 63.1125 19.8045C63.3578 18.7578 63.7114 17.391 64.7772 16.894C64.852 16.8574 64.9683 16.9386 64.9062 17.023C64.0826 18.127 63.5378 19.0701 63.6095 20.5086C63.6366 21.0566 63.8405 21.7145 63.8357 22.3135C63.8675 22.3039 63.8978 22.2959 63.9313 22.2896C65.5641 21.9646 67.197 21.7623 68.8394 21.5058C68.9477 21.4883 68.9955 21.6412 68.8856 21.6731C67.4343 22.0936 65.1069 21.8101 64.0762 23.0956C63.5983 23.693 64.355 24.9085 63.9392 25.619C63.4565 26.4394 62.1981 25.979 62.4322 27.5147C62.4514 27.6421 62.4195 27.7489 62.308 27.8205C61.8572 28.1105 61.5688 28.9994 61.6309 29.5315C61.6899 30.0428 61.4159 30.5398 61.1467 31.0034C61.118 31.1691 61.0782 31.3379 61.0336 31.5052L61.0352 31.51C61.0877 32.1345 60.6943 32.6697 60.5588 33.2703C60.4473 33.7609 60.3103 34.2341 60.0793 34.6833C59.9758 34.8856 59.8691 35.0592 59.7623 35.2201C59.5903 35.6439 59.388 36.039 59.1347 36.3337C59.0072 36.4834 58.8782 36.6029 58.7062 36.6905C58.7269 36.708 58.7285 36.7494 58.6918 36.8339C58.4369 37.4105 58.0387 37.9012 57.5767 38.3313C56.9315 38.9319 56.3182 39.1422 56.0617 40.0024C56.1063 40.1681 56.1032 40.356 56.0203 40.5488C55.9486 40.7145 55.8754 40.8738 55.7973 41.0283C55.6746 41.3358 55.5966 41.6448 55.5759 42.0112C55.5631 42.2326 55.4723 42.411 55.3385 42.5417C55.4261 42.7249 55.45 42.9447 55.3688 43.19C55.2796 43.4593 55.1728 43.7125 55.1027 43.9881C55.0677 44.1267 54.9992 44.2414 54.91 44.3386C54.9562 44.4979 54.9801 44.6572 54.9801 44.8181C55.0581 45.2641 55.1203 45.7086 55.1473 46.1642C55.1665 46.4876 54.9562 46.8173 54.6838 46.9735C54.1804 47.2634 54.0115 48.6589 53.7758 49.1909C53.6658 49.4426 53.4763 49.5828 53.2644 49.6418C53.2724 49.6832 53.2787 49.7262 53.2787 49.7692C53.2835 50.1611 53.1656 50.5609 52.8422 50.784C52.7403 50.9433 52.6367 51.101 52.538 51.2603C52.7275 51.2667 52.9107 51.3622 53.0079 51.5359C53.4763 52.3786 53.9924 52.9377 54.8718 53.3567C55.0534 53.4427 55.1696 53.6753 55.1665 53.8697C55.1617 54.1293 55.1394 54.3523 55.09 54.577C55.1824 54.6789 55.2748 54.7825 55.3656 54.8876C55.6093 55.1122 55.8116 55.3607 55.9725 55.6299C56.3549 56.1238 57.2231 57.4109 57.6914 58.6424C57.7742 58.6041 57.8698 58.5452 57.975 58.4703L57.9845 58.4384C58.0132 58.0497 58.3461 57.7327 58.7476 57.8251C59.0184 57.5766 59.2844 57.3265 59.4947 57.1369C59.1809 56.7546 59.2621 56.0425 59.3083 55.5933C59.3704 54.98 59.5059 54.5865 59.9392 54.1564L59.9726 54.1325C59.9822 53.5335 60.3231 53.1735 60.8328 52.7944C62.2474 51.743 63.1714 49.9206 62.3606 48.2096C62.3462 48.1794 62.3844 48.1427 62.4099 48.1714C63.1953 49.0237 63.0471 50.0639 62.5963 51.0771C62.3207 51.6984 62.0324 52.3467 61.5115 52.8071C60.9698 53.2866 60.6672 53.6896 60.476 54.4065C60.4489 54.5069 60.3836 54.561 60.3103 54.5786C60.2147 54.9019 60.2482 55.4356 60.2721 55.7287C60.2753 55.7654 60.2833 55.8036 60.2912 55.8402C60.484 55.7988 60.7054 55.8514 60.8472 55.9804C61.2661 55.4993 61.8396 55.125 62.4577 55.0214C62.48 54.9115 62.5055 54.8016 62.539 54.6932C62.5724 54.5626 62.6935 54.4925 62.8162 54.4862C63.1714 54.0274 63.8596 53.7072 64.3311 53.5909C65.4701 53.3105 66.5183 54.5467 67.6733 54.4463C67.7975 54.4352 67.823 54.6375 67.702 54.663C66.7286 54.8621 66.1742 54.3587 65.2535 54.2281C64.3518 54.1006 63.8978 54.8414 63.259 55.289C63.2574 55.3273 63.2526 55.3703 63.2463 55.4181C63.2176 55.6475 63.0742 55.845 62.8209 55.8434C62.2936 55.8402 61.6453 56.2576 61.5911 56.8199C61.5577 57.1736 61.2566 57.4603 60.9189 57.4189C60.9173 57.4444 60.9141 57.4699 60.9125 57.4954C61.0575 58.08 60.5764 58.3859 60.1415 58.354C60.0093 58.5468 59.8914 58.7427 59.8404 58.9498C59.7528 59.3066 59.2988 59.5759 58.9419 59.45C58.961 59.5806 58.9403 59.7192 58.8607 59.8451C58.7476 60.0219 58.6361 60.1987 58.523 60.3756C58.4529 60.4871 58.3652 60.5604 58.2697 60.6097C58.2235 61.1928 57.7918 61.6882 57.4843 62.3398C57.4062 62.507 57.2294 62.6201 57.0399 62.6615C57 62.84 56.9602 63.0184 56.922 63.1968C56.9188 63.3975 56.879 63.5855 56.8025 63.7719C56.7579 63.9965 56.7181 64.2195 56.6862 64.4394C56.683 64.468 56.6735 64.4951 56.6655 64.5222C56.7611 64.613 56.8184 64.7404 56.7993 64.9045C56.7929 64.9539 56.7834 65.0017 56.7754 65.0511H56.7802C56.7754 65.0782 56.7675 65.1052 56.7627 65.1323C56.7228 65.3665 56.6687 65.5943 56.6065 65.8221C56.5301 66.1264 56.4457 66.429 56.3533 66.7317C56.2736 67.0376 56.2131 67.3482 56.186 67.6668L56.2035 67.6684C56.2784 67.6828 56.3883 67.6987 56.5078 67.7226C57.2055 67.5601 57.9319 67.6477 58.6233 67.8898C58.6297 67.8707 58.6329 67.85 58.6392 67.8309C58.7014 67.6047 59.0072 67.5712 59.1267 67.7672C59.3529 68.14 59.7193 68.2196 60.108 68.2547C60.3565 68.1782 60.5764 68.0476 60.8599 68.0364C61.333 68.0173 61.8078 68.0651 62.2809 68.0826C63.3514 68.124 64.5255 68.2292 65.5848 68.0412C65.6884 68.0237 65.8875 67.9982 66.0803 67.9488C65.8333 67.5075 66.0595 67.0487 66.1456 66.5756C66.2635 65.9193 66.2587 65.3936 66.0277 64.7404C66.0149 64.707 66.0707 64.6831 66.085 64.7165C66.2842 65.1674 66.9293 66.0404 67.1683 66.8162C67.2304 66.8066 67.291 66.797 67.3531 66.7859C67.369 66.711 67.3881 66.6457 67.4136 66.6043C67.6781 66.1535 68.2611 65.9113 68.6992 65.6787C69.1436 65.443 69.3093 65.6851 69.424 65.4254C69.5164 65.2183 69.7665 65.1769 69.9609 65.2072C70.0198 65.2104 70.0788 65.2072 70.1377 65.2072L70.1313 65.1658C70.0803 64.7962 70.3273 64.5349 70.7032 64.5939C70.8115 64.6114 70.9374 64.6162 71.068 64.6194C70.8976 63.7894 70.7606 62.9515 70.9708 62.1199C70.9979 62.0084 71.0951 61.9574 71.2002 61.9447C71.248 61.9399 71.2974 61.9335 71.3468 61.9272L71.3675 61.9304C71.3914 61.8969 71.4233 61.8603 71.4663 61.8141C71.4583 61.3776 71.4344 60.9475 71.3691 60.5014C71.3516 60.3835 71.3962 60.28 71.5156 60.2417C71.6638 60.1812 71.8135 60.1207 71.9617 60.0601C71.9649 58.8112 74.2079 59.6316 74.2636 58.0832C74.2652 58.0545 74.2907 58.0322 74.3194 58.0402C74.7686 58.0083 75.2178 57.9765 75.6671 57.9446C75.6846 57.9351 75.7005 57.9621 75.683 57.9717C75.3994 58.1374 75.0713 58.3285 74.7208 58.2361C74.2349 58.1071 74.3688 58.6153 74.2031 58.8255C73.7538 59.3958 72.2946 59.3098 72.6292 60.2322L72.6244 60.2306C72.7168 60.5317 72.2994 60.7467 72.0955 60.5619ZM38.0271 69.1053C38.0144 69.091 38.0048 69.0751 38.0001 69.0543L37.9698 69.0416C37.9825 69.0655 37.9953 69.0878 38.008 69.1101L38.0271 69.1053ZM42.3012 78.3544C42.2869 78.3226 42.2741 78.2907 42.2598 78.2588L42.2582 78.2652C42.2694 78.2939 42.2821 78.3242 42.2932 78.3544L42.2996 78.3608L42.3012 78.3544ZM50.4416 49.6736L50.4686 49.6609L50.4814 49.629L50.4495 49.6211C50.4479 49.6386 50.4431 49.6561 50.4416 49.6736ZM42.6995 74.614L42.6851 74.6283L42.6899 74.6315L42.6995 74.614ZM56.3533 59.998C56.2035 59.3704 56.0426 58.7379 55.4898 58.4926C55.313 58.4145 55.1585 58.1501 55.1824 57.9574C55.262 57.2915 55.1999 56.7116 54.9179 56.2257C54.816 56.0887 54.7125 55.9533 54.6073 55.8211C54.4576 55.6682 54.2791 55.5264 54.0641 55.399C53.8936 55.2986 53.7566 55.0804 53.7614 54.8701C52.9984 54.1166 52.1302 53.5335 51.0931 53.2086C51.0119 53.2994 50.9195 53.3822 50.8159 53.4523C50.7586 53.6052 50.6773 53.7502 50.5594 53.8824C50.4575 53.9971 50.3364 54.0672 50.2074 54.107C50.2106 54.4017 49.9748 54.6024 49.7008 54.6502C49.6817 54.6741 49.6626 54.6964 49.6419 54.7187C49.516 55.203 49.3934 55.6905 49.0859 56.0903C48.8788 56.3596 48.6 56.4631 48.3436 56.4392C48.342 56.5459 48.3037 56.6479 48.2416 56.7371C48.2814 56.9936 48.2448 57.25 48.0584 57.4922C47.7812 57.8538 47.4881 57.9191 47.2746 58.3461C47.007 58.8781 46.6008 59.4771 46.1149 59.9932C46.2742 60.3915 45.8505 60.9538 45.3933 60.785C45.3678 60.7754 45.3455 60.7643 45.32 60.7547C45.3168 60.7834 45.3168 60.8105 45.3104 60.8407C45.2069 61.3139 45.0412 61.736 44.7927 62.1231C44.5107 62.6281 44.1826 63.1076 43.942 63.6285C43.9133 63.7894 43.8815 63.9519 43.8496 64.1128C43.8162 64.2848 43.7349 64.4139 43.6298 64.5047C43.5533 64.6703 43.4402 64.7835 43.308 64.852C43.3032 64.887 43.3 64.9221 43.2969 64.9571C43.2825 65.153 43.2698 65.349 43.2634 65.5449C43.2602 65.6341 43.2427 65.7122 43.2188 65.7855C43.2299 65.846 43.2379 65.9081 43.2363 65.975C43.214 66.6553 42.9097 67.3116 42.7712 67.9743C42.7536 68.0571 42.7106 68.2403 42.6596 68.4713C42.6851 68.5621 42.7186 68.6465 42.7648 68.723L42.7696 68.7357C42.7855 68.7612 42.8014 68.7883 42.8158 68.8186C43.2379 69.7155 43.3 70.4323 42.9671 71.3849C42.9066 71.5602 42.7903 71.7179 42.6437 71.8358C42.6103 71.9871 42.5545 72.1353 42.4749 72.2834C42.5577 72.7693 42.6373 73.2567 42.7122 73.7458C42.8444 73.894 42.9129 74.1058 42.8604 74.3432C42.8269 74.4961 42.8014 74.657 42.7823 74.8211L42.811 74.7781C42.8636 74.7032 42.9719 74.7669 42.9336 74.8498C42.7664 75.2114 42.7457 75.6558 42.8174 76.0493C43.1662 76.1927 43.3797 76.4189 43.4864 76.704C43.59 76.4985 43.9181 76.4173 44.1093 76.5925C44.2128 76.5782 44.3196 76.5925 44.4167 76.6515C44.635 76.7837 44.8485 76.9127 45.0587 77.0497C45.2372 76.943 45.414 76.8379 45.5797 76.7502C45.68 76.6547 45.7995 76.5798 45.9349 76.5288C46.0193 76.3982 46.1324 76.2899 46.2647 76.207C46.2519 76.1258 46.2583 76.0397 46.2949 75.9505C46.4861 75.4902 46.7649 75.1588 47.1567 74.8912C47.3288 74.4324 47.8131 74.1202 48.3117 74.1903C48.1922 73.7235 48.4359 73.2982 48.8087 73.0337C49.4746 72.5622 50.0433 72.1496 50.5387 71.4901C50.8382 71.0918 50.7012 70.6713 50.9418 70.2619C51.2636 69.7123 51.7956 69.4446 52.0712 68.8027C52.2656 68.3502 52.4758 68.0683 52.8486 67.7513C52.8821 67.7226 52.9171 67.7019 52.9522 67.6796C52.9713 67.576 53.0159 67.4741 53.0764 67.3912C53.1338 67.2749 53.2309 67.1857 53.3616 67.1507C53.4348 67.0774 53.5161 67.0137 53.6005 66.9563C53.5145 66.7206 53.5479 66.4402 53.771 66.1965C54.3923 65.5162 54.4369 64.4441 54.7507 63.6126L54.7618 63.5887C54.7873 63.5138 54.8128 63.4405 54.8431 63.3673C54.8574 62.5915 55.2525 61.7408 55.7814 60.9666C55.9295 60.6129 56.1191 60.2848 56.3533 59.998Z" fill="#FFC8AB"/>
</svg>
