<svg width="118" height="110" viewbox="0 0 118 110" fill="none" xmlns="http://www.w3.org/2000/svg">
<path d="M115.963 29.8853L88.3289 2.20734C87.0085 0.883332 85.2483 0.153198 83.3753 0.153198C81.8976 0.153198 80.4615 0.621946 79.2718 1.48277L78.5055 1.91974L42.949 6.8102C42.1347 6.8404 41.3458 6.9695 40.5918 7.18322L39.344 6.01016C39.2928 5.96209 39.2404 5.91482 39.1871 5.86914C37.9183 4.77751 36.298 4.17648 34.624 4.17648C32.7514 4.17648 30.9912 4.90661 29.6688 6.23261L2.03851 33.907C-0.431948 36.383 -0.68817 40.3403 1.44066 43.1131C1.51415 43.208 1.59082 43.301 1.67066 43.3904L13.5268 56.6261C13.9109 58.227 14.4377 59.8768 15.0959 61.5674C12.2203 65.031 12.4014 70.1936 15.6461 73.4395C15.6516 73.445 15.6572 73.4502 15.6628 73.4557L15.7013 73.4939C17.3296 75.1162 19.4803 76.0196 21.772 76.0601C21.7295 76.4148 21.7001 76.7719 21.7001 77.1346C21.7001 79.4875 22.6145 81.6993 24.2754 83.3658L24.3108 83.4015C24.3163 83.4071 24.3215 83.4127 24.3271 83.4182C25.9943 85.0854 28.2109 86.0043 30.5689 86.0043C30.8422 86.0043 31.1124 85.9892 31.3813 85.9646C31.4075 85.9943 31.4357 86.0241 31.4623 86.0543C31.4576 86.1739 31.4449 86.2923 31.4449 86.4122C31.4449 88.7655 32.3597 90.9782 34.021 92.6442L34.0575 92.6815C34.0627 92.6867 34.0675 92.6915 34.0726 92.6966C35.7395 94.3635 37.9561 95.2815 40.3141 95.2815C40.3201 95.2815 40.3256 95.2807 40.3316 95.2807L41.173 96.1221C41.2707 98.3304 42.1665 100.394 43.7395 101.967C43.7495 101.976 43.7598 101.987 43.7697 101.997L43.8003 102.027C45.3702 103.588 47.4264 104.477 49.6251 104.574L51.951 106.9C53.851 108.8 56.383 109.847 59.0803 109.847C62.1844 109.847 65.0691 108.451 66.995 106.018C68.0421 104.695 68.7011 103.177 68.982 101.604L70.4427 103.065C72.3721 104.995 75.0372 106.102 77.7543 106.102C79.998 106.102 82.1923 105.343 83.9334 103.964C85.8676 102.434 87.1646 100.253 87.6 97.8525C89.4655 99.4482 91.8767 100.351 94.3301 100.351C96.5733 100.351 98.7681 99.5916 100.509 98.2136C102.765 96.4279 104.155 93.7573 104.321 90.8868C104.476 88.2193 103.568 85.6062 101.817 83.6228C103.437 83.3372 104.972 82.6567 106.26 81.6378C108.516 79.8522 109.906 77.1815 110.072 74.311C110.239 71.4354 109.171 68.6225 107.142 66.5938L103.395 62.8466C103.532 62.7107 103.663 62.5685 103.783 62.4152C110.8 53.474 114.578 46.8222 115.972 40.937C116.081 40.7447 116.177 40.5445 116.259 40.338L117.033 38.3883C118.631 35.6807 118.23 32.1575 115.963 29.8853ZM21.9305 71.3011C20.8917 71.3011 19.8533 70.9046 19.06 70.1122L19.0171 70.0696C17.4325 68.4846 17.4325 65.9141 19.0171 64.3295L22.1927 61.1539C22.9852 60.361 24.0236 59.9646 25.0627 59.9646C26.1019 59.9646 27.1407 60.361 27.934 61.1539L27.9757 61.1964C29.5615 62.7814 29.5615 65.352 27.9757 66.937L24.801 70.1122C24.0081 70.9043 22.9693 71.3011 21.9305 71.3011ZM33.4398 80.0476C32.6469 80.8405 31.6081 81.237 30.5689 81.237C29.5301 81.237 28.4914 80.8405 27.6981 80.0476L27.656 80.0051C26.0706 78.4197 26.0706 75.8499 27.656 74.2645L35.1686 66.7519C35.9619 65.959 37.0007 65.5625 38.0399 65.5625C39.0791 65.5625 40.1179 65.959 40.9108 66.7519L40.9533 66.794C42.5383 68.3794 42.5383 70.9499 40.9533 72.5345L33.4398 80.0476ZM43.1842 89.3256C42.3921 90.1181 41.3533 90.5142 40.3141 90.5142C39.2749 90.5142 38.2361 90.1181 37.4436 89.3256L37.4007 89.2827C35.8153 87.6977 35.8153 85.1272 37.4007 83.5418L42.2626 78.6791C43.0555 77.8866 44.0939 77.4906 45.1331 77.4906C46.1719 77.4906 47.2107 77.8866 48.004 78.6791L48.0469 78.722C49.6315 80.307 49.6315 82.878 48.0469 84.463L43.1842 89.3256ZM50.0231 99.8264C48.9844 99.8264 47.946 99.4299 47.1531 98.6374L47.1102 98.5953C45.5244 97.0099 45.5244 94.4389 47.1102 92.854L49.3216 90.6425C50.1145 89.85 51.1533 89.4535 52.1925 89.4535C53.2313 89.4535 54.2705 89.85 55.0634 90.6425L55.1059 90.6854C56.6905 92.2708 56.6905 94.841 55.1059 96.426L52.894 98.6374C52.1007 99.4299 51.0619 99.8264 50.0231 99.8264ZM63.2577 103.06C62.1915 104.407 60.6363 105.08 59.0807 105.08C57.7182 105.08 56.3556 104.563 55.322 103.53L54.9112 103.119C55.3927 102.797 55.8459 102.427 56.2642 102.008L58.4753 99.7974C60.0325 98.2398 60.8774 96.2397 61.0252 94.1982L62.7254 95.898C64.652 97.8239 64.9484 100.924 63.2577 103.06ZM103.772 69.964C105.986 72.1774 105.829 75.8992 103.302 77.8997C102.355 78.6489 101.22 79.0076 100.081 79.0076C98.6497 79.0076 97.2129 78.4404 96.1403 77.3674L76.8669 58.0939C76.3664 57.5934 75.7109 57.3432 75.0551 57.3432C74.3996 57.3432 73.7434 57.5934 73.2432 58.0939C72.2299 59.1069 72.2299 60.7495 73.2432 61.7621L98.0205 86.5398C100.234 88.7532 100.077 92.475 97.5506 94.4755C96.6039 95.2243 95.469 95.5834 94.3301 95.5834C92.8984 95.5834 91.4616 95.0157 90.3891 93.9432L65.7278 69.2819C65.2209 68.775 64.5563 68.5212 63.8913 68.5212C63.2267 68.5212 62.5621 68.775 62.0549 69.2819C61.0554 70.2814 61.0554 71.9017 62.0549 72.9008L81.4447 92.2907C83.6582 94.5041 83.5016 98.2259 80.9748 100.226C80.0281 100.975 78.8932 101.334 77.7543 101.334C76.3227 101.334 74.8862 100.767 73.8133 99.6937L53.7763 79.6563C53.4235 78.0777 52.643 76.5765 51.4175 75.3506L51.3742 75.3073C49.991 73.9249 48.2284 73.0672 46.324 72.8118C46.7026 71.8191 46.9088 70.7585 46.9088 69.6641C46.9088 67.3068 45.9907 65.0898 44.3239 63.423C44.3191 63.4182 44.3144 63.4134 44.3096 63.4087L44.2723 63.3717C42.6062 61.7097 40.3928 60.7948 38.0395 60.7948C36.4803 60.7948 34.9867 61.204 33.6694 61.9583C33.2924 60.4158 32.5123 58.9969 31.3638 57.8429L31.3352 57.8139C31.3249 57.8036 31.3146 57.7928 31.3042 57.7825C29.637 56.1153 27.4204 55.1968 25.0623 55.1968C22.7039 55.1968 20.4873 56.1157 18.8205 57.7837L18.8066 57.7976C18.4987 56.8395 18.2373 55.89 18.0335 54.9529C17.9616 54.6252 17.8238 54.317 17.6192 54.0508L5.22162 40.2096C4.53995 39.3222 4.62099 38.0669 5.41111 37.2748L33.0442 9.59846C33.4783 9.16308 34.05 8.9434 34.6244 8.9434C35.1412 8.9434 35.6588 9.12177 36.0787 9.48286L36.2976 9.68823C34.4472 11.5088 33.2964 14.0381 33.2964 16.8323C33.2964 22.3512 37.7761 26.8424 43.2903 26.8619L60.8933 27.0851L103.772 69.964ZM112.778 36.1864L111.828 38.5794C111.623 38.8455 111.485 39.1534 111.414 39.4815C110.071 45.6431 105.338 52.7117 100.033 59.4716C93.2838 52.7224 62.9197 22.3432 62.9197 22.3432L43.326 22.0945C40.4317 22.0945 38.0633 19.7262 38.0633 16.8319C38.0633 13.9375 40.4317 11.5696 43.326 11.5696L80.0643 6.51664C80.0683 6.51625 80.0718 6.51426 80.0746 6.51188L81.9202 5.45918C82.3401 5.09809 82.8577 4.91972 83.3745 4.91972C83.9481 4.91972 84.5206 5.1398 84.9548 5.57478L112.588 33.2511C113.378 34.0436 113.459 35.2989 112.778 36.1864Z" fill="#FB7542"/>
</svg>
