<svg width="23" height="29" viewBox="0 0 23 29" fill="none" xmlns="http://www.w3.org/2000/svg">
<path d="M0.849323 16.383C0.431376 24.1506 6.59609 27.8905 9.73069 28.7895C10.7754 26.0925 8.16358 25.553 7.11871 22.3166C6.07385 19.0801 9.73069 15.3042 9.73069 15.3042C9.73069 15.3042 8.68583 18.5406 11.2982 21.2377C11.9382 21.8985 13.3834 22.6435 13.9103 23.3954C15.1042 25.0988 14.5928 27.9163 14.9552 28.7895C16.0001 28.7895 20.702 26.0925 22.2693 20.1589C23.5231 15.412 20.3537 9.3706 18.6123 7.21294C18.1943 9.3706 16.3484 12.0677 15.4777 13.1465C15.8956 7.53659 11.6465 2.3582 9.20845 0.73996C9.20845 9.91001 1.37176 6.67352 0.849323 16.383Z" fill="#FF4D00"/>
</svg>
