<svg width="35" height="35" viewBox="0 0 35 35" fill="none" xmlns="http://www.w3.org/2000/svg">
<path fill-rule="evenodd" clip-rule="evenodd" d="M4.37173 0H30.6021C31.7615 0 32.8735 0.460591 33.6934 1.28045C34.5132 2.10031 34.9738 3.21227 34.9738 4.37173V30.6021C34.9738 31.7615 34.5132 32.8735 33.6934 33.6934C32.8735 34.5132 31.7615 34.9738 30.6021 34.9738H20.2232V22.5577H24.2977L25.0758 17.5128H20.2232V14.2165C20.2232 12.8263 20.8965 11.4798 23.0736 11.4973H25.2857V7.19549C23.9871 6.9869 22.675 6.87294 21.3599 6.85449C17.3816 6.85449 14.7586 9.27643 14.7586 13.6482V17.5128H10.3169V22.5402H14.7586V34.9738H4.37173C3.21227 34.9738 2.10031 34.5132 1.28045 33.6934C0.460594 32.8735 0 31.7615 0 30.6021V4.37173C0 3.21227 0.460594 2.10031 1.28045 1.28045C2.10031 0.460591 3.21227 0 4.37173 0Z" fill="white"/>
</svg>
