<svg width="35" height="35" viewBox="0 0 35 35" fill="none" xmlns="http://www.w3.org/2000/svg">
<path fill-rule="evenodd" clip-rule="evenodd" d="M4.375 0H30.625C31.7853 0 32.8981 0.460936 33.7186 1.28141C34.5391 2.10188 35 3.21468 35 4.375V30.625C35 31.7853 34.5391 32.8981 33.7186 33.7186C32.8981 34.5391 31.7853 35 30.625 35H4.375C3.21468 35 2.10188 34.5391 1.28141 33.7186C0.460939 32.8981 0 31.7853 0 30.625V4.375C0 3.21468 0.460939 2.10188 1.28141 1.28141C2.10188 0.460936 3.21468 0 4.375 0ZM18.9613 22.5837C18.9613 23.0212 18.9613 24.0449 18.2351 24.0449H17.5088C16.0476 23.9662 14.3676 23.8262 11.8213 21.2012C9.0476 18.2787 8.02385 16.0212 6.57135 12.3724C6.4926 12.0837 6.57135 11.6462 7.2976 11.6462H9.4851C9.58588 11.6462 9.67554 11.6433 9.75678 11.6407C10.2611 11.6246 10.4414 11.6188 10.9463 12.3724C11.3788 13.0237 11.8112 13.7401 12.2247 14.4251C13.2001 16.041 14.0702 17.4824 14.5863 17.4824C15.3213 17.4824 15.3213 14.5599 15.3213 14.5599V13.1074C15.3213 12.2022 14.2951 12.3232 13.9547 12.3633C13.9101 12.3686 13.8773 12.3724 13.8601 12.3724C13.7113 12.3724 14.5863 11.6462 14.5863 11.6462C15.2358 11.2094 15.9921 10.9582 16.7738 10.9199H18.9613C19.8205 11.1467 19.7834 12.2321 19.728 13.8535C19.7128 14.2962 19.6963 14.7789 19.6963 15.2949C19.6963 16.0912 19.7663 17.4824 20.4226 17.4824C20.8964 17.4824 21.0646 17.0993 21.3981 16.3396C21.5266 16.0471 21.6795 15.6987 21.8838 15.2949C22.4981 14.0134 23.2305 12.7919 24.0713 11.6462C24.5788 10.9899 28.3063 11.7162 28.4463 12.1537C28.5863 12.5912 27.5713 14.2012 26.2588 16.0212C24.5488 18.2989 24.6194 18.3523 25.4297 18.9651C25.656 19.1362 25.9399 19.351 26.2588 19.6699C27.9301 21.3412 28.4463 22.1462 28.4463 22.5837C28.4353 22.9677 28.2779 23.333 28.0062 23.6047C27.7345 23.8764 27.3692 24.0339 26.9851 24.0449H24.7976C24.0714 24.0449 24.0713 24.0449 23.3363 23.3099L23.3363 23.3099C22.3913 22.3649 21.1488 21.1224 20.4226 21.1224C20.0438 21.1489 19.6873 21.3114 19.4188 21.5799C19.1503 21.8484 18.9878 22.2049 18.9613 22.5837Z" fill="white"/>
</svg>
