<svg width="130" height="27" viewBox="0 0 130 27" fill="none" xmlns="http://www.w3.org/2000/svg">
<path d="M42.4675 2.36926L36.2728 16.3486C36.1757 16.5748 36.0031 16.7602 35.7845 16.8731C35.5658 16.986 35.3147 17.0194 35.0741 16.9676C34.8335 16.9158 34.6184 16.782 34.4656 16.589C34.3129 16.3961 34.2319 16.1561 34.2366 15.91L34.0447 7.6634C34.0426 7.48606 33.9982 7.31179 33.9151 7.15512C33.832 6.99844 33.7126 6.86392 33.567 6.76277L27.8656 2.84699C27.671 2.71419 27.5233 2.52343 27.4434 2.30184C27.3635 2.08024 27.3555 1.8391 27.4206 1.6127C27.4856 1.3863 27.6204 1.18619 27.8058 1.04081C27.9911 0.895432 28.2176 0.812199 28.4529 0.802948L41.5121 0.802948C41.6929 0.811605 41.8688 0.864422 42.0245 0.95678C42.1802 1.04914 42.3109 1.17823 42.4051 1.33276C42.4994 1.48729 42.5544 1.66256 42.5652 1.84325C42.5761 2.02393 42.5426 2.20454 42.4675 2.36926Z" fill="#0466C8"/>
<path d="M30.0895 26.42H23.8242C23.6228 26.4178 23.426 26.3585 23.2569 26.249C23.0878 26.1395 22.9532 25.9842 22.8688 25.8013L11.7519 2.40842C11.6694 2.24226 11.6299 2.05811 11.6368 1.87275C11.6437 1.68739 11.6968 1.5067 11.7914 1.34713C11.886 1.18756 12.019 1.05418 12.1782 0.959133C12.3375 0.864089 12.5181 0.810397 12.7034 0.802948L18.9687 0.802948C19.1702 0.804675 19.3671 0.863781 19.5364 0.973349C19.7056 1.08292 19.8401 1.23841 19.9241 1.42164L31.0449 24.8145C31.1286 24.9809 31.169 25.1656 31.1624 25.3516C31.1558 25.5377 31.1024 25.7191 31.0072 25.8791C30.912 26.0391 30.778 26.1725 30.6176 26.267C30.4572 26.3616 30.2756 26.4142 30.0895 26.42Z" fill="#0466C8"/>
<path d="M18.5928 26.42H12.1866C11.9852 26.4173 11.7887 26.3578 11.6196 26.2484C11.4506 26.1389 11.3159 25.984 11.2311 25.8013L0.118124 2.40842C0.0344834 2.24209 -0.0059022 2.05736 0.000696328 1.8713C0.00729485 1.68524 0.0606648 1.50384 0.155878 1.34385C0.251092 1.18386 0.38508 1.05043 0.545471 0.955898C0.705863 0.861362 0.887487 0.80876 1.07358 0.802948L7.44455 0.802948C7.64613 0.804675 7.84304 0.863781 8.01225 0.973349C8.18146 1.08292 8.31596 1.23841 8.4 1.42164L19.5482 24.8145C19.6308 24.981 19.6703 25.1655 19.6632 25.3511C19.6561 25.5368 19.6026 25.7177 19.5076 25.8774C19.4126 26.0371 19.2791 26.1704 19.1193 26.2652C18.9595 26.3599 18.7785 26.4132 18.5928 26.42Z" fill="#0466C8"/>
<path d="M62.7415 9.69962L59.8595 17.7152H57.6275L55.8262 12.7461L53.9662 17.7152H51.7342L48.8326 9.69962H51.0216L52.909 15.1151L54.8669 9.69962H56.8248L58.7278 15.1151L60.6857 9.69962H62.7415Z" fill="black"/>
<path d="M65.1455 17.308C64.4968 16.974 63.9543 16.4654 63.5792 15.8396C63.1979 15.1968 63.0027 14.4606 63.0154 13.7133C63.0037 12.9661 63.1988 12.2302 63.5792 11.587C63.9549 10.9626 64.4973 10.4554 65.1455 10.1225C65.85 9.77478 66.6252 9.5939 67.4108 9.5939C68.1965 9.5939 68.9716 9.77478 69.6761 10.1225C70.3243 10.4554 70.8667 10.9626 71.2424 11.587C71.6228 12.2302 71.8179 12.9661 71.8063 13.7133C71.819 14.4606 71.6238 15.1968 71.2424 15.8396C70.8673 16.4654 70.3248 16.974 69.6761 17.308C68.9716 17.6557 68.1965 17.8366 67.4108 17.8366C66.6252 17.8366 65.85 17.6557 65.1455 17.308ZM68.8655 15.3266C69.261 14.8851 69.4665 14.3054 69.4372 13.7133C69.466 13.1213 69.2607 12.5418 68.8655 12.1C68.4736 11.7138 67.9454 11.4973 67.3952 11.4973C66.8449 11.4973 66.3167 11.7138 65.9248 12.1C65.7264 12.3173 65.5731 12.5718 65.4736 12.8487C65.3742 13.1256 65.3305 13.4194 65.3452 13.7133C65.3301 14.0072 65.3735 14.3012 65.473 14.5781C65.5725 14.8551 65.7261 15.1095 65.9248 15.3266C66.3167 15.7128 66.8449 15.9293 67.3952 15.9293C67.9454 15.9293 68.4736 15.7128 68.8655 15.3266Z" fill="black"/>
<path d="M76.6973 9.8915C77.2147 9.68359 77.7688 9.58236 78.3263 9.5939V11.7358C78.0679 11.7163 77.8956 11.7045 77.8055 11.7045C77.5202 11.688 77.2345 11.7291 76.9654 11.8253C76.6964 11.9215 76.4494 12.0708 76.2392 12.2645C76.0377 12.491 75.8838 12.7558 75.787 13.0431C75.6901 13.3303 75.6521 13.6342 75.6753 13.9365V17.7152H73.3533V9.69963H75.5696V10.7569C75.8575 10.369 76.2481 10.0692 76.6973 9.8915Z" fill="black"/>
<path d="M83.1389 14.5787L82.0229 15.679V17.7152H79.7047V6.67664H82.0229V12.9419L85.4178 9.69962H88.1824L84.8501 13.0907L88.48 17.7035H85.6685L83.1389 14.5787Z" fill="black"/>
<path d="M96.2252 10.0912C96.8288 10.4273 97.3255 10.9267 97.6584 11.5322C98.0168 12.1967 98.1962 12.9429 98.1792 13.6976C98.1968 14.4524 98.0173 15.1988 97.6584 15.8631C97.3246 16.4688 96.8282 16.9692 96.2252 17.308C95.6036 17.652 94.9033 17.8288 94.1929 17.8209C93.7454 17.8438 93.2983 17.7691 92.8825 17.6021C92.4667 17.4351 92.0921 17.1798 91.7847 16.8537V20.5855H89.4626V9.69961H91.679V10.6237C91.9898 10.2686 92.3782 9.98983 92.8142 9.80918C93.2502 9.62854 93.722 9.55084 94.1929 9.58214C94.9032 9.57113 95.604 9.74666 96.2252 10.0912ZM95.258 15.3266C95.6535 14.885 95.8589 14.3053 95.8297 13.7133C95.8585 13.1213 95.6531 12.5417 95.258 12.1C94.8679 11.7133 94.3408 11.4964 93.7915 11.4964C93.2423 11.4964 92.7152 11.7133 92.3251 12.1C91.9299 12.5417 91.7246 13.1213 91.7534 13.7133C91.7241 14.3053 91.9296 14.885 92.3251 15.3266C92.7152 15.7133 93.2423 15.9302 93.7915 15.9302C94.3408 15.9302 94.8679 15.7133 95.258 15.3266Z" fill="black"/>
<path d="M99.726 6.67664H102.048V17.7152H99.726V6.67664Z" fill="black"/>
<path d="M110.291 10.4828C110.954 11.0754 111.286 11.9656 111.286 13.1534V17.7152H109.116V16.7206C108.678 17.4646 107.867 17.8366 106.677 17.8366C106.126 17.8492 105.58 17.7423 105.075 17.5234C104.656 17.3405 104.297 17.0416 104.041 16.6619C103.802 16.2884 103.678 15.8525 103.685 15.4088C103.672 15.07 103.742 14.7333 103.889 14.4276C104.036 14.1219 104.255 13.8566 104.527 13.6546C105.088 13.2291 105.954 13.0163 107.123 13.0163H108.967C108.981 12.7986 108.946 12.5807 108.866 12.3778C108.787 12.1749 108.663 11.9919 108.505 11.8416C108.107 11.5481 107.616 11.409 107.123 11.45C106.696 11.45 106.272 11.5174 105.866 11.6497C105.486 11.7661 105.131 11.9505 104.817 12.194L103.983 10.5729C104.459 10.2444 104.989 10.0019 105.549 9.85626C106.161 9.68845 106.794 9.60415 107.429 9.60565C108.674 9.59782 109.628 9.8902 110.291 10.4828ZM108.314 16.0001C108.623 15.8145 108.855 15.5241 108.967 15.1817V14.3672H107.374C106.423 14.3672 105.947 14.6805 105.944 15.307C105.94 15.4446 105.97 15.5811 106.031 15.7042C106.093 15.8273 106.184 15.933 106.297 16.0119C106.58 16.2012 106.916 16.2933 107.256 16.2742C107.627 16.2801 107.993 16.1839 108.314 15.9962V16.0001Z" fill="black"/>
<path d="M115.041 17.308C114.377 16.9755 113.821 16.4609 113.438 15.8245C113.055 15.188 112.862 14.4558 112.879 13.7133C112.868 12.9651 113.066 12.2288 113.451 11.587C113.835 10.961 114.385 10.4539 115.041 10.1225C115.753 9.76307 116.542 9.58168 117.339 9.59389C118.11 9.57573 118.872 9.75788 119.552 10.1225C120.173 10.4542 120.664 10.9852 120.946 11.6301L119.148 12.5973C118.985 12.261 118.728 11.9786 118.409 11.7836C118.09 11.5886 117.721 11.4891 117.347 11.497C117.069 11.4884 116.792 11.5368 116.534 11.6392C116.275 11.7416 116.04 11.8957 115.844 12.0922C115.64 12.3081 115.482 12.5632 115.38 12.8418C115.278 13.1204 115.233 13.4169 115.248 13.7133C115.233 14.0097 115.277 14.3063 115.38 14.5849C115.482 14.8636 115.64 15.1186 115.844 15.3344C116.04 15.5316 116.275 15.6863 116.533 15.7887C116.792 15.8911 117.069 15.9391 117.347 15.9296C117.721 15.9374 118.09 15.838 118.409 15.643C118.728 15.448 118.985 15.1656 119.148 14.8293L120.946 15.8121C120.662 16.4447 120.179 16.9672 119.571 17.3001C118.893 17.6692 118.131 17.8542 117.359 17.8366C116.555 17.852 115.759 17.6705 115.041 17.308Z" fill="black"/>
<path d="M129.952 14.3672H123.902C124 14.8457 124.281 15.267 124.685 15.542C125.131 15.8376 125.658 15.9856 126.193 15.9649C126.571 15.972 126.946 15.9082 127.301 15.7769C127.639 15.6463 127.946 15.4462 128.201 15.1896L129.435 16.5288C128.683 17.3902 127.583 17.8249 126.134 17.8249C125.304 17.8413 124.483 17.6601 123.737 17.2962C123.073 16.9704 122.516 16.4608 122.132 15.8278C121.751 15.185 121.555 14.4489 121.568 13.7016C121.558 12.9623 121.749 12.2342 122.12 11.5949C122.485 10.9724 123.015 10.4629 123.651 10.1225C124.317 9.77918 125.054 9.59806 125.802 9.59397C126.551 9.58989 127.29 9.76296 127.959 10.099C128.586 10.4288 129.105 10.9317 129.454 11.5479C129.828 12.2185 130.016 12.977 129.999 13.7446C130.003 13.772 129.987 13.9835 129.952 14.3672ZM124.525 11.7946C124.159 12.1045 123.924 12.5408 123.867 13.0163H127.81C127.75 12.5446 127.517 12.112 127.156 11.8024C126.79 11.4968 126.325 11.3352 125.848 11.3482C125.369 11.333 124.9 11.4916 124.528 11.7946H124.525Z" fill="black"/>
</svg>
