<svg width="43" height="56" viewBox="0 0 43 56" fill="none" xmlns="http://www.w3.org/2000/svg">
<path d="M0.882934 31.1027C0.0730393 46.2399 12.019 53.5282 18.0932 55.2801C20.1176 50.0242 15.0565 48.973 13.0317 42.6658C11.007 36.3587 18.0932 29.0003 18.0932 29.0003C18.0932 29.0003 16.0685 35.3075 21.1307 40.5634C22.3708 41.8511 25.1714 43.303 26.1925 44.7682C28.5059 48.0879 27.515 53.5785 28.2172 55.2801C30.242 55.2801 39.3533 50.0242 42.3904 38.4611C44.8201 29.2106 38.6784 17.4372 35.3038 13.2324C34.4939 17.4372 30.9169 22.6932 29.2296 24.7956C30.0395 13.8632 21.8056 3.77171 17.0812 0.618134C17.0812 18.4884 1.8953 12.1812 0.882934 31.1027Z" fill="#FF4D00"/>
</svg>
