<svg width="19" height="16" viewBox="0 0 19 16" fill="none" xmlns="http://www.w3.org/2000/svg">
<path d="M0 0.888889C0 0.397969 0.386663 0 0.863636 0H18.1364C18.6133 0 19 0.397969 19 0.888889C19 1.37981 18.6133 1.77778 18.1364 1.77778H0.863636C0.386663 1.77778 0 1.37981 0 0.888889Z" fill="black"/>
<path d="M0 15.1111C0 14.6202 0.386663 14.2222 0.863636 14.2222H18.1364C18.6133 14.2222 19 14.6202 19 15.1111C19 15.602 18.6133 16 18.1364 16H0.863636C0.386663 16 0 15.602 0 15.1111Z" fill="black"/>
<path d="M0.863636 7.11111C0.386663 7.11111 0 7.50908 0 8C0 8.49092 0.386663 8.88889 0.863636 8.88889H18.1364C18.6133 8.88889 19 8.49092 19 8C19 7.50908 18.6133 7.11111 18.1364 7.11111H0.863636Z" fill="black"/>
</svg>
