<svg width="35" height="35" viewBox="0 0 35 35" fill="none" xmlns="http://www.w3.org/2000/svg">
<path fill-rule="evenodd" clip-rule="evenodd" d="M4.375 0H30.625C31.7853 0 32.8981 0.460936 33.7186 1.28141C34.5391 2.10188 35 3.21468 35 4.375V30.625C35 31.7853 34.5391 32.8981 33.7186 33.7186C32.8981 34.5391 31.7853 35 30.625 35H4.375C3.21468 35 2.10188 34.5391 1.2814 33.7186C0.460933 32.8981 0 31.7853 0 30.625V4.375C0 3.21468 0.460933 2.10188 1.2814 1.28141C2.10188 0.460936 3.21468 0 4.375 0ZM25.5237 12.0137C26.528 11.8073 27.5055 11.4873 28.4375 11.06C27.8501 11.9803 27.1104 12.794 26.25 13.4662V14.2012C26.25 20.1075 22.0937 26.5912 13.86 26.5912C11.3026 26.622 8.78342 25.9695 6.5625 24.7012C6.92405 24.7591 7.29027 24.7825 7.65625 24.7712C9.63144 24.7934 11.557 24.1526 13.125 22.9512C12.1869 22.9586 11.2682 22.6839 10.4881 22.1628C9.70796 21.6417 9.10244 20.8982 8.75 20.0287C9.0475 20.1075 11.6725 20.7637 12.3987 20.0287C10.36 19.5912 7.2975 17.115 7.2975 14.9275C7.95155 15.3548 8.70528 15.605 9.485 15.6537C8.84509 15.2783 8.30955 14.7484 7.92739 14.1125C7.54523 13.4766 7.32866 12.755 7.2975 12.0137C7.34782 11.2343 7.59792 10.481 8.02374 9.82624C10.2112 12.5212 13.125 13.4662 17.5 13.4662H17.5787C17.5099 13.2307 17.4833 12.9848 17.5 12.74C17.4893 12.1625 17.5952 11.5888 17.8112 11.0532C18.0273 10.5176 18.3492 10.031 18.7576 9.6226C19.166 9.21419 19.6525 8.89233 20.1882 8.67625C20.7238 8.46017 21.2975 8.35431 21.875 8.36499C22.4414 8.36933 22.9992 8.50327 23.5058 8.75656C24.0124 9.00985 24.4542 9.37576 24.7975 9.82624L25.375 10.4037C26.1932 10.0406 26.9754 9.60114 27.7112 9.09124C27.2883 10.261 26.5268 11.2783 25.5237 12.0137Z" fill="white"/>
</svg>
