<svg width="12" height="12" viewBox="0 0 12 12" fill="none" xmlns="http://www.w3.org/2000/svg">
<path fill-rule="evenodd" clip-rule="evenodd" d="M7.65409 8.31701C6.84603 8.97827 5.8131 9.375 4.6875 9.375C2.09867 9.375 0 7.27633 0 4.6875C0 2.09867 2.09867 0 4.6875 0C7.27633 0 9.375 2.09867 9.375 4.6875C9.375 5.8131 8.97827 6.84603 8.31701 7.65409L11.1127 10.4498C11.2958 10.6329 11.2958 10.9296 11.1127 11.1127C10.9296 11.2958 10.6329 11.2958 10.4498 11.1127L7.65409 8.31701ZM8.4375 4.6875C8.4375 6.75857 6.75857 8.4375 4.6875 8.4375C2.61643 8.4375 0.9375 6.75857 0.9375 4.6875C0.9375 2.61643 2.61643 0.9375 4.6875 0.9375C6.75857 0.9375 8.4375 2.61643 8.4375 4.6875Z" fill="#B7BBC2"/>
</svg>
