<svg width="35" height="35" viewBox="0 0 35 35" fill="none" xmlns="http://www.w3.org/2000/svg">
<path fill-rule="evenodd" clip-rule="evenodd" d="M4.375 0H30.625C31.7853 0 32.8981 0.460936 33.7186 1.28141C34.5391 2.10188 35 3.21468 35 4.375V30.625C35 31.7853 34.5391 32.8981 33.7186 33.7186C32.8981 34.5391 31.7853 35 30.625 35H4.375C3.21468 35 2.10188 34.5391 1.2814 33.7186C0.460933 32.8981 0 31.7853 0 30.625V4.375C0 3.21468 0.460933 2.10188 1.2814 1.28141C2.10188 0.460936 3.21468 0 4.375 0ZM29.1113 9.44988C29.4641 10.4033 29.6563 11.4086 29.68 12.4249C29.7412 13.7374 29.75 14.1836 29.75 17.4824C29.75 20.7811 29.7412 21.2186 29.68 22.5311C29.6563 23.5474 29.4641 24.5528 29.1113 25.5061C28.8015 26.3215 28.3212 27.0614 27.7025 27.6761C27.0898 28.2974 26.3494 28.7781 25.5325 29.0849C24.5801 29.4411 23.5742 29.6334 22.5575 29.6536C21.245 29.7236 20.7987 29.7236 17.5 29.7236C14.2013 29.7236 13.7637 29.7149 12.4512 29.6536C11.4345 29.6343 10.4285 29.4419 9.47625 29.0849C8.65937 28.7781 7.91894 28.2974 7.30626 27.6761C6.68495 27.0634 6.20427 26.323 5.8975 25.5061C5.54047 24.5539 5.34813 23.5479 5.32875 22.5311C5.25 21.2187 5.25 20.7899 5.25 17.4828V17.4824C5.25 14.1749 5.2675 13.7374 5.32875 12.4249C5.34813 11.4081 5.54047 10.4021 5.8975 9.44988C6.20427 8.633 6.68495 7.89257 7.30626 7.27988C7.91894 6.65858 8.65937 6.1779 9.47625 5.87113C10.4285 5.51409 11.4345 5.32176 12.4512 5.30238C13.7637 5.22363 14.1925 5.22363 17.5 5.22363C20.8075 5.22363 21.245 5.24113 22.5575 5.30238C23.5742 5.32261 24.5801 5.51491 25.5325 5.87113C26.3494 6.1779 27.0898 6.65858 27.7025 7.27988C28.3212 7.89466 28.8015 8.63449 29.1113 9.44988ZM27.0463 24.7011C27.3206 23.9736 27.4657 23.2036 27.475 22.4261C27.5363 21.1311 27.545 20.7636 27.545 17.4824C27.545 14.2011 27.5363 13.8249 27.475 12.5299C27.4657 11.7524 27.3206 10.9825 27.0463 10.2549C26.8652 9.72503 26.566 9.2433 26.1713 8.84613C25.7713 8.45492 25.2904 8.15623 24.7625 7.97113C24.0327 7.70592 23.2639 7.56398 22.4875 7.55113C21.1925 7.48113 20.8075 7.48113 17.535 7.48113C14.2625 7.48113 13.8862 7.48988 12.5912 7.55113C11.8149 7.56398 11.046 7.70592 10.3163 7.97113C9.78832 8.15623 9.30743 8.45492 8.90751 8.84613C8.49769 9.23939 8.1834 9.7213 7.98875 10.2549C7.7188 10.9837 7.57384 11.7528 7.56 12.5299C7.49 13.8249 7.49 14.2099 7.49 17.4824C7.49 20.7006 7.50692 21.1179 7.55742 22.3625L7.56 22.4261C7.57384 23.2032 7.7188 23.9723 7.98875 24.7011C8.1834 25.2347 8.49769 25.7166 8.90751 26.1099C9.30308 26.5169 9.78431 26.8307 10.3163 27.0286C11.046 27.2938 11.8149 27.4358 12.5912 27.4486C13.8862 27.5274 14.2538 27.5274 17.535 27.5274C20.8163 27.5274 21.1925 27.5099 22.4875 27.4486C23.2639 27.4358 24.0327 27.2938 24.7625 27.0286C25.2945 26.8307 25.7757 26.5169 26.1713 26.1099C26.566 25.7127 26.8652 25.231 27.0463 24.7011ZM25.5147 10.9378C25.5124 11.3284 25.3556 11.7023 25.0785 11.9778C24.8014 12.2532 24.4266 12.4078 24.036 12.4078C23.6476 12.4055 23.276 12.2496 23.0022 11.9741C22.7284 11.6987 22.5747 11.3261 22.5747 10.9378C22.5747 10.5494 22.7284 10.1768 23.0022 9.90141C23.276 9.62598 23.6476 9.47009 24.036 9.46777C24.4266 9.46777 24.8014 9.62236 25.0785 9.89779C25.3556 10.1732 25.5124 10.5471 25.5147 10.9378ZM15.0907 11.6623C15.8545 11.3456 16.6733 11.1826 17.5002 11.1826C19.1711 11.1826 20.7735 11.8464 21.955 13.0278C23.1365 14.2093 23.8002 15.8118 23.8002 17.4826C23.7979 19.152 23.1331 20.7521 21.9519 21.9317C20.7707 23.1113 19.1696 23.7739 17.5002 23.7739C15.8317 23.7739 14.2315 23.111 13.0517 21.9312C11.8718 20.7514 11.209 19.1512 11.209 17.4826C11.2078 16.6557 11.3697 15.8367 11.6854 15.0724C12.001 14.3081 12.4643 13.6135 13.0486 13.0284C13.6329 12.4432 14.3268 11.9791 15.0907 11.6623ZM14.6201 20.3726C15.3856 21.1332 16.421 21.5601 17.5002 21.5601C18.5795 21.5601 19.6148 21.1332 20.3804 20.3726C21.146 19.6119 21.5796 18.5793 21.5865 17.5001C21.5865 16.9635 21.4808 16.4321 21.2754 15.9364C21.0701 15.4406 20.7691 14.9901 20.3897 14.6107C20.0102 14.2313 19.5598 13.9303 19.064 13.7249C18.5682 13.5196 18.0369 13.4139 17.5002 13.4139C16.4172 13.4162 15.3792 13.8474 14.6134 14.6133C13.8476 15.3791 13.4163 16.4171 13.414 17.5001C13.4209 18.5793 13.8545 19.6119 14.6201 20.3726Z" fill="white"/>
</svg>
