<svg width="40" height="40" viewBox="0 0 40 40" fill="none" xmlns="http://www.w3.org/2000/svg">
<path d="M20 24.1985C19.1695 24.1985 18.3577 23.9522 17.6672 23.4907C16.9767 23.0293 16.4385 22.3734 16.1208 21.606C15.8031 20.8387 15.7202 19.9943 15.8824 19.1798C16.0447 18.3653 16.4448 17.6172 17.0323 17.0301C17.6198 16.4431 18.3681 16.0435 19.1828 15.8818C19.9974 15.7201 20.8417 15.8037 21.6088 16.1219C22.3759 16.4402 23.0315 16.9787 23.4924 17.6696C23.9534 18.3604 24.1991 19.1724 24.1986 20.003C24.197 21.1154 23.754 22.1818 22.9668 22.9679C22.1796 23.754 21.1125 24.1956 20 24.1955V24.1985Z" fill="#002855"/>
<path fill-rule="evenodd" clip-rule="evenodd" d="M25.0873 9.74815C23.7599 9.68889 23.3629 9.67408 19.9999 9.67408C16.637 9.67408 16.2399 9.68889 14.9125 9.74815C14.1133 9.75786 13.3217 9.90416 12.5718 10.1807C12.0265 10.385 11.5329 10.7067 11.1258 11.123C10.7076 11.5296 10.3856 12.0246 10.1836 12.5719C9.90579 13.3204 9.75943 14.1113 9.75103 14.9096C9.67696 16.237 9.67696 16.64 9.67696 20C9.67696 23.36 9.68881 23.76 9.75103 25.0874C9.75943 25.8858 9.90579 26.6767 10.1836 27.4252C10.393 27.9682 10.7137 28.4614 11.1249 28.8732C11.5362 29.285 12.029 29.6062 12.5718 29.8163C13.3217 30.0929 14.1133 30.2392 14.9125 30.2489C16.2399 30.3082 16.637 30.323 19.9999 30.323C23.3629 30.323 23.7599 30.3082 25.0873 30.2489C25.8865 30.2392 26.6782 30.0929 27.4281 29.8163C27.9708 29.6062 28.4636 29.285 28.8749 28.8732C29.2862 28.4614 29.6068 27.9682 29.8162 27.4252C30.0941 26.6767 30.2404 25.8858 30.2488 25.0874C30.3229 23.76 30.3229 23.363 30.3229 20C30.3229 16.637 30.311 16.237 30.2488 14.9096C30.2404 14.1113 30.0941 13.3204 29.8162 12.5719C29.6142 12.0246 29.2923 11.5296 28.874 11.123C28.4669 10.7067 27.9733 10.385 27.4281 10.1807C26.6782 9.90416 25.8865 9.75786 25.0873 9.74815ZM20 13.5318C18.7206 13.5313 17.4698 13.9101 16.4057 14.6205C15.3417 15.3309 14.5122 16.3408 14.0221 17.5227C13.5321 18.7045 13.4036 20.0052 13.6529 21.2601C13.9021 22.5149 14.5179 23.6677 15.4224 24.5726C16.3268 25.4775 17.4793 26.0938 18.7341 26.3436C19.9889 26.5935 21.2896 26.4655 22.4717 25.9761C23.6537 25.4866 24.6641 24.6576 25.3749 23.5938C26.0858 22.5301 26.4652 21.2794 26.4652 20C26.4656 19.1507 26.2987 18.3097 25.974 17.525C25.6492 16.7402 25.1731 16.0272 24.5727 15.4265C23.9723 14.8258 23.2594 14.3494 22.4749 14.0243C21.6903 13.6992 20.8493 13.5318 20 13.5318ZM28.234 13.277C28.234 14.1116 27.5575 14.7882 26.7229 14.7882C25.8884 14.7882 25.2118 14.1116 25.2118 13.277C25.2118 12.4425 25.8884 11.7659 26.7229 11.7659C27.5575 11.7659 28.234 12.4425 28.234 13.277Z" fill="#002855"/>
<path fill-rule="evenodd" clip-rule="evenodd" d="M40 20C40 31.0457 31.0457 40 20 40C8.9543 40 0 31.0457 0 20C0 8.9543 8.9543 0 20 0C31.0457 0 40 8.9543 40 20ZM14.8088 7.48148C16.1481 7.40741 16.5807 7.40741 19.9999 7.40741C23.4133 7.40741 23.8488 7.41926 25.191 7.48148C26.2364 7.50499 27.2703 7.70535 28.2488 8.07407C29.0857 8.39709 29.8456 8.89164 30.4799 9.52592C31.1142 10.1602 31.6088 10.9202 31.9318 11.757C32.3016 12.7342 32.502 13.7673 32.5244 14.8119C32.6014 16.1541 32.6014 16.5926 32.6014 20.0059C32.6014 23.4193 32.5866 23.8548 32.5244 25.197C32.5016 26.2425 32.3012 27.2765 31.9318 28.2548C31.6081 29.0909 31.1133 29.8502 30.4791 30.4839C29.8448 31.1176 29.0852 31.6118 28.2488 31.9348C27.2707 32.305 26.2366 32.5054 25.191 32.5274C23.8518 32.5896 23.4133 32.6044 19.9999 32.6044C16.5866 32.6044 16.151 32.5896 14.8088 32.5274C13.7632 32.5054 12.7291 32.305 11.751 31.9348C10.9147 31.6118 10.155 31.1176 9.5208 30.4839C8.88657 29.8502 8.39175 29.0909 8.06807 28.2548C7.69869 27.2765 7.4983 26.2425 7.47548 25.197C7.39844 23.8578 7.39844 23.4222 7.39844 20.0059C7.39844 16.5896 7.41326 16.157 7.47548 14.8119C7.49783 13.7673 7.69824 12.7342 8.06807 11.757C8.39109 10.9202 8.88564 10.1602 9.51993 9.52592C10.1542 8.89164 10.9142 8.39709 11.751 8.07407C12.7295 7.70535 13.7634 7.50499 14.8088 7.48148Z" fill="#002855"/>
</svg>
