<svg width="29" height="17" viewBox="0 0 29 17" fill="none" xmlns="http://www.w3.org/2000/svg">
<path d="M28.932 1.03944L24.7117 10.3164C24.6456 10.4665 24.528 10.5895 24.379 10.6645C24.2301 10.7394 24.059 10.7616 23.8951 10.7272C23.7312 10.6928 23.5846 10.604 23.4805 10.476C23.3765 10.3479 23.3213 10.1887 23.3245 10.0254L23.1938 4.55274C23.1924 4.43505 23.1621 4.3194 23.1055 4.21543C23.0489 4.11146 22.9675 4.02219 22.8683 3.95506L18.9841 1.35647C18.8515 1.26834 18.7509 1.14175 18.6965 0.994692C18.642 0.847637 18.6366 0.687609 18.6809 0.537368C18.7252 0.387127 18.8171 0.254325 18.9433 0.15785C19.0696 0.0613746 19.2239 0.00613922 19.3843 0L28.2811 0C28.4043 0.00574504 28.5241 0.0407952 28.6302 0.102086C28.7363 0.163377 28.8253 0.249042 28.8895 0.351593C28.9537 0.454144 28.9912 0.570457 28.9986 0.690365C29.006 0.810272 28.9832 0.930122 28.932 1.03944Z" fill="#0466C8"/>
<path d="M20.4991 17H16.2308C16.0935 16.9985 15.9595 16.9592 15.8443 16.8865C15.7291 16.8138 15.6374 16.7108 15.5799 16.5894L8.0062 1.06542C7.95003 0.955155 7.92307 0.832953 7.92777 0.709943C7.93247 0.586933 7.96869 0.467022 8.03312 0.361128C8.09755 0.255235 8.18815 0.166721 8.29667 0.103648C8.40519 0.0405742 8.52818 0.00494358 8.65445 0L12.9228 0C13.0601 0.00114594 13.1943 0.0403702 13.3096 0.113082C13.4248 0.185794 13.5165 0.288985 13.5737 0.410578L21.1501 15.9346C21.2071 16.045 21.2346 16.1675 21.2301 16.291C21.2256 16.4145 21.1892 16.5349 21.1243 16.641C21.0595 16.7472 20.9682 16.8358 20.8589 16.8985C20.7497 16.9612 20.6259 16.9961 20.4991 17Z" fill="#0466C8"/>
<path d="M12.6668 17H8.3024C8.16521 16.9982 8.03133 16.9588 7.91617 16.8861C7.80101 16.8135 7.70926 16.7106 7.65147 16.5894L0.080475 1.06542C0.0234927 0.955041 -0.00402102 0.832454 0.00047439 0.708979C0.0049698 0.585505 0.0413294 0.465124 0.106196 0.358952C0.171063 0.252779 0.262345 0.164237 0.371616 0.101501C0.480886 0.0387646 0.604623 0.00385667 0.731399 0L5.07179 0C5.20911 0.00114594 5.34327 0.0403702 5.45854 0.113082C5.57382 0.185794 5.66545 0.288985 5.72271 0.410578L13.3177 15.9346C13.374 16.045 13.4009 16.1675 13.3961 16.2907C13.3912 16.4139 13.3548 16.534 13.29 16.6399C13.2253 16.7459 13.1344 16.8343 13.0255 16.8972C12.9166 16.9601 12.7933 16.9955 12.6668 17Z" fill="#0466C8"/>
</svg>
