<svg width="40" height="40" viewBox="0 0 40 40" fill="none" xmlns="http://www.w3.org/2000/svg">
<path d="M20 0C14.6957 0 9.60859 2.10714 5.85786 5.85787C2.10714 9.6086 0 14.6957 0 20C0 25.3043 2.10714 30.3914 5.85786 34.1421C9.60859 37.8929 14.6957 40 20 40C25.3043 40 30.3914 37.8929 34.1421 34.1421C37.8929 30.3914 40 25.3043 40 20C40 14.6957 37.8929 9.6086 34.1421 5.85787C30.3914 2.10714 25.3043 0 20 0ZM30 22.5C31.925 24.4125 32.5 25.3375 32.5 25.8375C32.4874 26.2744 32.3082 26.69 31.9991 26.9991C31.69 27.3082 31.2744 27.4874 30.8375 27.5H28.3375C27.5 27.5 27.5 27.5 26.675 26.6625C25.5875 25.5875 24.175 24.1625 23.3375 24.1625C22.9042 24.1921 22.4965 24.3784 22.1905 24.6866C21.8846 24.9949 21.7013 25.404 21.675 25.8375C21.675 26.3375 21.675 27.5 20.8375 27.5H20C18.3375 27.4125 16.425 27.25 13.5 24.25C10.3375 20.9125 9.175 18.3375 7.5 14.1625C7.425 13.8375 7.5 13.3375 8.3375 13.3375H10.8375C11.675 13.3375 11.8375 13.1625 12.5 14.1625C14.175 16.6625 15.8375 20 16.675 20C17.5125 20 17.5 16.6625 17.5 16.6625V15C17.5 13.8375 16.0875 14.1625 15.8375 14.1625C15.5875 14.1625 16.675 13.3375 16.675 13.3375C17.415 12.8328 18.2803 12.543 19.175 12.5H21.675C22.925 12.8375 22.5 14.75 22.5 17.5C22.5 18.4125 22.5875 20 23.3375 20C24.0875 20 24.175 19.1625 25 17.5C25.7064 16.0401 26.5432 14.647 27.5 13.3375C28.0875 12.5875 32.3375 13.4125 32.5 13.9125C32.6625 14.4125 31.5 16.25 30 18.3375C27.5 21.6625 28.3375 20.8375 30 22.5Z" fill="#002855"/>
</svg>
