<svg width="40" height="40" viewBox="0 0 40 40" fill="none" xmlns="http://www.w3.org/2000/svg">
<path d="M20 0C14.6957 0 9.6086 2.10714 5.85787 5.85787C2.10714 9.6086 0 14.6957 0 20C0 25.3043 2.10714 30.3914 5.85787 34.1421C9.6086 37.8929 14.6957 40 20 40C25.3043 40 30.3914 37.8929 34.1421 34.1421C37.8929 30.3914 40 25.3043 40 20C40 14.6957 37.8929 9.6086 34.1421 5.85787C30.3914 2.10714 25.3043 0 20 0ZM30 15.4125V16.25C30 23 25.25 30.4125 15.8375 30.4125C12.9151 30.4486 10.0364 29.7019 7.5 28.25C7.91248 28.3226 8.33142 28.3519 8.75 28.3375C11.0093 28.3678 13.2123 27.632 15 26.25C13.9278 26.2603 12.8773 25.9474 11.9855 25.3521C11.0936 24.7568 10.4017 23.9067 10 22.9125C10.3375 23 13.3375 23.75 14.1625 22.9125C11.8375 22.4125 8.3375 19.5875 8.3375 17.0875C9.08748 17.5699 9.94773 17.8538 10.8375 17.9125C10.1054 17.4837 9.49274 16.8779 9.0559 16.1505C8.61906 15.4232 8.37203 14.5977 8.3375 13.75C8.39786 12.8605 8.68162 12.0007 9.1625 11.25C11.6625 14.3375 15 15.4125 20 15.4125H20.0875C20.0112 15.1446 19.9816 14.8655 20 14.5875C19.9864 13.9272 20.1064 13.2709 20.3528 12.6581C20.5993 12.0453 20.9671 11.4887 21.4341 11.0216C21.9012 10.5546 22.4578 10.1868 23.0706 9.94036C23.6834 9.6939 24.3397 9.57388 25 9.5875C25.6462 9.59176 26.283 9.74379 26.8614 10.0319C27.4399 10.3201 27.9448 10.7367 28.3375 11.25L29 11.9125C29.9334 11.4988 30.825 10.9965 31.6625 10.4125C31.1876 11.7531 30.3155 12.9173 29.1625 13.75C30.314 13.5203 31.4342 13.1552 32.5 12.6625C31.8271 13.7131 30.982 14.6428 30 15.4125Z" fill="#002855"/>
</svg>
