<svg width="40" height="40" viewBox="0 0 40 40" fill="none" xmlns="http://www.w3.org/2000/svg">
<path d="M20 0C14.6957 0 9.6086 2.10714 5.85787 5.85787C2.10714 9.6086 0 14.6957 0 20C0 25.3043 2.10714 30.3914 5.85787 34.1421C9.6086 37.8929 14.6957 40 20 40C25.3043 40 30.3914 37.8929 34.1421 34.1421C37.8929 30.3914 40 25.3043 40 20C40 14.6957 37.8929 9.6086 34.1421 5.85787C30.3914 2.10714 25.3043 0 20 0ZM25.65 12.625C25.6501 12.719 25.6136 12.8094 25.5483 12.877C25.483 12.9446 25.394 12.9843 25.3 12.9875H23.025C21.525 12.9875 21.25 13.5625 21.25 14.7125V17.1H25.15C25.2001 17.1008 25.2495 17.1124 25.2948 17.134C25.3401 17.1555 25.3803 17.1866 25.4125 17.225C25.4483 17.2629 25.4748 17.3086 25.49 17.3585C25.5052 17.4084 25.5086 17.4611 25.5 17.5125L24.95 21.8C24.9406 21.8884 24.8978 21.9699 24.8305 22.0279C24.7632 22.0859 24.6763 22.1162 24.5875 22.1125H21.25V32.7875C21.25 32.8345 21.2406 32.8811 21.2222 32.9244C21.2038 32.9677 21.1769 33.0068 21.1431 33.0395C21.1093 33.0722 21.0692 33.0977 21.0253 33.1145C20.9814 33.1314 20.9345 33.1392 20.8875 33.1375H16.45C16.3572 33.1375 16.2681 33.1006 16.2025 33.035C16.1369 32.9693 16.1 32.8803 16.1 32.7875V22.1125H12.7375C12.6447 22.1125 12.5556 22.0756 12.49 22.01C12.4244 21.9443 12.3875 21.8553 12.3875 21.7625V17.5C12.3874 17.406 12.4239 17.3156 12.4892 17.248C12.5545 17.1804 12.6435 17.1407 12.7375 17.1375H16.1V14.325C16.1 10.575 18.35 8.2875 21.975 8.2875C23.0981 8.28719 24.2205 8.34561 25.3375 8.4625C25.4259 8.47194 25.5074 8.51467 25.5654 8.58199C25.6234 8.64931 25.6537 8.73619 25.65 8.825V12.625Z" fill="#002855"/>
</svg>
