<svg width="20" height="20" viewBox="0 0 20 20" fill="none" xmlns="http://www.w3.org/2000/svg">
<path fill-rule="evenodd" clip-rule="evenodd" d="M13.3947 14.5548C11.9806 15.712 10.1729 16.4062 8.20312 16.4062C3.67266 16.4062 0 12.7336 0 8.20312C0 3.67266 3.67266 0 8.20312 0C12.7336 0 16.4062 3.67266 16.4062 8.20312C16.4062 10.1729 15.712 11.9806 14.5548 13.3947L19.4472 18.2871C19.7676 18.6075 19.7676 19.1269 19.4472 19.4472C19.1269 19.7676 18.6075 19.7676 18.2871 19.4472L13.3947 14.5548ZM14.7656 8.20312C14.7656 11.8275 11.8275 14.7656 8.20312 14.7656C4.57876 14.7656 1.64062 11.8275 1.64062 8.20312C1.64062 4.57876 4.57876 1.64062 8.20312 1.64062C11.8275 1.64062 14.7656 4.57876 14.7656 8.20312Z" fill="#B7BBC2"/>
</svg>
