<svg width="84" height="23" viewBox="0 0 84 23" fill="none" xmlns="http://www.w3.org/2000/svg">
<path d="M0.611758 1.06H5.17176V17.95H11.5018V1.06H16.0618V17.95H22.3318V1.06H26.8918V22H0.611758V1.06ZM42.92 22C42.12 22 41.45 21.75 40.91 21.25C40.39 20.75 40.06 20.08 39.92 19.24H39.74C39.5 20.26 38.97 21.04 38.15 21.58C37.33 22.1 36.32 22.36 35.12 22.36C33.54 22.36 32.33 21.94 31.49 21.1C30.65 20.26 30.23 19.15 30.23 17.77C30.23 16.11 30.83 14.88 32.03 14.08C33.25 13.26 34.9 12.85 36.98 12.85H39.47V11.86C39.47 11.1 39.27 10.5 38.87 10.06C38.47 9.6 37.8 9.37 36.86 9.37C35.98 9.37 35.28 9.56 34.76 9.94C34.24 10.32 33.81 10.75 33.47 11.23L30.83 8.89C31.47 7.95 32.27 7.22 33.23 6.7C34.21 6.16 35.53 5.89 37.19 5.89C39.43 5.89 41.11 6.38 42.23 7.36C43.35 8.34 43.91 9.77 43.91 11.65V18.55H45.38V22H42.92ZM36.77 19.27C37.51 19.27 38.14 19.11 38.66 18.79C39.2 18.47 39.47 17.95 39.47 17.23V15.37H37.31C35.57 15.37 34.7 15.96 34.7 17.14V17.59C34.7 18.17 34.88 18.6 35.24 18.88C35.6 19.14 36.11 19.27 36.77 19.27ZM48.36 6.25H59.01V9.7H52.8V22H48.36V6.25ZM83.24 22H68.42V17.89L74.87 12.37C75.45 11.87 75.94 11.42 76.34 11.02C76.74 10.6 77.06 10.2 77.3 9.82C77.56 9.42 77.74 9.03 77.84 8.65C77.96 8.27 78.02 7.86 78.02 7.42V7C78.02 6.6 77.94 6.25 77.78 5.95C77.62 5.65 77.41 5.4 77.15 5.2C76.89 5 76.59 4.85 76.25 4.75C75.93 4.65 75.6 4.6 75.26 4.6C74.76 4.6 74.32 4.68 73.94 4.84C73.58 5 73.26 5.22 72.98 5.5C72.72 5.76 72.5 6.07 72.32 6.43C72.14 6.77 72 7.14 71.9 7.54L67.97 6.04C68.21 5.32 68.54 4.64 68.96 4C69.38 3.34 69.9 2.77 70.52 2.29C71.16 1.79 71.91 1.4 72.77 1.12C73.63 0.839999 74.6 0.699999 75.68 0.699999C76.82 0.699999 77.83 0.859999 78.71 1.18C79.59 1.5 80.33 1.94 80.93 2.5C81.55 3.06 82.02 3.73 82.34 4.51C82.66 5.27 82.82 6.1 82.82 7C82.82 7.9 82.67 8.72 82.37 9.46C82.07 10.2 81.66 10.9 81.14 11.56C80.64 12.2 80.05 12.81 79.37 13.39C78.69 13.97 77.98 14.56 77.24 15.16L73.34 18.22H83.24V22Z" fill="#0466C8"/>
</svg>
