<svg width="83" height="23" viewBox="0 0 83 23" fill="none" xmlns="http://www.w3.org/2000/svg">
<path d="M0.611758 1.06H5.17176V17.95H11.5018V1.06H16.0618V17.95H22.3318V1.06H26.8918V22H0.611758V1.06ZM42.92 22C42.12 22 41.45 21.75 40.91 21.25C40.39 20.75 40.06 20.08 39.92 19.24H39.74C39.5 20.26 38.97 21.04 38.15 21.58C37.33 22.1 36.32 22.36 35.12 22.36C33.54 22.36 32.33 21.94 31.49 21.1C30.65 20.26 30.23 19.15 30.23 17.77C30.23 16.11 30.83 14.88 32.03 14.08C33.25 13.26 34.9 12.85 36.98 12.85H39.47V11.86C39.47 11.1 39.27 10.5 38.87 10.06C38.47 9.6 37.8 9.37 36.86 9.37C35.98 9.37 35.28 9.56 34.76 9.94C34.24 10.32 33.81 10.75 33.47 11.23L30.83 8.89C31.47 7.95 32.27 7.22 33.23 6.7C34.21 6.16 35.53 5.89 37.19 5.89C39.43 5.89 41.11 6.38 42.23 7.36C43.35 8.34 43.91 9.77 43.91 11.65V18.55H45.38V22H42.92ZM36.77 19.27C37.51 19.27 38.14 19.11 38.66 18.79C39.2 18.47 39.47 17.95 39.47 17.23V15.37H37.31C35.57 15.37 34.7 15.96 34.7 17.14V17.59C34.7 18.17 34.88 18.6 35.24 18.88C35.6 19.14 36.11 19.27 36.77 19.27ZM48.36 6.25H59.01V9.7H52.8V22H48.36V6.25ZM74.57 9.34C75.69 9.34 76.5 9.13 77 8.71C77.52 8.27 77.78 7.73 77.78 7.09V6.88C77.78 6.12 77.53 5.51 77.03 5.05C76.55 4.59 75.86 4.36 74.96 4.36C74.12 4.36 73.33 4.58 72.59 5.02C71.85 5.44 71.22 6.05 70.7 6.85L67.88 4.21C68.28 3.69 68.71 3.22 69.17 2.8C69.63 2.36 70.15 1.99 70.73 1.69C71.31 1.37 71.96 1.13 72.68 0.969999C73.4 0.789999 74.21 0.699999 75.11 0.699999C76.23 0.699999 77.24 0.829999 78.14 1.09C79.06 1.35 79.84 1.73 80.48 2.23C81.14 2.71 81.64 3.29 81.98 3.97C82.34 4.65 82.52 5.41 82.52 6.25C82.52 6.91 82.41 7.51 82.19 8.05C81.99 8.59 81.7 9.06 81.32 9.46C80.96 9.86 80.54 10.19 80.06 10.45C79.58 10.69 79.07 10.86 78.53 10.96V11.14C79.15 11.26 79.72 11.46 80.24 11.74C80.78 12 81.24 12.34 81.62 12.76C82.02 13.18 82.33 13.68 82.55 14.26C82.77 14.82 82.88 15.46 82.88 16.18C82.88 17.12 82.69 17.97 82.31 18.73C81.93 19.49 81.39 20.14 80.69 20.68C79.99 21.22 79.15 21.64 78.17 21.94C77.19 22.22 76.11 22.36 74.93 22.36C73.87 22.36 72.93 22.25 72.11 22.03C71.29 21.81 70.57 21.52 69.95 21.16C69.35 20.78 68.82 20.35 68.36 19.87C67.92 19.39 67.53 18.88 67.19 18.34L70.52 15.76C70.98 16.62 71.54 17.33 72.2 17.89C72.88 18.43 73.79 18.7 74.93 18.7C75.95 18.7 76.74 18.45 77.3 17.95C77.88 17.43 78.17 16.73 78.17 15.85V15.67C78.17 14.81 77.84 14.17 77.18 13.75C76.54 13.31 75.65 13.09 74.51 13.09H72.62V9.34H74.57Z" fill="#0466C8"/>
</svg>
