<svg width="84" height="22" viewBox="0 0 84 22" fill="none" xmlns="http://www.w3.org/2000/svg">
<path d="M0.611758 0.0599996H5.17176V16.95H11.5018V0.0599996H16.0618V16.95H22.3318V0.0599996H26.8918V21H0.611758V0.0599996ZM42.92 21C42.12 21 41.45 20.75 40.91 20.25C40.39 19.75 40.06 19.08 39.92 18.24H39.74C39.5 19.26 38.97 20.04 38.15 20.58C37.33 21.1 36.32 21.36 35.12 21.36C33.54 21.36 32.33 20.94 31.49 20.1C30.65 19.26 30.23 18.15 30.23 16.77C30.23 15.11 30.83 13.88 32.03 13.08C33.25 12.26 34.9 11.85 36.98 11.85H39.47V10.86C39.47 10.1 39.27 9.5 38.87 9.06C38.47 8.6 37.8 8.37 36.86 8.37C35.98 8.37 35.28 8.56 34.76 8.94C34.24 9.32 33.81 9.75 33.47 10.23L30.83 7.89C31.47 6.95 32.27 6.22 33.23 5.7C34.21 5.16 35.53 4.89 37.19 4.89C39.43 4.89 41.11 5.38 42.23 6.36C43.35 7.34 43.91 8.77 43.91 10.65V17.55H45.38V21H42.92ZM36.77 18.27C37.51 18.27 38.14 18.11 38.66 17.79C39.2 17.47 39.47 16.95 39.47 16.23V14.37H37.31C35.57 14.37 34.7 14.96 34.7 16.14V16.59C34.7 17.17 34.88 17.6 35.24 17.88C35.6 18.14 36.11 18.27 36.77 18.27ZM48.36 5.25H59.01V8.7H52.8V21H48.36V5.25ZM76.82 21V16.98H67.61V13.14L75.77 0.0599996H81.11V13.5H83.75V16.98H81.11V21H76.82ZM71.21 13.5H76.82V4.71H76.52L71.21 13.5Z" fill="#0466C8"/>
</svg>
